<svg xmlns="http://www.w3.org/2000/svg" width="257" height="257" viewBox="0 0 257 257">
  <g id="グループ_18923" data-name="グループ 18923" transform="translate(4020 7956)">
    <g id="グループ_18921" data-name="グループ 18921" transform="translate(758)">
      <circle id="楕円形_185" data-name="楕円形 185" cx="128.5" cy="128.5" r="128.5" transform="translate(-4778 -7956)" fill="#533afc"/>
    </g>
    <path id="パス_33090" data-name="パス 33090" d="M.291-214.8H-41L-47.6-192.589q1.475-.174,2.82-.26t2.473-.087q19.52,0,32.012,13.187,12.579,13.1,12.579,33.574,0,21.168-14.228,34.875t-35.83,13.707q-26.634,0-41.989-24.985L-74.492-135.5q6.333,10.758,12.753,15.182,6.42,4.338,15.7,4.338a27.261,27.261,0,0,0,20.387-8.5,29.893,29.893,0,0,0,8.242-21.255q0-12.84-8.155-20.995a27.221,27.221,0,0,0-20.387-8.415q-13.62,0-23.511,11.885h-6.68l21.081-70.445H.291Z" transform="translate(-3851.763 -7661.848)" fill="#fff"/>
  </g>
</svg>
