<svg xmlns="http://www.w3.org/2000/svg" width="257" height="257" viewBox="0 0 257 257">
  <g id="グループ_12643" data-name="グループ 12643" transform="translate(4778 8319)">
    <circle id="楕円形_184" data-name="楕円形 184" cx="128.5" cy="128.5" r="128.5" transform="translate(-4778 -8319)" fill="#533afc"/>
    <path id="パス_30674" data-name="パス 30674" d="M42.583-18.179H90.313V0H4.233L48.726-53.872q6.558-8.052,11-13.945A106,106,0,0,0,66.489-77.7q4.731-7.8,4.731-14.028a19.993,19.993,0,0,0-6.309-15.024,21.655,21.655,0,0,0-15.605-6.06q-19.424,0-22.246,22.993H7.8q4.648-40.508,40.923-40.508,17.515,0,29.385,11.123A36.129,36.129,0,0,1,90.063-91.641a41.865,41.865,0,0,1-5.562,20.5,100.445,100.445,0,0,1-8.259,12.41Q70.806-51.548,62.5-41.753Z" transform="translate(-4697.773 -8127.339)" fill="#fff"/>
  </g>
</svg>
