<svg xmlns="http://www.w3.org/2000/svg" width="257" height="257" viewBox="0 0 257 257">
  <g id="グループ_12644" data-name="グループ 12644" transform="translate(4778 7956)">
    <circle id="楕円形_185" data-name="楕円形 185" cx="128.5" cy="128.5" r="128.5" transform="translate(-4778 -7956)" fill="#533afc"/>
    <path id="パス_30675" data-name="パス 30675" d="M43.994-59.517V-76.035q12.285,0,16.519-2.739,7.554-4.814,7.554-15.439a17.5,17.5,0,0,0-5.479-13.364q-5.4-5.229-14.028-5.229-8.052,0-12.451,3.9-4.233,3.984-6.309,13.447H10.542q2.988-18.1,12.285-26.521t25.981-8.425q16.851,0,27.476,9.961,10.625,9.878,10.625,25.483,0,17.6-13.945,27.393Q88.9-58.188,88.9-37.1q0,17.266-11.621,28.223T47.48,2.075q-23.159,0-34.365-17.017Q8.467-22.08,7.222-34.7H25.9q1.494,9.3,7.263,14.236t15.066,4.939A20.892,20.892,0,0,0,63.75-21.748q6.143-6.392,6.143-16.187,0-12.949-9.214-18.428Q55.283-59.517,43.994-59.517Z" transform="translate(-4697.562 -7763.335)" fill="#fff"/>
  </g>
</svg>
