<svg xmlns="http://www.w3.org/2000/svg" xmlns:xlink="http://www.w3.org/1999/xlink" width="1026.688" height="193.5" viewBox="0 0 1026.688 193.5">
  <defs>
    <linearGradient id="linear-gradient" x1="0.5" y1="0.155" x2="0.5" y2="1" gradientUnits="objectBoundingBox">
      <stop offset="0" stop-color="#493afc"/>
      <stop offset="1" stop-color="#ad2cbe"/>
      <stop offset="1" stop-color="#992bba"/>
      <stop offset="1" stop-color="#281d7e"/>
    </linearGradient>
  </defs>
  <g id="グループ_18708" data-name="グループ 18708" transform="translate(11596.759 23829.176)">
    <path id="パス_32893" data-name="パス 32893" d="M-148.043-14.648h-25.82L-180.582,0h-9.8l29.844-64.1L-131.754,0h-9.961Zm-3.711-8.555L-160.7-43.711-170.074-23.2Zm44.641-37.109V0h-9.1V-60.312Zm64.281,23.594h26.016V-60.312h9.1V0h-9.1V-28.164H-42.832V0h-9.1V-60.312h9.1Zm93,22.07H24.348L17.629,0h-9.8L37.668-64.1,66.457,0H56.5ZM46.457-23.2,37.512-43.711,28.137-23.2Zm77.3-33.867v10.781q-7.891-6.6-16.328-6.6a20.791,20.791,0,0,0-15.664,6.68,22.521,22.521,0,0,0-6.406,16.25,21.979,21.979,0,0,0,6.406,16.016,21.159,21.159,0,0,0,15.7,6.523,19.265,19.265,0,0,0,8.164-1.562,23.545,23.545,0,0,0,3.887-2.109,45.939,45.939,0,0,0,4.238-3.2V-3.32a32.874,32.874,0,0,1-16.406,4.414A30.27,30.27,0,0,1,85.277-7.93a29.917,29.917,0,0,1-9.1-21.953A30.97,30.97,0,0,1,83.793-50.43q9.375-11.055,24.258-11.055A30.791,30.791,0,0,1,123.754-57.07ZM154.02-36.25,177.5-60.312h12.148l-27.266,27.3L189.8,0H177.613L155.895-26.836l-1.875,1.875V0h-9.1V-60.312h9.1Z" transform="translate(-11108 -23737)"/>
    <path id="パス_32894" data-name="パス 32894" d="M-337.83-32.64V-21.6h-9.3a55.059,55.059,0,0,1-7.2-.36v6.6a62.934,62.934,0,0,1,7.26-.36h9.24V-3h-15.42a70.348,70.348,0,0,1-8.34-.42V3.42A77.157,77.157,0,0,1-353.07,3h36.72a69.948,69.948,0,0,1,8.16.42V-3.42a65.766,65.766,0,0,1-8.34.42h-14.4V-15.72h10.38a66.7,66.7,0,0,1,7.38.36v-6.6a62.277,62.277,0,0,1-7.38.36h-10.38V-32.64h12.66c2.88,0,5.34.12,7.92.36v-6.6c-2.46.24-5.04.36-8.1.36h-12.48v-4.62a55.946,55.946,0,0,1,.36-7.14h-7.68a48.927,48.927,0,0,1,.42,7.2v4.56h-9.78q1.17-3.15,1.62-4.5a14.373,14.373,0,0,1,.6-1.98,9.481,9.481,0,0,0,.54-1.56l-6.84-1.68a32.561,32.561,0,0,1-1.32,5.58,43.516,43.516,0,0,1-10.14,17.52,18.2,18.2,0,0,1,4.92,5.1,53.012,53.012,0,0,0,8.16-12.6Zm86.22.66a41.43,41.43,0,0,1-5.76,14.04c-1.38-4.56-2.22-10.08-2.76-17.94h10.8c3.06,0,5.34.12,7.32.3v-6.6a33.439,33.439,0,0,1-6.36.36h-1.8l3.12-2.16a33.572,33.572,0,0,0-6.06-6.3l-4.62,2.94a28.35,28.35,0,0,1,5.28,5.52h-7.92v-2.76a49.519,49.519,0,0,1,.3-5.7h-7.14a18.59,18.59,0,0,1,.3,3.78c.12,2.64.12,4.2.18,4.68h-17.4c-3.12,0-5.58-.12-7.74-.3a59.373,59.373,0,0,1,.36,8.52c0,10.68-.6,18.66-1.8,23.7a28.051,28.051,0,0,1-4.14,9.48,22.024,22.024,0,0,1,5.22,5.1,32.456,32.456,0,0,0,4.92-11.7,92.717,92.717,0,0,0,1.86-15.06h8.76a65.219,65.219,0,0,1-.9,10.86c-.3,1.5-.84,1.86-2.7,1.86a36.576,36.576,0,0,1-5.82-.48,22.455,22.455,0,0,1,1.56,6.36c1.92.12,2.88.18,4.56.18,4.62,0,6.78-.9,7.74-3.3,1.02-2.52,1.38-5.7,1.98-16.5.12-2.34.24-4.02.36-5.1a26.215,26.215,0,0,1-4.26.24h-11.04c.06-2.16.06-2.16.12-7.92h18.6c.66,10.56,1.98,17.76,4.5,23.94A45.037,45.037,0,0,1-278.13-.9a19.908,19.908,0,0,1,4.56,5.22,55.215,55.215,0,0,0,14.52-10.5c3.48,5.64,8.22,9.66,11.28,9.66,3.3,0,5.4-3.54,6.78-11.64a17.893,17.893,0,0,1-5.4-4.02c-.72,5.64-.72,5.64-1.14,7.02-.3.78-.54,1.14-.78,1.14a8.722,8.722,0,0,1-2.7-2.16,25.85,25.85,0,0,1-3.6-5.16,65.234,65.234,0,0,0,8.1-15c.96-2.28.96-2.28,1.32-3.18Zm66.3,32.7a62.966,62.966,0,0,1-3.06-7.08l-13.32-34.62a39.73,39.73,0,0,1-2.04-6.06h-10.44a35.539,35.539,0,0,1-1.92,6.06l-13.2,34.62A65.587,65.587,0,0,1-232.47.72h9.84a29.924,29.924,0,0,1,1.8-6.3l2.4-6.54h19.2l2.4,6.54a40.346,40.346,0,0,1,1.68,6.3Zm-16.08-19.74h-14.88l6.24-17.76c.18-.54.18-.54,1.14-3.36.66,1.98.84,2.7,1.08,3.36Zm27-28.02a44.826,44.826,0,0,1,.48,7.74V-7.02a45.27,45.27,0,0,1-.48,7.74h9.12a45.27,45.27,0,0,1-.48-7.74V-39.3a44.826,44.826,0,0,1,.48-7.74Zm75.3,42.78c-7.26-7.02-7.26-7.02-8.76-8.34a93,93,0,0,0-11.1-8.7,79.462,79.462,0,0,0,9.36-16.56,11.54,11.54,0,0,1,1.92-3.24l-3.96-4.08c-1.5.54-1.98.6-5.34.66l-21.12.3h-1.44a26.258,26.258,0,0,1-5.28-.36l.24,7.68a47.285,47.285,0,0,1,6.54-.48c18.9-.3,18.9-.3,19.86-.36l-.66,1.56a57.833,57.833,0,0,1-20.16,24.42,49.536,49.536,0,0,1-12,6.6,24.069,24.069,0,0,1,4.86,6.66,71.3,71.3,0,0,0,22.86-17.34A115.34,115.34,0,0,1-104.85,1.98Zm58.68-37.92a10.629,10.629,0,0,1-4.38.6l-13.14.18c-1.14,0-2.1.06-2.88.12a14.15,14.15,0,0,0,.96-1.92l.78-1.56a12.11,12.11,0,0,1,.78-1.68,12.269,12.269,0,0,1,1.02-1.86l-8.22-1.62c-.24,2.16-1.2,4.5-3.06,7.92-4.38,7.92-8.7,12.72-15.54,17.4,3.12,1.92,4.02,2.7,5.82,5.16A58.727,58.727,0,0,0-64.23-34.8l18.06-.3c-3.3,10.74-8.94,18.96-17.52,25.32-3.78,2.82-7.14,4.62-13.14,7.08a18.487,18.487,0,0,1,5.1,6.3c9.24-4.26,15.84-8.94,21.36-15.24,5.28-5.94,9.54-14.04,12.3-23.16a11.286,11.286,0,0,1,1.5-3.6Zm21.6,23.34c2.4-.3,3.06-.3,9.78-.3H22.83c6.72,0,7.38,0,9.78.3v-8.34c-2.64.36-3.78.42-9.72.42H-9.09c-5.94,0-7.08-.06-9.72-.42ZM55.11-46.92a30.156,30.156,0,0,1,.24,5.46c0,16.8-1.38,24.54-5.7,31.44a24.651,24.651,0,0,1-6.18,6.9A21.354,21.354,0,0,1,49.53,2.7,38.208,38.208,0,0,0,57.81-8.4c3.12-6.18,4.44-12.96,4.86-24.66.36-11.76.36-11.76.6-13.44Zm15.9-.42a25.968,25.968,0,0,1,.24,3.96v1.8l-.3,33.84a26.887,26.887,0,0,1-.54,6.36L74.25,2.7a26.109,26.109,0,0,1,2.58-1.08c6.24-2.46,9.36-4.26,12.78-7.2a37.236,37.236,0,0,0,9.54-13.98,25.149,25.149,0,0,1-5.64-5.64,29.319,29.319,0,0,1-5.88,10.98,24.122,24.122,0,0,1-9.18,6.84l.3-34.14a32.514,32.514,0,0,1,.42-5.7Zm49.08,10.92c-1.5,4.32-7.08,11.04-12.06,14.46a36.886,36.886,0,0,1,2.52,6.6,26.626,26.626,0,0,0,3.9-3.9c-.12,3.42-.12,3.96-.12,6.12V-2.1a52,52,0,0,1-.36,7.02h6.84a49.4,49.4,0,0,1-.3-6.78V-25.38a37.126,37.126,0,0,0,2.76-3.9l.6-.96.42,2.58c1.68-.3,2.34-.36,5.94-.72,2.58-.18,7.68-.78,9.78-1.08.3.84.42,1.14.72,2.1l3.24-1.74a25.29,25.29,0,0,1-1.98,2.94h-12.9c-2.1,0-3.18-.06-4.38-.12.12,1.32.18,2.58.18,5.04v19.8a39.9,39.9,0,0,1-.3,5.94h6.3a33.422,33.422,0,0,1-.3-5.28V-6h7.44v3.42c0,.96-.3,1.2-1.44,1.2a28.336,28.336,0,0,1-3.84-.3,15.355,15.355,0,0,1,1.08,5.28c1.98.06,2.22.06,2.58.06,4.38,0,5.76-.54,6.78-2.58a33.443,33.443,0,0,1,2.16,4.02,40.23,40.23,0,0,0,8.82-10.14,50.049,50.049,0,0,0,8.76,9.84,24.646,24.646,0,0,1,3.48-6.78,31.522,31.522,0,0,1-8.88-9.36c3.12-7.14,4.32-13.38,4.68-24,.84,0,2.1.12,3.18.24v-6.36a27.076,27.076,0,0,1-4.92.3h-6.06c.24-.84.36-1.32.54-2.04,1.2-5.22,1.2-5.22,1.44-6.06l-6.42-1.38a24.9,24.9,0,0,1-.48,4.68,50.508,50.508,0,0,1-4.44,14.94,40.64,40.64,0,0,0-3.9-7.62l-4.56,1.74a23.678,23.678,0,0,1,1.56,2.94c-1.68.18-2.46.24-5.58.48a57.238,57.238,0,0,0,2.22-6h6.72c1.68,0,1.98,0,4.68.12V-45.3a25.571,25.571,0,0,1-4.86.3h-3.78v-1.56a13.626,13.626,0,0,1,.36-3.84h-6.72a17.2,17.2,0,0,1,.3,3.78V-45h-3.72a24.662,24.662,0,0,1-4.02-.18c.84-1.02,1.32-1.62,1.5-1.86L119.97-51c-1.62,3.9-6.42,8.88-11.46,11.94a22.782,22.782,0,0,1,2.88,5.94,41.871,41.871,0,0,0,7.8-6.6,32.091,32.091,0,0,0,3.72-4.32v4.8a36.836,36.836,0,0,1,4.86-.24h1.2a36.919,36.919,0,0,1-2.1,6.3c-.54,0-.72.06-1.38.06Zm36.66,1.08c-.24,7.32-.96,12.24-2.7,17.58a37,37,0,0,1-3.06-13.08c.96-2.46,1.32-3.18,1.74-4.5Zm-13.14,13.8V-23.7a24.958,24.958,0,0,1,1.68,3.06c.78-1.08,1.02-1.44,1.62-2.34a48.105,48.105,0,0,0,3.96,12.18,32.078,32.078,0,0,1-7.26,8.7ZM130.59-10.8v-2.88h7.44v2.88Zm0-7.68v-2.76h7.44v2.76Zm91.8-20.58c-5.04,2.28-16.5,3.6-31.74,3.6.12,1.32.18,2.7.18,5.52v19.32a31.928,31.928,0,0,1-4.14.42h-.42l1.32,6.3c.84-.24,1.98-.48,2.82-.66,11.82-2.22,11.82-2.22,18.42-3.9V-14.1c-4.86,1.2-6.42,1.56-11.7,2.46v-7.68l11.4-.18c1.74,7.68,3.9,12.42,7.5,16.32a36.355,36.355,0,0,1-5.76.3H191.91a30.51,30.51,0,0,1-4.56-.24v6.3a28.831,28.831,0,0,1,5.58-.36h17.34a33.651,33.651,0,0,1,5.76.36V-3.18c3,3.18,6.12,5.04,8.4,5.04,3.54,0,5.52-3.18,6.9-11.16a17.232,17.232,0,0,1-5.22-3.24c-.42,5.4-1.02,7.38-2.1,7.38-.96,0-2.88-1.5-4.44-3.54a27.378,27.378,0,0,1-4.74-10.86l9-.18h1.44a30.641,30.641,0,0,1,4.44.18l-.12-6.12a43.967,43.967,0,0,1-5.76.42l-9.84.12c-.3-2.76-.36-3.36-.48-6.36,4.5-.6,6.24-.9,13.26-2.16ZM197.13-24.9v-5.34c3.9-.18,3.9-.18,10.14-.6.18,2.34.36,4.32.48,5.76Zm4.5-20.7H186.81c-2.64,0-4.8-.12-6.9-.3.18,2.64.24,4.08.24,7.86,0,11.94-.48,21.48-1.38,26.1a29.417,29.417,0,0,1-4.2,11.22,25.369,25.369,0,0,1,5.22,4.98c5.46-9.12,6.78-17.58,6.84-44.1h37.5a56.384,56.384,0,0,1,6.24.24v-6.36a56.1,56.1,0,0,1-7.26.36H208.29v-1.92a13.269,13.269,0,0,1,.3-3.48h-7.26a18.575,18.575,0,0,1,.3,3.42Zm53.22,19.44h8.28a28.684,28.684,0,0,1,5.76.36v-7.08a28.684,28.684,0,0,1-5.76.36h-8.28V-42.54a39.993,39.993,0,0,1,.36-6.72h-7.5a49.48,49.48,0,0,1,.36,6.72V-3.96a38.093,38.093,0,0,1-6.6,1.14l1.44,7.44a25.13,25.13,0,0,1,3.3-1.14c.48-.12.48-.12,1.26-.36,4.38-1.2,4.38-1.2,6.36-1.8,7.26-2.28,10.32-3.36,15-5.16l-.06-6.36c-5.34,1.86-8.28,2.82-13.92,4.44Zm22.92,3.84a104.765,104.765,0,0,0,16.62-10.8c1.26-1.02,1.26-1.02,2.16-1.68l-4.68-5.52c-2.52,3.36-7.14,6.96-14.1,10.98V-42.42a41.222,41.222,0,0,1,.36-6.78h-7.38a46.341,46.341,0,0,1,.36,6.78V-2.28c0,2.7.6,4.14,2.22,4.98,1.56.84,3.54,1.08,9.18,1.08,7.14,0,9.72-.54,11.4-2.4,1.74-1.92,2.4-5.34,2.82-14.28a25.481,25.481,0,0,1-6.36-2.64c-.06,7.44-.42,10.92-1.26,12.06-.6.84-2.04,1.08-6.24,1.08-4.32,0-5.1-.24-5.1-1.56ZM348.99-35.4a43.835,43.835,0,0,0,7.38,11.22l-5.52-2.16a36.057,36.057,0,0,1-3.66,10.92,31.244,31.244,0,0,1-4.26-10.5l-3.9,1.62a48.721,48.721,0,0,0,6.84-11.1l-5.4-2.52a30.914,30.914,0,0,1-7.92,11.76v-4.32c0-3.18.06-4.56.18-5.82a44.984,44.984,0,0,1-5.04.18h-3.36V-39.3h3.24a41.139,41.139,0,0,1,5.46.24v-6.06a32.694,32.694,0,0,1-5.46.3h-3.24v-.72a29.984,29.984,0,0,1,.36-4.92h-6.6a25.909,25.909,0,0,1,.42,4.92v.72h-4.62a33.5,33.5,0,0,1-5.52-.3v6.06a45.845,45.845,0,0,1,5.52-.24h4.62v3.18h-2.82c-2.76,0-3.96-.06-5.94-.18a58.5,58.5,0,0,1,.24,6.24v10.32c0,2.76-.06,4.86-.24,6.72,2.16-.12,3.36-.18,6.06-.18h2.7v3.84h-4.92a32.189,32.189,0,0,1-5.52-.3v6.24a34.4,34.4,0,0,1,5.52-.3h4.92V-.48a32.7,32.7,0,0,1-.42,5.52h6.6a37.745,37.745,0,0,1-.36-5.28V-3.72h4.5a30.033,30.033,0,0,1,4.92.3V-9.66a29.156,29.156,0,0,1-4.92.3h-4.5V-13.2h3.12a50.369,50.369,0,0,1,5.28.18c-.12-1.68-.18-3.54-.18-6.48v-4.2a25.274,25.274,0,0,1,3,3.24c.96-.96,1.26-1.26,1.98-2.04a64.68,64.68,0,0,0,5.94,12.36A35.056,35.056,0,0,1,329.73-.42a18.753,18.753,0,0,1,4.02,5.52A42.139,42.139,0,0,0,347.19-5.28c3.6,4.2,6.54,6.48,13.26,10.38a27.816,27.816,0,0,1,3.48-6.3c-5.94-2.58-9.36-4.92-13.02-9.06a57.4,57.4,0,0,0,5.76-13.62c1.08,1.08,1.62,1.68,3.18,3.12a30.811,30.811,0,0,1,4.08-5.22,34.276,34.276,0,0,1-9.84-12Zm-24.9,17.34v-4.26h3.66v4.26Zm0-9v-4.2h3.66v4.2Zm-5.4-4.2v4.2h-3.66v-4.2Zm0,8.94v4.26h-3.66v-4.26Zm25.5-21.78h-3.96a32.236,32.236,0,0,1-5.94-.36v6.54a42.433,42.433,0,0,1,5.94-.3h16.5c2.22,0,4.26.12,6.12.3V-44.4a43.23,43.23,0,0,1-6.06.3h-6.12v-2.04a22,22,0,0,1,.3-4.38h-7.08a24.487,24.487,0,0,1,.3,4.5Z" transform="translate(-10934 -23660)"/>
    <line id="線_240" data-name="線 240" y2="193.5" transform="translate(-11367.769 -23829.176)" fill="none" stroke="#000" stroke-width="5"/>
    <path id="中マド_3" data-name="中マド 3" d="M115.09,158.5H43.876a7.008,7.008,0,0,1-7-7V100.309a7.008,7.008,0,0,1,7-7H115.09a7.008,7.008,0,0,1,7,7V151.5A7.008,7.008,0,0,1,115.09,158.5ZM91.267,110.053V140.6h4.621V110.053ZM66.056,133.182H79.168l3.213,7.42h5.058L72.82,108.134,57.666,140.6h4.979l3.412-7.419ZM29.335,148.034l0,0L1.212,120.022a4.164,4.164,0,0,1-.88-4.557L21.288,65.3a4.129,4.129,0,0,1,3.018-2.508L37.59,60.157A20.784,20.784,0,0,1,32.4,51.546a21.089,21.089,0,0,1-.6-9.741H54.522c.215,6.908,3.061,15.255,7.429,21.785,5.029,7.518,11.306,11.658,17.676,11.658S92.273,71.109,97.3,63.591c4.368-6.53,7.214-14.878,7.428-21.785h22.716a21.087,21.087,0,0,1-.6,9.741,20.782,20.782,0,0,1-5.187,8.611l13.286,2.634a4.13,4.13,0,0,1,3.018,2.508l20.955,50.166a4.163,4.163,0,0,1-.88,4.557l-28.12,28.007,0-51.878A12.54,12.54,0,0,0,117.346,83.61H41.908A12.54,12.54,0,0,0,29.335,96.152v51.882Zm47.948-19.184h-9.3l4.76-10.388,4.542,10.386Zm2.344-61.961A9.552,9.552,0,0,1,73.6,64.32a25.972,25.972,0,0,1-5.257-6.37,41.166,41.166,0,0,1-3.795-8.172A30.079,30.079,0,0,1,62.9,41.805H96.349a30.076,30.076,0,0,1-1.643,7.974,41.165,41.165,0,0,1-3.795,8.172,25.972,25.972,0,0,1-5.257,6.37A9.552,9.552,0,0,1,79.627,66.888Zm44.257-33.444H35.369A17.417,17.417,0,0,1,36.878,31.4L55.528,10.7a32.483,32.483,0,0,1,48.2,0L122.375,31.4a14.438,14.438,0,0,1,1.507,2.045l0,0Z" transform="translate(-11596.195 -23811.676)" stroke="rgba(0,0,0,0)" stroke-miterlimit="10" stroke-width="1" fill="url(#linear-gradient)"/>
  </g>
</svg>
