<svg xmlns="http://www.w3.org/2000/svg" xmlns:xlink="http://www.w3.org/1999/xlink" width="998.303" height="193.5" viewBox="0 0 998.303 193.5">
  <defs>
    <linearGradient id="linear-gradient" x1="0.5" y1="0.155" x2="0.5" y2="1" gradientUnits="objectBoundingBox">
      <stop offset="0" stop-color="#144aff"/>
      <stop offset="1" stop-color="#3b7fff"/>
    </linearGradient>
  </defs>
  <g id="グループ_18735" data-name="グループ 18735" transform="translate(-816.053 10648.176)">
    <g id="グループ_18733" data-name="グループ 18733" transform="translate(12423.078 13181)">
      <g id="グループ_18708" data-name="グループ 18708">
        <path id="パス_32893" data-name="パス 32893" d="M-148.043-14.648h-25.82L-180.582,0h-9.8l29.844-64.1L-131.754,0h-9.961Zm-3.711-8.555L-160.7-43.711-170.074-23.2Zm44.641-37.109V0h-9.1V-60.312Zm64.281,23.594h26.016V-60.312h9.1V0h-9.1V-28.164H-42.832V0h-9.1V-60.312h9.1Zm93,22.07H24.348L17.629,0h-9.8L37.668-64.1,66.457,0H56.5ZM46.457-23.2,37.512-43.711,28.137-23.2Zm77.3-33.867v10.781q-7.891-6.6-16.328-6.6a20.791,20.791,0,0,0-15.664,6.68,22.521,22.521,0,0,0-6.406,16.25,21.979,21.979,0,0,0,6.406,16.016,21.159,21.159,0,0,0,15.7,6.523,19.265,19.265,0,0,0,8.164-1.562,23.545,23.545,0,0,0,3.887-2.109,45.939,45.939,0,0,0,4.238-3.2V-3.32a32.874,32.874,0,0,1-16.406,4.414A30.27,30.27,0,0,1,85.277-7.93a29.917,29.917,0,0,1-9.1-21.953A30.97,30.97,0,0,1,83.793-50.43q9.375-11.055,24.258-11.055A30.791,30.791,0,0,1,123.754-57.07ZM154.02-36.25,177.5-60.312h12.148l-27.266,27.3L189.8,0H177.613L155.895-26.836l-1.875,1.875V0h-9.1V-60.312h9.1Z" transform="translate(-11108 -23737)"/>
        <line id="線_240" data-name="線 240" y2="193.5" transform="translate(-11367.769 -23829.176)" fill="none" stroke="#000" stroke-width="5"/>
      </g>
    </g>
    <path id="中マド_4" data-name="中マド 4" d="M122.377,167.25h-76.3a7.008,7.008,0,0,1-7-7V105.462a7.008,7.008,0,0,1,7-7h76.3a7.008,7.008,0,0,1,7,7v54.787A7.008,7.008,0,0,1,122.377,167.25ZM96.714,116.131v32.236h4.9V116.131ZM70,140.538H83.892l3.406,7.829h5.359L77.165,114.106,61.106,148.367h5.276L70,140.538ZM31.083,156.209l0,0-29.8-29.557a4.383,4.383,0,0,1-.933-4.809L22.557,68.906a4.37,4.37,0,0,1,3.2-2.647L39.833,63.48a21.919,21.919,0,0,1-5.5-9.087A22.165,22.165,0,0,1,33.7,44.114H57.775C58,51.4,61.019,60.211,65.648,67.1c5.329,7.933,11.981,12.3,18.731,12.3s13.4-4.369,18.731-12.3c4.628-6.89,7.645-15.7,7.872-22.989h24.071a22.163,22.163,0,0,1-.633,10.279,21.917,21.917,0,0,1-5.5,9.087L143,66.259a4.37,4.37,0,0,1,3.2,2.647l22.207,52.936a4.383,4.383,0,0,1-.933,4.809l-29.8,29.554,0-54.743a13.107,13.107,0,0,0-3.9-9.363,13.285,13.285,0,0,0-9.427-3.871H44.408A13.287,13.287,0,0,0,34.981,92.1a13.107,13.107,0,0,0-3.9,9.363v54.748Zm50.811-20.244H72.037L77.081,125l4.813,10.959Zm2.484-65.383a10.145,10.145,0,0,1-6.388-2.709,27.433,27.433,0,0,1-5.57-6.721A43.361,43.361,0,0,1,68.4,52.528a31.634,31.634,0,0,1-1.741-8.414H102.1a31.631,31.631,0,0,1-1.741,8.414,43.361,43.361,0,0,1-4.022,8.623,27.433,27.433,0,0,1-5.57,6.721A10.145,10.145,0,0,1,84.379,70.582Zm46.9-35.291h-93.8a18.4,18.4,0,0,1,1.6-2.162L58.841,11.293a34.521,34.521,0,0,1,51.075,0l19.763,21.836a15.138,15.138,0,0,1,1.6,2.16v0h0Z" transform="translate(816.621 -10635.051)" stroke="rgba(0,0,0,0)" stroke-miterlimit="10" stroke-width="1" fill="url(#linear-gradient)"/>
    <path id="パス_32910" data-name="パス 32910" d="M-105.942-24.621V0h-7.283V-24.621H-115.8v-6.768h2.578V-43.506q0-5.93,2.063-8.379,2.836-3.416,8.25-3.416a14.184,14.184,0,0,1,4.866,1.128v7.412l-.741-.387a9.1,9.1,0,0,0-3.867-1.192,2.623,2.623,0,0,0-2.61,1.386,13.347,13.347,0,0,0-.677,5.221v10.345h7.9v6.768Zm18.008,8.7a15.6,15.6,0,0,1,4.866-11.569,16.306,16.306,0,0,1,11.859-4.77,16.4,16.4,0,0,1,11.924,4.8A15.98,15.98,0,0,1-54.45-15.662,15.9,15.9,0,0,1-59.316-3.835,16.632,16.632,0,0,1-71.337.9,15.95,15.95,0,0,1-83.164-3.932,16.257,16.257,0,0,1-87.933-15.92Zm7.412.129a10.587,10.587,0,0,0,2.514,7.444,8.85,8.85,0,0,0,6.8,2.771,8.838,8.838,0,0,0,6.8-2.739,10.317,10.317,0,0,0,2.546-7.315,10.317,10.317,0,0,0-2.546-7.315,8.85,8.85,0,0,0-6.8-2.771,8.773,8.773,0,0,0-6.735,2.771A10.086,10.086,0,0,0-80.521-15.791Zm40.341-15.6h7.251v2.8a13.846,13.846,0,0,1,3.545-2.868,8.13,8.13,0,0,1,3.738-.806,11.711,11.711,0,0,1,5.994,1.869l-3.319,6.639A6.923,6.923,0,0,0-27-25.233q-5.93,0-5.93,8.959V0H-40.18ZM19.458,0V-49.758h7.477a32.734,32.734,0,0,1,7.96.773,11.96,11.96,0,0,1,5.06,2.61,13.545,13.545,0,0,1,3.319,4.737,14.334,14.334,0,0,1,1.257,5.8,11.756,11.756,0,0,1-4.093,9.056,12.025,12.025,0,0,1,6.252,4.737,13.361,13.361,0,0,1,2.32,7.8,13.253,13.253,0,0,1-4.125,9.861A13.539,13.539,0,0,1,39.31-.935,32.429,32.429,0,0,1,30.834,0Zm7.509-28.392H29.32q4.189,0,6.139-1.853a7.187,7.187,0,0,0,1.95-5.462,6.853,6.853,0,0,0-2-5.333,8.328,8.328,0,0,0-5.8-1.821H26.967Zm0,21.334h4.641q5.092,0,7.477-2A6.908,6.908,0,0,0,41.6-14.534a7.018,7.018,0,0,0-2.417-5.414q-2.353-2.159-8.411-2.159h-3.8ZM70.95-31.389V0H63.7V-31.389ZM62.6-44.44a4.492,4.492,0,0,1,1.386-3.287,4.528,4.528,0,0,1,3.319-1.386,4.566,4.566,0,0,1,3.352,1.386,4.46,4.46,0,0,1,1.386,3.319,4.566,4.566,0,0,1-1.386,3.352,4.46,4.46,0,0,1-3.319,1.386,4.566,4.566,0,0,1-3.352-1.386A4.6,4.6,0,0,1,62.6-44.44ZM97.144-6.832H115.8V0H82.771l20.335-24.621H87.089v-6.768h30.357Z" transform="translate(1656 -10555)" fill="#0e4cc3"/>
    <path id="パス_32909" data-name="パス 32909" d="M-331.4,2.754c1.728-.324,2.862-.486,8.748-1.08A178.324,178.324,0,0,0-303.1-1.134c.864,1.674,1.242,2.484,2.484,4.968l5.292-3.186C-300.4-8.1-301.7-10.1-306.234-15.984L-311.04-13.5a68.815,68.815,0,0,1,5.292,7.668A129.6,129.6,0,0,1-320.112-4.05l.486-1.026a108,108,0,0,0,4.752-10.476c.756-2,.756-2,1.08-2.97h12.69a42.586,42.586,0,0,1,5.616.324v-6.048a42.879,42.879,0,0,1-5.67.324h-10.368v-8.1h8.694a37.076,37.076,0,0,1,5.454.27v-5.94a39.212,39.212,0,0,1-5.508.324h-8.64v-2.376a31.174,31.174,0,0,1,.324-5.67h-6.534a29.113,29.113,0,0,1,.324,5.67v2.376h-6.426a38.882,38.882,0,0,1-5.724-.324v5.94c1.728-.162,3.564-.27,5.67-.27h6.48v8.1h-8.424a42.457,42.457,0,0,1-5.886-.324V-18.2a46.745,46.745,0,0,1,5.832-.324h5.832a81.785,81.785,0,0,1-6.7,14.9c-1.836.108-3.132.162-4,.162-.54,0-.972,0-1.836-.054Zm-11.718-43.686a55.081,55.081,0,0,1,9.288,7.452l3.672-4.7a56.787,56.787,0,0,0-9.288-6.912Zm-2.322,13.338a55.632,55.632,0,0,1,9.612,7.182l3.4-4.914a66.907,66.907,0,0,0-9.666-6.588Zm8.154,10.746c-2.754,7.452-6.048,14.148-7.938,16.2l5.184,4.536a10.879,10.879,0,0,0,.648-1.35c.7-1.674.7-1.674,1.674-3.672,2.16-4.482,3.348-7.344,5.238-12.312Zm72.63-27.81a35.319,35.319,0,0,1,.216,4.536c0,12.96-2.916,21.816-9.882,29.808-3.4,3.888-6.264,6.1-11.772,9.018a16.154,16.154,0,0,1,4.212,5.562,45.546,45.546,0,0,0,8.37-6.21,37.6,37.6,0,0,0,8.316-10.368,38.64,38.64,0,0,0,4.212-10.908A42.693,42.693,0,0,0-253.8-8.478c3.834,5.076,7.128,8.154,13.716,12.744a20.09,20.09,0,0,1,4.212-5.994,35.961,35.961,0,0,1-8.37-5.832,36.2,36.2,0,0,1-8.532-10.26c-3.888-6.858-5.292-12.582-5.292-21.276a35.726,35.726,0,0,1,.378-5.562Zm45.792,6.642a45.481,45.481,0,0,1-5.13-.216c.162,2,.216,3.4.216,5.346V-2.43a34.165,34.165,0,0,1-.324,5.994h6.642a33.85,33.85,0,0,1-.378-5.994V-32.616h32.4V-3.834c0,1.3-.324,1.512-2.43,1.512a68.855,68.855,0,0,1-6.966-.486,18.018,18.018,0,0,1,1.4,5.832c3.564.216,4.59.27,5.832.27,2.97,0,4.86-.27,5.94-.81,1.566-.81,2.214-2.268,2.214-4.86V-32.94a41.288,41.288,0,0,1,.27-5.292,48.212,48.212,0,0,1-5.238.216h-17.6c.7-1.4,1.08-2.322,1.89-4.32.486-1.188.972-2.268,1.242-2.808l-6.7-.756a37.069,37.069,0,0,1-3.078,7.884Zm27.81,14.472a24.556,24.556,0,0,1,.27-4.1,28.372,28.372,0,0,1-3.942.216H-208.98a26.755,26.755,0,0,1-3.834-.216,23,23,0,0,1,.27,3.942V-9.234a32.614,32.614,0,0,1-.324,4.536h5.94v-3.78h11.61c1.4,0,3.294.054,4.536.108a23.428,23.428,0,0,1-.27-4.32Zm-15.876,1.3h10.206v8.478h-10.206Zm57.564-3.78h.81c.648,0,.864,0,2.43.108,1.4.054,3.4.108,4.914.108,2.7,0,5.508-.054,7.344-.216.054,1.782.054,2.268.054,3.4,0,7.992-.972,11.772-3.78,15.174a22.25,22.25,0,0,1-8.262,5.886,21.271,21.271,0,0,1,5.238,5.076,35.123,35.123,0,0,0,5.886-4.1,20.238,20.238,0,0,0,6.156-10.476c.756-2.7,1.134-7.182,1.134-12.906,0-.972,0-1.458-.054-2.592a38.146,38.146,0,0,0,5.238-.918,26.309,26.309,0,0,1,3.024-.54l-.378-6.426a29.708,29.708,0,0,1-8.046,2.052c-.108-3.456-.216-5.508-.216-6.1-.108-2.43-.108-2.916-.108-3.456a11.773,11.773,0,0,1,.108-1.836l-6.858.108c.324,1.944.378,2.43.7,11.934-2.808.162-3.672.216-5.724.216a48.11,48.11,0,0,1-9.612-.7Zm-3.456,6.966a55.718,55.718,0,0,0-3.564,8.91c0-.864-.054-1.188-.108-2.052v-.972c-.054-2.646-.054-3.564-.054-4.158-.054-.864-.054-1.512-.054-1.674,0-1.026.108-2.592.378-6.156a72.743,72.743,0,0,1,1.4-10.638,52.168,52.168,0,0,1,1.566-6.588l-7.128-.7a23.765,23.765,0,0,1-.378,4c-1.674,11.178-2,14.364-2,20.466a77.7,77.7,0,0,0,1.944,17.55,8.8,8.8,0,0,1,.378,2.052l6.264-.324c.108-3.888,2.592-10.8,6.156-17.334ZM-66.8.648a56.671,56.671,0,0,1-2.754-6.372L-81.54-36.882a35.757,35.757,0,0,1-1.836-5.454h-9.4A31.984,31.984,0,0,1-94.5-36.882L-106.38-5.724A59.027,59.027,0,0,1-109.242.648h8.856a26.932,26.932,0,0,1,1.62-5.67l2.16-5.886h17.28l2.16,5.886A36.31,36.31,0,0,1-75.654.648ZM-81.27-17.118H-94.662L-89.046-33.1c.162-.486.162-.486,1.026-3.024.594,1.782.756,2.43.972,3.024Zm24.3-25.218a40.344,40.344,0,0,1,.432,6.966V-6.318A40.743,40.743,0,0,1-56.97.648h8.208a40.743,40.743,0,0,1-.432-6.966V-35.37a40.344,40.344,0,0,1,.432-6.966Zm44.388,15.39a6.407,6.407,0,0,0-6.426,6.426,6.407,6.407,0,0,0,6.426,6.426A6.407,6.407,0,0,0-6.156-20.52,6.407,6.407,0,0,0-12.582-26.946ZM24.084-6.318A43.68,43.68,0,0,1,23.652.81C25.866.7,27.216.648,30.51.648h9.828C46.71.648,51.03-.81,54.486-4.05c4.212-4,6.372-9.828,6.372-17.172,0-7.02-2.052-12.636-5.994-16.362-3.456-3.348-7.83-4.752-14.58-4.752H30.51c-3.4,0-4.7-.054-6.858-.162a45.266,45.266,0,0,1,.432,7.02Zm7.182.594v-30.24h8.64c4.7,0,7.506.918,9.72,3.24,2.484,2.592,3.726,6.426,3.726,11.556,0,5.076-1.35,9.234-3.942,11.988-2.268,2.43-5.13,3.456-9.558,3.456ZM108.972.648c-2.646-3.24-3.942-4.914-5.184-6.7L92.34-22.14l9.936-13.986c1.62-2.268,3.186-4.32,4.7-6.21H97.362a34.721,34.721,0,0,1-3.4,6.048l-5.994,9.18-6.156-9.18a41.365,41.365,0,0,1-3.456-6.048H68.688c1.674,2.052,3.294,4.158,4.752,6.21l9.936,14.04L71.928-5.994C70.794-4.428,70.038-3.4,66.852.648H76.68C77.652-1.134,79-3.456,80.3-5.4l7.56-11.5L95.472-5.346c1.35,2.052,2.538,4,3.618,5.994Zm35.1-26.082a34.117,34.117,0,0,1-5.4-.27v6.048a35.559,35.559,0,0,1,5.292-.27,42.3,42.3,0,0,1-1.026,8.532,26.874,26.874,0,0,1-6.264,12.42A14.041,14.041,0,0,1,141.75,4.86a30.9,30.9,0,0,0,6.642-13.986,53.107,53.107,0,0,0,1.3-10.8h6.264V-2.268a64.384,64.384,0,0,1-.324,6.642h6.426a54.438,54.438,0,0,1-.378-6.7v-17.6h.432a34.965,34.965,0,0,1,5.4.27V-25.7a33.7,33.7,0,0,1-5.4.27h-.432v-12.8a33.412,33.412,0,0,1,5.292.27v-5.886a42.919,42.919,0,0,1-5.778.324H145.584a36.822,36.822,0,0,1-5.94-.324v5.886a28.263,28.263,0,0,1,4.428-.27Zm5.724,0v-12.8h6.156v12.8ZM124.74-38.07a30.617,30.617,0,0,1-1.836,7.29c-1.89,5.292-3.888,8.586-6.858,11.556a19.559,19.559,0,0,1,2.106,6.7,21.153,21.153,0,0,0,3.4-5.022c-.108,2.916-.108,3.132-.108,5.238V-2.43a39.754,39.754,0,0,1-.324,5.508h5.832v-5.4H131.6V.162h5.346a40.293,40.293,0,0,1-.162-4.212V-22.626a28.734,28.734,0,0,1,.162-3.942,25.647,25.647,0,0,1-3.24.162H127.17a44.443,44.443,0,0,0,3.4-11.664h2.754a39.457,39.457,0,0,1,4.644.216v-5.778a28.487,28.487,0,0,1-5.184.324h-9.45a35.673,35.673,0,0,1-5.238-.324V-37.8a30.3,30.3,0,0,1,4.644-.27Zm2.214,16.848h4.7V-7.074h-4.7Zm99.522-20.25a35.237,35.237,0,0,1-6.048.324H207.792c.594-1.188.918-1.836,1.782-3.618L203.742-45.9a26.04,26.04,0,0,1-8.37,12.528c.054-1.35.108-2,.216-2.916h-5.67a38.908,38.908,0,0,1,.216,5.022V-9.288a29.823,29.823,0,0,1-.324,5.616h5.832a31.976,31.976,0,0,1-.27-5.508V-30.942a20.483,20.483,0,0,1,2.646,2.376,32.393,32.393,0,0,0,4.32-4.266,26.779,26.779,0,0,0,4.374,5.238,35.863,35.863,0,0,1-10.368,3.618,18.694,18.694,0,0,1,2.376,4.644,45.959,45.959,0,0,0,11.988-5.022c3.834,2.592,7.938,4.266,14.9,5.994a21.115,21.115,0,0,1,2.268-5.562c-5.994-.864-9.126-1.782-12.8-3.672a32.042,32.042,0,0,0,6.642-8.532,40.226,40.226,0,0,1,4.752.216Zm-10.638,5.346a19.06,19.06,0,0,1-4.968,5.778,22.235,22.235,0,0,1-5.13-5.778ZM181.872-2a56.967,56.967,0,0,1-.324,6.48h5.94a56.9,56.9,0,0,1-.27-6.48V-31.7a71.823,71.823,0,0,0,4.05-9.99c.486-1.566.486-1.566.81-2.43l-6.1-1.566c-1.026,6.966-5.346,15.93-10.26,21.33a27.22,27.22,0,0,1,2.592,6.318,27.97,27.97,0,0,0,3.726-5.778c-.108,2.43-.162,3.78-.162,6.426Zm28.782-19.98c-2.754,2.538-7.452,4.482-14.2,5.832a15.307,15.307,0,0,1,2.7,4.212c6.372-1.782,10.314-3.456,13.554-5.778,1.458-1.026,1.458-1.026,1.944-1.35Zm5.454,4.1c-2.754,3.618-10.962,7.506-19.17,9.072a14.26,14.26,0,0,1,2.592,4.536c9.234-2.43,13.824-4.7,21.114-10.53Zm6.21,4.752a22.542,22.542,0,0,1-6.858,5.886c-5.67,3.456-11.934,5.562-20.466,6.912a21.015,21.015,0,0,1,2.808,4.86C210.168,1.89,216.972-1.3,224.748-8.1c.81-.756,1.458-1.242,2.106-1.782Zm25.866-10.422h7.452a25.816,25.816,0,0,1,5.184.324v-6.372a25.816,25.816,0,0,1-5.184.324h-7.452v-9.018a35.994,35.994,0,0,1,.324-6.048h-6.75a44.532,44.532,0,0,1,.324,6.048V-3.564a34.284,34.284,0,0,1-5.94,1.026l1.3,6.7a22.618,22.618,0,0,1,2.97-1.026c.432-.108.432-.108,1.134-.324,3.942-1.08,3.942-1.08,5.724-1.62,6.534-2.052,9.288-3.024,13.5-4.644l-.054-5.724c-4.806,1.674-7.452,2.538-12.528,4Zm20.628,3.456a94.288,94.288,0,0,0,14.958-9.72c1.134-.918,1.134-.918,1.944-1.512L281.5-36.288c-2.268,3.024-6.426,6.264-12.69,9.882V-38.178a37.1,37.1,0,0,1,.324-6.1h-6.642a41.705,41.705,0,0,1,.324,6.1V-2.052c0,2.43.54,3.726,2,4.482,1.4.756,3.186.972,8.262.972,6.426,0,8.748-.486,10.26-2.16,1.566-1.728,2.16-4.806,2.538-12.852a22.933,22.933,0,0,1-5.724-2.376c-.054,6.7-.378,9.828-1.134,10.854-.54.756-1.836.972-5.616.972-3.888,0-4.59-.216-4.59-1.4Zm64.1-11.772a39.45,39.45,0,0,0,6.642,10.1l-4.968-1.944a32.451,32.451,0,0,1-3.294,9.828,28.12,28.12,0,0,1-3.834-9.45l-3.51,1.458a43.849,43.849,0,0,0,6.156-9.99l-4.86-2.268a27.823,27.823,0,0,1-7.128,10.584v-3.888c0-2.862.054-4.1.162-5.238a40.486,40.486,0,0,1-4.536.162h-3.024V-35.37h2.916a37.025,37.025,0,0,1,4.914.216v-5.454a29.425,29.425,0,0,1-4.914.27h-2.916v-.648a26.984,26.984,0,0,1,.324-4.428H305.1a23.32,23.32,0,0,1,.378,4.428v.648H301.32a30.15,30.15,0,0,1-4.968-.27v5.454a41.26,41.26,0,0,1,4.968-.216h4.158v2.862H302.94c-2.484,0-3.564-.054-5.346-.162a52.645,52.645,0,0,1,.216,5.616v9.288c0,2.484-.054,4.374-.216,6.048,1.944-.108,3.024-.162,5.454-.162h2.43v3.456H301.05a28.97,28.97,0,0,1-4.968-.27v5.616a30.959,30.959,0,0,1,4.968-.27h4.428V-.432a29.434,29.434,0,0,1-.378,4.968h5.94a33.968,33.968,0,0,1-.324-4.752V-3.348h4.05a27.03,27.03,0,0,1,4.428.27V-8.694a26.241,26.241,0,0,1-4.428.27h-4.05V-11.88h2.808a45.332,45.332,0,0,1,4.752.162c-.108-1.512-.162-3.186-.162-5.832v-3.78a22.743,22.743,0,0,1,2.7,2.916c.864-.864,1.134-1.134,1.782-1.836a58.211,58.211,0,0,0,5.346,11.124A31.55,31.55,0,0,1,315.576-.378a16.877,16.877,0,0,1,3.618,4.968,37.925,37.925,0,0,0,12.1-9.342c3.24,3.78,5.886,5.832,11.934,9.342a25.035,25.035,0,0,1,3.132-5.67c-5.346-2.322-8.424-4.428-11.718-8.154a51.657,51.657,0,0,0,5.184-12.258c.972.972,1.458,1.512,2.862,2.808a27.728,27.728,0,0,1,3.672-4.7,30.848,30.848,0,0,1-8.856-10.8ZM310.5-16.254v-3.834h3.294v3.834Zm0-8.1v-3.78h3.294v3.78Zm-4.86-3.78v3.78h-3.294v-3.78Zm0,8.046v3.834h-3.294v-3.834Zm22.95-19.6h-3.564a29.013,29.013,0,0,1-5.346-.324v5.886a38.191,38.191,0,0,1,5.346-.27h14.85c2,0,3.834.108,5.508.27V-39.96a38.907,38.907,0,0,1-5.454.27h-5.508v-1.836a19.8,19.8,0,0,1,.27-3.942H328.32a22.037,22.037,0,0,1,.27,4.05Z" transform="translate(1468 -10483)"/>
  </g>
</svg>
