<svg xmlns="http://www.w3.org/2000/svg" xmlns:xlink="http://www.w3.org/1999/xlink" width="558" height="558" viewBox="0 0 558 558">
  <defs>
    <clipPath id="clip-アートボード_102">
      <rect width="558" height="558"/>
    </clipPath>
  </defs>
  <g id="アートボード_102" data-name="アートボード – 102" clip-path="url(#clip-アートボード_102)">
    <rect width="558" height="558" fill="#fff"/>
    <g id="グループ_6482" data-name="グループ 6482" transform="translate(-8026.706 -540.975)">
      <g id="グループ_6475" data-name="グループ 6475" transform="translate(8123 755.74)">
        <g id="グループ_6474" data-name="グループ 6474">
          <g id="グループ_68" data-name="グループ 68">
            <g id="グループ_65" data-name="グループ 65" transform="translate(0 14.423)">
              <g id="グループ_6320" data-name="グループ 6320" transform="translate(255.353 16.966)">
                <path id="パス_685" data-name="パス 685" d="M0,0V37.86" transform="translate(4.391 0)" fill="rgba(0,0,0,0)"/>
                <path id="パス_685_-_アウトライン" data-name="パス 685 - アウトライン" d="M-8.718,37.86H-17.5V0h8.782Z" transform="translate(17.5 0)" fill="#333"/>
                <path id="線_38" data-name="線 38" d="M8.782,26.853H0V0H8.782Z" transform="translate(27.305 7.794) rotate(90)" fill="#333"/>
              </g>
              <path id="パス_47" data-name="パス 47" d="M205.852-109.8l-9.622,29.583L183.2-109.8H173.088l13.027,29.587h10.112L187.885-54.57H198l17.982-55.236Z" transform="translate(-131.203 117.535)" fill="#333"/>
              <g id="グループ_437" data-name="グループ 437">
                <path id="線_37" data-name="線 37" d="M-8.718,53.947H-17.5V0h8.782Z" transform="translate(17.5)" fill="#333"/>
                <path id="長方形_222" data-name="長方形 222" d="M8.782,8.782V24.841H24.841V8.782H8.782M0,0H33.623V33.623H0Z" transform="translate(0 20.45)" fill="#333"/>
              </g>
              <g id="グループ_438" data-name="グループ 438" transform="translate(214.705 16.213)">
                <path id="線_38-2" data-name="線 38" d="M-8.718,37.86H-17.5V0h8.782Z" transform="translate(17.5 0)" fill="#333"/>
                <path id="パス_11923" data-name="パス 11923" transform="translate(30.065 4.197) rotate(180)" fill="#333"/>
              </g>
            </g>
            <path id="パス_44" data-name="パス 44" d="M42.55,29.946V20.958H10.35v8.988Z" transform="translate(322.862 56.751)" fill="#f6c44c"/>
            <g id="グループ_69" data-name="グループ 69" transform="translate(96.295)">
              <path id="パス_46" data-name="パス 46" d="M15.884-109.919h8.781v-42.3H41.4V-161H-.69v8.777H15.884Z" transform="translate(32.179 178.737)" fill="#333"/>
              <path id="長方形_22" data-name="長方形 22" d="M7.527,7.528V79.169H219.6V7.528H7.527M0,0H227.131V86.7H0Z" transform="translate(0)" fill="#333"/>
            </g>
          </g>
        </g>
        <path id="パス_11924" data-name="パス 11924" d="M18.968-83.5h9.3v.743a15.364,15.364,0,0,1-.6,4.491A9.544,9.544,0,0,1,25.7-74.879a10.2,10.2,0,0,1-7.975,3.528,10.964,10.964,0,0,1-8.091-3.412,11.312,11.312,0,0,1-3.369-8.223A11.285,11.285,0,0,1,9.7-91.3a11.351,11.351,0,0,1,8.34-3.427,11.412,11.412,0,0,1,4.928,1.079,14.213,14.213,0,0,1,4.3,3.5l-2.421,2.318a8.213,8.213,0,0,0-6.75-3.688A8.064,8.064,0,0,0,12.1-89.051a8.227,8.227,0,0,0-2.42,6.065,7.98,7.98,0,0,0,2.7,6.2,8.047,8.047,0,0,0,5.467,2.26,6.788,6.788,0,0,0,4.505-1.691A6.019,6.019,0,0,0,24.582-80.3H18.968Zm37.939-7.6H47.883v5.409h8.762v3.193H47.883v7.523h9.025v3.193H44.485V-94.285H56.907ZM73.313-71.774V-95.816L89.729-78.641V-94.285h3.4V-70.4L76.709-87.535v15.761Zm49.574-19.318h-9.025v5.409h8.762v3.193h-8.762v7.523h9.025v3.193H110.464V-94.285h12.422Zm24.03,9.725,6.969,9.594H149.73L143.3-80.989h-.612v9.214h-3.4V-94.285h3.98q4.461,0,6.444,1.677a6.16,6.16,0,0,1,2.187,4.928,6.4,6.4,0,0,1-1.37,4.112,6.109,6.109,0,0,1-3.616,2.2Zm-4.228-2.58h1.079q4.826,0,4.826-3.688,0-3.455-4.695-3.455h-1.21Zm39.747,6.707H172.8l-2.508,5.467h-3.66L177.77-95.7l10.745,23.925H184.8Zm-1.385-3.193-3.339-7.654-3.5,7.654ZM208.23-91.092v19.318h-3.4V-91.092h-5.175v-3.193h13.734v3.193Zm23.535-3.193v22.511h-3.4V-94.285Zm18.49,0,6.225,15.6,6.313-15.6h3.718l-10.1,24.2-9.871-24.2Zm43.422,3.193H284.65v5.409h8.762v3.193H284.65v7.523h9.025v3.193H281.254V-94.285h12.422Zm50.786,13.851h-9.637l-2.507,5.467h-3.659L339.8-95.7l10.745,23.925h-3.718Zm-1.385-3.193-3.338-7.654-3.5,7.654ZM368.7-94.285v22.511h-3.4V-94.285Z" transform="translate(-5.949 198.552)" fill="#333"/>
      </g>
      <g id="グループ_6478" data-name="グループ 6478" transform="translate(8378.183 774.624)">
        <rect id="長方形_3359" data-name="長方形 3359" width="9.033" height="50.434" fill="#333"/>
        <rect id="長方形_3360" data-name="長方形 3360" width="9.033" height="30.648" transform="translate(31.275 20.199) rotate(90)" fill="#333"/>
        <rect id="長方形_3361" data-name="長方形 3361" width="9.033" height="30.236" transform="translate(22.242 20.199)" fill="#333"/>
      </g>
      <g id="グループ_6479" data-name="グループ 6479" transform="translate(8337.409 786.292)">
        <rect id="長方形_3362" data-name="長方形 3362" width="9.033" height="30.648" transform="translate(30.648) rotate(90)" fill="#333"/>
        <rect id="長方形_3363" data-name="長方形 3363" width="9.033" height="30.648" transform="translate(9.033 38.157) rotate(180)" fill="#333"/>
        <rect id="長方形_3364" data-name="長方形 3364" width="9.033" height="30.648" transform="translate(0 38.157) rotate(-90)" fill="#333"/>
      </g>
      <g id="グループ_6481" data-name="グループ 6481" transform="translate(8296.76 786.292)">
        <rect id="長方形_3366" data-name="長方形 3366" width="9.033" height="38.157" transform="translate(9.033 38.157) rotate(180)" fill="#333"/>
        <g id="グループ_6480" data-name="グループ 6480" transform="translate(0)">
          <rect id="長方形_3367" data-name="長方形 3367" width="9.033" height="31.382" transform="translate(31.382) rotate(90)" fill="#333"/>
          <rect id="長方形_3368" data-name="長方形 3368" width="9.033" height="31.382" transform="translate(31.382 13.8) rotate(90)" fill="#333"/>
          <rect id="長方形_3370" data-name="長方形 3370" width="9.033" height="31.382" transform="translate(31.382 29.124) rotate(90)" fill="#333"/>
          <rect id="長方形_3369" data-name="長方形 3369" width="9.033" height="22.833" transform="translate(31.382 22.833) rotate(180)" fill="#333"/>
        </g>
      </g>
    </g>
  </g>
</svg>
