<svg xmlns="http://www.w3.org/2000/svg" width="81.147" height="79.627" viewBox="0 0 81.147 79.627">
  <g id="グループ_286" data-name="グループ 286" transform="translate(-1505.927 -1378.979)">
    <g id="グループ_281" data-name="グループ 281" transform="translate(1465.162 765)">
      <g id="グループ_1" data-name="グループ 1">
        <path id="パス_1" data-name="パス 1" d="M115.993,683.718V628.765l-17.619,29.3-17.035-29.3L64.3,658.062l-17.619-29.3v54.952Z" fill="#a3a3a3"/>
        <rect id="長方形_2" data-name="長方形 2" width="69.31" height="5.277" transform="translate(46.683 688.33)" fill="#a3a3a3"/>
      </g>
      <path id="パス_2" data-name="パス 2" d="M87.257,619.9a5.919,5.919,0,1,1-5.919-5.919A5.919,5.919,0,0,1,87.257,619.9Z" fill="#a3a3a3"/>
      <circle id="楕円形_1" data-name="楕円形 1" cx="5.919" cy="5.919" r="5.919" transform="translate(40.764 613.979)" fill="#a3a3a3"/>
      <circle id="楕円形_2" data-name="楕円形 2" cx="5.919" cy="5.919" r="5.919" transform="translate(110.074 613.979)" fill="#a3a3a3"/>
    </g>
    <path id="パス_614" data-name="パス 614" d="M3.36-3.96c.81-1.35,1.68-2.31,5.58-5.01,5.52-3.81,6.51-5.55,6.51-8.58s-2.61-5.28-6.75-5.28c-3.72,0-6.96,2.58-6.96,5.13a2.205,2.205,0,0,0,2.34,2.28,2.078,2.078,0,0,0,2.19-2.19,2.063,2.063,0,0,0-1.05-1.71c-.42-.27-.48-.36-.48-.66,0-1.08,1.41-2.04,2.79-2.04,2.01,0,3.48,1.44,3.48,4.53,0,2.52-.69,3.99-4.11,7.83A30.325,30.325,0,0,0,1.41-1.74a1.4,1.4,0,0,0-.18.84c0,.51.12.54.36.54,2.1-.06,4.2-.06,6.57-.06,2.28,0,4.23,0,6.42.06.54-1.62,1.47-5.04,1.77-6.6,0-.21-.12-.3-.36-.3a.275.275,0,0,0-.3.21c-.96,2.7-1.38,3.09-3.66,3.09Z" transform="translate(1538 1443)" fill="#fff"/>
  </g>
</svg>
