<svg xmlns="http://www.w3.org/2000/svg" width="81.147" height="79.627" viewBox="0 0 81.147 79.627">
  <g id="グループ_285" data-name="グループ 285" transform="translate(-1353.927 -1378.979)">
    <g id="グループ_280" data-name="グループ 280" transform="translate(1313.162 765)">
      <g id="グループ_1" data-name="グループ 1">
        <path id="パス_1" data-name="パス 1" d="M115.993,683.718V628.765l-17.619,29.3-17.035-29.3L64.3,658.062l-17.619-29.3v54.952Z" fill="#d9ae55"/>
        <rect id="長方形_2" data-name="長方形 2" width="69.31" height="5.277" transform="translate(46.683 688.33)" fill="#d9ae55"/>
      </g>
      <path id="パス_2" data-name="パス 2" d="M87.257,619.9a5.919,5.919,0,1,1-5.919-5.919A5.919,5.919,0,0,1,87.257,619.9Z" fill="#d9ae55"/>
      <circle id="楕円形_1" data-name="楕円形 1" cx="5.919" cy="5.919" r="5.919" transform="translate(40.764 613.979)" fill="#d9ae55"/>
      <circle id="楕円形_2" data-name="楕円形 2" cx="5.919" cy="5.919" r="5.919" transform="translate(110.074 613.979)" fill="#d9ae55"/>
    </g>
    <path id="パス_613" data-name="パス 613" d="M5.28-20.04a5.084,5.084,0,0,1,.69-.03,1.153,1.153,0,0,1,1.17,1.29V-3.69c0,2.19-.33,2.61-3.18,2.76-.27,0-.3.03-.3.3,0,.24.03.27.3.27C5.37-.42,7.47-.45,9.12-.45c1.59,0,3.9.03,5.28.09.3,0,.33-.03.33-.27,0-.27-.03-.3-.33-.3-3.06-.15-3.24-.57-3.24-2.76v-11.7l.06-7.11q0-.36-.45-.36a54.879,54.879,0,0,1-7.65,2.43c-.27.06-.33.15-.33.27,0,.27.06.36.33.36Z" transform="translate(1386 1443)" fill="#fff"/>
  </g>
</svg>
