<svg xmlns="http://www.w3.org/2000/svg" width="81.147" height="79.627" viewBox="0 0 81.147 79.627">
  <g id="グループ_287" data-name="グループ 287" transform="translate(-1657.768 -1378.979)">
    <g id="グループ_282" data-name="グループ 282" transform="translate(1617.004 765)">
      <g id="グループ_1" data-name="グループ 1">
        <path id="パス_1" data-name="パス 1" d="M115.993,683.718V628.765l-17.619,29.3-17.035-29.3L64.3,658.062l-17.619-29.3v54.952Z" fill="#c1826d"/>
        <rect id="長方形_2" data-name="長方形 2" width="69.31" height="5.277" transform="translate(46.683 688.33)" fill="#c1826d"/>
      </g>
      <path id="パス_2" data-name="パス 2" d="M87.257,619.9a5.919,5.919,0,1,1-5.919-5.919A5.919,5.919,0,0,1,87.257,619.9Z" fill="#c1826d"/>
      <circle id="楕円形_1" data-name="楕円形 1" cx="5.919" cy="5.919" r="5.919" transform="translate(40.764 613.979)" fill="#c1826d"/>
      <circle id="楕円形_2" data-name="楕円形 2" cx="5.919" cy="5.919" r="5.919" transform="translate(110.074 613.979)" fill="#c1826d"/>
    </g>
    <path id="パス_615" data-name="パス 615" d="M9.36-12.42c3.66-.54,5.61-2.52,5.61-5.16,0-3.21-2.7-5.25-6.48-5.25-3.75,0-6.63,2.28-6.63,4.26a2.173,2.173,0,0,0,2.28,2.28,2,2,0,0,0,2.19-2.13,2.2,2.2,0,0,0-.84-1.56c-.3-.24-.36-.36-.36-.66,0-.78,1.05-1.5,2.43-1.5,1.92,0,3.15,1.56,3.15,4.62,0,3.54-1.2,4.92-3.09,4.92-.48,0-1.05-.15-1.29-.15-.39,0-.66.33-.66.81,0,.24.09.33.36.33.57,0,.96-.15,1.92-.15,2.37,0,3.6,1.59,3.6,5.25,0,4.05-1.71,6.06-4.05,6.06-1.74,0-2.7-.72-2.7-1.8a.569.569,0,0,1,.33-.57,1.938,1.938,0,0,0,.84-1.5A2.159,2.159,0,0,0,3.63-6.54a2.326,2.326,0,0,0-2.37,2.4C1.26-1.8,3.63.18,8.22.18c4.8,0,7.83-2.67,7.83-6.66,0-2.85-2.19-5.07-6.69-5.76Z" transform="translate(1689.842 1443)" fill="#fff"/>
  </g>
</svg>
