<svg xmlns="http://www.w3.org/2000/svg" width="81.147" height="79.627" viewBox="0 0 81.147 79.627">
  <g id="グループ_288" data-name="グループ 288" transform="translate(-1805.768 -1378.979)">
    <g id="グループ_283" data-name="グループ 283" transform="translate(1765.004 765)">
      <g id="グループ_1" data-name="グループ 1">
        <path id="パス_1" data-name="パス 1" d="M115.993,683.718V628.765l-17.619,29.3-17.035-29.3L64.3,658.062l-17.619-29.3v54.952Z" fill="#62a782"/>
        <rect id="長方形_2" data-name="長方形 2" width="69.31" height="5.277" transform="translate(46.683 688.33)" fill="#62a782"/>
      </g>
      <path id="パス_2" data-name="パス 2" d="M87.257,619.9a5.919,5.919,0,1,1-5.919-5.919A5.919,5.919,0,0,1,87.257,619.9Z" fill="#62a782"/>
      <circle id="楕円形_1" data-name="楕円形 1" cx="5.919" cy="5.919" r="5.919" transform="translate(40.764 613.979)" fill="#62a782"/>
      <circle id="楕円形_2" data-name="楕円形 2" cx="5.919" cy="5.919" r="5.919" transform="translate(110.074 613.979)" fill="#62a782"/>
    </g>
    <path id="パス_616" data-name="パス 616" d="M13.02-6.48c.72,0,1.59,0,2.82.09.12,0,.21-.06.27-.24l.24-.63c0-.15-.09-.21-.24-.21-1.41.12-2.25.15-3.09.15v-8.01l.06-7.26c0-.21-.09-.3-.33-.3l-2.58.51C6.96-17.52,4.41-13.53,1.44-8.52a1.907,1.907,0,0,0-.42,1.29c0,.69.09.78.39.78.9,0,1.86-.03,3.03-.03H9.09v3.06c0,1.98-.15,2.37-2.82,2.49C6.06-.9,6-.87,6-.63s.06.27.27.27C7.62-.42,9.39-.48,11.1-.48c1.56,0,3.36.06,4.68.12.15,0,.24-.03.24-.27s-.03-.27-.21-.3c-2.76-.12-2.79-.51-2.79-2.55ZM9.09-7.32H2.19c-.21,0-.24-.03-.24-.21a.5.5,0,0,1,.09-.33c2.37-4.11,4.59-7.59,7.08-11.4,0,1.77-.03,3.03-.03,4.77Z" transform="translate(1837.842 1443)" fill="#fff"/>
  </g>
</svg>
