<svg xmlns="http://www.w3.org/2000/svg" width="81.147" height="79.627" viewBox="0 0 81.147 79.627">
  <g id="グループ_289" data-name="グループ 289" transform="translate(-1965.403 -1378.979)">
    <g id="グループ_284" data-name="グループ 284" transform="translate(1924.639 765)">
      <g id="グループ_1" data-name="グループ 1">
        <path id="パス_1" data-name="パス 1" d="M115.993,683.718V628.765l-17.619,29.3-17.035-29.3L64.3,658.062l-17.619-29.3v54.952Z" fill="#7d62a7"/>
        <rect id="長方形_2" data-name="長方形 2" width="69.31" height="5.277" transform="translate(46.683 688.33)" fill="#7d62a7"/>
      </g>
      <path id="パス_2" data-name="パス 2" d="M87.257,619.9a5.919,5.919,0,1,1-5.919-5.919A5.919,5.919,0,0,1,87.257,619.9Z" fill="#7d62a7"/>
      <circle id="楕円形_1" data-name="楕円形 1" cx="5.919" cy="5.919" r="5.919" transform="translate(40.764 613.979)" fill="#7d62a7"/>
      <circle id="楕円形_2" data-name="楕円形 2" cx="5.919" cy="5.919" r="5.919" transform="translate(110.074 613.979)" fill="#7d62a7"/>
    </g>
    <path id="パス_617" data-name="パス 617" d="M4.32-18.66H9.99c1.32,0,2.16.03,3.69.09a.513.513,0,0,0,.39-.21l1.2-3.33c0-.15-.06-.24-.27-.24-2.1.09-4.41.12-6,.12-1.53,0-3.39,0-4.68-.03a.566.566,0,0,0-.42.18.546.546,0,0,0-.21.39l-.9,10.02c-.06.6-.18.51-.18.84,0,.18.36.42.78.42.18,0,.24-.09.36-.27a4.419,4.419,0,0,1,3.54-2.13c2.19,0,3.99,1.89,3.99,5.61,0,4.29-1.62,6.75-4.11,6.75-1.32,0-2.28-.63-2.28-1.68a.569.569,0,0,1,.33-.57,1.938,1.938,0,0,0,.84-1.5A2.159,2.159,0,0,0,3.72-6.42a2.326,2.326,0,0,0-2.37,2.4c0,2.25,2.4,4.2,6.6,4.2,4.53,0,7.8-3,7.8-7.44,0-3.9-3.06-6.51-7.32-6.51A6.068,6.068,0,0,0,3.6-11.61c.09-.66.15-1.26.21-1.8Z" transform="translate(1997.477 1443)" fill="#fff"/>
  </g>
</svg>
