<svg xmlns="http://www.w3.org/2000/svg" xmlns:xlink="http://www.w3.org/1999/xlink" width="2290.572" height="377.46" viewBox="0 0 2290.572 377.46">
  <defs>
    <linearGradient id="linear-gradient" x1="0.5" x2="0.5" y2="1" gradientUnits="objectBoundingBox">
      <stop offset="0" stop-color="#edd14c"/>
      <stop offset="1" stop-color="#d1ac3a"/>
    </linearGradient>
  </defs>
  <g id="グループ_18848" data-name="グループ 18848" transform="translate(-2513.773 -1156)">
    <g id="グループ_12680" data-name="グループ 12680" transform="translate(-0.27 21.438)">
      <g id="グループ_12639" data-name="グループ 12639" transform="translate(2304 536.439)">
        <g id="グループ_9212" data-name="グループ 9212" transform="translate(-56 514)">
          <g id="グループ_9210" data-name="グループ 9210" transform="translate(-93.416 -21.875)">
            <g id="グループ_9209" data-name="グループ 9209" transform="translate(642.385 137.738)">
              <path id="パス_24163" data-name="パス 24163" d="M310,1634.241q-.371.016-.737.058c-.244.03-.487.072-.723.1a8.5,8.5,0,0,0-1.387.312c-.112.035-.222.073-.333.112s-.215.072-.321.112q-.32.118-.624.264a6.322,6.322,0,0,0-1.132.7,12.93,12.93,0,0,1-2.25,1.352,11.562,11.562,0,0,1-1.173.482c-.385.14-.762.26-1.119.365-.177.052-.352.1-.518.145l-.474.1c-.3.063-.57.112-.794.148-.449.073-.72.1-.72.1a15.028,15.028,0,0,0,1.649,1.143c.453.251.929.5,1.42.729.07.031.14.065.211.1l.286.127.012.005c.675.262,1.371.513,2.079.717.718.181,1.441.353,2.159.469a14.608,14.608,0,0,0,2.2.157,13.694,13.694,0,0,0,2.04-.218,12.085,12.085,0,0,0,1.817-.558,6.06,6.06,0,0,0,.811-.387c.259-.141.506-.293.74-.45s.455-.324.664-.5c.1-.087.2-.175.3-.264s.192-.192.283-.29a7.113,7.113,0,0,0,.929-1.236,6.186,6.186,0,0,0,.853-2.784l.006-.087-.126-.054A14.681,14.681,0,0,0,310,1634.241Z" transform="translate(-274.076 -1546.462)" fill="#f5c04b"/>
              <path id="パス_24164" data-name="パス 24164" d="M491.667,1563.641a6.78,6.78,0,0,0,2.983-.708,5.847,5.847,0,0,0,.6-.349,5.375,5.375,0,0,0,.541-.427,5.249,5.249,0,0,0,1.465-2.22l.028-.077-.1-.091a14.825,14.825,0,0,0-2.519-1.794,10.545,10.545,0,0,0-1.336-.684,13.119,13.119,0,0,0-1.353-.539c-.459-.138-.906-.279-1.355-.377-.224-.047-.448-.087-.67-.117-.112-.016-.224-.028-.334-.038s-.217-.028-.326-.037a6.607,6.607,0,0,0-1.272,0,5.828,5.828,0,0,0-.611.1,4.537,4.537,0,0,0-.576.145,10.2,10.2,0,0,1-1.159.3c-.2.038-.4.073-.6.1s-.4.054-.6.066a16.418,16.418,0,0,1-2.269.007c-.682-.063-1.276-.157-1.7-.236s-.675-.138-.675-.138a18.726,18.726,0,0,0,1.22,1.567c.222.269.471.51.721.759s.512.494.779.738c.134.119.266.244.407.358l.426.339c.286.223.577.443.871.656.148.106.294.217.445.316l.458.29q.46.285.92.553a11.925,11.925,0,0,0,3.823,1.405,7.072,7.072,0,0,0,.9.119C491.095,1563.643,491.385,1563.648,491.667,1563.641Z" transform="translate(-466.676 -1473.31)" fill="#f5c04b"/>
              <path id="パス_24165" data-name="パス 24165" d="M647.285,1386.875c.128.052.259.1.387.14a8.138,8.138,0,0,0,1.484.356,4.49,4.49,0,0,0,4.435-1.791l.044-.061-.071-.115a16.2,16.2,0,0,0-3.987-4.5,10.445,10.445,0,0,0-1.132-.8c-.192-.119-.391-.223-.581-.328s-.382-.206-.574-.293a6.578,6.578,0,0,0-1.159-.412,5.145,5.145,0,0,0-1.122-.176,9.939,9.939,0,0,1-1.119-.1c-.189-.028-.379-.063-.568-.1s-.368-.089-.551-.138a15.935,15.935,0,0,1-2.057-.722c-.6-.276-1.121-.548-1.487-.754s-.581-.339-.581-.339c.208.583.461,1.188.752,1.8.073.154.145.311.225.462s.167.3.253.454c.172.3.35.609.538.913a19.592,19.592,0,0,0,1.227,1.771c.22.284.432.576.669.843s.469.534.705.792.5.534.753.773.522.461.782.672.521.408.779.593.532.337.794.487.525.283.782.4C647.031,1386.763,647.159,1386.821,647.285,1386.875Z" transform="translate(-633.035 -1305.199)" fill="#f5c04b"/>
              <path id="パス_24166" data-name="パス 24166" d="M770.415,1171.905c.1.084.206.162.308.239s.212.145.317.213q.316.2.628.361a6.037,6.037,0,0,0,1.218.48,4.442,4.442,0,0,0,1.172.127,3.51,3.51,0,0,0,2.022-.705l.052-.04-.035-.129a19.241,19.241,0,0,0-1.063-2.875c-.228-.445-.439-.9-.688-1.321s-.516-.824-.775-1.22a11.125,11.125,0,0,0-.846-1.094,10.585,10.585,0,0,0-.893-.948,7.949,7.949,0,0,0-.952-.754,4.86,4.86,0,0,0-.973-.531,12.948,12.948,0,0,1-3.637-2.358c-.481-.442-.887-.855-1.17-1.157s-.448-.49-.448-.49a22.382,22.382,0,0,0,2.326,7.746,14.683,14.683,0,0,0,2.2,3.3A12.659,12.659,0,0,0,770.415,1171.905Z" transform="translate(-763.475 -1101.848)" fill="#f5c04b"/>
              <path id="パス_24167" data-name="パス 24167" d="M848.56,942.785a7.846,7.846,0,0,0,.92,1.154,5.487,5.487,0,0,0,1.99,1.36,3.2,3.2,0,0,0,1.993.061l.055-.017v-.127c0-.248-.015-.492-.026-.738s-.023-.5-.044-.744c-.041-.492-.118-.977-.2-1.457a13.268,13.268,0,0,0-.3-1.422c-.058-.232-.135-.459-.2-.688s-.132-.45-.208-.67a12.781,12.781,0,0,0-.509-1.267,10.317,10.317,0,0,0-.579-1.15,8.75,8.75,0,0,0-.685-.991,5.275,5.275,0,0,0-.75-.8c-.266-.225-.528-.473-.784-.736a10.436,10.436,0,0,1-.731-.829A20.619,20.619,0,0,1,847.279,932l-.25-.4c-.076-.131-.145-.257-.212-.374-.134-.237-.247-.452-.342-.63-.186-.359-.291-.579-.291-.579a22.209,22.209,0,0,0,.334,7.648c.071.342.15.677.233,1,.042.162.084.325.129.483s.1.312.153.466a17.761,17.761,0,0,0,.69,1.717A11.489,11.489,0,0,0,848.56,942.785Z" transform="translate(-845.986 -886.639)" fill="#f5c04b"/>
              <path id="パス_24168" data-name="パス 24168" d="M866.329,716.852a12.364,12.364,0,0,0,.4,1.56,10.414,10.414,0,0,0,.561,1.33c.843,1.614,1.986,2.524,3.221,2.614l.054,0,.029-.114a16.509,16.509,0,0,0,.459-5.442,12.139,12.139,0,0,0-.154-1.3c-.039-.213-.078-.421-.119-.623s-.092-.4-.144-.6a9.77,9.77,0,0,0-.385-1.112,5.677,5.677,0,0,0-.5-.956c-.188-.288-.369-.6-.539-.915s-.318-.646-.464-.977-.278-.665-.4-.991-.221-.642-.315-.944c-.183-.6-.33-1.136-.414-1.517s-.126-.609-.126-.609c-.1.229-.2.468-.292.719s-.173.513-.254.784-.16.548-.234.832-.131.581-.19.88-.116.6-.167.908-.086.62-.124.93-.07.627-.1.939-.039.63-.055.941c-.014.328-.022.651-.02.969s.022.632.042.937A13.094,13.094,0,0,0,866.329,716.852Z" transform="translate(-864.844 -676.983)" fill="#f5c04b"/>
              <path id="パス_24169" data-name="パス 24169" d="M817.707,518.835c.045.215.1.419.154.616s.128.389.2.571a5.424,5.424,0,0,0,.5.977,3.406,3.406,0,0,0,1.384,1.251l.047.021.054-.091a14.023,14.023,0,0,0,1.691-4.684,11.234,11.234,0,0,0,.163-1.211c.028-.4.055-.789.047-1.174a9.156,9.156,0,0,0-.089-1.115,6.027,6.027,0,0,0-.228-1.017c-.1-.318-.193-.649-.275-.988s-.14-.679-.195-1.021a17.955,17.955,0,0,1-.209-1.951c-.032-.592-.039-1.11-.038-1.48s.019-.581.019-.581a17.5,17.5,0,0,0-2.8,5.676c-.087.284-.167.569-.238.848s-.125.566-.177.843a13.046,13.046,0,0,0-.2,1.627,13.189,13.189,0,0,0,0,1.515A10.887,10.887,0,0,0,817.707,518.835Z" transform="translate(-812.626 -490.239)" fill="#f5c04b"/>
              <path id="パス_24170" data-name="パス 24170" d="M702.924,361.371l.036.035.07-.061a11.458,11.458,0,0,0,2.586-3.576,10.107,10.107,0,0,0,.417-1.023,8.667,8.667,0,0,0,.31-1.026,6.96,6.96,0,0,0,.2-1.993c-.02-.314-.029-.64-.025-.965s.026-.646.052-.967a17.313,17.313,0,0,1,.238-1.8c.1-.536.208-.995.288-1.321.041-.164.074-.293.1-.379s.036-.122.038-.133a14.22,14.22,0,0,0-3.714,4.108,12.587,12.587,0,0,0-.746,1.351,14.129,14.129,0,0,0-.545,1.363,9.931,9.931,0,0,0-.49,2.607,6.249,6.249,0,0,0,.257,2.2A3.789,3.789,0,0,0,702.924,361.371Z" transform="translate(-690.608 -341.455)" fill="#f5c04b"/>
              <path id="パス_24171" data-name="パス 24171" d="M539.522,251.961l.074-.031a8.691,8.691,0,0,0,3.1-2.286,8.6,8.6,0,0,0,1.1-1.572,5.818,5.818,0,0,0,.619-1.693,11.169,11.169,0,0,1,.451-1.695,14.922,14.922,0,0,1,.6-1.51c.411-.88.772-1.485.772-1.485a11.505,11.505,0,0,0-4.163,2.424,9.183,9.183,0,0,0-2.759,4.087,4.831,4.831,0,0,0,.176,3.717Z" transform="translate(-519.369 -241.688)" fill="#f5c04b"/>
              <path id="パス_24172" data-name="パス 24172" d="M308.408,1426.21a9.859,9.859,0,0,0-.666-1.286c-.063-.1-.126-.2-.193-.3s-.132-.209-.2-.311q-.2-.307-.43-.6c-.148-.194-.3-.38-.464-.562s-.324-.353-.493-.539a10.3,10.3,0,0,0-1.066-1,9.894,9.894,0,0,0-1.159-.9,10.754,10.754,0,0,0-1.249-.78,20.947,20.947,0,0,0-4.789-2.135s.071.218.193.6c.06.192.132.426.215.695.041.135.084.279.131.431l.151.462c.1.325.215.679.333,1.052s.236.785.366,1.18c.254.8.512,1.679.737,2.552a6.151,6.151,0,0,0,.49,1.257,6.75,6.75,0,0,0,.349.6c.064.1.129.194.2.288s.143.178.217.265a7.927,7.927,0,0,0,1.012.977,4.485,4.485,0,0,0,.584.408q.305.189.628.351a6.912,6.912,0,0,0,5.68.26l.118-.047,0-.085A8.452,8.452,0,0,0,308.408,1426.21Z" transform="translate(-267.014 -1343.679)" fill="#f5c04b"/>
              <path id="パス_24173" data-name="パス 24173" d="M463.337,1338.793l.044.609c.026.389.057.948.089,1.625.042.658.09,1.431.122,2.267.007.211.017.421.028.628s.017.422.026.637c.015.429.022.866.02,1.3a5.448,5.448,0,0,0,.141,1.316,7.651,7.651,0,0,0,.422,1.305c.045.107.093.216.144.321s.108.206.164.307c.116.2.24.4.374.6a6.994,6.994,0,0,0,.91,1.119,8.551,8.551,0,0,0,1.1.948,9.825,9.825,0,0,0,1.247.717,6.4,6.4,0,0,0,2.718.578l.119,0,.016-.08a8.126,8.126,0,0,0,.079-2.784c-.032-.234-.073-.464-.121-.7s-.1-.475-.16-.709a11.927,11.927,0,0,0-.452-1.381,16,16,0,0,0-3.121-5.011A22.07,22.07,0,0,0,463.337,1338.793Z" transform="translate(-439.535 -1269.65)" fill="#f5c04b"/>
              <path id="パス_24174" data-name="パス 24174" d="M605.445,1235.592c-.058-.239-.122-.478-.195-.712s-.153-.466-.234-.7-.161-.475-.253-.709-.19-.461-.3-.686-.2-.466-.317-.693a24.153,24.153,0,0,0-2.765-4.623s-.035.209-.095.572-.157.883-.279,1.511-.235,1.335-.394,2.108c-.077.379-.159.773-.24,1.173s-.174.792-.273,1.187a5.834,5.834,0,0,0-.177,1.248,7.9,7.9,0,0,0,.089,1.318q.052.338.131.681a6.965,6.965,0,0,0,.2.668,10.381,10.381,0,0,0,.558,1.325,7.984,7.984,0,0,0,4.052,3.765l.108.038.035-.066a9.26,9.26,0,0,0,.738-5.266,12.805,12.805,0,0,0-.228-1.426C605.554,1236.066,605.5,1235.827,605.445,1235.592Z" transform="translate(-582.883 -1165.342)" fill="#f5c04b"/>
              <path id="パス_24175" data-name="パス 24175" d="M697.871,1101.035a8.756,8.756,0,0,0,2.759,4.773l.087.073.047-.047a6.039,6.039,0,0,0,1.262-1.988,9.02,9.02,0,0,0,.39-1.2,11.231,11.231,0,0,0,.263-1.309c.032-.223.057-.448.076-.675s.032-.463.048-.691a12.73,12.73,0,0,0,0-1.414,17.949,17.949,0,0,0-.35-2.913,25.818,25.818,0,0,0-1.46-5.142l-.215.492c-.14.311-.342.754-.593,1.286-.471,1.045-1.134,2.466-1.833,3.754a5.5,5.5,0,0,0-.446,1.072,6.5,6.5,0,0,0-.222,1.22,8.449,8.449,0,0,0-.019,1.333A11.084,11.084,0,0,0,697.871,1101.035Z" transform="translate(-685.941 -1037.005)" fill="#f5c04b"/>
              <path id="パス_24176" data-name="パス 24176" d="M748.171,947.3c.134-.415.23-.84.328-1.279a11.8,11.8,0,0,0,.234-1.353l.035-.346c.016-.119.029-.236.041-.354.025-.236.041-.475.051-.716a25.713,25.713,0,0,0-.151-5.2l-.307.382-.358.433c-.07.082-.144.169-.222.264s-.154.189-.236.29c-.331.4-.725.871-1.159,1.356-.214.237-.433.483-.657.735s-.455.487-.69.719a4.54,4.54,0,0,0-.65.82,5.688,5.688,0,0,0-.48,1.026,8.643,8.643,0,0,0-.33,1.194,10.183,10.183,0,0,0-.129,1.306c-.009.225-.012.454-.007.682a6.767,6.767,0,0,0,.054.686,12.561,12.561,0,0,0,.237,1.37,9.81,9.81,0,0,0,.44,1.305c.086.209.179.415.278.614s.219.387.337.572l.063.094.054-.026a4.724,4.724,0,0,0,1.6-1.342,8.367,8.367,0,0,0,1.186-2.037C747.879,948.118,748.045,947.713,748.171,947.3Z" transform="translate(-734.926 -894.164)" fill="#f5c04b"/>
              <path id="パス_24177" data-name="パス 24177" d="M731,787.541a4.522,4.522,0,0,0-.265.506,8.947,8.947,0,0,0-.449,6.264l.033.1.055-.005a5.083,5.083,0,0,0,3.287-2.084,12.954,12.954,0,0,0,2.226-4.372,23.463,23.463,0,0,0,1.048-4.761s-.134.091-.368.246-.552.375-.951.63l-.641.407c-.221.145-.458.293-.7.443s-.5.3-.763.447-.516.292-.781.424a3.676,3.676,0,0,0-.763.527,4.491,4.491,0,0,0-.667.764C731.2,787.226,731.1,787.38,731,787.541Z" transform="translate(-722.09 -749.066)" fill="#f5c04b"/>
              <path id="パス_24178" data-name="パス 24178" d="M676.248,646.678l.049.014a3.443,3.443,0,0,0,1.717.017,4.748,4.748,0,0,0,.861-.293c.141-.065.281-.136.42-.213s.284-.159.423-.248a6.84,6.84,0,0,0,.814-.609,8.642,8.642,0,0,0,.784-.738c.243-.271.5-.552.734-.86.119-.152.227-.314.344-.475s.228-.328.336-.5a19.423,19.423,0,0,0,2.038-3.971s-.14.04-.384.106-.583.164-1,.267-.887.225-1.4.335c-.254.056-.52.1-.785.154s-.528.094-.794.126a3.012,3.012,0,0,0-.8.222,3.8,3.8,0,0,0-.77.462,4.771,4.771,0,0,0-.724.675,7.523,7.523,0,0,0-.641.86,8.491,8.491,0,0,0-1.23,4.562Z" transform="translate(-666.538 -613.775)" fill="#f5c04b"/>
              <path id="パス_24179" data-name="パス 24179" d="M589.257,512.825l-.023.094.041.03a3.323,3.323,0,0,0,1.513.6,4.783,4.783,0,0,0,1.691-.1,6.807,6.807,0,0,0,1.733-.677,6.9,6.9,0,0,0,.859-.529,10.2,10.2,0,0,0,.836-.654,15.326,15.326,0,0,0,2.734-2.918l-.366-.021c-.231-.014-.56-.037-.954-.073s-.842-.079-1.323-.143c-.24-.031-.486-.068-.734-.112s-.493-.087-.735-.143a2.849,2.849,0,0,0-1.557.1,4.655,4.655,0,0,0-.8.361,5.589,5.589,0,0,0-.762.558A6.985,6.985,0,0,0,589.257,512.825Z" transform="translate(-574.927 -491.322)" fill="#f5c04b"/>
              <path id="パス_24180" data-name="パス 24180" d="M478.479,394.933a5.627,5.627,0,0,0-2.736,2.48l-.041.075.028.04a3.872,3.872,0,0,0,2.705,1.506,6.726,6.726,0,0,0,3.476-.532,11.863,11.863,0,0,0,3.1-1.723s-.47-.18-1.154-.5c-.344-.166-.731-.332-1.143-.545s-.843-.447-1.247-.695a2.782,2.782,0,0,0-1.4-.415A3.891,3.891,0,0,0,478.479,394.933Z" transform="translate(-454.139 -384.99)" fill="#f5c04b"/>
            </g>
            <path id="合体_35" data-name="合体 35" d="M15287,19249a79,79,0,1,1,150.061,34.549l16.948,28.268-31.8-7.311A79,79,0,0,1,15287,19249Z" transform="translate(-14866 -19064)" fill="#533afc"/>
            <path id="合体_35_-_アウトライン" data-name="合体 35 - アウトライン" d="M15366,19327a78.44,78.44,0,0,0,15.846-1.611,77.516,77.516,0,0,0,28.07-11.918,78.45,78.45,0,0,0,11.584-9.666l.393-.4.543.125,29.509,6.783-16.019-26.717.237-.486a77.583,77.583,0,0,0,5.8-16.332,78.715,78.715,0,0,0,.45-33.5,77.524,77.524,0,0,0-11.735-27.891,78.047,78.047,0,0,0-136.548,13.248,77.529,77.529,0,0,0-4.544,14.643,78.747,78.747,0,0,0,0,31.439,77.556,77.556,0,0,0,11.734,27.889,78.233,78.233,0,0,0,34.317,28.262,77.7,77.7,0,0,0,14.641,4.545A78.634,78.634,0,0,0,15366,19327m0,1a78.948,78.948,0,1,1,71.063-44.449l16.948,28.268-31.8-7.311A78.754,78.754,0,0,1,15366,19328Z" transform="translate(-14866 -19064)" fill="#707070"/>
            <path id="パス_24181" data-name="パス 24181" d="M23.85-14.355A32.253,32.253,0,0,1,27.5-12.1h-4.41c.09.99.135,1.53.18,2.745l-3.69-1.755a37.692,37.692,0,0,1-.855,3.96c-.18-1.575-.405-3.105-.855-5.535l-3.69.72a50.754,50.754,0,0,1,.81,8.6l2.16-.45a15.939,15.939,0,0,1-1.71,2.655l5,3.825a33.982,33.982,0,0,0,2.835-7.74V.045c0,1.485.225,2.25.855,2.7.855.63,2.475.9,5.265.9,6.615,0,7.56-.81,8.145-6.66a28.4,28.4,0,0,1,1.035,4.68l6.03-3.15A56.437,56.437,0,0,0,40.05-13.05l-5.535,2.565a34.272,34.272,0,0,1,2.385,5.4,25.081,25.081,0,0,1-4.815-1.71c-.045,2.025-.045,3.06-.045,3.1-.09.72-.225,1.08-.5,1.215a4.617,4.617,0,0,1-1.215.18c-.81,0-.945-.135-.945-.81v-7.38A20.292,20.292,0,0,1,31.23-8.55l4.185-4.365a36.069,36.069,0,0,0-4.815-3.51c3.285-.36,3.825-.45,5.8-.765.54,1.215.675,1.485,1.4,3.015l5.58-3.555a66.651,66.651,0,0,0-7.155-10.755L31.23-25.92c1.17,1.665,1.53,2.2,2.34,3.465-1.8.18-3.42.27-5.49.4a82.16,82.16,0,0,0,4.32-8.055L26.775-31.68c2.16-2.655,2.16-2.655,2.88-3.6L23.76-38.43a22.981,22.981,0,0,1-5.94,6.66l-4-2.025a49.766,49.766,0,0,1-4.1,7.38,12.284,12.284,0,0,0-.945-1.35,63.076,63.076,0,0,0,4.23-7.515,8.015,8.015,0,0,1,.72-1.305L7.92-38.88a25.5,25.5,0,0,1-2.655,6.525L4.185-33.66l-2.97,5.49a54.431,54.431,0,0,1,4.95,6.93c-.63.855-.63.9-1.125,1.53H4.41l-.4.045a18.933,18.933,0,0,1-2.565-.18L1.98-13.5c.9-.135,2.52-.27,5.76-.45V-.765a35.208,35.208,0,0,1-.27,4.95h6.345a27.265,27.265,0,0,1-.27-4.995V-14.4a5,5,0,0,0,1.035-.09c.27,0,.27,0,.945-.045l.225,1.665,4.1-1.215a47.927,47.927,0,0,0-3.015-9.99L13.68-22.95c1.62-2.25,2.655-3.69,3.42-4.95a18.135,18.135,0,0,1,2.3,3.33,34.374,34.374,0,0,0,6.165-5.625,49.9,49.9,0,0,1-4.23,8.28c-.315,0-.585.045-.765.045H19.98a5.152,5.152,0,0,1-.675-.045l.99,6.57a16.753,16.753,0,0,1,3.51-.405c.45-.045,1.08-.09,1.98-.18Zm-10.485-8.19a26.544,26.544,0,0,1,.9,2.52c-1.35.135-1.62.135-3.015.225C12.24-21.06,12.645-21.6,13.365-22.545ZM2.7-12.645A50.23,50.23,0,0,1,1.215-.315L5.58,1.98A74.208,74.208,0,0,0,6.975-12.06Zm27.36-22.59c.5.54.765.81,1.17,1.305a30.349,30.349,0,0,0,4.95,5.13,27.851,27.851,0,0,0,5.04,3.555,26.677,26.677,0,0,1,3.33-6.21,21.8,21.8,0,0,1-9.135-7.065Zm28.665,15.8a41.581,41.581,0,0,1,4.185-.18H79.29a37.752,37.752,0,0,1,4.32.18v-2.475a47.994,47.994,0,0,0,6.075,2.925,25.235,25.235,0,0,1,3.15-7.065A37.406,37.406,0,0,1,82.26-31.05a25.72,25.72,0,0,1-7.695-7.065H67.23a26.79,26.79,0,0,1-7.47,7.245,35.719,35.719,0,0,1-10.44,5.13,24.077,24.077,0,0,1,3.375,6.615A43.762,43.762,0,0,0,58.725-22Zm5.94-6.39a31.94,31.94,0,0,0,6.345-6.21,34.954,34.954,0,0,0,6.615,6.21Zm-2.61,29.7V2.025H80.1V3.87h7.245a30.038,30.038,0,0,1-.27-5v-11.16a33.97,33.97,0,0,1,.225-4.77c-1.08.09-2.385.135-4.365.135H59.175c-1.98,0-3.285-.045-4.32-.135a44.506,44.506,0,0,1,.225,4.77V-1.17a38.04,38.04,0,0,1-.27,5.04Zm0-14.535H80.1V-4.23H62.055ZM18.09,12.515a20.274,20.274,0,0,1,.225,3.51c0,8.325-1.44,15.03-4.275,20.025C11.295,40.91,7.56,44.24.9,47.57a21.392,21.392,0,0,1,4.59,6.615,39.812,39.812,0,0,0,9.675-7.47c3.51-3.645,5.445-7.065,7.38-12.96A33.348,33.348,0,0,0,28.62,44.96,40.211,40.211,0,0,0,39.6,54.23a26.158,26.158,0,0,1,4.59-7.11,30.15,30.15,0,0,1-7.875-5.13,29.651,29.651,0,0,1-8.46-12.555A44.957,44.957,0,0,1,26.01,16.16a18.158,18.158,0,0,1,.27-3.645Zm53.46,22.14h7.065c.045,6.57.765,10.665,2.34,14.31,1.44,3.195,3.735,5.22,6.03,5.22a4.325,4.325,0,0,0,3.78-2.205c.945-1.62,1.53-4.05,1.98-8.595a17.107,17.107,0,0,1-4.815-3.24v.81a12.164,12.164,0,0,1-.675,4.9c-1.35-1.935-1.98-6.12-1.98-12.825A34.694,34.694,0,0,1,85.5,28.58c-1.4.09-2.295.135-5.4.135H55.845a22.705,22.705,0,0,1-3.51-.18V34.88A56.506,56.506,0,0,1,58,34.655h.945L54.36,38.84a78.4,78.4,0,0,1,6.84,4.5c-3.15,2.2-5.4,3.33-10.89,5.355a22.33,22.33,0,0,1,4.5,5.9,49.256,49.256,0,0,0,11.88-6.975c3.06,2.52,4.77,4.095,7.065,6.345l4.725-5.265c-2.7-2.34-3.69-3.195-6.93-5.67a38.839,38.839,0,0,0,3.33-4.185c.99-1.35,1.17-1.575,1.53-2.025Zm-2.2,0a21.97,21.97,0,0,1-3.24,4.41c-2.34-1.62-3.78-2.52-7.02-4.41Zm-10.62-7.2a40.711,40.711,0,0,1,4.365-.18H81.72c2.34,0,3.69.045,5.13.18V21.83a46.369,46.369,0,0,1-5.13.18H60.345c.45-.675.585-.855.945-1.4H84.42c2.25,0,3.915.09,5.535.225V14.18a44.646,44.646,0,0,1-5.535.27H64.845c.675-1.4,1.08-2.205,1.17-2.385L58.59,11.21a10.917,10.917,0,0,1-1.125,2.97,29.681,29.681,0,0,1-7.83,9.36,22.651,22.651,0,0,1,4.95,4.995,41.565,41.565,0,0,0,4.14-4.455Z" transform="translate(451.92 184.113) rotate(-8)" fill="#fff"/>
          </g>
        </g>
      </g>
      <g id="グループ_1123" data-name="グループ 1123" transform="translate(4685.172 1166.303)">
        <path id="パス_24163-2" data-name="パス 24163" d="M303.859,1634.241q.371.016.737.058c.244.03.487.072.723.1a8.5,8.5,0,0,1,1.387.312c.112.035.222.073.333.112s.215.072.321.112q.32.118.624.264a6.322,6.322,0,0,1,1.132.7,12.931,12.931,0,0,0,2.25,1.352,11.562,11.562,0,0,0,1.173.482c.385.14.762.26,1.119.365.177.052.352.1.518.145l.474.1c.3.063.57.112.794.148.449.073.72.1.72.1a15.028,15.028,0,0,1-1.649,1.143c-.453.251-.929.5-1.42.729-.07.031-.14.065-.211.1l-.286.127-.012.005c-.675.262-1.371.513-2.079.717-.718.181-1.441.353-2.159.469a14.608,14.608,0,0,1-2.2.157,13.694,13.694,0,0,1-2.04-.218,12.085,12.085,0,0,1-1.817-.558,6.06,6.06,0,0,1-.811-.387c-.259-.141-.506-.293-.74-.45s-.455-.324-.664-.5c-.1-.087-.2-.175-.3-.264s-.192-.192-.283-.29a7.113,7.113,0,0,1-.929-1.236,6.186,6.186,0,0,1-.853-2.784l-.006-.087.126-.054A14.681,14.681,0,0,1,303.859,1634.241Z" transform="translate(-297.698 -1546.462)" fill="#f5c04b"/>
        <path id="パス_24164-2" data-name="パス 24164" d="M485.447,1563.641a6.78,6.78,0,0,1-2.983-.708,5.847,5.847,0,0,1-.6-.349,5.375,5.375,0,0,1-.541-.427,5.249,5.249,0,0,1-1.465-2.22l-.028-.077.1-.091a14.827,14.827,0,0,1,2.519-1.794,10.545,10.545,0,0,1,1.336-.684,13.119,13.119,0,0,1,1.353-.539c.459-.138.906-.279,1.355-.377.224-.047.448-.087.67-.117.112-.016.224-.028.334-.038s.217-.028.326-.037a6.607,6.607,0,0,1,1.272,0,5.828,5.828,0,0,1,.611.1,4.537,4.537,0,0,1,.576.145,10.2,10.2,0,0,0,1.159.3c.2.038.4.073.6.1s.4.054.6.066a16.418,16.418,0,0,0,2.269.007c.682-.063,1.276-.157,1.7-.236s.675-.138.675-.138a18.726,18.726,0,0,1-1.22,1.567c-.222.269-.471.51-.721.759s-.512.494-.779.738c-.134.119-.266.244-.407.358l-.426.339c-.286.223-.577.443-.871.656-.148.106-.294.217-.445.316l-.458.29q-.46.285-.92.553a11.925,11.925,0,0,1-3.823,1.405,7.072,7.072,0,0,1-.9.119C486.02,1563.643,485.729,1563.648,485.447,1563.641Z" transform="translate(-468.351 -1473.31)" fill="#f5c04b"/>
        <path id="パス_24165-2" data-name="パス 24165" d="M644.993,1386.875c-.128.052-.259.1-.387.14a8.138,8.138,0,0,1-1.484.356,4.49,4.49,0,0,1-4.435-1.791l-.044-.061.071-.115a16.2,16.2,0,0,1,3.987-4.5,10.445,10.445,0,0,1,1.132-.8c.192-.119.391-.223.581-.328s.382-.206.574-.293a6.578,6.578,0,0,1,1.159-.412,5.145,5.145,0,0,1,1.122-.176,9.939,9.939,0,0,0,1.119-.1c.189-.028.379-.063.568-.1s.368-.089.551-.138a15.935,15.935,0,0,0,2.057-.722c.6-.276,1.121-.548,1.487-.754s.581-.339.581-.339c-.208.583-.461,1.188-.752,1.8-.073.154-.145.311-.225.462s-.167.3-.253.454c-.172.3-.35.609-.538.913a19.592,19.592,0,0,1-1.227,1.771c-.22.284-.432.576-.669.843s-.469.534-.705.792-.5.534-.753.773-.522.461-.782.672-.521.408-.779.593-.532.337-.794.487-.525.283-.782.4C645.247,1386.763,645.119,1386.821,644.993,1386.875Z" transform="translate(-617.156 -1305.199)" fill="#f5c04b"/>
        <path id="パス_24166-2" data-name="パス 24166" d="M770.372,1171.905c-.1.084-.206.162-.308.239s-.212.145-.317.213q-.316.2-.628.361a6.037,6.037,0,0,1-1.218.48,4.442,4.442,0,0,1-1.172.127,3.51,3.51,0,0,1-2.022-.705l-.052-.04.035-.129a19.241,19.241,0,0,1,1.063-2.875c.228-.445.439-.9.688-1.321s.516-.824.775-1.22a11.125,11.125,0,0,1,.846-1.094,10.585,10.585,0,0,1,.893-.948,7.949,7.949,0,0,1,.952-.754,4.86,4.86,0,0,1,.973-.531,12.948,12.948,0,0,0,3.637-2.358c.481-.442.887-.855,1.17-1.157s.448-.49.448-.49a22.382,22.382,0,0,1-2.326,7.746,14.683,14.683,0,0,1-2.2,3.3A12.659,12.659,0,0,1,770.372,1171.905Z" transform="translate(-735.225 -1101.848)" fill="#f5c04b"/>
        <path id="パス_24167-2" data-name="パス 24167" d="M850.945,942.785a7.846,7.846,0,0,1-.92,1.154,5.487,5.487,0,0,1-1.99,1.36,3.2,3.2,0,0,1-1.993.061l-.055-.017v-.127c0-.248.015-.492.026-.738s.023-.5.044-.744c.041-.492.118-.977.2-1.457a13.268,13.268,0,0,1,.3-1.422c.058-.232.135-.459.2-.688s.132-.45.208-.67a12.781,12.781,0,0,1,.509-1.267,10.317,10.317,0,0,1,.579-1.15,8.75,8.75,0,0,1,.685-.991,5.275,5.275,0,0,1,.75-.8c.266-.225.528-.473.784-.736a10.436,10.436,0,0,0,.731-.829A20.619,20.619,0,0,0,852.225,932l.25-.4c.076-.131.145-.257.212-.374.134-.237.247-.452.342-.63.186-.359.291-.579.291-.579a22.209,22.209,0,0,1-.334,7.648c-.071.342-.15.677-.233,1-.042.162-.084.325-.129.483s-.1.312-.153.466a17.761,17.761,0,0,1-.69,1.717A11.489,11.489,0,0,1,850.945,942.785Z" transform="translate(-811.431 -886.639)" fill="#f5c04b"/>
        <path id="パス_24168-2" data-name="パス 24168" d="M870.843,716.852a12.364,12.364,0,0,1-.4,1.56,10.414,10.414,0,0,1-.561,1.33c-.843,1.614-1.986,2.524-3.221,2.614l-.054,0-.029-.114a16.509,16.509,0,0,1-.459-5.442,12.139,12.139,0,0,1,.154-1.3c.039-.213.078-.421.119-.623s.092-.4.144-.6a9.77,9.77,0,0,1,.385-1.112,5.677,5.677,0,0,1,.5-.956c.188-.288.369-.6.539-.915s.318-.646.464-.977.278-.665.4-.991.221-.642.315-.944c.183-.6.33-1.136.414-1.517s.126-.609.126-.609c.1.229.2.468.292.719s.173.513.254.784.16.548.234.832.131.581.19.88.116.6.167.908.086.62.124.93.07.627.1.939.039.63.055.941c.014.328.022.651.02.969s-.022.632-.042.937A13.094,13.094,0,0,1,870.843,716.852Z" transform="translate(-830.241 -676.983)" fill="#f5c04b"/>
        <path id="パス_24169-2" data-name="パス 24169" d="M821.743,518.835c-.045.215-.1.419-.154.616s-.128.389-.2.571a5.424,5.424,0,0,1-.5.977,3.406,3.406,0,0,1-1.384,1.251l-.047.021-.054-.091a14.023,14.023,0,0,1-1.691-4.684,11.234,11.234,0,0,1-.163-1.211c-.028-.4-.055-.789-.047-1.174a9.156,9.156,0,0,1,.089-1.115,6.027,6.027,0,0,1,.228-1.017c.1-.318.193-.649.275-.988s.14-.679.195-1.021a17.955,17.955,0,0,0,.209-1.951c.032-.592.039-1.11.038-1.48s-.019-.581-.019-.581a17.5,17.5,0,0,1,2.8,5.676c.087.284.167.569.238.848s.125.566.177.843a13.046,13.046,0,0,1,.2,1.627,13.189,13.189,0,0,1,0,1.515A10.887,10.887,0,0,1,821.743,518.835Z" transform="translate(-784.737 -490.239)" fill="#f5c04b"/>
        <path id="パス_24170-2" data-name="パス 24170" d="M706.036,361.371l-.036.035-.07-.061a11.458,11.458,0,0,1-2.586-3.576,10.107,10.107,0,0,1-.417-1.023,8.667,8.667,0,0,1-.31-1.026,6.96,6.96,0,0,1-.2-1.993c.02-.314.029-.641.025-.965s-.026-.646-.052-.967a17.313,17.313,0,0,0-.238-1.8c-.1-.536-.208-.995-.288-1.321-.041-.164-.074-.293-.1-.379s-.036-.122-.038-.133a14.22,14.22,0,0,1,3.714,4.108,12.585,12.585,0,0,1,.746,1.351,14.129,14.129,0,0,1,.545,1.363,9.931,9.931,0,0,1,.49,2.607,6.249,6.249,0,0,1-.257,2.2A3.789,3.789,0,0,1,706.036,361.371Z" transform="translate(-676.266 -341.455)" fill="#f5c04b"/>
        <path id="パス_24171-2" data-name="パス 24171" d="M545.766,251.961l-.074-.031a8.691,8.691,0,0,1-3.1-2.286,8.6,8.6,0,0,1-1.1-1.572,5.818,5.818,0,0,1-.619-1.693,11.169,11.169,0,0,0-.451-1.695,14.922,14.922,0,0,0-.6-1.51c-.411-.88-.772-1.485-.772-1.485a11.505,11.505,0,0,1,4.163,2.424,9.183,9.183,0,0,1,2.759,4.087,4.831,4.831,0,0,1-.176,3.717Z" transform="translate(-523.832 -241.688)" fill="#f5c04b"/>
        <path id="パス_24172-2" data-name="パス 24172" d="M298.391,1426.21a9.859,9.859,0,0,1,.666-1.286c.063-.1.126-.2.193-.3s.132-.209.2-.311q.2-.307.43-.6c.148-.194.3-.38.464-.562s.324-.353.493-.539a10.3,10.3,0,0,1,1.066-1,9.894,9.894,0,0,1,1.159-.9,10.754,10.754,0,0,1,1.249-.78,20.947,20.947,0,0,1,4.789-2.135s-.071.218-.193.6c-.06.192-.132.426-.215.695-.041.135-.084.279-.131.431l-.151.462c-.1.325-.215.679-.333,1.052s-.236.785-.366,1.18c-.254.8-.512,1.679-.737,2.552a6.151,6.151,0,0,1-.49,1.257,6.75,6.75,0,0,1-.349.6c-.064.1-.129.194-.2.288s-.143.178-.217.265a7.927,7.927,0,0,1-1.012.977,4.485,4.485,0,0,1-.584.408q-.305.189-.628.351a6.912,6.912,0,0,1-5.68.26l-.118-.047,0-.085A8.452,8.452,0,0,1,298.391,1426.21Z" transform="translate(-297.698 -1343.679)" fill="#f5c04b"/>
        <path id="パス_24173-2" data-name="パス 24173" d="M471.183,1338.793l-.044.609c-.026.389-.057.948-.089,1.625-.042.658-.09,1.431-.122,2.267-.007.211-.017.421-.028.628s-.017.422-.026.637c-.015.429-.022.866-.02,1.3a5.448,5.448,0,0,1-.141,1.316,7.651,7.651,0,0,1-.422,1.305c-.045.107-.093.216-.144.321s-.108.206-.164.307c-.116.2-.24.4-.374.6a6.994,6.994,0,0,1-.91,1.119,8.551,8.551,0,0,1-1.1.948,9.825,9.825,0,0,1-1.247.717,6.4,6.4,0,0,1-2.718.578l-.119,0-.016-.08a8.126,8.126,0,0,1-.079-2.784c.032-.234.073-.464.121-.7s.1-.475.16-.709a11.927,11.927,0,0,1,.452-1.381,16,16,0,0,1,3.121-5.011A22.07,22.07,0,0,1,471.183,1338.793Z" transform="translate(-452.898 -1269.65)" fill="#f5c04b"/>
        <path id="パス_24174-2" data-name="パス 24174" d="M600.4,1235.592c.058-.239.122-.478.195-.712s.153-.466.234-.7.161-.475.253-.709.19-.461.3-.686.2-.466.317-.693a24.153,24.153,0,0,1,2.765-4.623s.035.209.095.572.157.883.279,1.511.235,1.335.394,2.108c.077.379.159.773.24,1.173s.174.792.273,1.187a5.834,5.834,0,0,1,.177,1.248,7.9,7.9,0,0,1-.089,1.318q-.052.338-.131.681a6.965,6.965,0,0,1-.2.668,10.381,10.381,0,0,1-.558,1.325,7.984,7.984,0,0,1-4.052,3.765l-.108.038-.035-.066a9.26,9.26,0,0,1-.738-5.266,12.805,12.805,0,0,1,.228-1.426C600.294,1236.066,600.349,1235.827,600.4,1235.592Z" transform="translate(-580.878 -1165.342)" fill="#f5c04b"/>
        <path id="パス_24175-2" data-name="パス 24175" d="M702.6,1101.035a8.756,8.756,0,0,1-2.759,4.773l-.087.073-.047-.047a6.039,6.039,0,0,1-1.262-1.988,9.02,9.02,0,0,1-.39-1.2,11.231,11.231,0,0,1-.263-1.309c-.032-.223-.057-.448-.076-.675s-.032-.463-.048-.691a12.73,12.73,0,0,1,0-1.414,17.949,17.949,0,0,1,.35-2.913,25.818,25.818,0,0,1,1.46-5.142l.215.492c.14.311.342.754.593,1.286.471,1.045,1.134,2.466,1.833,3.754a5.5,5.5,0,0,1,.446,1.072,6.5,6.5,0,0,1,.222,1.22,8.449,8.449,0,0,1,.019,1.333A11.084,11.084,0,0,1,702.6,1101.035Z" transform="translate(-672.44 -1037.005)" fill="#f5c04b"/>
        <path id="パス_24176-2" data-name="パス 24176" d="M744.23,947.3c-.134-.415-.23-.84-.328-1.279a11.8,11.8,0,0,1-.234-1.353l-.035-.346c-.016-.119-.029-.236-.041-.354-.025-.236-.041-.475-.051-.716a25.713,25.713,0,0,1,.151-5.2l.307.382.358.433c.07.082.144.169.222.264s.154.189.236.29c.331.4.725.871,1.159,1.356.214.237.433.483.657.735s.455.487.691.719a4.54,4.54,0,0,1,.65.82,5.688,5.688,0,0,1,.48,1.026,8.643,8.643,0,0,1,.33,1.194,10.183,10.183,0,0,1,.129,1.306c.009.225.012.454.007.682a6.767,6.767,0,0,1-.054.686,12.561,12.561,0,0,1-.237,1.37,9.81,9.81,0,0,1-.44,1.305c-.086.209-.179.415-.278.614s-.219.387-.337.572l-.062.094-.054-.026a4.723,4.723,0,0,1-1.6-1.342,8.367,8.367,0,0,1-1.186-2.037C744.522,948.118,744.356,947.713,744.23,947.3Z" transform="translate(-715.388 -894.164)" fill="#f5c04b"/>
        <path id="パス_24177-2" data-name="パス 24177" d="M735.875,787.541a4.522,4.522,0,0,1,.265.506,8.947,8.947,0,0,1,.449,6.264l-.033.1-.055-.005a5.083,5.083,0,0,1-3.287-2.084,12.954,12.954,0,0,1-2.226-4.372,23.463,23.463,0,0,1-1.048-4.761s.134.091.368.246.552.375.951.63l.641.407c.221.145.458.293.7.443s.5.3.763.447.516.292.781.424a3.676,3.676,0,0,1,.763.527,4.491,4.491,0,0,1,.667.764C735.68,787.226,735.779,787.38,735.875,787.541Z" transform="translate(-702.698 -749.066)" fill="#f5c04b"/>
        <path id="パス_24178-2" data-name="パス 24178" d="M684.761,646.678l-.049.014a3.443,3.443,0,0,1-1.717.017,4.748,4.748,0,0,1-.861-.293c-.141-.065-.281-.136-.42-.213s-.284-.159-.423-.248a6.84,6.84,0,0,1-.814-.609,8.642,8.642,0,0,1-.784-.738c-.243-.271-.5-.552-.734-.86-.119-.152-.227-.314-.344-.475s-.228-.328-.336-.5a19.423,19.423,0,0,1-2.038-3.971s.14.04.384.106.583.164,1,.267.887.225,1.4.335c.254.056.52.1.785.154s.528.094.794.126a3.012,3.012,0,0,1,.8.222,3.8,3.8,0,0,1,.77.462,4.771,4.771,0,0,1,.724.675,7.523,7.523,0,0,1,.641.86,8.491,8.491,0,0,1,1.23,4.562Z" transform="translate(-652.384 -613.775)" fill="#f5c04b"/>
        <path id="パス_24179-2" data-name="パス 24179" d="M598.618,512.825l.023.094-.041.03a3.323,3.323,0,0,1-1.513.6,4.783,4.783,0,0,1-1.691-.1,6.807,6.807,0,0,1-1.733-.677,6.9,6.9,0,0,1-.859-.529,10.2,10.2,0,0,1-.836-.654,15.326,15.326,0,0,1-2.734-2.918l.366-.021c.231-.014.56-.037.954-.073s.842-.079,1.323-.143c.24-.031.486-.068.734-.112s.493-.087.735-.143a2.849,2.849,0,0,1,1.557.1,4.655,4.655,0,0,1,.8.361,5.589,5.589,0,0,1,.762.558A6.985,6.985,0,0,1,598.618,512.825Z" transform="translate(-570.86 -491.322)" fill="#f5c04b"/>
        <path id="パス_24180-2" data-name="パス 24180" d="M482.231,394.933a5.627,5.627,0,0,1,2.736,2.48l.041.075-.028.04a3.872,3.872,0,0,1-2.705,1.506,6.726,6.726,0,0,1-3.476-.532,11.863,11.863,0,0,1-3.1-1.723s.47-.18,1.154-.5c.344-.166.731-.332,1.143-.545s.843-.447,1.247-.695a2.782,2.782,0,0,1,1.4-.415A3.891,3.891,0,0,1,482.231,394.933Z" transform="translate(-464.484 -384.99)" fill="#f5c04b"/>
      </g>
      <path id="パス_33032" data-name="パス 33032" d="M30.24-87.68H22.88a102.547,102.547,0,0,1-15.84-.8v24a106.408,106.408,0,0,1,15.84-.8h5.6v15.2h-3.2c-7.84,0-11.52-.16-15.84-.8V-27.2A77.249,77.249,0,0,1,22.88-28h1.28C18.72-15.52,14.24-8.8,5.28.16L24.96,15.2C34.56,4,38.88-3.52,45.44-19.68L28.48-28H129.12L114.4-20.96a178.428,178.428,0,0,1,19.04,35.2L155.2.8c-10.24-17.76-12-20.32-19.04-28.8,7.84,0,10.88.16,15.04.8V-50.72c-3.52.48-7.04.64-15.2.64h-1.28v-15.2h4.32a103.818,103.818,0,0,1,15.84.8v-24a102.547,102.547,0,0,1-15.84.8h-4.32V-102.4a124.74,124.74,0,0,1,14.24.96v-24a164.327,164.327,0,0,1-20.48.96H54.24c1.44-2.08,2.88-4.16,3.84-5.92a24.731,24.731,0,0,1,2.88-4.32l-25.6-4.16a37.164,37.164,0,0,1-3.68,7.04c-6.24,9.44-14.56,17.28-28.16,26.4,6.56,5.28,10.24,9.6,15.36,17.12a144.267,144.267,0,0,0,11.36-9.12Zm20-14.72H57.6v14.72H50.24Zm27.68,0h7.52v14.72H77.92ZM50.24-65.28H57.6v15.2H50.24Zm27.68,0h7.52v15.2H77.92Zm27.68,15.2v-15.2h7.68v15.2Zm0-37.6V-102.4h7.68v14.72Zm7.52,96.8c-2.4-12.8-4.64-20.96-9.28-34.88L81.6-21.12c3.2,11.36,4.64,19.52,6.88,35.2ZM75.36,12.8C75.04.16,74.24-7.84,71.68-24.32L49.44-22.24A263.01,263.01,0,0,1,50.88,5.92c0,3.04,0,4.32-.32,8.64ZM244.48-10.88c3.36-1.12,6.4-1.76,15.52-3.68l28.64-5.92V-5.6c0,10.56-.16,14.4-.96,20.48h26.4c-.8-5.92-.96-9.92-.96-20.32v-20c6.72-1.44,10.88-2.08,14.56-2.56l-1.6-24.96a109.979,109.979,0,0,1-12.96,3.52v-66.08c0-10.24.16-14.56.96-20.16h-26.4c.8,5.6.96,9.92.96,20.16v8.48c-6.88-6.72-12.32-11.04-24.64-19.52l-15.2,16.8c13.44,9.92,17.12,13.12,27.36,23.68l12.48-15.36v56.96l-30.88,6.4a122.307,122.307,0,0,1-14.56,1.92c1.12-2.56,1.6-3.68,3.2-7.2-8.16-6.08-13.92-11.68-18.72-18.4h5.28a73.28,73.28,0,0,1,13.12.8v-7.68c9.12,6.72,15.2,12.16,25.28,22.72L286.08-64c-8.64-8.8-15.2-14.24-27.2-22.72l-12.8,14.08V-84.48c-3.36.64-5.76.8-12.48.8h-7.52v-9.28L238.4-85.6c4.96-9.92,8.32-19.68,12.48-34.72l-16.64-8c-2.4,12-5.12,22.08-8.16,29.76v-23.2a103.079,103.079,0,0,1,.64-14.08h-24.8a110.428,110.428,0,0,1,.64,14.24v37.92H193.6c-7.84,0-11.2-.16-14.88-.8v23.52c4.32-.64,7.52-.8,15.04-.8h6.08A96.569,96.569,0,0,1,176-26.72,105.879,105.879,0,0,1,186.4-2.56c6.72-7.36,10.08-12.64,16.64-26.24-.32,3.84-.32,7.36-.32,13.12v14.4a113.73,113.73,0,0,1-.96,16.16h25.12c-.64-4.32-.8-8-.8-15.52V-23.68a124.844,124.844,0,0,0-.48-12.48,72.788,72.788,0,0,0,12.16,15.68c1.76-5.92,2.56-8.48,4.32-13.28ZM177.28-120c4.16,11.2,6.24,19.52,8.64,34.08l16.48-8.32c-2.24-12.48-4.32-20-8.96-34.24ZM480.48,4.96C478.4.48,475.84-6.08,472.8-14.56l-34.72-96.32a127.679,127.679,0,0,1-5.44-17.28H390.88c-.8,4.64-2.24,9.44-5.12,17.28L351.2-14.56C347.36-3.68,345.92.16,343.52,4.96h37.44a92.209,92.209,0,0,1,4-17.28l4.32-13.6h45.6l4.32,13.6a129.936,129.936,0,0,1,3.84,17.28ZM427.04-52.8H396.96l14.88-48Zm75.68-75.36c.96,7.04,1.28,11.68,1.28,23.68v85.76c0,10.72-.32,17.44-1.28,23.68h35.2c-.96-6.72-1.28-12.64-1.28-23.68v-85.76c0-11.68.32-17.12,1.28-23.68ZM605.28-75.68v6.88a162.949,162.949,0,0,1,19.2-.96h20.16v14.72H624.16c-6.08,0-9.76-.16-13.6-.48.32,3.84.48,8.64.48,13.44v38.4c0,5.44-.32,12-.64,17.44h24.48V7.04h45.28v6.72h25.28c-.48-4.8-.8-10.56-.8-17.28V-41.28a133.219,133.219,0,0,1,.64-14.24,129.428,129.428,0,0,1-13.12.48H669.44V-69.76h24.64a145.76,145.76,0,0,1,19.04.96V-93.44a159.188,159.188,0,0,1-19.2.96H669.44v-15.84c16-2.24,27.2-4.16,36.8-6.72a27.718,27.718,0,0,0,3.2-.64l-16-22.08c-6.24,2.88-9.76,3.84-22.56,6.24a395.78,395.78,0,0,1-63.68,6.56c4.48,8.16,6.24,12.64,8.16,21.44,12.96-.64,19.36-.96,29.28-2.08v13.12H624.32a160.034,160.034,0,0,1-19.04-.96v15.68A183.147,183.147,0,0,0,576-96L562.24-77.6a202.491,202.491,0,0,1,30.4,20.96Zm29.76,42.4h45.28v18.24H635.04ZM566.4-119.04c12.48,8,18.72,12.64,29.44,22.24L610.56-116c-10.88-8.96-15.84-12.48-29.12-20.8Zm19.04,65.92c-8,23.68-15.52,39.84-22.88,48.8l21.28,17.76c4.96-9.76,7.52-15.2,8-16.16a318.352,318.352,0,0,0,13.44-36.64ZM824.48-32.96h29.76v19.68c0,2.88-1.28,3.52-7.04,3.52-4.48,0-10.72-.32-17.76-.96,3.84,9.28,5.28,14.56,6.4,23.04,6.24.32,12,.48,17.44.48,19.36,0,25.44-4.64,25.44-19.52V-111.04c0-10.4.16-14.88.8-20.48-5.28.48-10.08.64-20,.64H766.24c-9.12,0-13.12-.16-19.04-.64.48,6.08.8,12.48.8,21.92,0,68.32-2.56,86.56-14.72,106.88,8.8,5.28,12.8,8.64,21.76,18.24C763.68.8,767.84-12.8,770.08-32.96h30.56V-10.4a149.632,149.632,0,0,1-.96,20.32h25.6c-.64-5.44-.8-9.92-.8-20.48Zm0-60V-108h29.76v15.04Zm-23.84,0H772.48V-108h28.16Zm23.84,22.24h29.76v15.36H824.48Zm-23.84,0v15.36H771.68c.32-7.04.32-8.8.48-15.36ZM942.4-95.04,929.92-93.6c-5.28.48-12.8,1.12-15.04,1.12-.8,0-2.88-.16-5.92-.32l2.72,27.52c6.24-1.6,8.32-1.92,21.12-3.36l9.6-1.12v34.88c0,15.36.16,17.6,1.76,23.2a23.145,23.145,0,0,0,14.88,15.2c6.24,1.92,16.8,2.88,30.72,2.88,9.28,0,27.36-1.12,42.72-2.56,3.36-.32,3.52-.48,7.52-.64h2.56l-.96-29.92c-13.92,4.32-32,6.72-51.52,6.72-9.44,0-15.2-.8-16.96-2.56-2.24-1.76-2.56-4.32-2.56-16V-72.8l43.84-5.12c-3.84,6.56-6.56,10.08-11.68,14.72a84,84,0,0,1-16.8,12.32c8.96,5.12,14.72,9.76,22.4,18.08,11.2-8.64,16.96-14.08,23.04-21.92a152.082,152.082,0,0,0,17.28-28.32c2.72-6.08,2.72-6.08,5.28-8.8l-16-14.72c-3.2,1.44-4.96,1.92-11.36,2.56l-55.84,6.08v-12.8c0-9.44.32-13.92,1.28-19.2H941.28a132.729,132.729,0,0,1,1.12,19.84Zm161.44-9.76c34.56,3.04,57.92,7.52,93.76,18.24l8.48-26.88c-39.36-9.92-56.96-13.28-92.32-16.96Zm-2.08,44.32a416.561,416.561,0,0,1,43.2,6.88c20.16,4.32,32.32,7.84,46.4,13.28l8.16-27.04c-33.44-9.76-62.08-15.68-88-18.4ZM1088.48-15.2a499.12,499.12,0,0,1,52.16,8.64c24.8,5.6,40.8,10.4,59.2,17.92l8.96-28.16c-38.24-12.48-70.56-19.52-110.08-23.84Zm253.76-80.16c0-1.6.16-3.52.16-5.6,0-6.4,0-6.4.16-12.48.32-12.32.32-12.8.96-17.44H1312.8a129.642,129.642,0,0,1,.96,16.96v12.16c-.16,4.16-.16,4.16-.16,6.4h-35.2c-13.28,0-16.48-.16-23.68-1.28v28.16c8-.64,11.68-.8,23.2-.8h34.24c-.48,5.28-.48,5.28-.8,7.68a50.155,50.155,0,0,1-6.72,20.16c-7.36,12.48-19.04,21.76-37.76,29.6,10.56,8.8,15.2,14.08,21.12,24.48A154.266,154.266,0,0,0,1304.32,2.4a88.793,88.793,0,0,0,25.6-28c6.88-12.16,9.6-22.72,11.2-43.68h28.32a234.349,234.349,0,0,1,23.52.8V-96.64c-7.36,1.12-11.36,1.28-24,1.28ZM1424-45.6c9.76-.8,15.04-.96,32.96-.96h76.16c18.24,0,25.28.16,32.96.96V-76.48c-10.72,1.12-16.8,1.44-32.8,1.44H1456.8c-16.64,0-25.28-.32-32.8-1.44Zm242.4-39.68a24.378,24.378,0,0,0-24.48,24.48,24.344,24.344,0,0,0,24.48,24.32,24.344,24.344,0,0,0,24.32-24.48A24.309,24.309,0,0,0,1666.4-85.28Zm186.56,14.56v4.64h-17.92c-5.92,0-9.12-.16-12.64-.48.32,3.52.48,6.88.48,13.92v22.08a20.724,20.724,0,0,1-4.96-.48v20.96a34.589,34.589,0,0,1,4.96-.48v2.88c0,7.84-.16,12.96-.32,15.52-.32,4-.32,4-.48,6.24h23.36c-.8-4.96-.96-8.8-.96-21.76v-2.88h39.84v3.68c0,2.4-1.28,2.88-6.88,2.88-2.88,0-7.52-.32-12.8-.8a54.057,54.057,0,0,1,3.68,17.76c2.08,0,3.84.16,4.96.16,4.16.16,7.04.32,8,.32,7.36,0,15.84-1.12,18.72-2.56,4.32-2.08,5.92-6.08,5.92-14.08v-7.36c3.68.16,5.28.32,7.84.64V-31.2a36.884,36.884,0,0,1-7.84.64V-51.52a132.96,132.96,0,0,1,.64-15.2,105.771,105.771,0,0,1-14.24.64h-16.64v-4.64h27.04a64.656,64.656,0,0,1,10.88.64V-88.16a78.517,78.517,0,0,1-10.88.48h-10.24v-4.48h6.56a75.729,75.729,0,0,1,9.28.48V-106.4a57.635,57.635,0,0,1-8.96.48h-6.88v-4.48h9.44a92.689,92.689,0,0,1,9.76.48v-17.12a54.78,54.78,0,0,1-9.92.64h-9.28c0-4.8.16-6.24.96-8.96H1869.6c.64,2.88.8,3.84.8,8.96h-14.24c0-4.48.16-6.24.96-8.96h-23.84c.64,2.72.8,4.16.8,8.96h-4.64a71.47,71.47,0,0,1-10.72-.64v17.12a92.689,92.689,0,0,1,9.76-.48h5.6v4.48h-3.52a72.176,72.176,0,0,1-9.28-.48v14.72a75.732,75.732,0,0,1,9.28-.48h3.52v4.48h-5.28a112.325,112.325,0,0,1-11.36-.48v18.08a77.855,77.855,0,0,1,11.36-.64ZM1854.4-28h-9.92v-5.76h9.92Zm20,0v-5.76h9.92V-28Zm-20-17.76h-9.92v-5.92h9.92Zm20,0v-5.92h9.92v5.92Zm-18.24-41.92v-4.48h14.24v4.48Zm0-18.24v-4.48h14.24v4.48Zm-88.8-8.48c4.48-.32,7.84-.48,14.4-.48h18.08c6.72,0,10.4.16,14.4.48v-18.88a111.624,111.624,0,0,1-14.4.64h-18.08a111.623,111.623,0,0,1-14.4-.64Zm-4.8,25.6a97.165,97.165,0,0,1,12.8-.64h28.32c7.68,0,8.96,0,12.48.48v-21.28a124.35,124.35,0,0,1-12.8.48h-28a95.626,95.626,0,0,1-12.8-.64Zm5.12,22.4c2.72-.16,4.8-.32,9.44-.32h27.84a68.608,68.608,0,0,1,8.96.32V-84.48a64.784,64.784,0,0,1-8.96.32h-27.84c-4.64,0-6.72-.16-9.44-.32Zm0,22.72a72.66,72.66,0,0,1,9.12-.32h27.52a61.8,61.8,0,0,1,9.6.48v-18.4a68.718,68.718,0,0,1-9.12.32h-27.68a78.319,78.319,0,0,1-9.44-.32Zm19.04,57.76V7.84h8.64V12h19.68c0-.96-.16-4.16-.32-9.76v-30.4a93.907,93.907,0,0,1,.32-10.88,62.172,62.172,0,0,1-9.44.48h-28.16c-5.12,0-6.4,0-11.52-.32a94.682,94.682,0,0,1,.64,12.16V-1.44c0,5.12-.32,10.72-.8,15.52Zm-.8-35.2h9.6v10.08h-9.6Zm222.72.64v9.28h-30.56c-9.28,0-11.2,0-15.68-.48V11.84a206.661,206.661,0,0,1,20.8-.96h78.72a204.292,204.292,0,0,1,21.12.96V-11.84a141.742,141.742,0,0,1-15.84.64h-34.88v-9.28h28a115.623,115.623,0,0,1,15.52.64V-42.72c-1.76.16-2.24.16-3.68.32a86.532,86.532,0,0,1,11.36-20.8,59.7,59.7,0,0,1-19.84-17.44c1.44-5.12,2.24-7.68,3.84-15.04l-22.24-4.8a72.277,72.277,0,0,1-12.96,36.32V-80.48c0-9.76,0-12.64.64-17.28h-25.12c.64,4.8.8,8.16.8,17.28v12.8a55.336,55.336,0,0,1-11.52-13.6c1.44-4.8,2.08-7.04,3.84-14.56l-21.28-4.64c-1.44,14.24-5.44,26.08-12,35.68.48-11.2.64-18.56.64-36.48h97.28a166.181,166.181,0,0,1,17.12.8v-24.64a202.151,202.151,0,0,1-20.8.96h-36.16v-3.04a39.856,39.856,0,0,1,.64-8.32H2000a37.435,37.435,0,0,1,.8,8v3.36h-36.32c-8.48,0-14.4-.16-21.6-.8a127.067,127.067,0,0,1,.96,16.48c0,32.8-.48,47.52-1.92,62.56-1.92,19.04-4.96,30.56-10.72,40.8,8.64,6.88,13.12,11.52,19.36,20.16a87.089,87.089,0,0,0,10.72-27.2c3.04-12.32,4.8-25.28,5.92-41.44,3.68,3.36,5.92,6.08,9.76,11.52-3.52-.16-4.96-.32-7.68-.64V-20c4.48-.48,6.08-.48,15.2-.48Zm0-21.6h-31.2a85.948,85.948,0,0,0,11.36-17.76,135.776,135.776,0,0,0,12.16,15.68,103.03,103.03,0,0,1,7.68-14.72Zm23.68,0V-54.72a54.666,54.666,0,0,1,10.24,12.64Zm11.68,0a85.45,85.45,0,0,0,11.2-17.12,78.874,78.874,0,0,0,16.64,16.8c-4,.32-5.92.32-11.52.32Z" transform="translate(2510.522 1495.316)"/>
      <path id="パス_33031" data-name="パス 33031" d="M66.24,1.68c-.96-2-2.4-5.52-3.92-9.6L44.72-55.04A54.168,54.168,0,0,1,42-63.36H24.8a61.423,61.423,0,0,1-2.56,8.32L4.8-7.92A74.363,74.363,0,0,1,.72,1.68H16.56A39.946,39.946,0,0,1,18.72-6.8l2.72-7.76H45.6L48.32-6.8A57.213,57.213,0,0,1,50.4,1.68Zm-24-27.52H24.8l7.52-22.64c.56-1.6.64-2,1.12-3.68.64,2.16.96,2.96,1.2,3.68ZM72.32-63.36a66.792,66.792,0,0,1,.64,11.04V-9.36a68.665,68.665,0,0,1-.64,11.04H87.04A67.412,67.412,0,0,1,86.4-9.36V-52.32a66.18,66.18,0,0,1,.64-11.04ZM100.4-47.6a6.909,6.909,0,0,1,1.2-.08h1.12a5,5,0,0,0,1.36.08c.24,0,1.52,0,3.04.08,2.32.08,2.96.08,7.44.08a12.258,12.258,0,0,0-1.2,2C109.2-38.32,102.24-30,97.76-26.72l8.64,8.56a48.738,48.738,0,0,1,7.28-7.68c6-5.2,11.44-7.92,15.76-7.92,2.32,0,3.68,1.04,4.08,3.2-5.52,2.4-9.04,4.24-11.68,6.16-6.08,4.4-9.28,9.36-9.28,14.32a13,13,0,0,0,3.12,8.64c3.68,4.16,10.32,5.92,22.08,5.92a148.036,148.036,0,0,0,20.56-1.44,30.325,30.325,0,0,1,4-.4L161.44-9.6C155.2-7.28,146.56-6,136.88-6c-8.72,0-12.16-1.44-12.16-5.12,0-2,1.28-4,3.76-5.76a41.513,41.513,0,0,1,6.4-3.44,2.574,2.574,0,0,1,.08.64,59.685,59.685,0,0,1-.48,9.28l11.12-.32a48.487,48.487,0,0,1-.24-5.36v-5.44l-.08-2.64c9.68-3.28,9.68-3.28,11.6-3.76A60.566,60.566,0,0,1,165.92-30l-4.24-10.88c-1.36.8-1.68.88-6.24,2.4-3.6,1.2-4,1.36-7.12,2.48-2.08.72-3.52,1.2-4.24,1.44-1.44-5.36-5.44-8.08-11.92-8.08-4,0-6.88.8-11.04,3.12a57.409,57.409,0,0,0,5.2-7.92c8.08-.24,18.48-.88,24.32-1.6,3.84-.4,3.84-.4,6.32-.64l-.48-10.8c-4.56,1.2-11.12,2.08-20.64,2.64a48.436,48.436,0,0,0-4.96.32c.32-.64.32-.72.64-1.44,2.4-5.76,2.4-5.76,2.96-6.64l-12.4-1.12c-.32,2.64-.88,4.56-2.88,9.36h-4c-6.56,0-11.68-.32-14.64-1.04Zm116.8-3.6v4.8H205.12a60.694,60.694,0,0,1-7.52-.32,57.823,57.823,0,0,1,.32,7.36v11.2a62.238,62.238,0,0,1-.32,7.28,49.138,49.138,0,0,1,6.24-.32h11.6a17.855,17.855,0,0,1-2.48,6.24,26.1,26.1,0,0,1-4.56-5.28l-.24-.56-8.64,4c.56.64.88.96,1.36,1.52a63.043,63.043,0,0,0,6.08,6.72c-3.76,2.64-8,4.48-14.64,6.24a50.783,50.783,0,0,1,5.44,9.04c7.92-2.56,12.64-5.12,17.12-9.2,8.56,5.2,17.68,7.76,31.68,9.04a49.214,49.214,0,0,1,3.92-10.64c-13.84-.4-21.68-1.92-29.6-5.68A35.444,35.444,0,0,0,225.2-21.2h13.2a67.758,67.758,0,0,1,7.76.32,58.105,58.105,0,0,1-.32-7.6V-39.2a64.086,64.086,0,0,1,.32-7.52,63.849,63.849,0,0,1-7.6.32H226.88v-4.8h14.24c3.2,0,5.84.08,8.24.32V-60.96a85.4,85.4,0,0,1-9.6.48h-12.8a45.922,45.922,0,0,1,.32-7.44H216.72a47.561,47.561,0,0,1,.48,7.44H205.68c-3.04,0-6.48-.16-8.64-.4.16-.4.24-.88.4-1.36.56-1.68.64-1.92,1.2-3.68l-10.8-2.48a52.034,52.034,0,0,1-2.88,10.8c-2.88,8-6.64,14.56-11.36,19.68A57.694,57.694,0,0,1,177.44-26a47.462,47.462,0,0,0,4.8-6.96c-.16,6-.16,6.88-.16,8.56V-2.24a67.83,67.83,0,0,1-.48,9.28h11.04a88.585,88.585,0,0,1-.48-9.2V-48.32a96.635,96.635,0,0,0,4.48-11.36v8.8a77.974,77.974,0,0,1,7.84-.32Zm-.16,13.76c-.08,3.04-.16,5.04-.4,7.36h-8.8v-7.36Zm18.8,0v7.36h-9.36c.08-2.16.24-4.32.32-7.36Zm28.8,10.72a50.01,50.01,0,0,1,9.6-2.8c9.12-2.08,15.52-3.04,20.8-3.04a19.348,19.348,0,0,1,7.28,1.12,8.031,8.031,0,0,1,5.36,7.68c0,5.12-2.64,9.04-8.16,12.16-4.8,2.64-14.24,4.64-22.4,4.64h-1.2A31.257,31.257,0,0,1,280,3.92c10.8-1.28,12.48-1.52,17.76-3.2,13.44-4.08,21.2-12.96,21.2-24.24a19.843,19.843,0,0,0-3.04-11.04c-3.76-5.6-10.32-8.32-19.92-8.32-6.56,0-13.84.96-24.96,3.28-6.16,1.28-6.16,1.28-8.72,1.52ZM339.12-42.8c.72,0,.96-.08,1.52-.08l8.56.24h2.24c-2.8,14.56-8.64,32-14,42.32l12.32,4.56c.4-1.44,1.04-3.28,1.84-5.52,3.68-10.56,4.56-13.2,6.96-21.92a193.013,193.013,0,0,0,4.64-19.84,90.416,90.416,0,0,0,11.28-1.2c2.88-.48,2.88-.48,4.4-.64l-.4-10.96a84.018,84.018,0,0,1-13.36,2.24c.24-1.6.32-1.76.64-3.92,1.04-5.84,1.04-5.84,1.6-7.76l-12.64-1.04v1.36a90.906,90.906,0,0,1-1.36,11.84c-2,.08-2.08.08-2.64.08a63.063,63.063,0,0,1-11.44-.8Zm64.8.16c-5.04-.08-5.36-.08-7.36-.08-9.28,0-13.28.4-25.2,2.56l.8,10.48a97.267,97.267,0,0,1,21.68-2.16,85.474,85.474,0,0,1,10.32.56ZM371.36-25.36c-4.48,6.16-6.16,10.24-6.16,14.56A11.892,11.892,0,0,0,371.12-.4c4,2.4,9.2,3.44,16.56,3.44a90.578,90.578,0,0,0,15.28-1.36c2-.24,2.64-.32,4.08-.48l-.8-11.84a58.4,58.4,0,0,1-17.92,3.12c-7.76,0-11.44-1.84-11.44-5.6,0-2.64.88-4.56,4.08-8.8Z" transform="translate(2865.586 1248.563)"/>
      <path id="パス_33030" data-name="パス 33030" d="M34.48-34.96v3.12H18.4a53.733,53.733,0,0,1-8-.4v8.08a74.329,74.329,0,0,1,8-.32H34.48v3.04H13.92A78.158,78.158,0,0,1,4-21.92v8.96a93.074,93.074,0,0,1,10-.48H27.28C20.8-8.48,13.28-5.36,2.16-3.2A34.624,34.624,0,0,1,7.76,6,73.757,73.757,0,0,0,23.36-.48,47.175,47.175,0,0,0,34.72-8.96c-.16,2.88-.16,3.12-.16,5.04v3.2a58.87,58.87,0,0,1-.48,8H44.8a54.125,54.125,0,0,1-.48-8V-4c0-2,0-2.4-.16-5.12C51.12-2.16,60,2.56,72.64,6a37.745,37.745,0,0,1,5.28-9.6c-11.68-1.92-20-5.04-26.16-9.84H66.24a92.081,92.081,0,0,1,9.84.48v-8.96a74.762,74.762,0,0,1-9.92.48H44.4v-3.04H61.44a74.329,74.329,0,0,1,8,.32v-8.08a56.415,56.415,0,0,1-8,.4H44.4v-3.12H65.2a77.243,77.243,0,0,1,8,.32v-8.48a70.627,70.627,0,0,1-8,.32H56.88c.8-1.52.88-1.68,2.32-4.72h7.36c3.92,0,7.28.16,9.76.4V-56.4a68.3,68.3,0,0,1-9.2.48H66a65.622,65.622,0,0,0,4.48-7.12L60.8-66.48a44.288,44.288,0,0,1-5.44,10.56H51.6v-5.44a39.636,39.636,0,0,1,.4-6.08H41.68a35.759,35.759,0,0,1,.32,5.6v5.92H37.28v-5.92a50.3,50.3,0,0,1,.24-5.6H27.28a42.044,42.044,0,0,1,.4,6.08v5.44H24.16a53.19,53.19,0,0,0-5.68-10.4l-9.6,3.44a32.922,32.922,0,0,1,4.88,6.96h-1.2a69.459,69.459,0,0,1-9.12-.48v9.28c2.48-.24,5.76-.4,9.6-.4h7.92a40.967,40.967,0,0,1,2.4,4.72h-8.8a69.066,69.066,0,0,1-7.92-.32v8.48a75.6,75.6,0,0,1,7.92-.32Zm-.72-7.84c-.72-2-1.12-2.88-1.92-4.72H48.16a45.156,45.156,0,0,1-2.08,4.72Zm88.4,18.16a55.1,55.1,0,0,1-6.4-.24v9.68a34.808,34.808,0,0,1,5.76-.32h4C122.48-8.88,117.36-4.8,107.6-1.2a37.33,37.33,0,0,1,5.92,8.56c12.32-5.52,18.64-12,22.4-22.88h8.56a44.518,44.518,0,0,1-.88,8.48c-.72,3.12-1.52,3.92-4,3.92a50.96,50.96,0,0,1-9.04-1.04,30.98,30.98,0,0,1,2.32,9.76q5.16.48,8.4.48c6.48,0,8.8-1.2,10.48-5.52,1.36-3.44,2.16-8.96,2.88-20.48.16-2.08.16-2.16.24-2.72.08-1.36.08-1.36.16-2.24a49.3,49.3,0,0,1-6.16.24H137.92a15.268,15.268,0,0,0,.24-2.24,7.031,7.031,0,0,1,.16-1.12c.08-.88.08-.88.16-1.44.08-.64.08-.64.16-1.2l-8.08-.08a46.777,46.777,0,0,0,6.72-3.52c4.88,3.04,9.12,4.72,17.36,6.88a34.106,34.106,0,0,1,4.32-10,54.671,54.671,0,0,1-14-3.28,34.394,34.394,0,0,0,7.12-11.6,49.99,49.99,0,0,1,5.28.24v-9.68a60.554,60.554,0,0,1-8.72.48H133.28c.8-1.76,1.44-3.36,1.76-4.08l.48-1.2-9.92-1.84a26.223,26.223,0,0,1-2.4,7.04c-2.8,5.84-5.52,9.36-11.36,14.8a30.159,30.159,0,0,1,7.04,6.4,66.89,66.89,0,0,0,5.84-6.56,31.97,31.97,0,0,0,5.12,6.48,60.681,60.681,0,0,1-10.72,4l.16-.4-4.08-4.96a51.246,51.246,0,0,1-5.84.24h-3.12l1.12-1.2c-1.04-1.04-1.36-1.44-2.08-2.16a90.256,90.256,0,0,0,10.96-12.88A18.2,18.2,0,0,1,118-59.76l-5.12-5.52a42.053,42.053,0,0,1-6.88.32H92.48a60.9,60.9,0,0,1-7.44-.32v9.76a55.94,55.94,0,0,1,6.64-.32h12.64a26.344,26.344,0,0,1-5.04,5.76c-2.24-1.92-3.2-2.64-6.4-5.04l-5.76,5.76a81.767,81.767,0,0,1,9.6,8.08H90a57.052,57.052,0,0,1-7.04-.32v9.68a35.24,35.24,0,0,1,6.4-.4h4.96c-3.2,7.92-6.8,13.2-12.56,18.08,2,3.76,2.56,5.28,3.92,10.64A51.046,51.046,0,0,0,96.72-19.92l.08,15.2c0,1.44-.4,1.76-2,1.76a38.285,38.285,0,0,1-7.2-.8c1.76,6.32,1.84,6.4,1.92,9.84,2.56.16,4.64.24,6.4.24,7.68,0,10-1.84,10-7.84l-.08-20.08A21.553,21.553,0,0,1,112-16.64a88.739,88.739,0,0,0,5.6-14.64,19.788,19.788,0,0,1,.72-2.48,36.721,36.721,0,0,1,3.44,6.16c3.12-.96,4.16-1.28,6.48-2.16v.72a43.832,43.832,0,0,1-.32,4.4Zm19.68-27.6a23.184,23.184,0,0,1-4.96,7.04,24.17,24.17,0,0,1-5.92-7.04ZM105.76-32.32h4a40.983,40.983,0,0,1-3.92,9.92Zm103.12-10C207.6-21.68,202.72-10,191.6-.8a25.907,25.907,0,0,1,7.52,7.52c12.4-10.88,18.08-25.04,19.68-49.04h6.32c-.08,17.28-.64,25.36-2.08,33.52-.8,4.16-1.36,4.8-4.48,4.8a39.3,39.3,0,0,1-7.36-.88,30.449,30.449,0,0,1,2.08,10.4,48.2,48.2,0,0,0,6,.24A22.164,22.164,0,0,0,226,5.12c2.96-.8,4.48-2.24,5.6-5.28,2.08-5.2,3.36-18.16,3.6-35.6.16-12.72.16-13.04.48-16.24a65.911,65.911,0,0,1-8.64.32h-7.76c.16-12.16.16-12.16.48-15.04H208.8a37.628,37.628,0,0,1,.48,7.28c0,1.6,0,3.2-.08,7.76H208a48.7,48.7,0,0,1-5.76-.24V-58.4a53.2,53.2,0,0,1-7.92.4H188.8v-2.72a40.482,40.482,0,0,1,.4-6.64H178.32a37.627,37.627,0,0,1,.4,6.64V-58H172a54.005,54.005,0,0,1-7.84-.4v10.08c2.56-.24,4.8-.4,7.44-.4h23.84c2.96,0,4.64,0,6.32.16V-42a38.683,38.683,0,0,1,6.08-.32Zm-37.6,17.36a72.236,72.236,0,0,1,7.52,7.2A43.3,43.3,0,0,1,161.92-2.48a36.384,36.384,0,0,1,6.16,8.72,58.137,58.137,0,0,0,17.2-16.72c2,2.4,2.88,3.52,5.52,7.2l7.2-7.44c-3.28-3.76-4.48-5.12-7.52-8.48a105.713,105.713,0,0,0,4.56-11.2c1.28,1.68,1.92,2.48,3.84,4.64a38.7,38.7,0,0,1,6.72-6.8c-5.04-4.96-7.36-8.48-10.64-15.6l-7.92,3.6c3.12,6.88,4.64,9.6,7.6,13.68l-8.48-4.24a35.208,35.208,0,0,1-2.8,8.8c-2.16-2-2.88-2.64-5.68-4.96Zm1.68-23.36a31.688,31.688,0,0,1-4.08,8.24,30.485,30.485,0,0,1-6.4,6.96,27.708,27.708,0,0,1,5.6,8.72c6.64-6.56,9.28-10.48,13.6-20.32Zm88.8,3.28a101.41,101.41,0,0,0-9.28-7.76l-7.28,6.56a58.1,58.1,0,0,1,12.24,11.2l6.96-6.88a77.924,77.924,0,0,1,8.24,7.2c-2.08,1.92-2.88,2.64-5.52,4.8h-2.24l-2.64-6.8c-7.12,4.16-13.04,6.56-18.64,7.68l3.36,10.08c8-3.36,9.92-4.24,14.64-6.88l.8,4.8c.96-.08.96-.08,12-.88v4.96H252a62.592,62.592,0,0,1-8.8-.48V-7.12c3.6-.32,6.32-.48,9.92-.48H274.4V-.8a50.944,50.944,0,0,1-.56,8.16h11.6a48.977,48.977,0,0,1-.56-8.16V-7.6h22.56a91.512,91.512,0,0,1,9.92.48V-17.44a58.657,58.657,0,0,1-8.4.48H284.88v-5.6c4.24-.32,4.24-.32,6.64-.56.48,1.28.64,1.76,1.2,3.2l8.24-3.04c-2.56-4.72-2.56-4.72-3.68-6.64a67.156,67.156,0,0,1,13.04,10.96l6.72-8A93.151,93.151,0,0,0,302.4-36.72c1.12-.88,2.08-1.6,2.64-2,1.28-.96,2.08-1.6,2.4-1.84a72.113,72.113,0,0,0,6.64-5.84l-7.6-6.4a66.972,66.972,0,0,1-13.44,11.04l6.56,7.2-3.04,3.52c-1.36-2.16-2.24-3.44-4.8-7.04l-6.8,2.88c1.36,2.24,1.84,2.96,2.64,4.32-3.6.32-6.64.56-8.96.64a68.839,68.839,0,0,0,5.44-4.8l1.28-1.2a97.156,97.156,0,0,0,9.36-9.6l-7.6-4.96a88.832,88.832,0,0,1-8.16,9.84c-.96-.96-1.68-1.68-2.72-2.64a54.324,54.324,0,0,0,6.88-9.36h25.04c3.6,0,6,.08,8.56.32v-10a85.223,85.223,0,0,1-10.16.48H285.04v-.88a22.483,22.483,0,0,1,.48-4.72H274a22.481,22.481,0,0,1,.48,4.72v.88H254.24a85.057,85.057,0,0,1-10-.48v10c2.56-.24,4.96-.32,8.4-.32H272.8A25.223,25.223,0,0,1,270-48.8c-1.04-.72-1.44-1.04-2.8-2ZM367.44-29.28c11.04-5.84,18.32-10.72,26.72-18.16a14.322,14.322,0,0,1,1.44-1.12l-8-8.4c-4.08,5.28-11.52,11.12-20.16,15.84V-56.8a79.281,79.281,0,0,1,.48-10.08H356.16a81.92,81.92,0,0,1,.48,10.08V-4.24c0,7.84,2.48,9.36,15.44,9.36,12.88,0,17.44-.8,20.08-3.68,2.48-2.72,3.52-7.44,4.08-19.04a46.694,46.694,0,0,1-10.16-3.52c-.24,9.36-.8,12.96-2.08,14.72-.88,1.2-3.68,1.68-9.68,1.68-5.44,0-6.88-.48-6.88-2.4ZM333.52-3.76c0,3.84-.16,7.04-.48,10.56h11.52c-.32-3.36-.48-7.12-.48-10.48V-47.2a136.829,136.829,0,0,0,5.52-13.36c.64-1.68.8-2.16,1.68-4.48l-10.96-3.12c-.8,5.36-3.84,12.88-8,19.6a56.778,56.778,0,0,1-10.56,13.2,61.715,61.715,0,0,1,4.56,11.76,73.08,73.08,0,0,0,7.36-8.96c-.16,5.76-.16,6.64-.16,8.64ZM440-41.2a10.755,10.755,0,0,0-10.8,10.8A10.755,10.755,0,0,0,440-19.6a10.755,10.755,0,0,0,10.8-10.8A10.755,10.755,0,0,0,440-41.2Zm43.84-14.96a79.943,79.943,0,0,1,8.32-.32h26.08a80.932,80.932,0,0,1,8.32.32v-9.76a83.427,83.427,0,0,1-9.44.48H493.36a86.99,86.99,0,0,1-9.52-.48Zm3.92,17.04a38.731,38.731,0,0,1-.32,5.52c2.48-.16,4.4-.24,7.44-.24h22.24c3.2,0,4.96.08,7.2.24a35.76,35.76,0,0,1-.32-5.6v-8.56a37.554,37.554,0,0,1,.32-5.68c-2.16.16-3.84.24-7.28.24H494.96c-3.68,0-4.96-.08-7.52-.24a37.554,37.554,0,0,1,.32,5.68Zm10-6.72h16.4v4.64h-16.4Zm-4.88,15.12c-3.36,0-5.84-.08-8.32-.24a74.261,74.261,0,0,1,.32,8.32V-3.2c0,3.68-.16,6.8-.4,9.52h10.48V3.2h21.28V5.84h10.08c-.24-2.8-.4-5.68-.4-9.52V-21.92c0-3.76.08-6.72.32-9.04-2.32.16-4.88.24-8.56.24Zm1.36,7.92h6.88V-18h-6.88Zm15.68.08h6.8V-18h-6.8ZM494.4-10.24h6.72V-5.2H494.4Zm15.52,0h6.8V-5.2h-6.8ZM529.6-61.52a71.751,71.751,0,0,1,.32,8.24v32.72a69.988,69.988,0,0,1-.32,8.24h10.56a61.851,61.851,0,0,1-.32-8.16V-53.52a51.168,51.168,0,0,1,.4-8Zm14.96-5.36a73.656,73.656,0,0,1,.48,9.76v50.8c0,1.92-.56,2.4-3.12,2.4s-6.72-.32-10.48-.72a39.106,39.106,0,0,1,2.72,10c3.6.24,6.16.32,8.08.32,5.36,0,8.32-.56,10.16-2.08,2.16-1.68,2.8-3.76,2.8-8.4V-57.36a53.478,53.478,0,0,1,.48-9.52Zm49.92,31.92v3.12H578.4a53.733,53.733,0,0,1-8-.4v8.08a74.329,74.329,0,0,1,8-.32h16.08v3.04H573.92a78.158,78.158,0,0,1-9.92-.48v8.96a93.074,93.074,0,0,1,10-.48h13.28c-6.48,4.96-14,8.08-25.12,10.24a34.624,34.624,0,0,1,5.6,9.2,73.757,73.757,0,0,0,15.6-6.48,47.174,47.174,0,0,0,11.36-8.48c-.16,2.88-.16,3.12-.16,5.04v3.2a58.869,58.869,0,0,1-.48,8H604.8a54.125,54.125,0,0,1-.48-8V-4c0-2,0-2.4-.16-5.12C611.12-2.16,620,2.56,632.64,6a37.746,37.746,0,0,1,5.28-9.6c-11.68-1.92-20-5.04-26.16-9.84h14.48a92.081,92.081,0,0,1,9.84.48v-8.96a74.763,74.763,0,0,1-9.92.48H604.4v-3.04h17.04a74.329,74.329,0,0,1,8,.32v-8.08a56.416,56.416,0,0,1-8,.4H604.4v-3.12h20.8a77.243,77.243,0,0,1,8,.32v-8.48a70.627,70.627,0,0,1-8,.32h-8.32c.8-1.52.88-1.68,2.32-4.72h7.36c3.92,0,7.28.16,9.76.4V-56.4a68.3,68.3,0,0,1-9.2.48H626a65.627,65.627,0,0,0,4.48-7.12l-9.68-3.44a44.287,44.287,0,0,1-5.44,10.56H611.6v-5.44a39.636,39.636,0,0,1,.4-6.08H601.68a35.76,35.76,0,0,1,.32,5.6v5.92h-4.72v-5.92a50.294,50.294,0,0,1,.24-5.6H587.28a42.046,42.046,0,0,1,.4,6.08v5.44h-3.52a53.189,53.189,0,0,0-5.68-10.4l-9.6,3.44a32.921,32.921,0,0,1,4.88,6.96h-1.2a69.459,69.459,0,0,1-9.12-.48v9.28c2.48-.24,5.76-.4,9.6-.4h7.92a40.969,40.969,0,0,1,2.4,4.72h-8.8a69.066,69.066,0,0,1-7.92-.32v8.48a75.6,75.6,0,0,1,7.92-.32Zm-.72-7.84c-.72-2-1.12-2.88-1.92-4.72h16.32a45.154,45.154,0,0,1-2.08,4.72ZM680-41.2a10.755,10.755,0,0,0-10.8,10.8A10.755,10.755,0,0,0,680-19.6a10.755,10.755,0,0,0,10.8-10.8A10.755,10.755,0,0,0,680-41.2Zm56.96-8.96a62.117,62.117,0,0,1,.48-9.6H726.48a65.254,65.254,0,0,1,.48,9.6v32.8a35.521,35.521,0,0,1-4.8.88L724-5.44c1.68-.64,2.08-.8,3.84-1.44,5.84-2,11.84-4.24,15.68-5.84v9.84a67.083,67.083,0,0,1-.48,9.68h11.28a61.626,61.626,0,0,1-.48-8.64c.64.88.64.88.88,1.2a28.294,28.294,0,0,1,4.48,7.76A73.534,73.534,0,0,0,775.76-8.56a94.311,94.311,0,0,0,17.76,15.6,50.783,50.783,0,0,1,5.2-10.88,62.71,62.71,0,0,1-16.8-14c7.04-12.72,10.88-25.84,12.48-42.8.24-2.32.24-2.32.4-3.44a56.3,56.3,0,0,1-6.56.32h-23.6a75.222,75.222,0,0,1-9.04-.48V-53.6a60.4,60.4,0,0,1,8.08-.32h4.16l-10.08,3.84c.8,2.64.8,2.64,2.24,8.56,2.48,10.08,5.36,17.44,9.52,24.4a55.959,55.959,0,0,1-8.08,8.88,38.746,38.746,0,0,1-7.6,5.6V-57.68a62.117,62.117,0,0,1,.48-9.6H743.04a66.55,66.55,0,0,1,.48,9.6v35.2c-3.04,1.2-4.08,1.52-6.56,2.32Zm45.92-3.76c-1.36,10.8-3.36,18.08-7.28,26.56-3.68-7.28-5.36-13.36-7.52-26.56Zm50.96-.48a55.026,55.026,0,0,1-2.8,16c-3.2,10-7.12,16.64-14.08,23.84-4,4.16-7.12,6.56-14.64,11.2a33.566,33.566,0,0,1,7.52,9.84c8.48-5.52,14.4-10.8,19.28-17.12,5.36-6.88,8.56-13.28,11.6-23.28a62.833,62.833,0,0,0,12,23.44A76.656,76.656,0,0,0,870.64,6.4,41.066,41.066,0,0,1,878.4-4.4,58.226,58.226,0,0,1,868-11.68a62.555,62.555,0,0,1-13.04-14.96,62.773,62.773,0,0,1-9.36-33.28c0-1.68.08-2.96.24-5.04a45.508,45.508,0,0,1-7.2.4H824.88a46.328,46.328,0,0,1-8.24-.48v11.12a83.159,83.159,0,0,1,8.4-.48Zm95.04-8.96a70.862,70.862,0,0,1,.64,11.52V-24c0,4.64-.88,8.16-2.72,10.64-2.4,3.28-6.88,5.12-12.48,5.12-5.44,0-9.52-1.52-12.08-4.56-2.24-2.72-3.2-6.16-3.2-11.2V-51.84a68.394,68.394,0,0,1,.64-11.52H885.2a71.492,71.492,0,0,1,.64,11.52V-24c0,8.4,2.16,14.8,6.48,19.52C896.88.48,904.64,3.2,914.16,3.2c18.16,0,28.56-9.84,28.56-27.12v-28a72.289,72.289,0,0,1,.64-11.44ZM968.32,1.68a74.844,74.844,0,0,1-.64-11.2V-21.36h14c7.76,0,13.68-2,17.76-6.16,3.76-3.76,5.68-9.04,5.68-15.44,0-6-1.84-11.04-5.2-14.4-4-4-9.92-6-18-6H964.88c-4.72,0-7.36-.08-10.96-.24a81.535,81.535,0,0,1,.64,10.96V-9.36a73.247,73.247,0,0,1-.64,11.04Zm-.64-34.32V-52.08h13.68c3.6,0,6.08.8,7.76,2.64a9.48,9.48,0,0,1,2.4,6.88c0,6.32-3.68,9.92-10.16,9.92Z" transform="translate(3275.586 1246.563)" fill="#533afc"/>
      <path id="パス_33029" data-name="パス 33029" d="M50.48-59.6a51.232,51.232,0,0,1,7.44,10.8l6.96-3.52a45.3,45.3,0,0,0-7.36-10.56Zm9.84-4.24A57.748,57.748,0,0,1,67.6-53.36l6.88-3.6a47.165,47.165,0,0,0-7.36-10.16ZM55.52-45.2a52.318,52.318,0,0,1,5.6,10.24,77.106,77.106,0,0,1,5.92,18.08l11.04-5.36a80.573,80.573,0,0,0-12.72-27.6ZM5.12-35.36c2.32-.64,7.76-1.6,13.44-2.4C15.2-24.4,8.4-8.32,2.96-1.2l11.12,6c.48-1.04.56-1.2,1.28-2.72C22.8-13.44,27.2-25.6,30-38.64a39.222,39.222,0,0,1,4-.24c2.88,0,4.16.32,5.2,1.36,1.44,1.28,2,3.36,2,7.2,0,6.08-.96,14.4-2.16,18.24-.96,3.2-2.16,4.48-4.16,4.48-2.64,0-7.28-1.28-11.36-3.04a36.361,36.361,0,0,1,1.04,8.56,31.649,31.649,0,0,1-.16,3.6c5.44,1.6,8.8,2.24,12.24,2.24,4.4,0,6.96-.96,9.36-3.6,4.08-4.4,6.48-15.52,6.48-29.84,0-7.52-1.04-11.44-3.76-14.72-2.64-3.12-6.8-4.64-12.48-4.64-1.2,0-2.32.08-4.24.16.24-.96.24-1.04.56-2.72,1.12-6.56,1.76-10,1.84-10.32a19.678,19.678,0,0,1,.56-2.32l-12.4-1.2a7.911,7.911,0,0,1,.08,1.2c0,3.04-.56,7.76-2,16.16-4.08.64-13.68,1.52-16.08,1.52H4.08Zm89.84-20.4c-5.2,0-6.64-.08-9.68-.32a52.579,52.579,0,0,1,.32,6.64v8.08a35.778,35.778,0,0,1-.4,6.4H95.6V-46.88h50.16v11.92h10.32a50.428,50.428,0,0,1-.4-6.32v-8.16a50.208,50.208,0,0,1,.32-6.64,98.127,98.127,0,0,1-9.92.32h-2.56a95.919,95.919,0,0,0,5.2-9.04L138.4-67.28a50.4,50.4,0,0,1-5.84,11.52H126.8a70.069,70.069,0,0,0-5.12-11.92l-10.16,2.24A51.487,51.487,0,0,1,116-55.76h-6.96a70.769,70.769,0,0,0-6.8-11.04L92.4-64.4a50.977,50.977,0,0,1,5.52,8.64Zm31.6,41.12h19.28a92.452,92.452,0,0,1,10.64.48V-24.64a76.12,76.12,0,0,1-10.56.56H128.08A123.2,123.2,0,0,0,142.32-35.2c.88-.8,1.2-1.12,2.08-1.84l-5.12-5.68a37.909,37.909,0,0,1-6.16.32H107.84a79.942,79.942,0,0,1-8.32-.32v9.44a81.249,81.249,0,0,1,8.24-.32h19.28a37.732,37.732,0,0,1-7.36,5.2h-3.92a32.44,32.44,0,0,1,.24,4.32H95.2a77.311,77.311,0,0,1-10.24-.56v10.48a88.229,88.229,0,0,1,10.32-.48H116V-4.8c0,1.44-.56,1.68-3.92,1.68-2.4,0-5.6-.24-9.84-.64a36.348,36.348,0,0,1,3.04,10.08c3.6.08,6.16.16,8.24.16,10.64,0,13.04-1.52,13.04-8.48ZM211.2-50.48c2.64,2.96,4.64,6.08,7.36,11.52l6.96-3.44a51.924,51.924,0,0,0-7.36-11.28Zm9.52-4.4a57.8,57.8,0,0,1,7.2,11.2l6.8-3.44A47.994,47.994,0,0,0,227.28-58Zm-50.8,40.96a26.474,26.474,0,0,1,2-2.4c4.16-4.64,8.56-10,12.32-14.96C190.72-40,190.72-40,192.08-40c1.12,0,1.92.48,3.36,2.08,2.48,2.88,2.48,2.88,3.36,3.92,5.44,6.32,5.44,6.32,7.2,8.32,7.76,8.56,16.64,17.6,23.28,23.52A27.726,27.726,0,0,1,231.92.4l5.92-13.36c-2.88-1.68-5.28-3.6-9.92-8a261.689,261.689,0,0,1-23.2-24.4,44.518,44.518,0,0,0-5.2-5.44,11.771,11.771,0,0,0-7.36-2.8c-4.16,0-7.76,2.24-11.76,7.36-11.12,14-14.48,17.84-18.08,20.4Zm86.16-37.2c2.4-.32,3.12-.32,5.68-.48,11.76-.56,13.12-.64,19.68-1.2-11.28,11.28-28,24.56-35.52,28.16l6.4,10.32c9.92-8.88,20.88-13.44,32.64-13.44,9.2,0,15.12,3.76,15.12,9.6,0,5.04-2.32,8.08-8,10.4a20.409,20.409,0,0,0-3.68-6.88,17.748,17.748,0,0,0-14.08-6.48c-8.48,0-14.72,5.2-14.72,12.08A11.978,11.978,0,0,0,264.48.72c3.36,2.56,9.28,4,16.24,4,7.68,0,14.72-1.68,20.08-4.8,7.2-4.16,10.96-10.4,10.96-18.16,0-5.6-1.92-10-5.84-13.28-4.32-3.6-9.92-5.44-16.72-5.44A43.947,43.947,0,0,0,276-35.04c6.48-4.56,9.04-6.64,17.36-14.08,6.24-5.52,6.32-5.52,8-6.48l-5.68-8.32c-1.36.64-2.32.8-5.44,1.04-7.44.56-17.36.96-24.24.96a71.41,71.41,0,0,1-10.4-.56ZM281.84-4.88a11.661,11.661,0,0,1-3.36.4c-5.2,0-8.24-1.6-8.24-4.4,0-1.92,1.6-3.2,4-3.2C278-12.08,280.64-9.6,281.84-4.88Zm83.76-12c-.08-2-.16-2.8-.16-3.68,0-.96,0-.96.24-5.84l1.36-26.32c.16-4.16.48-7.92.8-10.24h-15.6c.32,2.72.64,6.64.8,10.24L354.4-26.4c.24,4.72.24,4.72.24,5.76,0,.88-.08,1.76-.16,3.76Zm1.28,19.04V-10.8H353.2V2.16Z" transform="translate(4287.173 1246.563)"/>
    </g>
    <path id="パス_33028" data-name="パス 33028" d="M145.6-152.88H77.74L74.36-131.3q4.68-.52,8.58-.91T91-132.6a72.228,72.228,0,0,1,27.56,5.2,65.457,65.457,0,0,1,21.84,14.3,65.457,65.457,0,0,1,14.3,21.84,72.926,72.926,0,0,1,5.2,27.82,67.758,67.758,0,0,1-5.85,28.6,61.632,61.632,0,0,1-16.51,21.71,74.423,74.423,0,0,1-26,13.78A113.488,113.488,0,0,1,77.48,5.46,129.413,129.413,0,0,1,43.81,1.17,109.121,109.121,0,0,1,13.78-11.96L21.32-59.8A104.654,104.654,0,0,0,47.84-42.77q13.52,5.85,25.74,5.85,15.6,0,24.7-8.45a27.413,27.413,0,0,0,9.1-20.93q0-14.56-12.22-23.53T63.18-98.8a89.142,89.142,0,0,0-18.2,1.95,86.991,86.991,0,0,0-18.46,6.11L42.9-196.04H145.6Z" transform="translate(4644.445 1528)" fill="url(#linear-gradient)"/>
  </g>
</svg>
