<svg xmlns="http://www.w3.org/2000/svg" xmlns:xlink="http://www.w3.org/1999/xlink" width="2534.086" height="359.757" viewBox="0 0 2534.086 359.757">
  <defs>
    <linearGradient id="linear-gradient" x1="0.5" x2="0.5" y2="1" gradientUnits="objectBoundingBox">
      <stop offset="0" stop-color="#edd14c"/>
      <stop offset="1" stop-color="#d1ac3a"/>
    </linearGradient>
  </defs>
  <g id="グループ_18719" data-name="グループ 18719" transform="translate(-2575.586 -1134.563)">
    <g id="グループ_12639" data-name="グループ 12639" transform="translate(2304 536.439)">
      <g id="グループ_9212" data-name="グループ 9212" transform="translate(-56 514)">
        <g id="グループ_9210" data-name="グループ 9210" transform="translate(-93.416 -21.875)">
          <path id="パス_14372" data-name="パス 14372" d="M74.681-90.66a28.347,28.347,0,0,0,3.422.253H80.51q9.378,0,15.208-5.576t5.83-14.447q0-8.618-5.449-13.94t-14.067-5.323q-9.125,0-14.7,6.083T61.754-107.9H15.878a82.225,82.225,0,0,1,7.477-26.613,63.746,63.746,0,0,1,14.574-19.643,60.783,60.783,0,0,1,20.784-12.166,79.139,79.139,0,0,1,26.36-4.182,79.438,79.438,0,0,1,25.726,3.929,57.909,57.909,0,0,1,19.77,11.152,48.564,48.564,0,0,1,12.673,17.489,57.258,57.258,0,0,1,4.436,22.938q0,13.687-5.2,22.431A46.66,46.66,0,0,1,127.654-77.48q14.7,4.562,22.938,16.348T158.83-32.11a59.147,59.147,0,0,1-5.576,25.853,58.973,58.973,0,0,1-15.588,20.023A71.856,71.856,0,0,1,113.84,26.692a96.1,96.1,0,0,1-30.289,4.562q-22.051,0-39.793-8.618T15.371-4.737A54.727,54.727,0,0,1,8.907-21.465,87.662,87.662,0,0,1,7.26-38.447H56.431q.507,13.433,7.857,20.4t19.77,6.97q13.18,0,19.263-7.1T109.4-35.659q0-12.42-7.35-18.756a25.906,25.906,0,0,0-17.489-6.337,29.279,29.279,0,0,0-4.816.38q-2.281.38-5.069.887Z" transform="translate(2620.032 434.5)" fill="url(#linear-gradient)"/>
          <g id="グループ_9209" data-name="グループ 9209" transform="translate(642.385 137.738)">
            <path id="パス_24163" data-name="パス 24163" d="M310,1634.241q-.371.016-.737.058c-.244.03-.487.072-.723.1a8.5,8.5,0,0,0-1.387.312c-.112.035-.222.073-.333.112s-.215.072-.321.112q-.32.118-.624.264a6.322,6.322,0,0,0-1.132.7,12.93,12.93,0,0,1-2.25,1.352,11.562,11.562,0,0,1-1.173.482c-.385.14-.762.26-1.119.365-.177.052-.352.1-.518.145l-.474.1c-.3.063-.57.112-.794.148-.449.073-.72.1-.72.1a15.028,15.028,0,0,0,1.649,1.143c.453.251.929.5,1.42.729.07.031.14.065.211.1l.286.127.012.005c.675.262,1.371.513,2.079.717.718.181,1.441.353,2.159.469a14.608,14.608,0,0,0,2.2.157,13.694,13.694,0,0,0,2.04-.218,12.085,12.085,0,0,0,1.817-.558,6.06,6.06,0,0,0,.811-.387c.259-.141.506-.293.74-.45s.455-.324.664-.5c.1-.087.2-.175.3-.264s.192-.192.283-.29a7.113,7.113,0,0,0,.929-1.236,6.186,6.186,0,0,0,.853-2.784l.006-.087-.126-.054A14.681,14.681,0,0,0,310,1634.241Z" transform="translate(-274.076 -1546.462)" fill="#f5c04b"/>
            <path id="パス_24164" data-name="パス 24164" d="M491.667,1563.641a6.78,6.78,0,0,0,2.983-.708,5.847,5.847,0,0,0,.6-.349,5.375,5.375,0,0,0,.541-.427,5.249,5.249,0,0,0,1.465-2.22l.028-.077-.1-.091a14.825,14.825,0,0,0-2.519-1.794,10.545,10.545,0,0,0-1.336-.684,13.119,13.119,0,0,0-1.353-.539c-.459-.138-.906-.279-1.355-.377-.224-.047-.448-.087-.67-.117-.112-.016-.224-.028-.334-.038s-.217-.028-.326-.037a6.607,6.607,0,0,0-1.272,0,5.828,5.828,0,0,0-.611.1,4.537,4.537,0,0,0-.576.145,10.2,10.2,0,0,1-1.159.3c-.2.038-.4.073-.6.1s-.4.054-.6.066a16.418,16.418,0,0,1-2.269.007c-.682-.063-1.276-.157-1.7-.236s-.675-.138-.675-.138a18.726,18.726,0,0,0,1.22,1.567c.222.269.471.51.721.759s.512.494.779.738c.134.119.266.244.407.358l.426.339c.286.223.577.443.871.656.148.106.294.217.445.316l.458.29q.46.285.92.553a11.925,11.925,0,0,0,3.823,1.405,7.072,7.072,0,0,0,.9.119C491.095,1563.643,491.385,1563.648,491.667,1563.641Z" transform="translate(-466.676 -1473.31)" fill="#f5c04b"/>
            <path id="パス_24165" data-name="パス 24165" d="M647.285,1386.875c.128.052.259.1.387.14a8.138,8.138,0,0,0,1.484.356,4.49,4.49,0,0,0,4.435-1.791l.044-.061-.071-.115a16.2,16.2,0,0,0-3.987-4.5,10.445,10.445,0,0,0-1.132-.8c-.192-.119-.391-.223-.581-.328s-.382-.206-.574-.293a6.578,6.578,0,0,0-1.159-.412,5.145,5.145,0,0,0-1.122-.176,9.939,9.939,0,0,1-1.119-.1c-.189-.028-.379-.063-.568-.1s-.368-.089-.551-.138a15.935,15.935,0,0,1-2.057-.722c-.6-.276-1.121-.548-1.487-.754s-.581-.339-.581-.339c.208.583.461,1.188.752,1.8.073.154.145.311.225.462s.167.3.253.454c.172.3.35.609.538.913a19.592,19.592,0,0,0,1.227,1.771c.22.284.432.576.669.843s.469.534.705.792.5.534.753.773.522.461.782.672.521.408.779.593.532.337.794.487.525.283.782.4C647.031,1386.763,647.159,1386.821,647.285,1386.875Z" transform="translate(-633.035 -1305.199)" fill="#f5c04b"/>
            <path id="パス_24166" data-name="パス 24166" d="M770.415,1171.905c.1.084.206.162.308.239s.212.145.317.213q.316.2.628.361a6.037,6.037,0,0,0,1.218.48,4.442,4.442,0,0,0,1.172.127,3.51,3.51,0,0,0,2.022-.705l.052-.04-.035-.129a19.241,19.241,0,0,0-1.063-2.875c-.228-.445-.439-.9-.688-1.321s-.516-.824-.775-1.22a11.125,11.125,0,0,0-.846-1.094,10.585,10.585,0,0,0-.893-.948,7.949,7.949,0,0,0-.952-.754,4.86,4.86,0,0,0-.973-.531,12.948,12.948,0,0,1-3.637-2.358c-.481-.442-.887-.855-1.17-1.157s-.448-.49-.448-.49a22.382,22.382,0,0,0,2.326,7.746,14.683,14.683,0,0,0,2.2,3.3A12.659,12.659,0,0,0,770.415,1171.905Z" transform="translate(-763.475 -1101.848)" fill="#f5c04b"/>
            <path id="パス_24167" data-name="パス 24167" d="M848.56,942.785a7.846,7.846,0,0,0,.92,1.154,5.487,5.487,0,0,0,1.99,1.36,3.2,3.2,0,0,0,1.993.061l.055-.017v-.127c0-.248-.015-.492-.026-.738s-.023-.5-.044-.744c-.041-.492-.118-.977-.2-1.457a13.268,13.268,0,0,0-.3-1.422c-.058-.232-.135-.459-.2-.688s-.132-.45-.208-.67a12.781,12.781,0,0,0-.509-1.267,10.317,10.317,0,0,0-.579-1.15,8.75,8.75,0,0,0-.685-.991,5.275,5.275,0,0,0-.75-.8c-.266-.225-.528-.473-.784-.736a10.436,10.436,0,0,1-.731-.829A20.619,20.619,0,0,1,847.279,932l-.25-.4c-.076-.131-.145-.257-.212-.374-.134-.237-.247-.452-.342-.63-.186-.359-.291-.579-.291-.579a22.209,22.209,0,0,0,.334,7.648c.071.342.15.677.233,1,.042.162.084.325.129.483s.1.312.153.466a17.761,17.761,0,0,0,.69,1.717A11.489,11.489,0,0,0,848.56,942.785Z" transform="translate(-845.986 -886.639)" fill="#f5c04b"/>
            <path id="パス_24168" data-name="パス 24168" d="M866.329,716.852a12.364,12.364,0,0,0,.4,1.56,10.414,10.414,0,0,0,.561,1.33c.843,1.614,1.986,2.524,3.221,2.614l.054,0,.029-.114a16.509,16.509,0,0,0,.459-5.442,12.139,12.139,0,0,0-.154-1.3c-.039-.213-.078-.421-.119-.623s-.092-.4-.144-.6a9.77,9.77,0,0,0-.385-1.112,5.677,5.677,0,0,0-.5-.956c-.188-.288-.369-.6-.539-.915s-.318-.646-.464-.977-.278-.665-.4-.991-.221-.642-.315-.944c-.183-.6-.33-1.136-.414-1.517s-.126-.609-.126-.609c-.1.229-.2.468-.292.719s-.173.513-.254.784-.16.548-.234.832-.131.581-.19.88-.116.6-.167.908-.086.62-.124.93-.07.627-.1.939-.039.63-.055.941c-.014.328-.022.651-.02.969s.022.632.042.937A13.094,13.094,0,0,0,866.329,716.852Z" transform="translate(-864.844 -676.983)" fill="#f5c04b"/>
            <path id="パス_24169" data-name="パス 24169" d="M817.707,518.835c.045.215.1.419.154.616s.128.389.2.571a5.424,5.424,0,0,0,.5.977,3.406,3.406,0,0,0,1.384,1.251l.047.021.054-.091a14.023,14.023,0,0,0,1.691-4.684,11.234,11.234,0,0,0,.163-1.211c.028-.4.055-.789.047-1.174a9.156,9.156,0,0,0-.089-1.115,6.027,6.027,0,0,0-.228-1.017c-.1-.318-.193-.649-.275-.988s-.14-.679-.195-1.021a17.955,17.955,0,0,1-.209-1.951c-.032-.592-.039-1.11-.038-1.48s.019-.581.019-.581a17.5,17.5,0,0,0-2.8,5.676c-.087.284-.167.569-.238.848s-.125.566-.177.843a13.046,13.046,0,0,0-.2,1.627,13.189,13.189,0,0,0,0,1.515A10.887,10.887,0,0,0,817.707,518.835Z" transform="translate(-812.626 -490.239)" fill="#f5c04b"/>
            <path id="パス_24170" data-name="パス 24170" d="M702.924,361.371l.036.035.07-.061a11.458,11.458,0,0,0,2.586-3.576,10.107,10.107,0,0,0,.417-1.023,8.667,8.667,0,0,0,.31-1.026,6.96,6.96,0,0,0,.2-1.993c-.02-.314-.029-.64-.025-.965s.026-.646.052-.967a17.313,17.313,0,0,1,.238-1.8c.1-.536.208-.995.288-1.321.041-.164.074-.293.1-.379s.036-.122.038-.133a14.22,14.22,0,0,0-3.714,4.108,12.587,12.587,0,0,0-.746,1.351,14.129,14.129,0,0,0-.545,1.363,9.931,9.931,0,0,0-.49,2.607,6.249,6.249,0,0,0,.257,2.2A3.789,3.789,0,0,0,702.924,361.371Z" transform="translate(-690.608 -341.455)" fill="#f5c04b"/>
            <path id="パス_24171" data-name="パス 24171" d="M539.522,251.961l.074-.031a8.691,8.691,0,0,0,3.1-2.286,8.6,8.6,0,0,0,1.1-1.572,5.818,5.818,0,0,0,.619-1.693,11.169,11.169,0,0,1,.451-1.695,14.922,14.922,0,0,1,.6-1.51c.411-.88.772-1.485.772-1.485a11.505,11.505,0,0,0-4.163,2.424,9.183,9.183,0,0,0-2.759,4.087,4.831,4.831,0,0,0,.176,3.717Z" transform="translate(-519.369 -241.688)" fill="#f5c04b"/>
            <path id="パス_24172" data-name="パス 24172" d="M308.408,1426.21a9.859,9.859,0,0,0-.666-1.286c-.063-.1-.126-.2-.193-.3s-.132-.209-.2-.311q-.2-.307-.43-.6c-.148-.194-.3-.38-.464-.562s-.324-.353-.493-.539a10.3,10.3,0,0,0-1.066-1,9.894,9.894,0,0,0-1.159-.9,10.754,10.754,0,0,0-1.249-.78,20.947,20.947,0,0,0-4.789-2.135s.071.218.193.6c.06.192.132.426.215.695.041.135.084.279.131.431l.151.462c.1.325.215.679.333,1.052s.236.785.366,1.18c.254.8.512,1.679.737,2.552a6.151,6.151,0,0,0,.49,1.257,6.75,6.75,0,0,0,.349.6c.064.1.129.194.2.288s.143.178.217.265a7.927,7.927,0,0,0,1.012.977,4.485,4.485,0,0,0,.584.408q.305.189.628.351a6.912,6.912,0,0,0,5.68.26l.118-.047,0-.085A8.452,8.452,0,0,0,308.408,1426.21Z" transform="translate(-267.014 -1343.679)" fill="#f5c04b"/>
            <path id="パス_24173" data-name="パス 24173" d="M463.337,1338.793l.044.609c.026.389.057.948.089,1.625.042.658.09,1.431.122,2.267.007.211.017.421.028.628s.017.422.026.637c.015.429.022.866.02,1.3a5.448,5.448,0,0,0,.141,1.316,7.651,7.651,0,0,0,.422,1.305c.045.107.093.216.144.321s.108.206.164.307c.116.2.24.4.374.6a6.994,6.994,0,0,0,.91,1.119,8.551,8.551,0,0,0,1.1.948,9.825,9.825,0,0,0,1.247.717,6.4,6.4,0,0,0,2.718.578l.119,0,.016-.08a8.126,8.126,0,0,0,.079-2.784c-.032-.234-.073-.464-.121-.7s-.1-.475-.16-.709a11.927,11.927,0,0,0-.452-1.381,16,16,0,0,0-3.121-5.011A22.07,22.07,0,0,0,463.337,1338.793Z" transform="translate(-439.535 -1269.65)" fill="#f5c04b"/>
            <path id="パス_24174" data-name="パス 24174" d="M605.445,1235.592c-.058-.239-.122-.478-.195-.712s-.153-.466-.234-.7-.161-.475-.253-.709-.19-.461-.3-.686-.2-.466-.317-.693a24.153,24.153,0,0,0-2.765-4.623s-.035.209-.095.572-.157.883-.279,1.511-.235,1.335-.394,2.108c-.077.379-.159.773-.24,1.173s-.174.792-.273,1.187a5.834,5.834,0,0,0-.177,1.248,7.9,7.9,0,0,0,.089,1.318q.052.338.131.681a6.965,6.965,0,0,0,.2.668,10.381,10.381,0,0,0,.558,1.325,7.984,7.984,0,0,0,4.052,3.765l.108.038.035-.066a9.26,9.26,0,0,0,.738-5.266,12.805,12.805,0,0,0-.228-1.426C605.554,1236.066,605.5,1235.827,605.445,1235.592Z" transform="translate(-582.883 -1165.342)" fill="#f5c04b"/>
            <path id="パス_24175" data-name="パス 24175" d="M697.871,1101.035a8.756,8.756,0,0,0,2.759,4.773l.087.073.047-.047a6.039,6.039,0,0,0,1.262-1.988,9.02,9.02,0,0,0,.39-1.2,11.231,11.231,0,0,0,.263-1.309c.032-.223.057-.448.076-.675s.032-.463.048-.691a12.73,12.73,0,0,0,0-1.414,17.949,17.949,0,0,0-.35-2.913,25.818,25.818,0,0,0-1.46-5.142l-.215.492c-.14.311-.342.754-.593,1.286-.471,1.045-1.134,2.466-1.833,3.754a5.5,5.5,0,0,0-.446,1.072,6.5,6.5,0,0,0-.222,1.22,8.449,8.449,0,0,0-.019,1.333A11.084,11.084,0,0,0,697.871,1101.035Z" transform="translate(-685.941 -1037.005)" fill="#f5c04b"/>
            <path id="パス_24176" data-name="パス 24176" d="M748.171,947.3c.134-.415.23-.84.328-1.279a11.8,11.8,0,0,0,.234-1.353l.035-.346c.016-.119.029-.236.041-.354.025-.236.041-.475.051-.716a25.713,25.713,0,0,0-.151-5.2l-.307.382-.358.433c-.07.082-.144.169-.222.264s-.154.189-.236.29c-.331.4-.725.871-1.159,1.356-.214.237-.433.483-.657.735s-.455.487-.69.719a4.54,4.54,0,0,0-.65.82,5.688,5.688,0,0,0-.48,1.026,8.643,8.643,0,0,0-.33,1.194,10.183,10.183,0,0,0-.129,1.306c-.009.225-.012.454-.007.682a6.767,6.767,0,0,0,.054.686,12.561,12.561,0,0,0,.237,1.37,9.81,9.81,0,0,0,.44,1.305c.086.209.179.415.278.614s.219.387.337.572l.063.094.054-.026a4.724,4.724,0,0,0,1.6-1.342,8.367,8.367,0,0,0,1.186-2.037C747.879,948.118,748.045,947.713,748.171,947.3Z" transform="translate(-734.926 -894.164)" fill="#f5c04b"/>
            <path id="パス_24177" data-name="パス 24177" d="M731,787.541a4.522,4.522,0,0,0-.265.506,8.947,8.947,0,0,0-.449,6.264l.033.1.055-.005a5.083,5.083,0,0,0,3.287-2.084,12.954,12.954,0,0,0,2.226-4.372,23.463,23.463,0,0,0,1.048-4.761s-.134.091-.368.246-.552.375-.951.63l-.641.407c-.221.145-.458.293-.7.443s-.5.3-.763.447-.516.292-.781.424a3.676,3.676,0,0,0-.763.527,4.491,4.491,0,0,0-.667.764C731.2,787.226,731.1,787.38,731,787.541Z" transform="translate(-722.09 -749.066)" fill="#f5c04b"/>
            <path id="パス_24178" data-name="パス 24178" d="M676.248,646.678l.049.014a3.443,3.443,0,0,0,1.717.017,4.748,4.748,0,0,0,.861-.293c.141-.065.281-.136.42-.213s.284-.159.423-.248a6.84,6.84,0,0,0,.814-.609,8.642,8.642,0,0,0,.784-.738c.243-.271.5-.552.734-.86.119-.152.227-.314.344-.475s.228-.328.336-.5a19.423,19.423,0,0,0,2.038-3.971s-.14.04-.384.106-.583.164-1,.267-.887.225-1.4.335c-.254.056-.52.1-.785.154s-.528.094-.794.126a3.012,3.012,0,0,0-.8.222,3.8,3.8,0,0,0-.77.462,4.771,4.771,0,0,0-.724.675,7.523,7.523,0,0,0-.641.86,8.491,8.491,0,0,0-1.23,4.562Z" transform="translate(-666.538 -613.775)" fill="#f5c04b"/>
            <path id="パス_24179" data-name="パス 24179" d="M589.257,512.825l-.023.094.041.03a3.323,3.323,0,0,0,1.513.6,4.783,4.783,0,0,0,1.691-.1,6.807,6.807,0,0,0,1.733-.677,6.9,6.9,0,0,0,.859-.529,10.2,10.2,0,0,0,.836-.654,15.326,15.326,0,0,0,2.734-2.918l-.366-.021c-.231-.014-.56-.037-.954-.073s-.842-.079-1.323-.143c-.24-.031-.486-.068-.734-.112s-.493-.087-.735-.143a2.849,2.849,0,0,0-1.557.1,4.655,4.655,0,0,0-.8.361,5.589,5.589,0,0,0-.762.558A6.985,6.985,0,0,0,589.257,512.825Z" transform="translate(-574.927 -491.322)" fill="#f5c04b"/>
            <path id="パス_24180" data-name="パス 24180" d="M478.479,394.933a5.627,5.627,0,0,0-2.736,2.48l-.041.075.028.04a3.872,3.872,0,0,0,2.705,1.506,6.726,6.726,0,0,0,3.476-.532,11.863,11.863,0,0,0,3.1-1.723s-.47-.18-1.154-.5c-.344-.166-.731-.332-1.143-.545s-.843-.447-1.247-.695a2.782,2.782,0,0,0-1.4-.415A3.891,3.891,0,0,0,478.479,394.933Z" transform="translate(-454.139 -384.99)" fill="#f5c04b"/>
          </g>
          <g id="合体_35" data-name="合体 35" transform="translate(-14866 -19064)" fill="#533afc">
            <path d="M 15366 19327.5 C 15360.673828125 19327.5 15355.3505859375 19326.962890625 15350.1787109375 19325.904296875 C 15345.138671875 19324.873046875 15340.181640625 19323.333984375 15335.4443359375 19321.33203125 C 15330.79296875 19319.36328125 15326.306640625 19316.927734375 15322.1103515625 19314.09375 C 15317.9541015625 19311.28515625 15314.044921875 19308.060546875 15310.4921875 19304.5078125 C 15306.9404296875 19300.955078125 15303.7158203125 19297.046875 15300.9072265625 19292.888671875 C 15298.072265625 19288.693359375 15295.6376953125 19284.20703125 15293.669921875 19279.556640625 C 15291.6669921875 19274.818359375 15290.1279296875 19269.861328125 15289.0966796875 19264.822265625 C 15288.0380859375 19259.650390625 15287.501953125 19254.328125 15287.501953125 19249.001953125 C 15287.501953125 19243.67578125 15288.0380859375 19238.3515625 15289.0966796875 19233.1796875 C 15290.1279296875 19228.140625 15291.6669921875 19223.181640625 15293.669921875 19218.4453125 C 15295.6376953125 19213.79296875 15298.072265625 19209.306640625 15300.9072265625 19205.109375 C 15303.7158203125 19200.953125 15306.9404296875 19197.04296875 15310.4921875 19193.4921875 C 15314.044921875 19189.939453125 15317.9541015625 19186.712890625 15322.1103515625 19183.904296875 C 15326.306640625 19181.0703125 15330.79296875 19178.634765625 15335.4443359375 19176.66796875 C 15340.181640625 19174.6640625 15345.138671875 19173.125 15350.1787109375 19172.09375 C 15355.3505859375 19171.03515625 15360.673828125 19170.498046875 15366 19170.498046875 C 15371.326171875 19170.498046875 15376.6494140625 19171.03515625 15381.8212890625 19172.09375 C 15386.861328125 19173.125 15391.818359375 19174.6640625 15396.5556640625 19176.66796875 C 15401.20703125 19178.634765625 15405.693359375 19181.0703125 15409.8896484375 19183.904296875 C 15414.046875 19186.712890625 15417.9560546875 19189.939453125 15421.5078125 19193.4921875 C 15425.060546875 19197.04296875 15428.28515625 19200.953125 15431.09375 19205.109375 C 15433.9287109375 19209.306640625 15436.36328125 19213.79296875 15438.3310546875 19218.4453125 C 15440.333984375 19223.181640625 15441.873046875 19228.140625 15442.904296875 19233.1796875 C 15443.962890625 19238.3515625 15444.4990234375 19243.67578125 15444.4990234375 19249.001953125 C 15444.4990234375 19255.044921875 15443.8095703125 19261.064453125 15442.4501953125 19266.89453125 C 15441.12890625 19272.5625 15439.1650390625 19278.09375 15436.61328125 19283.33203125 L 15436.494140625 19283.576171875 L 15436.6337890625 19283.80859375 L 15452.9775390625 19311.068359375 L 15422.32421875 19304.021484375 L 15422.0517578125 19303.958984375 L 15421.8564453125 19304.15625 C 15418.2978515625 19307.759765625 15414.375 19311.033203125 15410.1982421875 19313.884765625 C 15405.9814453125 19316.76171875 15401.46875 19319.234375 15396.787109375 19321.232421875 C 15392.0185546875 19323.267578125 15387.025390625 19324.83203125 15381.947265625 19325.87890625 C 15376.7353515625 19326.955078125 15371.3701171875 19327.5 15366 19327.5 Z" stroke="none"/>
            <path d="M 15366 19327 C 15371.3359375 19327 15376.66796875 19326.458984375 15381.845703125 19325.388671875 C 15386.8916015625 19324.34765625 15391.8525390625 19322.794921875 15396.5908203125 19320.7734375 C 15401.2431640625 19318.787109375 15405.7265625 19316.330078125 15409.916015625 19313.470703125 C 15414.06640625 19310.638671875 15417.9638671875 19307.38671875 15421.5 19303.8046875 L 15421.892578125 19303.408203125 L 15422.435546875 19303.533203125 L 15451.9443359375 19310.31640625 L 15435.92578125 19283.599609375 L 15436.1630859375 19283.11328125 C 15438.69921875 19277.908203125 15440.650390625 19272.412109375 15441.9638671875 19266.78125 C 15443.314453125 19260.98828125 15443.9990234375 19255.0078125 15443.9990234375 19249.001953125 C 15443.9990234375 19243.708984375 15443.4658203125 19238.419921875 15442.4140625 19233.28125 C 15441.3896484375 19228.271484375 15439.861328125 19223.345703125 15437.8701171875 19218.638671875 C 15435.9150390625 19214.017578125 15433.49609375 19209.560546875 15430.6787109375 19205.390625 C 15427.888671875 19201.259765625 15424.6845703125 19197.375 15421.154296875 19193.845703125 C 15417.6240234375 19190.314453125 15413.740234375 19187.109375 15409.6103515625 19184.318359375 C 15405.4404296875 19181.501953125 15400.982421875 19179.08203125 15396.361328125 19177.126953125 C 15391.654296875 19175.13671875 15386.728515625 19173.607421875 15381.720703125 19172.58203125 C 15376.58203125 19171.53125 15371.29296875 19170.998046875 15366 19170.998046875 C 15360.70703125 19170.998046875 15355.41796875 19171.53125 15350.279296875 19172.58203125 C 15345.271484375 19173.607421875 15340.345703125 19175.13671875 15335.638671875 19177.126953125 C 15331.017578125 19179.08203125 15326.5595703125 19181.501953125 15322.390625 19184.318359375 C 15318.259765625 19187.109375 15314.3759765625 19190.314453125 15310.845703125 19193.845703125 C 15307.31640625 19197.375 15304.1123046875 19201.259765625 15301.3212890625 19205.390625 C 15298.5048828125 19209.560546875 15296.0849609375 19214.017578125 15294.130859375 19218.638671875 C 15292.1396484375 19223.345703125 15290.611328125 19228.271484375 15289.5869140625 19233.28125 C 15288.53515625 19238.419921875 15288.001953125 19243.708984375 15288.001953125 19249.001953125 C 15288.001953125 19254.294921875 15288.53515625 19259.583984375 15289.5869140625 19264.720703125 C 15290.611328125 19269.728515625 15292.1396484375 19274.654296875 15294.130859375 19279.361328125 C 15296.0849609375 19283.982421875 15298.5048828125 19288.439453125 15301.3212890625 19292.609375 C 15304.1123046875 19296.740234375 15307.31640625 19300.625 15310.845703125 19304.154296875 C 15314.3759765625 19307.68359375 15318.259765625 19310.888671875 15322.390625 19313.6796875 C 15326.5595703125 19316.49609375 15331.017578125 19318.916015625 15335.638671875 19320.87109375 C 15340.345703125 19322.861328125 15345.271484375 19324.390625 15350.279296875 19325.416015625 C 15355.41796875 19326.466796875 15360.70703125 19327 15366 19327 M 15366 19328 C 15322.3681640625 19328 15287.001953125 19292.62890625 15287.001953125 19249.001953125 C 15287.001953125 19205.369140625 15322.3681640625 19169.998046875 15366 19169.998046875 C 15409.6318359375 19169.998046875 15444.9990234375 19205.369140625 15444.9990234375 19249.001953125 C 15444.9990234375 19261.392578125 15442.146484375 19273.11328125 15437.0625 19283.55078125 L 15454.0107421875 19311.818359375 L 15422.2119140625 19304.5078125 C 15407.8896484375 19319.01171875 15387.9951171875 19328 15366 19328 Z" stroke="none" fill="#707070"/>
          </g>
          <path id="パス_24181" data-name="パス 24181" d="M23.85-14.355A32.253,32.253,0,0,1,27.5-12.1h-4.41c.09.99.135,1.53.18,2.745l-3.69-1.755a37.692,37.692,0,0,1-.855,3.96c-.18-1.575-.405-3.105-.855-5.535l-3.69.72a50.754,50.754,0,0,1,.81,8.6l2.16-.45a15.939,15.939,0,0,1-1.71,2.655l5,3.825a33.982,33.982,0,0,0,2.835-7.74V.045c0,1.485.225,2.25.855,2.7.855.63,2.475.9,5.265.9,6.615,0,7.56-.81,8.145-6.66a28.4,28.4,0,0,1,1.035,4.68l6.03-3.15A56.437,56.437,0,0,0,40.05-13.05l-5.535,2.565a34.272,34.272,0,0,1,2.385,5.4,25.081,25.081,0,0,1-4.815-1.71c-.045,2.025-.045,3.06-.045,3.1-.09.72-.225,1.08-.5,1.215a4.617,4.617,0,0,1-1.215.18c-.81,0-.945-.135-.945-.81v-7.38A20.292,20.292,0,0,1,31.23-8.55l4.185-4.365a36.069,36.069,0,0,0-4.815-3.51c3.285-.36,3.825-.45,5.8-.765.54,1.215.675,1.485,1.4,3.015l5.58-3.555a66.651,66.651,0,0,0-7.155-10.755L31.23-25.92c1.17,1.665,1.53,2.2,2.34,3.465-1.8.18-3.42.27-5.49.4a82.16,82.16,0,0,0,4.32-8.055L26.775-31.68c2.16-2.655,2.16-2.655,2.88-3.6L23.76-38.43a22.981,22.981,0,0,1-5.94,6.66l-4-2.025a49.766,49.766,0,0,1-4.1,7.38,12.284,12.284,0,0,0-.945-1.35,63.076,63.076,0,0,0,4.23-7.515,8.015,8.015,0,0,1,.72-1.305L7.92-38.88a25.5,25.5,0,0,1-2.655,6.525L4.185-33.66l-2.97,5.49a54.431,54.431,0,0,1,4.95,6.93c-.63.855-.63.9-1.125,1.53H4.41l-.4.045a18.933,18.933,0,0,1-2.565-.18L1.98-13.5c.9-.135,2.52-.27,5.76-.45V-.765a35.208,35.208,0,0,1-.27,4.95h6.345a27.265,27.265,0,0,1-.27-4.995V-14.4a5,5,0,0,0,1.035-.09c.27,0,.27,0,.945-.045l.225,1.665,4.1-1.215a47.927,47.927,0,0,0-3.015-9.99L13.68-22.95c1.62-2.25,2.655-3.69,3.42-4.95a18.135,18.135,0,0,1,2.3,3.33,34.374,34.374,0,0,0,6.165-5.625,49.9,49.9,0,0,1-4.23,8.28c-.315,0-.585.045-.765.045H19.98a5.152,5.152,0,0,1-.675-.045l.99,6.57a16.753,16.753,0,0,1,3.51-.405c.45-.045,1.08-.09,1.98-.18Zm-10.485-8.19a26.544,26.544,0,0,1,.9,2.52c-1.35.135-1.62.135-3.015.225C12.24-21.06,12.645-21.6,13.365-22.545ZM2.7-12.645A50.23,50.23,0,0,1,1.215-.315L5.58,1.98A74.208,74.208,0,0,0,6.975-12.06Zm27.36-22.59c.5.54.765.81,1.17,1.305a30.349,30.349,0,0,0,4.95,5.13,27.851,27.851,0,0,0,5.04,3.555,26.677,26.677,0,0,1,3.33-6.21,21.8,21.8,0,0,1-9.135-7.065Zm28.665,15.8a41.581,41.581,0,0,1,4.185-.18H79.29a37.752,37.752,0,0,1,4.32.18v-2.475a47.994,47.994,0,0,0,6.075,2.925,25.235,25.235,0,0,1,3.15-7.065A37.406,37.406,0,0,1,82.26-31.05a25.72,25.72,0,0,1-7.695-7.065H67.23a26.79,26.79,0,0,1-7.47,7.245,35.719,35.719,0,0,1-10.44,5.13,24.077,24.077,0,0,1,3.375,6.615A43.762,43.762,0,0,0,58.725-22Zm5.94-6.39a31.94,31.94,0,0,0,6.345-6.21,34.954,34.954,0,0,0,6.615,6.21Zm-2.61,29.7V2.025H80.1V3.87h7.245a30.038,30.038,0,0,1-.27-5v-11.16a33.97,33.97,0,0,1,.225-4.77c-1.08.09-2.385.135-4.365.135H59.175c-1.98,0-3.285-.045-4.32-.135a44.506,44.506,0,0,1,.225,4.77V-1.17a38.04,38.04,0,0,1-.27,5.04Zm0-14.535H80.1V-4.23H62.055ZM18.09,12.515a20.274,20.274,0,0,1,.225,3.51c0,8.325-1.44,15.03-4.275,20.025C11.295,40.91,7.56,44.24.9,47.57a21.392,21.392,0,0,1,4.59,6.615,39.812,39.812,0,0,0,9.675-7.47c3.51-3.645,5.445-7.065,7.38-12.96A33.348,33.348,0,0,0,28.62,44.96,40.211,40.211,0,0,0,39.6,54.23a26.158,26.158,0,0,1,4.59-7.11,30.15,30.15,0,0,1-7.875-5.13,29.651,29.651,0,0,1-8.46-12.555A44.957,44.957,0,0,1,26.01,16.16a18.158,18.158,0,0,1,.27-3.645Zm53.46,22.14h7.065c.045,6.57.765,10.665,2.34,14.31,1.44,3.195,3.735,5.22,6.03,5.22a4.325,4.325,0,0,0,3.78-2.205c.945-1.62,1.53-4.05,1.98-8.595a17.107,17.107,0,0,1-4.815-3.24v.81a12.164,12.164,0,0,1-.675,4.9c-1.35-1.935-1.98-6.12-1.98-12.825A34.694,34.694,0,0,1,85.5,28.58c-1.4.09-2.295.135-5.4.135H55.845a22.705,22.705,0,0,1-3.51-.18V34.88A56.506,56.506,0,0,1,58,34.655h.945L54.36,38.84a78.4,78.4,0,0,1,6.84,4.5c-3.15,2.2-5.4,3.33-10.89,5.355a22.33,22.33,0,0,1,4.5,5.9,49.256,49.256,0,0,0,11.88-6.975c3.06,2.52,4.77,4.095,7.065,6.345l4.725-5.265c-2.7-2.34-3.69-3.195-6.93-5.67a38.839,38.839,0,0,0,3.33-4.185c.99-1.35,1.17-1.575,1.53-2.025Zm-2.2,0a21.97,21.97,0,0,1-3.24,4.41c-2.34-1.62-3.78-2.52-7.02-4.41Zm-10.62-7.2a40.711,40.711,0,0,1,4.365-.18H81.72c2.34,0,3.69.045,5.13.18V21.83a46.369,46.369,0,0,1-5.13.18H60.345c.45-.675.585-.855.945-1.4H84.42c2.25,0,3.915.09,5.535.225V14.18a44.646,44.646,0,0,1-5.535.27H64.845c.675-1.4,1.08-2.205,1.17-2.385L58.59,11.21a10.917,10.917,0,0,1-1.125,2.97,29.681,29.681,0,0,1-7.83,9.36,22.651,22.651,0,0,1,4.95,4.995,41.565,41.565,0,0,0,4.14-4.455Z" transform="translate(451.92 184.113) rotate(-8)" fill="#fff"/>
        </g>
      </g>
    </g>
    <g id="グループ_1123" data-name="グループ 1123" transform="translate(5067.585 1160.98)">
      <path id="パス_24163-2" data-name="パス 24163" d="M303.859,1634.241q.371.016.737.058c.244.03.487.072.723.1a8.5,8.5,0,0,1,1.387.312c.112.035.222.073.333.112s.215.072.321.112q.32.118.624.264a6.322,6.322,0,0,1,1.132.7,12.931,12.931,0,0,0,2.25,1.352,11.562,11.562,0,0,0,1.173.482c.385.14.762.26,1.119.365.177.052.352.1.518.145l.474.1c.3.063.57.112.794.148.449.073.72.1.72.1a15.028,15.028,0,0,1-1.649,1.143c-.453.251-.929.5-1.42.729-.07.031-.14.065-.211.1l-.286.127-.012.005c-.675.262-1.371.513-2.079.717-.718.181-1.441.353-2.159.469a14.608,14.608,0,0,1-2.2.157,13.694,13.694,0,0,1-2.04-.218,12.085,12.085,0,0,1-1.817-.558,6.06,6.06,0,0,1-.811-.387c-.259-.141-.506-.293-.74-.45s-.455-.324-.664-.5c-.1-.087-.2-.175-.3-.264s-.192-.192-.283-.29a7.113,7.113,0,0,1-.929-1.236,6.186,6.186,0,0,1-.853-2.784l-.006-.087.126-.054A14.681,14.681,0,0,1,303.859,1634.241Z" transform="translate(-297.698 -1546.462)" fill="#f5c04b"/>
      <path id="パス_24164-2" data-name="パス 24164" d="M485.447,1563.641a6.78,6.78,0,0,1-2.983-.708,5.847,5.847,0,0,1-.6-.349,5.375,5.375,0,0,1-.541-.427,5.249,5.249,0,0,1-1.465-2.22l-.028-.077.1-.091a14.827,14.827,0,0,1,2.519-1.794,10.545,10.545,0,0,1,1.336-.684,13.119,13.119,0,0,1,1.353-.539c.459-.138.906-.279,1.355-.377.224-.047.448-.087.67-.117.112-.016.224-.028.334-.038s.217-.028.326-.037a6.607,6.607,0,0,1,1.272,0,5.828,5.828,0,0,1,.611.1,4.537,4.537,0,0,1,.576.145,10.2,10.2,0,0,0,1.159.3c.2.038.4.073.6.1s.4.054.6.066a16.418,16.418,0,0,0,2.269.007c.682-.063,1.276-.157,1.7-.236s.675-.138.675-.138a18.726,18.726,0,0,1-1.22,1.567c-.222.269-.471.51-.721.759s-.512.494-.779.738c-.134.119-.266.244-.407.358l-.426.339c-.286.223-.577.443-.871.656-.148.106-.294.217-.445.316l-.458.29q-.46.285-.92.553a11.925,11.925,0,0,1-3.823,1.405,7.072,7.072,0,0,1-.9.119C486.02,1563.643,485.729,1563.648,485.447,1563.641Z" transform="translate(-468.351 -1473.31)" fill="#f5c04b"/>
      <path id="パス_24165-2" data-name="パス 24165" d="M644.993,1386.875c-.128.052-.259.1-.387.14a8.138,8.138,0,0,1-1.484.356,4.49,4.49,0,0,1-4.435-1.791l-.044-.061.071-.115a16.2,16.2,0,0,1,3.987-4.5,10.445,10.445,0,0,1,1.132-.8c.192-.119.391-.223.581-.328s.382-.206.574-.293a6.578,6.578,0,0,1,1.159-.412,5.145,5.145,0,0,1,1.122-.176,9.939,9.939,0,0,0,1.119-.1c.189-.028.379-.063.568-.1s.368-.089.551-.138a15.935,15.935,0,0,0,2.057-.722c.6-.276,1.121-.548,1.487-.754s.581-.339.581-.339c-.208.583-.461,1.188-.752,1.8-.073.154-.145.311-.225.462s-.167.3-.253.454c-.172.3-.35.609-.538.913a19.592,19.592,0,0,1-1.227,1.771c-.22.284-.432.576-.669.843s-.469.534-.705.792-.5.534-.753.773-.522.461-.782.672-.521.408-.779.593-.532.337-.794.487-.525.283-.782.4C645.247,1386.763,645.119,1386.821,644.993,1386.875Z" transform="translate(-617.156 -1305.199)" fill="#f5c04b"/>
      <path id="パス_24166-2" data-name="パス 24166" d="M770.372,1171.905c-.1.084-.206.162-.308.239s-.212.145-.317.213q-.316.2-.628.361a6.037,6.037,0,0,1-1.218.48,4.442,4.442,0,0,1-1.172.127,3.51,3.51,0,0,1-2.022-.705l-.052-.04.035-.129a19.241,19.241,0,0,1,1.063-2.875c.228-.445.439-.9.688-1.321s.516-.824.775-1.22a11.125,11.125,0,0,1,.846-1.094,10.585,10.585,0,0,1,.893-.948,7.949,7.949,0,0,1,.952-.754,4.86,4.86,0,0,1,.973-.531,12.948,12.948,0,0,0,3.637-2.358c.481-.442.887-.855,1.17-1.157s.448-.49.448-.49a22.382,22.382,0,0,1-2.326,7.746,14.683,14.683,0,0,1-2.2,3.3A12.659,12.659,0,0,1,770.372,1171.905Z" transform="translate(-735.225 -1101.848)" fill="#f5c04b"/>
      <path id="パス_24167-2" data-name="パス 24167" d="M850.945,942.785a7.846,7.846,0,0,1-.92,1.154,5.487,5.487,0,0,1-1.99,1.36,3.2,3.2,0,0,1-1.993.061l-.055-.017v-.127c0-.248.015-.492.026-.738s.023-.5.044-.744c.041-.492.118-.977.2-1.457a13.268,13.268,0,0,1,.3-1.422c.058-.232.135-.459.2-.688s.132-.45.208-.67a12.781,12.781,0,0,1,.509-1.267,10.317,10.317,0,0,1,.579-1.15,8.75,8.75,0,0,1,.685-.991,5.275,5.275,0,0,1,.75-.8c.266-.225.528-.473.784-.736a10.436,10.436,0,0,0,.731-.829A20.619,20.619,0,0,0,852.225,932l.25-.4c.076-.131.145-.257.212-.374.134-.237.247-.452.342-.63.186-.359.291-.579.291-.579a22.209,22.209,0,0,1-.334,7.648c-.071.342-.15.677-.233,1-.042.162-.084.325-.129.483s-.1.312-.153.466a17.761,17.761,0,0,1-.69,1.717A11.489,11.489,0,0,1,850.945,942.785Z" transform="translate(-811.431 -886.639)" fill="#f5c04b"/>
      <path id="パス_24168-2" data-name="パス 24168" d="M870.843,716.852a12.364,12.364,0,0,1-.4,1.56,10.414,10.414,0,0,1-.561,1.33c-.843,1.614-1.986,2.524-3.221,2.614l-.054,0-.029-.114a16.509,16.509,0,0,1-.459-5.442,12.139,12.139,0,0,1,.154-1.3c.039-.213.078-.421.119-.623s.092-.4.144-.6a9.77,9.77,0,0,1,.385-1.112,5.677,5.677,0,0,1,.5-.956c.188-.288.369-.6.539-.915s.318-.646.464-.977.278-.665.4-.991.221-.642.315-.944c.183-.6.33-1.136.414-1.517s.126-.609.126-.609c.1.229.2.468.292.719s.173.513.254.784.16.548.234.832.131.581.19.88.116.6.167.908.086.62.124.93.07.627.1.939.039.63.055.941c.014.328.022.651.02.969s-.022.632-.042.937A13.094,13.094,0,0,1,870.843,716.852Z" transform="translate(-830.241 -676.983)" fill="#f5c04b"/>
      <path id="パス_24169-2" data-name="パス 24169" d="M821.743,518.835c-.045.215-.1.419-.154.616s-.128.389-.2.571a5.424,5.424,0,0,1-.5.977,3.406,3.406,0,0,1-1.384,1.251l-.047.021-.054-.091a14.023,14.023,0,0,1-1.691-4.684,11.234,11.234,0,0,1-.163-1.211c-.028-.4-.055-.789-.047-1.174a9.156,9.156,0,0,1,.089-1.115,6.027,6.027,0,0,1,.228-1.017c.1-.318.193-.649.275-.988s.14-.679.195-1.021a17.955,17.955,0,0,0,.209-1.951c.032-.592.039-1.11.038-1.48s-.019-.581-.019-.581a17.5,17.5,0,0,1,2.8,5.676c.087.284.167.569.238.848s.125.566.177.843a13.046,13.046,0,0,1,.2,1.627,13.189,13.189,0,0,1,0,1.515A10.887,10.887,0,0,1,821.743,518.835Z" transform="translate(-784.737 -490.239)" fill="#f5c04b"/>
      <path id="パス_24170-2" data-name="パス 24170" d="M706.036,361.371l-.036.035-.07-.061a11.458,11.458,0,0,1-2.586-3.576,10.107,10.107,0,0,1-.417-1.023,8.667,8.667,0,0,1-.31-1.026,6.96,6.96,0,0,1-.2-1.993c.02-.314.029-.641.025-.965s-.026-.646-.052-.967a17.313,17.313,0,0,0-.238-1.8c-.1-.536-.208-.995-.288-1.321-.041-.164-.074-.293-.1-.379s-.036-.122-.038-.133a14.22,14.22,0,0,1,3.714,4.108,12.585,12.585,0,0,1,.746,1.351,14.129,14.129,0,0,1,.545,1.363,9.931,9.931,0,0,1,.49,2.607,6.249,6.249,0,0,1-.257,2.2A3.789,3.789,0,0,1,706.036,361.371Z" transform="translate(-676.266 -341.455)" fill="#f5c04b"/>
      <path id="パス_24171-2" data-name="パス 24171" d="M545.766,251.961l-.074-.031a8.691,8.691,0,0,1-3.1-2.286,8.6,8.6,0,0,1-1.1-1.572,5.818,5.818,0,0,1-.619-1.693,11.169,11.169,0,0,0-.451-1.695,14.922,14.922,0,0,0-.6-1.51c-.411-.88-.772-1.485-.772-1.485a11.505,11.505,0,0,1,4.163,2.424,9.183,9.183,0,0,1,2.759,4.087,4.831,4.831,0,0,1-.176,3.717Z" transform="translate(-523.832 -241.688)" fill="#f5c04b"/>
      <path id="パス_24172-2" data-name="パス 24172" d="M298.391,1426.21a9.859,9.859,0,0,1,.666-1.286c.063-.1.126-.2.193-.3s.132-.209.2-.311q.2-.307.43-.6c.148-.194.3-.38.464-.562s.324-.353.493-.539a10.3,10.3,0,0,1,1.066-1,9.894,9.894,0,0,1,1.159-.9,10.754,10.754,0,0,1,1.249-.78,20.947,20.947,0,0,1,4.789-2.135s-.071.218-.193.6c-.06.192-.132.426-.215.695-.041.135-.084.279-.131.431l-.151.462c-.1.325-.215.679-.333,1.052s-.236.785-.366,1.18c-.254.8-.512,1.679-.737,2.552a6.151,6.151,0,0,1-.49,1.257,6.75,6.75,0,0,1-.349.6c-.064.1-.129.194-.2.288s-.143.178-.217.265a7.927,7.927,0,0,1-1.012.977,4.485,4.485,0,0,1-.584.408q-.305.189-.628.351a6.912,6.912,0,0,1-5.68.26l-.118-.047,0-.085A8.452,8.452,0,0,1,298.391,1426.21Z" transform="translate(-297.698 -1343.679)" fill="#f5c04b"/>
      <path id="パス_24173-2" data-name="パス 24173" d="M471.183,1338.793l-.044.609c-.026.389-.057.948-.089,1.625-.042.658-.09,1.431-.122,2.267-.007.211-.017.421-.028.628s-.017.422-.026.637c-.015.429-.022.866-.02,1.3a5.448,5.448,0,0,1-.141,1.316,7.651,7.651,0,0,1-.422,1.305c-.045.107-.093.216-.144.321s-.108.206-.164.307c-.116.2-.24.4-.374.6a6.994,6.994,0,0,1-.91,1.119,8.551,8.551,0,0,1-1.1.948,9.825,9.825,0,0,1-1.247.717,6.4,6.4,0,0,1-2.718.578l-.119,0-.016-.08a8.126,8.126,0,0,1-.079-2.784c.032-.234.073-.464.121-.7s.1-.475.16-.709a11.927,11.927,0,0,1,.452-1.381,16,16,0,0,1,3.121-5.011A22.07,22.07,0,0,1,471.183,1338.793Z" transform="translate(-452.898 -1269.65)" fill="#f5c04b"/>
      <path id="パス_24174-2" data-name="パス 24174" d="M600.4,1235.592c.058-.239.122-.478.195-.712s.153-.466.234-.7.161-.475.253-.709.19-.461.3-.686.2-.466.317-.693a24.153,24.153,0,0,1,2.765-4.623s.035.209.095.572.157.883.279,1.511.235,1.335.394,2.108c.077.379.159.773.24,1.173s.174.792.273,1.187a5.834,5.834,0,0,1,.177,1.248,7.9,7.9,0,0,1-.089,1.318q-.052.338-.131.681a6.965,6.965,0,0,1-.2.668,10.381,10.381,0,0,1-.558,1.325,7.984,7.984,0,0,1-4.052,3.765l-.108.038-.035-.066a9.26,9.26,0,0,1-.738-5.266,12.805,12.805,0,0,1,.228-1.426C600.294,1236.066,600.349,1235.827,600.4,1235.592Z" transform="translate(-580.878 -1165.342)" fill="#f5c04b"/>
      <path id="パス_24175-2" data-name="パス 24175" d="M702.6,1101.035a8.756,8.756,0,0,1-2.759,4.773l-.087.073-.047-.047a6.039,6.039,0,0,1-1.262-1.988,9.02,9.02,0,0,1-.39-1.2,11.231,11.231,0,0,1-.263-1.309c-.032-.223-.057-.448-.076-.675s-.032-.463-.048-.691a12.73,12.73,0,0,1,0-1.414,17.949,17.949,0,0,1,.35-2.913,25.818,25.818,0,0,1,1.46-5.142l.215.492c.14.311.342.754.593,1.286.471,1.045,1.134,2.466,1.833,3.754a5.5,5.5,0,0,1,.446,1.072,6.5,6.5,0,0,1,.222,1.22,8.449,8.449,0,0,1,.019,1.333A11.084,11.084,0,0,1,702.6,1101.035Z" transform="translate(-672.44 -1037.005)" fill="#f5c04b"/>
      <path id="パス_24176-2" data-name="パス 24176" d="M744.23,947.3c-.134-.415-.23-.84-.328-1.279a11.8,11.8,0,0,1-.234-1.353l-.035-.346c-.016-.119-.029-.236-.041-.354-.025-.236-.041-.475-.051-.716a25.713,25.713,0,0,1,.151-5.2l.307.382.358.433c.07.082.144.169.222.264s.154.189.236.29c.331.4.725.871,1.159,1.356.214.237.433.483.657.735s.455.487.691.719a4.54,4.54,0,0,1,.65.82,5.688,5.688,0,0,1,.48,1.026,8.643,8.643,0,0,1,.33,1.194,10.183,10.183,0,0,1,.129,1.306c.009.225.012.454.007.682a6.767,6.767,0,0,1-.054.686,12.561,12.561,0,0,1-.237,1.37,9.81,9.81,0,0,1-.44,1.305c-.086.209-.179.415-.278.614s-.219.387-.337.572l-.062.094-.054-.026a4.723,4.723,0,0,1-1.6-1.342,8.367,8.367,0,0,1-1.186-2.037C744.522,948.118,744.356,947.713,744.23,947.3Z" transform="translate(-715.388 -894.164)" fill="#f5c04b"/>
      <path id="パス_24177-2" data-name="パス 24177" d="M735.875,787.541a4.522,4.522,0,0,1,.265.506,8.947,8.947,0,0,1,.449,6.264l-.033.1-.055-.005a5.083,5.083,0,0,1-3.287-2.084,12.954,12.954,0,0,1-2.226-4.372,23.463,23.463,0,0,1-1.048-4.761s.134.091.368.246.552.375.951.63l.641.407c.221.145.458.293.7.443s.5.3.763.447.516.292.781.424a3.676,3.676,0,0,1,.763.527,4.491,4.491,0,0,1,.667.764C735.68,787.226,735.779,787.38,735.875,787.541Z" transform="translate(-702.698 -749.066)" fill="#f5c04b"/>
      <path id="パス_24178-2" data-name="パス 24178" d="M684.761,646.678l-.049.014a3.443,3.443,0,0,1-1.717.017,4.748,4.748,0,0,1-.861-.293c-.141-.065-.281-.136-.42-.213s-.284-.159-.423-.248a6.84,6.84,0,0,1-.814-.609,8.642,8.642,0,0,1-.784-.738c-.243-.271-.5-.552-.734-.86-.119-.152-.227-.314-.344-.475s-.228-.328-.336-.5a19.423,19.423,0,0,1-2.038-3.971s.14.04.384.106.583.164,1,.267.887.225,1.4.335c.254.056.52.1.785.154s.528.094.794.126a3.012,3.012,0,0,1,.8.222,3.8,3.8,0,0,1,.77.462,4.771,4.771,0,0,1,.724.675,7.523,7.523,0,0,1,.641.86,8.491,8.491,0,0,1,1.23,4.562Z" transform="translate(-652.384 -613.775)" fill="#f5c04b"/>
      <path id="パス_24179-2" data-name="パス 24179" d="M598.618,512.825l.023.094-.041.03a3.323,3.323,0,0,1-1.513.6,4.783,4.783,0,0,1-1.691-.1,6.807,6.807,0,0,1-1.733-.677,6.9,6.9,0,0,1-.859-.529,10.2,10.2,0,0,1-.836-.654,15.326,15.326,0,0,1-2.734-2.918l.366-.021c.231-.014.56-.037.954-.073s.842-.079,1.323-.143c.24-.031.486-.068.734-.112s.493-.087.735-.143a2.849,2.849,0,0,1,1.557.1,4.655,4.655,0,0,1,.8.361,5.589,5.589,0,0,1,.762.558A6.985,6.985,0,0,1,598.618,512.825Z" transform="translate(-570.86 -491.322)" fill="#f5c04b"/>
      <path id="パス_24180-2" data-name="パス 24180" d="M482.231,394.933a5.627,5.627,0,0,1,2.736,2.48l.041.075-.028.04a3.872,3.872,0,0,1-2.705,1.506,6.726,6.726,0,0,1-3.476-.532,11.863,11.863,0,0,1-3.1-1.723s.47-.18,1.154-.5c.344-.166.731-.332,1.143-.545s.843-.447,1.247-.695a2.782,2.782,0,0,1,1.4-.415A3.891,3.891,0,0,1,482.231,394.933Z" transform="translate(-464.484 -384.99)" fill="#f5c04b"/>
    </g>
    <path id="パス_32900" data-name="パス 32900" d="M105.28-109.12H86.72a100.981,100.981,0,0,1-15.2-.8v16.64a134.756,134.756,0,0,1,15.2-.64h18.56V-88H92c-7.04,0-11.36-.16-16-.48a117.265,117.265,0,0,1,.64,14.72V-52.8A118.13,118.13,0,0,1,76-37.76c4.64-.16,8.16-.32,16-.32h13.28V-32H89.6a130.7,130.7,0,0,1-15.36-.64v16.32a150.2,150.2,0,0,1,15.2-.64h15.84v7.68c-9.44.32-21.28.64-24.96.64a90.274,90.274,0,0,1-10.08-.32l3.2,19.52c4.32-.48,7.2-.8,9.92-.96,28.16-1.92,28.96-1.92,66.88-5.6a61.6,61.6,0,0,1,9.28,10.72c6.56-8.96,8.96-12.96,12.8-21.12a53.883,53.883,0,0,1,3.2,17.6c2.4.16,7.52.16,13.28.16,12.32,0,18.24-3.2,20.8-11.52,3.84-11.52,5.6-32.48,6.24-73.44.48-23.84.48-24.32,1.12-30.72a130.7,130.7,0,0,1-15.36.64H188.16c0-9.44.16-16.16.16-17.12,0-7.2.32-10.24.96-13.76H167.52c.8,4.48.96,6.56.96,20.96v9.92h-1.92a53.416,53.416,0,0,1-10.08-.64v20.48A74.722,74.722,0,0,1,168-84.48c-1.76,36.32-5.76,54.56-16.32,72.48-19.52,1.6-19.52,1.6-28.32,2.08v-7.04h18.4c5.12,0,7.52.16,10.24.8V-32.48c-4.16.32-7.2.48-15.36.48H123.36v-6.08h14.56c7.84,0,11.36,0,14.24.32-.16-3.68-.16-3.68-.32-14.4V-74.4c0-8,0-10.72.48-13.92-3.68.32-5.6.32-13.12.32H123.36v-5.92H142.4c6.88,0,8.48.16,10.88.48v-16.32a114.954,114.954,0,0,1-15.04.64H123.36v-7.52c17.12-2.08,17.12-2.08,21.6-2.72a18.608,18.608,0,0,1,2.56-.48c3.36-.48,3.36-.48,4.32-.64a11.335,11.335,0,0,1,2.24-.16l-10.72-15.52c-10.08,4.48-37.92,7.52-71.04,7.68a70.988,70.988,0,0,1,6.4,14.56c11.2-.32,15.36-.48,26.56-1.28Zm0,33.92v6.08H94.08V-75.2Zm18.08,0h11.36v6.08H123.36ZM105.28-56.96v6.08H94.08v-6.08Zm18.08,0h11.36v6.08H123.36Zm73.76-27.52c-.96,42.08-1.28,48.48-3.04,60.96C192.48-10.08,191.04-8,184.48-8a88.1,88.1,0,0,1-10.88-.96c8.8-20.32,12.64-40.32,13.92-75.52ZM305.6-112v11.84H288.64a91.881,91.881,0,0,1-13.12-.64,87,87,0,0,1,.64,12.16v57.6a109.089,109.089,0,0,1-.48,12c1.92-.16,6.72-.48,8-.48h64c1.28,0,5.92.32,7.84.48a101.359,101.359,0,0,1-.48-12v-57.6a84.132,84.132,0,0,1,.64-12.16,90.792,90.792,0,0,1-12.96.64H325.44V-112h42.4c7.04,0,14.56.32,20.96.96v-20.64c-6.88.64-13.6.96-21.12.96H263.2a198.9,198.9,0,0,1-20.64-.96v20.64c6.88-.64,13.6-.96,20.96-.96Zm.64,29.6v13.28H294.08V-82.4Zm0,30.24V-36.8H294.08V-52.16ZM324.48-36.8V-52.16h12.96V-36.8Zm0-32.32V-82.4h12.96v13.28Zm39.04-29.44a95.887,95.887,0,0,1,.64,13.28V-11.2H267.04V-84.96c0-7.2.16-10.4.64-13.6h-21.6a181.186,181.186,0,0,1,.96,18.24V-8a193.159,193.159,0,0,1-1.12,22.24h21.6V7.36h96v6.88h21.6A208.842,208.842,0,0,1,384-8.32V-79.84c0-5.44.32-12.8.96-18.72ZM477.92-85.6v26.72H455.04a171.384,171.384,0,0,1-20.16-.8v20.8a191.374,191.374,0,0,1,20.48-.96h22.56v29.76H439.68A215.774,215.774,0,0,1,416-11.2V10.4a238.516,238.516,0,0,1,24.32-1.12H536a219.8,219.8,0,0,1,23.36,1.12V-11.2a207.272,207.272,0,0,1-23.84,1.12h-36V-39.84h25.92c7.84,0,14.4.32,20.96.96V-59.84a202.111,202.111,0,0,1-21.12.96H499.52V-85.6h31.52c8.16,0,14.72.32,22.56.96V-105.6c-6.88.64-14.72.96-23.2.96H499.52v-9.76c0-9.44.16-14.88.96-20.16H476.8a137.008,137.008,0,0,1,1.12,20.32v9.6H455.2c1.28-3.84,2.56-7.68,3.36-10.4,1.28-4,1.28-4.16,1.76-5.44,1.12-3.04,1.12-3.04,1.44-4.16l-21.44-5.28a78.357,78.357,0,0,1-3.2,14.88c-5.28,17.92-14.4,34.08-26.08,45.76,6.72,5.76,9.28,8.8,14.4,16.96A139.11,139.11,0,0,0,447.2-85.6Zm225.44-.32c-1.44,9.92-5.6,20.96-12.96,34.72-3.04-11.52-4.8-24.64-6.08-43.68h26.4a183.007,183.007,0,0,1,20.16.96v-20.64c-4.48.64-8.32.8-16.8.8h-4.16l9.12-6.08a109.918,109.918,0,0,0-15.68-15.52l-14.88,9.28c6.72,5.28,8.16,6.56,12.96,12.32H683.68c-.16-3.2-.16-7.36-.16-7.68a102.632,102.632,0,0,1,.96-13.12h-22.4c.64,3.52.64,3.52,1.12,20.8H617.28c-8.48,0-15.2-.32-21.12-.8.8,6.88.96,11.84.96,24,0,27.68-1.76,50.08-5.12,63.68-2.4,9.92-4.96,15.84-10.4,24,6.72,5.28,10.24,8.8,16.32,16.64,8-12,12.32-23.68,15.36-41.76,2.4,5.92,3.52,11.04,4.64,18.88,3.84.16,6.4.16,7.52.16A76.41,76.41,0,0,0,636-9.6c6.24-.64,8.96-1.6,11.84-4.32,4.48-4.48,6.4-12.64,7.36-31.36,1.28-27.36,1.28-27.36,1.76-30.88a95.47,95.47,0,0,1-11.04.48H617.28c.16-6.88.16-10.08.16-19.2H664c1.92,29.6,4.96,46.24,12,63.84-10.88,11.2-23.04,19.36-38.88,26.08,6.08,5.6,8.16,8.16,14.08,16.8,14.24-8.16,24-15.36,33.92-25.12,10.24,15.2,21.12,24,30.08,24,5.12,0,8.8-2.88,12-9.28,3.04-6.08,4.48-11.04,6.72-23.2-7.2-4.16-10.24-6.56-16.32-12.48-2.08,15.52-3.36,21.28-4.96,21.28a2.014,2.014,0,0,1-1.12-.64s-.64-.64-1.76-1.6c-3.2-2.56-7.04-7.68-10.88-14.72a154.627,154.627,0,0,0,11.84-19.84c3.2-6.24,7.68-16,9.44-20.48,1.6-4,2.4-5.76,3.36-8.16ZM635.84-57.28c-.48,18.72-.64,20.64-2.08,25.28-.96,3.36-2.4,4.16-6.88,4.16-3.52,0-6.08-.32-13.44-1.28a276.3,276.3,0,0,0,3.04-28.16ZM881.76,3.36c-1.92-4-4.8-11.04-7.84-19.2l-35.2-94.24c-3.52-9.12-4.48-12.48-5.44-16.64h-34.4a122.84,122.84,0,0,1-5.12,16.64L758.88-15.84c-3.36,9.12-5.6,14.4-8.16,19.2H782.4a79.891,79.891,0,0,1,4.32-16.96l5.44-15.52h48.32l5.44,15.52a114.431,114.431,0,0,1,4.16,16.96Zm-48-55.04H798.88l15.04-45.28c1.12-3.2,1.28-4,2.24-7.36,1.28,4.32,1.92,5.92,2.4,7.36Zm71.36-75.04c.96,6.88,1.28,11.04,1.28,22.08v85.92c0,9.92-.32,15.84-1.28,22.08h29.44c-.96-6.24-1.28-11.84-1.28-22.08v-85.92c0-10.72.32-15.68,1.28-22.08Zm202.24,114.4c-27.36-26.08-31.36-29.6-52-44.32,9.28-12.64,16.48-25.6,24.16-43.52,1.92-4.64,3.2-6.72,5.28-8.96l-12.32-12.8c-3.84,1.76-4.64,1.92-13.44,1.92l-54.56.96h-3.04c-9.92,0-14.4-.16-19.52-.96l.32,24.32c6.08-.96,9.12-1.12,22.4-1.44l46.72-.8c-3.68,8.16-6.4,13.92-8.48,17.44a147.673,147.673,0,0,1-41.92,46.24,144.572,144.572,0,0,1-35.52,19.52c7.84,8.16,10.08,11.2,15.36,21.28,24.32-11.84,45.44-27.68,59.68-44.64A284.94,284.94,0,0,1,1088,8.48ZM1188-133.92c-.8,5.6-3.04,11.68-7.68,20.32-10.56,20.16-23.2,34.56-41.92,47.52,9.44,5.76,12.32,8.16,19.04,16.32a159.994,159.994,0,0,0,36.96-40.8l45.44-.48c-13.12,40.32-38.08,65.44-81.28,82.24,8.48,7.68,11.2,10.88,16.48,20.64,25.44-11.68,43.68-24.64,58.08-41.12,13.92-15.84,25.12-37.44,32.8-62.4,1.92-6.4,2.56-7.84,4.16-10.4L1258.4-113.6c-3.04,1.12-6.24,1.6-11.52,1.76l-41.6.48c1.76-3.52,2.4-4.96,3.84-8.16a71.121,71.121,0,0,1,4.64-9.44Zm120.96,86.08c6.24-.64,15.36-.96,29.28-.96h80.8c12.48,0,23.04.32,29.44.8V-74.24c-7.36.96-13.12,1.12-29.28,1.12h-80.96c-16.32,0-22.08-.32-29.28-1.28Zm195.36-78.88c.48,4.16.64,7.2.64,16.16,0,8.64-.32,19.52-.64,27.36-.96,16.96-2.4,26.24-5.76,36.8-4.8,15.52-11.68,25.76-24,36.64,8.64,6.08,11.68,8.96,19.36,18.72,10.4-10.56,16.32-18.88,21.92-30.56,8.48-17.44,11.52-34.08,12.64-67.36,1.12-31.52,1.12-31.52,1.76-36.32Zm43.84-1.12a115.652,115.652,0,0,1,.64,14.72v4.48l-.64,89.92c-.16,7.68-.48,10.88-1.6,15.36L1558.4,9.28c2.08-1.28,3.36-1.76,7.36-3.2,16.32-6.08,24.48-10.72,33.76-18.72,11.36-9.92,19.84-22.24,26.56-38.88-8.8-7.04-11.36-9.6-17.92-17.92-3.36,11.36-7.68,20-14.24,28.32-6.08,7.68-12,12.48-21.92,17.92l.8-85.12c.16-10.88.32-12.8,1.28-19.36ZM1713.6-103.2h19.2c11.52,0,17.6.32,24.16,1.12v-25.76a188.58,188.58,0,0,1-24.16,1.12h-66.56a181.908,181.908,0,0,1-22.72-1.12v25.76a181.29,181.29,0,0,1,22.88-1.12h20.32v84.16a152.449,152.449,0,0,1-1.28,22.4h29.44a153.868,153.868,0,0,1-1.28-22.4Zm125.6-26.24c-37.76,0-62.08,26.4-62.08,67.52,0,41.44,24.32,68.16,62.08,68.16,37.44,0,62.08-27.04,62.08-68.32,0-20.96-6.4-38.88-18.4-50.72C1871.84-124,1857.28-129.44,1839.2-129.44Zm.16,112.48c-21.44,0-34.88-17.44-34.88-45.28,0-27.04,13.44-44.16,34.72-44.16,8.96,0,16.8,3.04,22.72,8.96,7.68,7.68,11.84,19.84,11.84,35.52C1873.76-34.08,1860.64-16.96,1839.36-16.96ZM1958.72,3.36a149.705,149.705,0,0,1-1.28-22.4V-42.72h28c15.52,0,27.36-4,35.52-12.32,7.52-7.52,11.36-18.08,11.36-30.88,0-12-3.68-22.08-10.4-28.8-8-8-19.84-12-36-12h-34.08c-9.44,0-14.72-.16-21.92-.48a163.07,163.07,0,0,1,1.28,21.92v86.56a146.5,146.5,0,0,1-1.28,22.08Zm-1.28-68.64v-38.88h27.36c7.2,0,12.16,1.6,15.52,5.28,3.2,3.2,4.8,8,4.8,13.76,0,12.64-7.36,19.84-20.32,19.84Z" transform="translate(2706.032 1473.439)"/>
    <path id="パス_32897" data-name="パス 32897" d="M66.24,1.68c-.96-2-2.4-5.52-3.92-9.6L44.72-55.04A54.168,54.168,0,0,1,42-63.36H24.8a61.423,61.423,0,0,1-2.56,8.32L4.8-7.92A74.363,74.363,0,0,1,.72,1.68H16.56A39.946,39.946,0,0,1,18.72-6.8l2.72-7.76H45.6L48.32-6.8A57.213,57.213,0,0,1,50.4,1.68Zm-24-27.52H24.8l7.52-22.64c.56-1.6.64-2,1.12-3.68.64,2.16.96,2.96,1.2,3.68ZM72.32-63.36a66.792,66.792,0,0,1,.64,11.04V-9.36a68.665,68.665,0,0,1-.64,11.04H87.04A67.412,67.412,0,0,1,86.4-9.36V-52.32a66.18,66.18,0,0,1,.64-11.04Zm40.4,8.8h-9.28a50.491,50.491,0,0,1-7.6-.4v8.32a67.378,67.378,0,0,1,7.6-.32h9.28V-44h-6.64c-3.52,0-5.68-.08-8-.24a58.633,58.633,0,0,1,.32,7.36V-26.4a59.066,59.066,0,0,1-.32,7.52c2.32-.08,4.08-.16,8-.16h6.64V-16h-7.84a65.352,65.352,0,0,1-7.68-.32v8.16a75.1,75.1,0,0,1,7.6-.32h7.92v3.84c-4.72.16-10.64.32-12.48.32a45.137,45.137,0,0,1-5.04-.16l1.6,9.76c2.16-.24,3.6-.4,4.96-.48,14.08-.96,14.48-.96,33.44-2.8a30.8,30.8,0,0,1,4.64,5.36,53.143,53.143,0,0,0,6.4-10.56,26.942,26.942,0,0,1,1.6,8.8c1.2.08,3.76.08,6.64.08,6.16,0,9.12-1.6,10.4-5.76,1.92-5.76,2.8-16.24,3.12-36.72.24-11.92.24-12.16.56-15.36a65.351,65.351,0,0,1-7.68.32h-6.72c0-4.72.08-8.08.08-8.56a34.159,34.159,0,0,1,.48-6.88H143.84c.4,2.24.48,3.28.48,10.48v4.96h-.96a26.708,26.708,0,0,1-5.04-.32v10.24a37.361,37.361,0,0,1,5.76-.32C143.2-24.08,141.2-14.96,135.92-6c-9.76.8-9.76.8-14.16,1.04V-8.48h9.2a20.771,20.771,0,0,1,5.12.4v-8.16c-2.08.16-3.6.24-7.68.24h-6.64v-3.04h7.28c3.92,0,5.68,0,7.12.16-.08-1.84-.08-1.84-.16-7.2V-37.2a46.865,46.865,0,0,1,.24-6.96c-1.84.16-2.8.16-6.56.16h-7.92v-2.96h9.52a34.674,34.674,0,0,1,5.44.24v-8.16a57.477,57.477,0,0,1-7.52.32h-7.44v-3.76c8.56-1.04,8.56-1.04,10.8-1.36a9.3,9.3,0,0,1,1.28-.24c1.68-.24,1.68-.24,2.16-.32a5.667,5.667,0,0,1,1.12-.08l-5.36-7.76c-5.04,2.24-18.96,3.76-35.52,3.84a35.495,35.495,0,0,1,3.2,7.28c5.6-.16,7.68-.24,13.28-.64Zm0,16.96v3.04h-5.6V-37.6Zm9.04,0h5.68v3.04h-5.68Zm-9.04,9.12v3.04h-5.6v-3.04Zm9.04,0h5.68v3.04h-5.68Zm36.88-13.76C158.16-21.2,158-18,157.12-11.76c-.8,6.72-1.52,7.76-4.8,7.76a44.052,44.052,0,0,1-5.44-.48c4.4-10.16,6.32-20.16,6.96-37.76ZM207.28-56v5.92H198.8a45.94,45.94,0,0,1-6.56-.32,43.5,43.5,0,0,1,.32,6.08v28.8a54.545,54.545,0,0,1-.24,6c.96-.08,3.36-.24,4-.24h32c.64,0,2.96.16,3.92.24a50.679,50.679,0,0,1-.24-6v-28.8a42.066,42.066,0,0,1,.32-6.08,45.4,45.4,0,0,1-6.48.32H217.2V-56h21.2c3.52,0,7.28.16,10.48.48V-65.84c-3.44.32-6.8.48-10.56.48H186.08a99.45,99.45,0,0,1-10.32-.48v10.32c3.44-.32,6.8-.48,10.48-.48Zm.32,14.8v6.64h-6.08V-41.2Zm0,15.12v7.68h-6.08v-7.68Zm9.12,7.68v-7.68h6.48v7.68Zm0-16.16V-41.2h6.48v6.64Zm19.52-14.72a47.944,47.944,0,0,1,.32,6.64V-5.6H188V-42.48a44.136,44.136,0,0,1,.32-6.8h-10.8a90.591,90.591,0,0,1,.48,9.12V-4a96.576,96.576,0,0,1-.56,11.12h10.8V3.68h48V7.12h10.8a104.421,104.421,0,0,1-.56-11.28V-39.92c0-2.72.16-6.4.48-9.36ZM260.4-47.6a6.909,6.909,0,0,1,1.2-.08h1.12a5,5,0,0,0,1.36.08c.24,0,1.52,0,3.04.08,2.32.08,2.96.08,7.44.08a12.259,12.259,0,0,0-1.2,2c-4.16,7.12-11.12,15.44-15.6,18.72l8.64,8.56a48.738,48.738,0,0,1,7.28-7.68c6-5.2,11.44-7.92,15.76-7.92,2.32,0,3.68,1.04,4.08,3.2-5.52,2.4-9.04,4.24-11.68,6.16-6.08,4.4-9.28,9.36-9.28,14.32a13,13,0,0,0,3.12,8.64c3.68,4.16,10.32,5.92,22.08,5.92a148.036,148.036,0,0,0,20.56-1.44,30.326,30.326,0,0,1,4-.4L321.44-9.6C315.2-7.28,306.56-6,296.88-6c-8.72,0-12.16-1.44-12.16-5.12,0-2,1.28-4,3.76-5.76a41.511,41.511,0,0,1,6.4-3.44,2.573,2.573,0,0,1,.08.64,59.684,59.684,0,0,1-.48,9.28l11.12-.32a48.487,48.487,0,0,1-.24-5.36v-5.44l-.08-2.64c9.68-3.28,9.68-3.28,11.6-3.76A60.567,60.567,0,0,1,325.92-30l-4.24-10.88c-1.36.8-1.68.88-6.24,2.4-3.6,1.2-4,1.36-7.12,2.48-2.08.72-3.52,1.2-4.24,1.44-1.44-5.36-5.44-8.08-11.92-8.08-4,0-6.88.8-11.04,3.12a57.409,57.409,0,0,0,5.2-7.92c8.08-.24,18.48-.88,24.32-1.6,3.84-.4,3.84-.4,6.32-.64l-.48-10.8c-4.56,1.2-11.12,2.08-20.64,2.64a48.436,48.436,0,0,0-4.96.32c.32-.64.32-.72.64-1.44,2.4-5.76,2.4-5.76,2.96-6.64l-12.4-1.12c-.32,2.64-.88,4.56-2.88,9.36h-4c-6.56,0-11.68-.32-14.64-1.04Zm116.8-3.6v4.8H365.12a60.693,60.693,0,0,1-7.52-.32,57.826,57.826,0,0,1,.32,7.36v11.2a62.241,62.241,0,0,1-.32,7.28,49.138,49.138,0,0,1,6.24-.32h11.6a17.855,17.855,0,0,1-2.48,6.24,26.1,26.1,0,0,1-4.56-5.28l-.24-.56-8.64,4c.56.64.88.96,1.36,1.52a63.041,63.041,0,0,0,6.08,6.72c-3.76,2.64-8,4.48-14.64,6.24a50.784,50.784,0,0,1,5.44,9.04c7.92-2.56,12.64-5.12,17.12-9.2,8.56,5.2,17.68,7.76,31.68,9.04a49.214,49.214,0,0,1,3.92-10.64c-13.84-.4-21.68-1.92-29.6-5.68A35.444,35.444,0,0,0,385.2-21.2h13.2a67.757,67.757,0,0,1,7.76.32,58.106,58.106,0,0,1-.32-7.6V-39.2a64.087,64.087,0,0,1,.32-7.52,63.849,63.849,0,0,1-7.6.32H386.88v-4.8h14.24c3.2,0,5.84.08,8.24.32V-60.96a85.4,85.4,0,0,1-9.6.48h-12.8a45.924,45.924,0,0,1,.32-7.44H376.72a47.563,47.563,0,0,1,.48,7.44H365.68c-3.04,0-6.48-.16-8.64-.4.16-.4.24-.88.4-1.36.56-1.68.64-1.92,1.2-3.68l-10.8-2.48a52.033,52.033,0,0,1-2.88,10.8c-2.88,8-6.64,14.56-11.36,19.68A57.7,57.7,0,0,1,337.44-26a47.462,47.462,0,0,0,4.8-6.96c-.16,6-.16,6.88-.16,8.56V-2.24a67.83,67.83,0,0,1-.48,9.28h11.04a88.585,88.585,0,0,1-.48-9.2V-48.32a96.635,96.635,0,0,0,4.48-11.36v8.8a77.974,77.974,0,0,1,7.84-.32Zm-.16,13.76c-.08,3.04-.16,5.04-.4,7.36h-8.8v-7.36Zm18.8,0v7.36h-9.36c.08-2.16.24-4.32.32-7.36Zm28.8,10.72a50.01,50.01,0,0,1,9.6-2.8c9.12-2.08,15.52-3.04,20.8-3.04a19.348,19.348,0,0,1,7.28,1.12,8.031,8.031,0,0,1,5.36,7.68c0,5.12-2.64,9.04-8.16,12.16-4.8,2.64-14.24,4.64-22.4,4.64h-1.2A31.257,31.257,0,0,1,440,3.92c10.8-1.28,12.48-1.52,17.76-3.2,13.44-4.08,21.2-12.96,21.2-24.24a19.843,19.843,0,0,0-3.04-11.04c-3.76-5.6-10.32-8.32-19.92-8.32-6.56,0-13.84.96-24.96,3.28-6.16,1.28-6.16,1.28-8.72,1.52ZM499.12-42.8c.72,0,.96-.08,1.52-.08l8.56.24h2.24c-2.8,14.56-8.64,32-14,42.32l12.32,4.56c.4-1.44,1.04-3.28,1.84-5.52,3.68-10.56,4.56-13.2,6.96-21.92a193.029,193.029,0,0,0,4.64-19.84,90.415,90.415,0,0,0,11.28-1.2c2.88-.48,2.88-.48,4.4-.64l-.4-10.96a84.017,84.017,0,0,1-13.36,2.24c.24-1.6.32-1.76.64-3.92,1.04-5.84,1.04-5.84,1.6-7.76l-12.64-1.04v1.36a90.9,90.9,0,0,1-1.36,11.84c-2,.08-2.08.08-2.64.08a63.063,63.063,0,0,1-11.44-.8Zm64.8.16c-5.04-.08-5.36-.08-7.36-.08-9.28,0-13.28.4-25.2,2.56l.8,10.48a97.267,97.267,0,0,1,21.68-2.16,85.475,85.475,0,0,1,10.32.56ZM531.36-25.36c-4.48,6.16-6.16,10.24-6.16,14.56A11.892,11.892,0,0,0,531.12-.4c4,2.4,9.2,3.44,16.56,3.44a90.578,90.578,0,0,0,15.28-1.36c2-.24,2.64-.32,4.08-.48l-.8-11.84a58.4,58.4,0,0,1-17.92,3.12c-7.76,0-11.44-1.84-11.44-5.6,0-2.64.88-4.56,4.08-8.8Z" transform="translate(2865.586 1248.563)"/>
    <path id="パス_32898" data-name="パス 32898" d="M3.84-56.16a79.943,79.943,0,0,1,8.32-.32H38.24a80.932,80.932,0,0,1,8.32.32v-9.76a83.427,83.427,0,0,1-9.44.48H13.36a86.99,86.99,0,0,1-9.52-.48ZM7.76-39.12a38.73,38.73,0,0,1-.32,5.52c2.48-.16,4.4-.24,7.44-.24H37.12c3.2,0,4.96.08,7.2.24A35.759,35.759,0,0,1,44-39.2v-8.56a37.553,37.553,0,0,1,.32-5.68c-2.16.16-3.84.24-7.28.24H14.96c-3.68,0-4.96-.08-7.52-.24a37.552,37.552,0,0,1,.32,5.68Zm10-6.72h16.4v4.64H17.76ZM12.88-30.72c-3.36,0-5.84-.08-8.32-.24a74.259,74.259,0,0,1,.32,8.32V-3.2c0,3.68-.16,6.8-.4,9.52H14.96V3.2H36.24V5.84H46.32c-.24-2.8-.4-5.68-.4-9.52V-21.92c0-3.76.08-6.72.32-9.04-2.32.16-4.88.24-8.56.24Zm1.36,7.92h6.88V-18H14.24Zm15.68.08h6.8V-18h-6.8ZM14.4-10.24h6.72V-5.2H14.4Zm15.52,0h6.8V-5.2h-6.8ZM49.6-61.52a71.762,71.762,0,0,1,.32,8.24v32.72a70,70,0,0,1-.32,8.24H60.16a61.847,61.847,0,0,1-.32-8.16V-53.52a51.168,51.168,0,0,1,.4-8Zm14.96-5.36a73.657,73.657,0,0,1,.48,9.76v50.8c0,1.92-.56,2.4-3.12,2.4s-6.72-.32-10.48-.72a39.108,39.108,0,0,1,2.72,10c3.6.24,6.16.32,8.08.32,5.36,0,8.32-.56,10.16-2.08,2.16-1.68,2.8-3.76,2.8-8.4V-57.36a53.474,53.474,0,0,1,.48-9.52Zm49.92,31.92v3.12H98.4a53.733,53.733,0,0,1-8-.4v8.08a74.329,74.329,0,0,1,8-.32h16.08v3.04H93.92A78.158,78.158,0,0,1,84-21.92v8.96a93.074,93.074,0,0,1,10-.48h13.28c-6.48,4.96-14,8.08-25.12,10.24A34.624,34.624,0,0,1,87.76,6a73.757,73.757,0,0,0,15.6-6.48,47.175,47.175,0,0,0,11.36-8.48c-.16,2.88-.16,3.12-.16,5.04v3.2a58.87,58.87,0,0,1-.48,8H124.8a54.124,54.124,0,0,1-.48-8V-4c0-2,0-2.4-.16-5.12C131.12-2.16,140,2.56,152.64,6a37.745,37.745,0,0,1,5.28-9.6c-11.68-1.92-20-5.04-26.16-9.84h14.48a92.081,92.081,0,0,1,9.84.48v-8.96a74.762,74.762,0,0,1-9.92.48H124.4v-3.04h17.04a74.329,74.329,0,0,1,8,.32v-8.08a56.416,56.416,0,0,1-8,.4H124.4v-3.12h20.8a77.243,77.243,0,0,1,8,.32v-8.48a70.628,70.628,0,0,1-8,.32h-8.32c.8-1.52.88-1.68,2.32-4.72h7.36c3.92,0,7.28.16,9.76.4V-56.4a68.3,68.3,0,0,1-9.2.48H146a65.622,65.622,0,0,0,4.48-7.12l-9.68-3.44a44.288,44.288,0,0,1-5.44,10.56H131.6v-5.44a39.637,39.637,0,0,1,.4-6.08H121.68a35.759,35.759,0,0,1,.32,5.6v5.92h-4.72v-5.92a50.3,50.3,0,0,1,.24-5.6H107.28a42.044,42.044,0,0,1,.4,6.08v5.44h-3.52a53.19,53.19,0,0,0-5.68-10.4l-9.6,3.44a32.922,32.922,0,0,1,4.88,6.96h-1.2a69.459,69.459,0,0,1-9.12-.48v9.28c2.48-.24,5.76-.4,9.6-.4h7.92a40.967,40.967,0,0,1,2.4,4.72h-8.8a69.066,69.066,0,0,1-7.92-.32v8.48a75.6,75.6,0,0,1,7.92-.32Zm-.72-7.84c-.72-2-1.12-2.88-1.92-4.72h16.32a45.158,45.158,0,0,1-2.08,4.72ZM200-41.2a10.755,10.755,0,0,0-10.8,10.8A10.755,10.755,0,0,0,200-19.6a10.755,10.755,0,0,0,10.8-10.8A10.755,10.755,0,0,0,200-41.2ZM306.24,1.68c-.96-2-2.4-5.52-3.92-9.6l-17.6-47.12A54.168,54.168,0,0,1,282-63.36H264.8a61.42,61.42,0,0,1-2.56,8.32L244.8-7.92a74.365,74.365,0,0,1-4.08,9.6h15.84a39.945,39.945,0,0,1,2.16-8.48l2.72-7.76H285.6l2.72,7.76a57.215,57.215,0,0,1,2.08,8.48Zm-24-27.52H264.8l7.52-22.64c.56-1.6.64-2,1.12-3.68.64,2.16.96,2.96,1.2,3.68Zm30.08-37.52a66.791,66.791,0,0,1,.64,11.04V-9.36a68.664,68.664,0,0,1-.64,11.04h14.72a67.413,67.413,0,0,1-.64-11.04V-52.32a66.181,66.181,0,0,1,.64-11.04ZM351.84,5.12c.88-.16,1.36-.16,2.64-.32,27.36-3.2,27.36-3.2,41.68-5.92,1.2,2.8,1.76,4.16,3.2,8.24l9.84-5.28a101.8,101.8,0,0,0-7.6-15.6c-3.76-6.8-3.76-6.8-9.76-16.24l-9.2,4.64A150.66,150.66,0,0,1,391.84-10c-8.88,1.44-12.4,1.92-22.88,2.8,1.2-2.56,2-4.16,2.32-4.96,2.48-5.76,6.32-16.48,8.08-22.24,2.32-8,2.32-8,3.04-10.08l-12-2.8c-.56,7.68-7.12,28.48-13.04,41.04-3.68.16-3.84.16-5.44.16a17.4,17.4,0,0,1-2-.08ZM369.6-59.2H350.32c-3.68,0-6-.08-8.56-.32a100.824,100.824,0,0,1,.4,11.68c0,25.76-1.68,35.68-7.76,45.84a49.824,49.824,0,0,1,8.24,8.96C350.32-6,352.88-19.68,352.88-49.28h46.4a60.9,60.9,0,0,1,9.6.48V-59.68a73.411,73.411,0,0,1-9.6.48H380.32v-3.52a21.989,21.989,0,0,1,.32-4.4H369.2a21.461,21.461,0,0,1,.4,4.32Zm68.96,1.44c.64-1.2,1.2-2.4,3.12-6.56l-10.8-2.72c-.88,4-3.6,9.36-7.6,14.56-1.92,2.56-2.56,3.2-6.24,6.24,3.76,2.48,5.2,3.68,7.36,6.56a62.24,62.24,0,0,1-8.32-.48V-29.6a81.932,81.932,0,0,1,9.52-.48h53.28a80.968,80.968,0,0,1,9.52.48V-40.16a75.121,75.121,0,0,1-9.6.48H458.16v-8.64H474a84.205,84.205,0,0,1,9.04.4V-58.24a66.172,66.172,0,0,1-9.12.48H458.16v-2.16a48.354,48.354,0,0,1,.48-7.6H447.2a38.854,38.854,0,0,1,.48,7.52v2.24ZM425.92-39.68a42.263,42.263,0,0,0,7.28-8.64h14.48v8.64ZM435.2,6.8V3.52h34.32V6.8h10.96A66.681,66.681,0,0,1,480-2.4V-17.36a62.272,62.272,0,0,1,.32-7.92c-2.4.16-4.24.24-8,.24H432.48c-3.76,0-5.6-.08-8-.24a62.272,62.272,0,0,1,.32,7.92V-2.48a72.174,72.174,0,0,1-.48,9.28Zm-.08-22.4H469.6V-6H435.12Zm77.6-38.96h-9.28a50.491,50.491,0,0,1-7.6-.4v8.32a67.378,67.378,0,0,1,7.6-.32h9.28V-44h-6.64c-3.52,0-5.68-.08-8-.24a58.636,58.636,0,0,1,.32,7.36V-26.4a59.068,59.068,0,0,1-.32,7.52c2.32-.08,4.08-.16,8-.16h6.64V-16h-7.84a65.352,65.352,0,0,1-7.68-.32v8.16a75.1,75.1,0,0,1,7.6-.32h7.92v3.84c-4.72.16-10.64.32-12.48.32a45.137,45.137,0,0,1-5.04-.16l1.6,9.76c2.16-.24,3.6-.4,4.96-.48,14.08-.96,14.48-.96,33.44-2.8a30.8,30.8,0,0,1,4.64,5.36,53.144,53.144,0,0,0,6.4-10.56,26.941,26.941,0,0,1,1.6,8.8c1.2.08,3.76.08,6.64.08,6.16,0,9.12-1.6,10.4-5.76,1.92-5.76,2.8-16.24,3.12-36.72.24-11.92.24-12.16.56-15.36a65.351,65.351,0,0,1-7.68.32h-6.72c0-4.72.08-8.08.08-8.56a34.158,34.158,0,0,1,.48-6.88H543.84c.4,2.24.48,3.28.48,10.48v4.96h-.96a26.708,26.708,0,0,1-5.04-.32v10.24a37.361,37.361,0,0,1,5.76-.32C543.2-24.08,541.2-14.96,535.92-6c-9.76.8-9.76.8-14.16,1.04V-8.48h9.2a20.771,20.771,0,0,1,5.12.4v-8.16c-2.08.16-3.6.24-7.68.24h-6.64v-3.04h7.28c3.92,0,5.68,0,7.12.16-.08-1.84-.08-1.84-.16-7.2V-37.2a46.868,46.868,0,0,1,.24-6.96c-1.84.16-2.8.16-6.56.16h-7.92v-2.96h9.52a34.675,34.675,0,0,1,5.44.24v-8.16a57.477,57.477,0,0,1-7.52.32h-7.44v-3.76c8.56-1.04,8.56-1.04,10.8-1.36a9.3,9.3,0,0,1,1.28-.24c1.68-.24,1.68-.24,2.16-.32a5.668,5.668,0,0,1,1.12-.08l-5.36-7.76c-5.04,2.24-18.96,3.76-35.52,3.84a35.5,35.5,0,0,1,3.2,7.28c5.6-.16,7.68-.24,13.28-.64Zm0,16.96v3.04h-5.6V-37.6Zm9.04,0h5.68v3.04h-5.68Zm-9.04,9.12v3.04h-5.6v-3.04Zm9.04,0h5.68v3.04h-5.68Zm36.88-13.76C558.16-21.2,558-18,557.12-11.76c-.8,6.72-1.52,7.76-4.8,7.76a44.052,44.052,0,0,1-5.44-.48c4.4-10.16,6.32-20.16,6.96-37.76ZM607.28-56v5.92H598.8a45.941,45.941,0,0,1-6.56-.32,43.5,43.5,0,0,1,.32,6.08v28.8a54.553,54.553,0,0,1-.24,6c.96-.08,3.36-.24,4-.24h32c.64,0,2.96.16,3.92.24a50.687,50.687,0,0,1-.24-6v-28.8a42.068,42.068,0,0,1,.32-6.08,45.4,45.4,0,0,1-6.48.32H617.2V-56h21.2c3.52,0,7.28.16,10.48.48V-65.84c-3.44.32-6.8.48-10.56.48H586.08a99.451,99.451,0,0,1-10.32-.48v10.32c3.44-.32,6.8-.48,10.48-.48Zm.32,14.8v6.64h-6.08V-41.2Zm0,15.12v7.68h-6.08v-7.68Zm9.12,7.68v-7.68h6.48v7.68Zm0-16.16V-41.2h6.48v6.64Zm19.52-14.72a47.946,47.946,0,0,1,.32,6.64V-5.6H588V-42.48a44.138,44.138,0,0,1,.32-6.8h-10.8a90.591,90.591,0,0,1,.48,9.12V-4a96.573,96.573,0,0,1-.56,11.12h10.8V3.68h48V7.12h10.8a104.413,104.413,0,0,1-.56-11.28V-39.92c0-2.72.16-6.4.48-9.36Zm56.08,8.08a10.755,10.755,0,0,0-10.8,10.8,10.755,10.755,0,0,0,10.8,10.8,10.755,10.755,0,0,0,10.8-10.8A10.755,10.755,0,0,0,692.32-41.2ZM798.56,1.68c-.96-2-2.4-5.52-3.92-9.6l-17.6-47.12a54.165,54.165,0,0,1-2.72-8.32h-17.2a61.42,61.42,0,0,1-2.56,8.32L737.12-7.92a74.358,74.358,0,0,1-4.08,9.6h15.84a39.949,39.949,0,0,1,2.16-8.48l2.72-7.76h24.16l2.72,7.76a57.215,57.215,0,0,1,2.08,8.48Zm-24-27.52H757.12l7.52-22.64c.56-1.6.64-2,1.12-3.68.64,2.16.96,2.96,1.2,3.68Zm30.08-37.52a66.787,66.787,0,0,1,.64,11.04V-9.36a68.661,68.661,0,0,1-.64,11.04h14.72a67.406,67.406,0,0,1-.64-11.04V-52.32a66.174,66.174,0,0,1,.64-11.04ZM881.04-2.8V2h12.8c-.4-3.28-.4-4-.4-11.84V-50.16c0-3.44,0-3.44.24-8.72-2.16.16-5.68.24-10,.24H848.56A78.639,78.639,0,0,1,836-59.28v12.4a113.169,113.169,0,0,1,12.4-.4h32.64v33.04H847.28a72.211,72.211,0,0,1-12.4-.64V-2.4c4.24-.32,6.24-.4,12.16-.4Zm32.08-48.24a84.522,84.522,0,0,1,21.04,16.56l8.08-10.48c-6.4-5.92-10.96-9.28-21.28-15.52Zm3.84,53.28a29.187,29.187,0,0,1,4-1.12C922.48.8,922.48.8,924.48.4a101.557,101.557,0,0,0,23.28-8.32c13.92-7.36,23.36-17.92,31.28-35.04a43.52,43.52,0,0,1-10.16-9.28,69.289,69.289,0,0,1-8.08,15.92c-6.24,9.36-13.36,15.36-23.52,19.6a76.479,76.479,0,0,1-23.84,5.84ZM1047.28-31.2a103.565,103.565,0,0,1,11.6.4V-42.24a81.705,81.705,0,0,1-11.84.56h-45.12a90.354,90.354,0,0,1-11.52-.56v11.52a86.142,86.142,0,0,1,11.36-.48h17.76a31.21,31.21,0,0,1-2.96,12.88c-3.28,6.32-9.2,10.48-19.12,13.52a31.93,31.93,0,0,1,7.92,10.64c10.48-4.24,16.32-8.48,20.56-15.2,3.76-5.76,5.6-12.4,6.24-21.84ZM998.56-51.04a103.978,103.978,0,0,1,11.36-.4h29.2a90.017,90.017,0,0,1,11.68.4V-62.48a73.728,73.728,0,0,1-11.84.56h-28.88a75.753,75.753,0,0,1-11.52-.56Zm72.16,0a84.521,84.521,0,0,1,21.04,16.56l8.08-10.48c-6.4-5.92-10.96-9.28-21.28-15.52Zm3.84,53.28a29.192,29.192,0,0,1,4-1.12c1.52-.32,1.52-.32,3.52-.72a101.556,101.556,0,0,0,23.28-8.32c13.92-7.36,23.36-17.92,31.28-35.04a43.519,43.519,0,0,1-10.16-9.28,69.287,69.287,0,0,1-8.08,15.92c-6.24,9.36-13.36,15.36-23.52,19.6a76.479,76.479,0,0,1-23.84,5.84Zm73.36-57.36a102.487,102.487,0,0,1,9.04,24.64l11.76-3.6c-3.04-10.56-5.52-16.64-9.68-24.16Zm21.28-3.92a116.486,116.486,0,0,1,8.96,23.92l11.6-3.68a100.555,100.555,0,0,0-9.52-23.28Zm34-1.2a59.744,59.744,0,0,1-3.76,18.64c-3.12,9.28-7.2,15.76-13.76,21.92-6.56,6.32-13.36,10.48-22.8,13.92,4.64,4.48,5.92,6.24,8.4,10.8,10.56-5.12,18.16-10.4,24.48-16.96,9.04-9.6,15.2-22,18.48-37.68a56.7,56.7,0,0,1,1.84-7.68Z" transform="translate(3441.586 1246.563)" fill="#533afc"/>
    <path id="パス_32899" data-name="パス 32899" d="M50.48-59.6a51.232,51.232,0,0,1,7.44,10.8l6.96-3.52a45.3,45.3,0,0,0-7.36-10.56Zm9.84-4.24A57.748,57.748,0,0,1,67.6-53.36l6.88-3.6a47.165,47.165,0,0,0-7.36-10.16ZM55.52-45.2a52.318,52.318,0,0,1,5.6,10.24,77.106,77.106,0,0,1,5.92,18.08l11.04-5.36a80.573,80.573,0,0,0-12.72-27.6ZM5.12-35.36c2.32-.64,7.76-1.6,13.44-2.4C15.2-24.4,8.4-8.32,2.96-1.2l11.12,6c.48-1.04.56-1.2,1.28-2.72C22.8-13.44,27.2-25.6,30-38.64a39.222,39.222,0,0,1,4-.24c2.88,0,4.16.32,5.2,1.36,1.44,1.28,2,3.36,2,7.2,0,6.08-.96,14.4-2.16,18.24-.96,3.2-2.16,4.48-4.16,4.48-2.64,0-7.28-1.28-11.36-3.04a36.361,36.361,0,0,1,1.04,8.56,31.649,31.649,0,0,1-.16,3.6c5.44,1.6,8.8,2.24,12.24,2.24,4.4,0,6.96-.96,9.36-3.6,4.08-4.4,6.48-15.52,6.48-29.84,0-7.52-1.04-11.44-3.76-14.72-2.64-3.12-6.8-4.64-12.48-4.64-1.2,0-2.32.08-4.24.16.24-.96.24-1.04.56-2.72,1.12-6.56,1.76-10,1.84-10.32a19.678,19.678,0,0,1,.56-2.32l-12.4-1.2a7.911,7.911,0,0,1,.08,1.2c0,3.04-.56,7.76-2,16.16-4.08.64-13.68,1.52-16.08,1.52H4.08Zm89.84-20.4c-5.2,0-6.64-.08-9.68-.32a52.579,52.579,0,0,1,.32,6.64v8.08a35.778,35.778,0,0,1-.4,6.4H95.6V-46.88h50.16v11.92h10.32a50.428,50.428,0,0,1-.4-6.32v-8.16a50.208,50.208,0,0,1,.32-6.64,98.127,98.127,0,0,1-9.92.32h-2.56a95.919,95.919,0,0,0,5.2-9.04L138.4-67.28a50.4,50.4,0,0,1-5.84,11.52H126.8a70.069,70.069,0,0,0-5.12-11.92l-10.16,2.24A51.487,51.487,0,0,1,116-55.76h-6.96a70.769,70.769,0,0,0-6.8-11.04L92.4-64.4a50.977,50.977,0,0,1,5.52,8.64Zm31.6,41.12h19.28a92.452,92.452,0,0,1,10.64.48V-24.64a76.12,76.12,0,0,1-10.56.56H128.08A123.2,123.2,0,0,0,142.32-35.2c.88-.8,1.2-1.12,2.08-1.84l-5.12-5.68a37.909,37.909,0,0,1-6.16.32H107.84a79.942,79.942,0,0,1-8.32-.32v9.44a81.249,81.249,0,0,1,8.24-.32h19.28a37.732,37.732,0,0,1-7.36,5.2h-3.92a32.44,32.44,0,0,1,.24,4.32H95.2a77.311,77.311,0,0,1-10.24-.56v10.48a88.229,88.229,0,0,1,10.32-.48H116V-4.8c0,1.44-.56,1.68-3.92,1.68-2.4,0-5.6-.24-9.84-.64a36.348,36.348,0,0,1,3.04,10.08c3.6.08,6.16.16,8.24.16,10.64,0,13.04-1.52,13.04-8.48ZM211.2-50.48c2.64,2.96,4.64,6.08,7.36,11.52l6.96-3.44a51.924,51.924,0,0,0-7.36-11.28Zm9.52-4.4a57.8,57.8,0,0,1,7.2,11.2l6.8-3.44A47.994,47.994,0,0,0,227.28-58Zm-50.8,40.96a26.474,26.474,0,0,1,2-2.4c4.16-4.64,8.56-10,12.32-14.96C190.72-40,190.72-40,192.08-40c1.12,0,1.92.48,3.36,2.08,2.48,2.88,2.48,2.88,3.36,3.92,5.44,6.32,5.44,6.32,7.2,8.32,7.76,8.56,16.64,17.6,23.28,23.52A27.726,27.726,0,0,1,231.92.4l5.92-13.36c-2.88-1.68-5.28-3.6-9.92-8a261.689,261.689,0,0,1-23.2-24.4,44.518,44.518,0,0,0-5.2-5.44,11.771,11.771,0,0,0-7.36-2.8c-4.16,0-7.76,2.24-11.76,7.36-11.12,14-14.48,17.84-18.08,20.4Zm86.16-37.2c2.4-.32,3.12-.32,5.68-.48,11.76-.56,13.12-.64,19.68-1.2-11.28,11.28-28,24.56-35.52,28.16l6.4,10.32c9.92-8.88,20.88-13.44,32.64-13.44,9.2,0,15.12,3.76,15.12,9.6,0,5.04-2.32,8.08-8,10.4a20.409,20.409,0,0,0-3.68-6.88,17.748,17.748,0,0,0-14.08-6.48c-8.48,0-14.72,5.2-14.72,12.08A11.978,11.978,0,0,0,264.48.72c3.36,2.56,9.28,4,16.24,4,7.68,0,14.72-1.68,20.08-4.8,7.2-4.16,10.96-10.4,10.96-18.16,0-5.6-1.92-10-5.84-13.28-4.32-3.6-9.92-5.44-16.72-5.44A43.947,43.947,0,0,0,276-35.04c6.48-4.56,9.04-6.64,17.36-14.08,6.24-5.52,6.32-5.52,8-6.48l-5.68-8.32c-1.36.64-2.32.8-5.44,1.04-7.44.56-17.36.96-24.24.96a71.41,71.41,0,0,1-10.4-.56ZM281.84-4.88a11.661,11.661,0,0,1-3.36.4c-5.2,0-8.24-1.6-8.24-4.4,0-1.92,1.6-3.2,4-3.2C278-12.08,280.64-9.6,281.84-4.88Zm83.76-12c-.08-2-.16-2.8-.16-3.68,0-.96,0-.96.24-5.84l1.36-26.32c.16-4.16.48-7.92.8-10.24h-15.6c.32,2.72.64,6.64.8,10.24L354.4-26.4c.24,4.72.24,4.72.24,5.76,0,.88-.08,1.76-.16,3.76Zm1.28,19.04V-10.8H353.2V2.16Z" transform="translate(4667.586 1246.563)"/>
  </g>
</svg>
