<svg xmlns="http://www.w3.org/2000/svg" xmlns:xlink="http://www.w3.org/1999/xlink" width="2297.235" height="359.757" viewBox="0 0 2297.235 359.757">
  <defs>
    <linearGradient id="linear-gradient" x1="0.5" x2="0.5" y2="1" gradientUnits="objectBoundingBox">
      <stop offset="0" stop-color="#edd14c"/>
      <stop offset="1" stop-color="#d1ac3a"/>
    </linearGradient>
  </defs>
  <g id="グループ_18845" data-name="グループ 18845" transform="translate(-2526.289 -1134.563)">
    <g id="グループ_12639" data-name="グループ 12639" transform="translate(2304 536.439)">
      <g id="グループ_9212" data-name="グループ 9212" transform="translate(-56 514)">
        <g id="グループ_9210" data-name="グループ 9210" transform="translate(-93.416 -21.875)">
          <path id="パス_14372" data-name="パス 14372" d="M74.681-90.66a28.347,28.347,0,0,0,3.422.253H80.51q9.378,0,15.208-5.576t5.83-14.447q0-8.618-5.449-13.94t-14.067-5.323q-9.125,0-14.7,6.083T61.754-107.9H15.878a82.225,82.225,0,0,1,7.477-26.613,63.746,63.746,0,0,1,14.574-19.643,60.783,60.783,0,0,1,20.784-12.166,79.139,79.139,0,0,1,26.36-4.182,79.438,79.438,0,0,1,25.726,3.929,57.909,57.909,0,0,1,19.77,11.152,48.564,48.564,0,0,1,12.673,17.489,57.258,57.258,0,0,1,4.436,22.938q0,13.687-5.2,22.431A46.66,46.66,0,0,1,127.654-77.48q14.7,4.562,22.938,16.348T158.83-32.11a59.147,59.147,0,0,1-5.576,25.853,58.973,58.973,0,0,1-15.588,20.023A71.856,71.856,0,0,1,113.84,26.692a96.1,96.1,0,0,1-30.289,4.562q-22.051,0-39.793-8.618T15.371-4.737A54.727,54.727,0,0,1,8.907-21.465,87.662,87.662,0,0,1,7.26-38.447H56.431q.507,13.433,7.857,20.4t19.77,6.97q13.18,0,19.263-7.1T109.4-35.659q0-12.42-7.35-18.756a25.906,25.906,0,0,0-17.489-6.337,29.279,29.279,0,0,0-4.816.38q-2.281.38-5.069.887Z" transform="translate(2510.11 434.5)" fill="url(#linear-gradient)"/>
          <g id="グループ_9209" data-name="グループ 9209" transform="translate(642.385 137.738)">
            <path id="パス_24163" data-name="パス 24163" d="M310,1634.241q-.371.016-.737.058c-.244.03-.487.072-.723.1a8.5,8.5,0,0,0-1.387.312c-.112.035-.222.073-.333.112s-.215.072-.321.112q-.32.118-.624.264a6.322,6.322,0,0,0-1.132.7,12.93,12.93,0,0,1-2.25,1.352,11.562,11.562,0,0,1-1.173.482c-.385.14-.762.26-1.119.365-.177.052-.352.1-.518.145l-.474.1c-.3.063-.57.112-.794.148-.449.073-.72.1-.72.1a15.028,15.028,0,0,0,1.649,1.143c.453.251.929.5,1.42.729.07.031.14.065.211.1l.286.127.012.005c.675.262,1.371.513,2.079.717.718.181,1.441.353,2.159.469a14.608,14.608,0,0,0,2.2.157,13.694,13.694,0,0,0,2.04-.218,12.085,12.085,0,0,0,1.817-.558,6.06,6.06,0,0,0,.811-.387c.259-.141.506-.293.74-.45s.455-.324.664-.5c.1-.087.2-.175.3-.264s.192-.192.283-.29a7.113,7.113,0,0,0,.929-1.236,6.186,6.186,0,0,0,.853-2.784l.006-.087-.126-.054A14.681,14.681,0,0,0,310,1634.241Z" transform="translate(-274.076 -1546.462)" fill="#f5c04b"/>
            <path id="パス_24164" data-name="パス 24164" d="M491.667,1563.641a6.78,6.78,0,0,0,2.983-.708,5.847,5.847,0,0,0,.6-.349,5.375,5.375,0,0,0,.541-.427,5.249,5.249,0,0,0,1.465-2.22l.028-.077-.1-.091a14.825,14.825,0,0,0-2.519-1.794,10.545,10.545,0,0,0-1.336-.684,13.119,13.119,0,0,0-1.353-.539c-.459-.138-.906-.279-1.355-.377-.224-.047-.448-.087-.67-.117-.112-.016-.224-.028-.334-.038s-.217-.028-.326-.037a6.607,6.607,0,0,0-1.272,0,5.828,5.828,0,0,0-.611.1,4.537,4.537,0,0,0-.576.145,10.2,10.2,0,0,1-1.159.3c-.2.038-.4.073-.6.1s-.4.054-.6.066a16.418,16.418,0,0,1-2.269.007c-.682-.063-1.276-.157-1.7-.236s-.675-.138-.675-.138a18.726,18.726,0,0,0,1.22,1.567c.222.269.471.51.721.759s.512.494.779.738c.134.119.266.244.407.358l.426.339c.286.223.577.443.871.656.148.106.294.217.445.316l.458.29q.46.285.92.553a11.925,11.925,0,0,0,3.823,1.405,7.072,7.072,0,0,0,.9.119C491.095,1563.643,491.385,1563.648,491.667,1563.641Z" transform="translate(-466.676 -1473.31)" fill="#f5c04b"/>
            <path id="パス_24165" data-name="パス 24165" d="M647.285,1386.875c.128.052.259.1.387.14a8.138,8.138,0,0,0,1.484.356,4.49,4.49,0,0,0,4.435-1.791l.044-.061-.071-.115a16.2,16.2,0,0,0-3.987-4.5,10.445,10.445,0,0,0-1.132-.8c-.192-.119-.391-.223-.581-.328s-.382-.206-.574-.293a6.578,6.578,0,0,0-1.159-.412,5.145,5.145,0,0,0-1.122-.176,9.939,9.939,0,0,1-1.119-.1c-.189-.028-.379-.063-.568-.1s-.368-.089-.551-.138a15.935,15.935,0,0,1-2.057-.722c-.6-.276-1.121-.548-1.487-.754s-.581-.339-.581-.339c.208.583.461,1.188.752,1.8.073.154.145.311.225.462s.167.3.253.454c.172.3.35.609.538.913a19.592,19.592,0,0,0,1.227,1.771c.22.284.432.576.669.843s.469.534.705.792.5.534.753.773.522.461.782.672.521.408.779.593.532.337.794.487.525.283.782.4C647.031,1386.763,647.159,1386.821,647.285,1386.875Z" transform="translate(-633.035 -1305.199)" fill="#f5c04b"/>
            <path id="パス_24166" data-name="パス 24166" d="M770.415,1171.905c.1.084.206.162.308.239s.212.145.317.213q.316.2.628.361a6.037,6.037,0,0,0,1.218.48,4.442,4.442,0,0,0,1.172.127,3.51,3.51,0,0,0,2.022-.705l.052-.04-.035-.129a19.241,19.241,0,0,0-1.063-2.875c-.228-.445-.439-.9-.688-1.321s-.516-.824-.775-1.22a11.125,11.125,0,0,0-.846-1.094,10.585,10.585,0,0,0-.893-.948,7.949,7.949,0,0,0-.952-.754,4.86,4.86,0,0,0-.973-.531,12.948,12.948,0,0,1-3.637-2.358c-.481-.442-.887-.855-1.17-1.157s-.448-.49-.448-.49a22.382,22.382,0,0,0,2.326,7.746,14.683,14.683,0,0,0,2.2,3.3A12.659,12.659,0,0,0,770.415,1171.905Z" transform="translate(-763.475 -1101.848)" fill="#f5c04b"/>
            <path id="パス_24167" data-name="パス 24167" d="M848.56,942.785a7.846,7.846,0,0,0,.92,1.154,5.487,5.487,0,0,0,1.99,1.36,3.2,3.2,0,0,0,1.993.061l.055-.017v-.127c0-.248-.015-.492-.026-.738s-.023-.5-.044-.744c-.041-.492-.118-.977-.2-1.457a13.268,13.268,0,0,0-.3-1.422c-.058-.232-.135-.459-.2-.688s-.132-.45-.208-.67a12.781,12.781,0,0,0-.509-1.267,10.317,10.317,0,0,0-.579-1.15,8.75,8.75,0,0,0-.685-.991,5.275,5.275,0,0,0-.75-.8c-.266-.225-.528-.473-.784-.736a10.436,10.436,0,0,1-.731-.829A20.619,20.619,0,0,1,847.279,932l-.25-.4c-.076-.131-.145-.257-.212-.374-.134-.237-.247-.452-.342-.63-.186-.359-.291-.579-.291-.579a22.209,22.209,0,0,0,.334,7.648c.071.342.15.677.233,1,.042.162.084.325.129.483s.1.312.153.466a17.761,17.761,0,0,0,.69,1.717A11.489,11.489,0,0,0,848.56,942.785Z" transform="translate(-845.986 -886.639)" fill="#f5c04b"/>
            <path id="パス_24168" data-name="パス 24168" d="M866.329,716.852a12.364,12.364,0,0,0,.4,1.56,10.414,10.414,0,0,0,.561,1.33c.843,1.614,1.986,2.524,3.221,2.614l.054,0,.029-.114a16.509,16.509,0,0,0,.459-5.442,12.139,12.139,0,0,0-.154-1.3c-.039-.213-.078-.421-.119-.623s-.092-.4-.144-.6a9.77,9.77,0,0,0-.385-1.112,5.677,5.677,0,0,0-.5-.956c-.188-.288-.369-.6-.539-.915s-.318-.646-.464-.977-.278-.665-.4-.991-.221-.642-.315-.944c-.183-.6-.33-1.136-.414-1.517s-.126-.609-.126-.609c-.1.229-.2.468-.292.719s-.173.513-.254.784-.16.548-.234.832-.131.581-.19.88-.116.6-.167.908-.086.62-.124.93-.07.627-.1.939-.039.63-.055.941c-.014.328-.022.651-.02.969s.022.632.042.937A13.094,13.094,0,0,0,866.329,716.852Z" transform="translate(-864.844 -676.983)" fill="#f5c04b"/>
            <path id="パス_24169" data-name="パス 24169" d="M817.707,518.835c.045.215.1.419.154.616s.128.389.2.571a5.424,5.424,0,0,0,.5.977,3.406,3.406,0,0,0,1.384,1.251l.047.021.054-.091a14.023,14.023,0,0,0,1.691-4.684,11.234,11.234,0,0,0,.163-1.211c.028-.4.055-.789.047-1.174a9.156,9.156,0,0,0-.089-1.115,6.027,6.027,0,0,0-.228-1.017c-.1-.318-.193-.649-.275-.988s-.14-.679-.195-1.021a17.955,17.955,0,0,1-.209-1.951c-.032-.592-.039-1.11-.038-1.48s.019-.581.019-.581a17.5,17.5,0,0,0-2.8,5.676c-.087.284-.167.569-.238.848s-.125.566-.177.843a13.046,13.046,0,0,0-.2,1.627,13.189,13.189,0,0,0,0,1.515A10.887,10.887,0,0,0,817.707,518.835Z" transform="translate(-812.626 -490.239)" fill="#f5c04b"/>
            <path id="パス_24170" data-name="パス 24170" d="M702.924,361.371l.036.035.07-.061a11.458,11.458,0,0,0,2.586-3.576,10.107,10.107,0,0,0,.417-1.023,8.667,8.667,0,0,0,.31-1.026,6.96,6.96,0,0,0,.2-1.993c-.02-.314-.029-.64-.025-.965s.026-.646.052-.967a17.313,17.313,0,0,1,.238-1.8c.1-.536.208-.995.288-1.321.041-.164.074-.293.1-.379s.036-.122.038-.133a14.22,14.22,0,0,0-3.714,4.108,12.587,12.587,0,0,0-.746,1.351,14.129,14.129,0,0,0-.545,1.363,9.931,9.931,0,0,0-.49,2.607,6.249,6.249,0,0,0,.257,2.2A3.789,3.789,0,0,0,702.924,361.371Z" transform="translate(-690.608 -341.455)" fill="#f5c04b"/>
            <path id="パス_24171" data-name="パス 24171" d="M539.522,251.961l.074-.031a8.691,8.691,0,0,0,3.1-2.286,8.6,8.6,0,0,0,1.1-1.572,5.818,5.818,0,0,0,.619-1.693,11.169,11.169,0,0,1,.451-1.695,14.922,14.922,0,0,1,.6-1.51c.411-.88.772-1.485.772-1.485a11.505,11.505,0,0,0-4.163,2.424,9.183,9.183,0,0,0-2.759,4.087,4.831,4.831,0,0,0,.176,3.717Z" transform="translate(-519.369 -241.688)" fill="#f5c04b"/>
            <path id="パス_24172" data-name="パス 24172" d="M308.408,1426.21a9.859,9.859,0,0,0-.666-1.286c-.063-.1-.126-.2-.193-.3s-.132-.209-.2-.311q-.2-.307-.43-.6c-.148-.194-.3-.38-.464-.562s-.324-.353-.493-.539a10.3,10.3,0,0,0-1.066-1,9.894,9.894,0,0,0-1.159-.9,10.754,10.754,0,0,0-1.249-.78,20.947,20.947,0,0,0-4.789-2.135s.071.218.193.6c.06.192.132.426.215.695.041.135.084.279.131.431l.151.462c.1.325.215.679.333,1.052s.236.785.366,1.18c.254.8.512,1.679.737,2.552a6.151,6.151,0,0,0,.49,1.257,6.75,6.75,0,0,0,.349.6c.064.1.129.194.2.288s.143.178.217.265a7.927,7.927,0,0,0,1.012.977,4.485,4.485,0,0,0,.584.408q.305.189.628.351a6.912,6.912,0,0,0,5.68.26l.118-.047,0-.085A8.452,8.452,0,0,0,308.408,1426.21Z" transform="translate(-267.014 -1343.679)" fill="#f5c04b"/>
            <path id="パス_24173" data-name="パス 24173" d="M463.337,1338.793l.044.609c.026.389.057.948.089,1.625.042.658.09,1.431.122,2.267.007.211.017.421.028.628s.017.422.026.637c.015.429.022.866.02,1.3a5.448,5.448,0,0,0,.141,1.316,7.651,7.651,0,0,0,.422,1.305c.045.107.093.216.144.321s.108.206.164.307c.116.2.24.4.374.6a6.994,6.994,0,0,0,.91,1.119,8.551,8.551,0,0,0,1.1.948,9.825,9.825,0,0,0,1.247.717,6.4,6.4,0,0,0,2.718.578l.119,0,.016-.08a8.126,8.126,0,0,0,.079-2.784c-.032-.234-.073-.464-.121-.7s-.1-.475-.16-.709a11.927,11.927,0,0,0-.452-1.381,16,16,0,0,0-3.121-5.011A22.07,22.07,0,0,0,463.337,1338.793Z" transform="translate(-439.535 -1269.65)" fill="#f5c04b"/>
            <path id="パス_24174" data-name="パス 24174" d="M605.445,1235.592c-.058-.239-.122-.478-.195-.712s-.153-.466-.234-.7-.161-.475-.253-.709-.19-.461-.3-.686-.2-.466-.317-.693a24.153,24.153,0,0,0-2.765-4.623s-.035.209-.095.572-.157.883-.279,1.511-.235,1.335-.394,2.108c-.077.379-.159.773-.24,1.173s-.174.792-.273,1.187a5.834,5.834,0,0,0-.177,1.248,7.9,7.9,0,0,0,.089,1.318q.052.338.131.681a6.965,6.965,0,0,0,.2.668,10.381,10.381,0,0,0,.558,1.325,7.984,7.984,0,0,0,4.052,3.765l.108.038.035-.066a9.26,9.26,0,0,0,.738-5.266,12.805,12.805,0,0,0-.228-1.426C605.554,1236.066,605.5,1235.827,605.445,1235.592Z" transform="translate(-582.883 -1165.342)" fill="#f5c04b"/>
            <path id="パス_24175" data-name="パス 24175" d="M697.871,1101.035a8.756,8.756,0,0,0,2.759,4.773l.087.073.047-.047a6.039,6.039,0,0,0,1.262-1.988,9.02,9.02,0,0,0,.39-1.2,11.231,11.231,0,0,0,.263-1.309c.032-.223.057-.448.076-.675s.032-.463.048-.691a12.73,12.73,0,0,0,0-1.414,17.949,17.949,0,0,0-.35-2.913,25.818,25.818,0,0,0-1.46-5.142l-.215.492c-.14.311-.342.754-.593,1.286-.471,1.045-1.134,2.466-1.833,3.754a5.5,5.5,0,0,0-.446,1.072,6.5,6.5,0,0,0-.222,1.22,8.449,8.449,0,0,0-.019,1.333A11.084,11.084,0,0,0,697.871,1101.035Z" transform="translate(-685.941 -1037.005)" fill="#f5c04b"/>
            <path id="パス_24176" data-name="パス 24176" d="M748.171,947.3c.134-.415.23-.84.328-1.279a11.8,11.8,0,0,0,.234-1.353l.035-.346c.016-.119.029-.236.041-.354.025-.236.041-.475.051-.716a25.713,25.713,0,0,0-.151-5.2l-.307.382-.358.433c-.07.082-.144.169-.222.264s-.154.189-.236.29c-.331.4-.725.871-1.159,1.356-.214.237-.433.483-.657.735s-.455.487-.69.719a4.54,4.54,0,0,0-.65.82,5.688,5.688,0,0,0-.48,1.026,8.643,8.643,0,0,0-.33,1.194,10.183,10.183,0,0,0-.129,1.306c-.009.225-.012.454-.007.682a6.767,6.767,0,0,0,.054.686,12.561,12.561,0,0,0,.237,1.37,9.81,9.81,0,0,0,.44,1.305c.086.209.179.415.278.614s.219.387.337.572l.063.094.054-.026a4.724,4.724,0,0,0,1.6-1.342,8.367,8.367,0,0,0,1.186-2.037C747.879,948.118,748.045,947.713,748.171,947.3Z" transform="translate(-734.926 -894.164)" fill="#f5c04b"/>
            <path id="パス_24177" data-name="パス 24177" d="M731,787.541a4.522,4.522,0,0,0-.265.506,8.947,8.947,0,0,0-.449,6.264l.033.1.055-.005a5.083,5.083,0,0,0,3.287-2.084,12.954,12.954,0,0,0,2.226-4.372,23.463,23.463,0,0,0,1.048-4.761s-.134.091-.368.246-.552.375-.951.63l-.641.407c-.221.145-.458.293-.7.443s-.5.3-.763.447-.516.292-.781.424a3.676,3.676,0,0,0-.763.527,4.491,4.491,0,0,0-.667.764C731.2,787.226,731.1,787.38,731,787.541Z" transform="translate(-722.09 -749.066)" fill="#f5c04b"/>
            <path id="パス_24178" data-name="パス 24178" d="M676.248,646.678l.049.014a3.443,3.443,0,0,0,1.717.017,4.748,4.748,0,0,0,.861-.293c.141-.065.281-.136.42-.213s.284-.159.423-.248a6.84,6.84,0,0,0,.814-.609,8.642,8.642,0,0,0,.784-.738c.243-.271.5-.552.734-.86.119-.152.227-.314.344-.475s.228-.328.336-.5a19.423,19.423,0,0,0,2.038-3.971s-.14.04-.384.106-.583.164-1,.267-.887.225-1.4.335c-.254.056-.52.1-.785.154s-.528.094-.794.126a3.012,3.012,0,0,0-.8.222,3.8,3.8,0,0,0-.77.462,4.771,4.771,0,0,0-.724.675,7.523,7.523,0,0,0-.641.86,8.491,8.491,0,0,0-1.23,4.562Z" transform="translate(-666.538 -613.775)" fill="#f5c04b"/>
            <path id="パス_24179" data-name="パス 24179" d="M589.257,512.825l-.023.094.041.03a3.323,3.323,0,0,0,1.513.6,4.783,4.783,0,0,0,1.691-.1,6.807,6.807,0,0,0,1.733-.677,6.9,6.9,0,0,0,.859-.529,10.2,10.2,0,0,0,.836-.654,15.326,15.326,0,0,0,2.734-2.918l-.366-.021c-.231-.014-.56-.037-.954-.073s-.842-.079-1.323-.143c-.24-.031-.486-.068-.734-.112s-.493-.087-.735-.143a2.849,2.849,0,0,0-1.557.1,4.655,4.655,0,0,0-.8.361,5.589,5.589,0,0,0-.762.558A6.985,6.985,0,0,0,589.257,512.825Z" transform="translate(-574.927 -491.322)" fill="#f5c04b"/>
            <path id="パス_24180" data-name="パス 24180" d="M478.479,394.933a5.627,5.627,0,0,0-2.736,2.48l-.041.075.028.04a3.872,3.872,0,0,0,2.705,1.506,6.726,6.726,0,0,0,3.476-.532,11.863,11.863,0,0,0,3.1-1.723s-.47-.18-1.154-.5c-.344-.166-.731-.332-1.143-.545s-.843-.447-1.247-.695a2.782,2.782,0,0,0-1.4-.415A3.891,3.891,0,0,0,478.479,394.933Z" transform="translate(-454.139 -384.99)" fill="#f5c04b"/>
          </g>
          <path id="合体_35" data-name="合体 35" d="M15287,19249a79,79,0,1,1,150.061,34.549l16.948,28.268-31.8-7.311A79,79,0,0,1,15287,19249Z" transform="translate(-14866 -19064)" fill="#0e4cc3"/>
          <path id="パス_24181" data-name="パス 24181" d="M23.85-14.355A32.253,32.253,0,0,1,27.5-12.1h-4.41c.09.99.135,1.53.18,2.745l-3.69-1.755a37.692,37.692,0,0,1-.855,3.96c-.18-1.575-.405-3.105-.855-5.535l-3.69.72a50.754,50.754,0,0,1,.81,8.6l2.16-.45a15.939,15.939,0,0,1-1.71,2.655l5,3.825a33.982,33.982,0,0,0,2.835-7.74V.045c0,1.485.225,2.25.855,2.7.855.63,2.475.9,5.265.9,6.615,0,7.56-.81,8.145-6.66a28.4,28.4,0,0,1,1.035,4.68l6.03-3.15A56.437,56.437,0,0,0,40.05-13.05l-5.535,2.565a34.272,34.272,0,0,1,2.385,5.4,25.081,25.081,0,0,1-4.815-1.71c-.045,2.025-.045,3.06-.045,3.1-.09.72-.225,1.08-.5,1.215a4.617,4.617,0,0,1-1.215.18c-.81,0-.945-.135-.945-.81v-7.38A20.292,20.292,0,0,1,31.23-8.55l4.185-4.365a36.069,36.069,0,0,0-4.815-3.51c3.285-.36,3.825-.45,5.8-.765.54,1.215.675,1.485,1.4,3.015l5.58-3.555a66.651,66.651,0,0,0-7.155-10.755L31.23-25.92c1.17,1.665,1.53,2.2,2.34,3.465-1.8.18-3.42.27-5.49.4a82.16,82.16,0,0,0,4.32-8.055L26.775-31.68c2.16-2.655,2.16-2.655,2.88-3.6L23.76-38.43a22.981,22.981,0,0,1-5.94,6.66l-4-2.025a49.766,49.766,0,0,1-4.1,7.38,12.284,12.284,0,0,0-.945-1.35,63.076,63.076,0,0,0,4.23-7.515,8.015,8.015,0,0,1,.72-1.305L7.92-38.88a25.5,25.5,0,0,1-2.655,6.525L4.185-33.66l-2.97,5.49a54.431,54.431,0,0,1,4.95,6.93c-.63.855-.63.9-1.125,1.53H4.41l-.4.045a18.933,18.933,0,0,1-2.565-.18L1.98-13.5c.9-.135,2.52-.27,5.76-.45V-.765a35.208,35.208,0,0,1-.27,4.95h6.345a27.265,27.265,0,0,1-.27-4.995V-14.4a5,5,0,0,0,1.035-.09c.27,0,.27,0,.945-.045l.225,1.665,4.1-1.215a47.927,47.927,0,0,0-3.015-9.99L13.68-22.95c1.62-2.25,2.655-3.69,3.42-4.95a18.135,18.135,0,0,1,2.3,3.33,34.374,34.374,0,0,0,6.165-5.625,49.9,49.9,0,0,1-4.23,8.28c-.315,0-.585.045-.765.045H19.98a5.152,5.152,0,0,1-.675-.045l.99,6.57a16.753,16.753,0,0,1,3.51-.405c.45-.045,1.08-.09,1.98-.18Zm-10.485-8.19a26.544,26.544,0,0,1,.9,2.52c-1.35.135-1.62.135-3.015.225C12.24-21.06,12.645-21.6,13.365-22.545ZM2.7-12.645A50.23,50.23,0,0,1,1.215-.315L5.58,1.98A74.208,74.208,0,0,0,6.975-12.06Zm27.36-22.59c.5.54.765.81,1.17,1.305a30.349,30.349,0,0,0,4.95,5.13,27.851,27.851,0,0,0,5.04,3.555,26.677,26.677,0,0,1,3.33-6.21,21.8,21.8,0,0,1-9.135-7.065Zm28.665,15.8a41.581,41.581,0,0,1,4.185-.18H79.29a37.752,37.752,0,0,1,4.32.18v-2.475a47.994,47.994,0,0,0,6.075,2.925,25.235,25.235,0,0,1,3.15-7.065A37.406,37.406,0,0,1,82.26-31.05a25.72,25.72,0,0,1-7.695-7.065H67.23a26.79,26.79,0,0,1-7.47,7.245,35.719,35.719,0,0,1-10.44,5.13,24.077,24.077,0,0,1,3.375,6.615A43.762,43.762,0,0,0,58.725-22Zm5.94-6.39a31.94,31.94,0,0,0,6.345-6.21,34.954,34.954,0,0,0,6.615,6.21Zm-2.61,29.7V2.025H80.1V3.87h7.245a30.038,30.038,0,0,1-.27-5v-11.16a33.97,33.97,0,0,1,.225-4.77c-1.08.09-2.385.135-4.365.135H59.175c-1.98,0-3.285-.045-4.32-.135a44.506,44.506,0,0,1,.225,4.77V-1.17a38.04,38.04,0,0,1-.27,5.04Zm0-14.535H80.1V-4.23H62.055ZM18.09,12.515a20.274,20.274,0,0,1,.225,3.51c0,8.325-1.44,15.03-4.275,20.025C11.295,40.91,7.56,44.24.9,47.57a21.392,21.392,0,0,1,4.59,6.615,39.812,39.812,0,0,0,9.675-7.47c3.51-3.645,5.445-7.065,7.38-12.96A33.348,33.348,0,0,0,28.62,44.96,40.211,40.211,0,0,0,39.6,54.23a26.158,26.158,0,0,1,4.59-7.11,30.15,30.15,0,0,1-7.875-5.13,29.651,29.651,0,0,1-8.46-12.555A44.957,44.957,0,0,1,26.01,16.16a18.158,18.158,0,0,1,.27-3.645Zm53.46,22.14h7.065c.045,6.57.765,10.665,2.34,14.31,1.44,3.195,3.735,5.22,6.03,5.22a4.325,4.325,0,0,0,3.78-2.205c.945-1.62,1.53-4.05,1.98-8.595a17.107,17.107,0,0,1-4.815-3.24v.81a12.164,12.164,0,0,1-.675,4.9c-1.35-1.935-1.98-6.12-1.98-12.825A34.694,34.694,0,0,1,85.5,28.58c-1.4.09-2.295.135-5.4.135H55.845a22.705,22.705,0,0,1-3.51-.18V34.88A56.506,56.506,0,0,1,58,34.655h.945L54.36,38.84a78.4,78.4,0,0,1,6.84,4.5c-3.15,2.2-5.4,3.33-10.89,5.355a22.33,22.33,0,0,1,4.5,5.9,49.256,49.256,0,0,0,11.88-6.975c3.06,2.52,4.77,4.095,7.065,6.345l4.725-5.265c-2.7-2.34-3.69-3.195-6.93-5.67a38.839,38.839,0,0,0,3.33-4.185c.99-1.35,1.17-1.575,1.53-2.025Zm-2.2,0a21.97,21.97,0,0,1-3.24,4.41c-2.34-1.62-3.78-2.52-7.02-4.41Zm-10.62-7.2a40.711,40.711,0,0,1,4.365-.18H81.72c2.34,0,3.69.045,5.13.18V21.83a46.369,46.369,0,0,1-5.13.18H60.345c.45-.675.585-.855.945-1.4H84.42c2.25,0,3.915.09,5.535.225V14.18a44.646,44.646,0,0,1-5.535.27H64.845c.675-1.4,1.08-2.205,1.17-2.385L58.59,11.21a10.917,10.917,0,0,1-1.125,2.97,29.681,29.681,0,0,1-7.83,9.36,22.651,22.651,0,0,1,4.95,4.995,41.565,41.565,0,0,0,4.14-4.455Z" transform="translate(451.92 184.113) rotate(-8)" fill="#fff"/>
        </g>
      </g>
    </g>
    <g id="グループ_1123" data-name="グループ 1123" transform="translate(4634.586 1166.303)">
      <path id="パス_24163-2" data-name="パス 24163" d="M303.859,1634.241q.371.016.737.058c.244.03.487.072.723.1a8.5,8.5,0,0,1,1.387.312c.112.035.222.073.333.112s.215.072.321.112q.32.118.624.264a6.322,6.322,0,0,1,1.132.7,12.931,12.931,0,0,0,2.25,1.352,11.562,11.562,0,0,0,1.173.482c.385.14.762.26,1.119.365.177.052.352.1.518.145l.474.1c.3.063.57.112.794.148.449.073.72.1.72.1a15.028,15.028,0,0,1-1.649,1.143c-.453.251-.929.5-1.42.729-.07.031-.14.065-.211.1l-.286.127-.012.005c-.675.262-1.371.513-2.079.717-.718.181-1.441.353-2.159.469a14.608,14.608,0,0,1-2.2.157,13.694,13.694,0,0,1-2.04-.218,12.085,12.085,0,0,1-1.817-.558,6.06,6.06,0,0,1-.811-.387c-.259-.141-.506-.293-.74-.45s-.455-.324-.664-.5c-.1-.087-.2-.175-.3-.264s-.192-.192-.283-.29a7.113,7.113,0,0,1-.929-1.236,6.186,6.186,0,0,1-.853-2.784l-.006-.087.126-.054A14.681,14.681,0,0,1,303.859,1634.241Z" transform="translate(-297.698 -1546.462)" fill="#f5c04b"/>
      <path id="パス_24164-2" data-name="パス 24164" d="M485.447,1563.641a6.78,6.78,0,0,1-2.983-.708,5.847,5.847,0,0,1-.6-.349,5.375,5.375,0,0,1-.541-.427,5.249,5.249,0,0,1-1.465-2.22l-.028-.077.1-.091a14.827,14.827,0,0,1,2.519-1.794,10.545,10.545,0,0,1,1.336-.684,13.119,13.119,0,0,1,1.353-.539c.459-.138.906-.279,1.355-.377.224-.047.448-.087.67-.117.112-.016.224-.028.334-.038s.217-.028.326-.037a6.607,6.607,0,0,1,1.272,0,5.828,5.828,0,0,1,.611.1,4.537,4.537,0,0,1,.576.145,10.2,10.2,0,0,0,1.159.3c.2.038.4.073.6.1s.4.054.6.066a16.418,16.418,0,0,0,2.269.007c.682-.063,1.276-.157,1.7-.236s.675-.138.675-.138a18.726,18.726,0,0,1-1.22,1.567c-.222.269-.471.51-.721.759s-.512.494-.779.738c-.134.119-.266.244-.407.358l-.426.339c-.286.223-.577.443-.871.656-.148.106-.294.217-.445.316l-.458.29q-.46.285-.92.553a11.925,11.925,0,0,1-3.823,1.405,7.072,7.072,0,0,1-.9.119C486.02,1563.643,485.729,1563.648,485.447,1563.641Z" transform="translate(-468.351 -1473.31)" fill="#f5c04b"/>
      <path id="パス_24165-2" data-name="パス 24165" d="M644.993,1386.875c-.128.052-.259.1-.387.14a8.138,8.138,0,0,1-1.484.356,4.49,4.49,0,0,1-4.435-1.791l-.044-.061.071-.115a16.2,16.2,0,0,1,3.987-4.5,10.445,10.445,0,0,1,1.132-.8c.192-.119.391-.223.581-.328s.382-.206.574-.293a6.578,6.578,0,0,1,1.159-.412,5.145,5.145,0,0,1,1.122-.176,9.939,9.939,0,0,0,1.119-.1c.189-.028.379-.063.568-.1s.368-.089.551-.138a15.935,15.935,0,0,0,2.057-.722c.6-.276,1.121-.548,1.487-.754s.581-.339.581-.339c-.208.583-.461,1.188-.752,1.8-.073.154-.145.311-.225.462s-.167.3-.253.454c-.172.3-.35.609-.538.913a19.592,19.592,0,0,1-1.227,1.771c-.22.284-.432.576-.669.843s-.469.534-.705.792-.5.534-.753.773-.522.461-.782.672-.521.408-.779.593-.532.337-.794.487-.525.283-.782.4C645.247,1386.763,645.119,1386.821,644.993,1386.875Z" transform="translate(-617.156 -1305.199)" fill="#f5c04b"/>
      <path id="パス_24166-2" data-name="パス 24166" d="M770.372,1171.905c-.1.084-.206.162-.308.239s-.212.145-.317.213q-.316.2-.628.361a6.037,6.037,0,0,1-1.218.48,4.442,4.442,0,0,1-1.172.127,3.51,3.51,0,0,1-2.022-.705l-.052-.04.035-.129a19.241,19.241,0,0,1,1.063-2.875c.228-.445.439-.9.688-1.321s.516-.824.775-1.22a11.125,11.125,0,0,1,.846-1.094,10.585,10.585,0,0,1,.893-.948,7.949,7.949,0,0,1,.952-.754,4.86,4.86,0,0,1,.973-.531,12.948,12.948,0,0,0,3.637-2.358c.481-.442.887-.855,1.17-1.157s.448-.49.448-.49a22.382,22.382,0,0,1-2.326,7.746,14.683,14.683,0,0,1-2.2,3.3A12.659,12.659,0,0,1,770.372,1171.905Z" transform="translate(-735.225 -1101.848)" fill="#f5c04b"/>
      <path id="パス_24167-2" data-name="パス 24167" d="M850.945,942.785a7.846,7.846,0,0,1-.92,1.154,5.487,5.487,0,0,1-1.99,1.36,3.2,3.2,0,0,1-1.993.061l-.055-.017v-.127c0-.248.015-.492.026-.738s.023-.5.044-.744c.041-.492.118-.977.2-1.457a13.268,13.268,0,0,1,.3-1.422c.058-.232.135-.459.2-.688s.132-.45.208-.67a12.781,12.781,0,0,1,.509-1.267,10.317,10.317,0,0,1,.579-1.15,8.75,8.75,0,0,1,.685-.991,5.275,5.275,0,0,1,.75-.8c.266-.225.528-.473.784-.736a10.436,10.436,0,0,0,.731-.829A20.619,20.619,0,0,0,852.225,932l.25-.4c.076-.131.145-.257.212-.374.134-.237.247-.452.342-.63.186-.359.291-.579.291-.579a22.209,22.209,0,0,1-.334,7.648c-.071.342-.15.677-.233,1-.042.162-.084.325-.129.483s-.1.312-.153.466a17.761,17.761,0,0,1-.69,1.717A11.489,11.489,0,0,1,850.945,942.785Z" transform="translate(-811.431 -886.639)" fill="#f5c04b"/>
      <path id="パス_24168-2" data-name="パス 24168" d="M870.843,716.852a12.364,12.364,0,0,1-.4,1.56,10.414,10.414,0,0,1-.561,1.33c-.843,1.614-1.986,2.524-3.221,2.614l-.054,0-.029-.114a16.509,16.509,0,0,1-.459-5.442,12.139,12.139,0,0,1,.154-1.3c.039-.213.078-.421.119-.623s.092-.4.144-.6a9.77,9.77,0,0,1,.385-1.112,5.677,5.677,0,0,1,.5-.956c.188-.288.369-.6.539-.915s.318-.646.464-.977.278-.665.4-.991.221-.642.315-.944c.183-.6.33-1.136.414-1.517s.126-.609.126-.609c.1.229.2.468.292.719s.173.513.254.784.16.548.234.832.131.581.19.88.116.6.167.908.086.62.124.93.07.627.1.939.039.63.055.941c.014.328.022.651.02.969s-.022.632-.042.937A13.094,13.094,0,0,1,870.843,716.852Z" transform="translate(-830.241 -676.983)" fill="#f5c04b"/>
      <path id="パス_24169-2" data-name="パス 24169" d="M821.743,518.835c-.045.215-.1.419-.154.616s-.128.389-.2.571a5.424,5.424,0,0,1-.5.977,3.406,3.406,0,0,1-1.384,1.251l-.047.021-.054-.091a14.023,14.023,0,0,1-1.691-4.684,11.234,11.234,0,0,1-.163-1.211c-.028-.4-.055-.789-.047-1.174a9.156,9.156,0,0,1,.089-1.115,6.027,6.027,0,0,1,.228-1.017c.1-.318.193-.649.275-.988s.14-.679.195-1.021a17.955,17.955,0,0,0,.209-1.951c.032-.592.039-1.11.038-1.48s-.019-.581-.019-.581a17.5,17.5,0,0,1,2.8,5.676c.087.284.167.569.238.848s.125.566.177.843a13.046,13.046,0,0,1,.2,1.627,13.189,13.189,0,0,1,0,1.515A10.887,10.887,0,0,1,821.743,518.835Z" transform="translate(-784.737 -490.239)" fill="#f5c04b"/>
      <path id="パス_24170-2" data-name="パス 24170" d="M706.036,361.371l-.036.035-.07-.061a11.458,11.458,0,0,1-2.586-3.576,10.107,10.107,0,0,1-.417-1.023,8.667,8.667,0,0,1-.31-1.026,6.96,6.96,0,0,1-.2-1.993c.02-.314.029-.641.025-.965s-.026-.646-.052-.967a17.313,17.313,0,0,0-.238-1.8c-.1-.536-.208-.995-.288-1.321-.041-.164-.074-.293-.1-.379s-.036-.122-.038-.133a14.22,14.22,0,0,1,3.714,4.108,12.585,12.585,0,0,1,.746,1.351,14.129,14.129,0,0,1,.545,1.363,9.931,9.931,0,0,1,.49,2.607,6.249,6.249,0,0,1-.257,2.2A3.789,3.789,0,0,1,706.036,361.371Z" transform="translate(-676.266 -341.455)" fill="#f5c04b"/>
      <path id="パス_24171-2" data-name="パス 24171" d="M545.766,251.961l-.074-.031a8.691,8.691,0,0,1-3.1-2.286,8.6,8.6,0,0,1-1.1-1.572,5.818,5.818,0,0,1-.619-1.693,11.169,11.169,0,0,0-.451-1.695,14.922,14.922,0,0,0-.6-1.51c-.411-.88-.772-1.485-.772-1.485a11.505,11.505,0,0,1,4.163,2.424,9.183,9.183,0,0,1,2.759,4.087,4.831,4.831,0,0,1-.176,3.717Z" transform="translate(-523.832 -241.688)" fill="#f5c04b"/>
      <path id="パス_24172-2" data-name="パス 24172" d="M298.391,1426.21a9.859,9.859,0,0,1,.666-1.286c.063-.1.126-.2.193-.3s.132-.209.2-.311q.2-.307.43-.6c.148-.194.3-.38.464-.562s.324-.353.493-.539a10.3,10.3,0,0,1,1.066-1,9.894,9.894,0,0,1,1.159-.9,10.754,10.754,0,0,1,1.249-.78,20.947,20.947,0,0,1,4.789-2.135s-.071.218-.193.6c-.06.192-.132.426-.215.695-.041.135-.084.279-.131.431l-.151.462c-.1.325-.215.679-.333,1.052s-.236.785-.366,1.18c-.254.8-.512,1.679-.737,2.552a6.151,6.151,0,0,1-.49,1.257,6.75,6.75,0,0,1-.349.6c-.064.1-.129.194-.2.288s-.143.178-.217.265a7.927,7.927,0,0,1-1.012.977,4.485,4.485,0,0,1-.584.408q-.305.189-.628.351a6.912,6.912,0,0,1-5.68.26l-.118-.047,0-.085A8.452,8.452,0,0,1,298.391,1426.21Z" transform="translate(-297.698 -1343.679)" fill="#f5c04b"/>
      <path id="パス_24173-2" data-name="パス 24173" d="M471.183,1338.793l-.044.609c-.026.389-.057.948-.089,1.625-.042.658-.09,1.431-.122,2.267-.007.211-.017.421-.028.628s-.017.422-.026.637c-.015.429-.022.866-.02,1.3a5.448,5.448,0,0,1-.141,1.316,7.651,7.651,0,0,1-.422,1.305c-.045.107-.093.216-.144.321s-.108.206-.164.307c-.116.2-.24.4-.374.6a6.994,6.994,0,0,1-.91,1.119,8.551,8.551,0,0,1-1.1.948,9.825,9.825,0,0,1-1.247.717,6.4,6.4,0,0,1-2.718.578l-.119,0-.016-.08a8.126,8.126,0,0,1-.079-2.784c.032-.234.073-.464.121-.7s.1-.475.16-.709a11.927,11.927,0,0,1,.452-1.381,16,16,0,0,1,3.121-5.011A22.07,22.07,0,0,1,471.183,1338.793Z" transform="translate(-452.898 -1269.65)" fill="#f5c04b"/>
      <path id="パス_24174-2" data-name="パス 24174" d="M600.4,1235.592c.058-.239.122-.478.195-.712s.153-.466.234-.7.161-.475.253-.709.19-.461.3-.686.2-.466.317-.693a24.153,24.153,0,0,1,2.765-4.623s.035.209.095.572.157.883.279,1.511.235,1.335.394,2.108c.077.379.159.773.24,1.173s.174.792.273,1.187a5.834,5.834,0,0,1,.177,1.248,7.9,7.9,0,0,1-.089,1.318q-.052.338-.131.681a6.965,6.965,0,0,1-.2.668,10.381,10.381,0,0,1-.558,1.325,7.984,7.984,0,0,1-4.052,3.765l-.108.038-.035-.066a9.26,9.26,0,0,1-.738-5.266,12.805,12.805,0,0,1,.228-1.426C600.294,1236.066,600.349,1235.827,600.4,1235.592Z" transform="translate(-580.878 -1165.342)" fill="#f5c04b"/>
      <path id="パス_24175-2" data-name="パス 24175" d="M702.6,1101.035a8.756,8.756,0,0,1-2.759,4.773l-.087.073-.047-.047a6.039,6.039,0,0,1-1.262-1.988,9.02,9.02,0,0,1-.39-1.2,11.231,11.231,0,0,1-.263-1.309c-.032-.223-.057-.448-.076-.675s-.032-.463-.048-.691a12.73,12.73,0,0,1,0-1.414,17.949,17.949,0,0,1,.35-2.913,25.818,25.818,0,0,1,1.46-5.142l.215.492c.14.311.342.754.593,1.286.471,1.045,1.134,2.466,1.833,3.754a5.5,5.5,0,0,1,.446,1.072,6.5,6.5,0,0,1,.222,1.22,8.449,8.449,0,0,1,.019,1.333A11.084,11.084,0,0,1,702.6,1101.035Z" transform="translate(-672.44 -1037.005)" fill="#f5c04b"/>
      <path id="パス_24176-2" data-name="パス 24176" d="M744.23,947.3c-.134-.415-.23-.84-.328-1.279a11.8,11.8,0,0,1-.234-1.353l-.035-.346c-.016-.119-.029-.236-.041-.354-.025-.236-.041-.475-.051-.716a25.713,25.713,0,0,1,.151-5.2l.307.382.358.433c.07.082.144.169.222.264s.154.189.236.29c.331.4.725.871,1.159,1.356.214.237.433.483.657.735s.455.487.691.719a4.54,4.54,0,0,1,.65.82,5.688,5.688,0,0,1,.48,1.026,8.643,8.643,0,0,1,.33,1.194,10.183,10.183,0,0,1,.129,1.306c.009.225.012.454.007.682a6.767,6.767,0,0,1-.054.686,12.561,12.561,0,0,1-.237,1.37,9.81,9.81,0,0,1-.44,1.305c-.086.209-.179.415-.278.614s-.219.387-.337.572l-.062.094-.054-.026a4.723,4.723,0,0,1-1.6-1.342,8.367,8.367,0,0,1-1.186-2.037C744.522,948.118,744.356,947.713,744.23,947.3Z" transform="translate(-715.388 -894.164)" fill="#f5c04b"/>
      <path id="パス_24177-2" data-name="パス 24177" d="M735.875,787.541a4.522,4.522,0,0,1,.265.506,8.947,8.947,0,0,1,.449,6.264l-.033.1-.055-.005a5.083,5.083,0,0,1-3.287-2.084,12.954,12.954,0,0,1-2.226-4.372,23.463,23.463,0,0,1-1.048-4.761s.134.091.368.246.552.375.951.63l.641.407c.221.145.458.293.7.443s.5.3.763.447.516.292.781.424a3.676,3.676,0,0,1,.763.527,4.491,4.491,0,0,1,.667.764C735.68,787.226,735.779,787.38,735.875,787.541Z" transform="translate(-702.698 -749.066)" fill="#f5c04b"/>
      <path id="パス_24178-2" data-name="パス 24178" d="M684.761,646.678l-.049.014a3.443,3.443,0,0,1-1.717.017,4.748,4.748,0,0,1-.861-.293c-.141-.065-.281-.136-.42-.213s-.284-.159-.423-.248a6.84,6.84,0,0,1-.814-.609,8.642,8.642,0,0,1-.784-.738c-.243-.271-.5-.552-.734-.86-.119-.152-.227-.314-.344-.475s-.228-.328-.336-.5a19.423,19.423,0,0,1-2.038-3.971s.14.04.384.106.583.164,1,.267.887.225,1.4.335c.254.056.52.1.785.154s.528.094.794.126a3.012,3.012,0,0,1,.8.222,3.8,3.8,0,0,1,.77.462,4.771,4.771,0,0,1,.724.675,7.523,7.523,0,0,1,.641.86,8.491,8.491,0,0,1,1.23,4.562Z" transform="translate(-652.384 -613.775)" fill="#f5c04b"/>
      <path id="パス_24179-2" data-name="パス 24179" d="M598.618,512.825l.023.094-.041.03a3.323,3.323,0,0,1-1.513.6,4.783,4.783,0,0,1-1.691-.1,6.807,6.807,0,0,1-1.733-.677,6.9,6.9,0,0,1-.859-.529,10.2,10.2,0,0,1-.836-.654,15.326,15.326,0,0,1-2.734-2.918l.366-.021c.231-.014.56-.037.954-.073s.842-.079,1.323-.143c.24-.031.486-.068.734-.112s.493-.087.735-.143a2.849,2.849,0,0,1,1.557.1,4.655,4.655,0,0,1,.8.361,5.589,5.589,0,0,1,.762.558A6.985,6.985,0,0,1,598.618,512.825Z" transform="translate(-570.86 -491.322)" fill="#f5c04b"/>
      <path id="パス_24180-2" data-name="パス 24180" d="M482.231,394.933a5.627,5.627,0,0,1,2.736,2.48l.041.075-.028.04a3.872,3.872,0,0,1-2.705,1.506,6.726,6.726,0,0,1-3.476-.532,11.863,11.863,0,0,1-3.1-1.723s.47-.18,1.154-.5c.344-.166.731-.332,1.143-.545s.843-.447,1.247-.695a2.782,2.782,0,0,1,1.4-.415A3.891,3.891,0,0,1,482.231,394.933Z" transform="translate(-464.484 -384.99)" fill="#f5c04b"/>
    </g>
    <path id="パス_33022" data-name="パス 33022" d="M47.68,9.92c5.76-1.12,8.96-1.6,26.08-3.36,24.32-2.56,33.28-3.84,55.68-8,2.56,5.12,3.52,7.2,6.72,14.08L155.2,1.28c-13.92-24.64-18.24-31.36-31.36-48.96L106.4-38.72a208.74,208.74,0,0,1,13.76,20.48c-11.36,1.92-11.36,1.92-36.8,4.32C91.68-30.08,93.92-35.2,100.48-52.8h36.16a140.3,140.3,0,0,1,17.6.96v-21.6a144.863,144.863,0,0,1-17.76.96H108.32V-93.44h23.52c8,0,12.64.16,17.12.8v-21.12a131.453,131.453,0,0,1-17.28.96H108.32v-4.96c0-9.12.16-12.8.8-17.28H86.4c.64,4.32.8,8.16.8,17.28v4.96H70.08a124.611,124.611,0,0,1-17.76-.96v21.12c5.44-.48,11.04-.8,17.6-.8H87.2v20.96H64.48a137.24,137.24,0,0,1-18.24-.96v21.6a154.282,154.282,0,0,1,18.08-.96H78.24A212.855,212.855,0,0,1,60.16-12.32c-5.12.16-8.16.32-10.88.32-1.6,0-2.88,0-5.44-.16ZM10.72-120A167.4,167.4,0,0,1,38.88-97.76L52-114.4a183.416,183.416,0,0,0-28.32-20.32ZM4.64-79.36C16-72.64,22.72-67.52,33.76-58.08l12-17.6A196.951,196.951,0,0,0,16.64-95.2Zm23.2,28C20-28.96,10.72-8.96,5.12-3.04l18.56,16c.96-2.08,1.12-2.24,3.68-8,.32-.96,1.6-3.52,3.2-7.2,5.76-12.64,8-18.4,14.72-36.96Zm209.92-81.6a78.627,78.627,0,0,1,.8,13.28c0,15.52-1.92,32.64-4.96,44.64a97.8,97.8,0,0,1-27.04,46.88A111.494,111.494,0,0,1,176-6.24,69.434,69.434,0,0,1,190.08,13.6C205.6,4.32,215.68-4,226.56-16.16c13.12-14.4,19.2-26.08,24.8-47.52,5.6,17.44,11.84,29.6,21.44,41.92,10.56,13.44,21.44,23.2,40,35.52C317.6,4,320.16,0,327.04-7.68c-8.8-4.48-12.48-6.88-21.44-14.08-11.84-9.44-18.56-16.8-25.92-28.48-12.8-20-17.76-39.36-17.76-68.64,0-5.44.32-11.36.96-14.08Zm133.92,18.08a117.756,117.756,0,0,1-16.32-.8,149.382,149.382,0,0,1,.8,16.8V-7.52c0,9.44-.16,13.44-.96,18.88h22.72c-.8-5.12-.96-9.44-.96-18.88V-95.68h92v82.4c0,3.68-1.12,4.48-7.04,4.48a163.682,163.682,0,0,1-20.48-1.44,70.881,70.881,0,0,1,4.8,20.32c8.64.32,14.56.48,18.56.48,8.48,0,14.24-.8,17.6-2.4C487.68,5.44,489.92.64,489.92-8V-99.04a143.115,143.115,0,0,1,.8-16.64,117.756,117.756,0,0,1-16.32.8H425.44c1.76-3.52,3.52-7.36,5.28-11.68a54.588,54.588,0,0,1,3.52-7.68l-23.84-2.4a94.517,94.517,0,0,1-8.64,21.76ZM456-71.52a90.543,90.543,0,0,1,.64-12c-3.84.32-6.88.48-11.84.48H400c-4.64,0-7.68-.16-11.36-.48A84.624,84.624,0,0,1,389.28-72v46.08a124.3,124.3,0,0,1-.8,13.6h20.8V-23.2h34.56c3.84,0,8.96.16,12.96.32a68.372,68.372,0,0,1-.8-12.8Zm-46.88,6.88H436v22.72H409.12Zm163.36-9.44h2.24c1.92,0,2.56,0,7.68.32,5.76.16,11.04.32,17.28.32,6.56,0,11.04-.16,17.92-.48.32,4.8.32,6.08.32,8.8,0,22.4-3.04,33.92-11.52,43.52C600-14.56,592.8-9.44,581.92-4.64c8.64,6.4,11.84,9.44,18.56,18.08,14.08-8.32,22.56-15.68,28.96-25.76,8-12.8,10.88-27.04,10.88-54.56,0-3.04,0-6.08-.16-9.12a122.464,122.464,0,0,0,14.72-2.4A83.657,83.657,0,0,1,664-80l-1.28-22.56c-5.28,2.4-12.32,4.16-23.2,5.76-.16-3.52-.16-4.96-.16-8.48-.16-5.76-.16-5.76-.48-11.04-.16-5.44-.16-5.44-.16-7.36a38.829,38.829,0,0,1,.32-5.76l-24.16.32c1.28,7.68,1.28,7.68,2.24,34.4-4.8.48-9.92.64-15.68.64-12.48,0-21.12-.64-28.8-2.08Zm-34.24-53.28a67.264,67.264,0,0,1-1.12,12.16c-4.8,34.08-5.6,42.56-5.6,60.16A247.434,247.434,0,0,0,537.28-.8c.64,3.04.8,4,1.12,6.4l21.92-.96c.64-12.48,8.8-35.04,19.2-52.96l-16.8-8.16c-4.8,9.92-7.04,15.68-9.12,23.36-.32-4-.48-9.92-.48-14.08,0-28.8,3.68-57.28,10.24-78.08ZM817.28,3.36c-1.92-4-4.8-11.04-7.84-19.2l-35.2-94.24c-3.52-9.12-4.48-12.48-5.44-16.64H734.4a122.84,122.84,0,0,1-5.12,16.64L694.4-15.84c-3.36,9.12-5.6,14.4-8.16,19.2h31.68a79.891,79.891,0,0,1,4.32-16.96l5.44-15.52H776l5.44,15.52A114.431,114.431,0,0,1,785.6,3.36Zm-48-55.04H734.4l15.04-45.28c1.12-3.2,1.28-4,2.24-7.36,1.28,4.32,1.92,5.92,2.4,7.36Zm71.36-75.04c.96,6.88,1.28,11.04,1.28,22.08v85.92c0,9.92-.32,15.84-1.28,22.08h29.44c-.96-6.24-1.28-11.84-1.28-22.08v-85.92c0-10.72.32-15.68,1.28-22.08ZM971.84-82.4a21.51,21.51,0,0,0-21.6,21.6,21.51,21.51,0,0,0,21.6,21.6,21.51,21.51,0,0,0,21.6-21.6A21.51,21.51,0,0,0,971.84-82.4ZM1075.2-18.24a139.893,139.893,0,0,1-1.28,22.08c6.56-.32,10.88-.48,21.76-.48h31.36c18.88,0,32.96-4.8,43.52-14.88,12.32-12,18.72-29.44,18.72-51.36,0-20.96-6.08-37.6-17.76-48.96-10.4-10.08-24.96-14.88-44.64-14.88h-31.2c-11.52,0-15.52-.16-21.92-.48,1.12,7.2,1.44,12.16,1.44,22.08Zm26.4-1.6v-83.68h23.2c12.8,0,20.8,2.72,26.88,8.96,6.88,7.04,10.24,17.6,10.24,32.16,0,14.24-3.84,25.76-11.04,33.28-6.08,6.4-14.08,9.28-25.92,9.28Zm164.32-26.24,20.16,30.72c4.48,7.04,8,12.96,11.04,18.72h35.52c-7.36-9.12-11.52-14.4-16.48-21.44L1282.24-65.6l29.28-41.12c5.92-8.32,9.92-13.76,15.04-20H1292c-2.4,5.76-4.64,9.76-10.88,19.36l-14.88,23.2-15.36-23.04a129.643,129.643,0,0,1-11.04-19.52h-34.72c5.6,6.72,9.92,12.48,15.68,20.48l28.96,40.64-33.92,47.52c-4.8,6.72-6.88,9.44-16.48,21.44h35.36c3.84-7.04,7.04-12.16,11.2-18.72Zm199.52-11.04V-7.2c0,8.64-.32,13.44-.96,21.12h22.24c-.64-7.52-.96-13.6-.96-21.28V-57.12c8.8,0,11.04.16,15.36.8V-77.28c-4.48.64-7.36.8-15.36.8v-35.04a99.621,99.621,0,0,1,13.6.64V-131.2a132.384,132.384,0,0,1-17.44.96h-44.16c-8.32,0-14.56-.32-18.24-.96v20.32a82.828,82.828,0,0,1,11.2-.64v35.04a93.521,93.521,0,0,1-13.76-.64v20.64a103.549,103.549,0,0,1,13.28-.64c-.96,16.96-2.56,26.24-6.72,36.48-3.52,8.48-6.4,13.28-11.36,18.72v-66.4c0-4.8,0-7.04.32-11.2a73.2,73.2,0,0,1-9.44.48h-19.36a125.078,125.078,0,0,0,9.6-31.84h7.68a120.941,120.941,0,0,1,14.08.64v-20a116.678,116.678,0,0,1-16.16.8h-29.12a149.91,149.91,0,0,1-16-.8v20.16a87.62,87.62,0,0,1,13.6-.8h5.44a100.88,100.88,0,0,1-5.44,20.16c-5.44,14.4-10.88,23.04-19.36,31.04,3.36,7.84,4.96,14.08,6.56,24.64a59.984,59.984,0,0,0,8.8-12c-.32,8.48-.32,8.48-.32,14.24V-6.4c0,6.24-.32,12-.8,16.8h20.32V-4.32h11.2V4.16h18.88c-.32-2.24-.32-2.88-.48-4.64,5.76,4.48,9.28,8.32,15.04,16.48,10.56-13.44,15.84-24.8,19.52-41.12,2.08-8.96,3.04-18.08,3.68-32Zm-14.56-19.36v-35.04h14.56v35.04Zm-68.48,16h11.68v39.04H1382.4Zm287.84-64.32c-5.28.8-9.76.96-18.72.96h-36.16c1.44-2.88,1.76-3.52,4.8-9.44l-19.68-3.52c-3.36,11.52-10.72,23.04-20.48,32.32.16-3.04.32-4.32.48-6.4h-18.72c3.2-8.32,3.2-8.32,4.64-12.8,1.6-4.32,1.92-5.28,2.72-7.04l-21.6-5.44c-3.36,21.44-15.04,46.08-28.96,61.12,3.36,6.72,5.76,13.12,8.32,23.36A69.843,69.843,0,0,0,1536-65.6c-.32,7.04-.32,9.76-.32,16.96V-4.96a175.2,175.2,0,0,1-.96,18.88h20.96a176.179,176.179,0,0,1-.8-19.04V-94.24c3.68-8.96,5.92-14.08,6.4-15.52a139.658,139.658,0,0,1,.48,14.4v68.48c0,8.48-.16,12.16-.96,16.64h19.84c-.48-3.2-.64-7.36-.64-16.16v-72a44.868,44.868,0,0,1,9.92,9.92,52.314,52.314,0,0,0,6.72-6.88,88.606,88.606,0,0,0,10.72,12.96c-8.32,3.68-15.68,5.92-26.88,7.84a58.229,58.229,0,0,1,8,17.28c14.56-3.84,22.88-7.04,33.92-13.28,11.68,7.52,24.48,12.48,44,17.28,1.92-7.68,3.2-11.36,7.52-20-17.12-2.56-25.12-4.64-34.72-9.12,7.68-7.04,12.64-13.44,18.24-23.36a101.953,101.953,0,0,1,12.8.64Zm-34.72,19.04a49.506,49.506,0,0,1-12.16,13.92c-5.76-4.64-8-7.04-13.28-13.92Zm-14.56,40.32c-8.32,7.52-20.64,12.64-40,16.64,5.28,6.88,6.08,8.32,8.8,13.92,17.92-4.96,29.12-9.76,40.16-17.6,3.2-2.24,3.2-2.24,4.64-3.2Zm17.28,12.16c-2.4,3.36-6.24,6.56-12.48,10.56-11.68,7.36-26.4,12.64-43.36,15.84,4,4.8,5.12,6.72,9.12,14.88,20.32-5.12,33.28-10.56,45.92-19.36,4.16-2.72,9.92-7.2,16-12Zm18.08,13.6c-3.52,5.12-9.92,10.88-18.08,16.16C1621.6-12.64,1601.92-6.08,1576-2.4a72.024,72.024,0,0,1,9.76,17.12c36.64-7.52,57.44-17.44,80-37.92,2.72-2.4,4-3.68,6.08-5.28ZM1760.8-103.2H1780c11.52,0,17.6.32,24.16,1.12v-25.76a188.58,188.58,0,0,1-24.16,1.12h-66.56a181.908,181.908,0,0,1-22.72-1.12v25.76a181.29,181.29,0,0,1,22.88-1.12h20.32v84.16a152.449,152.449,0,0,1-1.28,22.4h29.44a153.868,153.868,0,0,1-1.28-22.4Zm125.6-26.24c-37.76,0-62.08,26.4-62.08,67.52,0,41.44,24.32,68.16,62.08,68.16,37.44,0,62.08-27.04,62.08-68.32,0-20.96-6.4-38.88-18.4-50.72C1919.04-124,1904.48-129.44,1886.4-129.44Zm.16,112.48c-21.44,0-34.88-17.44-34.88-45.28,0-27.04,13.44-44.16,34.72-44.16,8.96,0,16.8,3.04,22.72,8.96,7.68,7.68,11.84,19.84,11.84,35.52C1920.96-34.08,1907.84-16.96,1886.56-16.96ZM2005.92,3.36a149.689,149.689,0,0,1-1.28-22.4V-42.72h28c15.52,0,27.36-4,35.52-12.32,7.52-7.52,11.36-18.08,11.36-30.88,0-12-3.68-22.08-10.4-28.8-8-8-19.84-12-36-12h-34.08c-9.44,0-14.72-.16-21.92-.48a163.07,163.07,0,0,1,1.28,21.92v86.56a146.5,146.5,0,0,1-1.28,22.08Zm-1.28-68.64v-38.88H2032c7.2,0,12.16,1.6,15.52,5.28,3.2,3.2,4.8,8,4.8,13.76,0,12.64-7.36,19.84-20.32,19.84Z" transform="translate(2521.648 1473.439)"/>
    <path id="パス_33025" data-name="パス 33025" d="M66.24,1.68c-.96-2-2.4-5.52-3.92-9.6L44.72-55.04A54.168,54.168,0,0,1,42-63.36H24.8a61.423,61.423,0,0,1-2.56,8.32L4.8-7.92A74.363,74.363,0,0,1,.72,1.68H16.56A39.946,39.946,0,0,1,18.72-6.8l2.72-7.76H45.6L48.32-6.8A57.213,57.213,0,0,1,50.4,1.68Zm-24-27.52H24.8l7.52-22.64c.56-1.6.64-2,1.12-3.68.64,2.16.96,2.96,1.2,3.68ZM72.32-63.36a66.792,66.792,0,0,1,.64,11.04V-9.36a68.665,68.665,0,0,1-.64,11.04H87.04A67.412,67.412,0,0,1,86.4-9.36V-52.32a66.18,66.18,0,0,1,.64-11.04Zm87.92,30.88a42.877,42.877,0,0,0-6.72-10.8l-6.8,3.04a51.164,51.164,0,0,1,6.64,11.12Zm9.28-4.4c-2.56-5.04-3.68-6.8-6.64-10.24l-6.64,2.88a53.079,53.079,0,0,1,6.48,10.72ZM98.24-44.64A115.222,115.222,0,0,1,110-46.08c17.84-1.36,18.16-1.44,26.16-2.32-11.12,6.4-16.88,15.2-16.88,26,0,9.12,4.32,16.08,12.64,20.4,4.8,2.56,10.4,3.92,19.36,4.96a19.463,19.463,0,0,1,2.8.4L155.76-9.6c-.96.08-1.52.08-2,.08a52.2,52.2,0,0,1-11.84-1.84c-6.72-1.92-10.4-6.24-10.4-12.16,0-7.28,5.44-14.72,14.48-19.84a36.86,36.86,0,0,1,17.04-4.88,17.455,17.455,0,0,1,1.92.08l-.64-12.24c-1.44.32-1.92.4-8.96.72-22,.96-35.76,1.6-41.28,2-11.36.72-11.84.72-13.36.72-.32,0-1.28,0-3.12-.08Z" transform="translate(2865.586 1248.563)"/>
    <path id="パス_33023" data-name="パス 33023" d="M34.48-34.96v3.12H18.4a53.733,53.733,0,0,1-8-.4v8.08a74.329,74.329,0,0,1,8-.32H34.48v3.04H13.92A78.158,78.158,0,0,1,4-21.92v8.96a93.074,93.074,0,0,1,10-.48H27.28C20.8-8.48,13.28-5.36,2.16-3.2A34.624,34.624,0,0,1,7.76,6,73.757,73.757,0,0,0,23.36-.48,47.175,47.175,0,0,0,34.72-8.96c-.16,2.88-.16,3.12-.16,5.04v3.2a58.87,58.87,0,0,1-.48,8H44.8a54.125,54.125,0,0,1-.48-8V-4c0-2,0-2.4-.16-5.12C51.12-2.16,60,2.56,72.64,6a37.745,37.745,0,0,1,5.28-9.6c-11.68-1.92-20-5.04-26.16-9.84H66.24a92.081,92.081,0,0,1,9.84.48v-8.96a74.762,74.762,0,0,1-9.92.48H44.4v-3.04H61.44a74.329,74.329,0,0,1,8,.32v-8.08a56.415,56.415,0,0,1-8,.4H44.4v-3.12H65.2a77.243,77.243,0,0,1,8,.32v-8.48a70.627,70.627,0,0,1-8,.32H56.88c.8-1.52.88-1.68,2.32-4.72h7.36c3.92,0,7.28.16,9.76.4V-56.4a68.3,68.3,0,0,1-9.2.48H66a65.622,65.622,0,0,0,4.48-7.12L60.8-66.48a44.288,44.288,0,0,1-5.44,10.56H51.6v-5.44a39.636,39.636,0,0,1,.4-6.08H41.68a35.759,35.759,0,0,1,.32,5.6v5.92H37.28v-5.92a50.3,50.3,0,0,1,.24-5.6H27.28a42.044,42.044,0,0,1,.4,6.08v5.44H24.16a53.19,53.19,0,0,0-5.68-10.4l-9.6,3.44a32.922,32.922,0,0,1,4.88,6.96h-1.2a69.459,69.459,0,0,1-9.12-.48v9.28c2.48-.24,5.76-.4,9.6-.4h7.92a40.967,40.967,0,0,1,2.4,4.72h-8.8a69.066,69.066,0,0,1-7.92-.32v8.48a75.6,75.6,0,0,1,7.92-.32Zm-.72-7.84c-.72-2-1.12-2.88-1.92-4.72H48.16a45.156,45.156,0,0,1-2.08,4.72Zm88.4,18.16a55.1,55.1,0,0,1-6.4-.24v9.68a34.808,34.808,0,0,1,5.76-.32h4C122.48-8.88,117.36-4.8,107.6-1.2a37.33,37.33,0,0,1,5.92,8.56c12.32-5.52,18.64-12,22.4-22.88h8.56a44.518,44.518,0,0,1-.88,8.48c-.72,3.12-1.52,3.92-4,3.92a50.96,50.96,0,0,1-9.04-1.04,30.98,30.98,0,0,1,2.32,9.76q5.16.48,8.4.48c6.48,0,8.8-1.2,10.48-5.52,1.36-3.44,2.16-8.96,2.88-20.48.16-2.08.16-2.16.24-2.72.08-1.36.08-1.36.16-2.24a49.3,49.3,0,0,1-6.16.24H137.92a15.268,15.268,0,0,0,.24-2.24,7.031,7.031,0,0,1,.16-1.12c.08-.88.08-.88.16-1.44.08-.64.08-.64.16-1.2l-8.08-.08a46.777,46.777,0,0,0,6.72-3.52c4.88,3.04,9.12,4.72,17.36,6.88a34.106,34.106,0,0,1,4.32-10,54.671,54.671,0,0,1-14-3.28,34.394,34.394,0,0,0,7.12-11.6,49.99,49.99,0,0,1,5.28.24v-9.68a60.554,60.554,0,0,1-8.72.48H133.28c.8-1.76,1.44-3.36,1.76-4.08l.48-1.2-9.92-1.84a26.223,26.223,0,0,1-2.4,7.04c-2.8,5.84-5.52,9.36-11.36,14.8a30.159,30.159,0,0,1,7.04,6.4,66.89,66.89,0,0,0,5.84-6.56,31.97,31.97,0,0,0,5.12,6.48,60.681,60.681,0,0,1-10.72,4l.16-.4-4.08-4.96a51.246,51.246,0,0,1-5.84.24h-3.12l1.12-1.2c-1.04-1.04-1.36-1.44-2.08-2.16a90.256,90.256,0,0,0,10.96-12.88A18.2,18.2,0,0,1,118-59.76l-5.12-5.52a42.053,42.053,0,0,1-6.88.32H92.48a60.9,60.9,0,0,1-7.44-.32v9.76a55.94,55.94,0,0,1,6.64-.32h12.64a26.344,26.344,0,0,1-5.04,5.76c-2.24-1.92-3.2-2.64-6.4-5.04l-5.76,5.76a81.767,81.767,0,0,1,9.6,8.08H90a57.052,57.052,0,0,1-7.04-.32v9.68a35.24,35.24,0,0,1,6.4-.4h4.96c-3.2,7.92-6.8,13.2-12.56,18.08,2,3.76,2.56,5.28,3.92,10.64A51.046,51.046,0,0,0,96.72-19.92l.08,15.2c0,1.44-.4,1.76-2,1.76a38.285,38.285,0,0,1-7.2-.8c1.76,6.32,1.84,6.4,1.92,9.84,2.56.16,4.64.24,6.4.24,7.68,0,10-1.84,10-7.84l-.08-20.08A21.553,21.553,0,0,1,112-16.64a88.739,88.739,0,0,0,5.6-14.64,19.788,19.788,0,0,1,.72-2.48,36.721,36.721,0,0,1,3.44,6.16c3.12-.96,4.16-1.28,6.48-2.16v.72a43.832,43.832,0,0,1-.32,4.4Zm19.68-27.6a23.184,23.184,0,0,1-4.96,7.04,24.17,24.17,0,0,1-5.92-7.04ZM105.76-32.32h4a40.983,40.983,0,0,1-3.92,9.92Zm103.12-10C207.6-21.68,202.72-10,191.6-.8a25.907,25.907,0,0,1,7.52,7.52c12.4-10.88,18.08-25.04,19.68-49.04h6.32c-.08,17.28-.64,25.36-2.08,33.52-.8,4.16-1.36,4.8-4.48,4.8a39.3,39.3,0,0,1-7.36-.88,30.449,30.449,0,0,1,2.08,10.4,48.2,48.2,0,0,0,6,.24A22.164,22.164,0,0,0,226,5.12c2.96-.8,4.48-2.24,5.6-5.28,2.08-5.2,3.36-18.16,3.6-35.6.16-12.72.16-13.04.48-16.24a65.911,65.911,0,0,1-8.64.32h-7.76c.16-12.16.16-12.16.48-15.04H208.8a37.628,37.628,0,0,1,.48,7.28c0,1.6,0,3.2-.08,7.76H208a48.7,48.7,0,0,1-5.76-.24V-58.4a53.2,53.2,0,0,1-7.92.4H188.8v-2.72a40.482,40.482,0,0,1,.4-6.64H178.32a37.627,37.627,0,0,1,.4,6.64V-58H172a54.005,54.005,0,0,1-7.84-.4v10.08c2.56-.24,4.8-.4,7.44-.4h23.84c2.96,0,4.64,0,6.32.16V-42a38.683,38.683,0,0,1,6.08-.32Zm-37.6,17.36a72.236,72.236,0,0,1,7.52,7.2A43.3,43.3,0,0,1,161.92-2.48a36.384,36.384,0,0,1,6.16,8.72,58.137,58.137,0,0,0,17.2-16.72c2,2.4,2.88,3.52,5.52,7.2l7.2-7.44c-3.28-3.76-4.48-5.12-7.52-8.48a105.713,105.713,0,0,0,4.56-11.2c1.28,1.68,1.92,2.48,3.84,4.64a38.7,38.7,0,0,1,6.72-6.8c-5.04-4.96-7.36-8.48-10.64-15.6l-7.92,3.6c3.12,6.88,4.64,9.6,7.6,13.68l-8.48-4.24a35.208,35.208,0,0,1-2.8,8.8c-2.16-2-2.88-2.64-5.68-4.96Zm1.68-23.36a31.688,31.688,0,0,1-4.08,8.24,30.485,30.485,0,0,1-6.4,6.96,27.708,27.708,0,0,1,5.6,8.72c6.64-6.56,9.28-10.48,13.6-20.32Zm88.8,3.28a101.41,101.41,0,0,0-9.28-7.76l-7.28,6.56a58.1,58.1,0,0,1,12.24,11.2l6.96-6.88a77.924,77.924,0,0,1,8.24,7.2c-2.08,1.92-2.88,2.64-5.52,4.8h-2.24l-2.64-6.8c-7.12,4.16-13.04,6.56-18.64,7.68l3.36,10.08c8-3.36,9.92-4.24,14.64-6.88l.8,4.8c.96-.08.96-.08,12-.88v4.96H252a62.592,62.592,0,0,1-8.8-.48V-7.12c3.6-.32,6.32-.48,9.92-.48H274.4V-.8a50.944,50.944,0,0,1-.56,8.16h11.6a48.977,48.977,0,0,1-.56-8.16V-7.6h22.56a91.512,91.512,0,0,1,9.92.48V-17.44a58.657,58.657,0,0,1-8.4.48H284.88v-5.6c4.24-.32,4.24-.32,6.64-.56.48,1.28.64,1.76,1.2,3.2l8.24-3.04c-2.56-4.72-2.56-4.72-3.68-6.64a67.156,67.156,0,0,1,13.04,10.96l6.72-8A93.151,93.151,0,0,0,302.4-36.72c1.12-.88,2.08-1.6,2.64-2,1.28-.96,2.08-1.6,2.4-1.84a72.113,72.113,0,0,0,6.64-5.84l-7.6-6.4a66.972,66.972,0,0,1-13.44,11.04l6.56,7.2-3.04,3.52c-1.36-2.16-2.24-3.44-4.8-7.04l-6.8,2.88c1.36,2.24,1.84,2.96,2.64,4.32-3.6.32-6.64.56-8.96.64a68.839,68.839,0,0,0,5.44-4.8l1.28-1.2a97.156,97.156,0,0,0,9.36-9.6l-7.6-4.96a88.832,88.832,0,0,1-8.16,9.84c-.96-.96-1.68-1.68-2.72-2.64a54.324,54.324,0,0,0,6.88-9.36h25.04c3.6,0,6,.08,8.56.32v-10a85.223,85.223,0,0,1-10.16.48H285.04v-.88a22.483,22.483,0,0,1,.48-4.72H274a22.481,22.481,0,0,1,.48,4.72v.88H254.24a85.057,85.057,0,0,1-10-.48v10c2.56-.24,4.96-.32,8.4-.32H272.8A25.223,25.223,0,0,1,270-48.8c-1.04-.72-1.44-1.04-2.8-2ZM367.44-29.28c11.04-5.84,18.32-10.72,26.72-18.16a14.322,14.322,0,0,1,1.44-1.12l-8-8.4c-4.08,5.28-11.52,11.12-20.16,15.84V-56.8a79.281,79.281,0,0,1,.48-10.08H356.16a81.92,81.92,0,0,1,.48,10.08V-4.24c0,7.84,2.48,9.36,15.44,9.36,12.88,0,17.44-.8,20.08-3.68,2.48-2.72,3.52-7.44,4.08-19.04a46.694,46.694,0,0,1-10.16-3.52c-.24,9.36-.8,12.96-2.08,14.72-.88,1.2-3.68,1.68-9.68,1.68-5.44,0-6.88-.48-6.88-2.4ZM333.52-3.76c0,3.84-.16,7.04-.48,10.56h11.52c-.32-3.36-.48-7.12-.48-10.48V-47.2a136.829,136.829,0,0,0,5.52-13.36c.64-1.68.8-2.16,1.68-4.48l-10.96-3.12c-.8,5.36-3.84,12.88-8,19.6a56.778,56.778,0,0,1-10.56,13.2,61.715,61.715,0,0,1,4.56,11.76,73.08,73.08,0,0,0,7.36-8.96c-.16,5.76-.16,6.64-.16,8.64ZM440-41.2a10.755,10.755,0,0,0-10.8,10.8A10.755,10.755,0,0,0,440-19.6a10.755,10.755,0,0,0,10.8-10.8A10.755,10.755,0,0,0,440-41.2Zm73.84-9.84V-9.6h-18.8a94.83,94.83,0,0,1-11.68-.56V1.2A102.889,102.889,0,0,1,494.88.64h50.4a96.025,96.025,0,0,1,11.6.56V-10.16a93.74,93.74,0,0,1-11.52.56H525.28V-51.04h16.64a103.817,103.817,0,0,1,10.8.48V-61.68a83.186,83.186,0,0,1-10.88.48h-43.2a95.47,95.47,0,0,1-11.04-.48v11.12a102.264,102.264,0,0,1,10.88-.48Zm124.24-4a43.248,43.248,0,0,1-7.6.4H617.76c.72-2.64.88-3.04,1.28-4.72,1.12-4.56,1.52-6.08,1.68-6.64l-10.4-2a44.852,44.852,0,0,1-.96,6.96c-2.4,12.16-6.16,20.8-11.84,27.2a32.511,32.511,0,0,1,5.36,6.24,41.977,41.977,0,0,1-5.12.24H586c.56-1.28.8-1.76,1.52-3.36l-9.92-1.76c-.88,2.48-1.2,3.44-1.84,5.12h-5.68a36.1,36.1,0,0,1-6.56-.4v9.52a37.741,37.741,0,0,1,6.56-.4h1.52a62.788,62.788,0,0,1-5.36,7.84c5.68,2,7.76,2.88,11.6,4.56-4.56,2.56-8.32,3.76-14.96,4.72a37.614,37.614,0,0,1,4.88,8.8c8.32-2,13.76-4.56,19.12-9.04a44.015,44.015,0,0,1,7.68,5.04L597.2-.96a27.4,27.4,0,0,1,5.44,8.16A59.643,59.643,0,0,0,619.12-5.76a53.935,53.935,0,0,0,14.64,12.8,46.7,46.7,0,0,1,5.52-10.08,41.812,41.812,0,0,1-14.08-11.2c4.88-8.8,7.04-17.12,8.08-31.2a32.013,32.013,0,0,1,4.8.32Zm-38,49.36c-3.04-1.68-4.16-2.32-6.64-3.44a32.375,32.375,0,0,0,4.32-9.52,55.966,55.966,0,0,1,6.16.32v-7.92a29.344,29.344,0,0,0,3.44-4.72,57.084,57.084,0,0,0,6.08,16.72A46.156,46.156,0,0,1,598.08-2.48Zm23.28-39.76c-.4,8.72-1.68,15.44-4.16,21.6-3.12-6.8-4.24-10.8-5.52-19.12.4-1.04.56-1.44.96-2.48Zm-35.44,26.8a18.961,18.961,0,0,1-2.88,5.84c-1.76-.72-2.8-1.04-5.76-2.08,1.2-1.92,1.52-2.48,2.24-3.76Zm9.52-34.72h-8.16V-62.4a29.809,29.809,0,0,1,.32-5.2H579.44a31.878,31.878,0,0,1,.32,5.36v8.88h-9.12a53.461,53.461,0,0,1-6.88-.32v8.8a55.07,55.07,0,0,1,6.88-.32H574c-3.2,3.68-6.56,6.08-12.08,8.64a31.976,31.976,0,0,1,5.76,7.76c5.68-3.76,7.68-5.68,12.16-11.36-.08,1.28-.16,2.64-.16,3.28v2.32a12.034,12.034,0,0,1-.24,2.32h10a15.526,15.526,0,0,1-.16-2.72V-37.2c0-.48-.16-2.08-.24-2.96,2.24,3.36,2.72,3.84,6.64,7.12a36.921,36.921,0,0,1,4.88-7.52,22.8,22.8,0,0,1-6.4-4.64h4.48a35.535,35.535,0,0,1,5.04.24V-53.6a33.45,33.45,0,0,1-4.96.24h-.56A82.3,82.3,0,0,0,604-63.84l-8.48-3.44a43.1,43.1,0,0,1-5.6,10.48ZM564.96-63.68a40.4,40.4,0,0,1,5.92,10.16l8.16-3.52a44.648,44.648,0,0,0-6.08-10ZM660-45.92h-8.48a48.093,48.093,0,0,1-5.76-.32,50.765,50.765,0,0,1,.32,6.72V-2.56a82.424,82.424,0,0,1-.48,9.44h10.96c-.24-2.96-.4-5.84-.4-9.52v-7.6h17.6v5.76c0,1.28-.48,1.6-2.24,1.6a70.509,70.509,0,0,1-7.84-.72,37.149,37.149,0,0,1,2.08,9.44c4,.24,6.48.32,8.48.32,4.16,0,6.08-.56,7.52-2,1.36-1.52,1.92-3.28,1.92-6.64V-39.84c0-2.72.08-4.32.24-6.4a34.523,34.523,0,0,1-4.48.32,130.517,130.517,0,0,0,8.08-15.68l-9.36-4.32a61.747,61.747,0,0,1-7.44,15.68l8.24,4.32H670.4V-61.2a35.668,35.668,0,0,1,.4-6.48H659.6a43.675,43.675,0,0,1,.4,6.56ZM656.16-23.6h17.6v4.8h-17.6Zm17.6-8.64h-17.6v-4.72h17.6ZM642.64-61.6a70.588,70.588,0,0,1,7.52,15.44l8.4-4.48a89.949,89.949,0,0,0-7.44-15.68Zm45.6.32a59.139,59.139,0,0,1,.4,8.4V-20.4a73.353,73.353,0,0,1-.32,8.32h10.56a66.437,66.437,0,0,1-.32-8.32V-53.12a54.15,54.15,0,0,1,.4-8.16ZM704-66.88a63.642,63.642,0,0,1,.48,9.92V-5.84c0,2-.64,2.4-3.84,2.4a66.673,66.673,0,0,1-9.92-.8,34.514,34.514,0,0,1,2.64,10.16c4.48.24,6.24.32,8.08.32,5.2,0,8.16-.56,10.16-1.92C713.76,2.8,714.56.64,714.56-4V-57.2a65.253,65.253,0,0,1,.48-9.68Zm67.36,38.16a34.6,34.6,0,0,1,.16-3.52c-.88.08-2.72.16-4.16.16h-8.64c-2.64,0-4.24-.08-5.28-.16.08.96.16,3.28.16,5.28v18.8a42.886,42.886,0,0,1-.24,5.12h7.44V-7.2h7.84c-5.12,4.32-7.12,5.84-10.4,7.84a32.99,32.99,0,0,1,7.52,6.8A62.376,62.376,0,0,0,779.6-5.28a43.543,43.543,0,0,0,3.36,6.4C785.36,4.48,787.6,6,790.24,6c5.2,0,7.84-5.36,8.48-17.52a35.769,35.769,0,0,1-7.04-4.4c-.16,5.52-.72,10.48-1.36,10.48a.279.279,0,0,1-.08-.16,4.73,4.73,0,0,0-.32-.48,37.353,37.353,0,0,1-4.16-8.4,99.216,99.216,0,0,0,7.2-17.12c2.8-9.04,2.8-9.04,3.04-9.76l-9.44-3.6c-.08,3.12-1.84,10.24-3.92,16.32-.8-7.2-1.2-13.36-1.36-20.96h7.04a76.579,76.579,0,0,1,8.48.32v-10c-1.2.16-1.52.16-2.64.24a40.31,40.31,0,0,0-4.88-8.8l-6.96,3.12a41.583,41.583,0,0,1,3.52,5.84h-4.72c0-4.64.08-6.48.56-8.72H771.2a50.1,50.1,0,0,1,.48,8.72H750.64a78.038,78.038,0,0,1-8.64-.4c.08.72.08.96.16,1.68a55.785,55.785,0,0,0-11.04-9.36l-7.44,6.88a56.521,56.521,0,0,1,12.16,10.8l6.48-6.4c.16,2.32.24,4.8.24,7.68,0,12.8-.4,22.72-1.36,30.4-.96,8.32-2.4,12.8-5.6,18A36.942,36.942,0,0,1,744,7.12c3.12-5.28,4.48-9.2,5.6-16,1.28-7.52,1.84-14.56,2.16-27.52h20.88c.72,9.12,1.68,15.2,3.28,20.96a44.1,44.1,0,0,1-4.56,5.68V-28.72ZM751.84-44.96V-49.6h20c.16,3.2.16,3.2.24,4.64Zm8.48,20.72h4.32v9.2h-4.32Zm-38-15.04c1.6,1.2,1.6,1.2,6.32,4.64,1.2.88,2.88,2.4,6.16,5.44l6.24-8.24a77.666,77.666,0,0,0-12.56-9.44Zm8.4,13.68c-2.48,10.88-5.76,20.16-8.72,24L730.64,6c1.76-4.32,2.88-6.88,3.12-7.68a120.381,120.381,0,0,0,4.88-17.44ZM840-41.2a10.755,10.755,0,0,0-10.8,10.8A10.755,10.755,0,0,0,840-19.6a10.755,10.755,0,0,0,10.8-10.8A10.755,10.755,0,0,0,840-41.2Zm75.52-1.6v13.36H904.08a85.692,85.692,0,0,1-10.08-.4v10.4a95.687,95.687,0,0,1,10.24-.48h11.28V-5.04H896.4a107.887,107.887,0,0,1-11.84-.56V5.2a119.258,119.258,0,0,1,12.16-.56h47.84a109.9,109.9,0,0,1,11.68.56V-5.6a103.637,103.637,0,0,1-11.92.56h-18V-19.92h12.96c3.92,0,7.2.16,10.48.48V-29.92a101.056,101.056,0,0,1-10.56.48H926.32V-42.8h15.76c4.08,0,7.36.16,11.28.48V-52.8c-3.44.32-7.36.48-11.6.48H926.32V-57.2a66.607,66.607,0,0,1,.48-10.08H914.96a68.51,68.51,0,0,1,.56,10.16v4.8H904.16c.64-1.92,1.28-3.84,1.68-5.2.64-2,.64-2.08.88-2.72.56-1.52.56-1.52.72-2.08l-10.72-2.64a39.177,39.177,0,0,1-1.6,7.44,54.209,54.209,0,0,1-13.04,22.88,29.991,29.991,0,0,1,7.2,8.48A69.556,69.556,0,0,0,900.16-42.8ZM984.96-9.6c2.48-.16,4.48-.24,7.36-.24h8.8v5.36H983.68a64.713,64.713,0,0,1-7.6-.32V5.04a69.5,69.5,0,0,1,7.84-.4h43.92a77.664,77.664,0,0,1,7.84.4V-4.88a64.982,64.982,0,0,1-7.6.4h-17.04V-9.84h11.6a60.163,60.163,0,0,1,7.12.24v-9.2a49.919,49.919,0,0,1-7.12.32h-11.6v-4.96h13.76a66.253,66.253,0,0,1,7.6.24v-9.52a43.323,43.323,0,0,1-7.52.4h-13.84a28.94,28.94,0,0,1,.32-4.8h-10.64a23.221,23.221,0,0,1,.4,4.8h-7.6c.72-1.76.72-1.76,1.44-3.36l-9.28-2.72c-2.16,6.64-4.56,11.36-8.24,15.76A141.243,141.243,0,0,0,978-38.72h49.2a65.682,65.682,0,0,1,8.72.4v-9.6a62.106,62.106,0,0,1-8.72.4h-9.84c1.04-1.84,1.2-2.24,2.96-5.92h5.44a75.276,75.276,0,0,1,8.64.32v-9.76a69.334,69.334,0,0,1-9.36.48h-18.88a24.489,24.489,0,0,1,.48-5.2h-11.6a25.915,25.915,0,0,1,.4,5.2h-18.8a64.592,64.592,0,0,1-9.12-.48v9.76a67.268,67.268,0,0,1,8.32-.32h6.48a32.839,32.839,0,0,1,2.4,5.92H976.8a84.5,84.5,0,0,1-9.04-.4c.24,2.88.32,5.36.32,8.88,0,10.88-.72,19.04-2.16,25.28a37.516,37.516,0,0,1-4.4,11.12c3.2,3.2,4.32,4.72,7.6,9.76C973.2.64,975.36-6.48,976.88-18a54.386,54.386,0,0,1,4.56,5.84c1.76-2.08,2.4-2.96,3.52-4.48Zm16.16-13.84v4.96h-8.88a57.727,57.727,0,0,1-5.92-.16,51.238,51.238,0,0,0,3.04-4.8Zm-5.28-24.08a57.015,57.015,0,0,0-2.32-5.92h15.6a37.4,37.4,0,0,1-2.64,5.92Zm66.32-2.72a56.854,56.854,0,0,1,3.52,11.68l3.2-1.6A35.07,35.07,0,0,1,1066-34.8a58.008,58.008,0,0,1,9.04,5.2c-1.28-.08-2-.16-3.44-.32v10.16c2.08-.24,5.76-.4,9.12-.4h6.64V-5.28H1075.2a75.654,75.654,0,0,1-9.68-.48V4.88a82.941,82.941,0,0,1,9.68-.48h31.84a81.986,81.986,0,0,1,9.68.48V-5.76a74.8,74.8,0,0,1-9.68.48h-9.36V-20.16h6.72a80.975,80.975,0,0,1,9.04.4V-29.92a61.779,61.779,0,0,1-8.96.4h-6.8V-42.16h8.24a77.688,77.688,0,0,1,8.96.48V-52.24a59.067,59.067,0,0,1-8.96.48h-8.24v-7.2a64.87,64.87,0,0,1,.48-8.64h-11.28a68.358,68.358,0,0,1,.48,8.64v7.2h-5.44c.4-2.48.72-4.56.88-5.76a24.519,24.519,0,0,1,.64-3.44l-10.08-1.84v.8a73.976,73.976,0,0,1-2.72,16.88,67.088,67.088,0,0,0-3.52-8.8l-4.96,2.4v-7.6a55.344,55.344,0,0,1,.48-8.72H1051.6a67.034,67.034,0,0,1,.48,8.72v55.6a100.493,100.493,0,0,1-.48,10.48h11.04a66.325,66.325,0,0,1-.48-9.76Zm25.2,8.08v12.64h-8.16c-1.6,0-2.56,0-4.08-.08a49.13,49.13,0,0,0,4.72-12.56Zm-39.04,13.44c1.52-6.48,2.24-12.88,2.4-22.56l-6.56-.88v1.6a77.293,77.293,0,0,1-2.48,19.28Zm120.56-34.64a70.862,70.862,0,0,1,.64,11.52V-24c0,4.64-.88,8.16-2.72,10.64-2.4,3.28-6.88,5.12-12.48,5.12-5.44,0-9.52-1.52-12.08-4.56-2.24-2.72-3.2-6.16-3.2-11.2V-51.84a68.381,68.381,0,0,1,.64-11.52H1125.2a71.478,71.478,0,0,1,.64,11.52V-24c0,8.4,2.16,14.8,6.48,19.52,4.56,4.96,12.32,7.68,21.84,7.68,18.16,0,28.56-9.84,28.56-27.12v-28a72.289,72.289,0,0,1,.64-11.44Zm39.44,65.04a74.853,74.853,0,0,1-.64-11.2V-21.36h14c7.76,0,13.68-2,17.76-6.16,3.76-3.76,5.68-9.04,5.68-15.44,0-6-1.84-11.04-5.2-14.4-4-4-9.92-6-18-6h-17.04c-4.72,0-7.36-.08-10.96-.24a81.545,81.545,0,0,1,.64,10.96V-9.36a73.255,73.255,0,0,1-.64,11.04Zm-.64-34.32V-52.08h13.68c3.6,0,6.08.8,7.76,2.64a9.48,9.48,0,0,1,2.4,6.88c0,6.32-3.68,9.92-10.16,9.92Z" transform="translate(3049.086 1246.563)" fill="#0e4cc3"/>
    <path id="パス_33024" data-name="パス 33024" d="M8.08-47.6a6.909,6.909,0,0,1,1.2-.08H10.4a5,5,0,0,0,1.36.08c.24,0,1.52,0,3.04.08,2.32.08,2.96.08,7.44.08a12.258,12.258,0,0,0-1.2,2C16.88-38.32,9.92-30,5.44-26.72l8.64,8.56a48.738,48.738,0,0,1,7.28-7.68c6-5.2,11.44-7.92,15.76-7.92,2.32,0,3.68,1.04,4.08,3.2-5.52,2.4-9.04,4.24-11.68,6.16-6.08,4.4-9.28,9.36-9.28,14.32a13,13,0,0,0,3.12,8.64c3.68,4.16,10.32,5.92,22.08,5.92A148.036,148.036,0,0,0,66,3.04a30.325,30.325,0,0,1,4-.4L69.12-9.6C62.88-7.28,54.24-6,44.56-6,35.84-6,32.4-7.44,32.4-11.12c0-2,1.28-4,3.76-5.76a41.512,41.512,0,0,1,6.4-3.44,2.573,2.573,0,0,1,.08.64,59.685,59.685,0,0,1-.48,9.28l11.12-.32a48.488,48.488,0,0,1-.24-5.36v-5.44l-.08-2.64c9.68-3.28,9.68-3.28,11.6-3.76A60.566,60.566,0,0,1,73.6-30L69.36-40.88c-1.36.8-1.68.88-6.24,2.4-3.6,1.2-4,1.36-7.12,2.48-2.08.72-3.52,1.2-4.24,1.44-1.44-5.36-5.44-8.08-11.92-8.08-4,0-6.88.8-11.04,3.12A57.41,57.41,0,0,0,34-47.44c8.08-.24,18.48-.88,24.32-1.6,3.84-.4,3.84-.4,6.32-.64l-.48-10.8c-4.56,1.2-11.12,2.08-20.64,2.64a48.436,48.436,0,0,0-4.96.32c.32-.64.32-.72.64-1.44,2.4-5.76,2.4-5.76,2.96-6.64l-12.4-1.12c-.32,2.64-.88,4.56-2.88,9.36h-4c-6.56,0-11.68-.32-14.64-1.04Zm106.24,7.76c0,2,0,2-.08,3.92H99.76a50.262,50.262,0,0,1-7.36-.32v8.96a51.705,51.705,0,0,1,7.36-.32h13.92a33.42,33.42,0,0,1-.64,3.92H92.72a56.346,56.346,0,0,1-8.48-.4v9.6a83.731,83.731,0,0,1,9.12-.48h16.32a22.971,22.971,0,0,1-9.52,7.92c-4.72,2.4-9.12,3.52-17.28,4.4a28.676,28.676,0,0,1,4.88,9.92c8.8-1.6,14.08-3.44,19.76-6.88a32.029,32.029,0,0,0,11.52-11.6A40.413,40.413,0,0,0,133.2.8c5.84,2.96,10.24,4.48,19.52,6.48a41.4,41.4,0,0,1,4.8-10.24c-11.04-1.76-16.96-3.44-22.08-6.16a22.066,22.066,0,0,1-7.36-5.84H146.8a83.09,83.09,0,0,1,9.2.48v-9.6a59.367,59.367,0,0,1-8.72.4H123.44c.32-1.76.4-2.4.56-3.92h15.92a51.836,51.836,0,0,1,7.28.32v-8.96a48.958,48.958,0,0,1-7.28.32H124.48c0-1.44,0-1.44.08-3.92H140.4a57.643,57.643,0,0,1,7.44.32V-42.8h7.52a48.153,48.153,0,0,1-.32-6.08V-55.6a51.6,51.6,0,0,1,.32-6.08c-2.8.24-4.96.32-9.2.32H124.8v-1.28a29.911,29.911,0,0,1,.4-5.04H113.68a25.1,25.1,0,0,1,.4,5.12v1.2H93.92c-4.24,0-6.48-.08-9.2-.32a57.219,57.219,0,0,1,.32,6.24v6.56a33.049,33.049,0,0,1-.4,6.08h7.52v3.28a53.66,53.66,0,0,1,7.52-.32Zm30.8-12.56v4.08c-1.68.08-2.48.08-4.72.08H124.64a41.378,41.378,0,0,1,.08-4.16Zm-30.72,0v4.16H99.68c-2.24,0-3.44,0-4.64-.08V-52.4Zm98.8,33.12V-.48c0,5.52,1.84,6.64,10.88,6.64,6.48,0,9.28-.56,11.04-2.32,1.68-1.68,2.24-4.32,3.04-13.28a39.891,39.891,0,0,1-8.72-3.76c0,4.8-.4,8.72-.8,9.36-.32.48-1.2.72-3.04.72-1.92,0-2.32-.24-2.32-1.2V-19.36h4.88c3.12.24,4.8.32,5.12.32a75.7,75.7,0,0,1-.4-8.8V-57.52a68.636,68.636,0,0,1,.32-8.08,63.637,63.637,0,0,1-7.68.32H200.4a61.619,61.619,0,0,1-7.84-.32,70.353,70.353,0,0,1,.24,8.08v30.4c0,3.04-.08,5.44-.16,8.08,4.72-.24,4.72-.24,7.28-.24A18.084,18.084,0,0,1,195.04-8.8c-3.44,3.76-8.08,6.24-15.12,8a27.9,27.9,0,0,1,5.76,8.72c8.8-2.88,14.16-6.4,18.24-12.08,3.28-4.48,4.48-7.68,6.08-15.12ZM202.72-56.56h20.16v4.24H202.72Zm0,12.24h20.16v4.24H202.72Zm0,12.24h20.16v4.4H202.72ZM172.48-54.56v14.24H170.4a39.4,39.4,0,0,1-5.76-.32v9.6a38.013,38.013,0,0,1,5.52-.32h2.32v16.08a72.343,72.343,0,0,1-10,2.56l2.48,10.88c.96-.4,2-.72,2.96-1.12a143.558,143.558,0,0,0,22.88-9.6l-.16-9.68c-3.84,1.84-5.04,2.32-8.08,3.6V-31.36h2c1.68,0,3.28.08,5.04.24v-9.52a29.544,29.544,0,0,1-5.04.32h-2V-54.56h1.6a51.5,51.5,0,0,1,6.48.32v-10a48.514,48.514,0,0,1-7.28.4H171.28a50.8,50.8,0,0,1-7.44-.4v10a63.032,63.032,0,0,1,6.88-.32ZM285.6-16.88c-.08-2-.16-2.8-.16-3.68,0-.96,0-.96.24-5.84l1.36-26.32c.16-4.16.48-7.92.8-10.24h-15.6c.32,2.72.64,6.64.8,10.24L274.4-26.4c.24,4.72.24,4.72.24,5.76,0,.88-.08,1.76-.16,3.76Zm1.28,19.04V-10.8H273.2V2.16Z" transform="translate(4308.586 1246.563)"/>
  </g>
</svg>
