<svg xmlns="http://www.w3.org/2000/svg" xmlns:xlink="http://www.w3.org/1999/xlink" width="2392.354" height="393.456" viewBox="0 0 2392.354 393.456">
  <defs>
    <linearGradient id="linear-gradient" x1="0.5" x2="0.5" y2="1" gradientUnits="objectBoundingBox">
      <stop offset="0" stop-color="#edd14c"/>
      <stop offset="1" stop-color="#d1ac3a"/>
    </linearGradient>
  </defs>
  <g id="グループ_20958" data-name="グループ 20958" transform="translate(-15356.443 -7888.942)">
    <g id="グループ_19035" data-name="グループ 19035" transform="translate(15215 6766.522)">
      <g id="グループ_9607" data-name="グループ 9607" transform="translate(-130.143 524.297)">
        <g id="グループ_9212" data-name="グループ 9212" transform="translate(271.586 598.123)">
          <g id="グループ_9210" data-name="グループ 9210" transform="translate(0 0)">
            <g id="グループ_1123" data-name="グループ 1123" transform="translate(2099.317 38.486)">
              <path id="パス_24163" data-name="パス 24163" d="M305.168,1634.244q.449.019.894.07c.3.036.591.087.876.121a10.3,10.3,0,0,1,1.682.379c.136.042.27.089.4.135s.261.087.39.135q.389.143.756.32a7.666,7.666,0,0,1,1.373.851,15.682,15.682,0,0,0,2.729,1.64,14.03,14.03,0,0,0,1.422.584c.467.169.924.315,1.357.442.215.063.427.123.628.176l.575.125c.365.076.691.135.962.18.545.089.873.125.873.125a18.219,18.219,0,0,1-2,1.386c-.55.3-1.126.605-1.722.885-.085.038-.169.078-.256.116-.116.053-.231.1-.347.155l-.014.006c-.818.318-1.662.622-2.521.87-.871.22-1.747.427-2.618.569a17.72,17.72,0,0,1-2.672.191,16.6,16.6,0,0,1-2.473-.265,14.648,14.648,0,0,1-2.2-.677,7.356,7.356,0,0,1-.984-.47c-.314-.172-.613-.355-.9-.546s-.552-.393-.806-.6c-.127-.106-.249-.212-.367-.32s-.233-.233-.344-.351a8.626,8.626,0,0,1-1.126-1.5,7.5,7.5,0,0,1-1.035-3.375l-.007-.106.153-.065A17.8,17.8,0,0,1,305.168,1634.244Z" transform="translate(-297.698 -1527.81)" fill="#f5c04b"/>
              <path id="パス_24164" data-name="パス 24164" d="M486.641,1565.233a8.223,8.223,0,0,1-3.617-.859,7.075,7.075,0,0,1-.728-.423,6.511,6.511,0,0,1-.656-.518,6.365,6.365,0,0,1-1.777-2.692l-.034-.093.123-.11a17.972,17.972,0,0,1,3.055-2.175,12.8,12.8,0,0,1,1.62-.83,15.934,15.934,0,0,1,1.641-.654c.557-.167,1.1-.339,1.643-.457.271-.057.543-.106.813-.142.136-.019.271-.034.405-.047s.263-.034.395-.044a8,8,0,0,1,1.542,0,7.052,7.052,0,0,1,.74.116,5.515,5.515,0,0,1,.7.176,12.365,12.365,0,0,0,1.4.36c.24.047.483.089.726.125s.488.066.726.08a19.918,19.918,0,0,0,2.751.008c.827-.076,1.548-.191,2.062-.286s.818-.167.818-.167a22.717,22.717,0,0,1-1.479,1.9c-.27.326-.571.618-.874.921s-.62.6-.945.9c-.162.144-.323.3-.493.434l-.517.411c-.347.271-.7.537-1.056.8-.18.129-.356.263-.539.383l-.555.351q-.558.346-1.116.671a14.46,14.46,0,0,1-4.636,1.7,8.591,8.591,0,0,1-1.089.144C487.335,1565.235,486.983,1565.241,486.641,1565.233Z" transform="translate(-465.912 -1455.704)" fill="#f5c04b"/>
              <path id="パス_24165" data-name="パス 24165" d="M646.342,1389.03c-.155.063-.314.116-.469.169a9.859,9.859,0,0,1-1.8.432,5.444,5.444,0,0,1-5.378-2.171l-.053-.074.086-.14a19.642,19.642,0,0,1,4.835-5.462,12.692,12.692,0,0,1,1.373-.969c.233-.144.474-.271.705-.4s.464-.25.7-.355a7.975,7.975,0,0,1,1.4-.5,6.229,6.229,0,0,1,1.361-.214,12.053,12.053,0,0,0,1.357-.127c.229-.034.46-.076.689-.12s.446-.108.668-.167a19.31,19.31,0,0,0,2.494-.876c.732-.334,1.359-.665,1.8-.914s.7-.411.7-.411c-.252.707-.559,1.441-.911,2.188-.088.186-.176.377-.273.561s-.2.366-.307.55c-.208.368-.425.739-.652,1.107a23.756,23.756,0,0,1-1.488,2.148c-.266.345-.524.7-.811,1.022s-.569.648-.855.961c-.3.328-.6.648-.913.938s-.633.559-.948.815-.631.5-.945.719-.645.408-.962.59-.636.343-.948.491C646.651,1388.895,646.5,1388.965,646.342,1389.03Z" transform="translate(-612.589 -1289.996)" fill="#f5c04b"/>
              <path id="パス_24166" data-name="パス 24166" d="M771.587,1174.5c-.125.1-.25.2-.374.29s-.257.176-.384.258q-.383.244-.762.438a7.316,7.316,0,0,1-1.477.582,5.388,5.388,0,0,1-1.421.154,4.257,4.257,0,0,1-2.452-.855l-.064-.049.042-.156a23.322,23.322,0,0,1,1.288-3.485c.277-.54.532-1.092.834-1.6s.626-1,.94-1.479a13.479,13.479,0,0,1,1.026-1.327,12.836,12.836,0,0,1,1.082-1.149,9.643,9.643,0,0,1,1.155-.914,5.887,5.887,0,0,1,1.179-.643,15.7,15.7,0,0,0,4.41-2.859c.583-.536,1.075-1.037,1.419-1.4s.543-.595.543-.595a27.138,27.138,0,0,1-2.82,9.392,17.8,17.8,0,0,1-2.67,4A15.355,15.355,0,0,1,771.587,1174.5Z" transform="translate(-728.971 -1089.552)" fill="#f5c04b"/>
              <path id="パス_24167" data-name="パス 24167" d="M852,945.5a9.508,9.508,0,0,1-1.116,1.4,6.652,6.652,0,0,1-2.413,1.649,3.882,3.882,0,0,1-2.417.074l-.067-.021v-.154c0-.3.018-.6.032-.9s.028-.6.053-.9c.049-.6.143-1.185.247-1.767a16.072,16.072,0,0,1,.365-1.725c.071-.281.164-.557.238-.834s.16-.546.252-.813a15.486,15.486,0,0,1,.617-1.536,12.509,12.509,0,0,1,.7-1.395,10.6,10.6,0,0,1,.83-1.2,6.4,6.4,0,0,1,.91-.965c.323-.273.64-.573.95-.893a12.67,12.67,0,0,0,.886-1.005,25.01,25.01,0,0,0,1.484-2.089l.3-.485c.092-.159.176-.311.257-.453.162-.288.3-.548.414-.764.226-.436.353-.7.353-.7a26.929,26.929,0,0,1-.405,9.273c-.086.415-.181.821-.282,1.217-.051.2-.1.394-.157.586s-.122.379-.185.565a21.544,21.544,0,0,1-.837,2.083A13.922,13.922,0,0,1,852,945.5Z" transform="translate(-804.088 -877.42)" fill="#f5c04b"/>
              <path id="パス_24168" data-name="パス 24168" d="M871.86,719.1a15.009,15.009,0,0,1-.49,1.892,12.629,12.629,0,0,1-.68,1.613c-1.022,1.957-2.408,3.06-3.906,3.17l-.065,0-.035-.138a20.015,20.015,0,0,1-.557-6.6,14.7,14.7,0,0,1,.187-1.577c.047-.258.1-.51.144-.755s.111-.489.175-.726a11.847,11.847,0,0,1,.467-1.348,6.881,6.881,0,0,1,.6-1.16c.227-.349.448-.724.654-1.109s.386-.783.562-1.185.337-.806.485-1.2.268-.779.382-1.145c.222-.728.4-1.378.5-1.839s.153-.739.153-.739c.122.277.243.567.354.872s.21.622.308.95.194.664.284,1.009.159.7.231,1.067.141.73.2,1.1.1.751.15,1.128.084.76.12,1.138.047.764.067,1.141c.018.4.026.789.025,1.175s-.026.766-.051,1.136A15.891,15.891,0,0,1,871.86,719.1Z" transform="translate(-822.629 -670.761)" fill="#f5c04b"/>
              <path id="パス_24169" data-name="パス 24169" d="M822.645,521.36c-.055.26-.116.508-.187.747s-.155.472-.245.692a6.58,6.58,0,0,1-.612,1.185,4.13,4.13,0,0,1-1.678,1.517l-.057.025-.065-.11a17.006,17.006,0,0,1-2.05-5.68,13.616,13.616,0,0,1-.2-1.469c-.034-.489-.067-.956-.057-1.424a11.109,11.109,0,0,1,.108-1.352,7.3,7.3,0,0,1,.277-1.234c.123-.385.234-.787.333-1.2s.169-.823.236-1.238a21.764,21.764,0,0,0,.254-2.366c.039-.717.048-1.346.046-1.794s-.023-.7-.023-.7a21.216,21.216,0,0,1,3.395,6.882c.106.345.2.69.289,1.028s.152.686.215,1.022a15.8,15.8,0,0,1,.245,1.972,15.968,15.968,0,0,1,0,1.837A13.192,13.192,0,0,1,822.645,521.36Z" transform="translate(-777.775 -486.686)" fill="#f5c04b"/>
              <path id="パス_24170" data-name="パス 24170" d="M706.952,364.177l-.044.042-.085-.074a13.893,13.893,0,0,1-3.136-4.336,12.254,12.254,0,0,1-.506-1.24,10.511,10.511,0,0,1-.375-1.244,8.439,8.439,0,0,1-.238-2.417c.025-.381.035-.777.03-1.17s-.032-.783-.064-1.172a20.986,20.986,0,0,0-.289-2.178c-.123-.65-.252-1.206-.349-1.6-.049-.2-.09-.355-.122-.459s-.044-.148-.046-.161a17.241,17.241,0,0,1,4.5,4.982,15.261,15.261,0,0,1,.9,1.638,17.132,17.132,0,0,1,.661,1.653,12.042,12.042,0,0,1,.594,3.162,7.577,7.577,0,0,1-.312,2.664A4.6,4.6,0,0,1,706.952,364.177Z" transform="translate(-670.854 -340.029)" fill="#f5c04b"/>
              <path id="パス_24171" data-name="パス 24171" d="M547.194,254.144l-.09-.038a10.538,10.538,0,0,1-3.763-2.772,10.428,10.428,0,0,1-1.336-1.907,7.057,7.057,0,0,1-.751-2.053,13.54,13.54,0,0,0-.546-2.055,18.091,18.091,0,0,0-.73-1.831c-.5-1.067-.936-1.8-.936-1.8a13.951,13.951,0,0,1,5.048,2.939,11.135,11.135,0,0,1,3.346,4.956,5.857,5.857,0,0,1-.213,4.508Z" transform="translate(-520.599 -241.688)" fill="#f5c04b"/>
              <path id="パス_24172" data-name="パス 24172" d="M298.539,1428a11.947,11.947,0,0,1,.807-1.559c.076-.123.153-.245.234-.366s.16-.254.245-.377q.249-.372.522-.724c.18-.235.368-.461.562-.682s.393-.427.6-.654a12.494,12.494,0,0,1,1.292-1.21,11.989,11.989,0,0,1,1.4-1.09,13.043,13.043,0,0,1,1.514-.946,25.4,25.4,0,0,1,5.806-2.588s-.086.265-.234.726c-.072.233-.16.516-.261.842-.049.163-.1.339-.159.523l-.183.561c-.125.394-.261.823-.4,1.276s-.286.952-.444,1.431c-.308.969-.62,2.036-.894,3.094a7.457,7.457,0,0,1-.594,1.524,8.19,8.19,0,0,1-.423.722c-.078.116-.157.235-.241.349s-.173.216-.263.322a9.614,9.614,0,0,1-1.227,1.185,5.444,5.444,0,0,1-.709.5q-.37.229-.762.425a8.382,8.382,0,0,1-6.887.315l-.143-.057.005-.1A10.248,10.248,0,0,1,298.539,1428Z" transform="translate(-297.698 -1327.926)" fill="#f5c04b"/>
              <path id="パス_24173" data-name="パス 24173" d="M472.85,1338.793s-.019.269-.053.739-.069,1.149-.107,1.97c-.051.8-.109,1.735-.148,2.749-.009.256-.021.51-.034.762s-.021.512-.032.772c-.018.521-.027,1.05-.025,1.579a6.606,6.606,0,0,1-.171,1.6,9.272,9.272,0,0,1-.511,1.583c-.055.129-.113.262-.175.389s-.13.25-.2.372c-.141.248-.291.491-.453.732a8.486,8.486,0,0,1-1.1,1.356,10.37,10.37,0,0,1-1.334,1.149,11.93,11.93,0,0,1-1.512.87,7.758,7.758,0,0,1-3.3.7l-.145,0-.019-.1a9.853,9.853,0,0,1-.1-3.375c.039-.283.088-.563.146-.844s.12-.576.194-.859a14.469,14.469,0,0,1,.548-1.674,19.4,19.4,0,0,1,3.784-6.075A26.765,26.765,0,0,1,472.85,1338.793Z" transform="translate(-450.679 -1254.955)" fill="#f5c04b"/>
              <path id="パス_24174" data-name="パス 24174" d="M600.5,1237.318c.071-.29.148-.58.236-.863s.185-.565.284-.849.2-.576.307-.859.231-.559.36-.832.247-.565.384-.84a29.283,29.283,0,0,1,3.353-5.606s.042.254.115.694.19,1.071.338,1.833.286,1.619.478,2.556c.094.459.192.938.291,1.422s.211.961.331,1.439a7.072,7.072,0,0,1,.215,1.513,9.573,9.573,0,0,1-.108,1.6q-.063.41-.159.825c-.064.275-.152.54-.243.811a12.591,12.591,0,0,1-.677,1.606,9.681,9.681,0,0,1-4.913,4.565l-.13.046-.042-.08a11.228,11.228,0,0,1-.9-6.385,15.538,15.538,0,0,1,.277-1.729C600.372,1237.893,600.44,1237.6,600.5,1237.318Z" transform="translate(-576.83 -1152.139)" fill="#f5c04b"/>
              <path id="パス_24175" data-name="パス 24175" d="M703.65,1103.273a10.617,10.617,0,0,1-3.346,5.788l-.106.089-.057-.057a7.319,7.319,0,0,1-1.53-2.41,10.93,10.93,0,0,1-.472-1.458,13.616,13.616,0,0,1-.319-1.587c-.039-.271-.069-.544-.092-.819s-.039-.561-.058-.838a15.441,15.441,0,0,1,0-1.714,21.762,21.762,0,0,1,.425-3.532,31.3,31.3,0,0,1,1.77-6.234l.261.6c.169.376.414.914.719,1.56.571,1.268,1.375,2.99,2.223,4.552a6.669,6.669,0,0,1,.541,1.3,7.89,7.89,0,0,1,.27,1.479,10.257,10.257,0,0,1,.023,1.617A13.454,13.454,0,0,1,703.65,1103.273Z" transform="translate(-667.083 -1025.636)" fill="#f5c04b"/>
              <path id="パス_24176" data-name="パス 24176" d="M744.388,949.267c-.162-.5-.278-1.018-.4-1.551a14.322,14.322,0,0,1-.284-1.64l-.042-.419c-.019-.144-.035-.286-.049-.43-.03-.286-.049-.576-.062-.868a31.179,31.179,0,0,1,.183-6.308l.372.463c.12.146.266.322.434.525.085.1.175.205.27.32s.187.229.286.351c.4.489.88,1.056,1.4,1.644.259.288.525.586.8.891s.552.59.837.872a5.5,5.5,0,0,1,.788.995,6.9,6.9,0,0,1,.582,1.244,10.478,10.478,0,0,1,.4,1.448,12.345,12.345,0,0,1,.157,1.583c.01.273.014.55.009.827a8.2,8.2,0,0,1-.065.832,15.222,15.222,0,0,1-.287,1.661,11.891,11.891,0,0,1-.534,1.583c-.1.254-.217.5-.337.745s-.266.47-.409.694l-.076.114-.065-.032a5.726,5.726,0,0,1-1.935-1.627,10.144,10.144,0,0,1-1.438-2.469C744.743,950.257,744.542,949.766,744.388,949.267Z" transform="translate(-709.417 -884.837)" fill="#f5c04b"/>
              <path id="パス_24177" data-name="パス 24177" d="M737.136,788.464a5.481,5.481,0,0,1,.321.614,10.848,10.848,0,0,1,.545,7.595l-.041.127-.067-.006a6.163,6.163,0,0,1-3.985-2.527,15.708,15.708,0,0,1-2.7-5.3,28.452,28.452,0,0,1-1.271-5.773s.162.11.446.3.67.455,1.153.764l.777.493c.268.176.555.355.853.537s.608.364.925.542.626.353.947.514a4.459,4.459,0,0,1,.925.639,5.447,5.447,0,0,1,.809.927C736.9,788.084,737.02,788.27,737.136,788.464Z" transform="translate(-696.909 -741.813)" fill="#f5c04b"/>
              <path id="パス_24178" data-name="パス 24178" d="M686.572,648.352l-.06.017a4.174,4.174,0,0,1-2.082.021,5.761,5.761,0,0,1-1.043-.355c-.171-.078-.34-.165-.509-.258s-.344-.193-.513-.3a8.287,8.287,0,0,1-.987-.739,10.477,10.477,0,0,1-.95-.9c-.294-.328-.608-.669-.89-1.043-.145-.184-.275-.381-.418-.576s-.277-.4-.407-.607a23.549,23.549,0,0,1-2.471-4.814s.169.049.465.129.707.2,1.207.324,1.075.273,1.694.406c.308.068.631.127.952.186s.64.114.962.152a3.651,3.651,0,0,1,.975.269,4.607,4.607,0,0,1,.934.561,5.783,5.783,0,0,1,.878.819,9.116,9.116,0,0,1,.777,1.043,10.3,10.3,0,0,1,1.491,5.532Z" transform="translate(-647.314 -608.456)" fill="#f5c04b"/>
              <path id="パス_24179" data-name="パス 24179" d="M600.612,513.827l.028.114-.049.036a4.03,4.03,0,0,1-1.835.724,5.8,5.8,0,0,1-2.05-.119,8.252,8.252,0,0,1-2.1-.821,8.355,8.355,0,0,1-1.042-.641,12.357,12.357,0,0,1-1.014-.794,18.581,18.581,0,0,1-3.316-3.538l.444-.025c.28-.017.679-.044,1.156-.089s1.021-.1,1.6-.173c.291-.038.589-.083.89-.135s.6-.106.892-.174a3.454,3.454,0,0,1,1.888.121,5.641,5.641,0,0,1,.968.438,6.776,6.776,0,0,1,.924.677A8.47,8.47,0,0,1,600.612,513.827Z" transform="translate(-566.956 -487.753)" fill="#f5c04b"/>
              <path id="パス_24180" data-name="パス 24180" d="M483.618,395A6.823,6.823,0,0,1,486.936,398l.049.091-.034.049a4.7,4.7,0,0,1-3.28,1.826,8.156,8.156,0,0,1-4.215-.645,14.386,14.386,0,0,1-3.754-2.089s.569-.218,1.4-.6c.418-.2.887-.4,1.385-.66s1.022-.542,1.512-.842a3.373,3.373,0,0,1,1.7-.5A4.718,4.718,0,0,1,483.618,395Z" transform="translate(-462.1 -382.941)" fill="#f5c04b"/>
            </g>
            <g id="グループ_9209" data-name="グループ 9209" transform="translate(268.433 38.486)">
              <path id="パス_24163-2" data-name="パス 24163" d="M312.617,1634.244q-.449.019-.894.07c-.3.036-.591.087-.876.121a10.3,10.3,0,0,0-1.682.379c-.136.042-.27.089-.4.135s-.261.087-.39.135q-.389.143-.756.32a7.666,7.666,0,0,0-1.373.851,15.681,15.681,0,0,1-2.729,1.64,14.036,14.036,0,0,1-1.422.584c-.467.169-.924.315-1.357.442-.215.063-.427.123-.628.176l-.575.125c-.365.076-.691.135-.962.18-.545.089-.873.125-.873.125a18.222,18.222,0,0,0,2,1.386c.55.3,1.126.605,1.722.885.085.038.169.078.256.116.116.053.231.1.347.155l.014.006c.818.318,1.662.622,2.521.87.871.22,1.747.427,2.617.569a17.72,17.72,0,0,0,2.672.191,16.6,16.6,0,0,0,2.473-.265,14.648,14.648,0,0,0,2.2-.677,7.356,7.356,0,0,0,.984-.47c.314-.172.613-.355.9-.546s.552-.393.806-.6c.127-.106.249-.212.367-.32s.233-.233.344-.351a8.627,8.627,0,0,0,1.126-1.5,7.5,7.5,0,0,0,1.035-3.375l.007-.106-.153-.065A17.8,17.8,0,0,0,312.617,1634.244Z" transform="translate(-269.056 -1527.81)" fill="#f5c04b"/>
              <path id="パス_24164-2" data-name="パス 24164" d="M494.183,1565.233a8.223,8.223,0,0,0,3.617-.859,7.082,7.082,0,0,0,.728-.423,6.517,6.517,0,0,0,.656-.518,6.364,6.364,0,0,0,1.777-2.692l.034-.093-.123-.11a17.972,17.972,0,0,0-3.055-2.175,12.8,12.8,0,0,0-1.62-.83,15.939,15.939,0,0,0-1.641-.654c-.557-.167-1.1-.339-1.643-.457-.271-.057-.543-.106-.813-.142-.136-.019-.271-.034-.405-.047s-.263-.034-.395-.044a8,8,0,0,0-1.542,0,7.052,7.052,0,0,0-.74.116,5.515,5.515,0,0,0-.7.176,12.363,12.363,0,0,1-1.4.36c-.24.047-.483.089-.726.125s-.488.066-.726.08a19.918,19.918,0,0,1-2.751.008c-.827-.076-1.548-.191-2.062-.286s-.818-.167-.818-.167a22.691,22.691,0,0,0,1.479,1.9c.27.326.571.618.874.921s.62.6.945.9c.162.144.323.3.493.434l.516.411c.347.271.7.537,1.056.8.18.129.356.263.539.383l.555.351q.558.346,1.116.671a14.46,14.46,0,0,0,4.636,1.7,8.59,8.59,0,0,0,1.089.144C493.489,1565.235,493.841,1565.241,494.183,1565.233Z" transform="translate(-463.881 -1455.704)" fill="#f5c04b"/>
              <path id="パス_24165-2" data-name="パス 24165" d="M649.122,1389.03c.155.063.314.116.469.169a9.859,9.859,0,0,0,1.8.432,5.444,5.444,0,0,0,5.378-2.171l.053-.074-.086-.14a19.642,19.642,0,0,0-4.835-5.462,12.68,12.68,0,0,0-1.373-.969c-.233-.144-.474-.271-.705-.4s-.464-.25-.7-.355a7.977,7.977,0,0,0-1.4-.5,6.23,6.23,0,0,0-1.361-.214,12.055,12.055,0,0,1-1.357-.127c-.229-.034-.46-.076-.689-.12s-.446-.108-.668-.167a19.311,19.311,0,0,1-2.494-.876c-.732-.334-1.359-.665-1.8-.914s-.705-.411-.705-.411c.252.707.559,1.441.911,2.188.088.186.176.377.273.561s.2.366.307.55c.208.368.425.739.652,1.107a23.757,23.757,0,0,0,1.488,2.148c.266.345.523.7.811,1.022s.569.648.855.961c.3.328.6.648.913.938s.633.559.948.815.631.5.945.719.645.408.962.59.636.343.948.491C648.814,1388.895,648.969,1388.965,649.122,1389.03Z" transform="translate(-631.844 -1289.997)" fill="#f5c04b"/>
              <path id="パス_24166-2" data-name="パス 24166" d="M771.64,1174.5c.125.1.25.2.374.29s.257.176.384.258q.383.244.762.438a7.316,7.316,0,0,0,1.477.582,5.388,5.388,0,0,0,1.421.154,4.257,4.257,0,0,0,2.452-.855l.064-.049-.042-.156a23.322,23.322,0,0,0-1.288-3.485c-.277-.54-.532-1.092-.834-1.6s-.626-1-.94-1.479a13.479,13.479,0,0,0-1.026-1.327,12.836,12.836,0,0,0-1.082-1.149,9.643,9.643,0,0,0-1.155-.914,5.887,5.887,0,0,0-1.179-.643,15.7,15.7,0,0,1-4.41-2.859c-.583-.536-1.075-1.037-1.419-1.4s-.543-.595-.543-.595a27.138,27.138,0,0,0,2.82,9.392,17.8,17.8,0,0,0,2.67,4A15.355,15.355,0,0,0,771.64,1174.5Z" transform="translate(-763.224 -1089.552)" fill="#f5c04b"/>
              <path id="パス_24167-2" data-name="パス 24167" d="M849.107,945.5a9.508,9.508,0,0,0,1.116,1.4,6.651,6.651,0,0,0,2.413,1.649,3.882,3.882,0,0,0,2.417.074l.067-.021v-.154c0-.3-.018-.6-.032-.9s-.028-.6-.053-.9c-.049-.6-.143-1.185-.247-1.767a16.1,16.1,0,0,0-.365-1.725c-.071-.281-.164-.557-.238-.834s-.161-.546-.252-.813a15.486,15.486,0,0,0-.617-1.536,12.508,12.508,0,0,0-.7-1.395,10.619,10.619,0,0,0-.83-1.2,6.394,6.394,0,0,0-.909-.965c-.323-.273-.64-.573-.95-.893a12.67,12.67,0,0,1-.886-1.005,24.979,24.979,0,0,1-1.484-2.089l-.3-.485c-.092-.159-.176-.311-.257-.453-.162-.288-.3-.548-.414-.764-.226-.436-.353-.7-.353-.7a26.929,26.929,0,0,0,.405,9.273c.086.415.182.821.282,1.217.051.2.1.394.157.586s.122.379.185.565a21.544,21.544,0,0,0,.837,2.083A13.937,13.937,0,0,0,849.107,945.5Z" transform="translate(-845.986 -877.42)" fill="#f5c04b"/>
              <path id="パス_24168-2" data-name="パス 24168" d="M866.386,719.1a14.987,14.987,0,0,0,.49,1.892,12.626,12.626,0,0,0,.68,1.613c1.022,1.957,2.408,3.06,3.906,3.17l.065,0,.035-.138a20.018,20.018,0,0,0,.557-6.6,14.707,14.707,0,0,0-.187-1.577c-.047-.258-.1-.51-.144-.755s-.111-.489-.175-.726a11.844,11.844,0,0,0-.467-1.348,6.886,6.886,0,0,0-.6-1.16c-.227-.349-.448-.724-.654-1.109s-.386-.783-.562-1.185-.337-.806-.485-1.2-.268-.779-.383-1.145c-.222-.728-.4-1.378-.5-1.839s-.153-.739-.153-.739c-.122.277-.243.567-.354.872s-.21.622-.308.95-.194.664-.284,1.009-.159.7-.231,1.067-.141.73-.2,1.1-.1.751-.15,1.128-.085.76-.12,1.138-.048.764-.067,1.141c-.017.4-.026.789-.025,1.174s.026.766.051,1.136A15.871,15.871,0,0,0,866.386,719.1Z" transform="translate(-864.585 -670.761)" fill="#f5c04b"/>
              <path id="パス_24169-2" data-name="パス 24169" d="M817.752,521.36c.055.26.116.508.187.747s.155.472.245.692a6.58,6.58,0,0,0,.612,1.185,4.13,4.13,0,0,0,1.678,1.517l.057.025.065-.11a17.006,17.006,0,0,0,2.05-5.68,13.616,13.616,0,0,0,.2-1.469c.034-.489.067-.956.057-1.424a11.109,11.109,0,0,0-.108-1.352,7.3,7.3,0,0,0-.277-1.234c-.123-.385-.234-.787-.333-1.2s-.169-.823-.236-1.238a21.8,21.8,0,0,1-.254-2.366c-.039-.717-.048-1.346-.046-1.794s.023-.7.023-.7a21.216,21.216,0,0,0-3.395,6.882c-.106.345-.2.69-.289,1.028s-.152.686-.215,1.022a15.8,15.8,0,0,0-.245,1.972,16,16,0,0,0,0,1.837A13.192,13.192,0,0,0,817.752,521.36Z" transform="translate(-811.591 -486.686)" fill="#f5c04b"/>
              <path id="パス_24170-2" data-name="パス 24170" d="M703.179,364.177l.044.042.085-.074a13.893,13.893,0,0,0,3.136-4.336,12.26,12.26,0,0,0,.506-1.24,10.511,10.511,0,0,0,.375-1.244,8.441,8.441,0,0,0,.238-2.417c-.025-.381-.035-.777-.03-1.17s.032-.783.064-1.172a20.985,20.985,0,0,1,.289-2.178c.123-.65.252-1.206.349-1.6.049-.2.09-.355.122-.459s.044-.148.046-.161a17.241,17.241,0,0,0-4.5,4.982,15.26,15.26,0,0,0-.9,1.638,17.134,17.134,0,0,0-.661,1.653,12.042,12.042,0,0,0-.594,3.162,7.578,7.578,0,0,0,.312,2.664A4.594,4.594,0,0,0,703.179,364.177Z" transform="translate(-688.245 -340.029)" fill="#f5c04b"/>
              <path id="パス_24171-2" data-name="パス 24171" d="M539.624,254.144l.09-.038a10.538,10.538,0,0,0,3.763-2.772,10.425,10.425,0,0,0,1.336-1.907,7.055,7.055,0,0,0,.751-2.053,13.54,13.54,0,0,1,.546-2.055,18.091,18.091,0,0,1,.73-1.831c.5-1.067.936-1.8.936-1.8a13.951,13.951,0,0,0-5.048,2.939,11.135,11.135,0,0,0-3.346,4.956,5.857,5.857,0,0,0,.213,4.508Z" transform="translate(-515.188 -241.688)" fill="#f5c04b"/>
              <path id="パス_24172-2" data-name="パス 24172" d="M310.684,1428a11.955,11.955,0,0,0-.807-1.559c-.076-.123-.153-.245-.234-.366s-.16-.254-.245-.377q-.249-.372-.522-.724c-.18-.235-.368-.461-.562-.682s-.393-.427-.6-.654a12.5,12.5,0,0,0-1.292-1.21,11.992,11.992,0,0,0-1.4-1.09,13.045,13.045,0,0,0-1.514-.946,25.4,25.4,0,0,0-5.806-2.588s.086.265.234.726c.072.233.16.516.261.842.049.163.1.339.159.523l.183.561c.125.394.261.823.4,1.276s.286.952.444,1.431c.308.969.62,2.036.894,3.094a7.459,7.459,0,0,0,.594,1.524,8.183,8.183,0,0,0,.423.722c.078.116.157.235.241.349s.173.216.263.322a9.61,9.61,0,0,0,1.227,1.185,5.442,5.442,0,0,0,.709.5q.37.229.761.425a8.382,8.382,0,0,0,6.887.315l.143-.057-.005-.1A10.248,10.248,0,0,0,310.684,1428Z" transform="translate(-260.493 -1327.926)" fill="#f5c04b"/>
              <path id="パス_24173-2" data-name="パス 24173" d="M463.337,1338.793s.019.269.053.739.069,1.149.107,1.97c.051.8.109,1.735.148,2.749.009.256.021.51.034.762s.021.512.032.772c.018.521.027,1.05.025,1.579a6.6,6.6,0,0,0,.171,1.6,9.266,9.266,0,0,0,.511,1.583c.055.129.113.262.175.389s.13.25.2.372c.141.248.291.491.453.732a8.483,8.483,0,0,0,1.1,1.356,10.37,10.37,0,0,0,1.334,1.149,11.93,11.93,0,0,0,1.512.87,7.758,7.758,0,0,0,3.3.7l.145,0,.019-.1a9.853,9.853,0,0,0,.1-3.375c-.039-.283-.088-.563-.146-.844s-.12-.576-.194-.859a14.469,14.469,0,0,0-.548-1.674,19.4,19.4,0,0,0-3.784-6.075A26.767,26.767,0,0,0,463.337,1338.793Z" transform="translate(-434.476 -1254.956)" fill="#f5c04b"/>
              <path id="パス_24174-2" data-name="パス 24174" d="M606.619,1237.318c-.071-.29-.148-.58-.236-.863s-.185-.565-.284-.849-.2-.576-.307-.859-.231-.559-.36-.832-.247-.565-.384-.84a29.283,29.283,0,0,0-3.353-5.606s-.042.254-.115.694-.19,1.071-.338,1.833-.286,1.619-.478,2.556c-.094.459-.192.938-.291,1.422s-.211.961-.331,1.439a7.072,7.072,0,0,0-.215,1.513,9.573,9.573,0,0,0,.108,1.6q.063.41.159.825c.064.275.152.54.243.811a12.591,12.591,0,0,0,.677,1.606,9.681,9.681,0,0,0,4.913,4.565l.13.046.042-.08a11.228,11.228,0,0,0,.9-6.385,15.538,15.538,0,0,0-.277-1.729C606.751,1237.893,606.684,1237.6,606.619,1237.318Z" transform="translate(-579.261 -1152.139)" fill="#f5c04b"/>
              <path id="パス_24175-2" data-name="パス 24175" d="M697.919,1103.273a10.618,10.618,0,0,0,3.346,5.788l.106.089.057-.057a7.32,7.32,0,0,0,1.53-2.41,10.93,10.93,0,0,0,.472-1.458,13.616,13.616,0,0,0,.319-1.587q.058-.406.092-.819t.058-.838a15.426,15.426,0,0,0,0-1.714,21.762,21.762,0,0,0-.425-3.532,31.3,31.3,0,0,0-1.77-6.234l-.261.6c-.169.376-.414.914-.719,1.56-.571,1.268-1.375,2.99-2.223,4.552a6.669,6.669,0,0,0-.541,1.3,7.88,7.88,0,0,0-.27,1.479,10.243,10.243,0,0,0-.023,1.617A13.442,13.442,0,0,0,697.919,1103.273Z" transform="translate(-683.454 -1025.636)" fill="#f5c04b"/>
              <path id="パス_24176-2" data-name="パス 24176" d="M749.168,949.267c.162-.5.278-1.018.4-1.551a14.3,14.3,0,0,0,.284-1.64l.042-.419c.019-.144.035-.286.049-.43.03-.286.049-.576.062-.868a31.18,31.18,0,0,0-.183-6.308l-.372.464-.434.525c-.085.1-.175.205-.27.32s-.187.229-.286.351c-.4.489-.88,1.056-1.4,1.644-.259.288-.525.586-.8.891s-.552.59-.837.872a5.507,5.507,0,0,0-.788.995,6.894,6.894,0,0,0-.582,1.244,10.476,10.476,0,0,0-.4,1.447,12.348,12.348,0,0,0-.157,1.583c-.01.273-.014.55-.009.827a8.207,8.207,0,0,0,.065.832,15.249,15.249,0,0,0,.287,1.661,11.894,11.894,0,0,0,.534,1.583c.1.254.217.5.337.745s.266.47.409.694l.076.114.065-.032a5.728,5.728,0,0,0,1.935-1.627,10.147,10.147,0,0,0,1.438-2.469C748.813,950.258,749.014,949.767,749.168,949.267Z" transform="translate(-733.108 -884.837)" fill="#f5c04b"/>
              <path id="パス_24177-2" data-name="パス 24177" d="M731.226,788.464a5.481,5.481,0,0,0-.321.614,10.849,10.849,0,0,0-.545,7.595l.041.127.067-.006a6.163,6.163,0,0,0,3.985-2.527,15.708,15.708,0,0,0,2.7-5.3,28.452,28.452,0,0,0,1.271-5.773s-.162.11-.446.3-.67.455-1.153.764l-.777.493c-.268.176-.555.355-.853.537s-.608.364-.925.542-.626.353-.947.514a4.455,4.455,0,0,0-.925.639,5.445,5.445,0,0,0-.809.927C731.462,788.084,731.342,788.27,731.226,788.464Z" transform="translate(-720.422 -741.813)" fill="#f5c04b"/>
              <path id="パス_24178-2" data-name="パス 24178" d="M676.249,648.352l.06.017a4.174,4.174,0,0,0,2.082.021,5.758,5.758,0,0,0,1.043-.355c.171-.078.34-.165.509-.258s.344-.193.513-.3a8.292,8.292,0,0,0,.987-.739,10.485,10.485,0,0,0,.95-.9c.294-.328.608-.669.89-1.043.145-.184.275-.381.418-.576s.277-.4.407-.607a23.552,23.552,0,0,0,2.471-4.814s-.169.049-.465.129-.707.2-1.207.324-1.075.273-1.694.406c-.308.068-.631.127-.952.186s-.64.114-.962.152a3.65,3.65,0,0,0-.975.269,4.607,4.607,0,0,0-.934.561,5.786,5.786,0,0,0-.878.819,9.123,9.123,0,0,0-.777,1.043,10.3,10.3,0,0,0-1.491,5.532Z" transform="translate(-664.476 -608.456)" fill="#f5c04b"/>
              <path id="パス_24179-2" data-name="パス 24179" d="M589.262,513.827l-.028.114.049.036a4.029,4.029,0,0,0,1.835.724,5.8,5.8,0,0,0,2.05-.119,8.251,8.251,0,0,0,2.1-.821,8.355,8.355,0,0,0,1.042-.641,12.357,12.357,0,0,0,1.014-.794,18.581,18.581,0,0,0,3.316-3.538l-.444-.025c-.28-.017-.679-.044-1.156-.089s-1.021-.1-1.6-.173c-.291-.038-.589-.083-.89-.135s-.6-.106-.892-.174a3.455,3.455,0,0,0-1.888.121,5.643,5.643,0,0,0-.968.438,6.776,6.776,0,0,0-.924.677A8.469,8.469,0,0,0,589.262,513.827Z" transform="translate(-571.887 -487.753)" fill="#f5c04b"/>
              <path id="パス_24180-2" data-name="パス 24180" d="M479.069,395A6.822,6.822,0,0,0,475.751,398l-.049.091.034.049a4.7,4.7,0,0,0,3.28,1.826,8.156,8.156,0,0,0,4.215-.645,14.383,14.383,0,0,0,3.754-2.089s-.569-.218-1.4-.6c-.418-.2-.887-.4-1.385-.66s-1.022-.542-1.512-.842a3.373,3.373,0,0,0-1.7-.5A4.719,4.719,0,0,0,479.069,395Z" transform="translate(-449.556 -382.941)" fill="#f5c04b"/>
            </g>
            <path id="合体_35" data-name="合体 35" d="M0,95.795a95.787,95.787,0,1,1,181.951,41.891L202.5,171.961,163.945,163.1A95.787,95.787,0,0,1,0,95.795Z" transform="translate(0)" fill="#533afc"/>
            <path id="合体_35_-_アウトライン" data-name="合体 35 - アウトライン" d="M95.787,190.582a95.484,95.484,0,0,0,19.257-1.957,94.268,94.268,0,0,0,34.112-14.484,95.494,95.494,0,0,0,14.078-11.746l.392-.4,36.81,8.462-19.621-32.725.237-.487A94.211,94.211,0,0,0,188.1,117.4a95.677,95.677,0,0,0,.548-40.712,94.274,94.274,0,0,0-14.261-33.895,95.064,95.064,0,0,0-41.7-34.346,94.3,94.3,0,0,0-17.791-5.523,95.721,95.721,0,0,0-38.209,0A94.257,94.257,0,0,0,42.79,17.189,95.071,95.071,0,0,0,8.448,58.9,94.318,94.318,0,0,0,2.926,76.689a95.729,95.729,0,0,0,0,38.209,94.264,94.264,0,0,0,14.261,33.891,95.067,95.067,0,0,0,41.7,34.344,94.3,94.3,0,0,0,17.791,5.523,95.493,95.493,0,0,0,19.1,1.926m0,1a95.727,95.727,0,1,1,86.164-53.9L202.5,171.961,163.945,163.1A95.493,95.493,0,0,1,95.787,191.582Z" transform="translate(0)" fill="#707070"/>
            <path id="パス_24181" data-name="パス 24181" d="M27.827,29.737a39.108,39.108,0,0,1,4.42,2.728H26.9c.109,1.2.164,1.855.218,3.328l-4.474-2.128a45.7,45.7,0,0,1-1.037,4.8c-.218-1.91-.491-3.765-1.037-6.711l-4.474.873a61.541,61.541,0,0,1,.982,10.422l2.619-.546a19.327,19.327,0,0,1-2.073,3.219l6.057,4.638a41.2,41.2,0,0,0,3.438-9.385V47.2c0,1.8.273,2.728,1.037,3.274,1.037.764,3,1.091,6.384,1.091,8.021,0,9.167-.982,9.876-8.075a34.436,34.436,0,0,1,1.255,5.675l7.312-3.819A68.431,68.431,0,0,0,47.47,31.32l-6.711,3.11a41.555,41.555,0,0,1,2.892,6.548A30.412,30.412,0,0,1,37.813,38.9c-.055,2.455-.055,3.71-.055,3.765-.109.873-.273,1.31-.6,1.473a5.6,5.6,0,0,1-1.473.218c-.982,0-1.146-.164-1.146-.982V34.43a24.6,24.6,0,0,1,2.237,2.346l5.074-5.293a43.734,43.734,0,0,0-5.838-4.256c3.983-.437,4.638-.546,7.039-.928.655,1.473.818,1.8,1.691,3.656l6.766-4.311A80.816,80.816,0,0,0,42.832,12.6l-6.057,3.11c1.419,2.019,1.855,2.674,2.837,4.2-2.183.218-4.147.327-6.657.491a99.62,99.62,0,0,0,5.238-9.767l-6.82-1.91c2.619-3.219,2.619-3.219,3.492-4.365L27.718.546a27.865,27.865,0,0,1-7.2,8.075L15.66,6.166a60.342,60.342,0,0,1-4.965,8.948,14.894,14.894,0,0,0-1.146-1.637,76.482,76.482,0,0,0,5.129-9.112,9.718,9.718,0,0,1,.873-1.582L8.512,0A30.922,30.922,0,0,1,5.293,7.912L3.983,6.329l-3.6,6.657a66,66,0,0,1,6,8.4C5.62,22.426,5.62,22.48,5.02,23.244H4.256l-.491.055a22.956,22.956,0,0,1-3.11-.218l.655,7.693c1.091-.164,3.056-.327,6.984-.546V46.215a42.69,42.69,0,0,1-.327,6H15.66a33.059,33.059,0,0,1-.327-6.057V29.683a6.059,6.059,0,0,0,1.255-.109c.327,0,.327,0,1.146-.055l.273,2.019,4.965-1.473a58.113,58.113,0,0,0-3.656-12.113L15.5,19.316c1.964-2.728,3.219-4.474,4.147-6a21.989,21.989,0,0,1,2.783,4.038,41.679,41.679,0,0,0,7.475-6.82,60.5,60.5,0,0,1-5.129,10.04c-.382,0-.709.055-.928.055h-.709a6.247,6.247,0,0,1-.818-.055l1.2,7.966a20.313,20.313,0,0,1,4.256-.491c.546-.055,1.31-.109,2.4-.218ZM15.114,19.807a32.186,32.186,0,0,1,1.091,3.056c-1.637.164-1.964.164-3.656.273C13.75,21.607,14.241,20.952,15.114,19.807Zm-12.932,12c-.218,7.039-.655,10.476-1.8,14.95l5.293,2.783A89.979,89.979,0,0,0,7.366,32.52ZM35.357,4.42c.6.655.928.982,1.419,1.582a36.8,36.8,0,0,0,6,6.22,33.77,33.77,0,0,0,6.111,4.311A32.346,32.346,0,0,1,52.927,9,26.436,26.436,0,0,1,41.85.437ZM70.114,23.572a50.418,50.418,0,0,1,5.074-.218H95.05a45.774,45.774,0,0,1,5.238.218v-3a58.194,58.194,0,0,0,7.366,3.547,30.6,30.6,0,0,1,3.819-8.566A45.356,45.356,0,0,1,98.651,9.494C94.231,6.6,91.667,4.256,89.321.928H80.427a32.483,32.483,0,0,1-9.058,8.785,43.311,43.311,0,0,1-12.659,6.22A29.194,29.194,0,0,1,62.8,23.953a53.062,53.062,0,0,0,7.312-3.492Zm7.2-7.748a38.728,38.728,0,0,0,7.693-7.53,42.382,42.382,0,0,0,8.021,7.53ZM74.152,51.836V49.6h21.88v2.237h8.785a36.422,36.422,0,0,1-.327-6.057V32.247a41.189,41.189,0,0,1,.273-5.784c-1.31.109-2.892.164-5.293.164H70.66c-2.4,0-3.983-.055-5.238-.164a53.964,53.964,0,0,1,.273,5.784V45.724a46.125,46.125,0,0,1-.327,6.111Zm0-17.624h21.88v7.8H74.152ZM20.843,62.318a24.583,24.583,0,0,1,.273,4.256c0,10.094-1.746,18.224-5.184,24.281C12.6,96.747,8.075,100.785,0,104.823a25.939,25.939,0,0,1,5.565,8.021A48.274,48.274,0,0,0,17.3,103.786c4.256-4.42,6.6-8.566,8.948-15.714a40.436,40.436,0,0,0,7.366,13.586A48.757,48.757,0,0,0,46.925,112.9a31.718,31.718,0,0,1,5.565-8.621,36.557,36.557,0,0,1-9.549-6.22A35.952,35.952,0,0,1,32.684,82.834a54.512,54.512,0,0,1-2.237-16.1,22.017,22.017,0,0,1,.327-4.42ZM85.665,89.163h8.566c.055,7.966.928,12.932,2.837,17.351,1.746,3.874,4.529,6.329,7.312,6.329a5.244,5.244,0,0,0,4.583-2.674c1.146-1.964,1.855-4.911,2.4-10.422a20.743,20.743,0,0,1-5.838-3.929V96.8c0,2.728-.273,5.02-.818,5.947-1.637-2.346-2.4-7.421-2.4-15.551a42.067,42.067,0,0,1,.273-5.4c-1.691.109-2.783.164-6.548.164H66.622a27.531,27.531,0,0,1-4.256-.218v7.693a68.515,68.515,0,0,1,6.875-.273h1.146l-5.565,5.074a95.059,95.059,0,0,1,8.294,5.456c-3.819,2.674-6.548,4.038-13.2,6.493a27.075,27.075,0,0,1,5.456,7.148c6.439-2.892,10.2-5.074,14.4-8.457,3.71,3.056,5.784,4.965,8.566,7.693l5.729-6.384c-3.274-2.837-4.474-3.874-8.4-6.875A47.094,47.094,0,0,0,89.7,94.238c1.2-1.637,1.419-1.91,1.855-2.455Zm-2.674,0a26.64,26.64,0,0,1-3.929,5.347c-2.837-1.964-4.583-3.056-8.512-5.347Zm-12.877-8.73a49.364,49.364,0,0,1,5.293-.218H98c2.837,0,4.474.055,6.22.218v-6.82a56.224,56.224,0,0,1-6.22.218H72.079c.546-.818.709-1.037,1.146-1.691H101.27c2.728,0,4.747.109,6.711.273V64.337a54.134,54.134,0,0,1-6.711.327H77.535c.818-1.691,1.31-2.674,1.419-2.892l-9-1.037a13.238,13.238,0,0,1-1.364,3.6c-2.019,3.983-4.911,7.475-9.494,11.349a27.465,27.465,0,0,1,6,6.057,50.4,50.4,0,0,0,5.02-5.4Z" transform="translate(32.008 47.881) rotate(-8)" fill="#fff"/>
          </g>
        </g>
        <path id="パス_24185" data-name="パス 24185" d="M78.369,15.587C77.187,13.04,75.732,9.312,74,4.492L54.27-50.254a72.569,72.569,0,0,1-3.092-9.821H27.443a55.512,55.512,0,0,1-2.91,9.821L4.89,4.492A89.591,89.591,0,0,1,.525,15.587H21.8a52.407,52.407,0,0,1,2.273-9.821l2.455-7.73H52.451l2.455,7.73a73.852,73.852,0,0,1,2.183,9.821ZM48-17.243H30.9l8.457-27.282ZM91.919-60.075a84.934,84.934,0,0,1,.728,13.459V2.128a87.157,87.157,0,0,1-.728,13.459h20.007A87.909,87.909,0,0,1,111.2,2.128V-46.616a84.2,84.2,0,0,1,.728-13.459Zm39.1,23.008c3.91-.818,4.365-.818,12.822-1.728,17.006-1.364,20.189-1.637,22.189-1.819l4.274-.455c-4.365,3-6.548,4.82-8.912,7.73a31.132,31.132,0,0,0-7.73,20.552c0,11.549,5.547,19.916,16.278,24.917,5.82,2.637,12.641,4.183,23.008,5.093a23.258,23.258,0,0,1,3.365.455L198.409.4c-1.364.091-2,.091-2.728.091-5.729,0-13.732-1.455-17.369-3.274-5.184-2.455-7.639-6-7.639-11.276,0-7.457,5.365-15.1,14.459-20.643,6.275-3.91,14.459-6.366,20.825-6.366a13.828,13.828,0,0,1,2.546.182l-.818-16.46a7.668,7.668,0,0,1-2.092.364c-.455,0-1,.091-4.092.182l-3.819.182-9.367.364c-17.279.637-26.1,1.091-39.195,1.91-9.912.637-13.186.818-15.551.818-.728,0-1.91,0-3.456-.091Zm54.837,7.912A56.546,56.546,0,0,1,194.681-15.7l8.73-4a58.624,58.624,0,0,0-8.821-13.186Zm12.732-5.365c3.092,3.547,5.365,7,8.639,13.1l8.457-3.91a62.851,62.851,0,0,0-8.912-12.822Z" transform="translate(614.299 713.734)"/>
        <path id="パス_24183" data-name="パス 24183" d="M37.785-25.744v2.819H19.6a78.044,78.044,0,0,1-8.821-.364v9.64a79.079,79.079,0,0,1,8.821-.364H37.785v2.819H15.6a100.739,100.739,0,0,1-11.64-.546V-.281A113.05,113.05,0,0,1,15.687-.826H28.418C21.961,4.084,13.595,7.267,1.5,9.359A45.868,45.868,0,0,1,8.866,21.727a82.163,82.163,0,0,0,16.915-7A52.686,52.686,0,0,0,38.058,5.539c-.091,2.546-.091,2.819-.091,5.093V13.36a52.979,52.979,0,0,1-.637,9H51.79a60.632,60.632,0,0,1-.455-8.912v-2.91c0-2.273-.091-2.728-.273-5.184,7.73,7.548,17.188,12.55,30.828,16.369a52.054,52.054,0,0,1,6.82-12.913c-12.641-1.91-21.462-5-27.646-9.64h14a113.166,113.166,0,0,1,11.549.546V-11.739a90.433,90.433,0,0,1-11.64.546H51.335v-2.819H70.7a81.926,81.926,0,0,1,8.912.364v-9.64a83,83,0,0,1-8.912.364H51.335v-2.819h23.19a83,83,0,0,1,8.912.364V-35.838a79.815,79.815,0,0,1-8.912.364H65.976c.818-1.637,1.091-2,2.183-4.365h7.548c4.365,0,8.275.182,11.367.455V-51.48a72.26,72.26,0,0,1-10.458.546c1.637-2.364,2.728-4.092,4.547-7.275L68.25-62.665a56.156,56.156,0,0,1-5.82,11.731H59.7v-5.911a41.726,41.726,0,0,1,.364-6.548H46.424a35.932,35.932,0,0,1,.364,5.911v6.548H43.059v-6.548a49.408,49.408,0,0,1,.273-5.911H29.691a44.288,44.288,0,0,1,.455,6.548v5.911H27.509a84.416,84.416,0,0,0-6-11.64L8.593-58.209A33,33,0,0,1,13.5-50.934,72.274,72.274,0,0,1,3.319-51.48v12.095c3.092-.273,6.911-.455,11.276-.455h8a39.069,39.069,0,0,1,2.273,4.365H15.777a76.015,76.015,0,0,1-8.821-.364V-25.38a81.193,81.193,0,0,1,8.821-.364Zm1-9.731a41.4,41.4,0,0,0-1.728-4.365H53.245c-.728,1.819-1,2.455-1.91,4.365ZM148.367-2.918a22.654,22.654,0,0,1-8,8.73,46.559,46.559,0,0,1-11.277,5.456A55.185,55.185,0,0,1,137,22.727c8.73-3.91,13.823-7.548,18.461-13.1a42.686,42.686,0,0,1,2.546,11.276c3.729.273,6.911.455,8.912.455,8.73,0,11.731-1.637,13.732-7.275,1.455-4.092,2.364-11.367,2.91-23.371.091-1.728.091-2.364.182-3.456a14.7,14.7,0,0,0,.182-2.728,50.588,50.588,0,0,1-6.82.273h-12a12.458,12.458,0,0,0,.182-1.455,8.445,8.445,0,0,0,.091-1.182c.091-.637.091-1.091.182-1.455.091-1,.091-1,.182-1.728h-9.094a45.336,45.336,0,0,0,6.639-3.365c5.365,3.183,10.458,5.093,19.006,7.184a45.9,45.9,0,0,1,5.729-13.459,64.979,64.979,0,0,1-14.1-2.455,36.6,36.6,0,0,0,7.093-11.822c2.819.091,3.547.091,5.275.273V-57.573a73.739,73.739,0,0,1-10.276.546H160.28c.546-1.364,1.364-3.274,1.546-3.638.364-.909.364-.909.546-1.455L149-64.393a32.6,32.6,0,0,1-3.183,9c-3,6.093-6,10.094-12.277,16.005a42.3,42.3,0,0,1,9.276,8.548A84.475,84.475,0,0,0,149-37.748a36.639,36.639,0,0,0,4.638,5.729,54.733,54.733,0,0,1-11.913,3.365l-4-4.911a61.244,61.244,0,0,1-6.73.273h-1.455c-1.091-1.182-1.091-1.182-2.546-2.637a126.777,126.777,0,0,0,12.641-15.278,29.272,29.272,0,0,1,1.91-2.637l-6.911-7.366a52.1,52.1,0,0,1-8,.364H111.628a70.183,70.183,0,0,1-8.457-.364V-48.3c2.183-.182,4.729-.273,7.366-.273h12.732a24.179,24.179,0,0,1-4.547,5.184c-2.546-2.092-3.547-2.819-6.639-5.093l-7.639,7.548a63.909,63.909,0,0,1,9.185,7.639h-5a63.257,63.257,0,0,1-7.912-.364v13a51.449,51.449,0,0,1,7.093-.364h4.365C108.809-12.921,104.9-7.374,99.351-2.463c2.273,4.092,3.274,7.184,4.638,14.459,1.273-1.364,1.728-1.819,2.546-2.819a34.389,34.389,0,0,1,2.273,12.095c2.819.091,4.092.182,6.093.182,10,0,12.822-2.183,12.822-9.912l-.091-19.916a34.443,34.443,0,0,1,7,6.184,98.911,98.911,0,0,0,4.183-10.731V-2.645a50.472,50.472,0,0,1,5.911-.273Zm21.462,0a38.928,38.928,0,0,1-.909,8.912c-.546,2.455-1.364,3-4.092,3a53.448,53.448,0,0,1-8.275-.818,41.59,41.59,0,0,0,5.911-11.095Zm-24.1-12.277a46.618,46.618,0,0,1-6.093-.182c.364-1.364.637-2.183,1-3.547,1.273-4.274,1.273-4.274,1.455-5a53.045,53.045,0,0,1,3.365,6.457,57.125,57.125,0,0,0,6.457-1.819,2.559,2.559,0,0,1,.091.728,26.025,26.025,0,0,1-.273,3.365Zm21.644-29.737a19.306,19.306,0,0,1-4.365,6.457,22.327,22.327,0,0,1-6-6.457ZM115.629,7.358c0,1.728-.455,2.092-2.183,2.092a24.211,24.211,0,0,1-5.456-.637c-.273-.091-.546-.091-1-.182a70.056,70.056,0,0,0,8.639-14.368Zm12-28.373h3.456a40.868,40.868,0,0,1-3.456,9.185Zm94.759-8.275v3.91a92.614,92.614,0,0,1,10.913-.546h11.458v8.366h-11.64c-3.456,0-5.547-.091-7.73-.273.182,2.183.273,4.911.273,7.639V11.632c0,3.092-.182,6.82-.364,9.912h13.914V17.725h25.736v3.819H279.32c-.273-2.728-.455-6-.455-9.821V-9.738a75.729,75.729,0,0,1,.364-8.094,73.562,73.562,0,0,1-7.457.273H258.859v-8.366h14a82.844,82.844,0,0,1,10.822.546v-14a90.478,90.478,0,0,1-10.913.546H258.859v-9a178.365,178.365,0,0,0,20.916-3.819,15.754,15.754,0,0,0,1.819-.364L272.5-64.575c-3.547,1.637-5.547,2.183-12.822,3.547A224.951,224.951,0,0,1,223.483-57.3a38.326,38.326,0,0,1,4.638,12.186c7.366-.364,11-.546,16.642-1.182v7.457H233.214a90.959,90.959,0,0,1-10.822-.546v8.912A104.1,104.1,0,0,0,205.75-40.84l-7.821,10.458a115.091,115.091,0,0,1,17.279,11.913Zm16.915,24.1h25.736V5.176H239.307ZM200.294-53.935a110.577,110.577,0,0,1,16.733,12.641l8.366-10.913a126.709,126.709,0,0,0-16.551-11.822Zm10.822,37.467c-4.547,13.459-8.821,22.644-13,27.737l12.095,10.094c2.819-5.547,4.274-8.639,4.547-9.185a180.945,180.945,0,0,0,7.639-20.825ZM347.888-5.01H364.8V6.176c0,1.637-.728,2-4,2-2.546,0-6.093-.182-10.094-.546a45.172,45.172,0,0,1,3.638,13.1c3.547.182,6.82.273,9.912.273,11,0,14.459-2.637,14.459-11.095V-49.388a93.4,93.4,0,0,1,.455-11.64c-3,.273-5.729.364-11.367.364H314.787c-5.184,0-7.457-.091-10.822-.364.273,3.456.455,7.093.455,12.459,0,38.831-1.455,49.2-8.366,60.748,5,3,7.275,4.911,12.368,10.367,4.911-8.366,7.275-16.1,8.548-27.555h17.369V7.813a85.041,85.041,0,0,1-.546,11.549h14.55a91.626,91.626,0,0,1-.455-11.64Zm0-34.1V-47.66H364.8v8.548Zm-13.55,0H318.333V-47.66h16.005Zm13.55,12.641H364.8v8.73H347.888Zm-13.55,0v8.73h-16.46c.182-4,.182-5,.273-8.73ZM438.1-34.747a13.856,13.856,0,0,0-13.914,13.914A13.836,13.836,0,0,0,438.1-7.01a13.836,13.836,0,0,0,13.823-13.914A13.817,13.817,0,0,0,438.1-34.747Zm56.564-14.278a90.552,90.552,0,0,1,9.549-.364h29.828a91.353,91.353,0,0,1,9.64.364V-61.938a101.093,101.093,0,0,1-11.186.546H505.85a105.9,105.9,0,0,1-11.186-.546Zm4.274,18.643a45.367,45.367,0,0,1-.364,6.366c2.728-.182,4.911-.273,8.821-.273h25.736c4,0,5.911.091,8.639.273a43.227,43.227,0,0,1-.364-6.548V-40.2a43.776,43.776,0,0,1,.364-6.639c-2.728.182-4.547.273-8.639.273H507.487c-4.365,0-6-.091-8.912-.273a44.551,44.551,0,0,1,.364,6.639Zm13.459-7h15.733v3.91H512.4ZM505.214-21.47c-3.91,0-7-.091-9.64-.273a89.985,89.985,0,0,1,.364,9.731V10.359c0,4.365-.182,8.094-.455,11.276H509.4V18.362h20.916V21.09h13.459c-.273-3.183-.455-6.911-.455-11.367V-10.921c0-4.365.091-7.821.364-10.822-2.546.182-5.638.273-10.094.273Zm3.365,10.549h5.82v4.183h-5.82Zm16.551.091h5.911v4.092H525.13ZM508.669,2.72H514.4V7.176h-5.729Zm16.46,0h5.911V7.176H525.13Zm21.1-59.111a81.815,81.815,0,0,1,.364,9.276V-9.466a79.019,79.019,0,0,1-.364,9.185h13.55a71.546,71.546,0,0,1-.364-9.094V-47.387a76.523,76.523,0,0,1,.364-9Zm16.824-6.184a92.047,92.047,0,0,1,.455,11.367V5.448c0,2.273-.637,2.728-3.729,2.728a94.2,94.2,0,0,1-11.64-.818,45.272,45.272,0,0,1,3.547,13.459c5.093.182,7,.273,9.185.273,12.641,0,16.187-2.819,16.187-13V-51.662c0-6,.091-8.275.546-10.913Zm64.021,36.83v2.819H608.885a78.044,78.044,0,0,1-8.821-.364v9.64a79.079,79.079,0,0,1,8.821-.364h18.188v2.819H604.883a100.739,100.739,0,0,1-11.64-.546V-.281a113.049,113.049,0,0,1,11.731-.546h12.732c-6.457,4.911-14.823,8.094-26.918,10.185a45.87,45.87,0,0,1,7.366,12.368,82.163,82.163,0,0,0,16.915-7,52.686,52.686,0,0,0,12.277-9.185c-.091,2.546-.091,2.819-.091,5.093V13.36a52.976,52.976,0,0,1-.637,9h14.459a60.641,60.641,0,0,1-.455-8.912v-2.91c0-2.273-.091-2.728-.273-5.184,7.73,7.548,17.188,12.55,30.828,16.369A52.056,52.056,0,0,1,678,8.813c-12.641-1.91-21.462-5-27.646-9.64h14a113.167,113.167,0,0,1,11.549.546V-11.739a90.434,90.434,0,0,1-11.64.546H640.623v-2.819h19.37a81.925,81.925,0,0,1,8.912.364v-9.64a83,83,0,0,1-8.912.364h-19.37v-2.819h23.19a83,83,0,0,1,8.912.364V-35.838a79.817,79.817,0,0,1-8.912.364h-8.548c.818-1.637,1.091-2,2.183-4.365h7.548c4.365,0,8.276.182,11.367.455V-51.48a72.261,72.261,0,0,1-10.458.546c1.637-2.364,2.728-4.092,4.547-7.275l-12.913-4.456a56.154,56.154,0,0,1-5.82,11.731h-2.728v-5.911a41.733,41.733,0,0,1,.364-6.548H635.712a35.924,35.924,0,0,1,.364,5.911v6.548h-3.728v-6.548a49.41,49.41,0,0,1,.273-5.911H618.979a44.286,44.286,0,0,1,.455,6.548v5.911H616.8a84.424,84.424,0,0,0-6-11.64l-12.913,4.365a33,33,0,0,1,4.911,7.275,72.275,72.275,0,0,1-10.185-.546v12.095c3.092-.273,6.911-.455,11.276-.455h8a39.068,39.068,0,0,1,2.273,4.365h-9.094a76.016,76.016,0,0,1-8.821-.364V-25.38a81.194,81.194,0,0,1,8.821-.364Zm1-9.731a41.4,41.4,0,0,0-1.728-4.365h16.187c-.727,1.819-1,2.455-1.91,4.365Zm104.671.728a13.856,13.856,0,0,0-13.914,13.914A13.836,13.836,0,0,0,732.744-7.01a13.836,13.836,0,0,0,13.823-13.914A13.817,13.817,0,0,0,732.744-34.747ZM805.769-43.2a94.626,94.626,0,0,1,.455-11.458H791.764A93.121,93.121,0,0,1,792.31-43.2V-6.919c-2.273.455-2.91.546-5,.818l2.364,14.823c2-.728,2.637-.909,4.638-1.637C801.949,4.448,807.133,2.538,811.043.9V10.45a94.16,94.16,0,0,1-.546,11.458h14.823a76.381,76.381,0,0,1-.455-10.367,48.767,48.767,0,0,1,6.275,10.731A77.116,77.116,0,0,0,849.056,5.357a102.394,102.394,0,0,0,19.552,16.824,60.847,60.847,0,0,1,6.639-14.732A69.493,69.493,0,0,1,857.241-7.1a117.342,117.342,0,0,0,6.729-15.187c3.638-10.458,5.547-19.916,6.548-33.557.273-3.092.273-3.092.364-4.456a63.227,63.227,0,0,1-7.639.364H838.416a79.393,79.393,0,0,1-11.095-.637V-46.3a71.552,71.552,0,0,1,9.64-.364h3.365l-12.55,4.547a162.969,162.969,0,0,0,5.638,19.734A81.888,81.888,0,0,0,840.78-6.01,60.127,60.127,0,0,1,824.866,8.9V-51.753a95.388,95.388,0,0,1,.455-11.549H810.5a95.836,95.836,0,0,1,.546,11.549v39.559c-2.637.818-4.365,1.455-5.275,1.728ZM855.24-46.66c-1.364,10.731-3.092,17.915-6.548,26.372-3.456-7.457-5.729-15.46-7.639-26.372Zm65.658-.728a81.469,81.469,0,0,1-3,17.733A64.145,64.145,0,0,1,901.073-2.1c-4.547,4.365-8.367,7.093-15.46,11a43.569,43.569,0,0,1,9.73,13.1c9.64-6.093,15.733-11.367,21.28-18.279,6.184-7.73,9.64-14.368,13.277-25.463,3.274,10.822,7.184,18.006,14.732,27.009a81.515,81.515,0,0,0,18.552,16.642,44.673,44.673,0,0,1,10-14.368A70.138,70.138,0,0,1,948-15.468,73.383,73.383,0,0,1,936.358-55.3c0-1.728.091-3.274.182-5.82a70.406,70.406,0,0,1-8.094.364H911.622a63.8,63.8,0,0,1-10.276-.546v14.459c4-.364,7.275-.546,10.458-.546Zm116.493-11.731a89.61,89.61,0,0,1,.728,13.732V-14.1c0,11.458-5.184,16.915-16.1,16.915-10.64,0-15.823-5.456-15.823-16.915V-45.387a84.457,84.457,0,0,1,.728-13.732H987.284a88.858,88.858,0,0,1,.727,13.732v31.1c0,10.185,2.728,18.1,8,23.735,5.456,5.729,14.641,8.912,25.918,8.912,21.916,0,34.375-11.731,34.375-32.465V-45.387a90.369,90.369,0,0,1,.728-13.732Zm57.565,75.662a118.07,118.07,0,0,1-.728-13.732V-8.829H1108.6c17.642,0,28.009-9.64,28.009-25.827,0-15.823-9.912-24.463-27.918-24.463h-19.916c-5.82,0-9.094-.091-13.368-.273a101.665,101.665,0,0,1,.728,13.277v49.2a97.492,97.492,0,0,1-.728,13.459Zm-.728-40.832v-19.37h13.55c6.548,0,10.094,3.274,10.094,9.549s-3.729,9.821-10.094,9.821Z" transform="translate(836.399 712.778)" fill="#533afc"/>
        <path id="パス_24184" data-name="パス 24184" d="M5.259-36.493c3.91-.818,4.365-.818,12.822-1.728,17.006-1.364,20.189-1.637,22.189-1.819l4.274-.455c-4.365,3-6.548,4.82-8.912,7.73A31.132,31.132,0,0,0,27.9-12.213C27.9-.663,33.451,7.7,44.181,12.7,50,15.342,56.822,16.888,67.189,17.8a23.258,23.258,0,0,1,3.365.455L72.646.974c-1.364.091-2,.091-2.728.091-5.729,0-13.732-1.455-17.369-3.274-5.184-2.455-7.639-6-7.639-11.276,0-7.457,5.365-15.1,14.459-20.643,6.275-3.91,14.459-6.366,20.825-6.366a13.829,13.829,0,0,1,2.546.182l-.818-16.46a7.669,7.669,0,0,1-2.092.364c-.455,0-1,.091-4.092.182l-3.819.182-9.367.364c-17.278.637-26.1,1.091-39.195,1.91-9.912.637-13.186.818-15.551.818-.728,0-1.91,0-3.456-.091ZM60.1-28.582a56.546,56.546,0,0,1,8.821,13.459l8.73-4A58.624,58.624,0,0,0,68.826-32.31Zm12.732-5.365c3.092,3.547,5.365,7,8.639,13.1l8.457-3.91a62.851,62.851,0,0,0-8.912-12.822Zm36.558-4.274c2.092-.091,2.728-.091,6.82-.182a192.324,192.324,0,0,0,23.735-1c1.091,2.455,1.819,4.092,2.092,4.82a231.969,231.969,0,0,1-24.826,1.273,77.612,77.612,0,0,1-9.367-.364l.637,13.459a68.028,68.028,0,0,1,7.912-.455c13.1-.364,23.553-1,31.283-2,1.819,2.91,3.183,5.093,4.183,6.457a60.291,60.291,0,0,0-12.55-1.091c-7.912,0-14.1,1.091-19.461,3.365C113.2-11.121,109.021-5.3,109.021,1.065a16.97,16.97,0,0,0,3.365,10c4.456,5.729,13.732,8.639,27.555,8.639A116.822,116.822,0,0,0,165.4,16.888a59.585,59.585,0,0,1,6.366-1.273L169.678.246C162.4,3.7,151.217,5.884,140.759,5.884c-9.64,0-14.368-1.637-14.368-5,0-3.819,5.547-5.911,15.642-5.911,7.912,0,13.732,1.182,19.1,4L174.5-7.938a103.2,103.2,0,0,1-11.64-16.733c1.182-.273,5.365-1,5.456-1,9.094-1.91,9.094-1.91,11.186-2.183l-1.364-13.368c-4.183,1.546-8.548,2.546-21.189,4.82-.364-.637-1.364-3-2.092-4.729,9.094-1.455,9.185-1.546,14.459-2.637,5-1,5-1,6.73-1.364L174.771-58.41c-5.274,1.728-15.914,3.91-24.645,5.093a41.034,41.034,0,0,1-2.819-9.458l-15.914,1.91c.818,1.637,1.91,4.092,3.819,9.094-4.092.364-11.095.637-16.278.637a87.772,87.772,0,0,1-10.367-.455ZM212.51-43.951c1.819-.182,3.547-.364,6-.455,12.822-.637,16.46-.818,21.28-1.364-11.276,11.186-30.465,26.1-38.831,30.01l8.457,13.823a67.622,67.622,0,0,1,8.73-6.82,52.3,52.3,0,0,1,28.009-8.366c10.094,0,16.278,3.91,16.278,10.276,0,4.638-2.273,7.73-7.184,9.912a21.393,21.393,0,0,0-4.183-7.184,21.33,21.33,0,0,0-16.278-7c-10.549,0-18.1,6.093-18.1,14.55,0,10.094,9.367,16.187,24.736,16.187,9.094,0,17.824-2.092,24.1-5.729C273.8,8.976,278.078,1.7,278.078-7.484c0-6.548-2.273-11.822-6.639-15.733-4.82-4.183-10.913-6.184-19.461-6.184a43.508,43.508,0,0,0-12.459,1.637c6.093-4.456,7.73-5.82,12.55-9.912,12.277-10.549,12.277-10.549,14.641-11.913l-7.457-11c-1.728.728-2.91,1-6.911,1.273-9.185.728-19.279,1.091-27.373,1.091a101.769,101.769,0,0,1-13.1-.637ZM241.7,7.157a13.8,13.8,0,0,1-3,.273c-4.911,0-7.821-1.546-7.821-4,0-1.819,1.455-3,3.547-3C237.974.428,240.52,2.792,241.7,7.157ZM346.646-6.756c-.091-2.273-.091-3.274-.091-4.183,0-1.364.091-3.183.273-7l1.819-28.828c.273-3.819.818-10.185,1.091-12.277H328.549c.455,4.456.909,8.548,1.091,12.277l1.819,28.828c.364,5.365.364,5.365.364,7.093a33.66,33.66,0,0,1-.182,4.092Zm1.637,23.371V-.572H330V16.615Z" transform="translate(1982.842 713.16)"/>
      </g>
      <path id="パス_36621" data-name="パス 36621" d="M69.12-84.16v24H48.8a196.24,196.24,0,0,1-21.44-.8v24c6.88-.64,13.44-.96,21.92-.96H69.12v26.08H34.08c-9.28,0-17.28-.32-25.44-1.12v24.8c9.28-.8,17.28-1.12,26.4-1.12h93.28c8.8,0,15.52.32,24.64,1.12v-24.8a235.917,235.917,0,0,1-25.44,1.12H94.56V-37.92h23.68c8.48,0,15.04.32,22.24.96V-61.12a220.026,220.026,0,0,1-22.4.96H94.56v-24H123.2c8.64,0,16.16.32,24.16.96v-24.16c-7.68.64-15.52.96-24.96.96H94.56v-7.36c0-10.4.16-15.84.96-21.44H68.16a180.426,180.426,0,0,1,.96,21.44v7.36H49.92c1.12-3.52,1.92-5.92,2.72-9.12,1.28-4.32,1.28-4.32,3.2-9.76L30.88-131.2c-1.28,19.68-13.28,44.96-28,59.36,7.52,7.68,9.92,10.56,16,20.8,8.8-9.92,15.36-20,21.92-33.12ZM292-86.4c-1.44,8.96-4.64,18.08-10.72,29.92-2.24-10.24-3.68-23.2-4.48-37.28h23.84a201.02,201.02,0,0,1,20.96.96v-24.16c-4.48.64-7.36.8-15.84.8L315.2-124a116.8,116.8,0,0,0-20.32-14.88l-15.36,14.24a96.549,96.549,0,0,1,12.8,8.48H276.16v-7.52a81.315,81.315,0,0,1,.8-11.52H250.88c.48,3.52.64,5.76.96,19.04H206.56c-8.48,0-15.2-.32-21.76-.8a206.5,206.5,0,0,1,.96,21.12c0,29.28-1.6,50.72-4.64,64.96-2.4,10.88-4.96,17.12-10.56,26.24,7.68,6.24,11.52,10.24,19.2,19.84,7.36-10.72,11.68-21.92,14.88-37.6a103.108,103.108,0,0,1,3.68,17.6c2.56.16,4.16.16,5.76.16A79.2,79.2,0,0,0,230.72-6.4a94.862,94.862,0,0,1,11.84,19.2c13.76-8,22.56-14.56,32-23.84C285.6,4.8,295.52,12.64,304.64,12.64c9.76,0,16-10.4,20.16-34.4a85.754,85.754,0,0,1-18.4-14.4c-1.6,11.52-2.4,15.52-4.48,20.64-4.16-3.52-6.72-7.04-11.04-14.56a198.068,198.068,0,0,0,21.44-40,75,75,0,0,1,3.04-7.68Zm-82.4,9.28c.16-5.28.16-7.84.16-16.64H252.8c1.76,28.16,4.48,43.2,10.88,61.44a117.565,117.565,0,0,1-21.92,17.28c2.72-5.92,4.32-17.12,4.96-33.28.96-24.8.96-24.8,1.28-29.28a88.1,88.1,0,0,1-10.56.48Zm14.08,21.76c-.48,15.84-.96,21.92-2.4,25.12-1.12,2.56-2.4,3.2-6.24,3.2A54.947,54.947,0,0,1,205.6-28c1.28-8.48,2.24-16.48,3.04-27.36ZM474.08,4.96C472,.48,469.44-6.08,466.4-14.56l-34.72-96.32a127.68,127.68,0,0,1-5.44-17.28H384.48c-.8,4.64-2.24,9.44-5.12,17.28L344.8-14.56C340.96-3.68,339.52.16,337.12,4.96h37.44a92.206,92.206,0,0,1,4-17.28l4.32-13.6h45.6l4.32,13.6a129.94,129.94,0,0,1,3.84,17.28ZM420.64-52.8H390.56l14.88-48Zm72.48-75.36c.96,7.04,1.28,11.68,1.28,23.68v85.76c0,10.72-.32,17.44-1.28,23.68h35.2c-.96-6.72-1.28-12.64-1.28-23.68v-85.76c0-11.68.32-17.12,1.28-23.68ZM699.2-13.6c-24.96-23.84-31.52-29.44-50.88-43.36,8.96-12,15.04-23.2,23.52-43.2,2.4-5.44,3.36-7.04,5.76-9.44L663.52-124c-4.32,1.6-5.28,1.6-12.8,1.76l-54.72.8c-4.64.16-7.68.16-8.96.16a118.534,118.534,0,0,1-16.8-1.12l.8,28.48c6.56-.96,11.68-1.28,25.44-1.6l41.6-.64c-7.52,18.56-17.28,32.8-32.16,47.04C591.36-35.2,574.88-24.8,554.08-16.8,563.04-7.52,566.4-2.72,572,8.48c24.8-12,43.84-26.08,58.88-43.84A257.244,257.244,0,0,1,676.8,10.08Zm68.64-121.76c-.8,5.6-2.72,10.88-6.88,19.2-10.4,20.48-23.04,35.04-42.56,48.8,10.56,6.4,14.56,9.92,22.72,19.2,15.2-12,25.92-23.68,36.32-40.16L820-88.8c-5.92,18.4-14.88,33.44-26.72,45.44-14.08,14.08-30.72,24.32-53.44,32.64,8.96,7.84,13.92,14.08,19.2,24.32,26.24-12,44.32-24.64,58.88-41.28,14.08-16,24.96-36.8,33.12-63.36,2.24-7.2,2.72-8.16,4.64-11.36L842.4-115.52c-3.84,1.44-5.6,1.76-11.84,1.76l-40.16.48c1.12-2.24,1.12-2.24,3.2-6.88q.48-.96,1.44-3.36c.48-.96.8-1.92,1.12-2.4a23.522,23.522,0,0,1,1.92-4ZM886.4-45.6c9.76-.8,15.04-.96,32.96-.96h76.16c18.24,0,25.28.16,32.96.96V-76.48c-10.72,1.12-16.8,1.44-32.8,1.44H919.2c-16.64,0-25.28-.32-32.8-1.44ZM1076.96-128a117.269,117.269,0,0,1,.64,14.72c0,41.44-2.56,61.28-10.08,76.96-4.96,10.56-9.92,17.28-19.04,25.44,10.24,7.2,14.72,11.68,22.88,22.4,10.88-11.52,16.96-20.16,22.24-32,7.68-17.44,10.88-35.2,11.84-68.64,1.12-31.68,1.12-31.68,1.76-37.12Zm45.44-.8a95.089,95.089,0,0,1,.64,12.48v5.76l-.8,94.72c0,6.56-.32,9.28-1.76,13.44L1134.24,12c2.08-1.28,3.36-1.76,7.84-3.36,16.16-5.92,24-10.08,33.6-18.24,12.16-10.4,20.48-22.72,27.68-40.64-9.12-7.04-13.28-11.2-21.28-21.12A81.026,81.026,0,0,1,1169.6-44c-5.44,7.52-10.56,12.16-19.2,17.6l.8-83.84c.16-9.44.32-12,1.28-18.56Zm171.2,43.52a24.378,24.378,0,0,0-24.48,24.48,24.344,24.344,0,0,0,24.48,24.32,24.344,24.344,0,0,0,24.32-24.48A24.309,24.309,0,0,0,1293.6-85.28Zm183.36,14.56v4.64h-17.92c-5.92,0-9.12-.16-12.64-.48.32,3.52.48,6.88.48,13.92v22.08a20.724,20.724,0,0,1-4.96-.48v20.96a34.589,34.589,0,0,1,4.96-.48v2.88c0,7.84-.16,12.96-.32,15.52-.32,4-.32,4-.48,6.24h23.36c-.8-4.96-.96-8.8-.96-21.76v-2.88h39.84v3.68c0,2.4-1.28,2.88-6.88,2.88-2.88,0-7.52-.32-12.8-.8a54.057,54.057,0,0,1,3.68,17.76c2.08,0,3.84.16,4.96.16,4.16.16,7.04.32,8,.32,7.36,0,15.84-1.12,18.72-2.56,4.32-2.08,5.92-6.08,5.92-14.08v-7.36c3.68.16,5.28.32,7.84.64V-31.2a36.884,36.884,0,0,1-7.84.64V-51.52a132.96,132.96,0,0,1,.64-15.2,105.771,105.771,0,0,1-14.24.64h-16.64v-4.64h27.04a64.656,64.656,0,0,1,10.88.64V-88.16a78.517,78.517,0,0,1-10.88.48h-10.24v-4.48h6.56a75.729,75.729,0,0,1,9.28.48V-106.4a57.635,57.635,0,0,1-8.96.48h-6.88v-4.48h9.44a92.689,92.689,0,0,1,9.76.48v-17.12a54.78,54.78,0,0,1-9.92.64h-9.28c0-4.8.16-6.24.96-8.96H1493.6c.64,2.88.8,3.84.8,8.96h-14.24c0-4.48.16-6.24.96-8.96h-23.84c.64,2.72.8,4.16.8,8.96h-4.64a71.47,71.47,0,0,1-10.72-.64v17.12a92.689,92.689,0,0,1,9.76-.48h5.6v4.48h-3.52a72.176,72.176,0,0,1-9.28-.48v14.72a75.732,75.732,0,0,1,9.28-.48h3.52v4.48h-5.28a112.325,112.325,0,0,1-11.36-.48v18.08a77.855,77.855,0,0,1,11.36-.64ZM1478.4-28h-9.92v-5.76h9.92Zm20,0v-5.76h9.92V-28Zm-20-17.76h-9.92v-5.92h9.92Zm20,0v-5.92h9.92v5.92Zm-18.24-41.92v-4.48h14.24v4.48Zm0-18.24v-4.48h14.24v4.48Zm-88.8-8.48c4.48-.32,7.84-.48,14.4-.48h18.08c6.72,0,10.4.16,14.4.48v-18.88a111.624,111.624,0,0,1-14.4.64h-18.08a111.623,111.623,0,0,1-14.4-.64Zm-4.8,25.6a97.165,97.165,0,0,1,12.8-.64h28.32c7.68,0,8.96,0,12.48.48v-21.28a124.35,124.35,0,0,1-12.8.48h-28a95.626,95.626,0,0,1-12.8-.64Zm5.12,22.4c2.72-.16,4.8-.32,9.44-.32h27.84a68.608,68.608,0,0,1,8.96.32V-84.48a64.784,64.784,0,0,1-8.96.32h-27.84c-4.64,0-6.72-.16-9.44-.32Zm0,22.72a72.66,72.66,0,0,1,9.12-.32h27.52a61.8,61.8,0,0,1,9.6.48v-18.4a68.718,68.718,0,0,1-9.12.32h-27.68a78.319,78.319,0,0,1-9.44-.32Zm19.04,57.76V7.84h8.64V12h19.68c0-.96-.16-4.16-.32-9.76v-30.4a93.907,93.907,0,0,1,.32-10.88,62.172,62.172,0,0,1-9.44.48h-28.16c-5.12,0-6.4,0-11.52-.32a94.682,94.682,0,0,1,.64,12.16V-1.44c0,5.12-.32,10.72-.8,15.52Zm-.8-35.2h9.6v10.08h-9.6Zm219.52.64v9.28h-30.56c-9.28,0-11.2,0-15.68-.48V11.84a206.662,206.662,0,0,1,20.8-.96h78.72a204.293,204.293,0,0,1,21.12.96V-11.84a141.741,141.741,0,0,1-15.84.64h-34.88v-9.28h28a115.621,115.621,0,0,1,15.52.64V-42.72c-1.76.16-2.24.16-3.68.32a86.523,86.523,0,0,1,11.36-20.8,59.7,59.7,0,0,1-19.84-17.44c1.44-5.12,2.24-7.68,3.84-15.04l-22.24-4.8a72.277,72.277,0,0,1-12.96,36.32V-80.48c0-9.76,0-12.64.64-17.28h-25.12c.64,4.8.8,8.16.8,17.28v12.8a55.336,55.336,0,0,1-11.52-13.6c1.44-4.8,2.08-7.04,3.84-14.56l-21.28-4.64c-1.44,14.24-5.44,26.08-12,35.68.48-11.2.64-18.56.64-36.48h97.28a166.182,166.182,0,0,1,17.12.8v-24.64a202.153,202.153,0,0,1-20.8.96h-36.16v-3.04a39.856,39.856,0,0,1,.64-8.32h-26.4a37.435,37.435,0,0,1,.8,8v3.36h-36.32c-8.48,0-14.4-.16-21.6-.8a127.067,127.067,0,0,1,.96,16.48c0,32.8-.48,47.52-1.92,62.56-1.92,19.04-4.96,30.56-10.72,40.8,8.64,6.88,13.12,11.52,19.36,20.16a87.089,87.089,0,0,0,10.72-27.2c3.04-12.32,4.8-25.28,5.92-41.44,3.68,3.36,5.92,6.08,9.76,11.52-3.52-.16-4.96-.32-7.68-.64V-20c4.48-.48,6.08-.48,15.2-.48Zm0-21.6h-31.2a85.948,85.948,0,0,0,11.36-17.76,135.776,135.776,0,0,0,12.16,15.68,103.03,103.03,0,0,1,7.68-14.72Zm23.68,0V-54.72a54.666,54.666,0,0,1,10.24,12.64Zm11.68,0A85.455,85.455,0,0,0,1676-59.2a78.875,78.875,0,0,0,16.64,16.8c-4,.32-5.92.32-11.52.32Zm130.88-57.76h18.08a206.321,206.321,0,0,1,24.96,1.12v-30.56a211.626,211.626,0,0,1-24.96,1.12h-70.08a219.3,219.3,0,0,1-23.84-1.12v30.56A216.528,216.528,0,0,1,1744-99.84h18.88V-19.2a177.474,177.474,0,0,1-1.28,24.16h35.36a182.06,182.06,0,0,1-1.28-24.16Zm124-31.2c-39.36,0-64.64,27.04-64.64,69.28,0,42.4,25.28,69.76,64.48,69.76,38.88,0,64.64-28,64.64-70.24C1984.16-104.16,1959.04-131.04,1919.68-131.04Zm0,111.36c-19.52,0-31.52-16.16-31.52-42.24,0-25.76,12-41.6,31.52-41.6,19.36,0,31.2,15.68,31.2,41.6C1950.88-35.68,1939.04-19.68,1919.68-19.68ZM2042.56,4.96a207.758,207.758,0,0,1-1.28-24.16V-39.68h25.28c31.04,0,49.28-16.96,49.28-45.44,0-27.84-17.44-43.04-49.12-43.04h-35.04c-10.24,0-16-.16-23.52-.48a178.884,178.884,0,0,1,1.28,23.36v86.56a171.542,171.542,0,0,1-1.28,23.68Zm-1.28-71.84v-34.08h23.84c11.52,0,17.76,5.76,17.76,16.8s-6.56,17.28-17.76,17.28Z" transform="translate(141.443 1496.877)"/>
    </g>
    <path id="パス_33365" data-name="パス 33365" d="M223.591-127.344H115.582L110.2-93q7.449-.828,13.656-1.448t12.829-.621a114.962,114.962,0,0,1,43.866,8.277,104.185,104.185,0,0,1,34.762,22.761,104.185,104.185,0,0,1,22.761,34.762,116.073,116.073,0,0,1,8.277,44.28q0,25.244-9.311,45.521a98.1,98.1,0,0,1-26.278,34.555q-16.967,14.277-41.383,21.933t-54.212,7.656a205.981,205.981,0,0,1-53.591-6.828,173.682,173.682,0,0,1-47.8-20.9l12-76.144Q46.472,38.6,67.992,47.912t40.969,9.311q24.83,0,39.314-13.449A43.631,43.631,0,0,0,162.758,10.46q0-23.174-19.45-37.451t-50.9-14.277a141.884,141.884,0,0,0-28.968,3.1A138.46,138.46,0,0,0,34.058-28.44l26.071-167.6H223.591Z" transform="translate(17502.445 8157.722)" fill="url(#linear-gradient)"/>
  </g>
</svg>
