<svg xmlns="http://www.w3.org/2000/svg" width="2824.832" height="637" viewBox="0 0 2824.832 637">
  <g id="グループ_20956" data-name="グループ 20956" transform="translate(-13426 -9338)">
    <rect id="長方形_5219" data-name="長方形 5219" width="2448" height="69" transform="translate(13426 9906)" fill="#f4d852" opacity="0.936"/>
    <g id="グループ_20955" data-name="グループ 20955" transform="translate(-113.029 -7.265)">
      <g id="グループ_18848" data-name="グループ 18848" transform="translate(13564.772 9775.688)">
        <g id="グループ_12680" data-name="グループ 12680" transform="translate(0 0)">
          <path id="パス_33032" data-name="パス 33032" d="M34.125-80.235H25.7c-9.347,0-12.462-.183-18.143-.916v27.49A121.881,121.881,0,0,1,25.7-54.578h6.414v17.41H28.444c-8.98,0-13.2-.183-18.143-.916v27.123A88.482,88.482,0,0,1,25.7-11.877h1.466C20.93,2.418,15.8,10.115,5.536,20.378L28.078,37.6c11-12.829,15.944-21.442,23.458-39.952l-19.426-9.53H147.383l-16.86,8.064A204.373,204.373,0,0,1,152.331,36.5l24.924-15.394C165.527.768,163.511-2.164,155.447-11.877c8.98,0,12.462.183,17.227.916V-37.9c-4.032.55-8.064.733-17.41.733H153.8v-17.41h4.948c8.98,0,12.645.183,18.143.916v-27.49c-5.681.733-8.8.916-18.143.916H153.8V-97.1A142.877,142.877,0,0,1,170.108-96v-27.49a188.221,188.221,0,0,1-23.458,1.1H61.615c1.649-2.382,3.3-4.765,4.4-6.781a28.327,28.327,0,0,1,3.3-4.948L39.99-138.88a42.567,42.567,0,0,1-4.215,8.064C28.627-120,19.1-111.024,3.52-100.578c7.514,6.048,11.729,11,17.593,19.609A165.245,165.245,0,0,0,34.125-91.414ZM57.033-97.1h8.43v16.86h-8.43Zm31.7,0h8.613v16.86H88.738Zm-31.7,42.518h8.43v17.41h-8.43Zm31.7,0h8.613v17.41H88.738Zm31.7,17.41v-17.41h8.8v17.41Zm0-43.067V-97.1h8.8v16.86ZM129.057,30.64c-2.749-14.661-5.315-24.008-10.629-39.952L92.953-4c3.665,13.012,5.315,22.358,7.88,40.318ZM85.806,34.856c-.367-14.478-1.283-23.641-4.215-42.518L56.117-5.28a301.254,301.254,0,0,1,1.649,32.255c0,3.482,0,4.948-.367,9.9ZM279.518,7.732c3.849-1.283,7.331-2.016,17.777-4.215l32.8-6.781V13.78c0,12.1-.183,16.494-1.1,23.458h30.239c-.916-6.781-1.1-11.362-1.1-23.275V-8.945c7.7-1.649,12.462-2.382,16.677-2.932l-1.833-28.589a125.969,125.969,0,0,1-14.845,4.032v-75.689c0-11.729.183-16.677,1.1-23.091H329c.916,6.414,1.1,11.362,1.1,23.091v9.713c-7.88-7.7-14.111-12.645-28.223-22.358l-17.41,19.243C299.86-94.163,304.075-90.5,315.8-78.4L330.1-96v65.242l-35.37,7.331a140.092,140.092,0,0,1-16.677,2.2c1.283-2.932,1.833-4.215,3.665-8.247-9.347-6.964-15.944-13.378-21.442-21.076h6.048a83.936,83.936,0,0,1,15.028.916v-8.8C291.8-50.729,298.76-44.5,310.306-32.4l16.86-20.709c-9.9-10.08-17.41-16.311-31.155-26.024L281.35-63.008V-76.57c-3.849.733-6.6.916-14.295.916h-8.613V-86.283l14.111,8.43c5.681-11.362,9.53-22.542,14.295-39.769l-19.06-9.163c-2.749,13.745-5.864,25.291-9.347,34.087v-26.573a118.068,118.068,0,0,1,.733-16.127H230.769a126.482,126.482,0,0,1,.733,16.311v43.434H221.239c-8.98,0-12.829-.183-17.044-.916v26.94c4.948-.733,8.613-.916,17.227-.916h6.964A110.61,110.61,0,0,1,201.08-10.411a121.274,121.274,0,0,1,11.912,27.673c7.7-8.43,11.546-14.478,19.06-30.056-.367,4.4-.367,8.43-.367,15.028V18.728a130.267,130.267,0,0,1-1.1,18.51h28.773c-.733-4.948-.916-9.163-.916-17.777V-6.929a143,143,0,0,0-.55-14.295A83.372,83.372,0,0,0,271.82-3.264c2.016-6.781,2.932-9.713,4.948-15.211ZM202.546-117.255c4.765,12.829,7.147,22.358,9.9,39.036l18.876-9.53c-2.566-14.295-4.948-22.908-10.263-39.219ZM549.834,25.876c-2.382-5.131-5.315-12.645-8.8-22.358L501.269-106.809a146.246,146.246,0,0,1-6.231-19.793H447.205c-.916,5.315-2.566,10.813-5.864,19.793L401.756,3.517c-4.4,12.462-6.048,16.86-8.8,22.358h42.884a105.619,105.619,0,0,1,4.582-19.793l4.948-15.578H497.6l4.948,15.578a148.829,148.829,0,0,1,4.4,19.793ZM488.623-40.283H454.169l17.044-54.98ZM575.308-126.6c1.1,8.064,1.466,13.378,1.466,27.123v98.23c0,12.279-.367,19.976-1.466,27.123h40.318c-1.1-7.7-1.466-14.478-1.466-27.123v-98.23c0-13.378.366-19.609,1.466-27.123ZM692.781-66.49v7.88a186.641,186.641,0,0,1,21.992-1.1h23.091v16.86H714.406c-6.964,0-11.179-.183-15.578-.55.367,4.4.55,9.9.55,15.394V15.979c0,6.231-.367,13.745-.733,19.976h28.04v-7.7h51.864v7.7h28.956c-.55-5.5-.916-12.1-.916-19.793V-27.088a152.582,152.582,0,0,1,.733-16.311,148.248,148.248,0,0,1-15.028.55H766.27v-16.86h28.223a166.954,166.954,0,0,1,21.809,1.1V-86.833a182.334,182.334,0,0,1-21.992,1.1H766.27v-18.143c18.326-2.566,31.155-4.765,42.151-7.7a31.746,31.746,0,0,0,3.665-.733L793.76-137.6c-7.147,3.3-11.179,4.4-25.84,7.147-21.625,4.215-46.549,6.781-72.94,7.514,5.131,9.347,7.147,14.478,9.347,24.558,14.844-.733,22.175-1.1,33.538-2.382v15.028H714.589a183.3,183.3,0,0,1-21.809-1.1v17.96a209.78,209.78,0,0,0-33.538-20.892L643.483-68.689A231.933,231.933,0,0,1,678.3-44.682Zm34.087,48.565h51.864V2.967H726.868Zm-78.621-98.23c14.295,9.163,21.442,14.478,33.721,25.474l16.86-21.992c-12.462-10.263-18.143-14.295-33.354-23.824ZM670.056-40.65c-9.163,27.123-17.777,45.633-26.207,55.9l24.374,20.342c5.681-11.179,8.614-17.41,9.163-18.51,6.231-14.295,9.9-24.374,15.394-41.968Zm273.8,23.091h34.087V4.983c0,3.3-1.466,4.032-8.064,4.032-5.131,0-12.279-.367-20.342-1.1,4.4,10.629,6.048,16.677,7.331,26.39,7.147.367,13.745.55,19.976.55,22.175,0,29.139-5.315,29.139-22.358V-106.992c0-11.912.183-17.044.916-23.458-6.048.55-11.546.733-22.908.733H877.146c-10.446,0-15.028-.183-21.809-.733.55,6.964.916,14.295.916,25.107,0,78.254-2.932,99.147-16.86,122.421,10.08,6.048,14.661,9.9,24.924,20.892,9.9-16.86,14.661-32.438,17.227-55.529h35V8.282c0,11.912-.367,17.41-1.1,23.275h29.322c-.733-6.231-.916-11.362-.916-23.458Zm0-68.724V-103.51h34.087v17.227Zm-27.306,0H884.293V-103.51h32.255Zm27.306,25.474h34.087v17.593H943.854Zm-27.306,0v17.593H883.377c.367-8.064.367-10.08.55-17.593Zm162.373-27.856-14.295,1.649c-6.048.55-14.661,1.283-17.227,1.283-.916,0-3.3-.183-6.781-.367l3.115,31.522c7.147-1.833,9.53-2.2,24.191-3.849l11-1.283v39.952c0,17.593.183,20.159,2.016,26.573a26.511,26.511,0,0,0,17.044,17.41c7.147,2.2,19.243,3.3,35.187,3.3,10.629,0,31.338-1.283,48.932-2.932,3.849-.367,4.032-.55,8.614-.733h2.932l-1.1-34.271c-15.944,4.948-36.653,7.7-59.011,7.7-10.813,0-17.41-.916-19.426-2.932-2.566-2.016-2.932-4.948-2.932-18.327V-63.191l50.215-5.864c-4.4,7.514-7.514,11.546-13.378,16.86a96.216,96.216,0,0,1-19.243,14.111c10.263,5.864,16.86,11.179,25.657,20.709,12.829-9.9,19.426-16.127,26.39-25.107,7.331-9.163,14.478-21.259,19.793-32.438,3.115-6.964,3.115-6.964,6.048-10.08l-18.327-16.86c-3.665,1.649-5.681,2.2-13.012,2.932l-63.96,6.964v-14.661c0-10.813.366-15.944,1.466-21.992h-35.187a152.02,152.02,0,0,1,1.283,22.725Zm184.915-11.179c39.585,3.482,66.342,8.613,107.394,20.892l9.713-30.789c-45.083-11.362-65.243-15.211-105.744-19.426Zm-2.382,50.764a477.135,477.135,0,0,1,49.482,7.88c23.091,4.948,37.02,8.98,53.147,15.211l9.347-30.972c-38.3-11.179-71.107-17.96-100.8-21.076ZM1246.242,2.784a571.7,571.7,0,0,1,59.745,9.9c28.406,6.414,46.733,11.912,67.808,20.526L1384.058.951c-43.8-14.295-80.82-22.358-126.087-27.307ZM1536.9-89.032c0-1.833.183-4.032.183-6.414,0-7.331,0-7.331.183-14.295.367-14.111.367-14.661,1.1-19.976H1503.18a148.479,148.479,0,0,1,1.1,19.426v13.928c-.183,4.765-.183,4.765-.183,7.331h-40.318c-15.211,0-18.876-.183-27.123-1.466v32.255c9.163-.733,13.378-.916,26.573-.916h39.219c-.55,6.048-.55,6.048-.916,8.8a57.448,57.448,0,0,1-7.7,23.091c-8.43,14.295-21.809,24.924-43.251,33.9,12.1,10.08,17.41,16.127,24.191,28.04a176.7,176.7,0,0,0,18.693-11.729A101.7,101.7,0,0,0,1522.79-9.128c7.88-13.928,11-26.024,12.829-50.031h32.438a268.425,268.425,0,0,1,26.94.916V-90.5c-8.43,1.283-13.012,1.466-27.49,1.466Zm93.649,57c11.179-.916,17.227-1.1,37.753-1.1h87.234c20.892,0,28.956.183,37.753,1.1v-35.37c-12.279,1.283-19.243,1.649-37.569,1.649h-87.6c-19.06,0-28.956-.367-37.569-1.649ZM1908.2-77.486a27.923,27.923,0,0,0-28.04,28.04A27.884,27.884,0,0,0,1908.2-21.59a27.884,27.884,0,0,0,27.856-28.04A27.844,27.844,0,0,0,1908.2-77.486Zm213.688,16.677v5.315h-20.526c-6.781,0-10.446-.183-14.478-.55.367,4.032.55,7.88.55,15.944v25.291a23.736,23.736,0,0,1-5.681-.55V8.649a39.618,39.618,0,0,1,5.681-.55v3.3c0,8.98-.183,14.844-.366,17.777-.366,4.582-.366,4.582-.55,7.147h26.757c-.917-5.681-1.1-10.08-1.1-24.924V8.1H2157.8v4.215c0,2.749-1.466,3.3-7.88,3.3-3.3,0-8.614-.367-14.661-.916a61.917,61.917,0,0,1,4.215,20.342c2.383,0,4.4.183,5.681.183,4.765.183,8.064.367,9.163.367,8.43,0,18.143-1.283,21.442-2.932,4.948-2.382,6.781-6.964,6.781-16.127V8.1c4.215.183,6.048.367,8.98.733V-15.542a42.25,42.25,0,0,1-8.98.733V-38.817a152.283,152.283,0,0,1,.733-17.41,121.15,121.15,0,0,1-16.311.733h-19.06v-5.315h30.972a74.06,74.06,0,0,1,12.462.733V-80.785a89.936,89.936,0,0,1-12.462.55h-11.729v-5.131h7.514a86.74,86.74,0,0,1,10.629.55v-16.86a66.015,66.015,0,0,1-10.263.55h-7.881v-5.131h10.813a106.168,106.168,0,0,1,11.179.55v-19.609a62.746,62.746,0,0,1-11.362.733h-10.63c0-5.5.183-7.147,1.1-10.263h-27.306c.733,3.3.916,4.4.916,10.263h-16.311c0-5.131.183-7.147,1.1-10.263h-27.307c.733,3.116.916,4.765.916,10.263h-5.315a81.864,81.864,0,0,1-12.279-.733v19.609a106.168,106.168,0,0,1,11.179-.55h6.414v5.131h-4.032a82.67,82.67,0,0,1-10.629-.55v16.86a86.743,86.743,0,0,1,10.629-.55h4.032v5.131h-6.048a128.659,128.659,0,0,1-13.012-.55v20.709a89.177,89.177,0,0,1,13.012-.733Zm1.649,48.932h-11.362v-6.6h11.362Zm22.908,0v-6.6H2157.8v6.6ZM2123.533-32.22h-11.362V-39h11.362Zm22.908,0V-39H2157.8v6.781Zm-20.892-48.016v-5.131h16.311v5.131Zm0-20.892v-5.131h16.311v5.131Zm-101.712-9.713c5.131-.367,8.98-.55,16.494-.55h20.709c7.7,0,11.912.183,16.494.55v-21.625a127.854,127.854,0,0,1-16.494.733h-20.709a127.853,127.853,0,0,1-16.494-.733Zm-5.5,29.322A111.292,111.292,0,0,1,2033-82.251h32.438c8.8,0,10.263,0,14.295.55v-24.374a142.434,142.434,0,0,1-14.661.55H2033a109.531,109.531,0,0,1-14.661-.733Zm5.865,25.657c3.115-.183,5.5-.367,10.813-.367H2066.9a78.589,78.589,0,0,1,10.263.367V-76.57a74.208,74.208,0,0,1-10.263.367h-31.888c-5.315,0-7.7-.183-10.813-.367Zm0,26.024a83.225,83.225,0,0,1,10.446-.367h31.522a70.791,70.791,0,0,1,11,.55V-50.729a78.713,78.713,0,0,1-10.446.367h-31.7a89.707,89.707,0,0,1-10.813-.367Zm21.809,66.159V29.174h9.9v4.765h22.542c0-1.1-.183-4.765-.366-11.179V-12.06a107.565,107.565,0,0,1,.366-12.462,71.211,71.211,0,0,1-10.812.55h-32.255c-5.865,0-7.331,0-13.2-.367a108.443,108.443,0,0,1,.733,13.928V18.545c0,5.864-.366,12.279-.916,17.777ZM2045.1-4h11V7.549h-11Zm255.106.733V7.366h-35c-10.629,0-12.829,0-17.96-.55v26.94a236.71,236.71,0,0,1,23.824-1.1h90.167a234,234,0,0,1,24.191,1.1V6.633a162.355,162.355,0,0,1-18.144.733h-39.952V-3.264H2359.4c10.08,0,12.828.183,17.777.733V-28.738c-2.016.183-2.566.183-4.215.367A99.12,99.12,0,0,1,2385.969-52.2a68.38,68.38,0,0,1-22.725-19.976c1.65-5.864,2.566-8.8,4.4-17.227l-25.474-5.5c-.733,14.111-6.6,30.239-14.844,41.6V-71.988c0-11.179,0-14.478.733-19.793h-28.773c.733,5.5.917,9.347.917,19.793v14.661a63.378,63.378,0,0,1-13.2-15.578c1.649-5.5,2.383-8.064,4.4-16.677L2267.031-94.9c-1.65,16.311-6.231,29.872-13.745,40.868.55-12.829.733-21.259.733-41.784h111.425a190.346,190.346,0,0,1,19.609.916v-28.223a231.541,231.541,0,0,1-23.824,1.1h-41.418V-125.5a45.649,45.649,0,0,1,.733-9.53h-30.239a42.893,42.893,0,0,1,.916,9.163v3.849h-41.6c-9.713,0-16.494-.183-24.741-.916a145.572,145.572,0,0,1,1.1,18.876c0,37.569-.55,54.43-2.2,71.657-2.2,21.809-5.681,35-12.279,46.733,9.9,7.88,15.028,13.2,22.175,23.091,6.048-10.263,9.346-18.51,12.279-31.155,3.482-14.111,5.5-28.956,6.781-47.466,4.215,3.849,6.781,6.964,11.179,13.2-4.032-.183-5.681-.367-8.8-.733V-2.714c5.131-.55,6.964-.55,17.41-.55Zm0-24.741h-35.737a98.452,98.452,0,0,0,13.012-20.342,155.515,155.515,0,0,0,13.928,17.96,118.022,118.022,0,0,1,8.8-16.86Zm27.123,0V-42.482A62.609,62.609,0,0,1,2339.054-28Zm13.378,0a97.876,97.876,0,0,0,12.828-19.609,90.344,90.344,0,0,0,19.06,19.243c-4.582.367-6.781.367-13.2.367Z" transform="translate(-3.52 138.88)" fill="#533afc"/>
        </g>
      </g>
      <path id="パス_36620" data-name="パス 36620" d="M174.948-88.938c-8.235,1.1-17.385,1.464-31.476,1.464H39.711A262.8,262.8,0,0,1,8.052-88.938V-57.1A303.125,303.125,0,0,1,39.711-58.56H143.472A295.059,295.059,0,0,1,174.948-57.1ZM267-101.2h8.052c4.758,0,5.856,0,9.882.183-.366-2.379-.366-3.66-.366-8.6v-5.856a82.4,82.4,0,0,1,8.784,13.176c2.562-2.2,3.294-2.928,5.49-4.941v14.457c3.477-.366,9.333-.549,15.555-.549h30.927a120.038,120.038,0,0,1,15.921.732v-21.96c-4.026.366-8.6.549-16.47.549H305.244c2.928-3.294,4.026-4.575,6.588-7.869H349.9a157.2,157.2,0,0,1,16.653.732V-145.3a150.491,150.491,0,0,1-16.836.915H325.557c2.013-4.392,2.013-4.392,3.66-7.869l-27.084-4.209a58.4,58.4,0,0,1-17.385,27.633,3.114,3.114,0,0,1,.183-1.281c-3.111.183-4.758.183-9.516.183H267.18v-5.124h7.686a115.034,115.034,0,0,1,13.359.549v-18.117c-5.124.732-10.065.915-18.483.915h-45.75c-10.431,0-14.274-.183-19.215-.549.366,4.941.549,8.784.549,20.13v29.646c0,10.98-.183,14.823-.366,19.947,4.758-.366,6.771-.366,12.078-.366h4.392c.183,2.379.183,3.66.183,5.307v43.005a148.1,148.1,0,0,1-.732,18.117c4.941-.183,9.516-.366,18.483-.366h6.954C237.351-9.15,222.711-5.49,200.568-5.49a8.98,8.98,0,0,1-2.013-.183,93.591,93.591,0,0,1,12.261,23.607c15.738-1.281,25.8-3.294,35.5-7.137,14.274-5.856,25.071-15.738,30.2-27.633h10.065V-.366c0,13.725,5.307,15.921,38.247,15.921,23.241,0,31.293-1.1,36.417-4.758,5.673-4.209,8.052-11.346,9.333-29.1-10.98-2.013-15.738-3.477-23.607-7.137V-77.775a51.976,51.976,0,0,1,.366-8.6c-4.941.366-7.686.549-16.836.549H288.225V-96.258c-2.562.366-5.856.549-14.091.549H267Zm-23.424,0v5.49H230.214v-5.49Zm-13.359-11.529V-118.4H259.86v5.673Zm0-17.2v-5.124h13.542v5.124ZM313.845-16.836h15.372c8.418,0,11.712,0,16.287.366-.549,6.222-.732,7.137-2.379,8.235-1.83,1.464-5.673,1.83-15.738,1.83-11.895,0-13.542-.549-13.542-4.758ZM248.331-71.187H319.7v4.758h-71.37Zm0,16.836H319.7v4.392h-71.37Zm0,16.47H319.7v4.575h-71.37Z" transform="translate(15993.286 9930.273)"/>
    </g>
    <rect id="長方形_5215" data-name="長方形 5215" width="329" height="329" transform="translate(14071 9338)"/>
    <rect id="長方形_5216" data-name="長方形 5216" width="329" height="329" transform="translate(14440 9338)"/>
    <rect id="長方形_5217" data-name="長方形 5217" width="329" height="329" transform="translate(14809 9338)"/>
    <rect id="長方形_5218" data-name="長方形 5218" width="329" height="329" transform="translate(15178 9338)"/>
    <path id="パス_36616" data-name="パス 36616" d="M50.88-148.32c-7.92,18.24-29.52,42.96-48.48,55.2C7.92-79.2,10.56-69.6,14.16-53.52a64.479,64.479,0,0,0,10.32-9.6V-6.48A220.661,220.661,0,0,1,23.04,21.6h37.2c-.72-7.2-.96-13.68-.96-26.64v-92.4c6.24-8.64,6.24-8.64,8.16-11.52,6.48-1.2,8.4-1.44,24.72-2.16,9.12-.48,31.68-2.4,39.12-3.12a49.763,49.763,0,0,1,1.44,6.24l14.16-6.72a88.343,88.343,0,0,1-6,9.6H84.48a157.026,157.026,0,0,1-16.08-.48c.72,5.04.96,9.6.96,18.48V-3.6a202.647,202.647,0,0,1-1.2,24.48H102c-.48-5.52-.72-11.76-.72-19.92v-20.4h18v8.16c0,2.88-.96,3.36-6.24,3.36a80.563,80.563,0,0,1-9.6-.48c4.32,7.44,5.52,13.92,6,26.88,3.84.24,6.48.24,8.4.24,20.4,0,27.84-3.12,31.92-13.68a115.647,115.647,0,0,1,8.16,19.44c15.12-13.92,22.32-21.84,31.44-35.28C200.4,3.84,207.6,11.52,220.8,22.56c5.28-17.52,9.12-25.92,17.04-39.36-12.96-8.64-21.36-16.32-30-27.84,11.52-28.08,16.8-54.72,18-91.44,5.04.24,6,.24,8.88.48v-35.04a131.413,131.413,0,0,1-18.72.96H197.76c1.92-7.44,2.4-9.6,3.6-14.64,1.68-7.68,2.64-10.8,3.36-13.68l-34.8-7.92c-.24,6.24-.72,10.8-1.92,20.16-2.64,19.44-6.96,35.52-14.4,55.44a199.358,199.358,0,0,0-12-24.72h4.56c.96,0,2.88,0,5.76.24h7.2v-33.12a147.733,147.733,0,0,1-20.16.96H127.92v-4.56a66.421,66.421,0,0,1,.96-12.96H92.4a52.086,52.086,0,0,1,1.2,12.72v4.8H73.92L48.96-207.12c-6.48,14.16-25.44,32.4-45.36,43.2,6.24,12,8.88,19.2,13.68,35.28,18-11.04,29.76-21.12,45.6-38.64v13.2a146.674,146.674,0,0,1,19.68-.96,145.173,145.173,0,0,1-5.52,16.32c-8.64,0-11.28,0-14.4-.72Zm89.28-6.72-21.12,6.72a47.21,47.21,0,0,1,3.6,8.16c-5.28.48-6.96.48-13.92.96,2.88-6.72,4.08-9.6,6.24-15.84Zm54.24,18.72c-.72,22.8-2.16,36-6.72,54.48a150.969,150.969,0,0,1-7.92-31.44c3.84-9.84,5.52-14.4,8.4-23.04ZM151.68-85.2a51.378,51.378,0,0,1,6.72,8.4c2.4,9.6,6.72,21.6,12.48,34.56a112.8,112.8,0,0,1-19.2,23.28Zm-50.4,43.68v-8.4h18v8.4Zm0-30.48v-8.16h18V-72Z" transform="translate(14115.5 9593.5)" fill="#fff"/>
    <path id="パス_36617" data-name="パス 36617" d="M188.88-8.16c7.92,6.24,15.6,9.36,21.84,9.36,8.64,0,15.84-6.24,19.92-17.52,3.84-10.08,5.28-19.44,6.72-37.92-9.84-6-14.4-9.6-24.96-20.16-1.44,21.84-3.12,32.4-5.28,32.4-1.2,0-5.04-5.28-8.16-11.28-5.76-10.8-9.6-26.64-12-47.28l18.24-.24a61.437,61.437,0,0,1,7.92-.24,164.706,164.706,0,0,1,16.56.48l-.48-35.76c-7.68,1.2-11.52,1.44-23.76,1.68l-20.88.48c-.48-9.6-.48-13.68-.48-20.16v-9.36c15.36-2.88,20.16-3.84,33.6-7.44,4.08-.96,5.28-1.2,8.88-2.16l-26.88-33.36c-9.84,5.04-23.28,8.88-44.88,12.72-26.16,4.8-50.88,7.44-70.8,7.44.72,6.24.72,9.36.72,22.08V-57.6c-11.04,1.68-11.76,1.92-18,2.16l4.32,37.68a80.763,80.763,0,0,1,11.04-2.88c31.44-6.48,50.88-11.52,72.24-18.48l-.72-33.36c-16.08,4.32-21.6,5.52-33.12,7.92V-98.88l31.2-.72c2.64,21.6,4.56,31.92,8.88,44.16,5.28,16.56,10.32,26.64,18,36.48-6.24.48-10.08.48-15.6.48H94.8a147.24,147.24,0,0,1-16.32-.72V15.84a194.111,194.111,0,0,1,25.44-1.2h59.04a206.639,206.639,0,0,1,25.92,1.2Zm-68.4-124.32V-156c14.4-.96,19.68-1.44,27.6-2.4.48,13.2.96,21.6.96,25.2ZM27.36-5.76a199.907,199.907,0,0,1-1.44,27.6H64.08a210.493,210.493,0,0,1-1.44-27.6V-145.2c8.88-17.76,10.56-22.56,19.92-52.8L44.4-206.64a153.527,153.527,0,0,1-9.36,33.6C26.64-150.72,16.56-134.4,2.64-120A250.468,250.468,0,0,1,14.88-75.84,124.093,124.093,0,0,0,27.84-92.16c-.24,6.24-.48,19.2-.48,24.24Z" transform="translate(14484.5 9593.5)" fill="#fff"/>
    <path id="パス_36618" data-name="パス 36618" d="M67.68-100.56H94.56c12.72,0,17.52.24,24.24,1.2V-136.8c-6.72.96-11.52,1.2-24.24,1.2H67.68v-34.8c0-15.6.24-21.12,1.44-30H28.08c1.2,8.64,1.44,14.64,1.44,30V-21.12C19.2-18.96,14.88-18.48,6.96-18.24l5.76,40.08c3.6-.96,11.76-3.36,15.84-4.32,36.48-8.88,60-15.6,90.24-25.68l-.24-35.04c-20.16,6-31.92,9.12-50.88,13.68Zm93.84,11.52c23.28-11.52,53.76-29.52,65.04-38.4,4.08-3.36,5.76-4.32,7.92-6l-24.72-30.72c-8.16,9.84-26.88,23.76-48.24,35.76v-41.52c0-15.36.24-21.84,1.44-30H122.88c1.2,8.16,1.44,14.4,1.44,30V-9.84c0,15.12,3.36,22.08,12,25.68,6.72,2.88,16.08,3.84,36.48,3.84,27.12,0,37.92-1.92,45.6-8.16,10.56-8.88,13.44-21.6,15.36-67.68-15.6-3.6-23.04-6.48-36.24-13.92v9.12c0,23.76-1.2,38.64-3.6,42-1.92,3.12-6.48,4.08-17.52,4.08-12.48,0-14.88-.96-14.88-5.52Z" transform="translate(14853.5 9593.5)" fill="#fff"/>
    <path id="パス_36619" data-name="パス 36619" d="M102-8.4c7.68,8.88,12.24,16.08,19.68,31.92,20.64-10.08,33.6-19.68,48.24-35.04C183.6,2.4,196.08,11.28,218.4,23.04,223.92,6.96,228-.72,237.12-13.2,216-21.36,204.48-28.08,191.28-40.32c8.16-14.4,12.24-24,17.28-41.76,3.36,3.36,4.8,4.8,9.6,9.36,4.56-12.24,9.36-20.16,19.2-32.64-16.56-14.64-26.64-27.12-34.8-43.2h5.28a203.108,203.108,0,0,1,24.72,1.2v-35.76c-7.68.96-12.96,1.2-24.48,1.2H189.36v-6.48a98.818,98.818,0,0,1,.96-16.32H151.44a116.784,116.784,0,0,1,.96,17.04v5.76h-9.84c-11.28,0-17.04-.24-23.76-1.2v35.52a169.417,169.417,0,0,1,17.28-.96,123.462,123.462,0,0,1-22.8,36.24v-9.36c0-15.12,0-18.24.48-24.24-4.56.48-7.2.48-18.96.48H81.6v-8.64h9.6c13.44,0,16.08,0,22.8.72v-32.4c-7.2.96-10.56,1.2-22.8,1.2H81.6v-1.92a94.813,94.813,0,0,1,1.44-17.76H46.8a104.376,104.376,0,0,1,1.44,17.76v1.92H33.36c-12.48,0-16.08-.24-23.28-1.2v32.64a200.612,200.612,0,0,1,23.28-.96H48.24v8.64H40.08c-13.68,0-16.8,0-24.96-.72.72,7.44.96,14.4.96,27.36v41.28c0,12.96-.24,21.12-.96,30C24.48-48,28.56-48,40.32-48h7.92v8.4H31.92c-12.48,0-16.08-.24-23.28-1.2V-7.2C15.6-8.16,20.4-8.4,31.92-8.4H48.24V-.48A156.145,156.145,0,0,1,46.8,21.84h36A180.546,180.546,0,0,1,81.6,1.2V-8.4H102Zm15.84-32.4A115.329,115.329,0,0,1,98.4-39.6H81.6V-48h12c13.2,0,14.16,0,20.16.48-.24-7.92-.48-15.36-.48-27.84v-12a144.183,144.183,0,0,1,9.6,15.84q5.04-5.4,6.48-7.2a183.541,183.541,0,0,0,18.72,39.6c-9.12,9.36-17.52,15.6-30.24,23.04Zm28.32-59.04c7.2-10.32,11.76-18.24,20.64-37.2l-21.36-11.52h47.52L173.04-136.8c8.16,18,12.48,25.44,21.12,37.44l-14.88-4.8c-2.4,13.68-5.04,22.56-10.32,34.32a119.956,119.956,0,0,1-12-33.84ZM77.52-73.68v-12H87.6v12Zm0-34.8v-11.28H87.6v11.28ZM52.08-119.76v11.28H42v-11.28Zm0,34.08v12H42v-12Z" transform="translate(15222.5 9593.5)" fill="#fff"/>
  </g>
</svg>
