<?xml version="1.0" encoding="UTF-8"?>
<svg xmlns="http://www.w3.org/2000/svg" xmlns:xlink="http://www.w3.org/1999/xlink" id="_レイヤー_2" data-name="レイヤー 2" viewBox="0 0 354 354">
  <defs>
    <style>
      .cls-1 {
        clip-path: url(#clippath);
      }

      .cls-2 {
        fill: none;
      }

      .cls-2, .cls-3, .cls-4, .cls-5, .cls-6, .cls-7 {
        stroke-width: 0px;
      }

      .cls-3 {
        fill: #5e514f;
      }

      .cls-4 {
        fill: #a5d081;
      }

      .cls-5 {
        fill: #666;
      }

      .cls-6 {
        fill: #6b6b6b;
      }

      .cls-7 {
        fill: #fff;
      }
    </style>
    <clipPath id="clippath">
      <circle class="cls-2" cx="177" cy="177" r="177"></circle>
    </clipPath>
  </defs>
  <g id="_レイヤー_1-2" data-name="レイヤー 1">
    <g class="cls-1">
      <g>
        <path class="cls-7" d="M237.44,183c-.21,3.23-1.13,6.48-2.5,9.4-.65,1.39-1.4,2.74-2.23,4.04.03-.47.07-.93.1-1.4.44-7.04.6-14.13.56-21.23.41,1.26,1.63,2.2,2.91,2.02.1.18.24.33.33.52.96,2.05.98,4.44.84,6.65Z"></path>
        <path class="cls-5" d="M95.04,165.63c3.24-4.48,5.03-10.46,1.3-15.2-1.1-1.4-2.61-2.39-3.73-3.76-1.41-1.72-2.23-3.81-2.73-5.96-.9-3.84-.72-7.88-.55-11.8.09-2.13-2.37-3.32-4.11-2.36-.39.22-.79.44-1.18.66-.51-6.9,9.48-10.95,14.75-12.82,2.61-.92,2.56-4.32,0-5.27-3.27-1.21-5.9-3.45-7.64-6.33,6.84-1.27,11.38-7.9,15.6-13.46,3.21-4.24,7-7.17,11.39-10.17,5.95-4.05,12.41-7.57,19.69-8.23,3.14-.28,3.63-4.23.73-5.36-2.27-.89-4.46-1.91-6.62-3.01,8.52-3.5,18.69-5.45,25.15,2.58.65.8,1.42.99,2.16.85.72.11,1.5-.05,2.2-.61,20.35-16.39,47.27-8.26,69.41.9-1.32.14-2.65.24-4,.25-2.26.03-3.74,3.03-1.93,4.66,6.43,5.79,11.46,12.67,15.09,20.48-.6.57-.9,1.4-.47,2.46,4,9.92,11.12,17.83,20.38,22.8-3.74,2.45-7.64,4.63-11.71,6.54-1.03.48-1.61,2.02-1.26,3.08,3.38,10.15,3.45,20.77.32,30.87-.6.02-1.2.26-1.71.83-3.09,3.43-6.19,6.87-9.28,10.3-.96-.53-1.96-1-3.02-1.35-.05-1.89-.09-3.78-.16-5.67-.03-.86-.36-1.59-.83-2.16-1.43-8.01-1.6-16.54-6.02-23.58-4.81-7.67-13.38-11.08-21.52-14.06-2.36-.86-4.14,2.07-3.08,4.01.78,1.43,1.53,2.88,2.21,4.37,1.11,2.45,1.21,1.31.09,1.66-1.91.59-5.89-.69-7.82-1.09-4.87-1.01-9.65-2.55-14.15-4.65-9.15-4.27-17.09-10.52-23.45-18.35-1.7-2.1-4.34-.29-4.49,1.89-2.6,4.68-5.35,9.54-9.11,13.37-1.55,1.58-3.62,3.28-5.96,3.35-1.41.04-3.82-.98-4.13-2.6.02-.44.05-.88.07-1.32.12-3.01-4.94-3.81-5.36-.73-.03.25-.03.49-.05.73-.02,0-.03,0-.05,0-.5,12.58-2.45,27.26-13.7,35-1.1.76-1.38,1.92-1.14,2.96-.15.37-.25.78-.27,1.22-.07,1.86-.12,3.72-.17,5.58-.19.02-.36,0-.57.06-3.35,1.07-6.4,3.05-8.05,6.25-.1.2-.16.42-.25.63-3.59-2.61-7.01-5.43-10.28-8.42Z"></path>
        <path class="cls-7" d="M114.52,197.11c-.96-1.41-1.8-2.92-2.53-4.46-1.43-3-2.4-6.33-2.62-9.65-.14-2.15-.12-4.47.75-6.49.78-1.8,2.24-2.94,3.97-3.68-.07,8.29.15,16.54.73,24.74-.11-.16-.23-.33-.31-.46Z"></path>
        <path class="cls-7" d="M127.17,231.51c-2.81-3.54-3.4-8.15-4.15-12.53-3.21-18.84-4.28-38.02-3.83-57.41,10.14-7.36,13.83-19.12,15.15-31.07,2.63,1.31,5.93,1.52,8.9.26,6.45-2.74,10.75-9.8,14.22-16.04,8.01,8.72,18.18,15.31,29.43,19.11,5.53,1.87,12.89,4.14,18.79,3.33,4.89-.67,4.95-4.17,3.74-7.75,5.42,2.36,10.46,5.5,13.17,11.01,3.52,7.15,3.23,15.68,5,23.32.13.57.42.96.75,1.28.23,16.05-.62,31.97-2.9,47.65-.59,4.05-1.13,8.17-2.1,12.13-1.08,4.41-3.44,7.64-6.95,10.59-5.26,4.43-11.07,8.66-17.13,12.57-4.17,2.69-8.71,5.26-13.63,7.1,0-.02,0-.04,0-.06-.46-2.54-.92-5.08-1.37-7.62-.11-.64-.71-1.32-1.25-1.63-.59-.34-1.45-.49-2.1-.28-.66.21-1.3.62-1.63,1.26-.36.68-.41,1.35-.28,2.1.46,2.54.92,5.08,1.37,7.62.01.07.05.14.07.21-.7.17-1.42.31-2.13.44-.05-.29-.12-.58-.27-.87-.07-.13-.13-.27-.2-.4-.09-.26-.19-.52-.27-.79-.14-.47-.23-.96-.31-1.44-.07-.76-.07-1.53,0-2.29.06-.35.11-.69.21-1.03.06-.21.12-.41.18-.61.07-.2.41-1.04.07-.24.3-.7.49-1.33.28-2.1-.17-.63-.66-1.32-1.26-1.63-.63-.33-1.4-.5-2.1-.28-.63.2-1.36.62-1.63,1.26-.84,1.98-1.35,4.03-1.27,6.2.05,1.61.38,3.17.94,4.66-.79-.02-1.58-.07-2.37-.15-.11-.38-.21-.77-.29-1.16-.04-.21-.14-.49-.12-.7.05.39.06.43.02.12-.02-.13-.03-.27-.04-.4-.08-.94-.08-1.9,0-2.84,0-.09.02-.18.03-.27.03-.2.07-.41.11-.61.09-.46.2-.93.34-1.38.13-.45.3-.9.46-1.34.04-.09.08-.19.13-.28.12-.24.24-.49.37-.72.67-1.26.36-3.03-.98-3.74-1.27-.67-3.02-.37-3.74.98-1.83,3.44-2.55,7.39-2.06,11.24-3.62-1.02-7.07-2.53-10.26-4.28-6.83-3.75-12.68-8.49-18.53-12.97-3.06-2.34-6.26-4.56-8.58-7.5Z"></path>
        <path class="cls-7" d="M147.95,254.93c6.8,4.13,14.9,7.68,23.57,8.1,8.64.42,17.11-2.65,24.2-6.35,6.43-3.35,12.09-7.48,17.57-11.59-.45,11.38-1.4,22.76-1.18,34.14.06,2.91,3.78,3.38,5.03,1.46.54.27,1.08.54,1.62.8,1.5.74,3.13,1.25,4.71,1.79.45.16.93.1,1.39-.03.41,1.56.77,3.13,1.05,4.71-7.2,3.98-14.17,8.36-21.23,12.57-7.38,4.39-15.07,9.35-23.23,12.15-4.8,1.65-9.01-.27-13.47-2.1-4.6-1.89-9.05-4.13-13.46-6.41-8.93-4.63-17.83-9.35-26.74-14.03.4-2.83.98-5.64,1.81-8.42.14-.02.28-.04.42-.09,1.08-.42,2.2-.81,3.34-1,.63-.06,1.26-.1,1.87-.26,1-.25,1.95-.7,2.88-1.17,1.53.24,3.16-.57,2.99-2.54-.79-8.83.16-17.8-.47-26.65,2.38,1.69,4.79,3.35,7.33,4.89Z"></path>
        <path class="cls-4" d="M76.13,421.47c.96-13.32,1.92-26.64,2.87-39.97.25-3.49,5.71-3.51,5.46,0-.96,13.32-1.92,26.64-2.87,39.97h190.81c-.96-13.32-1.92-26.64-2.87-39.97-.25-3.51,5.21-3.49,5.46,0,.96,13.32,1.92,26.64,2.87,39.97h54.56c-1.31-14.89-1.3-29.86-2.32-44.78-1.02-14.9-3.16-29.87-8.68-43.84-2.49-6.32-5.56-13.2-10.58-17.94-5.86-5.53-14.28-7.99-21.62-10.87-8.1-3.19-16.2-6.38-24.3-9.56-7.02-2.76-14.74-4.98-21.35-8.65-9.51-5.28-14.5-16.09-25.83-18.23-.01,0-.02-.01-.03-.01-.08,2.42-.1,4.84-.11,7.26.01,0,.03,0,.04.01,1.02.48,2.04.96,3.03,1.49.35.19.71.36,1.07.53.38.15.76.28,1.14.41-.1-.24-.17-.48-.27-.73-1.36-3.24,3.93-4.65,5.27-1.45,4.34,10.35,4.75,21.13,4.74,32.2,0,12.12-.42,24.23-1.33,36.32-1.83,24.24-5.55,48.32-11.06,71.99-.8,3.43-6.06,1.97-5.27-1.45,5.4-23.2,9.07-46.78,10.86-70.54.88-11.67,1.31-23.36,1.33-35.06,0-5-.06-9.9-.51-14.75-7.33,4.14-14.46,8.64-21.72,12.9-4.04,2.38-8.12,4.69-12.29,6.83-3.76,1.92-7.79,4.14-11.95,5.02-4.62.98-8.75-.56-12.99-2.23-4.89-1.93-9.64-4.2-14.32-6.6-8.79-4.5-17.51-9.15-26.25-13.75-.29,4.14-.32,8.33-.31,12.58.02,11.7.45,23.39,1.33,35.06,1.79,23.76,5.46,47.33,10.86,70.54.8,3.43-4.47,4.87-5.27,1.45-5.51-23.67-9.23-47.75-11.06-71.99-.91-12.09-1.32-24.2-1.33-36.32,0-11.06.4-21.86,4.74-32.2,1.17-2.79,5.34-2.07,5.48.31.06-.01.13-.04.19-.05.53-.09,1.06-.13,1.59-.19.42-.07.82-.2,1.21-.35.31-.14.61-.29.91-.44-.12-2.19-.18-4.38-.18-6.58-11.73,2.8-17.32,15.1-28.33,19.6-16.07,6.56-32.34,12.67-48.48,19.08-6.92,2.75-13.92,5.74-18.47,11.93-4.32,5.88-7.19,13.06-9.46,19.94-8.82,26.79-6.58,55.34-9,83.08h54.56Z"></path>
        <path class="cls-7" d="M191.18,157.15c1.32-.94,2.63-1.62,3.88-2.04.79-.26,1.59-.46,2.4-.61.61-.11,1.11-.16,2.03-.18,3.08-.07,5.82.66,8.45,2.37,1.24.8,3.02.25,3.74-.98.78-1.33.26-2.93-.98-3.74-6.61-4.29-15.86-4.15-22.28.45-1.2.86-1.77,2.38-.98,3.74.69,1.18,2.53,1.84,3.74.98Z"></path>
        <path class="cls-7" d="M138.49,156.7c2.63-1.71,5.37-2.44,8.45-2.37.39,0,.78.03,1.17.06.03,0,.27.03.36.03.09.01.33.05.36.05.81.14,1.62.33,2.41.59.87.28,1.04.34,1.77.71.78.39,1.53.86,2.24,1.37,1.2.86,3.04.21,3.74-.98.8-1.37.22-2.87-.98-3.74-6.42-4.6-15.67-4.74-22.28-.45-1.24.8-1.75,2.42-.98,3.74.72,1.23,2.49,1.79,3.74.98Z"></path>
        <path class="cls-7" d="M175.54,197.27c.13,1.55-.49,3.1-.97,4.53-1.11,3.34,4.16,4.78,5.27,1.45,1.03-3.1,1.57-6.04.51-9.22-.41-1.23-.91-2.4-1.07-3.69-.2-1.61-.1-3.31-.06-4.93.14-6.65.81-13.26,2.01-19.8.63-3.44-4.63-4.91-5.27-1.45-1.19,6.53-1.95,13.14-2.16,19.78-.1,3.01-.3,6.19.47,9.13.36,1.39,1.16,2.74,1.28,4.2Z"></path>
        <path class="cls-7" d="M150.51,164.74c-.29-.31-.64-.58-1.02-.76-.76-.35-1.6-.58-2.44-.31-.87.28-1.61.93-1.95,1.79-.36.33-.68.73-.85,1.24-.5,1.53-.52,3.21-.17,4.78.45,2.04,1.75,4.18,4.07,4.27.86.03,1.72-.37,2.33-.95.52-.48.76-1.09,1.02-1.74.3-.76.43-1.57.52-2.38.07-.59.07-1.18,0-1.77-.1-.84-.22-1.65-.53-2.44-.26-.67-.49-1.21-.99-1.74Z"></path>
        <path class="cls-7" d="M149.92,167.9c.09-.15.18-.3.23-.46-.05.12-.1.24-.15.36-.03.03-.05.07-.08.1Z"></path>
        <path class="cls-7" d="M201.42,164.74c-.29-.31-.64-.58-1.02-.76-.76-.35-1.6-.58-2.44-.31-.87.28-1.61.93-1.95,1.79-.36.33-.68.73-.85,1.24-.5,1.53-.52,3.21-.17,4.78.45,2.04,1.75,4.18,4.07,4.27.86.03,1.72-.37,2.33-.95.52-.48.76-1.09,1.02-1.74.3-.76.42-1.57.52-2.38.07-.59.07-1.18,0-1.77-.1-.84-.22-1.65-.53-2.44-.26-.67-.49-1.21-.99-1.74Z"></path>
        <path class="cls-7" d="M200.82,167.9c.09-.15.18-.3.23-.46-.05.12-.1.24-.15.36-.03.03-.05.07-.08.1Z"></path>
        <path class="cls-7" d="M158.79,215.25c-1.2-.85-3.04-.21-3.74.98-.8,1.37-.23,2.88.98,3.74,5.42,3.84,11.8,6.45,18.52,6.37,6.76-.07,13.11-2.79,18.51-6.74,1.19-.87,1.78-2.37.98-3.74-.69-1.17-2.54-1.86-3.74-.98-4.63,3.39-9.91,5.93-15.75,6-5.81.06-11.1-2.32-15.76-5.63Z"></path>
        <path class="cls-7" d="M181.58,231.65c-1.13.34-2.27.62-3.44.81-.15.02-.29.05-.44.07-.04,0-.07,0-.18.02-.27.03-.54.06-.81.08-.59.05-1.18.08-1.76.09-1.18.02-2.35-.07-3.53-.18-.03,0-.02,0-.04,0-.15-.02-.3-.04-.45-.07-.27-.04-.54-.09-.8-.15-.62-.12-1.24-.27-1.85-.44-1.38-.37-3.03.46-3.36,1.91-.33,1.44.43,2.96,1.91,3.36,5.29,1.43,10.95,1.36,16.2-.23,1.37-.41,2.37-1.93,1.91-3.36-.45-1.38-1.9-2.35-3.36-1.91Z"></path>
        <path class="cls-6" d="M126.5,348.37c1.97,21.92,4.76,50.63,9.6,73.1h79.8c.2-1.19.4-2.09.61-2.09,0-.23-.04-.44.02-.69,5.55-23.08,8.61-46.74,10.73-70.32,1.15-12.82,1.86-25.68,1.98-38.55.06-6.36.13-12.66-.48-18.87-7.66,4.18-15.12,8.71-22.7,13.01-4.22,2.39-8.47,4.73-12.83,6.88-3.93,1.94-8.13,4.16-12.48,5.06-4.82.99-9.13-.56-13.57-2.25-5.11-1.95-10.06-4.23-14.95-6.64-9.18-4.53-18.28-9.22-27.4-13.85-.4,5.49-.36,11.06-.31,16.67.12,12.87.83,25.73,1.98,38.55Z"></path>
        <path class="cls-3" d="M191.18,157.15c1.32-.94,2.63-1.62,3.88-2.04.79-.26,1.59-.46,2.4-.61.61-.11,1.11-.16,2.03-.18,3.08-.07,5.82.66,8.45,2.37,1.24.8,3.02.25,3.74-.98.78-1.33.26-2.93-.98-3.74-6.61-4.29-15.86-4.15-22.28.45-1.2.86-1.77,2.38-.98,3.74.69,1.18,2.53,1.84,3.74.98Z"></path>
        <path class="cls-3" d="M138.49,156.7c2.63-1.71,5.37-2.44,8.45-2.37.39,0,.78.03,1.17.06.03,0,.27.03.36.03.1.02.33.05.36.05.82.14,1.62.33,2.41.59.87.28,1.04.34,1.77.71.78.39,1.53.86,2.24,1.37,1.2.86,3.04.21,3.74-.98.8-1.37.22-2.87-.98-3.74-6.42-4.6-15.67-4.74-22.28-.45-1.24.8-1.75,2.42-.98,3.74.72,1.23,2.49,1.79,3.74.98Z"></path>
        <path class="cls-3" d="M175.54,197.27c.13,1.55-.49,3.1-.97,4.53-1.11,3.34,4.16,4.78,5.27,1.45,1.03-3.1,1.57-6.04.51-9.22-.41-1.23-.91-2.4-1.07-3.69-.2-1.61-.1-3.31-.06-4.93.14-6.65.81-13.26,2.01-19.8.63-3.44-4.63-4.91-5.27-1.45-1.19,6.53-1.95,13.14-2.16,19.78-.1,3.01-.3,6.19.47,9.13.36,1.39,1.16,2.74,1.28,4.2Z"></path>
        <path class="cls-3" d="M318.36,315.26c-4.45-6-10.54-9.49-17.32-12.35-16.29-6.87-32.92-13.01-49.37-19.49-3.54-1.39-6.67-2.82-9.59-5.29-2.33-1.96-4.39-4.22-6.56-6.35-4.66-4.58-9.78-8.22-16.32-9.46-.47-.09-.9-.06-1.29.04.34-7.21.83-14.41,1.01-21.61,4.84-3.95,8.61-8.12,10.07-14.52,1.63-7.12,2.53-14.51,3.15-21.9,3.17-1.36,5.19-4.67,6.79-7.72,2.14-4.07,3.53-8.47,3.93-13.06.3-3.44-.02-7.04-1.62-10.15-.24-.47-.52-.91-.81-1.32,2.32-2.57,4.64-5.15,6.95-7.72.16.05.34.09.51.12,1.58.26,2.77-.41,3.36-1.91,4.44-11.28,4.98-23.73,1.63-35.34,4.84-2.4,9.44-5.19,13.81-8.39,1.99-1.46,1.6-4.09-.65-4.99-9.17-3.68-16.69-10.95-20.71-19.96.57-.77.81-1.81.35-2.9-3.06-7.22-7.34-13.79-12.65-19.49,2.58-.35,5.14-.91,7.66-1.68,2.02-.62,2.94-4,.65-4.99-25.29-11-56.82-22.88-81.63-4.97-9.48-9.83-24.5-5.23-35.28.1-1.88.93-1.67,3.73,0,4.72,1.55.92,3.13,1.78,4.73,2.59-3.06,1.01-6,2.38-8.86,4.03-4.84,2.79-10.12,6.08-14.05,10.09-4.81,4.91-10.15,17.61-18.56,16.1-1.92-.34-4.04,1.22-3.36,3.36,1.37,4.3,3.9,7.84,7.31,10.42-3.59,1.55-6.97,3.53-9.46,6.62-3.44,4.28-4.41,9.69-2.2,14.73.6,1.37,2.57,1.63,3.74.98,0,0,.02,0,.02-.01,0,4.8.55,9.67,2.87,13.9,1.49,2.71,4.64,4.36,5.93,7.02,1.59,3.27-1.06,7.19-3.21,9.48-.99,1.05-1.1,2.82,0,3.86,4.56,4.34,9.43,8.3,14.57,11.93-.08,1.26-.06,2.52.05,3.77.4,4.59,1.79,8.99,3.93,13.06,1.73,3.29,3.93,6.87,7.54,8,.47,4.87,1.07,9.72,1.81,14.55.62,4.03,1.12,8.25,2.76,11.95,1.64,3.72,4.61,6.6,7.86,9.18,2.24,1.77,4.51,3.57,6.83,5.36.81,4.91.67,10.03.66,14.98,0,.55,0,1.09,0,1.64-.18,0-.36.02-.55.05-5.77,1.09-10.57,4.06-14.82,8.02-3.99,3.71-7.48,8.09-12.32,10.76-3.47,1.92-7.41,3.12-11.09,4.57-4.26,1.68-8.53,3.36-12.79,5.03-8.53,3.36-17.06,6.7-25.58,10.07-6.83,2.69-13.98,5.4-19.3,10.65-4.94,4.88-8.05,11.44-10.7,17.77-5.91,14.14-8.37,29.36-9.55,44.56-1.24,15.88-1.13,31.83-2.52,47.7h5.46c2.42-27.74.17-56.29,8.99-83.08,2.27-6.88,5.14-14.06,9.46-19.94,4.54-6.19,11.54-9.18,18.47-11.93,16.14-6.41,32.4-12.51,48.48-19.08,11.01-4.5,16.59-16.83,28.33-19.63,0,2.21.03,4.43.16,6.64-.31.15-.61.29-.93.43-.35.13-.71.24-1.08.31-.56.06-1.12.1-1.68.2-.06.01-.12.03-.19.04-.15-2.38-4.31-3.1-5.48-.31-4.34,10.35-4.75,21.14-4.74,32.2,0,12.12.42,24.23,1.33,36.32,1.83,24.24,5.55,48.32,11.06,71.99.8,3.42,6.06,1.97,5.27-1.45-5.4-23.2-9.07-46.78-10.86-70.54-.88-11.67-1.31-23.36-1.33-35.06,0-4.25.02-8.44.31-12.58,8.74,4.61,17.46,9.26,26.25,13.76,4.68,2.4,9.43,4.66,14.32,6.6,4.25,1.68,8.38,3.22,12.99,2.23,4.16-.89,8.19-3.1,11.95-5.02,4.17-2.13,8.25-4.45,12.29-6.83,7.27-4.27,14.4-8.79,21.74-12.93.45,4.85.5,9.77.49,14.77-.02,11.7-.45,23.39-1.33,35.06-1.8,23.76-5.46,47.33-10.86,70.54-.8,3.42,4.47,4.88,5.27,1.45,5.51-23.67,9.23-47.75,11.06-71.99.91-12.09,1.32-24.2,1.33-36.32,0-11.07-.4-21.85-4.74-32.2-1.34-3.19-6.63-1.79-5.27,1.45.11.26.21.52.31.77-.37-.13-.75-.27-1.11-.42-.39-.18-.77-.38-1.15-.57-1-.52-2.01-1.01-3.03-1.49-.03-.02-.07-.03-.1-.04.01-2.41.07-4.82.15-7.23.02,0,.03,0,.05.01,11.34,2.14,16.33,12.95,25.83,18.23,6.61,3.67,14.32,5.88,21.35,8.65,8.1,3.19,16.2,6.38,24.3,9.56,7.33,2.89,15.76,5.34,21.62,10.87,5.02,4.74,8.08,11.62,10.58,17.94,5.52,13.97,7.66,28.94,8.68,43.84,1.02,14.91,1,29.88,2.3,44.78h5.46c-2.54-28.98-.07-58.93-9.94-86.76-2.39-6.73-5.29-13.68-9.57-19.45ZM237.44,183c-.21,3.23-1.13,6.48-2.5,9.4-.65,1.39-1.4,2.75-2.22,4.05.03-.47.06-.94.09-1.41.44-6.98.62-13.99.58-21.03.48,1.19,1.73,2.08,2.96,1.86.09.15.17.31.25.48.96,2.05.98,4.44.84,6.65ZM95.01,165.69c3.27-4.49,5.07-10.5,1.34-15.26-1.1-1.4-2.61-2.39-3.73-3.76-1.41-1.72-2.23-3.81-2.73-5.96-.9-3.84-.72-7.88-.55-11.8.09-2.13-2.37-3.32-4.11-2.36-.4.22-.81.45-1.21.67-.54-6.91,9.5-10.97,14.78-12.83,2.61-.92,2.56-4.32,0-5.27-3.27-1.21-5.9-3.45-7.65-6.33,6.84-1.27,11.38-7.9,15.6-13.47,3.21-4.23,7-7.17,11.39-10.17,5.95-4.05,12.41-7.57,19.69-8.23,3.13-.28,3.63-4.23.73-5.36-2.28-.89-4.49-1.9-6.66-3,8.53-3.51,18.72-5.47,25.19,2.57.67.84,1.5,1.05,2.26.88.69.08,1.43-.1,2.09-.63,20.36-16.4,47.3-8.25,69.45.91-1.33.14-2.67.22-4.03.24-2.26.03-3.74,3.03-1.93,4.66,6.42,5.78,11.46,12.64,15.09,20.42-.62.57-.9,1.44-.46,2.51,4,9.92,11.11,17.84,20.36,22.82-3.74,2.45-7.63,4.62-11.69,6.52-1.03.48-1.61,2.02-1.26,3.08,3.38,10.14,3.46,20.76.35,30.85-.61.02-1.22.27-1.73.84-3.08,3.42-6.17,6.84-9.25,10.27-.96-.53-1.98-.97-3.03-1.31-.05-1.89-.1-3.78-.18-5.67-.03-.86-.36-1.6-.84-2.17-1.42-8-1.6-16.53-6-23.56-4.81-7.67-13.38-11.08-21.52-14.06-2.36-.86-4.14,2.07-3.08,4.01.78,1.43,1.53,2.88,2.21,4.37,1.11,2.45,1.21,1.31.09,1.66-1.91.59-5.89-.69-7.81-1.09-4.87-1.01-9.65-2.55-14.15-4.65-9.15-4.27-17.09-10.52-23.45-18.35-1.72-2.12-4.41-.26-4.51,1.95-2.59,4.66-5.33,9.5-9.08,13.31-1.55,1.58-3.62,3.28-5.96,3.35-1.38.04-3.75-.94-4.13-2.52.02-.47.04-.94.06-1.41.12-3.01-4.94-3.81-5.36-.73-.03.25-.06.49-.07.73,0,0-.02,0-.03,0-.5,12.58-2.45,27.26-13.7,35-1.1.76-1.38,1.92-1.14,2.96-.15.37-.25.78-.26,1.22-.07,1.84-.13,3.68-.18,5.52-.18.02-.37.06-.56.12-3.35,1.07-6.4,3.05-8.05,6.25-.11.22-.22.43-.31.66-3.58-2.61-6.99-5.41-10.25-8.39ZM114.52,197.11c-.96-1.41-1.8-2.92-2.53-4.46-1.43-3-2.4-6.33-2.62-9.65-.14-2.15-.12-4.47.75-6.49.78-1.8,2.23-2.96,3.95-3.7-.07,8.3.16,16.56.75,24.76-.12-.17-.22-.33-.31-.46ZM127.16,231.51c-2.81-3.54-3.4-8.15-4.15-12.53-3.21-18.83-4.29-38-3.83-57.38,10.16-7.36,13.84-19.13,15.16-31.08,2.63,1.31,5.94,1.51,8.9.25,6.44-2.74,10.75-9.78,14.22-16.02,8.01,8.72,18.19,15.29,29.44,19.09,5.53,1.87,12.89,4.14,18.79,3.33,4.89-.67,4.96-4.18,3.74-7.76,5.42,2.36,10.45,5.51,13.16,11.02,3.52,7.15,3.23,15.68,5,23.32.14.59.41,1.04.76,1.35.22,16.03-.63,31.92-2.9,47.58-.59,4.05-1.13,8.17-2.1,12.13-1.08,4.41-3.44,7.64-6.95,10.59-5.26,4.43-11.07,8.66-17.13,12.57-4.17,2.69-8.71,5.28-13.62,7.11,0-.03,0-.05-.01-.08-.46-2.54-.92-5.08-1.37-7.62-.12-.64-.71-1.32-1.26-1.63-.59-.34-1.45-.49-2.1-.28-.66.21-1.3.62-1.63,1.26-.36.68-.41,1.35-.28,2.1.46,2.54.92,5.08,1.37,7.62.01.07.03.15.06.22-.69.16-1.39.31-2.09.44-.05-.29-.15-.59-.29-.87-.07-.13-.13-.27-.2-.41-.09-.26-.19-.52-.27-.79-.14-.46-.24-.94-.32-1.42-.07-.78-.07-1.55,0-2.33.06-.34.13-.69.22-1.02.06-.21.12-.41.18-.61.07-.2.41-1.04.07-.24.3-.7.49-1.33.28-2.1-.17-.63-.66-1.32-1.26-1.63-.63-.33-1.4-.5-2.1-.28-.63.2-1.36.62-1.63,1.26-.84,1.98-1.35,4.03-1.27,6.2.05,1.63.38,3.2.96,4.7-.8-.02-1.59-.07-2.38-.15-.11-.39-.21-.79-.29-1.19-.04-.21-.14-.49-.12-.7.05.39.05.43.02.12-.02-.13-.03-.27-.04-.4-.08-.94-.08-1.9,0-2.84,0-.09.02-.18.03-.27.03-.2.07-.41.11-.61.09-.47.2-.93.34-1.38.13-.45.3-.9.46-1.34.04-.09.08-.19.13-.28.12-.25.24-.49.37-.72.67-1.26.36-3.03-.98-3.74-1.27-.67-3.02-.37-3.74.98-1.83,3.45-2.57,7.41-2.07,11.26-3.61-1.02-7.06-2.56-10.24-4.3-6.83-3.75-12.68-8.49-18.53-12.97-3.06-2.34-6.26-4.56-8.58-7.5ZM218.75,281.5c1.5.74,3.13,1.25,4.71,1.79.46.16.96.14,1.43,0,.41,1.55.74,3.11,1.02,4.67-7.2,3.98-14.17,8.37-21.24,12.58-7.38,4.39-15.07,9.35-23.23,12.15-4.81,1.65-9.01-.27-13.47-2.1-4.6-1.89-9.05-4.13-13.46-6.41-8.94-4.64-17.84-9.36-26.76-14.05.4-2.82.98-5.62,1.79-8.39.16-.02.31-.05.46-.1,1.04-.4,2.11-.8,3.22-.99.67-.07,1.34-.1,2-.26.98-.24,1.93-.67,2.84-1.14,1.54.26,3.21-.59,3.03-2.57-.79-8.81.19-17.77-.44-26.59,2.36,1.68,4.78,3.31,7.3,4.84,6.8,4.13,14.9,7.68,23.57,8.1,8.64.42,17.11-2.65,24.2-6.35,6.44-3.36,12.11-7.49,17.61-11.61-.45,11.38-1.43,22.77-1.21,34.16.06,2.92,3.84,3.42,5.08,1.48.52.26,1.04.53,1.57.79Z"></path>
        <path class="cls-3" d="M151.5,166.49c-.26-.67-.49-1.21-.99-1.74-.29-.31-.64-.58-1.02-.76-.76-.35-1.6-.58-2.44-.31-.85.27-1.61.9-1.95,1.73-.37.33-.67.77-.84,1.3-.5,1.53-.52,3.21-.17,4.78.45,2.04,1.75,4.18,4.07,4.27.86.03,1.72-.37,2.33-.95.52-.48.76-1.1,1.02-1.74.3-.76.43-1.57.52-2.38.07-.59.07-1.18,0-1.77-.1-.84-.22-1.65-.53-2.44Z"></path>
        <path class="cls-3" d="M202.41,166.49c-.26-.67-.49-1.21-.99-1.74-.29-.31-.64-.58-1.02-.76-.76-.35-1.6-.58-2.44-.31-.85.27-1.61.9-1.95,1.73-.37.33-.67.77-.84,1.3-.5,1.53-.52,3.21-.17,4.78.45,2.04,1.75,4.18,4.07,4.27.86.03,1.72-.37,2.33-.95.52-.48.76-1.1,1.02-1.74.3-.76.43-1.57.52-2.38.07-.59.07-1.18,0-1.77-.1-.84-.22-1.65-.53-2.44Z"></path>
        <path class="cls-3" d="M155.05,216.23c-.8,1.37-.23,2.88.98,3.74,5.42,3.84,11.8,6.45,18.52,6.37,6.76-.07,13.11-2.79,18.51-6.74,1.19-.87,1.78-2.37.98-3.74-.69-1.17-2.54-1.86-3.74-.98-4.63,3.39-9.92,5.93-15.75,6-5.81.06-11.1-2.32-15.76-5.63-1.2-.85-3.04-.21-3.74.98Z"></path>
        <path class="cls-3" d="M181.58,231.65c-1.13.34-2.27.62-3.44.81-.14.02-.28.04-.42.07-.05,0-.11.01-.2.02-.27.03-.54.06-.81.08-.59.05-1.18.08-1.76.09-1.18.02-2.35-.07-3.52-.18-.02,0-.03,0-.04,0-.15-.02-.3-.04-.44-.07-.27-.04-.54-.09-.8-.15-.62-.12-1.24-.27-1.85-.44-1.38-.37-3.03.46-3.36,1.91-.33,1.44.43,2.96,1.91,3.36,5.29,1.43,10.95,1.36,16.2-.23,1.37-.41,2.37-1.93,1.91-3.36-.45-1.38-1.9-2.35-3.36-1.91Z"></path>
      </g>
    </g>
  </g>
</svg>
