<?xml version="1.0" encoding="UTF-8"?>
<svg xmlns="http://www.w3.org/2000/svg" xmlns:xlink="http://www.w3.org/1999/xlink" id="_レイヤー_2" data-name="レイヤー 2" viewBox="0 0 354 354">
  <defs>
    <style>
      .cls-1 {
        clip-path: url(#clippath);
      }

      .cls-2 {
        fill: none;
      }

      .cls-2, .cls-3, .cls-4, .cls-5, .cls-6 {
        stroke-width: 0px;
      }

      .cls-3 {
        fill: #5e514f;
      }

      .cls-4 {
        fill: #666;
      }

      .cls-5 {
        fill: #83b9d4;
      }

      .cls-6 {
        fill: #fff;
      }
    </style>
    <clipPath id="clippath">
      <circle class="cls-2" cx="177" cy="177" r="177"></circle>
    </clipPath>
  </defs>
  <g id="_レイヤー_1-2" data-name="レイヤー 1">
    <g class="cls-1">
      <g>
        <path class="cls-6" d="M250.38,148.34c-.69,4.46-1.87,8.85-3.43,13.08-2.3,6.2-5.58,12.01-9.61,17.24.04-.17.08-.34.12-.51,2.4-10.73,4.37-21.54,5.97-32.42.77-.05,1.54-.39,2.1-1.16.86-1.17,2.67-3.79,4.28-2.59,1.64,1.22.84,4.69.58,6.36Z"></path>
        <path class="cls-4" d="M95.63,121.99c.19-1.46-1.41-2.74-2.73-2.73-.07,0-.12-.01-.19-.01,3.19-2.41,5.91-5.35,6.87-9.41,1.59-6.72-2.13-13.17-1.16-19.85.25-1.75-1.27-3.36-2.77-3.52-.59-4.18,1.15-8.47,3.71-12.09,1.7-2.41,3.65-4.63,5.34-7.04,1.87-2.66,3.46-5.45,5.59-7.93,8.84-10.27,21.84-15.12,34.85-17.34.97.92,2.49,1.22,3.69-.03,3.48-3.62,8.14-5.09,12.94-6.08,5.79-1.2,11.73-2.09,17.66-2.14,11.89-.1,23.63,4.1,34.93,7.37,9.99,2.89,19.89,8.41,26.69,16.4,6.82,8.01,9.91,18.35,12.74,28.26,2.24,7.84,6.9,17.25,15.19,19.21-1.62,2.28-3.24,4.56-4.78,6.89-2.03,3.08-1.68,5.87-2.28,9.36-1.06,6.24-4.59,11.69-8.3,16.78-1.71-1.64-4.11-2.35-6.48-1.67-2.1.6-3.7,2.11-5.07,3.77-.6-5.79-4.23-11.24-7.23-16.16-5.15-8.43-10.31-16.87-15.46-25.3-1.71-2.8-5.44-.84-4.99,2.1.6,3.88,1.19,7.77,1.79,11.65-10.35-9.5-16.36-23.21-16.31-37.36.77-2.58-2.45-5.36-4.36-2.89-8.26,10.69-19.31,18.63-31.84,23.07,8.92-8.4,15.92-19.42,16.57-31.47.14-2.68-3.86-3.75-5.09-1.38-5.7,10.99-13.21,20.89-22.35,29.25-4.54,4.15-9.43,7.88-14.64,11.15-5.79,3.63-12.03,7.15-19.02,7.25-3.51.05-3.52,5.51,0,5.46,1.16-.02,2.32-.13,3.47-.28-3.37,4.89-4.91,11-5.71,16.8-.63,4.56-.63,9.16-.16,13.71-1.11-1.14-2.22-2.27-3.34-3.41-.22-.42-.52-.74-.9-.92-.06-.06-.12-.12-.18-.18-.75-.76-1.61-.89-2.4-.7-1.45-1.79-3.13-3.46-5.4-4.09-1.08-.3-2.17-.3-3.19-.07-.14-.28-.32-.55-.61-.8-4.06-3.53-5.78-8.29-5.09-13.61Z"></path>
        <path class="cls-6" d="M105.05,161.6c-1.56-4.02-2.75-8.18-3.53-12.41-.34-1.87-1.29-5.27.12-6.91,1.51-1.75,3.64,1.12,4.52,2.28.65.86,1.55,1.18,2.42,1.15,1.61,10.94,3.66,21.82,6.07,32.61-3.99-5.07-7.27-10.69-9.61-16.71Z"></path>
        <path class="cls-6" d="M115.1,151.92c1.31,1.33,2.61,2.67,3.91,4,1.92,1.97,5.26-.05,4.56-2.66-1.73-6.44-2.24-13.13-1.42-19.76.71-5.8,2.22-12.55,6.32-16.95.82-.88.87-1.91.53-2.78,7.29-2.44,14.21-7.07,20.26-11.91.42,1.2,1.67,2.15,3.26,1.9,16.09-2.52,31.05-10.46,42.19-22.25,1.8,15.93,10.51,30.56,23.8,39.8,2.18,1.52,4.33-.98,4.01-3.08-.26-1.71-.52-3.42-.79-5.13,2.09,3.41,4.17,6.83,6.26,10.24,3.74,6.12,10.75,14.27,8.06,21.88-.54,1.52.3,2.61,1.45,3.07-2.5,16-5.81,31.86-10.05,47.49-1.1,4.05-2.13,8.17-3.52,12.13-1.55,4.41-4.15,7.64-7.73,10.59-5.37,4.43-11.07,8.66-16.82,12.57-5.99,4.06-12.51,7.9-19.71,9.24-7.56,1.41-14.88-1.42-21.31-5.22-6.35-3.75-12.01-8.49-17.84-12.96-3.05-2.34-6.27-4.56-8.79-7.5-3.04-3.54-4.15-8.15-5.41-12.53-4.74-16.48-8.43-33.25-11.22-50.17Z"></path>
        <path class="cls-6" d="M177.37,286.24c-.12,1.07-.24,2.14-.36,3.2-.12-1.07-.24-2.14-.36-3.2-.37-3.16-.7-6.09-3.27-8.27-2.69-2.28-6.6-3.17-9.78-4.53-3.91-1.67-7.74-3.52-11.49-5.52-3.86-2.06-8.06-4.25-11.89-6.84.58-.43.96-1.1.87-2.08-.93-10.18-.47-20.57-1.65-30.75,4.34,3.41,8.74,6.78,13.35,9.78,6.34,4.13,13.6,7.68,21.27,8.1,7.65.42,15.16-2.65,21.69-6.35,6.22-3.52,11.87-7.89,17.54-12.22-.45,11.32-1.39,22.65-1.17,33.98,0,.22.09.38.13.58-3.4,2.15-7,4.02-10.33,5.79-3.58,1.91-7.24,3.68-10.96,5.29-3.26,1.41-7.2,2.33-10.04,4.55-2.78,2.17-3.16,5.19-3.54,8.48Z"></path>
        <path class="cls-6" d="M132.89,254.87c-2.58-2.93-4.18-6.62-2.55-10.43.91-2.14,2.54-3.93,4.3-5.55.03.82.06,1.65.1,2.47.22,5.13.33,10.28.71,15.41-.16.08-.31.16-.47.24-.73-.68-1.43-1.39-2.09-2.13Z"></path>
        <path class="cls-6" d="M218.26,237.91c2.15,1.87,4.27,3.94,5.4,6.53,1.58,3.6.16,7.23-2.23,10.06-1.14,1.35-2.45,2.59-3.84,3.75,0-6.78.31-13.56.67-20.35Z"></path>
        <path class="cls-5" d="M324.97,400.72c-1.56-22.57-.62-45.41-5.27-67.64-1.29-6.16-3-12.24-5.28-18.11-2.28-5.89-5.03-12.27-9.54-16.81-4.62-4.65-11.07-7.03-17.01-9.48-5.75-2.37-11.49-4.74-17.24-7.11-.17.53-.33,1.06-.55,1.58-.36.87-1.02,1.37-1.75,1.62-.08.09-.11.18-.21.27-21.26,17.68-47.63,28.19-75.23,29.92-3.52.22-3.49-5.24,0-5.46,26.06-1.63,51.29-11.61,71.37-28.32.29-.24.6-.39.91-.49,1.85-5.29,1.19-11-1.84-15.78-1.59-2.51-3.76-4.41-6.37-5.81-2.73-1.45-4.94-2.8-6.23-5.73-3-6.85-4.48-13.94-8.87-20.2-3.79-5.41-9.51-9.96-16.23-10.8-1.71-.21-2.58-1.67-2.59-3.02-1.28,1.35-2.67,2.62-4.14,3.85-.07,2.91-.2,5.83-.34,8.75.61,0,1.24.16,1.81.65,5.25,4.46,10.6,10.1,9.21,17.6-1.37,7.33-8.1,12.21-13.95,16-7.46,4.84-15.34,8.99-23.54,12.44-1.92.81-3.93,1.48-5.83,2.34-2.36,1.07-3.04,2.1-3.38,4.69-.59,4.61-1.05,9.23-1.58,13.85-.26,2.32-2.79,3.06-4.32,2.26-1.53.8-4.06.06-4.32-2.26-.55-4.79-.84-9.7-1.65-14.45-.42-2.47-1.52-3.33-3.75-4.26-1.79-.75-3.61-1.42-5.39-2.17-8.19-3.46-16.08-7.6-23.54-12.44-1.49-.97-3.04-2.01-4.54-3.14-.06,0-.11-.02-.17-.02-.7-.16-1.26-.67-1.63-1.26-.04-.07-.03-.14-.07-.21-3.61-3.03-6.66-6.7-7.53-11.37-1.4-7.49,3.96-13.13,9.21-17.6.22-.18.45-.27.68-.38-.19-2.75-.47-5.49-.98-8.18-.04-.2,0-.37,0-.55-.02-.01-.03-.03-.05-.04-.98-.77-1.93-1.58-2.85-2.41-.43.68-1.1,1.22-2.07,1.34-6.9.86-12.74,5.64-16.53,11.25-4.16,6.16-5.62,13.08-8.56,19.75-1.38,3.14-3.79,4.36-6.65,5.95-2.56,1.42-4.65,3.44-6.17,5.94-2.86,4.72-3.42,10.29-1.62,15.43.31.11.62.25.92.5,20.08,16.7,45.31,26.69,71.37,28.32,3.5.22,3.51,5.68,0,5.46-27.61-1.73-53.97-12.23-75.23-29.92-.1-.08-.13-.18-.21-.27-.73-.25-1.39-.75-1.75-1.62-.22-.52-.38-1.05-.55-1.58-5.75,2.37-11.49,4.74-17.24,7.11-5.94,2.45-12.39,4.84-17.01,9.48-4.51,4.54-7.26,10.92-9.54,16.81-2.28,5.87-3.99,11.95-5.28,18.11-4.65,22.24-3.71,45.07-5.27,67.64h295.94Z"></path>
        <path class="cls-6" d="M139.08,133.96c5.28-.88,10.94-.48,16.19,1.06,1.37.4,3.04-.49,3.36-1.91.33-1.46-.44-2.93-1.91-3.36-6.22-1.82-12.72-2.12-19.1-1.06-1.41.24-2.33,2.06-1.91,3.36.49,1.53,1.84,2.16,3.36,1.91Z"></path>
        <path class="cls-6" d="M195.59,135.01c5.25-1.54,10.91-1.94,16.19-1.06,1.4.23,3.01-.37,3.36-1.91.3-1.32-.4-3.11-1.91-3.36-6.38-1.06-12.88-.76-19.1,1.06-1.37.4-2.37,1.94-1.91,3.36.45,1.39,1.89,2.34,3.36,1.91Z"></path>
        <path class="cls-6" d="M158.9,297.06c-.27-.3-.63-.55-.95-.79-.16-.12-.32-.22-.5-.3-.36-.18-.74-.35-1.13-.46-.41-.12-.85-.16-1.27-.2-.19-.02-.37-.01-.56,0-.42.05-.86.08-1.27.23-.36.08-.67.25-.93.49-.3.19-.53.45-.7.77-.2.31-.31.65-.32,1.02-.08.36-.07.73.05,1.09.21.66.62,1.3,1.26,1.63.62.33,1.41.52,2.11.28.03-.01.07-.01.1-.02h.03s.05.01.07.02c.01,0,.03.02.04.02,0,0,.01.01.02.02.05.09.11.17.15.26-.03-.06-.05-.12-.08-.19.01.01.02.02.04.04.24.53.57,1,1.09,1.31.31.2.65.31,1.02.32.36.08.73.07,1.09-.05.66-.21,1.3-.62,1.63-1.26.33-.63.51-1.41.28-2.1-.28-.83-.65-1.47-1.24-2.12Z"></path>
        <polygon class="cls-6" points="154.93 300.75 154.93 300.75 154.93 300.75 154.93 300.75 154.93 300.75"></polygon>
        <polygon class="cls-6" points="154.95 300.79 154.95 300.79 154.95 300.79 154.95 300.79 154.95 300.79"></polygon>
        <path class="cls-6" d="M149.87,142.54c-.29-.31-.64-.58-1.02-.76-.76-.35-1.6-.58-2.44-.31-.87.28-1.61.93-1.95,1.79-.36.33-.68.73-.85,1.24-.5,1.53-.52,3.21-.17,4.78.45,2.04,1.75,4.18,4.07,4.27.86.03,1.72-.37,2.33-.95.52-.48.76-1.1,1.02-1.74.3-.76.43-1.57.52-2.38.07-.59.07-1.18,0-1.77-.1-.84-.22-1.65-.53-2.44-.26-.67-.49-1.21-.99-1.74Z"></path>
        <path class="cls-6" d="M149.28,145.7c.09-.15.18-.3.23-.46-.05.12-.1.24-.15.36-.03.03-.05.07-.08.1Z"></path>
        <path class="cls-6" d="M207.05,142.54c-.29-.31-.64-.58-1.02-.76-.76-.35-1.6-.58-2.44-.31-.87.28-1.61.93-1.95,1.79-.36.33-.68.73-.85,1.24-.5,1.53-.52,3.21-.17,4.78.45,2.04,1.75,4.18,4.07,4.27.86.03,1.72-.37,2.33-.95.52-.48.76-1.1,1.02-1.74.3-.76.43-1.57.52-2.38.07-.59.07-1.18,0-1.77-.1-.84-.22-1.65-.53-2.44-.26-.67-.49-1.21-.99-1.74Z"></path>
        <path class="cls-6" d="M206.46,145.7c.09-.15.18-.3.23-.46-.05.12-.1.24-.15.36-.03.03-.05.07-.08.1Z"></path>
        <path class="cls-6" d="M177.28,169.46c1.22,3.67,1.59,7.5-.67,10.87-.82,1.23-.24,3.03.98,3.74,1.34.79,2.91.25,3.74-.98,2.64-3.93,2.98-9.08,1.7-13.55-.57-1.98-1.47-3.92-1.7-5.98-.26-2.42.09-4.9.33-7.31.14-1.47-1.36-2.73-2.73-2.73-1.6,0-2.59,1.26-2.73,2.73-.22,2.27-.51,4.57-.36,6.85.14,2.22.75,4.26,1.44,6.36Z"></path>
        <path class="cls-6" d="M159.7,203.9c11.07,3.71,22.98,3.65,34.01-.17,3.3-1.14,1.88-6.42-1.45-5.27-10.19,3.53-20.88,3.6-31.11.17-3.34-1.12-4.77,4.15-1.45,5.27Z"></path>
        <path class="cls-6" d="M181.94,213.99c-.21.1-.43.23-.65.3-.05.01-.1.03-.12.04-.42.15-.84.28-1.27.39-.18.05-.36.09-.55.12-.12.02-.24.05-.37.07-.3.05-.24.04.18-.02-.12.15-1.01.09-1.2.09-.4,0-.8,0-1.2-.03-.12,0-.25-.02-.37-.03-.11-.01-.12-.01-.14-.02-.11-.03-.22-.05-.24-.06-.43-.09-.86-.2-1.27-.33-.18-.06-.36-.12-.54-.18-.12-.04-.24-.09-.36-.14.06.03.06.03.1.04-.69-.3-1.33-.48-2.09-.27-.63.17-1.32.66-1.63,1.26-.63,1.18-.42,3.12.98,3.74,2.15.95,4.39,1.54,6.76,1.48,2.37-.06,4.61-.7,6.73-1.75,1.28-.63,1.74-2.56.98-3.74-.85-1.31-2.36-1.66-3.74-.98Z"></path>
        <path class="cls-6" d="M176.28,214.92s.13.02.3.04c-.01.02-.16,0-.3-.04Z"></path>
        <path class="cls-6" d="M194.84,302.05c.26.24.57.4.93.49.7.16,1.48.12,2.1-.28.18-.14.37-.28.55-.43.23-.23.39-.5.53-.79.03-.07.08-.13.12-.2,0,0,.01-.01.02-.02.01,0,.03-.02.04-.02.02,0,.05-.01.07-.02h.03s.07.01.1.02c.36.11.73.13,1.09.05.36-.02.7-.12,1.01-.32.32-.17.57-.41.77-.7.24-.26.4-.57.49-.93.16-.7.13-1.48-.28-2.1-.14-.18-.28-.37-.43-.55-.34-.34-.74-.57-1.21-.7-.4-.14-.85-.18-1.27-.23-.18-.02-.37-.02-.56,0-.42.04-.85.08-1.25.19-.4.11-.79.29-1.15.47-.17.08-.33.18-.48.29-.32.24-.69.5-.97.8-.59.65-.96,1.29-1.24,2.12-.11.36-.13.73-.05,1.09.02.36.12.7.32,1.02.17.32.41.57.7.77Z"></path>
        <path class="cls-3" d="M139.08,133.96c5.28-.88,10.94-.48,16.19,1.06,1.37.4,3.04-.49,3.36-1.91.33-1.46-.44-2.93-1.91-3.36-6.22-1.82-12.72-2.12-19.1-1.06-1.41.24-2.33,2.06-1.91,3.36.49,1.53,1.85,2.16,3.36,1.91Z"></path>
        <path class="cls-3" d="M195.59,135.01c5.25-1.54,10.91-1.94,16.19-1.06,1.4.23,3.01-.37,3.36-1.91.3-1.32-.4-3.11-1.91-3.36-6.38-1.06-12.88-.76-19.1,1.06-1.37.4-2.37,1.94-1.91,3.36.45,1.39,1.89,2.34,3.36,1.91Z"></path>
        <path class="cls-3" d="M157.95,296.27c-.16-.12-.32-.22-.5-.3-.36-.18-.74-.35-1.13-.46-.41-.12-.85-.16-1.27-.2-.19-.02-.37-.01-.56,0-.42.05-.86.08-1.27.23-.36.08-.67.25-.93.49-.3.19-.53.45-.7.77-.2.31-.31.65-.32,1.02-.08.36-.07.73.05,1.09.21.66.62,1.3,1.26,1.63.62.33,1.41.52,2.1.28.05-.02.1-.03.15-.04.01,0,.03,0,.04.01.02.01.05.03.07.04,0,0,0,0,0,0,0,.01.01.03.02.04.24.58.61,1.07,1.17,1.39.31.2.65.31,1.02.32.36.08.73.07,1.09-.05.66-.21,1.3-.62,1.63-1.26.33-.63.51-1.41.28-2.1-.28-.83-.65-1.47-1.24-2.12-.27-.3-.63-.55-.95-.79Z"></path>
        <path class="cls-3" d="M150.86,144.28c-.26-.67-.49-1.21-.99-1.74-.29-.31-.64-.58-1.02-.76-.76-.35-1.6-.58-2.44-.31-.85.27-1.61.9-1.95,1.73-.37.33-.67.77-.84,1.3-.5,1.53-.52,3.21-.17,4.78.45,2.04,1.75,4.18,4.07,4.27.86.03,1.72-.37,2.33-.95.52-.48.76-1.1,1.02-1.74.3-.76.43-1.57.52-2.38.07-.59.07-1.18,0-1.77-.1-.84-.22-1.65-.53-2.44Z"></path>
        <path class="cls-3" d="M208.04,144.28c-.26-.67-.49-1.21-.99-1.74-.29-.31-.64-.58-1.02-.76-.76-.35-1.6-.58-2.44-.31-.85.27-1.61.9-1.95,1.73-.37.33-.67.77-.84,1.3-.5,1.53-.52,3.21-.17,4.78.45,2.04,1.75,4.18,4.07,4.27.86.03,1.72-.37,2.33-.95.52-.48.76-1.1,1.02-1.74.3-.76.43-1.57.52-2.38.07-.59.07-1.18,0-1.77-.1-.84-.22-1.65-.53-2.44Z"></path>
        <path class="cls-3" d="M177.28,169.46c1.22,3.67,1.59,7.5-.67,10.87-.82,1.23-.24,3.03.98,3.74,1.34.79,2.91.25,3.74-.98,2.64-3.93,2.98-9.08,1.7-13.55-.57-1.98-1.47-3.92-1.69-5.98-.26-2.42.09-4.9.33-7.31.14-1.47-1.36-2.73-2.73-2.73-1.6,0-2.59,1.26-2.73,2.73-.22,2.27-.51,4.57-.36,6.85.14,2.22.75,4.26,1.44,6.36Z"></path>
        <path class="cls-3" d="M159.7,203.9c11.07,3.71,22.98,3.65,34.01-.17,3.3-1.14,1.88-6.42-1.45-5.27-10.2,3.53-20.88,3.6-31.11.17-3.34-1.12-4.77,4.15-1.45,5.27Z"></path>
        <path class="cls-3" d="M181.94,213.99c-.18.09-.37.2-.56.28-.08.02-.17.05-.21.06-.42.15-.84.28-1.27.39-.18.05-.36.09-.55.12-.12.02-.24.05-.37.07-.3.05-.24.04.18-.02-.12.15-1.01.09-1.2.09-.4,0-.8,0-1.2-.03-.12,0-.25-.02-.37-.03-.07,0-.11-.01-.14-.02-.11-.03-.21-.05-.23-.06-.43-.09-.86-.2-1.27-.33-.18-.06-.36-.12-.54-.18-.12-.04-.24-.09-.36-.14-.65-.28-1.27-.43-1.99-.23-.63.17-1.32.66-1.63,1.26-.63,1.18-.42,3.12.98,3.74,2.15.95,4.39,1.54,6.76,1.48,2.37-.06,4.61-.7,6.73-1.75,1.28-.63,1.74-2.56.98-3.74-.85-1.31-2.36-1.66-3.74-.98ZM176.28,214.92c.06,0,.16.02.3.04-.01.02-.16,0-.3-.04Z"></path>
        <path class="cls-3" d="M34.3,333.07c1.29-6.16,3-12.24,5.28-18.11,2.28-5.89,5.03-12.27,9.54-16.81,4.62-4.65,11.07-7.03,17.01-9.48,5.74-2.37,11.48-4.74,17.21-7.11.17.53.36,1.05.57,1.57.35.84.98,1.36,1.68,1.62.08.09.18.18.28.27,21.26,17.68,47.62,28.19,75.23,29.92,3.51.22,3.5-5.24,0-5.46-26.06-1.63-51.29-11.61-71.37-28.32-.31-.26-.63-.43-.96-.54-1.78-5.13-1.19-10.68,1.67-15.39,1.52-2.5,3.61-4.52,6.17-5.94,2.85-1.59,5.27-2.81,6.65-5.95,2.94-6.67,4.4-13.59,8.56-19.75,3.79-5.61,9.63-10.39,16.53-11.25.96-.12,1.66-.63,2.08-1.3.91.82,1.86,1.61,2.82,2.37,0,.19.02.39.05.6.5,2.67.79,5.39.98,8.12-.23.11-.46.25-.68.44-5.25,4.46-10.6,10.11-9.21,17.6.86,4.64,3.88,8.3,7.46,11.32.04.09.09.18.14.27.38.58.94,1.1,1.63,1.26.05,0,.11.01.16.02,1.5,1.13,3.05,2.17,4.55,3.14,7.46,4.84,15.35,8.99,23.54,12.44,1.79.75,3.6,1.43,5.39,2.17,2.22.93,3.33,1.78,3.75,4.26.8,4.76,1.1,9.66,1.65,14.45.26,2.31,2.79,3.09,4.32,2.31,1.53.78,4.05,0,4.32-2.31.53-4.61.98-9.24,1.58-13.85.33-2.59,1.02-3.62,3.38-4.69,1.9-.86,3.91-1.53,5.83-2.34,8.19-3.46,16.08-7.6,23.54-12.44,5.85-3.8,12.58-8.67,13.95-16,1.4-7.49-3.96-13.13-9.21-17.6-.57-.49-1.2-.69-1.81-.69.14-2.9.26-5.8.34-8.71,1.47-1.23,2.86-2.49,4.13-3.84.02,1.35.89,2.8,2.6,3.01,6.71.84,12.44,5.39,16.23,10.8,4.38,6.26,5.86,13.35,8.87,20.2,1.29,2.93,3.5,4.28,6.23,5.73,2.61,1.39,4.77,3.3,6.37,5.81,3.03,4.77,3.72,10.47,1.89,15.74-.33.11-.65.28-.96.54-20.08,16.7-45.31,26.69-71.37,28.32-3.49.22-3.52,5.68,0,5.46,27.61-1.73,53.97-12.23,75.23-29.92.1-.09.19-.17.28-.26.71-.25,1.33-.77,1.69-1.62.21-.52.4-1.04.57-1.57,5.74,2.37,11.48,4.74,17.21,7.11,5.94,2.45,12.39,4.84,17.01,9.48,4.51,4.54,7.26,10.92,9.54,16.81,2.28,5.87,3.99,11.95,5.28,18.11,4.65,22.24,3.71,45.07,5.27,67.64h5.46c-1.29-18.52-.94-37.14-3.26-55.59-1.28-10.19-3.31-20.3-6.86-29.95-3.4-9.26-7.69-18.85-16.09-24.58-4.74-3.23-10.23-5.27-15.5-7.45l-17.05-7.04c.24-4.17-.69-8.39-2.59-12.17-1.42-2.82-3.46-5.37-5.93-7.34-1.35-1.08-2.76-1.89-4.28-2.7-2.26-1.19-2.98-2.15-3.75-4.54-4.73-14.56-12.55-30.38-29.47-32.5-.17-.02-.33-.02-.49-.02,1.66-2.17,3.05-4.61,4.05-7.5,2.33-6.73,4.18-13.69,5.84-20.68.55-.05,1.1-.3,1.59-.82,8.43-8.86,14.59-19.78,17.67-31.63.93-3.58,2.32-8.34,1.86-12.48,4.3-5.76,8.65-11.8,10.53-18.85.83-3.11.23-7.11,1.94-9.81,2.41-3.8,5.18-7.42,7.76-11.11,1.11-1.59-.34-4.36-2.36-4.11-12.44,1.52-14.58-15.16-17.39-23.62-3.25-9.81-7.83-19.45-15.64-26.45-7.79-6.97-16.99-11.57-27-14.39-11.69-3.29-23.55-7.4-35.85-7.04-6.3.19-12.72,1.15-18.87,2.54-4.73,1.06-9.27,2.79-12.93,5.95-.49-.24-1.07-.34-1.72-.24-15.27,2.45-30.5,8.66-40.13,21.3-2.19,2.88-3.98,6.02-6.19,8.88-2.07,2.69-4.29,5.3-5.85,8.34-3.06,5.95-3.54,13.19.3,18.9.11.16.23.3.37.43.38,3.47,1.23,6.86,1.41,10.45.32,6.57-4.37,9.79-9.46,12.83-1.81,1.08-1.72,3.61,0,4.72,1.58,1.01,3.2,1.66,4.93,1.99-.02,5.72,2.48,11.19,6.85,15,.04.03.07.06.11.09-3.04,4.76-.71,12.04.67,17.02,3.25,11.71,9.53,22.48,18.03,31.16.43.44.89.68,1.36.77,1.15,4.61,2.37,9.21,3.67,13.78,1.15,4.03,2.17,8.25,4.18,11.95.55,1.02,1.19,1.98,1.89,2.89-15.83,2.88-23.3,18.16-27.88,32.25-.68,2.1-1.34,3.2-3.33,4.32-1.52.86-2.99,1.58-4.38,2.66-2.61,2.02-4.78,4.64-6.26,7.59-1.9,3.77-2.82,8-2.59,12.16-9.73,3.94-19.94,7.45-29.16,12.44-9.23,5-14.07,13.31-17.97,22.75-8.03,19.46-9.57,40.73-10.38,61.54-.36,9.3-.6,18.6-1.25,27.88h5.46c1.56-22.57.62-45.41,5.27-67.64ZM130.34,244.44c.91-2.14,2.54-3.94,4.3-5.55.03.83.06,1.65.1,2.47.22,5.13.32,10.29.69,15.42-.15.08-.3.15-.45.23-.73-.68-1.43-1.39-2.08-2.13-2.58-2.93-4.18-6.62-2.55-10.43ZM190.95,273.21c-3.26,1.41-7.2,2.33-10.04,4.55-2.78,2.17-3.16,5.19-3.54,8.48-.12,1.07-.24,2.13-.36,3.2-.12-1.07-.24-2.13-.37-3.2-.37-3.16-.7-6.09-3.27-8.27-2.69-2.28-6.6-3.17-9.78-4.53-3.91-1.67-7.74-3.52-11.49-5.52-3.85-2.05-8.04-4.23-11.87-6.81.57-.43.94-1.13.85-2.11-.93-10.17-.46-20.56-1.64-30.73,4.34,3.41,8.74,6.77,13.33,9.76,6.34,4.13,13.6,7.68,21.27,8.1,7.65.42,15.16-2.65,21.69-6.35,6.23-3.53,11.89-7.91,17.57-12.24-.45,11.33-1.43,22.67-1.2,34,0,.22.03.42.07.61-3.38,2.13-6.96,3.99-10.27,5.76-3.58,1.91-7.23,3.68-10.96,5.29ZM223.66,244.44c1.58,3.6.16,7.23-2.23,10.06-1.16,1.37-2.47,2.63-3.89,3.81,0-6.8.36-13.6.72-20.4,2.15,1.87,4.27,3.94,5.4,6.53ZM250.38,148.34c-.69,4.46-1.86,8.85-3.43,13.08-2.3,6.2-5.57,12.02-9.61,17.24.04-.17.08-.34.12-.52,2.4-10.73,4.38-21.54,5.98-32.41.77-.05,1.53-.4,2.1-1.17.86-1.17,2.67-3.79,4.28-2.59,1.64,1.22.84,4.69.58,6.36ZM95.63,121.99c.19-1.46-1.41-2.74-2.73-2.73-.06,0-.11,0-.17,0,3.19-2.41,5.89-5.36,6.85-9.41,1.59-6.72-2.13-13.17-1.16-19.85.25-1.76-1.3-3.41-2.81-3.53-.58-4.18,1.2-8.46,3.75-12.08,1.7-2.41,3.65-4.63,5.34-7.04,1.87-2.66,3.46-5.45,5.59-7.93,8.83-10.26,21.81-15.13,34.82-17.35.97.93,2.51,1.24,3.72-.01,3.48-3.62,8.14-5.09,12.94-6.08,5.79-1.2,11.73-2.09,17.66-2.14,11.89-.1,23.63,4.1,34.93,7.37,9.99,2.89,19.89,8.41,26.69,16.4,6.82,8.01,9.91,18.35,12.74,28.26,2.24,7.84,6.88,17.28,15.18,19.23-1.62,2.27-3.23,4.54-4.76,6.87-2.03,3.08-1.68,5.87-2.28,9.36-1.06,6.23-4.58,11.7-8.3,16.78-1.71-1.65-4.11-2.35-6.48-1.67-2.09.6-3.7,2.1-5.06,3.76-.6-5.78-4.24-11.23-7.24-16.15-5.15-8.43-10.31-16.87-15.46-25.3-1.71-2.8-5.44-.84-4.99,2.1.6,3.89,1.19,7.77,1.79,11.66-10.34-9.49-16.36-23.19-16.32-37.32.82-2.59-2.43-5.41-4.35-2.94-8.26,10.68-19.31,18.64-31.83,23.08,8.92-8.4,15.91-19.43,16.56-31.48.14-2.68-3.86-3.75-5.09-1.38-5.7,10.99-13.21,20.88-22.35,29.25-4.54,4.15-9.43,7.88-14.64,11.15-5.79,3.63-12.03,7.15-19.02,7.25-3.51.05-3.52,5.51,0,5.46,1.15-.02,2.29-.11,3.43-.26-3.35,4.89-4.87,10.98-5.67,16.77-.63,4.54-.7,9.11-.23,13.63-1.06-1.08-2.11-2.16-3.17-3.24-.23-.51-.59-.85-1.02-1.05-.05-.05-.1-.1-.15-.15-.75-.77-1.63-.94-2.42-.74-1.44-1.77-3.13-3.42-5.38-4.05-1.07-.3-2.15-.31-3.17-.08-.14-.27-.35-.54-.63-.79-4.06-3.53-5.78-8.29-5.09-13.61ZM105.05,161.6c-1.56-4.02-2.75-8.18-3.53-12.41-.34-1.87-1.29-5.27.12-6.91,1.51-1.75,3.64,1.12,4.52,2.28.64.85,1.54,1.18,2.41,1.15,1.61,10.92,3.61,21.77,6.02,32.53-3.96-5.05-7.21-10.65-9.54-16.64ZM115.03,151.85c1.33,1.36,2.66,2.71,3.98,4.07,1.92,1.97,5.26-.05,4.56-2.66-1.73-6.44-2.24-13.13-1.42-19.76.71-5.8,2.22-12.55,6.32-16.95.82-.88.91-1.92.57-2.79,7.27-2.44,14.16-7.05,20.2-11.88.43,1.19,1.7,2.13,3.28,1.88,16.09-2.52,31.05-10.46,42.19-22.25,1.8,15.93,10.51,30.56,23.8,39.8,2.18,1.52,4.33-.98,4.01-3.08-.26-1.71-.52-3.42-.79-5.13,2.09,3.41,4.17,6.83,6.26,10.24,3.74,6.12,10.75,14.27,8.06,21.88-.55,1.54.3,2.68,1.49,3.12-2.5,15.98-5.85,31.83-10.09,47.44-1.1,4.05-2.13,8.17-3.52,12.13-1.55,4.41-4.15,7.64-7.73,10.59-5.37,4.43-11.07,8.66-16.82,12.57-5.99,4.06-12.51,7.9-19.71,9.24-7.56,1.41-14.88-1.42-21.31-5.22-6.34-3.75-12.01-8.49-17.84-12.96-3.05-2.34-6.27-4.56-8.79-7.5-3.04-3.54-4.15-8.15-5.41-12.53-4.75-16.51-8.5-33.29-11.29-50.24Z"></path>
        <path class="cls-3" d="M194.84,302.05c.26.24.57.4.93.49.7.16,1.48.12,2.1-.28.18-.14.37-.28.55-.43.29-.29.5-.63.63-1.01,0,0,0,0,0,0,.02-.01.05-.03.07-.04.01,0,.03,0,.04-.01.05.01.1.03.15.04.36.11.73.13,1.09.05.36-.02.7-.12,1.02-.32.32-.17.57-.41.77-.7.24-.26.4-.57.49-.93.16-.7.12-1.48-.28-2.1-.14-.18-.28-.37-.43-.55-.34-.34-.74-.57-1.21-.7-.4-.14-.85-.18-1.27-.23-.18-.02-.37-.02-.56,0-.42.04-.85.08-1.25.19-.4.11-.79.29-1.15.47-.17.08-.33.18-.48.29-.32.24-.69.5-.97.8-.59.65-.96,1.29-1.24,2.12-.11.36-.13.73-.05,1.09.02.36.12.7.32,1.02.17.32.41.57.7.77Z"></path>
      </g>
    </g>
  </g>
</svg>
