<?xml version="1.0" encoding="UTF-8"?>
<svg id="_レイヤー_2" data-name="レイヤー 2" xmlns="http://www.w3.org/2000/svg" viewBox="0 0 105.84 80.95">
  <defs>
    <style>
      .cls-1 {
        fill: #76afd9;
      }

      .cls-1, .cls-2 {
        stroke-width: 0px;
      }

      .cls-2 {
        fill: #fff;
      }
    </style>
  </defs>
  <g id="_レイヤー_1-2" data-name="レイヤー 1">
    <g>
      <g>
        <polygon class="cls-1" points="100.97 12.34 76.06 31.23 52.49 12.34 28.13 29.46 4 12.34 13.72 80.95 91.25 80.95 100.97 12.34"/>
        <g>
          <path class="cls-1" d="M10.51,11.89c0,2.9-2.35,5.26-5.26,5.26S0,14.79,0,11.89s2.35-5.26,5.26-5.26,5.26,2.35,5.26,5.26Z"/>
          <path class="cls-1" d="M59.72,7.6c0,4.2-3.4,7.6-7.6,7.6s-7.6-3.4-7.6-7.6,3.4-7.6,7.6-7.6,7.6,3.4,7.6,7.6Z"/>
          <circle class="cls-1" cx="100.58" cy="11.89" r="5.26"/>
        </g>
      </g>
      <path class="cls-2" d="M37.49,68.88l1.25-9.35c3.15,1.82,5.97,2.73,8.45,2.73,1.62,0,2.93-.41,3.93-1.23,1.02-.82,1.53-1.88,1.53-3.19,0-1.4-.55-2.48-1.66-3.26-1.11-.77-2.66-1.16-4.67-1.16-2.2,0-4.5.46-6.92,1.38l3.06-22.98h19.61v9.27h-11.24l-.84,4.42c.73-.05,1.33-.08,1.79-.08,3.23,0,5.97,1.17,8.2,3.52,2.21,2.32,3.32,5.21,3.32,8.68,0,4.09-1.43,7.49-4.29,10.21-2.83,2.72-6.39,4.09-10.7,4.09-3.68,0-7.29-1.02-10.83-3.06Z"/>
    </g>
  </g>
</svg>