<svg width="40" height="31" viewBox="0 0 40 31" fill="none" xmlns="http://www.w3.org/2000/svg">
<g clip-path="url(#clip0_30_947)">
<path d="M38.1595 5.0683L28.7453 12.2074L19.8375 5.0683L10.6311 11.5384L1.51172 5.0683L5.18519 30.998H34.486L38.1595 5.0683Z" fill="#A9A9A9"/>
<path d="M3.97203 4.89825C3.97203 5.99424 3.0839 6.88615 1.98413 6.88615C0.884354 6.88615 0 5.99424 0 4.89825C0 3.80225 0.888133 2.91034 1.98791 2.91034C3.08768 2.91034 3.97581 3.79847 3.97581 4.89825H3.97203Z" fill="#A9A9A9"/>
<path d="M22.5699 3.27692C22.5699 4.86422 21.2849 6.14918 19.6976 6.14918C18.1103 6.14918 16.8254 4.86422 16.8254 3.27692C16.8254 1.68962 18.1103 0.404663 19.6976 0.404663C21.2849 0.404663 22.5699 1.68962 22.5699 3.27692Z" fill="#A9A9A9"/>
<path d="M38.0121 6.88615C39.11 6.88615 40 5.99614 40 4.89825C40 3.80036 39.11 2.91034 38.0121 2.91034C36.9142 2.91034 36.0242 3.80036 36.0242 4.89825C36.0242 5.99614 36.9142 6.88615 38.0121 6.88615Z" fill="#A9A9A9"/>
<path d="M23.9607 26.871H14.1534L18.0461 21.6745C18.4883 21.0849 18.8624 20.5558 19.161 20.091C19.4633 19.6261 19.6977 19.2179 19.8715 18.8589C20.2116 18.19 20.3779 17.4984 20.3779 16.7916C20.3779 16.4024 20.2986 16.0962 20.1398 15.8695C19.9811 15.6427 19.7619 15.5294 19.486 15.5294C18.87 15.5294 18.5639 16.1076 18.5639 17.264C18.5639 17.3245 18.5639 17.4001 18.5677 17.487C18.5677 17.574 18.5752 17.676 18.5828 17.7931H14.8451L14.8262 17.2754C14.8262 15.843 15.2683 14.6677 16.1565 13.7493C17.0484 12.8272 18.1897 12.3661 19.5805 12.3661C20.9713 12.3661 22.0181 12.8045 22.8647 13.6775C23.7188 14.5316 24.1459 15.6503 24.1459 17.026C24.1459 18.1333 23.8549 19.2104 23.2691 20.2535C22.9743 20.775 22.5926 21.3268 22.1202 21.9012C21.6478 22.4757 21.0809 23.0804 20.4082 23.7153C20.9864 23.6737 21.5684 23.6397 22.158 23.6246C22.7438 23.6057 23.3485 23.5981 23.9607 23.5981V26.8748V26.871Z" fill="white"/>
</g>
<defs>
<clipPath id="clip0_30_947">
<rect width="40" height="30.5933" fill="white" transform="translate(0 0.404663)"/>
</clipPath>
</defs>
</svg>
