<?xml version="1.0" encoding="UTF-8"?>
<svg xmlns="http://www.w3.org/2000/svg" xmlns:xlink="http://www.w3.org/1999/xlink" id="_レイヤー_2" data-name="レイヤー 2" viewBox="0 0 354 354">
  <defs>
    <style>
      .cls-1 {
        clip-path: url(#clippath);
      }

      .cls-2 {
        fill: none;
      }

      .cls-2, .cls-3, .cls-4, .cls-5, .cls-6, .cls-7 {
        stroke-width: 0px;
      }

      .cls-3 {
        fill: #606060;
      }

      .cls-4 {
        fill: #5e514f;
      }

      .cls-5 {
        fill: #8e8e8e;
      }

      .cls-6 {
        fill: #6b6b6b;
      }

      .cls-7 {
        fill: #fff;
      }
    </style>
    <clipPath id="clippath">
      <circle class="cls-2" cx="177" cy="177" r="177"></circle>
    </clipPath>
  </defs>
  <g id="_レイヤー_1-2" data-name="レイヤー 1">
    <g class="cls-1">
      <g>
        <path class="cls-7" d="M214.69,109.2c-.06-.13-.08-.18-.09-.21-.08,0-.13,0-.18,0,.03,0,.26.19.27.2Z"></path>
        <path class="cls-7" d="M214.42,109s0,0,0,0c-.14,0-.11,0,0,0Z"></path>
        <path class="cls-7" d="M214.6,108.99s0,0,.01,0c0,0-.02-.01-.01,0Z"></path>
        <path class="cls-7" d="M177.48,198.69c.74,1.15,2.49,1.87,3.74.98,2.68-1.91,3.54-4.96,3.5-8.13-.04-3.32-.65-6.67-1.74-9.8-.47-1.35-1.89-2.38-3.36-1.91-1.33.43-2.41,1.91-1.91,3.36.45,1.3.82,2.62,1.09,3.96.07.36.14.72.19,1.08.02.13.04.26.06.38,0,.03.01.1.03.25.06.64.12,1.27.15,1.91.02.53.04,1.07.01,1.6-.01.27,0,.59-.07.85-.03.13-.07.27-.08.32-.05.2-.12.4-.17.6-.03.08-.02.08-.04.11-.03.06-.06.12-.09.18-.06.12-.13.23-.2.34-.03.04-.02.03-.04.06-.2.19-.58.45-.1.11-1.16.83-1.83,2.42-.98,3.74Z"></path>
        <path class="cls-7" d="M245.92,188.84c-1.55,5.49-5.11,10.06-9.59,13.45.56-2.42,1.1-4.84,1.64-7.25,1.75-7.81,3.26-15.67,4.58-23.56,2.06,1.19,3.04,3.85,3.62,6.12.94,3.69.78,7.6-.25,11.25Z"></path>
        <path class="cls-5" d="M245.82,167.02c-.44-.3-.91-.56-1.41-.78.2-.39.36-.82.42-1.28.62-4.84.56-9.75-.69-14.49-1.08-4.1-3.04-7.89-5.37-11.42,1.04-3.04,1.47-6.21,1.32-9.37,1.94-.37,3.42-2.81,1.56-4.53-3.43-3.17-7-6.2-10.56-9.23.05.04.1.08.16.11,2.15,1.48,4.4-.92,3.96-3.05,4.93,3.21,9.86,6.42,14.79,9.64-.06.25-.14.48-.13.77.51,14.67-.84,29.3-4.04,43.62Z"></path>
        <path class="cls-3" d="M101.12,114.45c1-2.12,2.08-4.21,3.25-6.24.53-.92,1.06-1.85,1.64-2.74.31-.48.74-1.29,1.3-1.51,1.01-.4,1.79-1.21,1.96-2.22,2.1-1.37.63-5.43-2.42-4.88-2.85.52-5.71.83-8.58.94,4.44-4.43,7.29-10.47,10.17-16.2,4.31-8.59,10.38-15.57,18.56-20.71,16.21-10.21,37-13.08,55.75-10.46,2.98.42,4.82-3.16,2.1-4.99-.87-.59-1.78-1.1-2.68-1.64,5.46,2.07,10.42,5.49,14.32,9.99.14.16.3.23.45.35.53,1.02,1.59,1.78,3.02,1.49,14.09-2.89,29.21,1.2,40.11,10.44-1.23.67-1.92,2.35-1.21,3.84,4.37,9.17,8.67,18.29,12.63,27.64,2.34,5.52,5.74,10.37,9.92,14.52-3.36-.15-6.68-.69-9.99-1.74-2.43-.77-4.07,2-3.08,4.01.17.35.34.69.51,1.04-4.45-2.9-8.89-5.79-13.34-8.69-1.16-.75-2.27-.47-3.03.24-2.51-6.17-4-12.73-4.35-19.41-.18-3.5-5.65-3.52-5.46,0,.32,6.22,1.52,12.33,3.54,18.17-7.05-5.31-13.8-11-20.22-17.07-2.56-2.41-6.43,1.44-3.86,3.86,2.95,2.78,5.99,5.47,9.08,8.1-5.36-.21-10.69-.83-15.97-1.96-.68-.15-1.26,0-1.76.24-.25-.18-.51-.36-.86-.46-10.32-3.08-20.15-7.37-29.43-12.82-1.93-1.14-4.85.78-4.01,3.08.73,2.01,1.67,3.89,2.79,5.65-7.77-1.18-15.6-3.6-20.5-9.99-1.68-2.19-4.79-1.43-5.09,1.38-.59,5.57.24,11.84,3.48,16.23-6.14.73-11.98,3.02-17.05,6.6-.02-.01-.03-.04-.06-.05-1.14-.67-3.16-.39-3.74.98-1.28,3.03-2.75,5.98-4.34,8.86.17-1.03.22-2.06-.38-3.01-1.4-2.23-4.23-1.73-5.97-.27-1.3,1.09-2.31,2.22-3.73,3.12-1.49.94-2.9,1.58-4.55,2.07-.43.13-.79.38-1.11.68-.2.11-.41.21-.61.33.06-.17.11-.34.18-.51.78-2.13,1.66-4.22,2.62-6.27Z"></path>
        <path class="cls-5" d="M110.28,151.5c-.98,2.84-1.28,5.77-1.22,8.71-.13.4-.19.83-.12,1.31.13.9.3,1.8.44,2.7.07.48.1.97.18,1.45.02.09.07.14.09.22.01.06.02.13.03.19-.23.09-.44.21-.66.32-3.05-13.91-4.36-28.1-3.92-42.34.92-.44,1.83-.92,2.68-1.49.21-.14.4-.32.61-.47-.23,1.06-.46,2.16-.37,3.22.13,1.54.7,3.07,2.09,3.9,1.59.94,3.61.41,4.8-.91.48-.53.89-1.13,1.28-1.75.02.2.11.38.17.56-.06.12-.14.19-.19.33-1.52,4.51-1.21,9.13.55,13.43-2.72,3.17-5.07,6.63-6.45,10.61Z"></path>
        <path class="cls-7" d="M113.46,125.16s0,0,0,0c.01.17.01.16,0,0Z"></path>
        <path class="cls-7" d="M110.85,124.68s.02,0,.03-.01c-.09.14-.12.17-.03.01Z"></path>
        <path class="cls-7" d="M107.88,188.84c-1-3.54-1.18-7.33-.33-10.93.5-2.11,1.34-4.62,3.06-6.02,1.68,9.99,3.7,19.93,6.06,29.78-4.11-3.32-7.33-7.68-8.79-12.84Z"></path>
        <path class="cls-7" d="M126.84,218.98c-5.28-18.36-9.29-37.06-12.15-55.95-.43-3.4-.27-6.8.86-10.07,1.27-3.68,3.72-6.85,6.32-9.69.86-.94,1.01-2.19.43-3.31-1.84-3.54-2.12-7.26-.85-11.04.21-.63.14-1.16-.03-1.63.04-.09.1-.16.14-.25,1.45-3.98,3.66-7.71,6.49-10.86,1.4-1.56,3.39-3.67,2.08-5.77,4.65-2.31,9.85-3.45,15.06-3.29.58.02,1.03-.15,1.42-.39.26.08.5.18.77.25,3.41.87,4.86-4.39,1.45-5.27-4.67-1.2-6.47-5.21-6.99-9.52,7.43,5.77,17.14,7.48,26.65,8.37,2.35.22,3.62-3.15,1.93-4.66-.22-.2-.41-.42-.63-.63,6.88,3.37,14.02,6.21,21.38,8.4.7.21,1.29.1,1.8-.14.24.14.49.29.82.36,6.3,1.35,12.7,2.09,19.13,2.22-.2,1.26.6,2.43,1.84,2.88-.06,0-.1,0-.15,0,.05.04.29.38.56.6.91.73,1.8,1.48,2.7,2.24,2.61,2.19,5.19,4.4,7.77,6.61,2.8,2.41,5.62,4.81,8.4,7.25.01.08,0,.15.01.24.91,3.58.87,7.24-.22,10.79-.26.86-.81,1.78-.81,2.7,0,.96.58,1.66,1.08,2.42.94,1.41,1.82,2.87,2.59,4.39,2.01,3.95,2.88,8.1,3,12.36-.42.32-.75.78-.85,1.49-2.57,17.73-6.17,35.3-10.87,52.59-1.1,4.05-2.13,8.17-3.52,12.13-1.55,4.41-4.15,7.64-7.73,10.59-5.37,4.43-11.07,8.66-16.82,12.57-5.99,4.06-12.5,7.9-19.71,9.24-7.56,1.41-14.88-1.42-21.31-5.22-6.34-3.75-12.01-8.49-17.84-12.97-3.05-2.34-6.27-4.56-8.79-7.5-3.04-3.54-4.15-8.15-5.41-12.53Z"></path>
        <path class="cls-7" d="M130.91,281.47c2.53-.52,4.98-1.21,7.32-2.26,1.55.29,3.25-.52,3.07-2.52-.96-10.55-.42-21.33-1.77-31.86,4.48,3.52,9.01,7.01,13.76,10.11,6.34,4.13,13.6,7.67,21.27,8.1,7.65.42,15.16-2.65,21.69-6.35,6.11-3.46,11.69-7.75,17.26-12-.44,11.51-1.42,23.04-1.19,34.56.06,3,4.05,3.42,5.16,1.28,3.73,1.41,7.61,2.36,11.43,3.5-9.45,19.28-21.61,37.16-36.28,52.87-3.95,4.23-8.03,8.45-12.4,12.25-2.8,2.44-5.08,2.61-8.22.47-2.75-1.88-5.23-4.3-7.66-6.57-8.91-8.28-16.88-17.57-23.65-27.67-3.96-5.92-7.33-12.13-10.65-18.42-2.31-4.38-6.41-8.48-6.94-13.53,2.54-.9,5.17-1.41,7.8-1.95Z"></path>
        <path class="cls-6" d="M78.92,421.47c.96-13.32,1.92-26.64,2.87-39.97.25-3.49,5.71-3.51,5.46,0-.96,13.32-1.92,26.64-2.87,39.97h188.14c-.96-13.32-1.92-26.64-2.87-39.97-.25-3.51,5.21-3.49,5.46,0,.96,13.32,1.92,26.64,2.87,39.97h62.87c-1.23-12.59-1.43-25.25-2.14-37.88-.71-12.66-2-25.35-5.45-37.6-3.23-11.44-8.45-25.82-18.77-32.73-5.51-3.69-12.04-5.69-18.24-7.88-6.91-2.44-13.82-4.88-20.73-7.32-13.48-4.76-26.96-9.52-40.45-14.29-5.99,12.71-13.12,24.86-21.41,36.21-7.72,10.55-16.32,20.45-25.77,29.5-4,3.83-8.34,8.65-14.45,6.92-5.68-1.6-10.6-7.21-14.72-11.15-9.73-9.32-18.33-19.89-25.45-31.32-3.54-5.69-6.25-11.89-9.88-17.51-2.5-3.86-5.17-7.66-5.72-12.2-14.79,5.22-29.58,10.45-44.37,15.67-6.96,2.46-13.95,4.87-20.89,7.39-6.02,2.19-12.22,4.63-16.83,9.22-8.69,8.66-13.22,22.34-16.01,33.99-5.58,23.25-4.1,47.34-6.4,70.99h65.76Z"></path>
        <path class="cls-7" d="M137.23,153.63c6.23-3.49,14.07-3.89,20.74-1.51,1.39.49,2.99-.56,3.36-1.91.42-1.51-.51-2.86-1.91-3.36-8.02-2.85-17.52-2.09-24.95,2.06-3.07,1.72-.32,6.44,2.76,4.72Z"></path>
        <path class="cls-7" d="M195.77,152.12c6.67-2.38,14.51-1.98,20.74,1.51,3.07,1.72,5.83-3,2.76-4.72-7.43-4.15-16.94-4.92-24.95-2.06-1.39.49-2.32,1.86-1.91,3.36.37,1.34,1.96,2.4,3.36,1.91Z"></path>
        <path class="cls-7" d="M150.39,160.47c-.29-.31-.64-.58-1.02-.76-.76-.35-1.6-.58-2.44-.31-.87.28-1.61.93-1.95,1.79-.36.33-.68.73-.85,1.24-.5,1.53-.52,3.21-.17,4.78.45,2.04,1.75,4.18,4.07,4.27.86.03,1.72-.37,2.33-.95.52-.48.76-1.1,1.02-1.74.3-.76.43-1.57.52-2.38.07-.59.07-1.18,0-1.77-.1-.84-.22-1.65-.53-2.44-.26-.67-.49-1.21-.99-1.74Z"></path>
        <path class="cls-7" d="M149.79,163.63c.09-.15.18-.29.23-.46-.05.12-.1.24-.15.36-.03.03-.05.07-.08.1Z"></path>
        <path class="cls-7" d="M207.57,160.47c-.29-.31-.64-.58-1.02-.76-.76-.35-1.6-.58-2.44-.31-.87.28-1.61.93-1.95,1.79-.36.33-.68.73-.85,1.24-.5,1.53-.52,3.21-.17,4.78.45,2.04,1.75,4.18,4.07,4.27.86.03,1.72-.37,2.33-.95.52-.48.76-1.1,1.02-1.74.3-.76.43-1.57.52-2.38.07-.59.07-1.18,0-1.77-.1-.84-.22-1.65-.53-2.44-.26-.67-.49-1.21-.99-1.74Z"></path>
        <path class="cls-7" d="M206.98,163.63c.09-.15.18-.3.23-.46-.05.12-.1.24-.15.36-.03.03-.05.07-.08.1Z"></path>
        <path class="cls-7" d="M157.3,217.41c-.69,1.15-.37,3.15.98,3.74,7.02,3.05,14.06,5.39,21.81,5.15,6.7-.21,13.02-1.61,18.45-5.72,1.18-.9,1.77-2.35.98-3.74-.66-1.16-2.56-1.87-3.74-.98-4.71,3.57-9.87,4.79-15.69,4.97-6.75.22-12.92-1.74-19.05-4.4-1.36-.59-2.92-.39-3.74.98Z"></path>
        <path class="cls-7" d="M185.03,231.2c-1.13.34-2.27.62-3.44.81-.15.02-.29.05-.44.07-.04,0-.07,0-.18.02-.27.03-.54.06-.81.08-.59.05-1.17.08-1.76.09-1.18.02-2.35-.07-3.53-.18-.03,0-.02,0-.04,0-.15-.02-.3-.04-.45-.07-.27-.04-.53-.09-.8-.15-.62-.12-1.24-.27-1.85-.44-1.38-.37-3.03.46-3.36,1.91-.33,1.44.43,2.96,1.91,3.36,5.29,1.43,10.95,1.36,16.2-.23,1.37-.41,2.37-1.93,1.91-3.36-.45-1.38-1.9-2.35-3.36-1.91Z"></path>
        <path class="cls-4" d="M214.42,109s0,0,0,0c-.15.01-.12,0,0,0Z"></path>
        <path class="cls-4" d="M214.69,109.2c-.05-.11-.08-.17-.09-.21-.07,0-.13,0-.17,0,.05.02.26.19.27.2Z"></path>
        <path class="cls-4" d="M214.59,108.99s.02,0,.03,0c-.03-.03-.04-.04-.03,0Z"></path>
        <path class="cls-4" d="M178.34,195.04c-.16.11-.11.08,0,0h0Z"></path>
        <path class="cls-4" d="M177.48,198.69c.74,1.15,2.49,1.87,3.74.98,2.68-1.91,3.54-4.96,3.5-8.13-.04-3.32-.65-6.67-1.74-9.8-.47-1.35-1.89-2.38-3.36-1.91-1.33.43-2.41,1.91-1.91,3.36.45,1.3.82,2.62,1.08,3.96.07.36.14.72.19,1.08.02.13.04.25.06.38,0,.03.01.12.03.26.06.64.12,1.27.15,1.91.02.53.04,1.07.01,1.6-.01.27,0,.59-.07.85-.03.13-.07.28-.08.33-.05.2-.12.4-.17.6-.02.06-.03.1-.05.13-.03.05-.05.11-.08.16-.06.12-.13.23-.2.34-.02.03-.04.06-.06.08-.07.06-.15.13-.21.18.03-.02.07-.05.13-.09-1.16.83-1.83,2.42-.98,3.74ZM178.67,194.71s-.04.08-.09.13c.03-.04.06-.08.09-.13Z"></path>
        <path class="cls-4" d="M339.14,346.78c-3.09-11.85-8.03-25.31-16.85-34.15-4.43-4.44-10.11-7.12-15.89-9.37-6.92-2.7-14-5.03-21-7.5-16.85-5.95-33.69-11.9-50.54-17.85-.2-.07-.4-.12-.59-.14-1.08-.39-2.31-.12-2.94,1.25h0c-2.07-.63-4.17-1.17-6.26-1.73-1.28-.34-2.55-.7-3.81-1.11-1.3-.42-2.43-.86-3.41-1.31-.03-.01-.07-.03-.1-.04.06-11.47,1.12-22.95,1.39-34.42,0-.04,0-.07,0-.11,4.63-3.82,8.45-7.9,10.58-14.05,1.89-5.46,3.46-11.07,4.87-16.73.43,0,.88-.12,1.34-.39,7.71-4.49,13.93-11.87,15.71-20.76.93-4.66.8-9.61-.78-14.11-.32-.92-.72-1.85-1.2-2.74.52-.31.93-.83,1.11-1.61,3.35-14.44,4.91-29.25,4.61-44.07,1.99.25,3.56-2.23,2.62-4.16-.76-1.56-1.52-3.12-2.29-4.67,4.17.73,8.4.83,12.68.27,2.73-.36,3.66-3.4,1.38-5.09-7.2-5.34-11.42-12.35-14.8-20.5-2.5-6.04-5.32-11.94-8.16-17.83.5.14,1,.27,1.51.38,2.06.46,4.65-1.97,3.08-4.01-11.91-15.57-31.71-23.44-50.99-20.23-.02-.03-.04-.05-.06-.08-9.19-10.58-23.29-15.42-37.06-13.24-2.71.43-2.5,4.69,0,5.27,2.52.59,4.96,1.33,7.33,2.23-25.53-.18-53.18,8.9-65.63,32.17-4.02,7.51-7.27,18.15-16.07,21.33-2.94,1.07-2.38,5.09.73,5.36,3.83.34,7.63.34,11.42.03-.32.5-.63,1.03-.94,1.56-1.51,2.56-2.88,5.2-4.11,7.91-1.24,2.7-2.36,5.47-3.33,8.27-1.01,2.89-2.18,5.76-.07,8.44.94,1.2,2.88.9,3.86,0,.97-.89,2.01-1.68,3.09-2.4-.22,14.47,1.35,28.93,4.63,43.04.08.34.21.64.36.88-.66,1.11-1.2,2.29-1.61,3.47-1.59,4.5-1.72,9.46-.78,14.11,1.78,8.89,8.01,16.27,15.71,20.76.24.14.47.23.7.3.84,3.26,1.72,6.51,2.65,9.74,1.15,4.03,2.17,8.25,4.18,11.95,1.98,3.66,5.03,6.51,8.26,9.06-.16.44-.21.94-.1,1.5,1.07,5.68,1.17,11.59,1.42,17.35.22,5.12.32,10.26.69,15.37-1.93.81-4.26,1.39-6.47,1.84-2.61.53-5.23,1.04-7.74,1.96-.57-.46-1.36-.64-2.3-.31-14.9,5.26-29.8,10.53-44.71,15.79-7.26,2.56-14.53,5.11-21.78,7.7-6.16,2.19-12.51,4.48-17.76,8.48-9.87,7.53-15.25,20.91-18.77,32.43-3.8,12.43-5.31,25.46-6.13,38.39-.86,13.59-.96,27.22-2.29,40.77h5.46c2.3-23.65.82-47.74,6.4-70.99,2.79-11.65,7.32-25.33,16.01-33.99,4.62-4.6,10.82-7.04,16.83-9.23,6.94-2.52,13.92-4.93,20.89-7.39,14.78-5.22,29.57-10.44,44.35-15.67.55,4.54,3.24,8.33,5.74,12.19,3.63,5.61,6.34,11.82,9.88,17.51,7.12,11.43,15.72,22,25.45,31.32,4.12,3.95,9.05,9.55,14.72,11.15,6.12,1.73,10.45-3.09,14.45-6.92,9.45-9.04,18.05-18.94,25.77-29.49,8.3-11.35,15.46-23.48,21.45-36.19,13.47,4.76,26.94,9.52,40.41,14.27,6.91,2.44,13.82,4.88,20.73,7.32,6.2,2.19,12.72,4.19,18.24,7.88,10.32,6.91,15.55,21.29,18.78,32.73,3.45,12.25,4.74,24.93,5.45,37.6.71,12.63.89,25.29,2.12,37.88h5.46c-2.44-24.9-.79-50.29-7.15-74.69ZM245.92,188.84c-1.55,5.5-5.1,10.09-9.6,13.48.56-2.43,1.11-4.87,1.65-7.29,1.75-7.82,3.27-15.69,4.59-23.59,2.06,1.19,3.03,3.88,3.61,6.14.94,3.69.78,7.6-.25,11.25ZM245.83,167c-.44-.3-.9-.56-1.38-.77.2-.39.32-.82.38-1.27.62-4.84.56-9.75-.69-14.49-1.08-4.1-3.02-7.9-5.35-11.43,1.03-3.03,1.46-6.18,1.31-9.33,1.93-.37,3.41-2.85,1.55-4.56-3.43-3.16-6.99-6.19-10.55-9.21.05.03.09.07.14.1,2.14,1.48,4.41-.9,3.99-3.03,4.9,3.2,9.81,6.39,14.71,9.59-.06.24-.09.51-.08.8.51,14.67-.83,29.29-4.02,43.61ZM101.12,114.45c1-2.12,2.08-4.21,3.25-6.24.53-.92,1.06-1.85,1.64-2.74.31-.48.74-1.29,1.29-1.51,1.01-.4,1.79-1.2,1.97-2.2,2.12-1.36.63-5.45-2.43-4.9-2.83.51-5.66.82-8.5.94,4.42-4.43,7.22-10.48,10.09-16.2,4.31-8.59,10.38-15.57,18.56-20.71,16.21-10.21,37-13.08,55.75-10.47,2.98.42,4.82-3.16,2.1-4.99-.77-.52-1.55-1.02-2.34-1.5,5.33,2.08,10.16,5.45,13.99,9.86.15.17.3.31.45.43.54.99,1.62,1.69,3.02,1.41,14.09-2.89,29.21,1.19,40.11,10.43-1.23.67-1.92,2.35-1.21,3.85,4.37,9.17,8.67,18.29,12.63,27.64,2.35,5.54,5.75,10.41,9.95,14.58-3.37-.15-6.7-.74-10.02-1.79-2.43-.77-4.07,2-3.08,4.01.17.35.34.69.51,1.04-4.45-2.9-8.89-5.79-13.34-8.69-1.16-.75-2.28-.49-3.04.23-2.51-6.17-3.99-12.73-4.34-19.4-.18-3.5-5.65-3.52-5.46,0,.32,6.22,1.52,12.33,3.53,18.17-7.04-5.31-13.79-11.01-20.21-17.07-2.56-2.41-6.43,1.44-3.86,3.86,2.95,2.79,5.98,5.49,9.07,8.13-5.36-.21-10.69-.86-15.97-1.99-.67-.14-1.27-.05-1.77.19-.24-.17-.52-.31-.85-.41-10.32-3.08-20.15-7.37-29.44-12.82-1.93-1.14-4.85.78-4.01,3.08.73,2.01,1.65,3.9,2.77,5.66-7.76-1.19-15.59-3.61-20.48-10-1.68-2.19-4.79-1.43-5.09,1.38-.58,5.55.22,11.82,3.45,16.21-6.12.73-11.96,3.03-17.02,6.61-.02-.01-.03-.02-.05-.03-1.14-.67-3.16-.39-3.74.98-1.3,3.07-2.75,6.07-4.36,8.98.18-1.07.26-2.14-.36-3.13-1.4-2.23-4.23-1.73-5.97-.27-1.3,1.09-2.31,2.22-3.73,3.12-1.16.74-2.28,1.28-3.5,1.72-.07.02-.14.05-.21.07-.28.1-.55.19-.84.27-.46.14-.86.39-1.18.71-.18.1-.36.2-.54.3.06-.17.12-.34.18-.51.78-2.13,1.66-4.22,2.62-6.27ZM110.28,151.5c-.99,2.87-1.34,5.83-1.27,8.8-.1.37-.14.78-.07,1.23.12.81.24,1.62.36,2.43.07.57.16,1.15.26,1.72,0,.02,0,.03.01.05.02.12.04.25.06.37-.22.09-.43.18-.64.28-3.05-13.89-4.34-28.06-3.91-42.28.93-.44,1.83-.95,2.69-1.52.2-.13.4-.27.6-.41-.23,1.05-.45,2.12-.36,3.16.13,1.54.7,3.07,2.09,3.9,1.59.94,3.61.41,4.8-.91.47-.52.89-1.11,1.27-1.72.02.18.07.36.13.53-.05.1-.09.21-.13.33-1.51,4.5-1.21,9.11.54,13.39-2.72,3.18-5.06,6.65-6.44,10.64ZM113.46,125.17s0,0,0,0c.01.22.01.22,0,0ZM110.85,124.68s.02-.01.04-.02c-.12.19-.13.19-.04.02ZM107.88,188.84c-1-3.54-1.18-7.33-.33-10.93.5-2.09,1.32-4.59,3.01-5.99,1.68,9.97,3.7,19.89,6.05,29.72-4.09-3.32-7.29-7.66-8.74-12.81ZM132.25,231.51c-3.04-3.54-4.15-8.15-5.41-12.53-5.27-18.31-9.3-36.95-12.16-55.78-.46-3.45-.28-6.92.88-10.24,1.27-3.68,3.72-6.85,6.32-9.69.86-.94,1.01-2.19.43-3.31-1.84-3.54-2.12-7.26-.85-11.04.21-.63.2-1.19.02-1.67.03-.07.06-.14.09-.21,1.45-3.98,3.66-7.71,6.49-10.86,1.41-1.57,3.45-3.69,2.1-5.81,4.64-2.3,9.85-3.42,15.04-3.25.58.02,1.06-.12,1.45-.36.24.08.48.15.73.21,3.41.87,4.86-4.39,1.45-5.27-4.67-1.2-6.5-5.22-7.02-9.53,7.43,5.79,17.16,7.49,26.68,8.38,2.35.22,3.62-3.15,1.93-4.66-.2-.18-.39-.37-.59-.55,6.87,3.35,14,6.14,21.34,8.33.69.21,1.3.15,1.8-.08.23.13.51.24.82.31,6.3,1.34,12.69,2.1,19.11,2.23-.19,1.24.6,2.4,1.8,2.87-.03,0-.05,0-.07,0,.08.09.31.41.55.6.91.73,1.8,1.48,2.7,2.24,2.6,2.19,5.19,4.4,7.77,6.61,2.78,2.39,5.59,4.75,8.35,7.17.02.11.04.21.06.32.91,3.58.87,7.24-.22,10.79-.26.86-.81,1.78-.81,2.7,0,.96.58,1.66,1.08,2.42.94,1.41,1.82,2.87,2.59,4.39,2,3.92,2.88,8.05,3.01,12.29-.44.32-.76.83-.87,1.57-2.57,17.73-6.17,35.3-10.87,52.59-1.1,4.05-2.13,8.17-3.52,12.13-1.55,4.41-4.15,7.64-7.73,10.59-5.37,4.43-11.07,8.66-16.82,12.57-5.99,4.06-12.51,7.9-19.71,9.24-7.56,1.41-14.88-1.42-21.31-5.22-6.34-3.75-12.01-8.49-17.84-12.96-3.05-2.34-6.27-4.56-8.79-7.5ZM192.64,336.89c-3.95,4.23-8.03,8.45-12.4,12.25-2.8,2.44-5.08,2.61-8.22.47-2.75-1.88-5.23-4.3-7.66-6.57-8.91-8.28-16.88-17.57-23.65-27.67-3.96-5.92-7.33-12.13-10.65-18.42-2.31-4.38-6.45-8.47-6.98-13.53,2.55-.91,5.19-1.41,7.83-1.95,2.52-.52,4.96-1.19,7.3-2.23,1.56.3,3.28-.55,3.09-2.56-.96-10.55-.42-21.33-1.77-31.86,4.48,3.52,9.01,7,13.76,10.1,6.34,4.13,13.6,7.68,21.27,8.1,7.65.42,15.16-2.65,21.69-6.35,6.13-3.47,11.71-7.77,17.3-12.03-.44,11.52-1.45,23.05-1.22,34.58.06,2.99,4.02,3.44,5.16,1.34,3.74,1.41,7.64,2.29,11.47,3.43-9.45,19.29-21.64,37.17-36.32,52.89Z"></path>
        <path class="cls-4" d="M157.97,152.12c1.39.49,2.99-.56,3.36-1.91.42-1.51-.51-2.86-1.91-3.36-8.02-2.85-17.52-2.09-24.95,2.06-3.07,1.72-.32,6.44,2.76,4.72,6.23-3.49,14.07-3.89,20.74-1.51Z"></path>
        <path class="cls-4" d="M195.77,152.12c6.67-2.38,14.51-1.98,20.74,1.51,3.07,1.72,5.83-3,2.76-4.72-7.43-4.15-16.94-4.92-24.95-2.06-1.39.49-2.32,1.86-1.91,3.36.37,1.34,1.96,2.4,3.36,1.91Z"></path>
        <path class="cls-4" d="M151.38,162.22c-.26-.67-.49-1.21-.99-1.74-.29-.31-.64-.58-1.02-.76-.76-.35-1.6-.58-2.44-.31-.85.27-1.61.9-1.95,1.73-.37.33-.67.77-.84,1.3-.5,1.53-.52,3.21-.17,4.78.45,2.04,1.75,4.18,4.07,4.27.86.03,1.72-.37,2.33-.95.52-.48.76-1.1,1.02-1.74.3-.76.43-1.57.52-2.38.07-.59.07-1.18,0-1.77-.1-.84-.22-1.65-.53-2.44Z"></path>
        <path class="cls-4" d="M208.56,162.22c-.26-.67-.49-1.21-.99-1.74-.29-.31-.64-.58-1.02-.76-.76-.35-1.6-.58-2.44-.31-.85.27-1.61.9-1.95,1.73-.37.33-.67.77-.84,1.3-.5,1.53-.52,3.21-.17,4.78.45,2.04,1.75,4.18,4.07,4.27.86.03,1.72-.37,2.33-.95.52-.48.76-1.1,1.02-1.74.3-.76.43-1.57.52-2.38.07-.59.07-1.18,0-1.77-.1-.84-.22-1.65-.53-2.44Z"></path>
        <path class="cls-4" d="M157.3,217.41c-.69,1.15-.37,3.15.98,3.74,7.02,3.05,14.06,5.39,21.81,5.15,6.7-.21,13.02-1.61,18.45-5.72,1.18-.9,1.77-2.35.98-3.74-.66-1.16-2.56-1.87-3.74-.98-4.71,3.57-9.87,4.79-15.69,4.97-6.75.22-12.92-1.74-19.05-4.4-1.36-.59-2.92-.39-3.74.98Z"></path>
        <path class="cls-4" d="M185.03,231.2c-1.13.34-2.27.62-3.44.81-.14.02-.28.04-.42.07-.05,0-.11.01-.2.02-.27.03-.54.06-.81.08-.59.05-1.18.08-1.76.09-1.18.02-2.35-.07-3.52-.18-.02,0-.03,0-.04,0-.15-.02-.3-.04-.44-.07-.27-.04-.54-.09-.8-.15-.62-.12-1.24-.27-1.85-.44-1.38-.37-3.03.46-3.36,1.91-.33,1.44.43,2.96,1.91,3.36,5.29,1.43,10.95,1.36,16.2-.23,1.37-.41,2.37-1.93,1.91-3.36-.45-1.38-1.9-2.35-3.36-1.91Z"></path>
      </g>
    </g>
  </g>
</svg>
