<?xml version="1.0" encoding="UTF-8"?>
<svg id="_レイヤー_2" data-name="レイヤー 2" xmlns="http://www.w3.org/2000/svg" viewBox="0 0 118 134.59">
  <defs>
    <style>
      .cls-1 {
        fill: none;
        stroke: #6da0bf;
        stroke-miterlimit: 10;
        stroke-width: 4px;
      }

      .cls-2 {
        fill: #76afd9;
      }

      .cls-2, .cls-3, .cls-4, .cls-5 {
        stroke-width: 0px;
      }

      .cls-3 {
        fill: #dd6b1f;
      }

      .cls-4 {
        fill: #fff;
      }

      .cls-5 {
        fill: #f27c27;
      }
    </style>
  </defs>
  <g id="_レイヤー_1-2" data-name="レイヤー 1">
    <g>
      <g>
        <polygon class="cls-5" points="29.6 65.66 29.6 134.59 60.1 129.1 60.1 65.66 29.6 65.66"/>
        <polygon class="cls-3" points="60.1 65.66 60.1 129.1 60.1 129.1 90.6 134.59 90.6 65.66 60.1 65.66"/>
      </g>
      <polygon class="cls-2" points="118 56.13 109.42 72.51 106.73 90.81 90.15 99.01 77.24 112.25 59 109.13 40.76 112.25 27.85 99.01 11.27 90.81 8.58 72.51 0 56.13 8.58 39.74 11.27 21.44 27.85 13.24 40.76 0 59 3.13 77.24 0 90.15 13.24 106.73 21.44 109.42 39.74 118 56.13"/>
      <polygon class="cls-1" points="109.93 56.13 101.75 70.02 100.21 86.08 85.42 92.51 74.75 104.62 59 101.1 43.25 104.62 32.58 92.51 17.79 86.08 16.25 70.02 8.07 56.13 16.25 42.23 17.79 26.17 32.58 19.74 43.25 7.64 59 11.15 74.75 7.64 85.42 19.74 100.21 26.17 101.75 42.23 109.93 56.13"/>
      <path class="cls-4" d="M73,84.51h-16.25v-12.23h-21.91v-12.73l18.2-35.35h19.96v35.12h5.16v12.97h-5.16v12.23ZM57.49,59.31v-11.29c0-.52.03-1.35.1-2.5.06-1.15.16-2.62.29-4.41l-2.42,5.16c-1.2,2.53-2.4,4.88-3.59,7.05-1.2,2.17-2.4,4.17-3.59,6h9.22Z"/>
    </g>
  </g>
</svg>