<?xml version="1.0" encoding="UTF-8"?>
<svg id="_レイヤー_2" data-name="レイヤー 2" xmlns="http://www.w3.org/2000/svg" viewBox="0 0 118 134.59">
  <defs>
    <style>
      .cls-1 {
        fill: none;
        stroke: #6da0bf;
        stroke-miterlimit: 10;
        stroke-width: 4px;
      }

      .cls-2 {
        fill: #76afd9;
      }

      .cls-2, .cls-3, .cls-4, .cls-5 {
        stroke-width: 0px;
      }

      .cls-3 {
        fill: #dd6b1f;
      }

      .cls-4 {
        fill: #fff;
      }

      .cls-5 {
        fill: #f27c27;
      }
    </style>
  </defs>
  <g id="_レイヤー_1-2" data-name="レイヤー 1">
    <g>
      <g>
        <polygon class="cls-5" points="29.6 65.66 29.6 134.59 60.1 129.1 60.1 65.66 29.6 65.66"/>
        <polygon class="cls-3" points="60.1 65.66 60.1 129.1 60.1 129.1 90.6 134.59 90.6 65.66 60.1 65.66"/>
      </g>
      <polygon class="cls-2" points="118 56.13 109.42 72.51 106.73 90.81 90.15 99.01 77.24 112.25 59 109.13 40.76 112.25 27.85 99.01 11.27 90.81 8.58 72.51 0 56.13 8.58 39.74 11.27 21.44 27.85 13.24 40.76 0 59 3.13 77.24 0 90.15 13.24 106.73 21.44 109.42 39.74 118 56.13"/>
      <polygon class="cls-1" points="109.93 56.13 101.75 70.02 100.21 86.08 85.42 92.51 74.75 104.62 59 101.1 43.25 104.62 32.58 92.51 17.79 86.08 16.25 70.02 8.07 56.13 16.25 42.23 17.79 26.17 32.58 19.74 43.25 7.64 59 11.15 74.75 7.64 85.42 19.74 100.21 26.17 101.75 42.23 109.93 56.13"/>
      <path class="cls-4" d="M37.71,80.88l1.91-14.3c4.82,2.79,9.13,4.18,12.93,4.18,2.47,0,4.48-.62,6.02-1.88,1.56-1.25,2.34-2.88,2.34-4.88,0-2.13-.85-3.79-2.54-4.98-1.69-1.18-4.08-1.78-7.15-1.78-3.36,0-6.89.7-10.59,2.11l4.69-35.16h30v14.18h-17.19l-1.29,6.76c1.12-.08,2.03-.12,2.73-.12,4.95,0,9.13,1.8,12.54,5.39,3.38,3.54,5.08,7.97,5.08,13.28,0,6.25-2.19,11.46-6.56,15.62-4.32,4.17-9.78,6.25-16.37,6.25-5.62,0-11.15-1.56-16.56-4.69Z"/>
    </g>
  </g>
</svg>