<?xml version="1.0" encoding="UTF-8"?>
<svg id="_レイヤー_2" data-name="レイヤー 2" xmlns="http://www.w3.org/2000/svg" viewBox="0 0 105.84 80.95">
  <defs>
    <style>
      .cls-1 {
        fill: #76afd9;
      }

      .cls-1, .cls-2 {
        stroke-width: 0px;
      }

      .cls-2 {
        fill: #fff;
      }
    </style>
  </defs>
  <g id="_レイヤー_1-2" data-name="レイヤー 1">
    <g>
      <g>
        <polygon class="cls-1" points="100.97 12.34 76.06 31.23 52.49 12.34 28.13 29.46 4 12.34 13.72 80.95 91.25 80.95 100.97 12.34"/>
        <g>
          <path class="cls-1" d="M10.51,11.89c0,2.9-2.35,5.26-5.26,5.26S0,14.79,0,11.89s2.35-5.26,5.26-5.26,5.26,2.35,5.26,5.26Z"/>
          <path class="cls-1" d="M59.72,7.6c0,4.2-3.4,7.6-7.6,7.6s-7.6-3.4-7.6-7.6,3.4-7.6,7.6-7.6,7.6,3.4,7.6,7.6Z"/>
          <circle class="cls-1" cx="100.58" cy="11.89" r="5.26"/>
        </g>
      </g>
      <path class="cls-2" d="M60.46,70.3h-10.39v-7.82h-14.01v-8.14l11.64-22.6h12.76v22.45h3.3v8.29h-3.3v7.82ZM50.54,54.19v-7.22c0-.33.02-.87.06-1.6.04-.73.1-1.67.19-2.82l-1.55,3.3c-.77,1.62-1.53,3.12-2.3,4.51-.77,1.39-1.53,2.67-2.3,3.83h5.89Z"/>
    </g>
  </g>
</svg>