<svg width="40" height="32" viewBox="0 0 40 32" fill="none" xmlns="http://www.w3.org/2000/svg">
<g clip-path="url(#clip0_30_1003)">
<path d="M38.1595 5.53314L28.7453 12.6722L19.8375 5.53314L10.6311 12.0033L1.51172 5.53314L5.18519 31.4628H34.486L38.1595 5.53314Z" fill="#D6A700"/>
<path d="M3.97203 5.36309C3.97203 6.45908 3.0839 7.351 1.98413 7.351C0.884354 7.351 0 6.45908 0 5.36309C0 4.2671 0.888133 3.37518 1.98791 3.37518C3.08768 3.37518 3.97581 4.26332 3.97581 5.36309H3.97203Z" fill="#D6A700"/>
<path d="M22.5699 3.74177C22.5699 5.32907 21.2849 6.61403 19.6976 6.61403C18.1103 6.61403 16.8254 5.32907 16.8254 3.74177C16.8254 2.15447 18.1103 0.869507 19.6976 0.869507C21.2849 0.869507 22.5699 2.15447 22.5699 3.74177Z" fill="#D6A700"/>
<path d="M38.0121 7.351C39.11 7.351 40 6.46098 40 5.36309C40 4.2652 39.11 3.37518 38.0121 3.37518C36.9142 3.37518 36.0242 4.2652 36.0242 5.36309C36.0242 6.46098 36.9142 7.351 38.0121 7.351Z" fill="#D6A700"/>
<path d="M14.384 23.1484H18.1406C18.1406 24.0025 18.4543 24.4296 19.0816 24.4296C19.3953 24.4296 19.6523 24.3086 19.8488 24.0668C20.0453 23.8249 20.1436 23.5074 20.1436 23.1106C20.1436 22.1091 19.6221 21.6064 18.5752 21.6064C18.4996 21.6064 18.4089 21.6102 18.2993 21.6216C18.1897 21.6329 18.0612 21.6405 17.9214 21.6556V18.6208C18.0272 18.6284 18.1179 18.6321 18.1935 18.6359C18.2691 18.6359 18.3333 18.6397 18.3825 18.6397C19.4331 18.6397 19.9584 18.156 19.9584 17.1922C19.9584 16.4061 19.6863 16.0131 19.1383 16.0131C18.7075 16.0131 18.4618 16.3306 18.4014 16.9617L18.3825 17.1544H14.6636C14.7695 15.8241 15.2343 14.7773 16.0582 14.0063C16.8745 13.224 17.9478 12.8347 19.2782 12.8347C20.6085 12.8347 21.5986 13.2353 22.4339 14.0328C23.288 14.8264 23.715 15.809 23.715 16.9768C23.715 18.2882 23.1406 19.286 21.9879 19.9738C23.2615 20.707 23.8964 21.8068 23.8964 23.2769C23.8964 24.5505 23.4429 25.586 22.5397 26.3872C21.6478 27.1885 20.4875 27.5853 19.0627 27.5853C17.6379 27.5853 16.5419 27.196 15.684 26.4137C14.8186 25.6314 14.384 24.6148 14.384 23.36V23.1484Z" fill="white"/>
</g>
<defs>
<clipPath id="clip0_30_1003">
<rect width="40" height="30.5933" fill="white" transform="translate(0 0.869507)"/>
</clipPath>
</defs>
</svg>
