<?xml version="1.0" encoding="UTF-8"?>
<svg id="_レイヤー_2" data-name="レイヤー 2" xmlns="http://www.w3.org/2000/svg" viewBox="0 0 118 134.59">
  <defs>
    <style>
      .cls-1 {
        fill: none;
        stroke: #6da0bf;
        stroke-miterlimit: 10;
        stroke-width: 4px;
      }

      .cls-2 {
        fill: #76afd9;
      }

      .cls-2, .cls-3, .cls-4, .cls-5 {
        stroke-width: 0px;
      }

      .cls-3 {
        fill: #dd6b1f;
      }

      .cls-4 {
        fill: #fff;
      }

      .cls-5 {
        fill: #f27c27;
      }
    </style>
  </defs>
  <g id="_レイヤー_1-2" data-name="レイヤー 1">
    <g>
      <g>
        <polygon class="cls-5" points="29.6 65.66 29.6 134.59 60.1 129.1 60.1 65.66 29.6 65.66"/>
        <polygon class="cls-3" points="60.1 65.66 60.1 129.1 60.1 129.1 90.6 134.59 90.6 65.66 60.1 65.66"/>
      </g>
      <polygon class="cls-2" points="118 56.13 109.42 72.51 106.73 90.81 90.15 99.01 77.24 112.25 59 109.13 40.76 112.25 27.85 99.01 11.27 90.81 8.58 72.51 0 56.13 8.58 39.74 11.27 21.44 27.85 13.24 40.76 0 59 3.13 77.24 0 90.15 13.24 106.73 21.44 109.42 39.74 118 56.13"/>
      <polygon class="cls-1" points="109.93 56.13 101.75 70.02 100.21 86.08 85.42 92.51 74.75 104.62 59 101.1 43.25 104.62 32.58 92.51 17.79 86.08 16.25 70.02 8.07 56.13 16.25 42.23 17.79 26.17 32.58 19.74 43.25 7.64 59 11.15 74.75 7.64 85.42 19.74 100.21 26.17 101.75 42.23 109.93 56.13"/>
      <path class="cls-4" d="M68.98,24.2l-9.65,17.15c-.37.65-.79,1.37-1.29,2.17-.5.79-1.05,1.66-1.68,2.6,2.16-1.15,4.08-1.72,5.74-1.72,4.14,0,7.64,1.88,10.51,5.62,2.89,3.72,4.34,8.28,4.34,13.67,0,6.43-1.94,11.71-5.82,15.82-3.88,4.04-8.93,6.05-15.16,6.05s-10.68-1.99-14.3-5.98c-3.62-4.01-5.43-9.28-5.43-15.82,0-7,3.24-16.68,9.73-29.02l5.51-10.55h17.5ZM61.28,64.12c0-5.31-1.55-7.97-4.65-7.97s-4.45,2.68-4.45,8.05,1.48,8.36,4.45,8.36,4.65-2.81,4.65-8.44Z"/>
    </g>
  </g>
</svg>