<?xml version="1.0" encoding="UTF-8"?>
<svg xmlns="http://www.w3.org/2000/svg" xmlns:xlink="http://www.w3.org/1999/xlink" id="_レイヤー_2" data-name="レイヤー 2" viewBox="0 0 354 354">
  <defs>
    <style>
      .cls-1 {
        clip-path: url(#clippath);
      }

      .cls-2 {
        fill: none;
      }

      .cls-2, .cls-3, .cls-4, .cls-5, .cls-6, .cls-7 {
        stroke-width: 0px;
      }

      .cls-3 {
        fill: #5e514f;
      }

      .cls-4 {
        fill: #5b5959;
      }

      .cls-5 {
        fill: #83b9d4;
      }

      .cls-6 {
        fill: #fde2a6;
      }

      .cls-7 {
        fill: #fff;
      }
    </style>
    <clipPath id="clippath">
      <circle class="cls-2" cx="177" cy="177" r="177"></circle>
    </clipPath>
  </defs>
  <g id="_レイヤー_1-2" data-name="レイヤー 1">
    <g class="cls-1">
      <g>
        <g>
          <path class="cls-4" d="M127.38,384.45c-1.78-1.88-3.56-3.76-5.34-5.64-.72-.76-2.55-2.07-2.87-3.07-.42-1.3.77-3.01,1.27-4.14,2.14-4.79,4.27-9.57,6.41-14.36.98.23,1.96.47,2.95.7,3.64.86,5.2-4.75,1.55-5.62-5.69-1.35-11.37-2.69-17.06-4.04-2.99-.71-5.99-1.42-8.98-2.13-.86-.2-2.3-.83-3.36-.94.25-.57.36-1.36.53-1.89,3.53-11.37,7.06-22.73,10.6-34.1,1.11-3.59-4.51-5.12-5.62-1.55-2.02,6.49-4.04,12.99-6.05,19.48-.96,3.1-1.93,6.2-2.89,9.3-.93,2.98-2.59,6.42-2.84,9.53-.24,3.03,1.9,4.29,4.5,4.93,3.29.81,6.58,1.56,9.88,2.34,3.69.87,7.38,1.75,11.06,2.62-2.28,5.07-4.58,10.12-6.78,15.22-.95,2.21-1.6,4.56-.55,6.86,1.15,2.52,3.79,4.59,5.67,6.58,8.89,9.4,17.79,18.8,26.68,28.21,2.58,2.73,6.69-1.4,4.12-4.12-7.62-8.06-15.25-16.12-22.87-24.18Z"></path>
          <path class="cls-4" d="M106.05,230.52c-.33-1.54-2.13-2.43-3.58-2.03-1.59.44-2.36,2.04-2.03,3.58,1.6,7.5,4.33,14.75,8,21.47.75,1.38,2.65,1.82,3.98,1.04,1.39-.81,1.8-2.6,1.04-3.98-3.45-6.31-5.92-13.05-7.42-20.08Z"></path>
          <path class="cls-4" d="M237.61,255.88c-2.79,2.51,1.34,6.62,4.12,4.12,11.55-10.39,18.32-24.61,24.73-38.48.66-1.44.4-3.12-1.04-3.98-1.25-.75-3.33-.38-3.98,1.04-6.2,13.42-12.64,27.25-23.82,37.3Z"></path>
          <path class="cls-4" d="M252.6,327.16c-2.02-6.49-4.04-12.99-6.05-19.48-1.11-3.57-6.73-2.05-5.62,1.55,3.53,11.37,7.06,22.73,10.6,34.1.18.59.37,1.18.55,1.77.02.06.03.11.05.17-1.23.29-3.14.82-3.44.89-2.84.67-5.69,1.35-8.53,2.02-5.84,1.38-11.67,2.76-17.51,4.15-3.65.86-2.1,6.48,1.55,5.62.98-.23,1.96-.47,2.95-.7,2.14,4.79,4.27,9.57,6.41,14.36.5,1.13,1.68,2.84,1.27,4.14-.32,1-2.15,2.31-2.87,3.07-1.78,1.88-3.56,3.76-5.34,5.64-7.62,8.06-15.25,16.12-22.87,24.18-2.58,2.72,1.54,6.85,4.12,4.12,8.89-9.4,17.79-18.8,26.68-28.21,1.84-1.94,4.19-3.87,5.49-6.22,1.21-2.2.72-4.59-.19-6.79-2.17-5.27-4.59-10.45-6.95-15.65,3.68-.87,7.37-1.75,11.05-2.62,3.14-.74,6.28-1.49,9.43-2.23,2.73-.65,5.21-1.74,4.95-5.04-.24-2.98-1.81-6.24-2.7-9.09-1.01-3.25-2.02-6.49-3.03-9.74Z"></path>
          <path class="cls-4" d="M114.66,257.81c-3.51,2.37-6.52,5.83-7.61,10-.32,1.22-.47,2.44-.48,3.66-4.56-5.89-8.32-12.46-11.62-19.08-4.91-9.85-8.61-20.28-11.14-30.99-5.09-21.53-5.23-44.16-.16-65.71,5.14-21.81,15.68-41.3,28.6-59.45,6.16-8.65,13.31-16.51,22.14-22.5,9.35-6.34,19.58-11.34,30.37-14.72,22.97-7.18,53.21-8.2,68.31,14.14.14.2.29.38.45.53.26,1.17,1.13,2.16,2.69,2.1,7.87-.26,13.07,6.09,16.4,12.49,3.44,6.61,6.05,13.76,8.67,20.73,5.35,14.2,9.78,28.79,12.57,43.72,5.45,29.15,4.58,60.15-7.59,87.58-5.58,12.58-13.5,24.27-24.16,33.03-1.98-9.55-6.8-19.25-16.42-22.32,5.39-7.76,9.31-16.6,12.21-25.56.73-2.25,1.39-4.51,2.01-6.78.61.72,1.55,1.11,2.75.64,9.03-3.53,13.27-13.48,14.1-22.56.46-5.01-.08-10.27-1.68-15.05-.98-2.95-2.45-6.26-4.8-8.48.27-.32.48-.68.58-1.05.46-1.68-.58-2.97-2.03-3.58-1.22-.51-2.53-1.57-3.6-2.73-1.07-1.16-1.96-2.62-2.72-4.23-.67-1.44-1.31-3.72-1.7-5.57-.24-1.13-.43-2.28-.59-3.42,1.91,1.33,3.93,2.58,6.01,3.81,3.23,1.91,6.17-3.12,2.94-5.03-6.94-4.1-13.56-8.35-16.53-16.23-3.05-8.08-5.21-17.27-3.24-25.85.37-1.59-.51-2.74-1.67-3.28.06-.55-.09-1.15-.54-1.76-7.32-9.8-19.58-6.06-28.64-1.04-9.21,5.11-17.15,12.19-24.83,19.32-7.68,7.15-15.24,14.56-24.11,20.25-4.53,2.9-9.36,5.37-14.49,7-2.81.9-5.75,1.34-8.45,2.58-.57.26-1.12.56-1.66.86.24-.32.49-.64.72-.97,5.04-7.17,9.61-14.67,14.49-21.96,4.95-7.4,10.12-14.66,16.07-21.3,2.77-3.09,5.7-6.05,8.82-8.8,3.44-3.04,7.29-6.4,12.09-6.6,3.73-.16,3.75-5.99,0-5.82-8.18.35-14.59,6.51-20.12,11.96-6.11,6.02-11.46,12.77-16.44,19.74-5.12,7.16-9.83,14.6-14.65,21.96-4.51,6.88-9.82,17.7-19.49,16.86-3.73-.32-3.71,5.5,0,5.82,2.71.23,5.16-.28,7.42-1.22-.61,1-1.23,2-1.93,2.95-.01.02-.08.1-.13.18-.07.09-.23.3-.26.33-.24.3-.48.59-.72.88-.52.61-1.06,1.21-1.61,1.78-.29.3-.6.59-.9.88-1.34-.7-3.35.04-4.11,1.62-3.82,1.83-5.88,6.3-7.17,10.14-1.6,4.77-2.14,10.05-1.68,15.05.83,9.08,5.07,19.03,14.1,22.56,1.33.52,2.37.02,2.96-.87,1.55,6.94,3.37,13.79,6.25,20.35,2.07,4.72,4.48,9.37,7.33,13.71-.11.05-.22.09-.32.14-3.65,1.78-7.63,2.87-11.02,5.17Z"></path>
          <path class="cls-7" d="M247.29,178.44c1.37,1.88,2.18,4.73,2.65,6.44,1.06,3.86,1.34,7.89.98,11.87-.56,6.14-3.49,14.39-9.75,16.9,2.78-11.58,4.46-23.42,6.13-35.22Z"></path>
          <path class="cls-7" d="M104.7,178.56c1.58,9.99,3.49,19.91,5.56,29.81.39,1.87.78,3.74,1.17,5.61-.15-.09-.26-.21-.44-.29-6.31-2.47-9.26-10.78-9.82-16.94-.35-3.87-.1-7.78.89-11.54.46-1.76,1.26-4.69,2.64-6.65Z"></path>
          <path class="cls-7" d="M125.75,240.29c-5.04-10.22-7.31-21.14-9.61-32.22-2.2-10.62-4.28-21.24-5.96-31.95.2-.16.39-.33.58-.5,1.53-1.33,2.95-2.77,4.26-4.32,2.42-2.87,4.46-6.02,6.05-9.41,1.82-.78,3.57-1.65,5.3-2.66,2.8-1.64,5.45-2.39,8.52-3.25,4.74-1.32,9.33-3.32,13.62-5.71,8.25-4.59,15.5-10.79,22.42-17.15,7.11-6.54,13.97-13.43,21.77-19.16,6.61-4.86,22.39-16.15,29.44-6.71.43.57.96.92,1.53,1.1-2.06,9.67.01,20.08,3.63,29.15,1.7,4.25,4.21,7.62,7.21,10.51-.38.48-.6,1.06-.52,1.68.65,5.2,1.32,10.41,3.63,15.18,1.21,2.5,2.92,4.64,4.98,6.38-.06.18-.16.32-.19.53-3.95,27.63-6.61,60.21-26.2,81.92-5.01,5.55-11.03,10-17.82,13.14-9.84,4.55-21.89,4.99-32.47,3.45-7.96-1.16-15.91-2.98-22.61-7.65-7.87-5.49-13.36-13.89-17.54-22.36Z"></path>
          <path class="cls-7" d="M158.79,274.98c10.43,2.07,20.97,2.54,31.45.47,8.45-1.67,16.12-5.56,22.86-10.87-1.96,12.7-4.46,25.34-5.7,38.13-.36,3.73,5.47,3.7,5.82,0,.24-2.45.57-4.89.9-7.32,10.69,1.33-.28,30.98-1.95,36.47-.91,2.98-1.86,5.95-2.81,8.92-.6-.4-1.36-.57-2.26-.33-20.85,5.49-42.84,4.21-62.96-3.51-.26-.1-.49-.09-.73-.12-.45-1.43-.92-2.86-1.36-4.3-1.61-5.25-11.98-33.3-3.39-36.82.11,2.31.25,4.62.46,6.92.34,3.7,6.16,3.74,5.82,0-1-11.02-.48-22.28-1.81-33.29,4.82,2.74,10.11,4.56,15.68,5.66Z"></path>
          <path class="cls-6" d="M167.3,443h19.4c2.17-24.41,6.53-48.62,13.2-72.21,2.33-8.24,5.01-16.37,7.66-24.5-20.46,5.17-42.11,4.22-62.01-2.74,2.94,9.05,5.96,18.08,8.55,27.24,6.67,23.59,11.03,47.8,13.2,72.21Z"></path>
          <path class="cls-5" d="M72.42,443c.84-11.71,1.68-23.42,2.53-35.12.27-3.72,6.09-3.74,5.82,0-.84,11.71-1.68,23.42-2.53,35.12h83.23c-.96-10.83-2.35-21.63-4.24-32.34-4.09-23.27-10.86-45.6-18.11-68.04-3.54-10.95-7.29-22.15-9.15-33.53-1.17-7.18.25-17.61,8.42-19.34-.02-.48-.04-.96-.05-1.44-.19.17-.37.34-.56.52-1.03.95-2.25.97-3.24.49-3.13,1.23-6.26,2.47-9.39,3.7-1.99.78-3.98,1.57-5.97,2.36-2.08.82-4.87,1.44-6.71,2.65-1.73,1.13-1.32,2.68-2.46,4.25-1,1.38-2.54,2.15-3.98,2.97-3.64,2.07-7.31,4.1-10.98,6.11-6.9,3.78-13.85,7.47-20.9,10.96-6.61,3.27-13.68,5.95-19.94,9.88-11.85,7.42-15.96,24-18.83,36.83-5.43,24.27-4.6,49.26-5.92,73.99h42.97Z"></path>
          <path class="cls-5" d="M203.14,381.13c-5.22,20.31-8.75,41-10.62,61.87h83.23c-.84-11.71-1.68-23.42-2.53-35.12-.27-3.75,5.56-3.72,5.82,0,.84,11.71,1.68,23.42,2.53,35.12h43c-.67-12.11-.85-24.24-1.45-36.35-.72-14.52-2.08-29.07-5.84-43.15-1.85-6.94-4.2-13.93-7.56-20.3-3.39-6.44-8.3-10.44-14.73-13.67-13.71-6.87-27.49-13.41-40.91-20.86-3.03-1.68-7.28-3.19-9.64-5.8-1.02-1.13-.88-2.09-1.43-3.33-.8-1.81-3.16-2.18-4.88-2.86-6.23-2.46-12.45-4.91-18.68-7.37-.98.48-2.21.46-3.24-.49-.34-.32-.69-.64-1.03-.95-.09.59-.19,1.18-.28,1.77,3.93.65,6.87,3.54,8.41,7.28,2.22,5.42.97,11.47-.27,16.97-5.15,22.83-14.08,44.59-19.91,67.24Z"></path>
          <path class="cls-4" d="M155.27,159.16c1.57.14,2.91-1.44,2.91-2.91,0-1.69-1.34-2.77-2.91-2.91-10.22-.93-20.76,2.03-28.99,8.16-1.26.94-1.9,2.52-1.04,3.98.73,1.24,2.72,1.99,3.98,1.04,7.52-5.6,16.7-8.21,26.05-7.36Z"></path>
          <path class="cls-4" d="M196.6,159.16c9.34-.85,18.53,1.76,26.05,7.36,1.26.94,3.25.21,3.98-1.04.87-1.49.22-3.04-1.04-3.98-8.23-6.13-18.77-9.09-28.99-8.16-1.57.14-2.91,1.24-2.91,2.91,0,1.46,1.34,3.06,2.91,2.91Z"></path>
          <path class="cls-4" d="M148.08,174.6c-.31-.33-.68-.62-1.09-.81-.81-.38-1.71-.61-2.6-.33-.93.29-1.72.99-2.08,1.91-.39.35-.72.77-.9,1.32-.54,1.64-.55,3.42-.18,5.09.48,2.18,1.87,4.46,4.34,4.55.92.04,1.83-.4,2.49-1.01.56-.52.81-1.17,1.08-1.85.32-.82.45-1.67.55-2.54.07-.63.08-1.25,0-1.88-.1-.89-.24-1.76-.57-2.6-.28-.71-.52-1.29-1.05-1.86Z"></path>
          <path class="cls-4" d="M147.45,177.97c.1-.16.19-.31.25-.49-.05.13-.11.25-.16.38-.03.04-.06.07-.08.11Z"></path>
          <path class="cls-4" d="M209.05,174.6c-.31-.33-.68-.62-1.09-.81-.81-.38-1.71-.61-2.6-.33-.93.29-1.72.99-2.08,1.91-.39.35-.72.77-.9,1.32-.54,1.64-.55,3.42-.18,5.09.48,2.18,1.87,4.46,4.34,4.55.92.04,1.83-.4,2.49-1.01.56-.52.81-1.17,1.08-1.85.32-.82.45-1.67.55-2.54.07-.63.08-1.25,0-1.88-.1-.89-.24-1.76-.57-2.6-.28-.71-.52-1.29-1.05-1.86Z"></path>
          <path class="cls-4" d="M208.42,177.97c.1-.16.19-.32.25-.49-.05.13-.11.26-.16.38-.03.04-.06.07-.08.11Z"></path>
          <path class="cls-4" d="M178.34,214.46s.21-.1.33-.17c.13-.05.4-.16.39-.16.37-.14.75-.28,1.12-.42.84-.32,1.69-.65,2.43-1.17.99-.69,1.8-1.6,2.14-2.78.39-1.35,0-2.69-.27-4.02-.88-4.44-.97-9.1-.41-13.66.19-1.56-1.47-2.91-2.91-2.91-1.73,0-2.72,1.34-2.91,2.91-.53,4.33-.4,8.65.23,12.97.14.96.32,1.91.52,2.86-.11.06-.23.12-.34.17-.1.03-.53.2-.64.24-.88.33-1.77.66-2.61,1.1-1.39.73-1.81,2.67-1.04,3.98.83,1.41,2.58,1.77,3.98,1.04Z"></path>
          <path class="cls-4" d="M179.44,207.68s0,0,0,0c.11-.08.16-.08,0,0Z"></path>
          <path class="cls-4" d="M184.59,246.43c-1.04.32-2.1.57-3.17.75-.12.02-.24.04-.36.06-.04,0-.03,0-.1.01-.25.02-.5.05-.75.07-.54.04-1.09.07-1.63.08-1.09.02-2.16-.07-3.25-.17-.12-.02-.23-.03-.35-.05-.25-.04-.49-.09-.74-.13-.57-.11-1.14-.25-1.71-.4-1.47-.4-3.23.5-3.58,2.03-.35,1.53.46,3.16,2.03,3.58,4.95,1.34,10.25,1.28,15.16-.21,1.46-.44,2.53-2.06,2.03-3.58-.48-1.47-2.02-2.51-3.58-2.03Z"></path>
          <path class="cls-3" d="M156.94,234.78c-.69,1.15-.37,3.15.98,3.74,7.02,3.05,14.06,5.39,21.81,5.15,6.7-.21,13.02-1.61,18.45-5.72,1.18-.9,1.77-2.35.98-3.74-.66-1.16-2.56-1.87-3.74-.98-4.71,3.57-9.87,4.79-15.69,4.97-6.75.22-12.92-1.74-19.05-4.4-1.36-.59-2.92-.39-3.74.98Z"></path>
        </g>
        <path class="cls-3" d="M127.38,384.45c-1.78-1.88-3.56-3.76-5.34-5.64-.72-.76-2.55-2.07-2.87-3.07-.42-1.3.77-3.01,1.27-4.14,2.14-4.79,4.27-9.57,6.41-14.36.98.23,1.96.47,2.95.7,3.64.86,5.2-4.75,1.55-5.62-5.69-1.35-11.37-2.69-17.06-4.04-2.99-.71-5.99-1.42-8.98-2.13-.85-.2-2.28-.84-3.34-.97.24-.57.34-1.34.5-1.86,3.53-11.37,7.06-22.73,10.6-34.1,1.11-3.59-4.51-5.12-5.62-1.55-2.02,6.49-4.04,12.99-6.05,19.48-.96,3.1-1.93,6.2-2.89,9.3-.93,2.98-2.59,6.42-2.84,9.53-.24,3.03,1.9,4.29,4.5,4.93,3.29.81,6.58,1.56,9.88,2.34,3.69.87,7.38,1.75,11.07,2.62-2.28,5.07-4.58,10.12-6.78,15.22-.95,2.21-1.6,4.56-.55,6.86,1.15,2.52,3.79,4.6,5.67,6.58,8.89,9.4,17.79,18.8,26.68,28.21,2.58,2.73,6.69-1.4,4.12-4.12-7.62-8.06-15.25-16.12-22.87-24.18Z"></path>
        <path class="cls-3" d="M106.05,230.52c-.33-1.54-2.13-2.43-3.58-2.03-1.59.44-2.36,2.04-2.03,3.58,1.6,7.5,4.33,14.75,8,21.47.75,1.38,2.65,1.82,3.98,1.04,1.39-.81,1.8-2.6,1.04-3.98-3.45-6.31-5.92-13.05-7.42-20.08Z"></path>
        <path class="cls-3" d="M237.61,255.88c-2.79,2.51,1.34,6.62,4.12,4.12,11.55-10.39,18.32-24.61,24.73-38.48.66-1.44.4-3.12-1.04-3.98-1.25-.75-3.33-.38-3.98,1.04-6.2,13.42-12.64,27.25-23.82,37.3Z"></path>
        <path class="cls-3" d="M255.63,336.9c-1.01-3.25-2.02-6.49-3.03-9.74-2.02-6.49-4.04-12.99-6.05-19.48-1.11-3.57-6.73-2.05-5.62,1.55,3.53,11.37,7.06,22.73,10.6,34.1.18.59.37,1.18.55,1.77.02.05.03.11.05.16-1.23.29-3.14.82-3.44.9-2.84.67-5.69,1.35-8.53,2.02-5.84,1.38-11.67,2.76-17.51,4.15-3.65.86-2.1,6.48,1.55,5.62.98-.23,1.96-.47,2.95-.7,2.14,4.79,4.27,9.57,6.41,14.36.5,1.13,1.68,2.84,1.27,4.14-.32,1-2.15,2.31-2.87,3.07-1.78,1.88-3.56,3.76-5.34,5.64-7.62,8.06-15.25,16.12-22.87,24.18-2.57,2.72,1.54,6.85,4.12,4.12,8.89-9.4,17.79-18.8,26.68-28.21,1.84-1.94,4.19-3.87,5.49-6.22,1.21-2.2.72-4.59-.19-6.79-2.17-5.27-4.6-10.45-6.96-15.64,3.69-.87,7.37-1.75,11.06-2.62,3.14-.74,6.28-1.49,9.43-2.23,2.73-.65,5.21-1.74,4.95-5.04-.24-2.98-1.81-6.24-2.7-9.09Z"></path>
        <path class="cls-3" d="M29.46,443c1.31-24.73.48-49.72,5.91-73.99,2.87-12.82,6.98-29.4,18.83-36.83,6.26-3.92,13.33-6.6,19.94-9.88,7.05-3.49,14-7.18,20.9-10.96,3.67-2.01,7.34-4.03,10.98-6.11,1.44-.82,2.99-1.6,3.98-2.98,1.14-1.58.74-3.12,2.46-4.25,1.85-1.21,4.64-1.83,6.71-2.65,1.99-.79,3.98-1.57,5.97-2.36,3.13-1.23,6.26-2.47,9.39-3.7.98.48,2.21.47,3.24-.49.19-.17.37-.35.56-.52.02.48.03.95.05,1.43-8.17,1.73-9.59,12.17-8.42,19.35,1.86,11.38,5.62,22.58,9.15,33.53,7.25,22.44,14.02,44.77,18.11,68.04,1.88,10.72,3.28,21.51,4.24,32.34h5.82c-2.17-24.41-6.53-48.62-13.2-72.21-2.58-9.13-5.59-18.13-8.53-27.16,19.89,6.95,41.54,7.85,61.98,2.69-2.65,8.12-5.33,16.24-7.65,24.47-6.67,23.59-11.03,47.8-13.2,72.21h5.82c1.87-20.87,5.4-41.57,10.62-61.87,5.83-22.65,14.75-44.41,19.91-67.24,1.24-5.5,2.49-11.55.27-16.97-1.54-3.75-4.48-6.66-8.43-7.3.09-.59.18-1.19.28-1.78.35.33.7.65,1.05.98,1.03.95,2.25.97,3.24.49,6.23,2.46,12.45,4.91,18.68,7.37,1.72.68,4.08,1.05,4.88,2.86.55,1.24.42,2.2,1.43,3.33,2.36,2.61,6.61,4.12,9.64,5.8,13.42,7.46,27.2,13.99,40.91,20.86,6.43,3.22,11.34,7.23,14.73,13.67,3.36,6.37,5.7,13.36,7.56,20.3,3.76,14.08,5.12,28.64,5.84,43.15.6,12.11.75,24.24,1.41,36.35h5.82c-1.41-26.08-.49-52.46-6.68-77.99-3.12-12.87-7.67-28.42-18.94-36.52-6.26-4.5-13.79-7.21-20.68-10.59-7.27-3.57-14.44-7.35-21.54-11.24-3.93-2.15-8.67-4.05-12.2-6.79-1.78-1.37-1.51-3.15-2.8-4.8-.91-1.16-2.18-1.73-3.5-2.3-8.84-3.8-17.94-7.08-26.89-10.61-.35-.14-.69-.19-1.01-.18,1.18-7.07,2.44-14.13,3.42-21.22.09-.67.04-1.33-.19-1.91.93-.98,1.82-1.98,2.68-3.02.27.18.59.33.96.43,9.5,2.41,13.19,13.65,14.12,22.36.21,1.96,2.4,3.94,4.38,2.51,24.82-17.82,37.28-48.54,40.51-78.11,3.62-33.18-4.03-66.61-15.84-97.47-5.02-13.11-11.31-34.75-28.24-35.57-13.48-19.68-38.06-23.93-60.27-20.08-22.74,3.93-46.05,14.86-61.6,32.22-7.46,8.32-13.52,17.82-19.41,27.29-6.4,10.28-11.53,21.35-15.29,32.85-7.44,22.82-9.09,47.2-5.15,70.85,2.14,12.82,5.97,25.3,11.31,37.15,5.41,12,12.33,24.14,22.02,33.2,2.02,1.89,5.81.05,4.87-2.83-2.14-6.51-3.47-12.84,2.79-17.51,1.89-1.41,4.11-2.34,6.27-3.24,1.13-.47,2.27-.92,3.39-1.41.59-.25,1.18-.52,1.77-.8.16-.05.3-.09.42-.14.25.1.51.17.77.21,1.68,2.08,3.5,4.06,5.47,5.88.44.4.88.79,1.32,1.17,0,.16.02.33.05.51,1.03,5.47,1.22,11.14,1.44,16.71-.38-.05-.79,0-1.21.16-7.96,3.14-15.93,6.28-23.89,9.42-2.45.97-5.53,1.73-6.95,4.17-1.16,2-.92,3.03-2.96,4.47-1.88,1.32-4.1,2.3-6.11,3.42-7.08,3.94-14.21,7.79-21.43,11.46-7.15,3.63-14.62,6.7-21.66,10.54-12.92,7.04-18.21,20.37-22.11,33.88-4.12,14.27-5.72,29.16-6.56,43.95-.75,13.17-.86,26.37-1.58,39.53h5.82ZM212.17,331.84c-.91,2.98-1.85,5.95-2.81,8.92-.6-.4-1.37-.57-2.27-.33-20.85,5.49-42.84,4.21-62.96-3.51-.27-.1-.52-.16-.77-.19-.45-1.41-.89-2.82-1.32-4.23-1.61-5.25-11.98-33.3-3.41-36.83.11,2.31.26,4.62.47,6.93.34,3.7,6.16,3.74,5.82,0-1-11.02-.47-22.27-1.8-33.28,4.82,2.73,10.1,4.55,15.67,5.65,10.43,2.07,20.97,2.54,31.45.47,8.46-1.67,16.15-5.56,22.89-10.89-1.97,12.71-4.5,25.35-5.74,38.15-.36,3.73,5.47,3.7,5.82,0,.24-2.46.53-4.91.85-7.35,10.79,1.23-.23,31-1.91,36.49ZM125.68,252.64c-3.65,1.78-7.63,2.87-11.02,5.17-3.51,2.37-6.52,5.83-7.61,10-.32,1.23-.47,2.47-.48,3.7-4.57-5.9-8.32-12.49-11.62-19.11-4.91-9.85-8.61-20.28-11.14-30.99-5.09-21.53-5.23-44.16-.16-65.71,5.14-21.81,15.68-41.3,28.6-59.45,6.16-8.65,13.31-16.51,22.14-22.5,9.35-6.34,19.58-11.34,30.37-14.72,22.97-7.18,53.2-8.2,68.31,14.14.12.18.26.34.4.48.24,1.19,1.15,2.2,2.74,2.15,7.87-.26,13.07,6.09,16.4,12.49,3.44,6.61,6.05,13.76,8.67,20.73,5.35,14.2,9.78,28.79,12.57,43.72,5.45,29.15,4.58,60.15-7.59,87.58-5.58,12.58-13.48,24.29-24.14,33.05-1.97-9.55-6.78-19.28-16.4-22.37,5.38-7.76,9.27-16.59,12.17-25.54.72-2.23,1.38-4.48,2-6.73.61.71,1.57,1.05,2.76.59,9.03-3.53,13.27-13.48,14.1-22.56.46-5.01-.08-10.27-1.68-15.05-.98-2.94-2.43-6.28-4.77-8.5.26-.31.45-.67.55-1.03.46-1.68-.58-2.97-2.03-3.58-1.22-.51-2.53-1.57-3.6-2.73-1.07-1.16-1.96-2.62-2.72-4.23-.67-1.44-1.31-3.72-1.7-5.57-.24-1.13-.43-2.27-.6-3.42,1.91,1.33,3.93,2.58,6.01,3.81,3.23,1.91,6.17-3.12,2.94-5.03-6.94-4.1-13.56-8.35-16.53-16.23-3.05-8.08-5.21-17.27-3.24-25.85.37-1.59-.5-2.79-1.66-3.32.04-.54-.11-1.12-.55-1.71-7.32-9.8-19.58-6.06-28.64-1.04-9.21,5.11-17.16,12.19-24.83,19.32-7.68,7.15-15.24,14.56-24.11,20.25-4.53,2.9-9.36,5.37-14.49,7-2.81.9-5.75,1.34-8.45,2.58-.55.25-1.08.53-1.61.81.22-.31.45-.61.66-.92,5.04-7.17,9.61-14.68,14.49-21.96,4.95-7.4,10.12-14.66,16.07-21.3,2.77-3.09,5.7-6.05,8.82-8.8,3.44-3.04,7.29-6.4,12.09-6.6,3.73-.16,3.75-5.99,0-5.82-8.18.35-14.59,6.51-20.12,11.96-6.11,6.02-11.46,12.77-16.44,19.74-5.12,7.16-9.83,14.6-14.65,21.96-4.51,6.88-9.82,17.7-19.49,16.86-3.73-.32-3.71,5.5,0,5.82,2.72.24,5.19-.23,7.46-1.17-.61.99-1.26,1.96-1.96,2.9-.01.02-.08.1-.13.17-.08.1-.24.31-.26.34-.24.3-.48.59-.72.88-.52.61-1.06,1.21-1.61,1.78-.29.3-.58.6-.88.89-1.35-.72-3.44.01-4.19,1.62-3.79,1.85-5.83,6.31-7.11,10.13-1.6,4.77-2.14,10.05-1.68,15.05.83,9.08,5.07,19.03,14.1,22.56,1.33.52,2.37.03,2.96-.86,1.55,6.93,3.38,13.78,6.26,20.34,2.07,4.71,4.47,9.36,7.32,13.7-.1.05-.21.1-.31.14ZM241.17,213.66c2.79-11.59,4.46-23.45,6.12-35.26,1.38,1.88,2.17,4.76,2.64,6.48,1.06,3.86,1.34,7.89.98,11.87-.56,6.13-3.48,14.4-9.74,16.91ZM110.27,208.38c.39,1.84.77,3.69,1.15,5.53-.13-.08-.27-.15-.42-.21-6.31-2.47-9.26-10.78-9.82-16.94-.35-3.87-.1-7.78.89-11.54.46-1.75,1.24-4.7,2.62-6.67,1.58,10,3.51,19.92,5.58,29.83ZM125.75,240.29c-5.04-10.22-7.31-21.14-9.61-32.22-2.2-10.62-4.3-21.22-5.98-31.93.21-.17.41-.35.6-.52,1.53-1.33,2.95-2.77,4.26-4.32,2.41-2.85,4.46-5.97,6.05-9.35,1.83-.78,3.56-1.71,5.29-2.72,2.8-1.64,5.45-2.39,8.52-3.25,4.74-1.32,9.33-3.32,13.62-5.71,8.25-4.59,15.5-10.79,22.42-17.15,7.11-6.54,13.97-13.43,21.77-19.16,6.61-4.86,22.39-16.15,29.44-6.71.42.56.95.92,1.5,1.1-2.06,9.67.03,20.09,3.65,29.16,1.7,4.25,4.19,7.63,7.2,10.52-.37.48-.58,1.05-.51,1.67.65,5.2,1.32,10.41,3.63,15.18,1.21,2.49,2.86,4.67,4.91,6.41-.05.16-.09.32-.12.51-3.95,27.63-6.61,60.21-26.2,81.92-5.01,5.55-11.03,10-17.82,13.14-9.84,4.55-21.89,4.99-32.47,3.45-7.96-1.16-15.91-2.98-22.61-7.65-7.87-5.49-13.36-13.89-17.54-22.36Z"></path>
        <path class="cls-3" d="M155.27,159.16c1.57.14,2.91-1.44,2.91-2.91,0-1.69-1.34-2.77-2.91-2.91-10.22-.93-20.76,2.03-28.99,8.16-1.26.94-1.9,2.52-1.04,3.98.73,1.24,2.72,1.99,3.98,1.04,7.52-5.6,16.7-8.21,26.05-7.36Z"></path>
        <path class="cls-3" d="M196.6,159.16c9.34-.85,18.53,1.76,26.05,7.36,1.26.94,3.25.21,3.98-1.04.87-1.49.22-3.04-1.04-3.98-8.23-6.13-18.77-9.09-28.99-8.16-1.57.14-2.91,1.24-2.91,2.91,0,1.46,1.34,3.06,2.91,2.91Z"></path>
        <path class="cls-3" d="M149.14,176.46c-.28-.71-.52-1.29-1.05-1.86-.31-.33-.68-.62-1.09-.81-.81-.38-1.71-.61-2.6-.33-.91.29-1.72.96-2.08,1.85-.4.35-.71.82-.89,1.38-.54,1.64-.55,3.42-.18,5.09.48,2.18,1.87,4.46,4.34,4.55.92.04,1.83-.4,2.49-1.01.56-.52.81-1.17,1.08-1.85.32-.82.45-1.67.55-2.54.07-.63.08-1.25,0-1.88-.1-.89-.24-1.76-.57-2.6Z"></path>
        <path class="cls-3" d="M210.1,176.46c-.28-.71-.52-1.29-1.05-1.86-.31-.33-.68-.62-1.09-.81-.81-.38-1.71-.61-2.6-.33-.91.29-1.72.96-2.08,1.85-.4.35-.71.82-.89,1.38-.54,1.64-.55,3.42-.18,5.09.48,2.18,1.87,4.46,4.34,4.55.92.04,1.83-.4,2.49-1.01.56-.52.81-1.17,1.08-1.85.32-.82.45-1.67.55-2.54.07-.63.08-1.25,0-1.88-.1-.89-.24-1.76-.57-2.6Z"></path>
        <path class="cls-3" d="M178.34,214.46s.2-.1.32-.16c.13-.05.4-.17.4-.17.37-.14.75-.28,1.12-.42.84-.32,1.69-.65,2.43-1.17.99-.69,1.8-1.6,2.14-2.78.39-1.35,0-2.69-.27-4.02-.88-4.44-.97-9.1-.41-13.66.19-1.56-1.48-2.91-2.91-2.91-1.73,0-2.72,1.34-2.91,2.91-.53,4.33-.4,8.65.23,12.97.14.96.32,1.92.52,2.87-.1.06-.21.11-.32.16-.09.03-.55.21-.67.25-.88.33-1.77.66-2.61,1.1-1.39.73-1.81,2.67-1.04,3.98.83,1.41,2.59,1.77,3.98,1.04ZM179.44,207.68s0,0,0-.01c.11-.07.17-.08,0,.01Z"></path>
        <path class="cls-3" d="M184.59,246.43c-1.04.32-2.1.57-3.17.75-.12.02-.23.04-.35.05-.03,0-.07,0-.12.01-.25.02-.5.05-.75.07-.54.04-1.09.07-1.63.08-1.09.02-2.16-.07-3.24-.17-.12-.02-.24-.04-.36-.06-.25-.04-.49-.09-.74-.13-.57-.11-1.14-.25-1.71-.4-1.47-.4-3.23.5-3.58,2.03-.35,1.53.46,3.16,2.03,3.58,4.95,1.34,10.25,1.28,15.16-.21,1.46-.44,2.53-2.06,2.03-3.58-.48-1.47-2.02-2.51-3.58-2.03Z"></path>
      </g>
    </g>
  </g>
</svg>
