<?xml version="1.0" encoding="UTF-8"?>
<svg id="_レイヤー_2" data-name="レイヤー 2" xmlns="http://www.w3.org/2000/svg" viewBox="0 0 596.75 97.14">
  <defs>
    <style>
      .cls-1 {
        fill: #bcbcbc;
      }

      .cls-1, .cls-2 {
        stroke-width: 0px;
      }

      .cls-2 {
        fill: #f27c27;
      }
    </style>
  </defs>
  <g id="_レイヤー_1-2" data-name="レイヤー 1">
    <g>
      <path class="cls-2" d="M54.31,2.13l12.76,25.85c.56,1.13,1.64,1.91,2.88,2.09l28.52,4.14c3.14.46,4.39,4.31,2.12,6.53l-20.64,20.12c-.9.88-1.31,2.15-1.1,3.39l4.87,28.41c.54,3.13-2.75,5.51-5.55,4.03l-25.51-13.41c-1.12-.59-2.45-.59-3.56,0l-25.51,13.41c-2.81,1.48-6.09-.91-5.55-4.03l4.87-28.41c.21-1.24-.2-2.51-1.1-3.39L1.16,40.75c-2.27-2.21-1.02-6.07,2.12-6.53l28.52-4.14c1.25-.18,2.32-.96,2.88-2.09L47.44,2.13c1.4-2.84,5.46-2.84,6.86,0Z"/>
      <path class="cls-2" d="M178.06,2.13l12.76,25.85c.56,1.13,1.64,1.91,2.88,2.09l28.52,4.14c3.14.46,4.39,4.31,2.12,6.53l-20.64,20.12c-.9.88-1.31,2.15-1.1,3.39l4.87,28.41c.54,3.13-2.75,5.51-5.55,4.03l-25.51-13.41c-1.12-.59-2.45-.59-3.56,0l-25.51,13.41c-2.81,1.48-6.09-.91-5.55-4.03l4.87-28.41c.21-1.24-.2-2.51-1.1-3.39l-20.64-20.12c-2.27-2.21-1.02-6.07,2.12-6.53l28.52-4.14c1.25-.18,2.32-.96,2.88-2.09l12.76-25.85c1.4-2.84,5.46-2.84,6.86,0Z"/>
      <path class="cls-2" d="M301.81,2.13l12.76,25.85c.56,1.13,1.64,1.91,2.88,2.09l28.52,4.14c3.14.46,4.39,4.31,2.12,6.53l-20.64,20.12c-.9.88-1.31,2.15-1.1,3.39l4.87,28.41c.54,3.13-2.75,5.51-5.55,4.03l-25.51-13.41c-1.12-.59-2.45-.59-3.56,0l-25.51,13.41c-2.81,1.48-6.09-.91-5.55-4.03l4.87-28.41c.21-1.24-.2-2.51-1.1-3.39l-20.64-20.12c-2.27-2.21-1.02-6.07,2.12-6.53l28.52-4.14c1.25-.18,2.32-.96,2.88-2.09l12.76-25.85c1.4-2.84,5.46-2.84,6.86,0Z"/>
      <path class="cls-2" d="M425.56,2.13l12.76,25.85c.56,1.13,1.64,1.91,2.88,2.09l28.52,4.14c3.14.46,4.39,4.31,2.12,6.53l-20.64,20.12c-.9.88-1.31,2.15-1.1,3.39l4.87,28.41c.54,3.13-2.75,5.51-5.55,4.03l-25.51-13.41c-1.12-.59-2.45-.59-3.56,0l-25.51,13.41c-2.81,1.48-6.09-.91-5.55-4.03l4.87-28.41c.21-1.24-.2-2.51-1.1-3.39l-20.64-20.12c-2.27-2.21-1.02-6.07,2.12-6.53l28.52-4.14c1.25-.18,2.32-.96,2.88-2.09l12.76-25.85c1.4-2.84,5.46-2.84,6.86,0Z"/>
      <path class="cls-1" d="M549.31,2.13l12.76,25.85c.56,1.13,1.64,1.91,2.88,2.09l28.52,4.14c3.14.46,4.39,4.31,2.12,6.53l-20.64,20.12c-.9.88-1.31,2.15-1.1,3.39l4.87,28.41c.54,3.13-2.75,5.51-5.55,4.03l-25.51-13.41c-1.12-.59-2.45-.59-3.56,0l-25.51,13.41c-2.81,1.48-6.09-.91-5.55-4.03l4.87-28.41c.21-1.24-.2-2.51-1.1-3.39l-20.64-20.12c-2.27-2.21-1.02-6.07,2.12-6.53l28.52-4.14c1.25-.18,2.32-.96,2.88-2.09l12.76-25.85c1.4-2.84,5.46-2.84,6.86,0Z"/>
    </g>
  </g>
</svg>