<?xml version="1.0" encoding="UTF-8"?>
<svg xmlns="http://www.w3.org/2000/svg" xmlns:xlink="http://www.w3.org/1999/xlink" id="_レイヤー_2" data-name="レイヤー 2" viewBox="0 0 354 354">
  <defs>
    <style>
      .cls-1 {
        clip-path: url(#clippath);
      }

      .cls-2 {
        fill: none;
      }

      .cls-2, .cls-3, .cls-4, .cls-5, .cls-6, .cls-7 {
        stroke-width: 0px;
      }

      .cls-3 {
        fill: #5e514f;
      }

      .cls-4 {
        fill: #5b5959;
      }

      .cls-5 {
        fill: #c5e1ae;
      }

      .cls-6 {
        fill: #fff;
      }

      .cls-7 {
        fill: #00788f;
      }
    </style>
    <clipPath id="clippath">
      <circle class="cls-2" cx="177" cy="177" r="177"></circle>
    </clipPath>
  </defs>
  <g id="_レイヤー_1-2" data-name="レイヤー 1">
    <g class="cls-1">
      <g>
        <path class="cls-7" d="M205.46,356.42c-5.49,21.32-8.98,43.1-10.53,65.05h79.13c-.96-13.32-1.92-26.64-2.87-39.97-.25-3.51,5.21-3.49,5.46,0,.96,13.32,1.92,26.64,2.87,39.97h58.68c-1.34-15.47-1.27-31.02-2.4-46.51-1.08-14.86-3.36-29.8-9.04-43.66-2.93-7.16-6.55-14.69-13.2-19.09-6.51-4.31-14.27-6.67-21.42-9.69-7.47-3.15-14.86-6.49-22.19-9.94-3.96-1.86-7.9-3.75-11.83-5.66-2.52-1.22-6.07-2.24-7.76-4.64-.62-.89-.4-1.43-.84-2.38-.46-1-.3-.65-1.27-1.21-1.28-.75-3.22-1.1-4.62-1.58-3.09-1.06-6.17-2.12-9.26-3.19-3.54-1.22-7.08-2.43-10.61-3.65-.75.55-1.74.69-2.77.01-1.27-.84-2.7-1.39-4.1-2-.03.79-.07,1.59-.09,2.38,3.55.7,6.19,3.37,7.59,6.79,2.08,5.08.91,10.76-.25,15.91-4.84,21.41-13.2,41.82-18.67,63.06Z"></path>
        <path class="cls-6" d="M134.78,277.58c.32,3.47,5.78,3.51,5.46,0-.91-10.02-.49-20.24-1.6-30.26,5.97,5.04,13.06,8.01,20.74,9.53,9.78,1.95,19.67,2.38,29.49.44,8.12-1.61,15.49-5.39,21.92-10.56.59-.48,1.12-1.01,1.68-1.51-.43,11.63-1.44,23.27-1.21,34.9.07,3.51,5.53,3.52,5.46,0-.03-1.3.02-2.61.02-3.91,8.3,2.98-1.32,29.01-2.83,33.97-.62,2.03-1.27,4.05-1.92,6.07-.15.02-.29-.02-.45.03-11.73,3.1-24.04,4.1-36.14,4.04-11.96-.06-24.36-1.09-35.62-5.38-.25-.09-.46-.08-.68-.11-.43-1.34-.86-2.69-1.28-4.03-1.51-4.93-11.26-31.3-3.15-34.54.03.44.06.88.1,1.31Z"></path>
        <path class="cls-6" d="M162.1,421.47h27.37c1.78-25.27,6.05-50.37,12.95-74.75,2.33-8.22,5.02-16.33,7.67-24.45-11.3,2.65-23.1,3.59-34.67,3.53-11.42-.06-23.35-1-34.29-4.62,2.76,8.49,5.59,16.95,8.02,25.55,6.9,24.39,11.17,49.48,12.95,74.75Z"></path>
        <path class="cls-6" d="M245.78,183.5c-.53,5.75-3.27,13.5-9.15,15.85,2.61-10.86,4.19-21.97,5.74-33.03,1.29,1.77,2.04,4.43,2.48,6.04.99,3.62,1.26,7.4.92,11.14Z"></path>
        <path class="cls-4" d="M92.56,129.36c1.06-.19,2.08-.58,3.11-1.24,1.26-.8,1.73-2.41.98-3.74-2.75-4.89-4.35-10.1-4.93-15.61,3.62-.62,6.74-2.9,9.53-5.36,3.85-3.4,7.33-7.2,10.73-11.04,7.07-8.01,13.81-16.6,22.54-22.89,18-12.95,42.39-22.05,64.8-19.12,11.75,1.53,22.98,7.26,29.71,17.22.13.19.27.35.42.5.24,1.1,1.06,2.02,2.53,1.97,6.91-.23,11.73,5.04,14.82,10.67,3.47,6.3,6.02,13.28,8.52,20.01,1.83,4.92.8,11.1,4.19,15.36,1.4,1.76,3.34,2.86,5.03,4.3,3.06,2.59,1.47,4.74-1.08,7.16-.67.63-1.01,1.77-.7,2.66,4.45,12.75-5.2,26.84-14.37,35.91-.81-1.75-1.86-3.41-3.22-4.69.25-.3.45-.64.54-.98.43-1.58-.54-2.79-1.91-3.36-1.15-.48-2.38-1.47-3.38-2.56-1-1.09-1.84-2.46-2.55-3.97-.63-1.35-1.23-3.49-1.6-5.23-.22-1.06-.4-2.13-.56-3.21,1.8,1.25,3.69,2.42,5.64,3.58,3.03,1.79,5.78-2.93,2.76-4.72-6.51-3.85-12.72-7.84-15.51-15.22-2.86-7.58-4.89-16.2-3.04-24.25.34-1.49-.48-2.57-1.57-3.08.05-.52-.08-1.08-.51-1.65-6.86-9.19-18.37-5.68-26.86-.97-8.64,4.79-16.09,11.43-23.28,18.12-7.2,6.7-14.3,13.66-22.62,18.99-4.25,2.72-8.77,5.03-13.59,6.57-2.64.84-5.4,1.26-7.93,2.42-.54.25-1.05.53-1.56.81.22-.3.46-.6.67-.91,4.73-6.73,9.01-13.76,13.59-20.6,4.64-6.94,9.5-13.75,15.07-19.98,2.6-2.9,5.35-5.67,8.27-8.26,3.23-2.85,6.84-6,11.34-6.19,3.5-.15,3.52-5.61,0-5.46-7.67.33-13.68,6.11-18.87,11.21-5.73,5.64-10.75,11.98-15.42,18.51-4.8,6.71-9.22,13.69-13.74,20.59-4.23,6.45-9.21,16.6-18.28,15.81-3.5-.3-3.48,5.16,0,5.46,2.55.22,4.84-.26,6.96-1.15-.58.94-1.15,1.88-1.81,2.76-.01.02-.07.1-.13.17-.07.09-.22.28-.24.31-.22.28-.45.55-.68.82-.49.57-.99,1.13-1.51,1.67-.27.28-.56.55-.84.83-1.26-.66-3.14.04-3.86,1.52-.28.14-.56.29-.82.46-.14-.1-.22-.23-.39-.32-11.27-5.88-13.39-19.03-14.4-30.65Z"></path>
        <path class="cls-6" d="M114.55,199.39c-5.92-2.32-8.68-10.11-9.21-15.89-.33-3.63-.1-7.3.83-10.83.43-1.65,1.18-4.4,2.48-6.24,1.48,9.37,3.27,18.67,5.22,27.96.37,1.75.73,3.51,1.1,5.26-.14-.09-.25-.2-.42-.27Z"></path>
        <path class="cls-6" d="M119.38,194.11c-2.07-9.96-4.01-19.92-5.59-29.96.18-.15.37-.31.54-.47,1.43-1.24,2.77-2.6,3.99-4.05,2.27-2.69,4.18-5.64,5.67-8.83,1.7-.73,3.35-1.55,4.97-2.49,2.63-1.53,5.11-2.24,7.99-3.04,4.44-1.24,8.75-3.11,12.77-5.35,7.74-4.3,14.53-10.12,21.03-16.09,6.67-6.13,13.1-12.6,20.42-17.97,6.2-4.55,21-15.14,27.61-6.3.4.54.9.86,1.43,1.03-1.93,9.07.01,18.84,3.4,27.34,1.59,3.99,3.95,7.14,6.76,9.85-.35.45-.56.99-.49,1.58.61,4.88,1.24,9.77,3.4,14.24,1.14,2.35,2.74,4.35,4.67,5.98-.06.17-.15.3-.18.5-3.7,25.91-6.2,56.47-24.57,76.84-4.7,5.21-10.35,9.38-16.72,12.33-9.23,4.27-20.53,4.68-30.46,3.23-7.47-1.09-14.92-2.79-21.21-7.18-7.38-5.14-12.53-13.03-16.45-20.97-4.72-9.58-6.85-19.83-9.01-30.21Z"></path>
        <path class="cls-7" d="M72.04,421.47c.96-13.32,1.92-26.64,2.87-39.97.25-3.49,5.71-3.51,5.46,0-.96,13.32-1.92,26.64-2.87,39.97h79.13c-.88-12.52-2.37-24.99-4.54-37.36-3.83-21.82-10.19-42.77-16.99-63.81-3.32-10.27-6.84-20.77-8.59-31.45-1.1-6.71.23-16.44,7.81-18.12-.02-.48-.05-.97-.07-1.45-.23.19-.47.37-.7.56-.98.78-2.1.77-3.01.36-7.23,2.47-14.46,4.94-21.68,7.42-1.06.36-2.83.58-3.69,1.31-.73.62-.39.65-.78,1.51-.61,1.32-.83,2.18-2.04,3.13-2.98,2.35-7.21,3.71-10.61,5.35-14.05,6.76-28.34,12.75-42.67,18.85-6.88,2.93-12.71,6.55-16.67,13.07-3.75,6.18-6.44,13.07-8.5,19.98-7.8,26.16-5.79,53.73-8.1,80.65h56.24Z"></path>
        <path class="cls-6" d="M98.57,328.08c3.08.76,6.18,1.46,9.26,2.19,3.46.82,6.92,1.64,10.38,2.46-2.13,4.75-4.29,9.49-6.36,14.28-.89,2.07-1.5,4.27-.51,6.43,1.08,2.36,3.56,4.31,5.32,6.17,8.34,8.82,16.68,17.64,25.03,26.46,2.42,2.56,6.28-1.31,3.86-3.86l-21.45-22.68c-1.67-1.76-3.34-3.53-5.01-5.29-.68-.72-2.39-1.94-2.69-2.88-.39-1.22.72-2.83,1.19-3.88,2-4.49,4.01-8.98,6.01-13.46.92.22,1.84.44,2.76.65,3.42.81,4.88-4.46,1.45-5.27-5.33-1.26-10.67-2.53-16-3.79-2.81-.66-5.61-1.33-8.42-1.99-.81-.19-2.16-.78-3.15-.89.24-.54.34-1.27.49-1.77,3.31-10.66,6.62-21.32,9.94-31.98,1.05-3.36-4.23-4.8-5.27-1.45-1.89,6.09-3.79,12.18-5.68,18.27-.9,2.91-1.81,5.81-2.71,8.72-.87,2.8-2.43,6.02-2.66,8.94-.22,2.84,1.79,4.03,4.22,4.62Z"></path>
        <path class="cls-6" d="M225.21,334.66c.92-.22,1.84-.44,2.76-.65,2,4.49,4.01,8.98,6.01,13.46.47,1.06,1.58,2.66,1.19,3.88-.3.94-2.02,2.17-2.69,2.88-1.67,1.76-3.34,3.53-5.01,5.29-7.15,7.56-14.3,15.12-21.45,22.68-2.42,2.55,1.44,6.42,3.86,3.86,8.34-8.82,16.68-17.64,25.03-26.46,1.72-1.82,3.93-3.63,5.15-5.83,1.14-2.06.67-4.31-.17-6.37-2.03-4.94-4.31-9.8-6.52-14.67,3.46-.82,6.91-1.64,10.37-2.46,2.95-.7,5.89-1.4,8.84-2.09,2.56-.61,4.89-1.63,4.64-4.72-.22-2.79-1.7-5.85-2.53-8.52-.95-3.05-1.89-6.09-2.84-9.14-1.89-6.09-3.79-12.18-5.68-18.27-1.04-3.35-6.31-1.92-5.27,1.45,3.31,10.66,6.62,21.32,9.94,31.98.17.55.34,1.11.52,1.66.02.05.03.1.05.16-1.15.27-2.94.77-3.23.84-2.67.63-5.33,1.26-8,1.89-5.47,1.3-10.95,2.59-16.42,3.89-3.42.81-1.97,6.08,1.45,5.27Z"></path>
        <path class="cls-6" d="M158.73,154.16c3.36,1.06,4.8-4.21,1.45-5.27-9.52-3.01-19.8-2.24-28.87,1.85-1.34.61-1.67,2.56-.98,3.74.81,1.38,2.39,1.59,3.74.98,7.73-3.49,16.61-3.85,24.67-1.3Z"></path>
        <path class="cls-6" d="M192.16,154.16c8.05-2.54,16.94-2.18,24.66,1.3,1.34.61,2.94.39,3.74-.98.68-1.17.37-3.13-.98-3.74-9.07-4.09-19.35-4.86-28.87-1.85-3.34,1.06-1.91,6.33,1.45,5.27Z"></path>
        <path class="cls-6" d="M149.34,162.72c-.29-.31-.64-.58-1.02-.76-.76-.35-1.6-.58-2.44-.31-.87.28-1.61.93-1.95,1.79-.36.33-.68.72-.85,1.24-.5,1.53-.52,3.21-.17,4.78.45,2.04,1.75,4.18,4.07,4.27.86.03,1.72-.37,2.33-.95.52-.48.76-1.1,1.02-1.74.3-.77.42-1.57.52-2.38.07-.59.07-1.18,0-1.77-.1-.84-.22-1.65-.53-2.44-.26-.67-.49-1.21-.99-1.74Z"></path>
        <path class="cls-6" d="M148.74,165.88c.09-.15.18-.3.23-.46-.05.12-.1.24-.15.36-.03.03-.05.07-.08.1Z"></path>
        <path class="cls-6" d="M206.52,162.72c-.29-.31-.64-.58-1.02-.76-.76-.35-1.6-.58-2.44-.31-.87.28-1.61.93-1.95,1.79-.36.33-.68.72-.85,1.24-.5,1.53-.52,3.21-.17,4.78.45,2.04,1.75,4.18,4.07,4.27.86.03,1.72-.37,2.33-.95.52-.48.76-1.1,1.02-1.74.3-.77.43-1.57.52-2.38.07-.59.07-1.18,0-1.77-.1-.84-.22-1.65-.53-2.44-.26-.67-.49-1.21-.99-1.74Z"></path>
        <path class="cls-6" d="M205.92,165.88c.09-.15.18-.3.23-.46-.05.12-.1.24-.15.36-.03.03-.05.07-.08.1Z"></path>
        <path class="cls-6" d="M177.71,200.1s.19-.1.31-.15c.12-.05.37-.15.37-.15.35-.13.7-.26,1.05-.39.78-.3,1.59-.61,2.28-1.09.93-.64,1.69-1.5,2.01-2.61.36-1.27,0-2.52-.25-3.77-.83-4.16-.91-8.53-.39-12.81.18-1.47-1.38-2.73-2.73-2.73-1.63,0-2.55,1.26-2.73,2.73-.5,4.07-.38,8.12.22,12.17.13.9.3,1.79.49,2.68-.11.06-.21.11-.32.16-.09.03-.49.19-.6.23-.83.31-1.66.62-2.45,1.03-1.31.68-1.7,2.51-.98,3.74.78,1.33,2.42,1.66,3.74.98Z"></path>
        <path class="cls-6" d="M178.74,193.75s0,0,0,0c.1-.07.15-.08,0,0Z"></path>
        <path class="cls-6" d="M156.78,221.64c13.29,2.73,26.92,2.7,40.2-.12,3.44-.73,1.98-6-1.45-5.27-12.28,2.61-25,2.65-37.3.12-3.43-.71-4.9,4.56-1.45,5.27Z"></path>
        <path class="cls-6" d="M183.58,230.08c-.98.3-1.97.53-2.98.7-.11.02-.23.04-.34.05-.04,0-.03,0-.1.01-.23.02-.47.05-.7.07-.51.04-1.02.07-1.53.07-1.02.02-2.03-.06-3.04-.16-.11-.02-.22-.03-.33-.05-.23-.04-.46-.08-.69-.13-.54-.11-1.07-.24-1.6-.38-1.38-.37-3.03.46-3.36,1.91-.33,1.44.43,2.96,1.91,3.36,4.64,1.25,9.62,1.2,14.22-.2,1.37-.41,2.37-1.93,1.91-3.36-.45-1.38-1.9-2.35-3.36-1.91Z"></path>
        <g>
          <path class="cls-5" d="M143.48,334.35c1.58,2.94,2.73,6.11,3.6,9.42h56.79c.86-2.27,1.79-4.52,2.79-6.75v-2.67h-63.18Z"></path>
          <path class="cls-5" d="M149.03,353.63c.47,3.17.84,6.33,1.25,9.42h47.83c.71-3.17,1.54-6.31,2.45-9.42h-51.54Z"></path>
        </g>
        <g>
          <path class="cls-3" d="M124.09,359.53c-1.67-1.76-3.34-3.53-5.01-5.29-.68-.72-2.39-1.94-2.69-2.88-.39-1.22.72-2.83,1.19-3.88,2-4.49,4.01-8.98,6.01-13.46.92.22,1.84.44,2.76.65,3.42.81,4.88-4.46,1.45-5.27-5.33-1.26-10.67-2.53-16-3.79-2.81-.66-5.61-1.33-8.42-1.99-.8-.19-2.14-.79-3.13-.91.23-.53.32-1.26.47-1.75,3.31-10.66,6.63-21.32,9.94-31.98,1.05-3.36-4.23-4.8-5.27-1.45-1.89,6.09-3.79,12.18-5.68,18.27-.9,2.91-1.81,5.81-2.71,8.72-.87,2.8-2.43,6.02-2.66,8.94-.22,2.84,1.78,4.03,4.22,4.62,3.08.76,6.18,1.46,9.26,2.19,3.46.82,6.92,1.64,10.38,2.46-2.14,4.75-4.3,9.49-6.36,14.28-.89,2.07-1.5,4.27-.51,6.43,1.08,2.36,3.56,4.31,5.32,6.17,8.34,8.82,16.68,17.64,25.03,26.46,2.42,2.56,6.28-1.31,3.86-3.86-7.15-7.56-14.3-15.12-21.45-22.68Z"></path>
          <path class="cls-3" d="M254.69,314.94c-.95-3.05-1.89-6.09-2.84-9.14-1.89-6.09-3.79-12.18-5.68-18.27-1.04-3.35-6.31-1.92-5.27,1.45,3.31,10.66,6.63,21.32,9.94,31.98.17.55.34,1.11.52,1.66.02.05.03.1.05.15-1.15.27-2.94.77-3.23.84-2.67.63-5.33,1.26-8,1.89-5.47,1.3-10.95,2.59-16.42,3.89-3.42.81-1.97,6.08,1.45,5.27.92-.22,1.84-.44,2.76-.65,2,4.49,4.01,8.98,6.01,13.46.47,1.06,1.58,2.66,1.19,3.88-.3.94-2.02,2.17-2.69,2.88-1.67,1.76-3.34,3.53-5.01,5.29-7.15,7.56-14.3,15.12-21.45,22.68-2.42,2.55,1.44,6.42,3.86,3.86,8.34-8.82,16.68-17.64,25.03-26.46,1.72-1.82,3.93-3.63,5.15-5.83,1.14-2.06.67-4.31-.17-6.37-2.03-4.94-4.32-9.8-6.53-14.67,3.46-.82,6.92-1.64,10.38-2.46,2.95-.7,5.89-1.4,8.84-2.09,2.56-.61,4.89-1.63,4.64-4.72-.22-2.79-1.7-5.85-2.53-8.52Z"></path>
          <path class="cls-3" d="M323.31,313.8c-4.89-6.04-11.82-9.22-18.86-12.09-15.98-6.51-31.67-13.6-47.14-21.24-1.34-.66-1.83-.69-2.53-2.03-.43-.82-.29-1.62-.93-2.45-.83-1.09-1.98-1.72-3.23-2.23-3.44-1.41-7.07-2.45-10.59-3.66-7.64-2.63-15.27-5.27-22.91-7.88.35-6.97.8-13.94.96-20.91.01-.52-.1-.96-.3-1.33,7.37-8.45,12.32-18.92,15.77-29.56.68-2.09,1.3-4.2,1.87-6.31.57.67,1.47.99,2.59.55,8.46-3.31,12.44-12.64,13.22-21.16.35-3.87.07-7.9-.87-11.7,10.73-9.91,22.34-26.41,18.11-41.58,3.9-4.39,4.86-9.64-.34-13.91-2.64-2.17-5.02-3.44-5.64-7.08-.68-3.97-.93-7.38-2.38-11.21-4.66-12.29-10.67-32.63-26.52-33.41-13.08-19.09-37.09-22.6-58.44-18.48-22.45,4.33-43.1,15.56-58.41,32.54-4.07,4.51-7.93,9.21-12.06,13.66-3.88,4.19-9.62,11.76-15.94,11.13-1.43-.14-2.79,1.37-2.73,2.73.26,6.26,1.71,12.25,4.34,17.86,0,0,0,0-.01,0-1.6-.3-3.61.73-3.46,2.63,1.1,13.95,3.27,30.27,16.74,37.73-.93,1.59-1.62,3.35-2.17,4.98-1.5,4.48-2.01,9.42-1.57,14.12.78,8.52,4.76,17.85,13.22,21.16,1.24.49,2.22.03,2.77-.8,1.45,6.5,3.17,12.92,5.87,19.08,2.83,6.45,6.32,12.77,10.83,18.23-.14.42-.18.9-.08,1.43,1.07,5.68,1.17,11.59,1.42,17.35.05,1.19.1,2.37.14,3.56-.34-.05-.69-.02-1.05.1-7.9,2.7-15.81,5.41-23.71,8.11-2.73.93-6.62,1.56-8.72,3.72-1.04,1.07-.89,2.4-1.65,3.54-1.02,1.51-4.14,2.43-5.79,3.23-14.72,7.14-29.6,13.72-44.72,19.97-6.66,2.75-13.1,5.92-17.73,11.63-4.44,5.48-7.35,12.27-9.8,18.83-5.12,13.73-7.16,28.38-8.2,42.92-1.08,15.29-1.03,30.65-2.35,45.92h5.46c2.31-26.91.29-54.49,8.09-80.65,2.06-6.91,4.74-13.8,8.5-19.98,3.96-6.52,9.8-10.14,16.67-13.07,14.33-6.1,28.63-12.1,42.67-18.85,3.41-1.64,7.63-3,10.61-5.35,1.21-.95,1.43-1.81,2.04-3.13.4-.86.05-.88.78-1.51.86-.73,2.63-.95,3.69-1.31,7.22-2.47,14.44-4.94,21.66-7.41.92.42,2.05.43,3.04-.36l.7-.56c.02.48.04.96.06,1.43-7.58,1.68-8.9,11.42-7.8,18.13,1.74,10.68,5.27,21.18,8.59,31.45,6.8,21.04,13.15,41.99,16.99,63.81,2.17,12.37,3.66,24.83,4.54,37.36h5.46c-1.78-25.27-6.05-50.37-12.95-74.75-2.43-8.58-5.25-17.03-8.01-25.51,10.93,3.61,22.86,4.53,34.27,4.58,11.57.06,23.36-.86,34.66-3.51-2.64,8.12-5.34,16.22-7.66,24.43-6.9,24.39-11.17,49.48-12.95,74.75h5.46c1.55-21.96,5.04-43.73,10.53-65.05,5.47-21.24,13.84-41.65,18.67-63.06,1.16-5.15,2.34-10.83.25-15.91-1.4-3.42-4.05-6.1-7.6-6.8.02-.79.05-1.58.08-2.37,1.4.62,2.85,1.16,4.12,2,1.03.68,2.04.54,2.78,0,3.53,1.22,7.07,2.43,10.6,3.65,3.09,1.06,6.17,2.13,9.26,3.19,1.4.48,3.34.84,4.62,1.58.97.56.81.21,1.27,1.21.43.95.21,1.49.84,2.38,1.69,2.4,5.23,3.42,7.76,4.64,3.93,1.91,7.88,3.8,11.83,5.66,7.34,3.45,14.73,6.79,22.19,9.94,7.15,3.02,14.91,5.38,21.42,9.69,6.64,4.4,10.26,11.93,13.2,19.09,5.68,13.86,7.96,28.8,9.04,43.66,1.13,15.49,1.06,31.04,2.39,46.51h5.46c-2.53-29.31-.02-59.62-10.14-87.73-2.5-6.94-5.53-14.17-10.21-19.95ZM245.78,183.5c-.53,5.75-3.27,13.5-9.14,15.86,2.61-10.87,4.18-21.99,5.74-33.07,1.29,1.77,2.04,4.46,2.48,6.08.99,3.62,1.26,7.4.92,11.14ZM92.56,129.38c1.06-.19,2.08-.59,3.11-1.25,1.26-.8,1.73-2.41.98-3.74-2.74-4.88-4.41-10.07-4.99-15.58,3.65-.6,6.78-2.91,9.59-5.4,3.85-3.4,7.33-7.2,10.73-11.04,7.07-8.01,13.81-16.6,22.54-22.89,18-12.95,42.39-22.05,64.8-19.12,11.75,1.53,22.98,7.26,29.71,17.22.12.17.24.32.37.45.23,1.12,1.08,2.06,2.57,2.02,6.91-.23,11.73,5.04,14.82,10.67,3.47,6.3,6.02,13.28,8.52,20.01,1.83,4.92.8,11.1,4.19,15.36,1.4,1.76,3.34,2.86,5.03,4.3,3.06,2.59,1.47,4.74-1.08,7.16-.66.63-1.01,1.77-.7,2.66,4.45,12.75-5.19,26.84-14.36,35.92-.81-1.75-1.85-3.44-3.2-4.72.24-.29.43-.63.52-.96.43-1.58-.54-2.79-1.91-3.36-1.15-.48-2.38-1.47-3.38-2.56-1-1.09-1.84-2.46-2.55-3.97-.63-1.35-1.23-3.49-1.6-5.23-.22-1.06-.4-2.13-.56-3.21,1.79,1.25,3.69,2.42,5.64,3.57,3.03,1.79,5.78-2.93,2.76-4.72-6.51-3.85-12.72-7.84-15.51-15.22-2.86-7.58-4.89-16.2-3.04-24.25.34-1.49-.47-2.61-1.55-3.12.04-.5-.1-1.05-.52-1.61-6.86-9.19-18.37-5.68-26.86-.97-8.64,4.79-16.09,11.43-23.28,18.12-7.2,6.7-14.3,13.66-22.62,18.99-4.25,2.72-8.77,5.03-13.59,6.57-2.64.84-5.4,1.26-7.93,2.42-.51.24-1.01.49-1.5.76.21-.28.41-.57.62-.86,4.73-6.73,9.02-13.76,13.59-20.6,4.64-6.94,9.5-13.75,15.07-19.98,2.6-2.9,5.35-5.67,8.27-8.26,3.23-2.85,6.84-6,11.34-6.19,3.5-.15,3.52-5.61,0-5.46-7.67.33-13.68,6.11-18.87,11.21-5.73,5.64-10.75,11.98-15.42,18.51-4.8,6.71-9.22,13.69-13.74,20.59-4.23,6.45-9.21,16.6-18.28,15.81-3.5-.3-3.48,5.16,0,5.46,2.55.22,4.87-.21,6.99-1.1-.57.93-1.18,1.84-1.84,2.72-.01.02-.07.09-.12.16-.07.09-.22.29-.25.32-.22.28-.45.55-.68.82-.49.57-.99,1.13-1.51,1.67-.27.28-.55.56-.83.83-1.26-.67-3.22,0-3.93,1.5-.26.12-.5.26-.74.41-.13-.09-.26-.18-.42-.26-11.27-5.88-13.39-19.02-14.4-30.63ZM114.55,199.39c-5.92-2.32-8.68-10.11-9.21-15.89-.33-3.63-.1-7.3.83-10.83.43-1.64,1.17-4.41,2.46-6.26,1.48,9.38,3.29,18.68,5.24,27.98.36,1.73.72,3.46,1.08,5.19-.13-.07-.26-.14-.4-.19ZM119.38,194.11c-2.07-9.96-4.04-19.9-5.61-29.95.19-.16.38-.32.57-.48,1.43-1.24,2.77-2.6,3.99-4.05,2.26-2.68,4.19-5.6,5.67-8.77,1.71-.73,3.34-1.6,4.97-2.55,2.63-1.53,5.11-2.24,7.99-3.04,4.44-1.24,8.75-3.11,12.77-5.35,7.74-4.3,14.53-10.12,21.03-16.09,6.67-6.13,13.1-12.6,20.42-17.97,6.2-4.55,21-15.14,27.61-6.3.4.53.89.86,1.41,1.03-1.93,9.07.03,18.84,3.42,27.35,1.59,3.99,3.93,7.16,6.75,9.87-.34.45-.54.99-.47,1.56.61,4.88,1.24,9.77,3.4,14.24,1.13,2.34,2.69,4.38,4.6,6.01-.05.15-.09.3-.11.47-3.7,25.91-6.2,56.47-24.57,76.84-4.7,5.21-10.35,9.38-16.72,12.33-9.23,4.27-20.53,4.68-30.46,3.23-7.47-1.09-14.92-2.79-21.21-7.18-7.38-5.14-12.53-13.03-16.45-20.97-4.73-9.58-6.85-19.83-9.01-30.21ZM213.92,310.19c-.61,2.01-1.25,4.01-1.88,6.02-.16.02-.32.04-.48.08-11.73,3.1-24.04,4.1-36.14,4.04-11.96-.06-24.35-1.09-35.62-5.37-.25-.1-.49-.15-.72-.17-.42-1.32-.83-2.64-1.24-3.97-1.51-4.93-11.26-31.3-3.16-34.55.04.44.07.88.11,1.32.32,3.47,5.78,3.51,5.46,0-.91-10-.47-20.2-1.57-30.2,5.96,5.02,13.05,7.95,20.71,9.48,9.78,1.95,19.67,2.38,29.49.44,8.12-1.61,15.49-5.39,21.92-10.56.58-.47,1.15-.95,1.71-1.45-.43,11.61-1.46,23.23-1.23,34.84.07,3.51,5.53,3.52,5.46,0-.03-1.32-.03-2.63-.03-3.95,8.41,2.86-1.26,29.04-2.78,34.01Z"></path>
          <path class="cls-3" d="M158.73,154.16c3.36,1.06,4.8-4.21,1.45-5.27-9.52-3.01-19.8-2.24-28.87,1.85-1.34.61-1.67,2.56-.98,3.74.81,1.38,2.39,1.59,3.74.98,7.73-3.49,16.61-3.85,24.66-1.3Z"></path>
          <path class="cls-3" d="M192.16,154.16c8.05-2.54,16.94-2.18,24.66,1.3,1.34.61,2.94.39,3.74-.98.68-1.17.37-3.13-.98-3.74-9.07-4.09-19.35-4.86-28.87-1.85-3.34,1.06-1.91,6.33,1.45,5.27Z"></path>
          <path class="cls-3" d="M150.32,164.46c-.26-.67-.49-1.21-.99-1.74-.29-.31-.64-.58-1.02-.76-.76-.35-1.6-.58-2.44-.31-.85.27-1.61.9-1.95,1.73-.37.33-.67.77-.84,1.3-.5,1.53-.52,3.21-.17,4.78.45,2.04,1.75,4.18,4.07,4.27.86.03,1.72-.37,2.33-.95.52-.48.76-1.1,1.02-1.74.3-.76.43-1.57.52-2.38.07-.59.07-1.18,0-1.77-.1-.84-.22-1.65-.53-2.44Z"></path>
          <path class="cls-3" d="M207.51,164.46c-.26-.67-.49-1.21-.99-1.74-.29-.31-.64-.58-1.02-.76-.76-.35-1.6-.58-2.44-.31-.85.27-1.61.9-1.95,1.73-.37.33-.67.77-.84,1.3-.5,1.53-.52,3.21-.17,4.78.45,2.04,1.75,4.18,4.07,4.27.86.03,1.72-.37,2.33-.95.52-.48.76-1.1,1.02-1.74.3-.76.43-1.57.52-2.38.07-.59.07-1.18,0-1.77-.1-.84-.22-1.65-.53-2.44Z"></path>
          <path class="cls-3" d="M177.71,200.1s.19-.1.3-.15c.12-.05.38-.16.37-.16.35-.13.7-.26,1.05-.39.78-.3,1.59-.61,2.28-1.09.93-.64,1.69-1.5,2.01-2.61.36-1.27,0-2.52-.25-3.77-.83-4.16-.91-8.53-.39-12.81.18-1.47-1.38-2.73-2.73-2.73-1.62,0-2.55,1.26-2.73,2.73-.5,4.07-.38,8.12.22,12.17.13.9.3,1.8.49,2.69-.1.05-.2.1-.3.15-.08.03-.51.2-.62.24-.83.31-1.66.62-2.45,1.03-1.31.68-1.7,2.51-.98,3.74.78,1.33,2.42,1.66,3.74.98ZM178.75,193.74s0,0,0,0c.1-.07.16-.08,0,0Z"></path>
          <path class="cls-3" d="M183.58,230.08c-.98.3-1.97.53-2.98.7-.11.02-.22.03-.33.05-.03,0-.07,0-.11.01-.23.02-.47.05-.7.07-.51.04-1.02.07-1.53.07-1.02.02-2.03-.06-3.04-.16-.11-.02-.22-.03-.33-.05-.23-.04-.46-.08-.69-.13-.54-.11-1.07-.24-1.6-.38-1.38-.37-3.03.46-3.36,1.91-.33,1.44.43,2.96,1.91,3.36,4.64,1.25,9.62,1.2,14.22-.2,1.37-.41,2.37-1.93,1.91-3.36-.45-1.38-1.9-2.35-3.36-1.91Z"></path>
          <path class="cls-3" d="M161.34,217.88c-.54,1.15-.29,3.15.77,3.74,5.52,3.05,11.06,5.39,17.16,5.15,5.27-.21,10.25-1.61,14.51-5.72.93-.9,1.39-2.35.77-3.74-.52-1.16-2.02-1.87-2.94-.98-3.7,3.57-7.76,4.79-12.34,4.97-5.31.22-10.16-1.74-14.99-4.4-1.07-.59-2.29-.39-2.94.98Z"></path>
        </g>
      </g>
    </g>
  </g>
</svg>
