<?xml version="1.0" encoding="UTF-8"?>
<svg xmlns="http://www.w3.org/2000/svg" xmlns:xlink="http://www.w3.org/1999/xlink" id="_レイヤー_2" data-name="レイヤー 2" viewBox="0 0 354 354">
  <defs>
    <style>
      .cls-1 {
        clip-path: url(#clippath);
      }

      .cls-2 {
        fill: none;
      }

      .cls-2, .cls-3, .cls-4, .cls-5, .cls-6, .cls-7 {
        stroke-width: 0px;
      }

      .cls-3 {
        fill: #4b4a4a;
      }

      .cls-4 {
        fill: #5e514f;
      }

      .cls-5 {
        fill: #5b5959;
      }

      .cls-6 {
        fill: #a5d081;
      }

      .cls-7 {
        fill: #fff;
      }
    </style>
    <clipPath id="clippath">
      <circle class="cls-2" cx="177" cy="177" r="177"></circle>
    </clipPath>
  </defs>
  <g id="_レイヤー_1-2" data-name="レイヤー 1">
    <g class="cls-1">
      <g>
        <g>
          <path class="cls-5" d="M143.35,329.82c3.65.79,5.22-4.83,1.55-5.62-7.81-1.68-14.95,3.89-20.98,8.15-3.66,2.59-7.15,5.46-10.03,8.84-1.79-14.12-3.58-28.25-5.37-42.37-.46-3.67-6.29-3.71-5.82,0,2.13,16.82,4.26,33.64,6.39,50.46.32,2.53,4,4.37,5.43,1.47,2.64-5.36,6.91-9.45,11.7-12.91,2.37-1.71,4.82-3.3,7.29-4.85,2.91-1.82,6.27-3.94,9.85-3.17Z"></path>
          <path class="cls-5" d="M243.85,298.83c-1.79,14.12-3.58,28.25-5.37,42.37-2.89-3.38-6.38-6.26-10.03-8.84-6.02-4.26-13.17-9.83-20.98-8.15-3.66.79-2.11,6.4,1.55,5.62,3.43-.74,6.65,1.2,9.47,2.93,2.61,1.61,5.19,3.3,7.67,5.09,4.79,3.46,9.07,7.55,11.7,12.91,1.43,2.9,5.11,1.07,5.43-1.47,2.13-16.82,4.26-33.64,6.39-50.46.47-3.71-5.36-3.67-5.82,0Z"></path>
          <path class="cls-3" d="M92.63,284.72c-1.21-.16-2.41-.41-3.58-.76-.59-.18-1.16-.37-1.74-.59-.1-.04-.21-.08-.31-.12-.17-.08-.35-.16-.52-.24,4.31-.92,8.3-3.81,11.04-7.52,5.48-7.44,8-17.12,8.86-26.18,1.93-20.16-5.35-38.9-10.25-58.06-9.57-37.4-12.25-79.45,6.56-114.56,4.02-7.51,9.08-14.54,15.64-20.04,7.55-6.33,16.33-8.91,25.87-10.46.98.51,2.21.5,3.21-.54,5.3-5.48,13.69-7.41,20.95-8.61,8.1-1.34,16.44-1.33,24.61-.6,18.99,1.71,36.23,9.37,48.76,23.93,11.56,13.42,18.25,30.67,20.95,48.04,3.45,22.16.35,44.72-1.72,66.86-1.4,14.92-4.07,33.36,2.51,47.38-.71-1-1.35-2.07-1.86-3.23-1.35-3.08-5.51-.99-5.25,1.95-.12.31-.22.63-.23,1.01-.48,20.01,12.6,42.71,2.2,61.73-6.29-2.9-12.59-5.8-18.88-8.7-1.09-.5-2.11-.28-2.91.25-.74.02-1.47.3-2.07.92-6.35-2.72-12.57-5.72-18.61-9.06-.14-.08-.3-.09-.45-.14,1.5-10.18,3.46-20.31,4.88-30.5.02-.15,0-.29,0-.43,3.52-2.68,6.88-5.56,9.35-9.14,2.78-4.03,4.03-8.89,5.36-13.53,1.45-5.04,2.81-10.11,4.09-15.19.05-.21.09-.42.15-.63.61-.04,1.23-.25,1.78-.83,4.06-4.23,8.19-8.74,10.82-14.04,2.73-5.51,2.85-11.63,4.62-17.43.1-.33.09-.63.09-.93,2.15-1.74.6-6-2.59-5.07-7.23,2.12-18.42,3.96-22.77-4.03-2.31-4.24-2.67-9.52-3-14.23-.33-4.7-.6-9.37-1.17-14.05-2.36-19.41-6.57-41.82-22.67-54.89-8.29-6.73-19.75-9.29-29.39-4.02-6.3-2.53-16.34,2.04-21.2,4.81-9.28,5.3-14.82,14.36-17.95,24.35-3.6,11.49-4.52,23.58-8.48,35-2.05,5.92-4.64,11.7-7.78,17.12-2.12,3.66-6.33,10.78-11.28,11.77-.6-.42-1.37-.62-2.27-.42-2.6.56-5.22,1.1-7.82,1.69-1.95.44-3.36,1.6-3.38,3.71-.02,2.48.85,5.26,1.66,7.58,1.53,4.36,4.23,8.49,6.83,12.29,2.59,3.79,5.52,7.36,8.74,10.64.35.35.72.57,1.1.71,1.89,7.79,4.07,15.5,6.74,22.93,2.82,7.85,8.39,12.46,14.84,17.37.41.31.82.63,1.22.95-.15.45-.23.94-.12,1.5,1.14,6.06,1.25,12.36,1.51,18.5.13,2.93.22,5.87.33,8.8-6.12,3.36-12.41,6.4-18.84,9.13-.25-.33-.54-.59-.85-.78-.84-.85-2.11-1.31-3.47-.68-7,3.23-14.01,6.45-21.01,9.68-.26-.18-.55-.32-.89-.36Z"></path>
          <path class="cls-6" d="M208.98,420.69c-.58-22.27-2.62-44.46-6.1-66.45-17.53-.25-35.05-.5-52.58-.75-3.55,22.23-5.63,44.67-6.22,67.2h64.9Z"></path>
          <path class="cls-7" d="M198.2,321.63c-.95,1.07-.92,2.34-.39,3.34-.14.45-.21.95-.09,1.51,1.57,7.28,2.95,14.59,4.2,21.92-16.88-.24-33.75-.48-50.63-.72,1.22-7.09,2.55-14.16,4.07-21.2.12-.57.05-1.06-.09-1.51.52-1,.55-2.26-.39-3.34-11.35-12.89-22.16-26.24-32.44-39.99,5.29-2.29,10.49-4.78,15.58-7.48.08,1.2.16,2.39.27,3.59.34,3.7,6.16,3.74,5.82,0-1.02-11.25-.45-22.74-1.88-33.96,3.69,2.86,7.43,5.65,11.42,8.09,6.22,3.8,13.29,6.97,20.67,7.37,7.02.38,13.92-2.03,20.11-5.15,6.75-3.4,12.88-7.92,18.89-12.48.16-.12.32-.23.47-.35-1.95,12.5-4.39,24.94-5.61,37.53-.36,3.73,5.47,3.7,5.82,0,.17-1.79.43-3.56.65-5.35,5.29,2.86,10.7,5.48,16.21,7.89-10.35,13.86-21.23,27.32-32.66,40.3Z"></path>
          <path class="cls-5" d="M100.66,166.55c.04-.05.02.02-.01.13,0-.01,0-.02,0-.03,0,.02,0,.02,0,.04,0,0,0,.02-.01.03,0-.07,0-.14.03-.17Z"></path>
          <path class="cls-7" d="M103.06,167.63c.7-.15,1.4-.3,2.1-.45.62.1,1.22.15,1.82.15,1.12,6.29,2.29,12.65,3.61,18.99-2.11-2.78-4.05-5.69-5.86-8.73-1.3-2.19-2.47-4.37-3.15-6.84-.24-.88-.47-1.77-.67-2.66.01,0,.03,0,.04,0,.7-.15,1.4-.3,2.1-.45Z"></path>
          <path class="cls-7" d="M112.65,165.93c5.86-2.99,10.25-10.08,13.13-15.4,1.72-3.18,3.2-6.46,4.58-9.78.15.39.35.75.62,1.03,1.22,1.22,2.87.97,4.12,0,5.61-4.39,12.75-5.45,19.37-3.4,1.5.46,3.17-.55,3.58-2.03.43-1.56-.53-3.12-2.03-3.58-4.27-1.32-8.75-1.56-13.14-.74-4.08.76-7.76,2.62-11.07,5.06,2.24-5.97,4.02-12.12,5.29-18.39,2.21-10.93,3.65-22.64,10.24-31.99,3.15-4.47,7.54-7.81,12.51-10.03,2.47-1.1,12.03-5.31,13.98-1.97,1.68,2.87,5.82.88,5.39-1.88,9.38-4.14,19.49,1.17,25.85,8.49,6.93,7.97,10.8,18.01,13.16,28.18,2.12,9.12,3.27,18.48,3.88,27.82-3.38-2.54-7.17-4.48-11.37-5.27-4.39-.82-8.87-.57-13.14.74-1.5.46-2.46,2.03-2.03,3.58.41,1.48,2.07,2.5,3.58,2.03,6.63-2.05,13.76-.98,19.37,3.4,1.16.91,2.7,1.13,3.88.15.49,7.62,1.51,16.33,7.6,21.29,2.87,2.34,6.32,3.46,9.94,3.85-3,16.34-6.76,32.56-11.53,48.47-1.09,3.63-2.32,7.17-4.82,10.09-2.61,3.06-5.95,5.39-9.14,7.81-5.26,3.99-10.46,8.07-16.04,11.62-5.7,3.62-11.91,6.95-18.65,8.05-7.28,1.19-14.36-1.29-20.67-4.79-6.33-3.52-12.01-8.05-17.71-12.5-5.99-4.67-12.85-8.81-15.7-16.2-3.27-8.5-5.24-17.75-7.38-26.59-2.17-8.98-4.04-18.02-5.69-27.11Z"></path>
          <path class="cls-7" d="M245.86,167.15c1.48-.12,2.94-.36,4.38-.63-1.02,4.57-1.32,9.39-3.41,13.61-1.38,2.79-3.22,5.31-5.22,7.69,1.55-6.86,3-13.75,4.25-20.67Z"></path>
          <path class="cls-7" d="M72.88,420.69c.84-11.71,1.68-23.42,2.53-35.12.27-3.72,6.09-3.74,5.82,0-.84,11.71-1.68,23.42-2.53,35.12h59.56c.83-32.19,4.68-64.26,11.47-95.75.02-.1.08-.15.11-.24-12.19-13.89-23.77-28.31-34.73-43.18-13.78,6.35-27.56,12.7-41.34,19.04-6.04,2.78-12.34,5.3-18.08,8.69-5.41,3.19-9.01,7.57-11.73,13.18-5.38,11.08-8.37,23.32-10.21,35.45-3.15,20.78-2.74,41.85-3.86,62.8h43Z"></path>
          <path class="cls-7" d="M214.81,420.69h63.42c-.84-11.71-1.68-23.42-2.53-35.12-.27-3.75,5.56-3.72,5.82,0,.84,11.71,1.68,23.42,2.53,35.12h40.07c-.55-9.98-.78-19.98-1.17-29.98-.49-12.65-1.26-25.34-3.52-37.82-2.12-11.71-5.27-24.3-11.59-34.53-3.33-5.39-8.27-8.67-13.85-11.43-6.27-3.1-12.7-5.9-19.05-8.82-12.08-5.57-24.16-11.13-36.24-16.7-.33.83-1.13,1.56-2.02,1.82-10.59,14.26-21.73,28.1-33.44,41.46.03.09.08.14.11.24,6.8,31.49,10.64,63.56,11.47,95.75Z"></path>
          <path class="cls-5" d="M146.03,162.12c.92.04,1.83-.4,2.49-1.01.56-.52.81-1.17,1.08-1.85.32-.82.45-1.67.55-2.54.07-.63.08-1.25,0-1.88-.1-.89-.24-1.76-.57-2.6-.28-.71-.52-1.29-1.05-1.86-.31-.33-.68-.62-1.09-.81-.81-.38-1.71-.61-2.6-.33-.93.29-1.72.99-2.08,1.9-.39.35-.72.77-.9,1.32-.54,1.64-.55,3.42-.18,5.09.48,2.18,1.87,4.46,4.34,4.55Z"></path>
          <path class="cls-5" d="M147.91,153.75c.1-.16.19-.32.25-.49-.05.13-.11.26-.16.38-.03.04-.06.07-.08.11Z"></path>
          <path class="cls-5" d="M207,162.12c.92.04,1.83-.4,2.49-1.01.56-.52.81-1.17,1.08-1.85.32-.82.45-1.67.55-2.54.07-.63.08-1.25,0-1.88-.1-.89-.24-1.76-.57-2.6-.28-.71-.52-1.29-1.05-1.86-.31-.33-.68-.62-1.09-.81-.81-.38-1.71-.61-2.6-.33-.93.29-1.72.99-2.08,1.9-.39.35-.72.77-.9,1.32-.54,1.64-.55,3.42-.18,5.09.48,2.18,1.87,4.46,4.34,4.55Z"></path>
          <path class="cls-5" d="M208.88,153.75c.1-.16.19-.31.25-.49-.05.13-.11.25-.16.38-.03.04-.06.07-.08.11Z"></path>
          <path class="cls-5" d="M177.48,183.01c.29.27.58.44.88.58,0,.07,0,.16,0,.22-.05.69-.08,1.38-.17,2.06-.15,1.18-.48,2.22-1.13,3.21-2.06,3.14,2.98,6.06,5.03,2.94,1.53-2.34,1.85-5.02,2.06-7.75.09-1.25.3-2.46-.17-3.65-.26-.65-.66-1.19-1.24-1.6-.37-.26-.73-.43-1.17-.55-.06-.67-.05-1.36-.05-2.03,0-1.39.04-2.78.13-4.17.18-2.96.51-5.91.8-8.86.15-1.57-1.45-2.91-2.91-2.91-1.7,0-2.76,1.34-2.91,2.91-.39,3.99-.86,7.98-.92,11.99-.02,1.7-.14,3.63.37,5.27.27.88.73,1.71,1.41,2.34Z"></path>
          <path class="cls-5" d="M181.57,224.01c-.22.11-.46.24-.69.32-.05.01-.1.03-.13.04-.44.16-.89.3-1.35.42-.19.05-.39.09-.58.13-.13.03-.26.05-.39.07-.32.05-.26.05.19-.02-.12.16-1.07.09-1.28.1-.43.01-.85,0-1.28-.03-.13,0-.26-.02-.39-.04-.12-.01-.13-.01-.14-.02-.12-.03-.24-.06-.26-.06-.46-.09-.91-.21-1.36-.35-.19-.06-.39-.13-.58-.2-.13-.05-.26-.1-.38-.15.07.03.06.03.11.05-.74-.32-1.42-.51-2.23-.29-.68.19-1.41.71-1.74,1.34-.67,1.26-.44,3.33,1.04,3.98,2.29,1.01,4.68,1.64,7.2,1.58,2.53-.06,4.92-.75,7.18-1.86,1.37-.68,1.86-2.73,1.04-3.98-.9-1.4-2.52-1.77-3.98-1.04Z"></path>
          <path class="cls-5" d="M175.52,224.99c.05,0,.13.02.32.04-.02.02-.17,0-.32-.04Z"></path>
          <path class="cls-4" d="M161.47,211.91c-.52,1.15-.28,3.15.74,3.74,5.33,3.05,10.68,5.39,16.57,5.15,5.09-.21,9.9-1.61,14.02-5.72.9-.9,1.35-2.35.74-3.74-.5-1.16-1.95-1.87-2.84-.98-3.58,3.57-7.5,4.79-11.92,4.97-5.13.22-9.82-1.74-14.48-4.4-1.04-.59-2.22-.39-2.84.98Z"></path>
        </g>
        <path class="cls-4" d="M143.35,329.82c3.65.79,5.22-4.83,1.55-5.62-7.81-1.68-14.95,3.89-20.98,8.15-3.66,2.59-7.15,5.46-10.03,8.84-1.79-14.12-3.58-28.25-5.37-42.37-.46-3.67-6.29-3.71-5.82,0,2.13,16.82,4.26,33.64,6.39,50.46.32,2.53,4,4.37,5.43,1.47,2.64-5.36,6.91-9.45,11.7-12.91,2.37-1.71,4.82-3.3,7.29-4.85,2.91-1.82,6.27-3.94,9.85-3.17Z"></path>
        <path class="cls-4" d="M243.85,298.83c-1.79,14.12-3.58,28.25-5.37,42.37-2.89-3.38-6.38-6.25-10.03-8.84-6.02-4.26-13.17-9.83-20.98-8.15-3.66.79-2.11,6.4,1.55,5.62,3.43-.74,6.65,1.2,9.47,2.93,2.61,1.61,5.19,3.3,7.67,5.09,4.79,3.46,9.07,7.55,11.7,12.91,1.43,2.9,5.11,1.07,5.43-1.47,2.13-16.82,4.26-33.64,6.39-50.46.47-3.71-5.36-3.67-5.82,0Z"></path>
        <path class="cls-4" d="M29.92,420.69c1.11-20.95.68-42.02,3.83-62.8,1.84-12.13,4.83-24.37,10.21-35.45,2.72-5.61,6.32-9.99,11.73-13.18,5.74-3.39,12.03-5.91,18.08-8.69,13.78-6.35,27.55-12.69,41.33-19.04,10.96,14.86,22.53,29.26,34.71,43.15-.03.09-.05.17-.07.27-6.8,31.49-10.64,63.56-11.48,95.75h5.82c.59-22.52,2.66-44.97,6.21-67.2,17.53.25,35.07.5,52.6.75,3.48,21.99,5.51,44.18,6.09,66.45h5.82c-.83-32.19-4.68-64.26-11.48-95.75-.02-.09-.05-.18-.07-.27,11.71-13.35,22.85-27.17,33.43-41.42.89-.26,1.68-.99,2.01-1.81,12.08,5.56,24.15,11.13,36.23,16.69,6.35,2.93,12.78,5.73,19.05,8.82,5.58,2.76,10.52,6.04,13.85,11.43,6.32,10.22,9.47,22.81,11.59,34.53,2.26,12.48,3.03,25.17,3.52,37.82.39,9.99.59,19.99,1.13,29.98h5.82c-1.2-21.89-.78-43.89-4.22-65.6-1.99-12.56-5.3-25.25-11.12-36.63-6.08-11.88-17.21-16.4-28.74-21.71l-22.13-10.2c9.58-18.01.54-37.57-1.39-56.57,3.52,2.98,7.96,4.82,12.73,5.32,3.19.33,3.52-3.93,1.47-5.43-8.83-6.46-11.25-17.78-11.35-28.12-.11-11.19,1.24-22.45,2.33-33.57,2.19-22.25,4.39-44.83-.18-66.94-3.53-17.08-11.08-33.69-22.89-46.65-12.85-14.1-30.11-21.6-48.89-23.74-9.54-1.09-19.22-1.02-28.69.55-7.8,1.29-16.4,3.59-22.41,9.04-.32-.06-.67-.06-1.04,0-8.4,1.31-16.42,3.3-23.63,7.97-6.08,3.94-11.17,9.11-15.49,14.89-9.06,12.14-14.61,26.9-17.92,41.59-4.43,19.65-4.28,39.94-1.48,59.81,1.46,10.36,3.65,20.61,6.33,30.72,2.54,9.59,5.82,18.98,7.75,28.73,2.12,10.73,2.9,22.05.33,32.77-1.77,7.39-8.65,26.07-19.6,19.42-2.75-1.67-5.28,1.77-3.96,4.02-.21.94.01,1.95.75,2.68,2.52,2.5,5.58,4.49,8.89,5.8-3.96,1.83-7.93,3.65-11.89,5.48-11.23,5.17-24.55,9.37-31.71,20.14-6.87,10.33-10.3,23.61-12.58,35.65-2.38,12.55-3.31,25.32-3.86,38.06-.46,10.84-.65,21.69-1.23,32.53h5.82ZM198.2,321.63c-.93,1.06-.93,2.31-.43,3.3-.15.46-.18.98-.06,1.55,1.57,7.28,2.97,14.59,4.22,21.92-16.89-.24-33.79-.48-50.68-.72,1.22-7.09,2.58-14.16,4.1-21.2.12-.57.09-1.09-.06-1.55.5-.99.51-2.24-.43-3.3-11.35-12.88-22.18-26.21-32.46-39.97,5.3-2.29,10.5-4.77,15.6-7.48.08,1.19.16,2.37.27,3.56.34,3.7,6.16,3.74,5.82,0-1.02-11.24-.45-22.73-1.88-33.95,3.69,2.86,7.43,5.65,11.41,8.08,6.22,3.8,13.29,6.97,20.67,7.37,7.02.38,13.92-2.03,20.11-5.15,6.75-3.4,12.88-7.92,18.89-12.48.17-.13.34-.26.51-.38-1.95,12.51-4.42,24.96-5.64,37.56-.36,3.73,5.47,3.7,5.82,0,.17-1.79.37-3.58.59-5.36,5.32,2.87,10.75,5.51,16.29,7.92-10.35,13.86-21.25,27.3-32.69,40.28ZM156.02,132.76c-4.27-1.32-8.75-1.56-13.14-.74-4.02.75-7.68,2.55-10.96,4.94,2.21-5.93,3.92-12.04,5.18-18.27,2.21-10.93,3.65-22.64,10.24-31.99,3.15-4.47,7.54-7.81,12.51-10.03,2.47-1.1,12.03-5.31,13.98-1.97,1.69,2.88,5.86.87,5.41-1.9,9.38-4.12,19.47,1.2,25.83,8.5,6.93,7.97,10.8,18.01,13.16,28.18,2.11,9.11,3.29,18.47,3.9,27.8-3.38-2.55-7.19-4.47-11.38-5.25-4.39-.82-8.87-.57-13.14.74-1.5.46-2.46,2.03-2.03,3.58.41,1.48,2.07,2.5,3.58,2.03,6.63-2.05,13.76-.98,19.37,3.4,1.16.91,2.7,1.17,3.89.21.49,7.61,1.52,16.29,7.59,21.23,2.88,2.34,6.33,3.5,9.96,3.89-3,16.33-6.78,32.53-11.54,48.43-1.09,3.63-2.32,7.17-4.82,10.09-2.61,3.06-5.95,5.39-9.14,7.81-5.26,3.99-10.46,8.07-16.04,11.62-5.7,3.62-11.91,6.95-18.65,8.05-7.28,1.19-14.36-1.29-20.67-4.79-6.33-3.52-12.01-8.05-17.71-12.5-5.99-4.67-12.85-8.81-15.7-16.2-3.27-8.5-5.24-17.75-7.38-26.59-2.17-8.97-4.06-18.01-5.71-27.09,5.87-2.98,10.27-10.1,13.14-15.42,1.7-3.15,3.24-6.38,4.61-9.68.14.35.35.67.6.92,1.22,1.22,2.87.97,4.12,0,5.61-4.39,12.75-5.45,19.37-3.4,1.5.46,3.17-.55,3.58-2.03.43-1.56-.53-3.12-2.03-3.58ZM97.52,275.47c5.48-7.44,8-17.12,8.86-26.18,1.93-20.16-5.35-38.9-10.25-58.06-9.57-37.4-12.25-79.45,6.56-114.56,4.02-7.51,9.08-14.54,15.64-20.04,7.54-6.33,16.31-8.91,25.84-10.46.99.53,2.22.51,3.24-.54,5.3-5.48,13.69-7.41,20.95-8.61,8.1-1.34,16.44-1.33,24.61-.6,18.99,1.71,36.23,9.37,48.76,23.93,11.56,13.42,18.25,30.67,20.95,48.04,3.45,22.16.35,44.72-1.72,66.86-1.4,14.96-4.09,33.45,2.56,47.49-.74-1.03-1.39-2.14-1.91-3.34-1.35-3.09-5.55-.99-5.29,1.95-.11.3-.18.64-.19,1.01-.48,20.01,12.65,42.72,2.24,61.75-6.31-2.9-12.61-5.81-18.92-8.71-1.11-.51-2.17-.31-2.98.24-.74.03-1.47.33-2.05.96-6.34-2.71-12.53-5.76-18.56-9.1-.14-.08-.29-.14-.45-.2,1.5-10.17,3.47-20.28,4.88-30.44.02-.15.03-.3.04-.45,3.51-2.67,6.85-5.55,9.31-9.12,2.78-4.03,4.03-8.89,5.36-13.53,1.45-5.04,2.81-10.11,4.09-15.19.05-.19.1-.39.14-.58.61-.04,1.23-.3,1.79-.88,4.06-4.23,8.19-8.74,10.82-14.04,2.73-5.51,2.85-11.63,4.62-17.43.1-.33.15-.65.14-.95,2.09-1.76.53-5.97-2.64-5.05-7.23,2.12-18.42,3.96-22.77-4.03-2.31-4.24-2.67-9.52-3-14.23-.33-4.7-.6-9.37-1.17-14.05-2.36-19.41-6.57-41.82-22.67-54.89-8.29-6.73-19.75-9.29-29.39-4.03-6.3-2.53-16.35,2.05-21.2,4.82-9.28,5.3-14.82,14.36-17.95,24.35-3.6,11.49-4.52,23.58-8.48,35-2.05,5.92-4.64,11.7-7.78,17.12-2.12,3.66-6.32,10.78-11.27,11.77-.6-.42-1.38-.62-2.29-.42-2.61.56-5.22,1.1-7.82,1.69-1.95.44-3.36,1.6-3.38,3.71-.02,2.48.85,5.26,1.66,7.58,1.53,4.36,4.23,8.49,6.83,12.29,2.59,3.79,5.52,7.36,8.74,10.64.34.35.71.58,1.08.72,1.89,7.79,4.08,15.49,6.75,22.92,2.82,7.85,8.39,12.46,14.84,17.37.4.3.8.61,1.19.92-.15.45-.19.97-.09,1.53,1.14,6.06,1.25,12.36,1.51,18.5.13,2.93.22,5.88.33,8.82-6.11,3.36-12.39,6.43-18.81,9.15,0,0,0,0,0,0-.23-.32-.5-.56-.78-.75-.83-.9-2.16-1.38-3.56-.74-7,3.22-14,6.45-21,9.67-.26-.18-.56-.31-.9-.36-1.21-.16-2.41-.41-3.58-.76-.59-.18-1.16-.37-1.74-.59-.1-.04-.21-.08-.31-.12-.17-.08-.34-.16-.51-.24,4.31-.93,8.29-3.81,11.03-7.53ZM241.68,187.77c1.54-6.84,2.94-13.72,4.18-20.62,1.47-.12,2.93-.33,4.36-.61-1.01,4.56-1.32,9.37-3.4,13.58-1.37,2.77-3.17,5.28-5.15,7.64ZM110.6,186.36c-2.12-2.79-4.05-5.71-5.86-8.77-1.3-2.19-2.47-4.37-3.15-6.84-.24-.88-.47-1.77-.67-2.66h.04c.7-.16,1.4-.31,2.1-.46.68-.15,1.35-.29,2.03-.44.64.11,1.28.16,1.9.16,1.12,6.29,2.3,12.65,3.62,19Z"></path>
        <path class="cls-4" d="M100.66,166.55c.04-.06.03.02-.01.14,0-.01,0-.03,0-.04,0,.02,0,.03,0,.04,0,.01,0,.03-.01.04,0-.07,0-.15.03-.18Z"></path>
        <path class="cls-4" d="M149.6,152.24c-.28-.71-.52-1.29-1.05-1.86-.31-.33-.68-.62-1.09-.81-.81-.38-1.71-.61-2.6-.33-.91.29-1.72.96-2.08,1.85-.4.35-.71.82-.89,1.38-.54,1.64-.55,3.42-.18,5.09.48,2.18,1.87,4.46,4.34,4.55.92.04,1.83-.4,2.49-1.01.56-.52.81-1.17,1.08-1.85.32-.82.45-1.67.55-2.54.07-.63.08-1.25,0-1.88-.1-.89-.24-1.76-.57-2.6Z"></path>
        <path class="cls-4" d="M207,162.12c.92.04,1.83-.4,2.49-1.01.56-.52.81-1.17,1.08-1.85.32-.82.45-1.67.55-2.54.07-.63.08-1.25,0-1.88-.1-.89-.24-1.76-.57-2.6-.28-.71-.52-1.29-1.05-1.86-.31-.33-.68-.62-1.09-.81-.81-.38-1.71-.61-2.6-.33-.91.29-1.72.96-2.08,1.85-.4.35-.71.82-.89,1.38-.54,1.64-.55,3.42-.18,5.09.48,2.18,1.87,4.46,4.34,4.55Z"></path>
        <path class="cls-4" d="M177.48,183.01c.29.27.58.45.89.59,0,.07,0,.14,0,.2-.05.69-.08,1.38-.17,2.06-.15,1.18-.48,2.22-1.13,3.21-2.06,3.14,2.98,6.06,5.03,2.94,1.53-2.34,1.85-5.02,2.06-7.75.09-1.25.3-2.46-.17-3.65-.26-.65-.66-1.19-1.24-1.6-.37-.26-.73-.44-1.17-.56-.06-.67-.04-1.35-.05-2.02,0-1.39.04-2.78.13-4.17.18-2.96.51-5.91.8-8.86.15-1.57-1.45-2.91-2.91-2.91-1.7,0-2.76,1.34-2.91,2.91-.39,3.99-.86,7.98-.92,11.99-.02,1.7-.14,3.63.37,5.27.27.88.73,1.71,1.41,2.34Z"></path>
        <path class="cls-4" d="M181.57,224.01c-.19.09-.39.21-.6.3-.09.02-.18.05-.22.07-.44.16-.89.3-1.35.42-.19.05-.39.09-.58.13-.13.03-.26.05-.39.07-.32.05-.26.05.19-.02-.12.16-1.07.09-1.28.1-.43.01-.85,0-1.28-.03-.13,0-.26-.02-.39-.04-.07,0-.12-.01-.15-.02-.12-.03-.23-.06-.25-.06-.46-.09-.91-.21-1.36-.35-.19-.06-.39-.13-.58-.2-.13-.05-.25-.09-.38-.14-.7-.29-1.35-.46-2.12-.24-.68.19-1.41.71-1.74,1.34-.67,1.26-.44,3.33,1.04,3.98,2.29,1.01,4.68,1.64,7.2,1.58,2.53-.06,4.92-.75,7.18-1.86,1.37-.68,1.86-2.73,1.04-3.98-.9-1.4-2.52-1.77-3.98-1.04ZM175.53,224.99c.06,0,.17.02.32.04-.02.02-.17,0-.32-.04Z"></path>
      </g>
    </g>
  </g>
</svg>
