<?xml version="1.0" encoding="UTF-8"?>
<svg id="_レイヤー_2" data-name="レイヤー 2" xmlns="http://www.w3.org/2000/svg" viewBox="0 0 118 134.59">
  <defs>
    <style>
      .cls-1 {
        fill: none;
        stroke: #c49500;
        stroke-miterlimit: 10;
        stroke-width: 4px;
      }

      .cls-2 {
        fill: #d6a700;
      }

      .cls-2, .cls-3, .cls-4, .cls-5 {
        stroke-width: 0px;
      }

      .cls-3 {
        fill: #dd6b1f;
      }

      .cls-4 {
        fill: #fff;
      }

      .cls-5 {
        fill: #f27c27;
      }
    </style>
  </defs>
  <g id="_レイヤー_1-2" data-name="レイヤー 1">
    <g>
      <g>
        <polygon class="cls-5" points="29.6 65.66 29.6 134.59 60.1 129.1 60.1 65.66 29.6 65.66"/>
        <polygon class="cls-3" points="60.1 65.66 60.1 129.1 60.1 129.1 90.6 134.59 90.6 65.66 60.1 65.66"/>
      </g>
      <polygon class="cls-2" points="118 56.13 109.42 72.51 106.73 90.81 90.15 99.01 77.24 112.25 59 109.13 40.76 112.25 27.85 99.01 11.27 90.81 8.58 72.51 0 56.13 8.58 39.74 11.27 21.44 27.85 13.24 40.76 0 59 3.13 77.24 0 90.15 13.24 106.73 21.44 109.42 39.74 118 56.13"/>
      <polygon class="cls-1" points="109.93 56.13 101.75 70.02 100.21 86.08 85.42 92.51 74.75 104.62 59 101.1 43.25 104.62 32.58 92.51 17.79 86.08 16.25 70.02 8.07 56.13 16.25 42.23 17.79 26.17 32.58 19.74 43.25 7.64 59 11.15 74.75 7.64 85.42 19.74 100.21 26.17 101.75 42.23 109.93 56.13"/>
      <path class="cls-4" d="M105.14,28.4c-5.76,1.08-6.26,1.95-6.88,11.98-.62-10.03-1.12-10.91-6.88-11.98,5.76-1.08,6.26-1.95,6.88-11.98.62,10.03,1.12,10.91,6.88,11.98Z"/>
      <path class="cls-4" d="M25.16,91.59c-3.13.58-3.4,1.06-3.73,6.5-.34-5.45-.61-5.92-3.73-6.5,3.13-.58,3.4-1.06,3.73-6.5.34,5.45.61,5.92,3.73,6.5Z"/>
      <path class="cls-4" d="M37.97,66.78h15.9c0,3.62,1.33,5.43,3.98,5.43,1.33,0,2.41-.51,3.24-1.54.83-1.03,1.25-2.38,1.25-4.04,0-4.24-2.21-6.37-6.64-6.37-.31,0-.7.02-1.17.06s-1,.08-1.6.14v-12.85c.44.03.83.05,1.15.06.33.01.59.02.8.02,4.45,0,6.68-2.04,6.68-6.13,0-3.33-1.16-5-3.48-5-1.82,0-2.87,1.34-3.12,4.02l-.08.82h-15.74c.44-5.62,2.41-10.06,5.9-13.32,3.46-3.31,8.01-4.96,13.63-4.96s9.82,1.69,13.36,5.08c3.62,3.36,5.43,7.51,5.43,12.46,0,5.55-2.44,9.78-7.3,12.7,5.39,3.1,8.09,7.76,8.09,13.98,0,5.39-1.91,9.78-5.74,13.16-3.78,3.39-8.69,5.08-14.73,5.08s-10.68-1.65-14.3-4.96c-3.67-3.31-5.51-7.62-5.51-12.93v-.9Z"/>
    </g>
  </g>
</svg>