<?xml version="1.0" encoding="UTF-8"?>
<svg xmlns="http://www.w3.org/2000/svg" xmlns:xlink="http://www.w3.org/1999/xlink" id="_レイヤー_2" data-name="レイヤー 2" viewBox="0 0 354 354">
  <defs>
    <style>
      .cls-1 {
        clip-path: url(#clippath);
      }

      .cls-2 {
        fill: none;
      }

      .cls-2, .cls-3, .cls-4, .cls-5, .cls-6, .cls-7, .cls-8 {
        stroke-width: 0px;
      }

      .cls-3 {
        fill: #f7b200;
      }

      .cls-4 {
        fill: #4b4a4a;
      }

      .cls-5 {
        fill: #5e514f;
      }

      .cls-6 {
        fill: #5b5959;
      }

      .cls-7 {
        fill: #83b9d4;
      }

      .cls-8 {
        fill: #fff;
      }
    </style>
    <clipPath id="clippath">
      <circle class="cls-2" cx="177" cy="177" r="177"></circle>
    </clipPath>
  </defs>
  <g id="_レイヤー_1-2" data-name="レイヤー 1">
    <g class="cls-1">
      <g>
        <g>
          <path class="cls-8" d="M255.7,145.93c-.74,4.75-1.99,9.43-3.66,13.94-2.45,6.61-5.94,12.81-10.25,18.38.04-.18.08-.36.12-.54,2.56-11.44,4.66-22.97,6.37-34.56.82-.05,1.64-.42,2.24-1.24.91-1.24,2.85-4.04,4.56-2.76,1.75,1.31.89,5,.62,6.79Z"></path>
          <path class="cls-4" d="M90.71,117.83c.2-1.56-1.5-2.92-2.91-2.91-.07,0-.13-.01-.2-.01,3.4-2.57,6.3-5.7,7.32-10.03,1.69-7.16-2.27-14.05-1.24-21.17.27-1.86-1.35-3.59-2.96-3.75-.63-4.46,1.23-9.03,3.95-12.89,1.81-2.57,3.89-4.93,5.69-7.51,1.99-2.84,3.69-5.82,5.96-8.45,9.42-10.95,23.28-16.12,37.16-18.48,1.03.98,2.66,1.3,3.93-.03,3.71-3.86,8.67-5.42,13.79-6.49,6.18-1.28,12.51-2.23,18.83-2.29,12.68-.11,25.2,4.37,37.24,7.86,10.65,3.08,21.2,8.97,28.46,17.49,7.27,8.54,10.56,19.56,13.58,30.13,2.39,8.36,7.36,18.39,16.2,20.48-1.73,2.43-3.45,4.86-5.09,7.35-2.17,3.29-1.8,6.26-2.43,9.98-1.13,6.65-4.89,12.47-8.85,17.89-1.82-1.75-4.38-2.5-6.91-1.78-2.24.64-3.95,2.25-5.4,4.02-.64-6.17-4.51-11.99-7.71-17.23-5.5-8.99-10.99-17.99-16.49-26.98-1.82-2.98-5.8-.89-5.32,2.24.64,4.14,1.27,8.28,1.91,12.42-11.04-10.13-17.44-24.74-17.39-39.83.82-2.75-2.61-5.71-4.65-3.09-8.81,11.39-20.59,19.86-33.95,24.6,9.51-8.96,16.97-20.71,17.66-33.56.15-2.86-4.11-4-5.43-1.47-6.08,11.72-14.08,22.27-23.83,31.19-4.84,4.43-10.05,8.4-15.61,11.89-6.17,3.87-12.82,7.62-20.28,7.73-3.74.05-3.76,5.88,0,5.82,1.24-.02,2.47-.14,3.7-.3-3.59,5.22-5.23,11.72-6.08,17.91-.67,4.87-.68,9.76-.17,14.61-1.19-1.21-2.37-2.42-3.56-3.64-.24-.45-.55-.79-.96-.98-.06-.06-.13-.13-.19-.19-.8-.81-1.72-.95-2.56-.75-1.55-1.9-3.34-3.69-5.76-4.36-1.15-.32-2.31-.32-3.4-.08-.15-.3-.34-.59-.65-.85-4.32-3.77-6.16-8.84-5.42-14.51Z"></path>
          <path class="cls-8" d="M100.76,160.07c-1.66-4.28-2.93-8.72-3.76-13.24-.37-1.99-1.37-5.62.13-7.37,1.61-1.87,3.88,1.19,4.82,2.43.69.91,1.65,1.26,2.58,1.23,1.72,11.67,3.9,23.26,6.47,34.77-4.25-5.4-7.75-11.4-10.25-17.82Z"></path>
          <path class="cls-8" d="M129.2,216.6c-3.24-3.78-4.43-8.69-5.77-13.36-5.06-17.57-8.99-35.45-11.96-53.49,1.39,1.42,2.78,2.84,4.17,4.26,2.05,2.1,5.61-.05,4.87-2.83-1.84-6.87-2.39-14-1.52-21.07.76-6.18,2.37-13.38,6.74-18.07.88-.94.93-2.03.57-2.97,7.78-2.6,15.15-7.54,21.6-12.7.45,1.28,1.78,2.29,3.48,2.02,17.16-2.68,33.11-11.15,44.98-23.73,1.92,16.99,11.2,32.59,25.37,42.44,2.33,1.62,4.62-1.05,4.28-3.29-.28-1.82-.56-3.64-.84-5.47,2.22,3.64,4.45,7.28,6.67,10.92,3.99,6.52,11.46,15.21,8.59,23.33-.57,1.62.32,2.78,1.55,3.27-2.67,17.06-6.19,33.97-10.72,50.64-1.17,4.32-2.27,8.71-3.76,12.93-1.65,4.71-4.43,8.14-8.25,11.29-5.72,4.72-11.8,9.23-17.94,13.4-6.38,4.33-13.33,8.42-21.01,9.85-8.06,1.5-15.87-1.51-22.72-5.57-6.76-4-12.8-9.06-19.02-13.82-3.25-2.49-6.68-4.86-9.37-7.99Z"></path>
          <path class="cls-8" d="M138.28,268.7c.34,3.7,6.16,3.74,5.82,0-1.02-11.21-.45-22.65-1.87-33.84,3.07,2.33,6.19,4.61,9.4,6.7,6.76,4.4,14.5,8.18,22.68,8.64,8.15.45,16.17-2.83,23.13-6.77,5.77-3.27,11.08-7.22,16.34-11.23-1.95,12.5-4.39,24.96-5.61,37.55-.36,3.73,5.47,3.7,5.82,0,.17-1.79.43-3.56.65-5.35,5.29,2.86,10.7,5.48,16.21,7.89-10.35,13.86-21.23,27.32-32.66,40.3-.95,1.07-.92,2.34-.39,3.34-.14.45-.21.95-.09,1.51,2.35,10.87,4.29,21.81,5.92,32.8-17.94,2.22-36.52,3.48-53.8-2.66,1.55-10.09,3.36-20.15,5.52-30.14.12-.57.05-1.06-.09-1.51.52-1,.55-2.26-.39-3.34-11.35-12.89-22.16-26.24-32.44-39.99,5.29-2.29,10.49-4.78,15.58-7.48.08,1.2.16,2.39.27,3.59Z"></path>
          <path class="cls-3" d="M209.05,414.36c-.4-19.55-1.92-39.05-4.56-58.4-18.46,2.31-37.69,3.63-55.53-2.53-2.86,20.18-4.51,40.52-4.93,60.93h65.03Z"></path>
          <path class="cls-7" d="M72.69,414.36c.91-12.61,1.81-25.23,2.72-37.84.27-3.72,6.09-3.74,5.82,0-.91,12.61-1.81,25.23-2.72,37.84h59.69c.68-33.11,4.55-66.09,11.54-98.47.02-.1.08-.15.11-.24-12.19-13.89-23.77-28.31-34.73-43.18-13.78,6.35-27.56,12.7-41.34,19.04-6.04,2.78-12.34,5.3-18.08,8.69-5.41,3.19-9.01,7.57-11.73,13.18-5.38,11.08-8.37,23.32-10.21,35.46-3.28,21.68-2.7,43.67-4.02,65.52h42.96Z"></path>
          <path class="cls-7" d="M214.87,414.36h63.55c-.91-12.61-1.81-25.23-2.72-37.84-.27-3.75,5.56-3.72,5.82,0,.91,12.61,1.81,25.23,2.72,37.84h40.03c-.67-10.88-.9-21.79-1.32-32.69-.49-12.65-1.26-25.34-3.52-37.82-2.12-11.71-5.27-24.3-11.59-34.53-3.33-5.39-8.27-8.67-13.85-11.43-6.27-3.1-12.7-5.9-19.05-8.82-12.08-5.57-24.16-11.13-36.24-16.7-.33.83-1.13,1.56-2.02,1.82-10.59,14.26-21.73,28.1-33.44,41.46.03.09.08.14.11.24,6.99,32.37,10.86,65.36,11.54,98.47Z"></path>
          <path class="cls-6" d="M156.95,129.4c1.48.53,3.19-.6,3.58-2.03.44-1.61-.55-3.05-2.03-3.58-9.68-3.46-20.61-3.25-30.13.63-1.46.59-2.49,1.94-2.03,3.58.38,1.38,2.12,2.63,3.58,2.03,8.68-3.54,18.2-3.78,27.04-.63Z"></path>
          <path class="cls-6" d="M196.53,129.4c8.83-3.15,18.36-2.91,27.04.63,1.46.59,3.2-.64,3.58-2.03.46-1.67-.57-2.99-2.03-3.58-9.52-3.88-20.46-4.08-30.13-.63-1.48.53-2.47,1.99-2.03,3.58.39,1.43,2.09,2.57,3.58,2.03Z"></path>
          <path class="cls-6" d="M148.54,141.34c-.31-.33-.68-.62-1.09-.81-.81-.38-1.71-.61-2.6-.33-.93.29-1.72.99-2.08,1.91-.39.35-.72.77-.9,1.32-.54,1.64-.55,3.42-.18,5.09.48,2.18,1.87,4.46,4.34,4.55.92.04,1.83-.4,2.49-1.01.56-.52.81-1.17,1.08-1.85.32-.82.45-1.67.55-2.54.07-.63.08-1.25,0-1.88-.1-.89-.24-1.76-.57-2.6-.28-.71-.52-1.29-1.05-1.86Z"></path>
          <path class="cls-6" d="M147.91,144.71c.1-.16.19-.31.25-.49-.05.13-.11.25-.16.38-.03.04-.06.07-.08.11Z"></path>
          <path class="cls-6" d="M209.51,141.34c-.31-.33-.68-.62-1.09-.81-.81-.38-1.71-.61-2.6-.33-.93.29-1.72.99-2.08,1.91-.39.35-.72.77-.9,1.32-.54,1.64-.55,3.42-.18,5.09.48,2.18,1.87,4.46,4.34,4.55.92.04,1.83-.4,2.49-1.01.56-.52.81-1.17,1.08-1.85.32-.82.45-1.67.55-2.54.07-.63.08-1.25,0-1.88-.1-.89-.24-1.76-.57-2.6-.28-.71-.52-1.29-1.05-1.86Z"></path>
          <path class="cls-6" d="M208.88,144.71c.1-.16.19-.32.25-.49-.05.13-.11.26-.16.38-.03.04-.06.07-.08.11Z"></path>
          <path class="cls-6" d="M177.77,168.45c1.3,3.91,1.7,8-.71,11.59-.88,1.31-.25,3.23,1.04,3.98,1.43.84,3.1.26,3.98-1.04,2.81-4.19,3.18-9.69,1.81-14.45-.61-2.11-1.57-4.18-1.81-6.38-.28-2.58.1-5.22.35-7.79.15-1.57-1.45-2.91-2.91-2.91-1.7,0-2.76,1.34-2.91,2.91-.24,2.42-.54,4.87-.39,7.31.15,2.37.8,4.54,1.54,6.78Z"></path>
          <path class="cls-6" d="M193.74,199.37c-10.87,3.76-22.26,3.83-33.17.18-3.56-1.19-5.09,4.43-1.55,5.62,11.8,3.96,24.51,3.89,36.27-.18,3.52-1.22,2.01-6.85-1.55-5.62Z"></path>
          <path class="cls-6" d="M182.74,215.93c-.22.11-.46.24-.69.32-.05.01-.1.03-.13.04-.44.16-.89.3-1.35.42-.19.05-.39.09-.58.13-.13.03-.26.05-.39.07-.32.05-.26.05.19-.02-.12.16-1.07.09-1.28.1-.43.01-.85,0-1.28-.03-.13-.01-.26-.02-.39-.04-.12-.01-.13-.01-.14-.02-.12-.03-.24-.06-.26-.06-.46-.09-.91-.21-1.36-.35-.19-.06-.39-.13-.58-.2-.13-.05-.26-.1-.38-.15.06.03.06.03.11.05-.74-.32-1.42-.51-2.23-.29-.68.19-1.41.71-1.74,1.34-.67,1.26-.44,3.33,1.04,3.98,2.29,1.01,4.68,1.64,7.2,1.58,2.53-.06,4.92-.75,7.18-1.86,1.37-.68,1.86-2.73,1.04-3.98-.9-1.4-2.52-1.77-3.98-1.04Z"></path>
          <path class="cls-6" d="M176.7,216.91c.05,0,.13.02.32.04-.02.02-.17,0-.32-.04Z"></path>
        </g>
        <g>
          <path class="cls-5" d="M29.77,414.36c1.31-21.84.7-43.84,3.98-65.52,1.84-12.13,4.83-24.37,10.21-35.45,2.72-5.61,6.32-9.99,11.73-13.18,5.74-3.39,12.03-5.91,18.08-8.69,13.78-6.35,27.55-12.69,41.33-19.04,10.96,14.86,22.53,29.26,34.71,43.15-.03.09-.05.17-.07.27-6.99,32.37-10.86,65.36-11.54,98.47h5.82c.42-20.4,2.07-40.73,4.92-60.91,17.84,6.16,37.09,4.83,55.55,2.51,2.64,19.35,4.16,38.85,4.56,58.4h5.82c-.68-33.11-4.55-66.09-11.54-98.47-.02-.09-.05-.18-.07-.27,11.71-13.35,22.85-27.17,33.43-41.42.89-.26,1.68-.99,2.01-1.81,12.08,5.56,24.15,11.13,36.23,16.69,6.35,2.93,12.78,5.73,19.05,8.82,5.58,2.76,10.52,6.04,13.85,11.43,6.32,10.22,9.47,22.81,11.59,34.53,2.26,12.48,3.03,25.17,3.52,37.82.42,10.9.62,21.81,1.29,32.69h5.82c-1.4-22.78-.79-45.71-4.38-68.32-1.99-12.56-5.3-25.25-11.12-36.63-6.08-11.88-17.21-16.4-28.74-21.71-15.45-7.12-30.9-14.23-46.35-21.35-1.11-.51-2.17-.31-2.98.24-.74.03-1.47.33-2.05.96-6.34-2.71-12.53-5.76-18.56-9.1-.14-.08-.29-.14-.45-.2,1.5-10.17,3.47-20.28,4.88-30.44.03-.22.04-.44.04-.65,5.6-4.43,10.27-8.98,12.77-16.18,2.49-7.17,4.45-14.6,6.22-22.05.58-.06,1.17-.32,1.7-.88,8.99-9.45,15.56-21.09,18.84-33.72.99-3.81,2.48-8.9,1.99-13.3,4.59-6.14,9.22-12.58,11.23-20.09.88-3.32.25-7.58,2.07-10.46,2.57-4.06,5.52-7.92,8.27-11.85,1.18-1.69-.37-4.64-2.51-4.38-13.26,1.62-15.54-16.16-18.54-25.18-3.47-10.46-8.34-20.74-16.68-28.2-8.3-7.43-18.12-12.34-28.79-15.34-12.47-3.5-25.11-7.89-38.23-7.51-6.72.2-13.57,1.23-20.12,2.7-5.04,1.13-9.88,2.98-13.78,6.34-.52-.26-1.14-.37-1.84-.26-16.28,2.61-32.52,9.24-42.78,22.71-2.34,3.07-4.25,6.41-6.6,9.46-2.21,2.86-4.58,5.65-6.24,8.89-3.26,6.34-3.78,14.07.32,20.16.12.17.25.32.39.46.4,3.7,1.31,7.31,1.5,11.15.34,7-4.66,10.44-10.09,13.68-1.93,1.16-1.83,3.85,0,5.03,1.68,1.08,3.41,1.77,5.26,2.12-.02,6.09,2.65,11.93,7.3,15.99.04.03.08.06.12.09-3.24,5.07-.76,12.84.71,18.14,3.47,12.49,10.17,23.96,19.22,33.22.45.46.95.72,1.45.82,1.23,4.92,2.53,9.82,3.92,14.7,1.22,4.29,2.32,8.79,4.46,12.75,2.15,3.96,5.46,7.04,8.97,9.79,1.68,1.32,3.36,2.65,5.04,3.98-.12.43-.16.91-.06,1.43,1.14,6.06,1.25,12.36,1.51,18.5.13,2.93.22,5.88.33,8.82-6.11,3.36-12.39,6.43-18.81,9.15,0,0,0,0,0,0-.23-.32-.5-.56-.78-.75-.83-.9-2.16-1.38-3.56-.74-13.68,6.3-27.37,12.61-41.05,18.91-11.23,5.17-24.55,9.37-31.71,20.14-6.87,10.33-10.3,23.61-12.58,35.65-2.38,12.55-3.31,25.32-3.86,38.06-.5,11.74-.67,23.51-1.39,35.24h5.82ZM255.7,145.93c-.74,4.75-1.99,9.43-3.66,13.94-2.45,6.61-5.94,12.81-10.25,18.39.04-.18.08-.37.12-.55,2.56-11.44,4.67-22.96,6.37-34.56.82-.05,1.63-.43,2.23-1.25.91-1.24,2.85-4.04,4.56-2.76,1.75,1.31.89,5,.62,6.79ZM90.71,117.83c.2-1.56-1.5-2.92-2.91-2.91-.06,0-.12,0-.18,0,3.4-2.57,6.28-5.72,7.3-10.04,1.69-7.16-2.27-14.05-1.24-21.17.27-1.88-1.38-3.63-3-3.77-.62-4.46,1.27-9.02,4-12.88,1.81-2.57,3.89-4.93,5.69-7.51,1.99-2.84,3.69-5.82,5.96-8.45,9.41-10.94,23.26-16.13,37.13-18.5,1.03,1,2.68,1.32,3.96-.01,3.71-3.86,8.67-5.42,13.79-6.49,6.18-1.28,12.51-2.23,18.83-2.29,12.68-.11,25.2,4.37,37.24,7.86,10.65,3.08,21.2,8.97,28.46,17.49,7.27,8.54,10.56,19.56,13.58,30.13,2.39,8.36,7.34,18.42,16.18,20.51-1.72,2.42-3.44,4.84-5.08,7.32-2.17,3.29-1.8,6.26-2.43,9.98-1.13,6.65-4.89,12.47-8.85,17.89-1.82-1.75-4.39-2.51-6.91-1.78-2.23.64-3.94,2.24-5.4,4.01-.64-6.16-4.52-11.98-7.72-17.22-5.5-8.99-10.99-17.99-16.49-26.98-1.82-2.98-5.8-.89-5.32,2.24.64,4.14,1.27,8.29,1.91,12.43-11.03-10.12-17.44-24.72-17.4-39.79.87-2.76-2.6-5.77-4.64-3.13-8.81,11.39-20.59,19.87-33.94,24.61,9.51-8.96,16.97-20.72,17.65-33.56.15-2.86-4.11-4-5.43-1.47-6.08,11.72-14.08,22.27-23.83,31.19-4.84,4.43-10.05,8.4-15.61,11.89-6.17,3.87-12.82,7.62-20.28,7.73-3.74.05-3.76,5.88,0,5.82,1.22-.02,2.44-.12,3.66-.28-3.57,5.21-5.19,11.71-6.04,17.88-.67,4.84-.74,9.71-.25,14.54-1.13-1.15-2.25-2.3-3.38-3.46-.24-.54-.63-.91-1.09-1.11-.05-.05-.1-.11-.16-.16-.8-.82-1.74-1-2.58-.79-1.54-1.89-3.34-3.65-5.74-4.32-1.14-.32-2.29-.33-3.38-.09-.15-.29-.37-.58-.68-.84-4.32-3.77-6.16-8.84-5.42-14.51ZM100.76,160.07c-1.66-4.28-2.93-8.72-3.76-13.24-.37-1.99-1.37-5.62.13-7.37,1.61-1.87,3.88,1.19,4.82,2.43.69.91,1.64,1.26,2.56,1.23,1.71,11.64,3.85,23.21,6.41,34.69-4.22-5.38-7.69-11.36-10.17-17.74ZM129.2,216.6c-3.24-3.78-4.43-8.69-5.77-13.36-5.06-17.6-9.06-35.49-12.03-53.56,1.42,1.45,2.83,2.89,4.25,4.34,2.05,2.1,5.61-.05,4.87-2.83-1.84-6.87-2.39-14-1.52-21.07.76-6.18,2.37-13.38,6.74-18.07.88-.94.97-2.05.6-2.98,7.75-2.6,15.1-7.52,21.54-12.67.46,1.27,1.81,2.27,3.5,2,17.16-2.68,33.11-11.15,44.98-23.72,1.92,16.99,11.2,32.58,25.37,42.43,2.33,1.62,4.62-1.05,4.28-3.29-.28-1.82-.56-3.64-.84-5.47,2.22,3.64,4.45,7.28,6.67,10.92,3.99,6.52,11.46,15.21,8.59,23.33-.58,1.65.32,2.86,1.58,3.33-2.67,17.04-6.24,33.93-10.75,50.58-1.17,4.32-2.27,8.71-3.76,12.93-1.65,4.71-4.43,8.14-8.25,11.29-5.72,4.72-11.8,9.23-17.94,13.4-6.38,4.33-13.33,8.42-21.01,9.85-8.06,1.5-15.87-1.51-22.72-5.57-6.76-4-12.8-9.06-19.02-13.82-3.25-2.49-6.68-4.86-9.37-7.99ZM138.01,265.14c.08,1.19.16,2.37.27,3.56.34,3.7,6.16,3.74,5.82,0-1.02-11.2-.45-22.64-1.87-33.82,3.07,2.33,6.19,4.59,9.39,6.68,6.76,4.4,14.5,8.18,22.68,8.64,8.15.45,16.17-2.83,23.13-6.77,5.78-3.27,11.1-7.24,16.38-11.25-1.95,12.51-4.43,24.97-5.65,37.57-.36,3.73,5.47,3.7,5.82,0,.17-1.79.37-3.58.59-5.36,5.32,2.87,10.75,5.51,16.29,7.92-10.34,13.86-21.25,27.3-32.69,40.28-.93,1.06-.93,2.31-.43,3.3-.15.46-.18.98-.06,1.55,2.35,10.87,4.33,21.81,5.95,32.8-17.96,2.22-36.56,3.51-53.87-2.65,1.55-10.1,3.39-20.15,5.55-30.15.12-.57.09-1.09-.06-1.55.5-.99.51-2.24-.43-3.3-11.35-12.88-22.18-26.21-32.46-39.97,5.3-2.29,10.5-4.77,15.6-7.48Z"></path>
          <path class="cls-5" d="M156.95,129.4c1.48.53,3.19-.6,3.58-2.03.44-1.61-.55-3.05-2.03-3.58-9.68-3.46-20.61-3.25-30.13.63-1.46.59-2.49,1.94-2.03,3.58.38,1.38,2.12,2.63,3.58,2.03,8.68-3.54,18.2-3.78,27.04-.63Z"></path>
          <path class="cls-5" d="M196.53,129.4c8.83-3.15,18.36-2.91,27.04.63,1.46.59,3.2-.64,3.58-2.03.46-1.67-.57-2.99-2.03-3.58-9.52-3.88-20.46-4.08-30.13-.63-1.48.53-2.47,1.98-2.03,3.58.39,1.43,2.09,2.57,3.58,2.03Z"></path>
          <path class="cls-5" d="M149.6,143.2c-.28-.71-.52-1.29-1.05-1.86-.31-.33-.68-.62-1.09-.81-.81-.38-1.71-.61-2.6-.33-.91.29-1.72.96-2.08,1.85-.4.35-.71.82-.89,1.38-.54,1.64-.55,3.42-.18,5.09.48,2.18,1.87,4.46,4.34,4.55.92.04,1.83-.4,2.49-1.01.56-.52.81-1.17,1.08-1.85.32-.82.45-1.67.55-2.54.07-.63.08-1.25,0-1.88-.1-.89-.24-1.76-.57-2.6Z"></path>
          <path class="cls-5" d="M210.56,143.2c-.28-.71-.52-1.29-1.05-1.86-.31-.33-.68-.62-1.09-.81-.81-.38-1.71-.61-2.6-.33-.91.29-1.72.96-2.08,1.85-.4.35-.71.82-.89,1.38-.54,1.64-.55,3.42-.18,5.09.48,2.18,1.87,4.46,4.34,4.55.92.04,1.83-.4,2.49-1.01.56-.52.81-1.17,1.08-1.85.32-.82.45-1.67.55-2.54.07-.63.08-1.25,0-1.88-.1-.89-.24-1.76-.57-2.6Z"></path>
          <path class="cls-5" d="M177.77,168.45c1.3,3.91,1.7,8-.71,11.59-.88,1.31-.25,3.23,1.04,3.98,1.43.84,3.11.26,3.98-1.04,2.81-4.19,3.18-9.69,1.81-14.45-.61-2.11-1.57-4.18-1.81-6.38-.28-2.58.1-5.22.35-7.79.15-1.57-1.45-2.91-2.91-2.91-1.7,0-2.76,1.34-2.91,2.91-.24,2.42-.54,4.87-.39,7.31.15,2.37.8,4.54,1.54,6.78Z"></path>
          <path class="cls-5" d="M193.74,199.37c-10.87,3.76-22.26,3.83-33.17.18-3.56-1.19-5.09,4.43-1.55,5.62,11.8,3.96,24.51,3.89,36.27-.18,3.52-1.22,2.01-6.85-1.55-5.62Z"></path>
          <path class="cls-5" d="M182.74,215.93c-.19.09-.39.21-.6.3-.09.02-.18.05-.22.07-.44.16-.89.3-1.35.42-.19.05-.39.09-.58.13-.13.03-.26.05-.39.07-.32.05-.26.05.19-.02-.12.16-1.07.09-1.28.1-.43.01-.85,0-1.28-.03-.13,0-.26-.02-.39-.04-.07,0-.12-.01-.15-.02-.12-.03-.23-.06-.25-.06-.46-.09-.91-.21-1.36-.35-.19-.06-.39-.13-.58-.2-.13-.05-.25-.09-.38-.14-.7-.29-1.35-.45-2.12-.24-.68.19-1.41.71-1.74,1.34-.67,1.26-.44,3.33,1.04,3.98,2.29,1.01,4.68,1.64,7.2,1.58,2.53-.06,4.92-.75,7.18-1.86,1.37-.68,1.86-2.73,1.04-3.98-.9-1.4-2.52-1.77-3.98-1.04ZM176.7,216.91c.06,0,.17.02.32.04-.02.02-.17,0-.32-.04Z"></path>
        </g>
      </g>
    </g>
  </g>
</svg>
