<?xml version="1.0" encoding="UTF-8"?>
<svg xmlns="http://www.w3.org/2000/svg" xmlns:xlink="http://www.w3.org/1999/xlink" id="_レイヤー_2" data-name="レイヤー 2" viewBox="0 0 354 354">
  <defs>
    <style>
      .cls-1 {
        clip-path: url(#clippath);
      }

      .cls-2 {
        fill: none;
      }

      .cls-2, .cls-3, .cls-4, .cls-5, .cls-6, .cls-7, .cls-8 {
        stroke-width: 0px;
      }

      .cls-3 {
        fill: #5e514f;
      }

      .cls-4 {
        fill: #5b5959;
      }

      .cls-5 {
        fill: #fde2a6;
      }

      .cls-6 {
        fill: #fff;
      }

      .cls-7 {
        fill: #ef8bad;
      }

      .cls-8 {
        fill: #675b58;
      }
    </style>
    <clipPath id="clippath">
      <circle class="cls-2" cx="177" cy="177" r="177"></circle>
    </clipPath>
  </defs>
  <g id="_レイヤー_1-2" data-name="レイヤー 1">
    <g class="cls-1">
      <g>
        <g>
          <path class="cls-4" d="M229.25,104.35c-.23,3.74,5.6,3.73,5.82,0,.61-10.11-.73-20.31-3.93-29.92-1.18-3.54-6.8-2.02-5.62,1.55,3.05,9.17,4.3,18.73,3.72,28.37Z"></path>
          <path class="cls-8" d="M94.31,247.63c-.05-4.26.15-8.53-.65-12.74-.85-4.44-2.28-8.65-2.83-13.16-2.16-17.98.84-36.62,1.83-54.6.53-9.74.94-19.49,1.15-29.25.2-9.19.94-18.34,1.41-27.52.9-17.8,8-34.66,18.41-48.95,10.8-14.83,26.73-30.81,46.46-29.71.47.15,1,.13,1.54,0,.63-.03,1.15-.22,1.53-.56,8.76-4.13,18.98-3.42,28.27-1.66,9.81,1.85,18.62,5.52,27.09,10.75,14.59,9.01,27.29,21.49,32.98,38.01,3.32,9.64,5.05,20.57,5.6,30.74.28,5.18-.28,10.39-.16,15.58.12,5.73.53,11.45,1.03,17.16.92,10.39,2.16,20.76,2.6,31.19.45,10.75-.16,21.41-.67,32.14-.28,5.89-.37,11.83-1.28,17.67-.87,5.61-2.44,11.09-3.33,16.71-1.65,10.52-2.74,21.22-6.66,31.16-3.05-1.41-6.11-2.81-9.16-4.22-1.78-.82-3.42.19-4.1,1.56-6.66-2.81-13.17-5.96-19.5-9.45-.16-.09-.34-.11-.51-.16,1.46-9.64,3.29-19.24,4.63-28.88.1-.69,0-1.35-.23-1.94,8.82-9.31,14.65-21.22,18.58-33.38,5.47-16.89,7.63-34.61,10.13-52.12.04-.3-.01-.55-.04-.82,0,0,0-.01,0-.02.46-1.68-.58-2.97-2.03-3.58-1.22-.51-2.53-1.57-3.6-2.73-1.07-1.16-1.96-2.62-2.72-4.23-.67-1.44-1.31-3.72-1.7-5.57-.44-2.11-.72-4.24-.99-6.37-.16-1.33-.95-2.45-2.22-2.77-.46-.49-1.08-.87-1.91-.94-6.18-.55-12.28-1.62-18.27-3.21-1.34-.36-6.84-1.52-7.04-2.07-.22-.62.48-2.25.57-2.95.17-1.19.14-2.3-.24-3.45-.91-2.75-4.71-2.77-5.62,0-.55,1.7-1.91,2.96-3.52,3.5,1.19-6.6.42-13.35-.85-19.95-1.6-8.35-3.58-16.64-5.65-24.89-.91-3.63-6.53-2.09-5.62,1.55,1.9,7.61,3.69,15.24,5.26,22.93,1.41,6.91,2.43,13.98.78,20.88-.1.01-.19,0-.29.01-5.97,1.34-12.16,1.57-18.35.76-.65-.09-1.29.19-1.8.63-.14.01-.26-.03-.41,0-6.69,1.47-9.3-10.39-10.34-14.77-2.17-9.1-2.26-18.62-.36-27.77.76-3.66-4.85-5.22-5.62-1.55-2.35,11.27-2.03,23.01,1.21,34.08.92,3.16,2.27,6.71,4.19,9.66-6.72-1.74-11.82-9.75-13.76-15.74-3.04-9.4-1.51-19.44,1.19-28.72,1.05-3.6-4.56-5.14-5.61-1.56-.73.11-1.43.47-1.98,1.19-10.25,13.47-15.4,30.29-14.69,47.15-2.21-.06-4.41.4-6.38,1.53-1.33.77-2.29,2.51-3.52,3.15-.48.25-1,.31-1.53.33-.02-.05,0-.09-.02-.14-2.59-6.62-.81-14.75,1.04-21.37,1.95-6.99,5.08-13.52,9.19-19.5,2.13-3.1-2.92-6.01-5.03-2.94-4.51,6.57-7.92,13.91-9.97,21.61-1.97,7.36-3.71,16.41-.84,23.74.08.21.22.34.33.51-1.27,1.49-1.9,3.53-2.25,5.44-.96,5.24-1.57,10.58-2.36,15.86-.03.21.02.38.03.57-.58.63-.95,1.48-.8,2.52,1.7,11.76,3.94,23.41,6.38,35.04,2.17,10.34,4.13,20.69,8.4,30.42,4,9.12,9.23,18.01,16.61,24.82.45.41.92.79,1.38,1.18,0,.17-.04.32,0,.5,1.14,6.06,1.25,12.36,1.51,18.5.08,1.93.15,3.86.22,5.79-.24.06-.49.11-.72.23-6.32,3.49-12.84,6.64-19.5,9.45-.68-1.37-2.31-2.38-4.1-1.56-4.54,2.09-9.07,4.18-13.61,6.27-4.39-7.63-6.52-16.2-6.61-24.99Z"></path>
          <path class="cls-5" d="M160.43,414.36h33.48c.35-13.26.87-26.51,1.59-39.75.9-16.6,1.51-33.7,4.03-50.36-14.96,3.49-30.71,2.74-45.24-2.25,1.04,6.68,1.8,13.4,2.38,20.13,2.07,24.01,3.14,48.13,3.76,72.22Z"></path>
          <path class="cls-6" d="M204.24,302.25c-1.52,5.18-2.7,10.46-3.68,15.79-15.68,4.19-32.2,3.26-47.36-2.54-.56-2.93-1.19-5.84-1.91-8.74-1.19-4.79-2.28-9.72-6.29-12.95-2.79-2.26-6.01-3.94-9.13-5.7-5.77-3.25-14.31-7.44-16.16-14.34,6.61-2.76,13.08-5.83,19.39-9.22.11,2.24.24,4.48.45,6.72.34,3.7,6.16,3.74,5.82,0-1-11.02-.48-22.28-1.81-33.29,4.82,2.74,10.11,4.56,15.68,5.66,10.43,2.07,20.97,2.54,31.45.47,8.45-1.67,16.12-5.56,22.86-10.87-1.96,12.7-4.46,25.34-5.7,38.13-.36,3.73,5.47,3.7,5.82,0,.23-2.34.55-4.67.86-7,6.51,3.52,13.2,6.69,20.03,9.53-1.66,5.8-8.08,9.58-13.08,12.49-3.13,1.83-6.37,3.48-9.41,5.46-4.12,2.69-6.44,5.67-7.84,10.41Z"></path>
          <path class="cls-6" d="M110.74,140.44l1.71-11.53c.21-1.44.38-2.9.64-4.32.32-1.75.18-2.86,2.26-3.13,2.4-.31,3.56-.16,5.34-1.98,2.41-2.47,4.53-3.76,8.06-2.57,1.68.57,3.85-.97,3.69-2.81-1.22-13.53,1.62-26.85,7.98-38.6-.78,7.01-.36,14.11,2.26,20.72,3.42,8.63,11.8,19.21,22.21,18.28.83-.07,1.45-.45,1.91-.94,1.98.97,4.28,1.34,6.98.75.37-.08.65-.24.92-.41,6.56.83,13.21.46,19.65-.99.25-.06.45-.2.67-.33,2.63.52,5.2.13,7.43-.98.06.19.12.39.2.58,1.32,2.91,5.13,3.53,7.87,4.34,6.96,2.06,14.11,3.36,21.32,4.09.59,4.54,1.35,9.06,3.37,13.23,1.67,3.44,4.22,6.23,7.44,8.15-3.83,27.29-6.75,59.06-25.99,80.37-5.01,5.55-11.03,10-17.82,13.14-9.84,4.55-21.89,4.99-32.47,3.45-7.96-1.16-15.91-2.98-22.61-7.65-7.87-5.49-13.36-13.89-17.54-22.36-5.04-10.22-7.31-21.14-9.61-32.22-2.41-11.63-4.69-23.25-6.43-35,.27-.33.49-.73.57-1.28Z"></path>
          <path class="cls-7" d="M72.69,414.36c.91-12.61,1.81-25.23,2.72-37.84.27-3.72,6.09-3.74,5.82,0-.91,12.61-1.81,25.23-2.72,37.84h76.09c-.35-13.26-.87-26.51-1.59-39.75-.67-12.43-1.39-24.88-2.61-37.27-.63-6.35-1.43-12.69-2.58-18.97-1.01-5.53-1.9-11.58-4.09-16.78-1.64-3.89-6.18-5.86-9.69-7.84-3.46-1.94-6.94-3.86-10.16-6.19-4.98-3.6-9.48-8.3-10.25-14.41-13.29,6.12-26.58,12.24-39.87,18.37-6.04,2.78-12.34,5.3-18.08,8.69-5.41,3.19-9.01,7.57-11.73,13.18-5.38,11.08-8.37,23.32-10.21,35.46-3.28,21.68-2.7,43.67-4.02,65.52h42.96Z"></path>
          <path class="cls-7" d="M278.42,414.36c-.91-12.61-1.81-25.23-2.72-37.84-.27-3.75,5.56-3.72,5.82,0,.91,12.61,1.81,25.23,2.72,37.84h40.03c-.67-10.88-.9-21.79-1.32-32.69-.49-12.65-1.26-25.34-3.52-37.82-2.12-11.71-5.27-24.3-11.59-34.53-3.33-5.39-8.27-8.67-13.85-11.43-6.27-3.1-12.7-5.9-19.05-8.82-8.18-3.77-16.36-7.54-24.54-11.31-.89.02-1.81-.39-2.44-1.12-2.42-1.11-4.84-2.23-7.26-3.34-.98,7.24-7.18,12.43-13.21,16.25-3.14,1.99-6.44,3.72-9.66,5.59-1.75,1.02-3.69,2.06-5.19,3.44-2.01,1.86-2.61,4.5-3.3,7.05-3.21,11.93-4.79,24.21-5.85,36.5-2.07,24.01-3.14,48.13-3.76,72.22h78.69Z"></path>
          <path class="cls-4" d="M129.68,135.17c7.52-5.6,16.7-8.21,26.05-7.36,1.57.14,2.91-1.44,2.91-2.91,0-1.69-1.34-2.77-2.91-2.91-10.22-.93-20.76,2.03-28.99,8.16-1.26.94-1.9,2.52-1.04,3.98.73,1.24,2.72,1.99,3.98,1.04Z"></path>
          <path class="cls-4" d="M197.06,127.81c9.34-.85,18.53,1.76,26.05,7.36,1.26.94,3.25.21,3.98-1.04.87-1.49.22-3.04-1.04-3.98-8.23-6.13-18.77-9.09-28.99-8.16-1.57.14-2.91,1.24-2.91,2.91,0,1.46,1.34,3.06,2.91,2.91Z"></path>
          <path class="cls-4" d="M148.54,143.25c-.31-.33-.68-.62-1.09-.81-.81-.38-1.71-.61-2.6-.33-.93.29-1.72.99-2.08,1.9-.39.35-.72.77-.9,1.32-.54,1.64-.55,3.42-.18,5.09.48,2.18,1.87,4.46,4.34,4.55.92.04,1.83-.4,2.49-1.01.56-.52.81-1.17,1.08-1.85.32-.82.45-1.67.55-2.54.07-.63.08-1.25,0-1.88-.1-.89-.24-1.76-.57-2.6-.28-.71-.52-1.29-1.05-1.86Z"></path>
          <path class="cls-4" d="M147.91,146.62c.1-.16.19-.31.25-.49-.05.13-.11.25-.16.38-.03.04-.06.07-.08.11Z"></path>
          <path class="cls-4" d="M209.51,143.25c-.31-.33-.68-.62-1.09-.81-.81-.38-1.71-.61-2.6-.33-.93.29-1.72.99-2.08,1.9-.39.35-.72.77-.9,1.32-.54,1.64-.55,3.42-.18,5.09.48,2.18,1.87,4.46,4.34,4.55.92.04,1.83-.4,2.49-1.01.56-.52.81-1.17,1.08-1.85.32-.82.45-1.67.55-2.54.07-.63.08-1.25,0-1.88-.1-.89-.24-1.76-.57-2.6-.28-.71-.52-1.29-1.05-1.86Z"></path>
          <path class="cls-4" d="M208.88,146.62c.1-.16.19-.32.25-.49-.05.13-.11.26-.16.38-.03.04-.06.07-.08.11Z"></path>
          <path class="cls-4" d="M178.8,183.11s.21-.1.33-.17c.13-.05.4-.16.39-.16.37-.14.75-.28,1.12-.42.84-.32,1.69-.65,2.43-1.17.99-.69,1.8-1.6,2.14-2.78.39-1.35,0-2.69-.27-4.02-.88-4.44-.97-9.1-.41-13.66.19-1.56-1.48-2.91-2.91-2.91-1.73,0-2.72,1.34-2.91,2.91-.53,4.33-.4,8.65.23,12.97.14.96.32,1.91.52,2.86-.11.06-.23.12-.34.17-.1.03-.53.2-.64.24-.88.33-1.77.66-2.61,1.1-1.39.73-1.81,2.67-1.04,3.98.83,1.41,2.59,1.77,3.98,1.04Z"></path>
          <path class="cls-4" d="M179.9,176.33s0,0,0,0c.11-.08.16-.08,0,0Z"></path>
          <path class="cls-4" d="M185.05,215.07c-1.04.32-2.1.57-3.17.75-.12.02-.24.04-.36.06-.04,0-.03,0-.11.01-.25.02-.5.05-.75.07-.54.04-1.09.07-1.63.08-1.09.02-2.16-.07-3.25-.17-.12-.02-.23-.04-.35-.05-.25-.04-.49-.09-.74-.13-.57-.11-1.14-.25-1.71-.4-1.47-.4-3.23.5-3.58,2.03-.35,1.53.46,3.16,2.03,3.58,4.95,1.34,10.25,1.28,15.16-.21,1.46-.44,2.53-2.06,2.03-3.58-.48-1.47-2.02-2.51-3.58-2.03Z"></path>
          <path class="cls-3" d="M157.84,203.85c-.69,1.15-.37,3.15.98,3.74,7.02,3.05,14.06,5.39,21.81,5.15,6.7-.21,13.02-1.61,18.45-5.72,1.18-.9,1.77-2.35.98-3.74-.66-1.16-2.56-1.87-3.74-.98-4.71,3.57-9.87,4.79-15.69,4.97-6.75.22-12.92-1.74-19.05-4.4-1.36-.59-2.92-.39-3.74.98Z"></path>
        </g>
        <path class="cls-3" d="M229.25,104.35c-.23,3.74,5.6,3.73,5.82,0,.61-10.11-.73-20.31-3.93-29.92-1.18-3.54-6.8-2.02-5.62,1.55,3.05,9.17,4.3,18.73,3.72,28.37Z"></path>
        <path class="cls-3" d="M29.77,414.36c1.31-21.84.7-43.84,3.98-65.52,1.84-12.13,4.83-24.37,10.21-35.45,2.72-5.61,6.32-9.99,11.73-13.18,5.74-3.39,12.03-5.91,18.08-8.69,13.29-6.12,26.57-12.24,39.86-18.36.77,6.11,5.28,10.8,10.27,14.4,3.22,2.33,6.7,4.24,10.16,6.19,3.51,1.97,8.05,3.94,9.69,7.84,2.19,5.2,3.08,11.25,4.09,16.78,1.14,6.28,1.95,12.62,2.58,18.97,1.22,12.39,1.93,24.84,2.61,37.27.72,13.24,1.23,26.49,1.59,39.75h5.83c-.62-24.09-1.69-48.22-3.76-72.22-.58-6.69-1.3-13.39-2.33-20.04,14.49,4.96,30.22,5.7,45.13,2.24-2.51,16.63-3.07,33.7-3.97,50.27-.72,13.24-1.23,26.49-1.59,39.75h5.81c.62-24.09,1.69-48.22,3.76-72.22,1.06-12.29,2.64-24.57,5.85-36.5.69-2.55,1.29-5.19,3.3-7.05,1.49-1.38,3.43-2.42,5.19-3.44,3.22-1.87,6.51-3.6,9.66-5.59,6.03-3.82,12.23-9.01,13.21-16.25,2.41,1.11,4.83,2.22,7.24,3.34.65.77,1.63,1.23,2.55,1.18,8.15,3.75,16.3,7.51,24.45,11.26,6.35,2.93,12.78,5.73,19.05,8.82,5.58,2.76,10.52,6.04,13.85,11.43,6.32,10.22,9.47,22.81,11.59,34.53,2.26,12.48,3.03,25.17,3.52,37.82.42,10.9.62,21.81,1.29,32.69h5.82c-1.4-22.78-.79-45.71-4.38-68.32-1.99-12.56-5.3-25.25-11.12-36.63-6.08-11.88-17.21-16.4-28.74-21.71-10.64-4.9-21.27-9.8-31.91-14.7,3.55-9.03,5.01-18.51,6.42-28.14,1.57-10.72,4.42-21.08,5.03-31.92.64-11.44,1.37-22.93,1.19-34.39-.19-11.86-1.57-23.63-2.64-35.43-.52-5.7-.96-11.41-1.12-17.14-.18-6.11.53-12.28.03-18.36-.84-10.3-2.33-21.16-5.71-30.95-5.95-17.25-18.63-30.56-33.77-40.3-9.8-6.3-20.15-10.75-31.67-12.76-10.43-1.82-21.33-2.28-31.09,2.26-18.25-1.32-33.51,10.69-44.91,23.72-11.81,13.5-20.97,29.7-24.58,47.39-1.86,9.08-1.9,18.39-2.6,27.6-.8,10.5-.66,21.07-1.12,31.59-.45,10.31-1.05,20.62-1.8,30.92-.68,9.36-1.51,18.75-1.09,28.14.23,5,.8,10.03,1.93,14.91.63,2.73,1.58,5.35,1.87,8.16.28,2.65.18,5.33.19,7.99.02,10.1,2.16,19.96,7.13,28.79-7.38,3.4-14.75,6.8-22.13,10.19-11.23,5.17-24.55,9.37-31.71,20.14-6.87,10.33-10.3,23.61-12.58,35.65-2.38,12.55-3.31,25.32-3.86,38.06-.5,11.74-.67,23.51-1.39,35.24h5.82ZM221.49,286.37c-3.13,1.83-6.37,3.48-9.41,5.46-4.12,2.69-6.44,5.67-7.84,10.41-1.53,5.19-2.74,10.48-3.72,15.83-15.66,4.17-32.17,3.23-47.31-2.56-.56-2.93-1.19-5.85-1.91-8.76-1.19-4.79-2.28-9.72-6.29-12.95-2.79-2.26-6.01-3.94-9.13-5.7-5.77-3.25-14.31-7.43-16.17-14.33,6.61-2.76,13.08-5.82,19.39-9.21.11,2.24.25,4.47.45,6.69.34,3.7,6.16,3.74,5.82,0-1-11.02-.47-22.27-1.8-33.28,4.82,2.73,10.1,4.55,15.67,5.65,10.43,2.07,20.97,2.54,31.45.47,8.46-1.67,16.15-5.56,22.89-10.89-1.97,12.7-4.5,25.35-5.74,38.15-.36,3.73,5.47,3.7,5.82,0,.23-2.34.5-4.68.81-7.01,6.53,3.53,13.24,6.7,20.09,9.55-1.66,5.79-8.09,9.57-13.1,12.48ZM132.44,114.1c-1.22-13.56,1.58-26.95,7.98-38.72-.8,7.05-.38,14.19,2.26,20.84,3.42,8.63,11.8,19.21,22.21,18.28.82-.07,1.47-.42,1.92-.91,1.97.96,4.27,1.31,6.96.72.38-.08.7-.22.97-.39,6.54.82,13.17.44,19.6-1,.26-.06.5-.16.72-.29,2.6.51,5.17.12,7.37-.97.06.18.12.36.2.53,1.32,2.91,5.13,3.53,7.87,4.34,6.96,2.06,14.1,3.38,21.31,4.1.59,4.54,1.36,9.05,3.38,13.22,1.67,3.45,4.2,6.3,7.43,8.21-3.83,27.27-6.76,59.01-25.97,80.3-5.01,5.55-11.03,10-17.82,13.14-9.84,4.55-21.89,4.99-32.47,3.45-7.96-1.16-15.91-2.98-22.61-7.65-7.87-5.49-13.36-13.89-17.54-22.36-5.04-10.22-7.31-21.14-9.61-32.22-2.41-11.61-4.69-23.21-6.43-34.94.28-.33.48-.77.57-1.34.57-3.84,1.14-7.69,1.71-11.53.21-1.44.38-2.9.64-4.32.32-1.75.18-2.86,2.26-3.13,2.4-.31,3.56-.16,5.34-1.98,2.41-2.47,4.53-3.76,8.06-2.57,1.68.57,3.85-.97,3.69-2.81ZM94.31,247.63c-.05-4.26.15-8.53-.65-12.74-.85-4.44-2.28-8.65-2.83-13.16-2.16-17.98.84-36.62,1.83-54.6.53-9.74.94-19.49,1.15-29.25.2-9.19.94-18.34,1.41-27.52.9-17.8,8-34.66,18.41-48.95,10.77-14.78,26.62-30.75,46.26-29.76.54.22,1.15.28,1.8.1.72-.04,1.27-.32,1.66-.75,8.72-4.03,18.86-3.27,28.08-1.53,9.81,1.85,18.62,5.52,27.09,10.75,14.59,9.01,27.29,21.49,32.98,38.01,3.32,9.64,5.05,20.57,5.6,30.74.28,5.18-.28,10.39-.16,15.58.12,5.73.53,11.45,1.03,17.16.92,10.39,2.16,20.76,2.6,31.19.45,10.75-.16,21.41-.67,32.14-.28,5.89-.37,11.83-1.28,17.67-.87,5.61-2.44,11.09-3.33,16.71-1.65,10.52-2.71,21.23-6.64,31.17-3.06-1.41-6.13-2.82-9.19-4.23-1.79-.83-3.47.2-4.14,1.58-6.65-2.81-13.14-5.98-19.45-9.47-.17-.09-.35-.17-.52-.23,1.46-9.62,3.3-19.2,4.64-28.82.09-.67.04-1.33-.19-1.91,8.82-9.31,14.6-21.26,18.53-33.41,5.47-16.89,7.63-34.61,10.13-52.12.05-.35.04-.67,0-.98.37-1.61-.65-2.85-2.06-3.45-1.22-.51-2.53-1.57-3.6-2.73-1.07-1.16-1.96-2.62-2.72-4.23-.67-1.44-1.31-3.72-1.7-5.57-.44-2.11-.72-4.24-.99-6.37-.17-1.34-.93-2.52-2.23-2.83-.46-.47-1.09-.81-1.9-.88-6.18-.55-12.28-1.62-18.27-3.21-1.34-.36-6.84-1.52-7.04-2.07-.22-.62.48-2.25.57-2.95.17-1.19.14-2.3-.24-3.45-.91-2.75-4.71-2.77-5.62,0-.55,1.7-1.9,2.96-3.51,3.5,1.19-6.6.4-13.35-.86-19.95-1.6-8.35-3.58-16.64-5.65-24.89-.91-3.63-6.53-2.09-5.62,1.55,1.9,7.6,3.69,15.24,5.26,22.93,1.41,6.89,2.45,13.95.82,20.84-.11.01-.22.03-.33.05-5.97,1.34-12.16,1.57-18.35.76-.63-.08-1.24.16-1.75.57-.15.01-.31.03-.47.07-6.69,1.47-9.3-10.39-10.34-14.77-2.17-9.1-2.26-18.62-.36-27.77.76-3.66-4.85-5.22-5.62-1.55-2.35,11.27-2.03,23.01,1.21,34.08.93,3.16,2.26,6.73,4.19,9.68-6.72-1.74-11.82-9.77-13.76-15.75-3.04-9.4-1.51-19.44,1.19-28.72,1.05-3.6-4.56-5.14-5.61-1.56-.73.11-1.43.48-1.98,1.19-10.24,13.45-15.46,30.24-14.77,47.08-2.18-.04-4.36.48-6.3,1.6-1.33.77-2.29,2.51-3.52,3.15-.47.25-.98.32-1.5.34-.02-.05-.03-.11-.05-.16-2.59-6.62-.81-14.75,1.04-21.37,1.95-6.99,5.08-13.52,9.19-19.5,2.13-3.1-2.92-6.01-5.03-2.94-4.51,6.57-7.92,13.91-9.97,21.61-1.97,7.36-3.71,16.41-.84,23.74.08.2.17.38.27.54-1.24,1.48-1.85,3.52-2.2,5.41-.96,5.24-1.57,10.58-2.36,15.86-.03.2-.04.4-.03.58-.56.63-.89,1.49-.74,2.51,1.7,11.76,3.94,23.41,6.38,35.04,2.17,10.34,4.13,20.69,8.4,30.42,4,9.12,9.23,18.01,16.61,24.82.44.4.88.79,1.32,1.17,0,.16.02.33.05.51,1.14,6.06,1.25,12.36,1.51,18.5.08,1.91.15,3.83.22,5.74-.25.06-.49.15-.72.28-6.32,3.49-12.81,6.67-19.45,9.47-.67-1.38-2.34-2.41-4.14-1.58-4.54,2.09-9.08,4.18-13.62,6.27-4.39-7.63-6.51-16.21-6.61-25Z"></path>
        <path class="cls-3" d="M155.73,127.81c1.57.14,2.91-1.44,2.91-2.91,0-1.69-1.34-2.77-2.91-2.91-10.22-.93-20.76,2.03-28.99,8.16-1.26.94-1.9,2.52-1.04,3.98.73,1.24,2.72,1.99,3.98,1.04,7.52-5.6,16.7-8.21,26.05-7.36Z"></path>
        <path class="cls-3" d="M197.06,127.81c9.34-.85,18.53,1.76,26.05,7.36,1.26.94,3.25.21,3.98-1.04.87-1.49.22-3.04-1.04-3.98-8.23-6.13-18.77-9.09-28.99-8.16-1.57.14-2.91,1.24-2.91,2.91,0,1.46,1.34,3.06,2.91,2.91Z"></path>
        <path class="cls-3" d="M148.52,153.98c.56-.52.81-1.17,1.08-1.85.32-.82.45-1.67.55-2.54.07-.63.08-1.25,0-1.88-.1-.89-.24-1.76-.57-2.6-.28-.71-.52-1.29-1.05-1.86-.31-.33-.68-.62-1.09-.81-.81-.38-1.71-.61-2.6-.33-.91.29-1.72.96-2.08,1.85-.4.35-.71.82-.89,1.38-.54,1.64-.55,3.42-.18,5.09.48,2.18,1.87,4.46,4.34,4.55.92.04,1.83-.4,2.49-1.01Z"></path>
        <path class="cls-3" d="M210.56,145.11c-.28-.71-.52-1.29-1.05-1.86-.31-.33-.68-.62-1.09-.81-.81-.38-1.71-.61-2.6-.33-.91.29-1.72.96-2.08,1.85-.4.35-.71.82-.89,1.38-.54,1.64-.55,3.42-.18,5.09.48,2.18,1.87,4.46,4.34,4.55.92.04,1.83-.4,2.49-1.01.56-.52.81-1.17,1.08-1.85.32-.82.45-1.67.55-2.54.07-.63.08-1.25,0-1.88-.1-.89-.24-1.76-.57-2.6Z"></path>
        <path class="cls-3" d="M178.8,183.11s.2-.1.32-.16c.13-.05.4-.17.4-.17.37-.14.75-.28,1.12-.42.84-.32,1.69-.65,2.43-1.17.99-.69,1.8-1.6,2.14-2.78.39-1.35,0-2.69-.27-4.02-.88-4.44-.97-9.1-.41-13.66.19-1.56-1.48-2.91-2.91-2.91-1.73,0-2.72,1.34-2.91,2.91-.53,4.33-.4,8.65.23,12.97.14.96.32,1.92.52,2.87-.1.06-.21.11-.32.16-.09.03-.55.21-.67.25-.88.33-1.77.66-2.61,1.1-1.39.73-1.81,2.67-1.04,3.98.83,1.41,2.58,1.77,3.98,1.04ZM179.9,176.33s0,0,0-.01c.11-.07.17-.08,0,.01Z"></path>
        <path class="cls-3" d="M185.05,215.07c-1.04.32-2.1.57-3.17.75-.12.02-.23.04-.35.05-.03,0-.07,0-.12.01-.25.02-.5.05-.75.07-.54.04-1.09.07-1.63.08-1.09.02-2.16-.07-3.24-.17-.12-.02-.24-.04-.36-.06-.25-.04-.49-.09-.74-.13-.57-.11-1.14-.25-1.71-.4-1.47-.4-3.23.5-3.58,2.03-.35,1.53.46,3.16,2.03,3.58,4.95,1.34,10.25,1.28,15.16-.21,1.46-.44,2.53-2.06,2.03-3.58-.48-1.47-2.02-2.51-3.58-2.03Z"></path>
      </g>
    </g>
  </g>
</svg>
