<?xml version="1.0" encoding="UTF-8"?>
<svg xmlns="http://www.w3.org/2000/svg" xmlns:xlink="http://www.w3.org/1999/xlink" id="_レイヤー_2" data-name="レイヤー 2" viewBox="0 0 354 354">
  <defs>
    <style>
      .cls-1 {
        clip-path: url(#clippath);
      }

      .cls-2 {
        fill: none;
      }

      .cls-2, .cls-3, .cls-4, .cls-5, .cls-6 {
        stroke-width: 0px;
      }

      .cls-3 {
        fill: #f7b200;
      }

      .cls-4 {
        fill: #5e514f;
      }

      .cls-5 {
        fill: #5b5959;
      }

      .cls-6 {
        fill: #fff;
      }
    </style>
    <clipPath id="clippath">
      <circle class="cls-2" cx="177" cy="177" r="177"></circle>
    </clipPath>
  </defs>
  <g id="_レイヤー_1-2" data-name="レイヤー 1">
    <g class="cls-1">
      <g>
        <g>
          <path class="cls-6" d="M234.33,273.78c-2,8.88-13.42,13.28-21.28,15.63-11.69,3.49-23.82,5.36-36.03,5.37-12.02,0-23.94-1.82-35.47-5.19-8.01-2.34-19.85-6.73-21.88-15.81,6.25-2.61,12.37-5.49,18.35-8.66.08,1.2.16,2.39.27,3.59.34,3.7,6.16,3.74,5.82,0-1.02-11.21-.45-22.65-1.87-33.84,3.07,2.33,6.19,4.61,9.4,6.7,6.76,4.4,14.5,8.18,22.68,8.64,8.15.45,16.17-2.83,23.13-6.77,5.77-3.27,11.08-7.22,16.34-11.23-1.95,12.5-4.39,24.96-5.61,37.55-.36,3.73,5.47,3.7,5.82,0,.17-1.79.43-3.56.65-5.35,6.4,3.45,12.96,6.57,19.68,9.37Z"></path>
          <path class="cls-6" d="M231.27,196.51c-1.17,4.32-2.27,8.71-3.76,12.93-1.65,4.71-4.43,8.14-8.25,11.29-5.72,4.72-11.8,9.23-17.94,13.4-6.38,4.33-13.33,8.42-21.01,9.85-8.06,1.5-15.87-1.51-22.72-5.57-6.76-4-12.8-9.06-19.02-13.82-3.25-2.49-6.68-4.86-9.37-7.99-3.24-3.78-4.43-8.69-5.77-13.36-4.92-17.11-8.78-34.5-11.73-52.05,1.42-.36,2.54-1.69,2.09-3.49-3.87-15.3,2.47-30.35,9.42-43.75,5.71-10.99,11.33-23.7,20.35-32.62-.38,12.7.18,25.66,5.73,37.26,1.41,2.96,3.15,5.75,5.15,8.29-8.96-2.5-18.73-2.04-27.35,1.48-1.46.59-2.49,1.94-2.03,3.58.38,1.38,2.12,2.63,3.58,2.03,8.68-3.54,18.2-3.78,27.04-.63,1.3.46,2.72-.37,3.33-1.54,5.13,4.67,11.44,7.9,18.59,8.82,1.42.18,2.28-.57,2.61-1.58,5.16,2.01,11.13,1.19,16.49.27.07-.01.1-.05.16-.06.62.28,1.27.53,1.97.74,4.61,1.35,9.8,1.54,14.56,1.86,5.93.4,11.88.44,17.82.18,1.09-.05,1.83-.6,2.28-1.33,3.46,6.65,6.67,13.32,6.58,21.03,0,.77.27,1.38.69,1.85-2.5,14.44-5.64,28.77-9.48,42.92Z"></path>
          <path class="cls-6" d="M255.7,145.93c-.74,4.75-1.99,9.43-3.66,13.94-2.45,6.61-5.94,12.81-10.25,18.38.04-.18.08-.36.12-.54,2.56-11.44,4.66-22.97,6.37-34.56.82-.05,1.64-.42,2.24-1.24.91-1.24,2.85-4.04,4.56-2.76,1.75,1.31.89,5,.62,6.79Z"></path>
          <path class="cls-5" d="M111.33,69.21c9.77-17,26.86-38.65,48.6-37.51.53.2,1.14.18,1.78-.02.65-.04,1.19-.24,1.56-.62,9.24-4.57,20.41-3.16,30.08-.69,9.94,2.54,18.79,7.64,26.91,13.82,7.52,5.72,14.19,12.65,19.06,20.77,5.47,9.11,8.15,19.28,9.59,29.74,1.84,13.36,2.64,27.12-.08,40.41,0,.03,0,.06,0,.09-1.01.88-1.9,1.9-2.71,2.97-.68-.09-1.35.03-1.92.39-.23.1-.41.26-.59.43-1.35-3.85-3.16-7.56-5.1-11.25-1.99-3.8-4.07-7.58-5.54-11.63-1.76-4.85-2.54-10.01-3.3-15.09-2.72-18-5.22-39.02-22.63-49.12-3.25-1.88-6.18,3.15-2.94,5.03,16.74,9.71,17.62,31.45,20.39,48.41,1.23,7.53,3.5,14.16,6.76,20.87-.02,0-.03,0-.04,0-5.7.25-11.41.23-17.11-.13-4.87-.31-11.04-.15-15.5-2.38-4.57-2.29-5.01-8.88-5.93-13.35-1.11-5.39-2.03-10.81-3.03-16.22-3.19-17.38-6.85-40.65-25.96-47.42-3.54-1.25-5.06,4.37-1.55,5.62,10.04,3.56,14.72,13.83,17.46,23.37,3.03,10.53,4.6,21.41,6.66,32.15,1.07,5.61,1.85,11.88,4.86,16.44-4.47.51-9.05.29-12.41-3.09-4.17-4.18-7.13-10.11-9.56-15.43-5.03-11.01-7.28-23.16-6.83-35.24.14-3.75-5.69-3.74-5.82,0-.52,14.09,2.55,28.15,8.86,40.76,2.07,4.12,4.51,8.77,7.73,12.44-9.05-3.03-15.98-11.22-19.55-19.88-5.28-12.79-4.44-27.21-3.8-40.73.18-3.75-5.65-3.74-5.82,0,0,.1,0,.2-.01.3-12.23,9.85-19.25,25-26.28,38.71-5.56,10.85-10.39,22.56-10.75,34.64-.61-.44-1.36-.58-2.1-.46-1.02-1.08-2.19-1.98-3.54-2.58-5.63-21.92-1.05-45.07,10.12-64.51Z"></path>
          <path class="cls-6" d="M100.76,160.07c-1.66-4.28-2.93-8.72-3.76-13.24-.37-1.99-1.37-5.62.13-7.37,1.61-1.87,3.88,1.19,4.82,2.43.4.53.89.86,1.41,1.05.46,1.07,1.01,2.08,1.63,3.04,1.64,10.7,3.65,21.34,6.01,31.9-4.25-5.4-7.75-11.4-10.25-17.82Z"></path>
          <path class="cls-5" d="M119.2,209.57c.72,2.28,1.55,4.53,2.69,6.62,2.15,3.96,5.46,7.04,8.97,9.79,1.69,1.32,3.37,2.66,5.06,4-.12.43-.18.89-.08,1.41,1.14,6.06,1.25,12.36,1.51,18.5.13,2.93.22,5.87.33,8.8-6.19,3.4-12.55,6.48-19.05,9.22-.68-1.37-2.31-2.38-4.1-1.56-1.38.64-2.76,1.27-4.14,1.91-1.12-20.01,1.88-39.93,8.81-58.7Z"></path>
          <path class="cls-3" d="M72.69,414.36c.91-12.61,1.81-25.23,2.72-37.84.27-3.72,6.09-3.74,5.82,0-.91,12.61-1.81,25.23-2.72,37.84h199.91c-.91-12.61-1.81-25.23-2.72-37.84-.27-3.75,5.56-3.72,5.82,0,.91,12.61,1.81,25.23,2.72,37.84h40.03c-.67-10.88-.9-21.79-1.32-32.69-.49-12.65-1.26-25.34-3.52-37.82-2.12-11.71-5.27-24.3-11.59-34.53-3.33-5.39-8.27-8.67-13.85-11.43-6.27-3.1-12.7-5.9-19.05-8.82-11.53-5.31-23.05-10.62-34.58-15.93-1.17,10.69-12.17,17.21-21.57,20.52-13.28,4.68-27.7,6.92-41.76,6.92-14.25,0-28.97-2.26-42.39-7.13-9.22-3.35-19.83-9.85-20.98-20.32-13.29,6.12-26.58,12.25-39.88,18.37-6.04,2.78-12.34,5.3-18.08,8.69-5.41,3.19-9.01,7.57-11.73,13.18-5.38,11.08-8.37,23.32-10.21,35.46-3.28,21.68-2.7,43.67-4.02,65.52h42.96Z"></path>
          <path class="cls-5" d="M148.54,143.25c-.31-.33-.68-.62-1.09-.81-.81-.38-1.71-.61-2.6-.33-.93.29-1.72.99-2.08,1.9-.39.35-.72.77-.9,1.32-.54,1.64-.55,3.42-.18,5.09.48,2.18,1.87,4.46,4.34,4.55.92.04,1.83-.4,2.49-1.01.56-.52.81-1.17,1.08-1.85.32-.82.45-1.67.55-2.54.07-.63.08-1.25,0-1.88-.1-.89-.24-1.76-.57-2.6-.28-.71-.52-1.29-1.05-1.86Z"></path>
          <path class="cls-5" d="M147.91,146.62c.1-.16.19-.31.25-.49-.05.13-.11.25-.16.38-.03.04-.06.07-.08.11Z"></path>
          <path class="cls-5" d="M209.51,143.25c-.31-.33-.68-.62-1.09-.81-.81-.38-1.71-.61-2.6-.33-.93.29-1.72.99-2.08,1.9-.39.35-.72.77-.9,1.32-.54,1.64-.55,3.42-.18,5.09.48,2.18,1.87,4.46,4.34,4.55.92.04,1.83-.4,2.49-1.01.56-.52.81-1.17,1.08-1.85.32-.82.45-1.67.55-2.54.07-.63.08-1.25,0-1.88-.1-.89-.24-1.76-.57-2.6-.28-.71-.52-1.29-1.05-1.86Z"></path>
          <path class="cls-5" d="M208.88,146.62c.1-.16.19-.32.25-.49-.05.13-.11.25-.16.38-.03.04-.06.07-.08.11Z"></path>
          <path class="cls-5" d="M177.68,189.65c1.66-1.13,3.65-1.66,5.05-3.17,2.17-2.34,1.36-5.2.97-8.03-.79-5.76-.83-11.62-.3-17.39.15-1.57-1.44-2.91-2.91-2.91-1.7,0-2.77,1.34-2.91,2.91-.48,5.21-.47,10.45.09,15.66.15,1.43.34,2.86.56,4.29.05.34.09.71.18,1.04.23.85.06.01,0,.57.01-.14-.01,0-.25.16-.36.23-.75.42-1.13.61-.78.39-1.57.75-2.29,1.25-1.3.88-1.88,2.56-1.04,3.98.75,1.29,2.68,1.93,3.98,1.04Z"></path>
          <path class="cls-5" d="M186.19,216.5c-1.2.36-2.42.66-3.66.86-.15.03-.31.05-.46.07-.04,0-.08,0-.2.02-.29.03-.58.06-.86.08-.63.05-1.25.08-1.88.09-1.26.02-2.5-.08-3.76-.19-.03,0-.02,0-.04,0-.16-.02-.32-.05-.48-.07-.29-.05-.57-.1-.85-.16-.66-.13-1.32-.29-1.97-.47-1.47-.4-3.23.49-3.58,2.03-.35,1.53.46,3.16,2.03,3.58,5.64,1.52,11.67,1.45,17.27-.24,1.46-.44,2.53-2.06,2.03-3.58-.48-1.47-2.02-2.51-3.58-2.03Z"></path>
          <path class="cls-4" d="M160.6,205.56c-.58,1.15-.31,3.15.82,3.74,5.88,3.05,11.77,5.39,18.26,5.15,5.61-.21,10.9-1.61,15.45-5.72.99-.9,1.48-2.35.82-3.74-.55-1.16-2.15-1.87-3.13-.98-3.94,3.57-8.26,4.79-13.14,4.97-5.65.22-10.82-1.74-15.95-4.4-1.14-.59-2.44-.39-3.13.98Z"></path>
        </g>
        <path class="cls-4" d="M29.77,414.36c1.31-21.84.7-43.84,3.98-65.52,1.84-12.13,4.83-24.37,10.21-35.45,2.72-5.61,6.32-9.99,11.73-13.18,5.74-3.39,12.03-5.91,18.08-8.69,13.28-6.12,26.57-12.24,39.85-18.36,1.15,10.46,11.79,16.96,21.01,20.31,13.42,4.87,28.14,7.13,42.39,7.13,14.06,0,28.48-2.24,41.76-6.92,9.4-3.31,20.43-9.83,21.6-20.51,11.52,5.31,23.04,10.61,34.56,15.92,6.35,2.93,12.78,5.73,19.05,8.82,5.58,2.76,10.52,6.04,13.85,11.43,6.32,10.22,9.47,22.81,11.59,34.53,2.26,12.48,3.03,25.17,3.52,37.82.42,10.9.62,21.81,1.29,32.69h5.82c-1.4-22.78-.79-45.71-4.38-68.32-1.99-12.56-5.3-25.25-11.12-36.63-6.08-11.88-17.21-16.4-28.74-21.71-15.45-7.12-30.9-14.23-46.35-21.35-1.79-.83-3.47.2-4.14,1.58-6.65-2.81-13.14-5.98-19.45-9.47-.14-.08-.29-.14-.45-.2,1.5-10.17,3.47-20.28,4.88-30.44.03-.22.04-.44.04-.65,5.6-4.43,10.27-8.98,12.77-16.18,2.49-7.17,4.45-14.6,6.22-22.05.58-.06,1.17-.32,1.7-.88,8.99-9.45,15.56-21.09,18.84-33.72,1.43-5.5,3.89-13.64-.04-18.58-1.21-1.52-2.91-2.51-4.75-2.76,1.89-11.73,1.42-23.61,0-35.4-1.39-11.55-3.77-22.9-9.39-33.2-9.89-18.12-29.08-33.5-48.94-39.14-11.62-3.3-25.07-4.93-36.23.59-23.81-1.77-42.69,20.82-53.62,39.35-12.12,20.55-17.27,45.18-11.73,68.55-.99.49-1.89,1.22-2.6,2.13-3.94,5.04-1.29,13.27.25,18.81,3.47,12.49,10.17,23.96,19.22,33.22.45.46.95.72,1.45.82,1.03,4.14,2.12,8.26,3.27,12.37-.44.31-.82.75-1.07,1.35-8.87,21.34-12.65,44.56-11.07,67.61.02.28.07.53.15.77-10.44,4.81-20.88,9.62-31.31,14.42-11.23,5.17-24.55,9.37-31.71,20.14-6.87,10.33-10.3,23.61-12.58,35.65-2.38,12.55-3.31,25.32-3.86,38.06-.5,11.74-.67,23.51-1.39,35.24h5.82ZM234.34,273.79c-2,8.87-13.43,13.27-21.29,15.62-11.69,3.49-23.82,5.36-36.03,5.37-12.02,0-23.94-1.82-35.47-5.19-8-2.34-19.86-6.72-21.9-15.79,6.25-2.61,12.37-5.48,18.35-8.65.08,1.19.16,2.37.27,3.56.34,3.7,6.16,3.74,5.82,0-1.02-11.2-.45-22.64-1.87-33.82,3.07,2.33,6.19,4.59,9.39,6.68,6.76,4.4,14.5,8.18,22.68,8.64,8.15.45,16.17-2.83,23.13-6.77,5.78-3.27,11.1-7.24,16.38-11.25-1.95,12.51-4.43,24.97-5.65,37.57-.36,3.73,5.47,3.7,5.82,0,.17-1.79.37-3.58.59-5.36,6.42,3.47,13.01,6.59,19.75,9.4ZM255.09,139.15c1.75,1.31.89,5,.62,6.79-.74,4.75-1.99,9.43-3.66,13.94-2.45,6.61-5.94,12.81-10.25,18.39.04-.18.08-.37.12-.55,2.56-11.44,4.67-22.96,6.37-34.56.82-.05,1.63-.43,2.23-1.25.91-1.24,2.85-4.04,4.56-2.76ZM111.33,69.21c9.74-16.96,26.76-38.59,48.43-37.57.58.27,1.26.34,1.98.1.73-.05,1.28-.35,1.66-.81,9.22-4.48,20.33-3.02,29.95-.56,9.94,2.54,18.79,7.64,26.91,13.82,7.52,5.72,14.19,12.65,19.06,20.77,5.47,9.11,8.15,19.28,9.59,29.74,1.84,13.36,2.64,27.12-.08,40.41,0,.02,0,.03,0,.05-1.01.87-1.89,1.92-2.69,2.97-.72-.1-1.46.04-2.06.46-.18.09-.34.2-.49.34-1.35-3.82-3.16-7.52-5.08-11.19-1.99-3.8-4.07-7.58-5.54-11.63-1.76-4.85-2.54-10.01-3.3-15.09-2.72-18-5.22-39.02-22.63-49.12-3.25-1.88-6.18,3.15-2.94,5.03,16.74,9.71,17.62,31.45,20.39,48.41,1.23,7.53,3.44,14.16,6.7,20.86-5.7.24-11.4.22-17.09-.13-4.87-.31-11.04-.15-15.5-2.38-4.57-2.29-5.01-8.89-5.93-13.35-1.11-5.39-2.03-10.81-3.03-16.22-3.19-17.38-6.85-40.65-25.96-47.42-3.54-1.25-5.06,4.37-1.55,5.62,10.04,3.56,14.72,13.83,17.46,23.37,3.03,10.53,4.6,21.41,6.66,32.15,1.07,5.61,1.85,11.88,4.85,16.45-4.46.51-9.04.28-12.41-3.09-4.17-4.18-7.13-10.11-9.56-15.43-5.03-11.01-7.28-23.16-6.83-35.24.14-3.75-5.69-3.74-5.82,0-.52,14.09,2.55,28.15,8.86,40.76,2.06,4.12,4.5,8.77,7.72,12.44-9.04-3.03-15.96-11.22-19.54-19.88-5.28-12.79-4.44-27.21-3.8-40.73.18-3.75-5.65-3.74-5.82,0,0,.08,0,.16-.01.24-12.25,9.85-19.24,25.05-26.28,38.77-5.55,10.83-10.37,22.51-10.75,34.57-.6-.42-1.36-.55-2.09-.43-1.04-1.09-2.21-2.05-3.59-2.64-5.59-21.89-.99-45,10.16-64.41ZM100.76,160.07c-1.66-4.28-2.93-8.72-3.76-13.24-.37-1.99-1.37-5.62.13-7.37,1.61-1.87,3.88,1.19,4.82,2.43.4.53.89.86,1.41,1.05.45,1.05.97,2.04,1.58,2.99,1.64,10.69,3.64,21.32,5.99,31.87-4.22-5.38-7.69-11.36-10.17-17.74ZM111.65,151.21c1.45-.33,2.6-1.69,2.14-3.52-3.87-15.3,2.47-30.35,9.42-43.75,5.71-10.99,11.33-23.7,20.35-32.63-.38,12.7.18,25.66,5.73,37.26,1.41,2.94,3.13,5.72,5.12,8.26-8.95-2.49-18.71-2-27.32,1.51-1.46.59-2.49,1.94-2.03,3.58.38,1.38,2.12,2.63,3.58,2.03,8.68-3.54,18.2-3.78,27.04-.63,1.29.46,2.76-.34,3.37-1.51,5.12,4.65,11.42,7.86,18.54,8.78,1.41.18,2.27-.55,2.61-1.54,5.16,2.01,11.13,1.14,16.49.23.07-.01.13-.03.19-.04.61.27,1.25.52,1.95.72,4.61,1.35,9.8,1.54,14.56,1.86,5.93.4,11.88.44,17.82.18,1.08-.05,1.85-.57,2.31-1.28,3.45,6.64,6.64,13.3,6.56,20.99,0,.78.26,1.41.7,1.88-2.5,14.43-5.65,28.75-9.49,42.89-1.17,4.32-2.27,8.71-3.76,12.93-1.65,4.71-4.43,8.14-8.25,11.29-5.72,4.72-11.8,9.23-17.94,13.4-6.38,4.33-13.33,8.42-21.01,9.85-8.06,1.5-15.87-1.51-22.72-5.57-6.76-4-12.8-9.06-19.02-13.82-3.25-2.49-6.68-4.86-9.37-7.99-3.24-3.78-4.43-8.69-5.77-13.36-4.92-17.1-8.83-34.48-11.78-52.03ZM119.18,209.5c.73,2.31,1.57,4.58,2.71,6.69,2.15,3.96,5.46,7.04,8.97,9.79,1.68,1.32,3.36,2.65,5.04,3.98-.12.43-.16.91-.06,1.43,1.14,6.06,1.25,12.36,1.51,18.5.13,2.93.22,5.88.33,8.82-6.18,3.39-12.52,6.49-19.01,9.23-.67-1.38-2.34-2.41-4.14-1.58-1.39.64-2.78,1.28-4.18,1.92-1.13-20.04,1.88-39.99,8.82-58.78Z"></path>
        <path class="cls-4" d="M149.6,145.11c-.28-.71-.52-1.29-1.05-1.86-.31-.33-.68-.62-1.09-.81-.81-.38-1.71-.61-2.6-.33-.91.29-1.72.96-2.08,1.85-.4.35-.71.82-.89,1.38-.54,1.64-.55,3.42-.18,5.09.48,2.18,1.87,4.46,4.34,4.55.92.04,1.83-.4,2.49-1.01.56-.52.81-1.17,1.08-1.85.32-.82.45-1.67.55-2.54.07-.63.08-1.25,0-1.88-.1-.89-.24-1.76-.57-2.6Z"></path>
        <path class="cls-4" d="M210.56,145.11c-.28-.71-.52-1.29-1.05-1.86-.31-.33-.68-.62-1.09-.81-.81-.38-1.71-.61-2.6-.33-.91.29-1.72.96-2.08,1.85-.4.35-.71.82-.89,1.38-.54,1.64-.55,3.42-.18,5.09.48,2.18,1.87,4.46,4.34,4.55.92.04,1.83-.4,2.49-1.01.56-.52.81-1.17,1.08-1.85.32-.82.45-1.67.55-2.54.07-.63.08-1.25,0-1.88-.1-.89-.24-1.76-.57-2.6Z"></path>
        <path class="cls-4" d="M177.68,189.65c1.66-1.13,3.65-1.66,5.05-3.17,2.17-2.34,1.36-5.2.97-8.03-.79-5.76-.83-11.62-.3-17.39.15-1.57-1.44-2.91-2.91-2.91-1.7,0-2.77,1.34-2.91,2.91-.48,5.21-.47,10.45.09,15.66.15,1.43.34,2.86.56,4.29.05.34.09.71.18,1.04.23.85.06.01,0,.57.01-.14-.01,0-.25.16-.36.23-.75.42-1.13.61-.78.39-1.57.75-2.29,1.25-1.3.88-1.88,2.56-1.04,3.98.75,1.29,2.68,1.93,3.98,1.04Z"></path>
        <path class="cls-4" d="M186.19,216.5c-1.2.36-2.42.66-3.66.86-.15.02-.3.05-.45.07-.05,0-.12.01-.21.03-.29.03-.58.06-.86.08-.63.05-1.25.08-1.88.09-1.26.02-2.5-.08-3.76-.19-.02,0-.03,0-.04,0-.16-.02-.32-.05-.47-.07-.29-.05-.57-.1-.86-.16-.66-.13-1.32-.29-1.97-.47-1.47-.4-3.23.5-3.58,2.03-.35,1.53.46,3.16,2.03,3.58,5.64,1.52,11.67,1.45,17.27-.24,1.46-.44,2.53-2.06,2.03-3.58-.48-1.47-2.02-2.51-3.58-2.03Z"></path>
      </g>
    </g>
  </g>
</svg>
