<svg width="40" height="32" viewBox="0 0 40 32" fill="none" xmlns="http://www.w3.org/2000/svg">
<g clip-path="url(#clip0_30_391)">
<path d="M38.1595 5.58661L28.7453 12.7257L19.8375 5.58661L10.6311 12.0568L1.51172 5.58661L5.18519 31.5163H34.486L38.1595 5.58661Z" fill="#FBCF00"/>
<path d="M3.97203 5.41656C3.97203 6.51255 3.0839 7.40446 1.98413 7.40446C0.884354 7.40446 0 6.51255 0 5.41656C0 4.32056 0.888133 3.42865 1.98791 3.42865C3.08768 3.42865 3.97581 4.31678 3.97581 5.41656H3.97203Z" fill="#FBCF00"/>
<path d="M22.5699 3.79523C22.5699 5.38254 21.2849 6.66749 19.6976 6.66749C18.1103 6.66749 16.8254 5.38254 16.8254 3.79523C16.8254 2.20793 18.1103 0.922974 19.6976 0.922974C21.2849 0.922974 22.5699 2.20793 22.5699 3.79523Z" fill="#FBCF00"/>
<path d="M38.0121 7.40446C39.11 7.40446 40 6.51445 40 5.41656C40 4.31867 39.11 3.42865 38.0121 3.42865C36.9142 3.42865 36.0242 4.31867 36.0242 5.41656C36.0242 6.51445 36.9142 7.40446 38.0121 7.40446Z" fill="#FBCF00"/>
<path d="M21.4059 27.3893H17.5586V16.4937H16.0166V13.1452H21.4059V27.3931V27.3893Z" fill="white"/>
</g>
<defs>
<clipPath id="clip0_30_391">
<rect width="40" height="30.5933" fill="white" transform="translate(0 0.922974)"/>
</clipPath>
</defs>
</svg>
