<svg xmlns="http://www.w3.org/2000/svg" xmlns:xlink="http://www.w3.org/1999/xlink" width="2100.915" height="359.757" viewBox="0 0 2100.915 359.757">
  <defs>
    <linearGradient id="linear-gradient" x1="0.5" x2="0.5" y2="1" gradientUnits="objectBoundingBox">
      <stop offset="0" stop-color="#edd14c"/>
      <stop offset="1" stop-color="#d1ac3a"/>
    </linearGradient>
  </defs>
  <g id="グループ_12641" data-name="グループ 12641" transform="translate(-2575.586 -1134.563)">
    <g id="グループ_12639" data-name="グループ 12639" transform="translate(2304 536.439)">
      <g id="グループ_9212" data-name="グループ 9212" transform="translate(-56 514)">
        <g id="グループ_9210" data-name="グループ 9210" transform="translate(-93.416 -21.875)">
          <path id="パス_14372" data-name="パス 14372" d="M74.681-90.66a28.347,28.347,0,0,0,3.422.253H80.51q9.378,0,15.208-5.576t5.83-14.447q0-8.618-5.449-13.94t-14.067-5.323q-9.125,0-14.7,6.083T61.754-107.9H15.878a82.225,82.225,0,0,1,7.477-26.613,63.746,63.746,0,0,1,14.574-19.643,60.783,60.783,0,0,1,20.784-12.166,79.139,79.139,0,0,1,26.36-4.182,79.438,79.438,0,0,1,25.726,3.929,57.909,57.909,0,0,1,19.77,11.152,48.564,48.564,0,0,1,12.673,17.489,57.258,57.258,0,0,1,4.436,22.938q0,13.687-5.2,22.431A46.66,46.66,0,0,1,127.654-77.48q14.7,4.562,22.938,16.348T158.83-32.11a59.147,59.147,0,0,1-5.576,25.853,58.973,58.973,0,0,1-15.588,20.023A71.856,71.856,0,0,1,113.84,26.692a96.1,96.1,0,0,1-30.289,4.562q-22.051,0-39.793-8.618T15.371-4.737A54.727,54.727,0,0,1,8.907-21.465,87.662,87.662,0,0,1,7.26-38.447H56.431q.507,13.433,7.857,20.4t19.77,6.97q13.18,0,19.263-7.1T109.4-35.659q0-12.42-7.35-18.756a25.906,25.906,0,0,0-17.489-6.337,29.279,29.279,0,0,0-4.816.38q-2.281.38-5.069.887Z" transform="translate(2363.087 434.5)" fill="url(#linear-gradient)"/>
          <g id="グループ_9209" data-name="グループ 9209" transform="translate(642.385 137.738)">
            <path id="パス_24163" data-name="パス 24163" d="M310,1634.241q-.371.016-.737.058c-.244.03-.487.072-.723.1a8.5,8.5,0,0,0-1.387.312c-.112.035-.222.073-.333.112s-.215.072-.321.112q-.32.118-.624.264a6.322,6.322,0,0,0-1.132.7,12.93,12.93,0,0,1-2.25,1.352,11.562,11.562,0,0,1-1.173.482c-.385.14-.762.26-1.119.365-.177.052-.352.1-.518.145l-.474.1c-.3.063-.57.112-.794.148-.449.073-.72.1-.72.1a15.028,15.028,0,0,0,1.649,1.143c.453.251.929.5,1.42.729.07.031.14.065.211.1l.286.127.012.005c.675.262,1.371.513,2.079.717.718.181,1.441.353,2.159.469a14.608,14.608,0,0,0,2.2.157,13.694,13.694,0,0,0,2.04-.218,12.085,12.085,0,0,0,1.817-.558,6.06,6.06,0,0,0,.811-.387c.259-.141.506-.293.74-.45s.455-.324.664-.5c.1-.087.2-.175.3-.264s.192-.192.283-.29a7.113,7.113,0,0,0,.929-1.236,6.186,6.186,0,0,0,.853-2.784l.006-.087-.126-.054A14.681,14.681,0,0,0,310,1634.241Z" transform="translate(-274.076 -1546.462)" fill="#f5c04b"/>
            <path id="パス_24164" data-name="パス 24164" d="M491.667,1563.641a6.78,6.78,0,0,0,2.983-.708,5.847,5.847,0,0,0,.6-.349,5.375,5.375,0,0,0,.541-.427,5.249,5.249,0,0,0,1.465-2.22l.028-.077-.1-.091a14.825,14.825,0,0,0-2.519-1.794,10.545,10.545,0,0,0-1.336-.684,13.119,13.119,0,0,0-1.353-.539c-.459-.138-.906-.279-1.355-.377-.224-.047-.448-.087-.67-.117-.112-.016-.224-.028-.334-.038s-.217-.028-.326-.037a6.607,6.607,0,0,0-1.272,0,5.828,5.828,0,0,0-.611.1,4.537,4.537,0,0,0-.576.145,10.2,10.2,0,0,1-1.159.3c-.2.038-.4.073-.6.1s-.4.054-.6.066a16.418,16.418,0,0,1-2.269.007c-.682-.063-1.276-.157-1.7-.236s-.675-.138-.675-.138a18.726,18.726,0,0,0,1.22,1.567c.222.269.471.51.721.759s.512.494.779.738c.134.119.266.244.407.358l.426.339c.286.223.577.443.871.656.148.106.294.217.445.316l.458.29q.46.285.92.553a11.925,11.925,0,0,0,3.823,1.405,7.072,7.072,0,0,0,.9.119C491.095,1563.643,491.385,1563.648,491.667,1563.641Z" transform="translate(-466.676 -1473.31)" fill="#f5c04b"/>
            <path id="パス_24165" data-name="パス 24165" d="M647.285,1386.875c.128.052.259.1.387.14a8.138,8.138,0,0,0,1.484.356,4.49,4.49,0,0,0,4.435-1.791l.044-.061-.071-.115a16.2,16.2,0,0,0-3.987-4.5,10.445,10.445,0,0,0-1.132-.8c-.192-.119-.391-.223-.581-.328s-.382-.206-.574-.293a6.578,6.578,0,0,0-1.159-.412,5.145,5.145,0,0,0-1.122-.176,9.939,9.939,0,0,1-1.119-.1c-.189-.028-.379-.063-.568-.1s-.368-.089-.551-.138a15.935,15.935,0,0,1-2.057-.722c-.6-.276-1.121-.548-1.487-.754s-.581-.339-.581-.339c.208.583.461,1.188.752,1.8.073.154.145.311.225.462s.167.3.253.454c.172.3.35.609.538.913a19.592,19.592,0,0,0,1.227,1.771c.22.284.432.576.669.843s.469.534.705.792.5.534.753.773.522.461.782.672.521.408.779.593.532.337.794.487.525.283.782.4C647.031,1386.763,647.159,1386.821,647.285,1386.875Z" transform="translate(-633.035 -1305.199)" fill="#f5c04b"/>
            <path id="パス_24166" data-name="パス 24166" d="M770.415,1171.905c.1.084.206.162.308.239s.212.145.317.213q.316.2.628.361a6.037,6.037,0,0,0,1.218.48,4.442,4.442,0,0,0,1.172.127,3.51,3.51,0,0,0,2.022-.705l.052-.04-.035-.129a19.241,19.241,0,0,0-1.063-2.875c-.228-.445-.439-.9-.688-1.321s-.516-.824-.775-1.22a11.125,11.125,0,0,0-.846-1.094,10.585,10.585,0,0,0-.893-.948,7.949,7.949,0,0,0-.952-.754,4.86,4.86,0,0,0-.973-.531,12.948,12.948,0,0,1-3.637-2.358c-.481-.442-.887-.855-1.17-1.157s-.448-.49-.448-.49a22.382,22.382,0,0,0,2.326,7.746,14.683,14.683,0,0,0,2.2,3.3A12.659,12.659,0,0,0,770.415,1171.905Z" transform="translate(-763.475 -1101.848)" fill="#f5c04b"/>
            <path id="パス_24167" data-name="パス 24167" d="M848.56,942.785a7.846,7.846,0,0,0,.92,1.154,5.487,5.487,0,0,0,1.99,1.36,3.2,3.2,0,0,0,1.993.061l.055-.017v-.127c0-.248-.015-.492-.026-.738s-.023-.5-.044-.744c-.041-.492-.118-.977-.2-1.457a13.268,13.268,0,0,0-.3-1.422c-.058-.232-.135-.459-.2-.688s-.132-.45-.208-.67a12.781,12.781,0,0,0-.509-1.267,10.317,10.317,0,0,0-.579-1.15,8.75,8.75,0,0,0-.685-.991,5.275,5.275,0,0,0-.75-.8c-.266-.225-.528-.473-.784-.736a10.436,10.436,0,0,1-.731-.829A20.619,20.619,0,0,1,847.279,932l-.25-.4c-.076-.131-.145-.257-.212-.374-.134-.237-.247-.452-.342-.63-.186-.359-.291-.579-.291-.579a22.209,22.209,0,0,0,.334,7.648c.071.342.15.677.233,1,.042.162.084.325.129.483s.1.312.153.466a17.761,17.761,0,0,0,.69,1.717A11.489,11.489,0,0,0,848.56,942.785Z" transform="translate(-845.986 -886.639)" fill="#f5c04b"/>
            <path id="パス_24168" data-name="パス 24168" d="M866.329,716.852a12.364,12.364,0,0,0,.4,1.56,10.414,10.414,0,0,0,.561,1.33c.843,1.614,1.986,2.524,3.221,2.614l.054,0,.029-.114a16.509,16.509,0,0,0,.459-5.442,12.139,12.139,0,0,0-.154-1.3c-.039-.213-.078-.421-.119-.623s-.092-.4-.144-.6a9.77,9.77,0,0,0-.385-1.112,5.677,5.677,0,0,0-.5-.956c-.188-.288-.369-.6-.539-.915s-.318-.646-.464-.977-.278-.665-.4-.991-.221-.642-.315-.944c-.183-.6-.33-1.136-.414-1.517s-.126-.609-.126-.609c-.1.229-.2.468-.292.719s-.173.513-.254.784-.16.548-.234.832-.131.581-.19.88-.116.6-.167.908-.086.62-.124.93-.07.627-.1.939-.039.63-.055.941c-.014.328-.022.651-.02.969s.022.632.042.937A13.094,13.094,0,0,0,866.329,716.852Z" transform="translate(-864.844 -676.983)" fill="#f5c04b"/>
            <path id="パス_24169" data-name="パス 24169" d="M817.707,518.835c.045.215.1.419.154.616s.128.389.2.571a5.424,5.424,0,0,0,.5.977,3.406,3.406,0,0,0,1.384,1.251l.047.021.054-.091a14.023,14.023,0,0,0,1.691-4.684,11.234,11.234,0,0,0,.163-1.211c.028-.4.055-.789.047-1.174a9.156,9.156,0,0,0-.089-1.115,6.027,6.027,0,0,0-.228-1.017c-.1-.318-.193-.649-.275-.988s-.14-.679-.195-1.021a17.955,17.955,0,0,1-.209-1.951c-.032-.592-.039-1.11-.038-1.48s.019-.581.019-.581a17.5,17.5,0,0,0-2.8,5.676c-.087.284-.167.569-.238.848s-.125.566-.177.843a13.046,13.046,0,0,0-.2,1.627,13.189,13.189,0,0,0,0,1.515A10.887,10.887,0,0,0,817.707,518.835Z" transform="translate(-812.626 -490.239)" fill="#f5c04b"/>
            <path id="パス_24170" data-name="パス 24170" d="M702.924,361.371l.036.035.07-.061a11.458,11.458,0,0,0,2.586-3.576,10.107,10.107,0,0,0,.417-1.023,8.667,8.667,0,0,0,.31-1.026,6.96,6.96,0,0,0,.2-1.993c-.02-.314-.029-.64-.025-.965s.026-.646.052-.967a17.313,17.313,0,0,1,.238-1.8c.1-.536.208-.995.288-1.321.041-.164.074-.293.1-.379s.036-.122.038-.133a14.22,14.22,0,0,0-3.714,4.108,12.587,12.587,0,0,0-.746,1.351,14.129,14.129,0,0,0-.545,1.363,9.931,9.931,0,0,0-.49,2.607,6.249,6.249,0,0,0,.257,2.2A3.789,3.789,0,0,0,702.924,361.371Z" transform="translate(-690.608 -341.455)" fill="#f5c04b"/>
            <path id="パス_24171" data-name="パス 24171" d="M539.522,251.961l.074-.031a8.691,8.691,0,0,0,3.1-2.286,8.6,8.6,0,0,0,1.1-1.572,5.818,5.818,0,0,0,.619-1.693,11.169,11.169,0,0,1,.451-1.695,14.922,14.922,0,0,1,.6-1.51c.411-.88.772-1.485.772-1.485a11.505,11.505,0,0,0-4.163,2.424,9.183,9.183,0,0,0-2.759,4.087,4.831,4.831,0,0,0,.176,3.717Z" transform="translate(-519.369 -241.688)" fill="#f5c04b"/>
            <path id="パス_24172" data-name="パス 24172" d="M308.408,1426.21a9.859,9.859,0,0,0-.666-1.286c-.063-.1-.126-.2-.193-.3s-.132-.209-.2-.311q-.2-.307-.43-.6c-.148-.194-.3-.38-.464-.562s-.324-.353-.493-.539a10.3,10.3,0,0,0-1.066-1,9.894,9.894,0,0,0-1.159-.9,10.754,10.754,0,0,0-1.249-.78,20.947,20.947,0,0,0-4.789-2.135s.071.218.193.6c.06.192.132.426.215.695.041.135.084.279.131.431l.151.462c.1.325.215.679.333,1.052s.236.785.366,1.18c.254.8.512,1.679.737,2.552a6.151,6.151,0,0,0,.49,1.257,6.75,6.75,0,0,0,.349.6c.064.1.129.194.2.288s.143.178.217.265a7.927,7.927,0,0,0,1.012.977,4.485,4.485,0,0,0,.584.408q.305.189.628.351a6.912,6.912,0,0,0,5.68.26l.118-.047,0-.085A8.452,8.452,0,0,0,308.408,1426.21Z" transform="translate(-267.014 -1343.679)" fill="#f5c04b"/>
            <path id="パス_24173" data-name="パス 24173" d="M463.337,1338.793l.044.609c.026.389.057.948.089,1.625.042.658.09,1.431.122,2.267.007.211.017.421.028.628s.017.422.026.637c.015.429.022.866.02,1.3a5.448,5.448,0,0,0,.141,1.316,7.651,7.651,0,0,0,.422,1.305c.045.107.093.216.144.321s.108.206.164.307c.116.2.24.4.374.6a6.994,6.994,0,0,0,.91,1.119,8.551,8.551,0,0,0,1.1.948,9.825,9.825,0,0,0,1.247.717,6.4,6.4,0,0,0,2.718.578l.119,0,.016-.08a8.126,8.126,0,0,0,.079-2.784c-.032-.234-.073-.464-.121-.7s-.1-.475-.16-.709a11.927,11.927,0,0,0-.452-1.381,16,16,0,0,0-3.121-5.011A22.07,22.07,0,0,0,463.337,1338.793Z" transform="translate(-439.535 -1269.65)" fill="#f5c04b"/>
            <path id="パス_24174" data-name="パス 24174" d="M605.445,1235.592c-.058-.239-.122-.478-.195-.712s-.153-.466-.234-.7-.161-.475-.253-.709-.19-.461-.3-.686-.2-.466-.317-.693a24.153,24.153,0,0,0-2.765-4.623s-.035.209-.095.572-.157.883-.279,1.511-.235,1.335-.394,2.108c-.077.379-.159.773-.24,1.173s-.174.792-.273,1.187a5.834,5.834,0,0,0-.177,1.248,7.9,7.9,0,0,0,.089,1.318q.052.338.131.681a6.965,6.965,0,0,0,.2.668,10.381,10.381,0,0,0,.558,1.325,7.984,7.984,0,0,0,4.052,3.765l.108.038.035-.066a9.26,9.26,0,0,0,.738-5.266,12.805,12.805,0,0,0-.228-1.426C605.554,1236.066,605.5,1235.827,605.445,1235.592Z" transform="translate(-582.883 -1165.342)" fill="#f5c04b"/>
            <path id="パス_24175" data-name="パス 24175" d="M697.871,1101.035a8.756,8.756,0,0,0,2.759,4.773l.087.073.047-.047a6.039,6.039,0,0,0,1.262-1.988,9.02,9.02,0,0,0,.39-1.2,11.231,11.231,0,0,0,.263-1.309c.032-.223.057-.448.076-.675s.032-.463.048-.691a12.73,12.73,0,0,0,0-1.414,17.949,17.949,0,0,0-.35-2.913,25.818,25.818,0,0,0-1.46-5.142l-.215.492c-.14.311-.342.754-.593,1.286-.471,1.045-1.134,2.466-1.833,3.754a5.5,5.5,0,0,0-.446,1.072,6.5,6.5,0,0,0-.222,1.22,8.449,8.449,0,0,0-.019,1.333A11.084,11.084,0,0,0,697.871,1101.035Z" transform="translate(-685.941 -1037.005)" fill="#f5c04b"/>
            <path id="パス_24176" data-name="パス 24176" d="M748.171,947.3c.134-.415.23-.84.328-1.279a11.8,11.8,0,0,0,.234-1.353l.035-.346c.016-.119.029-.236.041-.354.025-.236.041-.475.051-.716a25.713,25.713,0,0,0-.151-5.2l-.307.382-.358.433c-.07.082-.144.169-.222.264s-.154.189-.236.29c-.331.4-.725.871-1.159,1.356-.214.237-.433.483-.657.735s-.455.487-.69.719a4.54,4.54,0,0,0-.65.82,5.688,5.688,0,0,0-.48,1.026,8.643,8.643,0,0,0-.33,1.194,10.183,10.183,0,0,0-.129,1.306c-.009.225-.012.454-.007.682a6.767,6.767,0,0,0,.054.686,12.561,12.561,0,0,0,.237,1.37,9.81,9.81,0,0,0,.44,1.305c.086.209.179.415.278.614s.219.387.337.572l.063.094.054-.026a4.724,4.724,0,0,0,1.6-1.342,8.367,8.367,0,0,0,1.186-2.037C747.879,948.118,748.045,947.713,748.171,947.3Z" transform="translate(-734.926 -894.164)" fill="#f5c04b"/>
            <path id="パス_24177" data-name="パス 24177" d="M731,787.541a4.522,4.522,0,0,0-.265.506,8.947,8.947,0,0,0-.449,6.264l.033.1.055-.005a5.083,5.083,0,0,0,3.287-2.084,12.954,12.954,0,0,0,2.226-4.372,23.463,23.463,0,0,0,1.048-4.761s-.134.091-.368.246-.552.375-.951.63l-.641.407c-.221.145-.458.293-.7.443s-.5.3-.763.447-.516.292-.781.424a3.676,3.676,0,0,0-.763.527,4.491,4.491,0,0,0-.667.764C731.2,787.226,731.1,787.38,731,787.541Z" transform="translate(-722.09 -749.066)" fill="#f5c04b"/>
            <path id="パス_24178" data-name="パス 24178" d="M676.248,646.678l.049.014a3.443,3.443,0,0,0,1.717.017,4.748,4.748,0,0,0,.861-.293c.141-.065.281-.136.42-.213s.284-.159.423-.248a6.84,6.84,0,0,0,.814-.609,8.642,8.642,0,0,0,.784-.738c.243-.271.5-.552.734-.86.119-.152.227-.314.344-.475s.228-.328.336-.5a19.423,19.423,0,0,0,2.038-3.971s-.14.04-.384.106-.583.164-1,.267-.887.225-1.4.335c-.254.056-.52.1-.785.154s-.528.094-.794.126a3.012,3.012,0,0,0-.8.222,3.8,3.8,0,0,0-.77.462,4.771,4.771,0,0,0-.724.675,7.523,7.523,0,0,0-.641.86,8.491,8.491,0,0,0-1.23,4.562Z" transform="translate(-666.538 -613.775)" fill="#f5c04b"/>
            <path id="パス_24179" data-name="パス 24179" d="M589.257,512.825l-.023.094.041.03a3.323,3.323,0,0,0,1.513.6,4.783,4.783,0,0,0,1.691-.1,6.807,6.807,0,0,0,1.733-.677,6.9,6.9,0,0,0,.859-.529,10.2,10.2,0,0,0,.836-.654,15.326,15.326,0,0,0,2.734-2.918l-.366-.021c-.231-.014-.56-.037-.954-.073s-.842-.079-1.323-.143c-.24-.031-.486-.068-.734-.112s-.493-.087-.735-.143a2.849,2.849,0,0,0-1.557.1,4.655,4.655,0,0,0-.8.361,5.589,5.589,0,0,0-.762.558A6.985,6.985,0,0,0,589.257,512.825Z" transform="translate(-574.927 -491.322)" fill="#f5c04b"/>
            <path id="パス_24180" data-name="パス 24180" d="M478.479,394.933a5.627,5.627,0,0,0-2.736,2.48l-.041.075.028.04a3.872,3.872,0,0,0,2.705,1.506,6.726,6.726,0,0,0,3.476-.532,11.863,11.863,0,0,0,3.1-1.723s-.47-.18-1.154-.5c-.344-.166-.731-.332-1.143-.545s-.843-.447-1.247-.695a2.782,2.782,0,0,0-1.4-.415A3.891,3.891,0,0,0,478.479,394.933Z" transform="translate(-454.139 -384.99)" fill="#f5c04b"/>
          </g>
          <g id="合体_35" data-name="合体 35" transform="translate(-14866 -19064)" fill="#533afc">
            <path d="M 15366 19327.5 C 15360.673828125 19327.5 15355.3505859375 19326.962890625 15350.1787109375 19325.904296875 C 15345.138671875 19324.873046875 15340.181640625 19323.333984375 15335.4443359375 19321.33203125 C 15330.79296875 19319.36328125 15326.306640625 19316.927734375 15322.1103515625 19314.09375 C 15317.9541015625 19311.28515625 15314.044921875 19308.060546875 15310.4921875 19304.5078125 C 15306.9404296875 19300.955078125 15303.7158203125 19297.046875 15300.9072265625 19292.888671875 C 15298.072265625 19288.693359375 15295.6376953125 19284.20703125 15293.669921875 19279.556640625 C 15291.6669921875 19274.818359375 15290.1279296875 19269.861328125 15289.0966796875 19264.822265625 C 15288.0380859375 19259.650390625 15287.501953125 19254.328125 15287.501953125 19249.001953125 C 15287.501953125 19243.67578125 15288.0380859375 19238.3515625 15289.0966796875 19233.1796875 C 15290.1279296875 19228.140625 15291.6669921875 19223.181640625 15293.669921875 19218.4453125 C 15295.6376953125 19213.79296875 15298.072265625 19209.306640625 15300.9072265625 19205.109375 C 15303.7158203125 19200.953125 15306.9404296875 19197.04296875 15310.4921875 19193.4921875 C 15314.044921875 19189.939453125 15317.9541015625 19186.712890625 15322.1103515625 19183.904296875 C 15326.306640625 19181.0703125 15330.79296875 19178.634765625 15335.4443359375 19176.66796875 C 15340.181640625 19174.6640625 15345.138671875 19173.125 15350.1787109375 19172.09375 C 15355.3505859375 19171.03515625 15360.673828125 19170.498046875 15366 19170.498046875 C 15371.326171875 19170.498046875 15376.6494140625 19171.03515625 15381.8212890625 19172.09375 C 15386.861328125 19173.125 15391.818359375 19174.6640625 15396.5556640625 19176.66796875 C 15401.20703125 19178.634765625 15405.693359375 19181.0703125 15409.8896484375 19183.904296875 C 15414.046875 19186.712890625 15417.9560546875 19189.939453125 15421.5078125 19193.4921875 C 15425.060546875 19197.04296875 15428.28515625 19200.953125 15431.09375 19205.109375 C 15433.9287109375 19209.306640625 15436.36328125 19213.79296875 15438.3310546875 19218.4453125 C 15440.333984375 19223.181640625 15441.873046875 19228.140625 15442.904296875 19233.1796875 C 15443.962890625 19238.3515625 15444.4990234375 19243.67578125 15444.4990234375 19249.001953125 C 15444.4990234375 19255.044921875 15443.8095703125 19261.064453125 15442.4501953125 19266.89453125 C 15441.12890625 19272.5625 15439.1650390625 19278.09375 15436.61328125 19283.33203125 L 15436.494140625 19283.576171875 L 15436.6337890625 19283.80859375 L 15452.9775390625 19311.068359375 L 15422.32421875 19304.021484375 L 15422.0517578125 19303.958984375 L 15421.8564453125 19304.15625 C 15418.2978515625 19307.759765625 15414.375 19311.033203125 15410.1982421875 19313.884765625 C 15405.9814453125 19316.76171875 15401.46875 19319.234375 15396.787109375 19321.232421875 C 15392.0185546875 19323.267578125 15387.025390625 19324.83203125 15381.947265625 19325.87890625 C 15376.7353515625 19326.955078125 15371.3701171875 19327.5 15366 19327.5 Z" stroke="none"/>
            <path d="M 15366 19327 C 15371.3359375 19327 15376.66796875 19326.458984375 15381.845703125 19325.388671875 C 15386.8916015625 19324.34765625 15391.8525390625 19322.794921875 15396.5908203125 19320.7734375 C 15401.2431640625 19318.787109375 15405.7265625 19316.330078125 15409.916015625 19313.470703125 C 15414.06640625 19310.638671875 15417.9638671875 19307.38671875 15421.5 19303.8046875 L 15421.892578125 19303.408203125 L 15422.435546875 19303.533203125 L 15451.9443359375 19310.31640625 L 15435.92578125 19283.599609375 L 15436.1630859375 19283.11328125 C 15438.69921875 19277.908203125 15440.650390625 19272.412109375 15441.9638671875 19266.78125 C 15443.314453125 19260.98828125 15443.9990234375 19255.0078125 15443.9990234375 19249.001953125 C 15443.9990234375 19243.708984375 15443.4658203125 19238.419921875 15442.4140625 19233.28125 C 15441.3896484375 19228.271484375 15439.861328125 19223.345703125 15437.8701171875 19218.638671875 C 15435.9150390625 19214.017578125 15433.49609375 19209.560546875 15430.6787109375 19205.390625 C 15427.888671875 19201.259765625 15424.6845703125 19197.375 15421.154296875 19193.845703125 C 15417.6240234375 19190.314453125 15413.740234375 19187.109375 15409.6103515625 19184.318359375 C 15405.4404296875 19181.501953125 15400.982421875 19179.08203125 15396.361328125 19177.126953125 C 15391.654296875 19175.13671875 15386.728515625 19173.607421875 15381.720703125 19172.58203125 C 15376.58203125 19171.53125 15371.29296875 19170.998046875 15366 19170.998046875 C 15360.70703125 19170.998046875 15355.41796875 19171.53125 15350.279296875 19172.58203125 C 15345.271484375 19173.607421875 15340.345703125 19175.13671875 15335.638671875 19177.126953125 C 15331.017578125 19179.08203125 15326.5595703125 19181.501953125 15322.390625 19184.318359375 C 15318.259765625 19187.109375 15314.3759765625 19190.314453125 15310.845703125 19193.845703125 C 15307.31640625 19197.375 15304.1123046875 19201.259765625 15301.3212890625 19205.390625 C 15298.5048828125 19209.560546875 15296.0849609375 19214.017578125 15294.130859375 19218.638671875 C 15292.1396484375 19223.345703125 15290.611328125 19228.271484375 15289.5869140625 19233.28125 C 15288.53515625 19238.419921875 15288.001953125 19243.708984375 15288.001953125 19249.001953125 C 15288.001953125 19254.294921875 15288.53515625 19259.583984375 15289.5869140625 19264.720703125 C 15290.611328125 19269.728515625 15292.1396484375 19274.654296875 15294.130859375 19279.361328125 C 15296.0849609375 19283.982421875 15298.5048828125 19288.439453125 15301.3212890625 19292.609375 C 15304.1123046875 19296.740234375 15307.31640625 19300.625 15310.845703125 19304.154296875 C 15314.3759765625 19307.68359375 15318.259765625 19310.888671875 15322.390625 19313.6796875 C 15326.5595703125 19316.49609375 15331.017578125 19318.916015625 15335.638671875 19320.87109375 C 15340.345703125 19322.861328125 15345.271484375 19324.390625 15350.279296875 19325.416015625 C 15355.41796875 19326.466796875 15360.70703125 19327 15366 19327 M 15366 19328 C 15322.3681640625 19328 15287.001953125 19292.62890625 15287.001953125 19249.001953125 C 15287.001953125 19205.369140625 15322.3681640625 19169.998046875 15366 19169.998046875 C 15409.6318359375 19169.998046875 15444.9990234375 19205.369140625 15444.9990234375 19249.001953125 C 15444.9990234375 19261.392578125 15442.146484375 19273.11328125 15437.0625 19283.55078125 L 15454.0107421875 19311.818359375 L 15422.2119140625 19304.5078125 C 15407.8896484375 19319.01171875 15387.9951171875 19328 15366 19328 Z" stroke="none" fill="#707070"/>
          </g>
          <path id="パス_24181" data-name="パス 24181" d="M23.85-14.355A32.253,32.253,0,0,1,27.5-12.1h-4.41c.09.99.135,1.53.18,2.745l-3.69-1.755a37.692,37.692,0,0,1-.855,3.96c-.18-1.575-.405-3.105-.855-5.535l-3.69.72a50.754,50.754,0,0,1,.81,8.6l2.16-.45a15.939,15.939,0,0,1-1.71,2.655l5,3.825a33.982,33.982,0,0,0,2.835-7.74V.045c0,1.485.225,2.25.855,2.7.855.63,2.475.9,5.265.9,6.615,0,7.56-.81,8.145-6.66a28.4,28.4,0,0,1,1.035,4.68l6.03-3.15A56.437,56.437,0,0,0,40.05-13.05l-5.535,2.565a34.272,34.272,0,0,1,2.385,5.4,25.081,25.081,0,0,1-4.815-1.71c-.045,2.025-.045,3.06-.045,3.1-.09.72-.225,1.08-.5,1.215a4.617,4.617,0,0,1-1.215.18c-.81,0-.945-.135-.945-.81v-7.38A20.292,20.292,0,0,1,31.23-8.55l4.185-4.365a36.069,36.069,0,0,0-4.815-3.51c3.285-.36,3.825-.45,5.8-.765.54,1.215.675,1.485,1.4,3.015l5.58-3.555a66.651,66.651,0,0,0-7.155-10.755L31.23-25.92c1.17,1.665,1.53,2.2,2.34,3.465-1.8.18-3.42.27-5.49.4a82.16,82.16,0,0,0,4.32-8.055L26.775-31.68c2.16-2.655,2.16-2.655,2.88-3.6L23.76-38.43a22.981,22.981,0,0,1-5.94,6.66l-4-2.025a49.766,49.766,0,0,1-4.1,7.38,12.284,12.284,0,0,0-.945-1.35,63.076,63.076,0,0,0,4.23-7.515,8.015,8.015,0,0,1,.72-1.305L7.92-38.88a25.5,25.5,0,0,1-2.655,6.525L4.185-33.66l-2.97,5.49a54.431,54.431,0,0,1,4.95,6.93c-.63.855-.63.9-1.125,1.53H4.41l-.4.045a18.933,18.933,0,0,1-2.565-.18L1.98-13.5c.9-.135,2.52-.27,5.76-.45V-.765a35.208,35.208,0,0,1-.27,4.95h6.345a27.265,27.265,0,0,1-.27-4.995V-14.4a5,5,0,0,0,1.035-.09c.27,0,.27,0,.945-.045l.225,1.665,4.1-1.215a47.927,47.927,0,0,0-3.015-9.99L13.68-22.95c1.62-2.25,2.655-3.69,3.42-4.95a18.135,18.135,0,0,1,2.3,3.33,34.374,34.374,0,0,0,6.165-5.625,49.9,49.9,0,0,1-4.23,8.28c-.315,0-.585.045-.765.045H19.98a5.152,5.152,0,0,1-.675-.045l.99,6.57a16.753,16.753,0,0,1,3.51-.405c.45-.045,1.08-.09,1.98-.18Zm-10.485-8.19a26.544,26.544,0,0,1,.9,2.52c-1.35.135-1.62.135-3.015.225C12.24-21.06,12.645-21.6,13.365-22.545ZM2.7-12.645A50.23,50.23,0,0,1,1.215-.315L5.58,1.98A74.208,74.208,0,0,0,6.975-12.06Zm27.36-22.59c.5.54.765.81,1.17,1.305a30.349,30.349,0,0,0,4.95,5.13,27.851,27.851,0,0,0,5.04,3.555,26.677,26.677,0,0,1,3.33-6.21,21.8,21.8,0,0,1-9.135-7.065Zm28.665,15.8a41.581,41.581,0,0,1,4.185-.18H79.29a37.752,37.752,0,0,1,4.32.18v-2.475a47.994,47.994,0,0,0,6.075,2.925,25.235,25.235,0,0,1,3.15-7.065A37.406,37.406,0,0,1,82.26-31.05a25.72,25.72,0,0,1-7.695-7.065H67.23a26.79,26.79,0,0,1-7.47,7.245,35.719,35.719,0,0,1-10.44,5.13,24.077,24.077,0,0,1,3.375,6.615A43.762,43.762,0,0,0,58.725-22Zm5.94-6.39a31.94,31.94,0,0,0,6.345-6.21,34.954,34.954,0,0,0,6.615,6.21Zm-2.61,29.7V2.025H80.1V3.87h7.245a30.038,30.038,0,0,1-.27-5v-11.16a33.97,33.97,0,0,1,.225-4.77c-1.08.09-2.385.135-4.365.135H59.175c-1.98,0-3.285-.045-4.32-.135a44.506,44.506,0,0,1,.225,4.77V-1.17a38.04,38.04,0,0,1-.27,5.04Zm0-14.535H80.1V-4.23H62.055ZM18.09,12.515a20.274,20.274,0,0,1,.225,3.51c0,8.325-1.44,15.03-4.275,20.025C11.295,40.91,7.56,44.24.9,47.57a21.392,21.392,0,0,1,4.59,6.615,39.812,39.812,0,0,0,9.675-7.47c3.51-3.645,5.445-7.065,7.38-12.96A33.348,33.348,0,0,0,28.62,44.96,40.211,40.211,0,0,0,39.6,54.23a26.158,26.158,0,0,1,4.59-7.11,30.15,30.15,0,0,1-7.875-5.13,29.651,29.651,0,0,1-8.46-12.555A44.957,44.957,0,0,1,26.01,16.16a18.158,18.158,0,0,1,.27-3.645Zm53.46,22.14h7.065c.045,6.57.765,10.665,2.34,14.31,1.44,3.195,3.735,5.22,6.03,5.22a4.325,4.325,0,0,0,3.78-2.205c.945-1.62,1.53-4.05,1.98-8.595a17.107,17.107,0,0,1-4.815-3.24v.81a12.164,12.164,0,0,1-.675,4.9c-1.35-1.935-1.98-6.12-1.98-12.825A34.694,34.694,0,0,1,85.5,28.58c-1.4.09-2.295.135-5.4.135H55.845a22.705,22.705,0,0,1-3.51-.18V34.88A56.506,56.506,0,0,1,58,34.655h.945L54.36,38.84a78.4,78.4,0,0,1,6.84,4.5c-3.15,2.2-5.4,3.33-10.89,5.355a22.33,22.33,0,0,1,4.5,5.9,49.256,49.256,0,0,0,11.88-6.975c3.06,2.52,4.77,4.095,7.065,6.345l4.725-5.265c-2.7-2.34-3.69-3.195-6.93-5.67a38.839,38.839,0,0,0,3.33-4.185c.99-1.35,1.17-1.575,1.53-2.025Zm-2.2,0a21.97,21.97,0,0,1-3.24,4.41c-2.34-1.62-3.78-2.52-7.02-4.41Zm-10.62-7.2a40.711,40.711,0,0,1,4.365-.18H81.72c2.34,0,3.69.045,5.13.18V21.83a46.369,46.369,0,0,1-5.13.18H60.345c.45-.675.585-.855.945-1.4H84.42c2.25,0,3.915.09,5.535.225V14.18a44.646,44.646,0,0,1-5.535.27H64.845c.675-1.4,1.08-2.205,1.17-2.385L58.59,11.21a10.917,10.917,0,0,1-1.125,2.97,29.681,29.681,0,0,1-7.83,9.36,22.651,22.651,0,0,1,4.95,4.995,41.565,41.565,0,0,0,4.14-4.455Z" transform="translate(451.92 184.113) rotate(-8)" fill="#fff"/>
        </g>
      </g>
    </g>
    <g id="グループ_1123" data-name="グループ 1123" transform="translate(4444.086 1166.303)">
      <path id="パス_24163-2" data-name="パス 24163" d="M303.859,1634.241q.371.016.737.058c.244.03.487.072.723.1a8.5,8.5,0,0,1,1.387.312c.112.035.222.073.333.112s.215.072.321.112q.32.118.624.264a6.322,6.322,0,0,1,1.132.7,12.931,12.931,0,0,0,2.25,1.352,11.562,11.562,0,0,0,1.173.482c.385.14.762.26,1.119.365.177.052.352.1.518.145l.474.1c.3.063.57.112.794.148.449.073.72.1.72.1a15.028,15.028,0,0,1-1.649,1.143c-.453.251-.929.5-1.42.729-.07.031-.14.065-.211.1l-.286.127-.012.005c-.675.262-1.371.513-2.079.717-.718.181-1.441.353-2.159.469a14.608,14.608,0,0,1-2.2.157,13.694,13.694,0,0,1-2.04-.218,12.085,12.085,0,0,1-1.817-.558,6.06,6.06,0,0,1-.811-.387c-.259-.141-.506-.293-.74-.45s-.455-.324-.664-.5c-.1-.087-.2-.175-.3-.264s-.192-.192-.283-.29a7.113,7.113,0,0,1-.929-1.236,6.186,6.186,0,0,1-.853-2.784l-.006-.087.126-.054A14.681,14.681,0,0,1,303.859,1634.241Z" transform="translate(-297.698 -1546.462)" fill="#f5c04b"/>
      <path id="パス_24164-2" data-name="パス 24164" d="M485.447,1563.641a6.78,6.78,0,0,1-2.983-.708,5.847,5.847,0,0,1-.6-.349,5.375,5.375,0,0,1-.541-.427,5.249,5.249,0,0,1-1.465-2.22l-.028-.077.1-.091a14.827,14.827,0,0,1,2.519-1.794,10.545,10.545,0,0,1,1.336-.684,13.119,13.119,0,0,1,1.353-.539c.459-.138.906-.279,1.355-.377.224-.047.448-.087.67-.117.112-.016.224-.028.334-.038s.217-.028.326-.037a6.607,6.607,0,0,1,1.272,0,5.828,5.828,0,0,1,.611.1,4.537,4.537,0,0,1,.576.145,10.2,10.2,0,0,0,1.159.3c.2.038.4.073.6.1s.4.054.6.066a16.418,16.418,0,0,0,2.269.007c.682-.063,1.276-.157,1.7-.236s.675-.138.675-.138a18.726,18.726,0,0,1-1.22,1.567c-.222.269-.471.51-.721.759s-.512.494-.779.738c-.134.119-.266.244-.407.358l-.426.339c-.286.223-.577.443-.871.656-.148.106-.294.217-.445.316l-.458.29q-.46.285-.92.553a11.925,11.925,0,0,1-3.823,1.405,7.072,7.072,0,0,1-.9.119C486.02,1563.643,485.729,1563.648,485.447,1563.641Z" transform="translate(-468.351 -1473.31)" fill="#f5c04b"/>
      <path id="パス_24165-2" data-name="パス 24165" d="M644.993,1386.875c-.128.052-.259.1-.387.14a8.138,8.138,0,0,1-1.484.356,4.49,4.49,0,0,1-4.435-1.791l-.044-.061.071-.115a16.2,16.2,0,0,1,3.987-4.5,10.445,10.445,0,0,1,1.132-.8c.192-.119.391-.223.581-.328s.382-.206.574-.293a6.578,6.578,0,0,1,1.159-.412,5.145,5.145,0,0,1,1.122-.176,9.939,9.939,0,0,0,1.119-.1c.189-.028.379-.063.568-.1s.368-.089.551-.138a15.935,15.935,0,0,0,2.057-.722c.6-.276,1.121-.548,1.487-.754s.581-.339.581-.339c-.208.583-.461,1.188-.752,1.8-.073.154-.145.311-.225.462s-.167.3-.253.454c-.172.3-.35.609-.538.913a19.592,19.592,0,0,1-1.227,1.771c-.22.284-.432.576-.669.843s-.469.534-.705.792-.5.534-.753.773-.522.461-.782.672-.521.408-.779.593-.532.337-.794.487-.525.283-.782.4C645.247,1386.763,645.119,1386.821,644.993,1386.875Z" transform="translate(-617.156 -1305.199)" fill="#f5c04b"/>
      <path id="パス_24166-2" data-name="パス 24166" d="M770.372,1171.905c-.1.084-.206.162-.308.239s-.212.145-.317.213q-.316.2-.628.361a6.037,6.037,0,0,1-1.218.48,4.442,4.442,0,0,1-1.172.127,3.51,3.51,0,0,1-2.022-.705l-.052-.04.035-.129a19.241,19.241,0,0,1,1.063-2.875c.228-.445.439-.9.688-1.321s.516-.824.775-1.22a11.125,11.125,0,0,1,.846-1.094,10.585,10.585,0,0,1,.893-.948,7.949,7.949,0,0,1,.952-.754,4.86,4.86,0,0,1,.973-.531,12.948,12.948,0,0,0,3.637-2.358c.481-.442.887-.855,1.17-1.157s.448-.49.448-.49a22.382,22.382,0,0,1-2.326,7.746,14.683,14.683,0,0,1-2.2,3.3A12.659,12.659,0,0,1,770.372,1171.905Z" transform="translate(-735.225 -1101.848)" fill="#f5c04b"/>
      <path id="パス_24167-2" data-name="パス 24167" d="M850.945,942.785a7.846,7.846,0,0,1-.92,1.154,5.487,5.487,0,0,1-1.99,1.36,3.2,3.2,0,0,1-1.993.061l-.055-.017v-.127c0-.248.015-.492.026-.738s.023-.5.044-.744c.041-.492.118-.977.2-1.457a13.268,13.268,0,0,1,.3-1.422c.058-.232.135-.459.2-.688s.132-.45.208-.67a12.781,12.781,0,0,1,.509-1.267,10.317,10.317,0,0,1,.579-1.15,8.75,8.75,0,0,1,.685-.991,5.275,5.275,0,0,1,.75-.8c.266-.225.528-.473.784-.736a10.436,10.436,0,0,0,.731-.829A20.619,20.619,0,0,0,852.225,932l.25-.4c.076-.131.145-.257.212-.374.134-.237.247-.452.342-.63.186-.359.291-.579.291-.579a22.209,22.209,0,0,1-.334,7.648c-.071.342-.15.677-.233,1-.042.162-.084.325-.129.483s-.1.312-.153.466a17.761,17.761,0,0,1-.69,1.717A11.489,11.489,0,0,1,850.945,942.785Z" transform="translate(-811.431 -886.639)" fill="#f5c04b"/>
      <path id="パス_24168-2" data-name="パス 24168" d="M870.843,716.852a12.364,12.364,0,0,1-.4,1.56,10.414,10.414,0,0,1-.561,1.33c-.843,1.614-1.986,2.524-3.221,2.614l-.054,0-.029-.114a16.509,16.509,0,0,1-.459-5.442,12.139,12.139,0,0,1,.154-1.3c.039-.213.078-.421.119-.623s.092-.4.144-.6a9.77,9.77,0,0,1,.385-1.112,5.677,5.677,0,0,1,.5-.956c.188-.288.369-.6.539-.915s.318-.646.464-.977.278-.665.4-.991.221-.642.315-.944c.183-.6.33-1.136.414-1.517s.126-.609.126-.609c.1.229.2.468.292.719s.173.513.254.784.16.548.234.832.131.581.19.88.116.6.167.908.086.62.124.93.07.627.1.939.039.63.055.941c.014.328.022.651.02.969s-.022.632-.042.937A13.094,13.094,0,0,1,870.843,716.852Z" transform="translate(-830.241 -676.983)" fill="#f5c04b"/>
      <path id="パス_24169-2" data-name="パス 24169" d="M821.743,518.835c-.045.215-.1.419-.154.616s-.128.389-.2.571a5.424,5.424,0,0,1-.5.977,3.406,3.406,0,0,1-1.384,1.251l-.047.021-.054-.091a14.023,14.023,0,0,1-1.691-4.684,11.234,11.234,0,0,1-.163-1.211c-.028-.4-.055-.789-.047-1.174a9.156,9.156,0,0,1,.089-1.115,6.027,6.027,0,0,1,.228-1.017c.1-.318.193-.649.275-.988s.14-.679.195-1.021a17.955,17.955,0,0,0,.209-1.951c.032-.592.039-1.11.038-1.48s-.019-.581-.019-.581a17.5,17.5,0,0,1,2.8,5.676c.087.284.167.569.238.848s.125.566.177.843a13.046,13.046,0,0,1,.2,1.627,13.189,13.189,0,0,1,0,1.515A10.887,10.887,0,0,1,821.743,518.835Z" transform="translate(-784.737 -490.239)" fill="#f5c04b"/>
      <path id="パス_24170-2" data-name="パス 24170" d="M706.036,361.371l-.036.035-.07-.061a11.458,11.458,0,0,1-2.586-3.576,10.107,10.107,0,0,1-.417-1.023,8.667,8.667,0,0,1-.31-1.026,6.96,6.96,0,0,1-.2-1.993c.02-.314.029-.641.025-.965s-.026-.646-.052-.967a17.313,17.313,0,0,0-.238-1.8c-.1-.536-.208-.995-.288-1.321-.041-.164-.074-.293-.1-.379s-.036-.122-.038-.133a14.22,14.22,0,0,1,3.714,4.108,12.585,12.585,0,0,1,.746,1.351,14.129,14.129,0,0,1,.545,1.363,9.931,9.931,0,0,1,.49,2.607,6.249,6.249,0,0,1-.257,2.2A3.789,3.789,0,0,1,706.036,361.371Z" transform="translate(-676.266 -341.455)" fill="#f5c04b"/>
      <path id="パス_24171-2" data-name="パス 24171" d="M545.766,251.961l-.074-.031a8.691,8.691,0,0,1-3.1-2.286,8.6,8.6,0,0,1-1.1-1.572,5.818,5.818,0,0,1-.619-1.693,11.169,11.169,0,0,0-.451-1.695,14.922,14.922,0,0,0-.6-1.51c-.411-.88-.772-1.485-.772-1.485a11.505,11.505,0,0,1,4.163,2.424,9.183,9.183,0,0,1,2.759,4.087,4.831,4.831,0,0,1-.176,3.717Z" transform="translate(-523.832 -241.688)" fill="#f5c04b"/>
      <path id="パス_24172-2" data-name="パス 24172" d="M298.391,1426.21a9.859,9.859,0,0,1,.666-1.286c.063-.1.126-.2.193-.3s.132-.209.2-.311q.2-.307.43-.6c.148-.194.3-.38.464-.562s.324-.353.493-.539a10.3,10.3,0,0,1,1.066-1,9.894,9.894,0,0,1,1.159-.9,10.754,10.754,0,0,1,1.249-.78,20.947,20.947,0,0,1,4.789-2.135s-.071.218-.193.6c-.06.192-.132.426-.215.695-.041.135-.084.279-.131.431l-.151.462c-.1.325-.215.679-.333,1.052s-.236.785-.366,1.18c-.254.8-.512,1.679-.737,2.552a6.151,6.151,0,0,1-.49,1.257,6.75,6.75,0,0,1-.349.6c-.064.1-.129.194-.2.288s-.143.178-.217.265a7.927,7.927,0,0,1-1.012.977,4.485,4.485,0,0,1-.584.408q-.305.189-.628.351a6.912,6.912,0,0,1-5.68.26l-.118-.047,0-.085A8.452,8.452,0,0,1,298.391,1426.21Z" transform="translate(-297.698 -1343.679)" fill="#f5c04b"/>
      <path id="パス_24173-2" data-name="パス 24173" d="M471.183,1338.793l-.044.609c-.026.389-.057.948-.089,1.625-.042.658-.09,1.431-.122,2.267-.007.211-.017.421-.028.628s-.017.422-.026.637c-.015.429-.022.866-.02,1.3a5.448,5.448,0,0,1-.141,1.316,7.651,7.651,0,0,1-.422,1.305c-.045.107-.093.216-.144.321s-.108.206-.164.307c-.116.2-.24.4-.374.6a6.994,6.994,0,0,1-.91,1.119,8.551,8.551,0,0,1-1.1.948,9.825,9.825,0,0,1-1.247.717,6.4,6.4,0,0,1-2.718.578l-.119,0-.016-.08a8.126,8.126,0,0,1-.079-2.784c.032-.234.073-.464.121-.7s.1-.475.16-.709a11.927,11.927,0,0,1,.452-1.381,16,16,0,0,1,3.121-5.011A22.07,22.07,0,0,1,471.183,1338.793Z" transform="translate(-452.898 -1269.65)" fill="#f5c04b"/>
      <path id="パス_24174-2" data-name="パス 24174" d="M600.4,1235.592c.058-.239.122-.478.195-.712s.153-.466.234-.7.161-.475.253-.709.19-.461.3-.686.2-.466.317-.693a24.153,24.153,0,0,1,2.765-4.623s.035.209.095.572.157.883.279,1.511.235,1.335.394,2.108c.077.379.159.773.24,1.173s.174.792.273,1.187a5.834,5.834,0,0,1,.177,1.248,7.9,7.9,0,0,1-.089,1.318q-.052.338-.131.681a6.965,6.965,0,0,1-.2.668,10.381,10.381,0,0,1-.558,1.325,7.984,7.984,0,0,1-4.052,3.765l-.108.038-.035-.066a9.26,9.26,0,0,1-.738-5.266,12.805,12.805,0,0,1,.228-1.426C600.294,1236.066,600.349,1235.827,600.4,1235.592Z" transform="translate(-580.878 -1165.342)" fill="#f5c04b"/>
      <path id="パス_24175-2" data-name="パス 24175" d="M702.6,1101.035a8.756,8.756,0,0,1-2.759,4.773l-.087.073-.047-.047a6.039,6.039,0,0,1-1.262-1.988,9.02,9.02,0,0,1-.39-1.2,11.231,11.231,0,0,1-.263-1.309c-.032-.223-.057-.448-.076-.675s-.032-.463-.048-.691a12.73,12.73,0,0,1,0-1.414,17.949,17.949,0,0,1,.35-2.913,25.818,25.818,0,0,1,1.46-5.142l.215.492c.14.311.342.754.593,1.286.471,1.045,1.134,2.466,1.833,3.754a5.5,5.5,0,0,1,.446,1.072,6.5,6.5,0,0,1,.222,1.22,8.449,8.449,0,0,1,.019,1.333A11.084,11.084,0,0,1,702.6,1101.035Z" transform="translate(-672.44 -1037.005)" fill="#f5c04b"/>
      <path id="パス_24176-2" data-name="パス 24176" d="M744.23,947.3c-.134-.415-.23-.84-.328-1.279a11.8,11.8,0,0,1-.234-1.353l-.035-.346c-.016-.119-.029-.236-.041-.354-.025-.236-.041-.475-.051-.716a25.713,25.713,0,0,1,.151-5.2l.307.382.358.433c.07.082.144.169.222.264s.154.189.236.29c.331.4.725.871,1.159,1.356.214.237.433.483.657.735s.455.487.691.719a4.54,4.54,0,0,1,.65.82,5.688,5.688,0,0,1,.48,1.026,8.643,8.643,0,0,1,.33,1.194,10.183,10.183,0,0,1,.129,1.306c.009.225.012.454.007.682a6.767,6.767,0,0,1-.054.686,12.561,12.561,0,0,1-.237,1.37,9.81,9.81,0,0,1-.44,1.305c-.086.209-.179.415-.278.614s-.219.387-.337.572l-.062.094-.054-.026a4.723,4.723,0,0,1-1.6-1.342,8.367,8.367,0,0,1-1.186-2.037C744.522,948.118,744.356,947.713,744.23,947.3Z" transform="translate(-715.388 -894.164)" fill="#f5c04b"/>
      <path id="パス_24177-2" data-name="パス 24177" d="M735.875,787.541a4.522,4.522,0,0,1,.265.506,8.947,8.947,0,0,1,.449,6.264l-.033.1-.055-.005a5.083,5.083,0,0,1-3.287-2.084,12.954,12.954,0,0,1-2.226-4.372,23.463,23.463,0,0,1-1.048-4.761s.134.091.368.246.552.375.951.63l.641.407c.221.145.458.293.7.443s.5.3.763.447.516.292.781.424a3.676,3.676,0,0,1,.763.527,4.491,4.491,0,0,1,.667.764C735.68,787.226,735.779,787.38,735.875,787.541Z" transform="translate(-702.698 -749.066)" fill="#f5c04b"/>
      <path id="パス_24178-2" data-name="パス 24178" d="M684.761,646.678l-.049.014a3.443,3.443,0,0,1-1.717.017,4.748,4.748,0,0,1-.861-.293c-.141-.065-.281-.136-.42-.213s-.284-.159-.423-.248a6.84,6.84,0,0,1-.814-.609,8.642,8.642,0,0,1-.784-.738c-.243-.271-.5-.552-.734-.86-.119-.152-.227-.314-.344-.475s-.228-.328-.336-.5a19.423,19.423,0,0,1-2.038-3.971s.14.04.384.106.583.164,1,.267.887.225,1.4.335c.254.056.52.1.785.154s.528.094.794.126a3.012,3.012,0,0,1,.8.222,3.8,3.8,0,0,1,.77.462,4.771,4.771,0,0,1,.724.675,7.523,7.523,0,0,1,.641.86,8.491,8.491,0,0,1,1.23,4.562Z" transform="translate(-652.384 -613.775)" fill="#f5c04b"/>
      <path id="パス_24179-2" data-name="パス 24179" d="M598.618,512.825l.023.094-.041.03a3.323,3.323,0,0,1-1.513.6,4.783,4.783,0,0,1-1.691-.1,6.807,6.807,0,0,1-1.733-.677,6.9,6.9,0,0,1-.859-.529,10.2,10.2,0,0,1-.836-.654,15.326,15.326,0,0,1-2.734-2.918l.366-.021c.231-.014.56-.037.954-.073s.842-.079,1.323-.143c.24-.031.486-.068.734-.112s.493-.087.735-.143a2.849,2.849,0,0,1,1.557.1,4.655,4.655,0,0,1,.8.361,5.589,5.589,0,0,1,.762.558A6.985,6.985,0,0,1,598.618,512.825Z" transform="translate(-570.86 -491.322)" fill="#f5c04b"/>
      <path id="パス_24180-2" data-name="パス 24180" d="M482.231,394.933a5.627,5.627,0,0,1,2.736,2.48l.041.075-.028.04a3.872,3.872,0,0,1-2.705,1.506,6.726,6.726,0,0,1-3.476-.532,11.863,11.863,0,0,1-3.1-1.723s.47-.18,1.154-.5c.344-.166.731-.332,1.143-.545s.843-.447,1.247-.695a2.782,2.782,0,0,1,1.4-.415A3.891,3.891,0,0,1,482.231,394.933Z" transform="translate(-464.484 -384.99)" fill="#f5c04b"/>
    </g>
    <path id="パス_30672" data-name="パス 30672" d="M80.854-107.94H192.377v20.732H80.854ZM74.332-60.792h111.75v20.447H74.332Zm-18.76,50.36H200.7V10.3H55.572ZM116.914-136.36h22.175V-.2H116.914Zm-37.3,1.775,22.012,4.947a233.743,233.743,0,0,1-8.436,24.41A212.233,212.233,0,0,1,82.5-82.719a121.41,121.41,0,0,1-12.035,18.1,48.634,48.634,0,0,0-5.551-4.308q-3.506-2.4-7.154-4.743t-6.425-3.783A84.7,84.7,0,0,0,62.968-93.3a153.939,153.939,0,0,0,9.6-19.811A171.074,171.074,0,0,0,79.614-134.585ZM248.469-76.11h36.152v19.325H248.469Zm28.09,0h20.59V-74.7q0,1.414-.071,3.211t-.071,2.99q-.2,16.618-.684,27.409a146.037,146.037,0,0,1-1.511,16.817q-1.023,6.026-2.908,8.516a14.75,14.75,0,0,1-5.194,4.644,26.24,26.24,0,0,1-6.384,2.081,53.086,53.086,0,0,1-8.044.713q-4.861.125-10.514.072a43.256,43.256,0,0,0-1.763-10.286,40.429,40.429,0,0,0-3.95-9.574q4,.355,7.478.506t5.42.151a7.443,7.443,0,0,0,2.755-.454,5.372,5.372,0,0,0,2.08-1.556q1.013-1.315,1.527-5.829t.79-13.588q.275-9.074.452-24.126Zm48.9-49.63,12.85-12.742q4.317,2.15,9.179,5.164t9.277,6.026a52.937,52.937,0,0,1,7.206,5.75l-13.685,14.2a56.383,56.383,0,0,0-6.717-6.044q-4.212-3.306-8.992-6.541T325.457-125.74Zm17.785,40.615L364.684-80a196.632,196.632,0,0,1-27.34,55.38A144.234,144.234,0,0,1,296.4,14.227a50.342,50.342,0,0,0-4.242-5.615q-2.785-3.283-5.775-6.566a66.824,66.824,0,0,0-5.337-5.329,116.578,116.578,0,0,0,38.445-33.385A152.307,152.307,0,0,0,343.242-85.125ZM249.554-113.24H372.877v20.873H249.554Zm-14.255,0h22.315v47.615q0,9.138-.64,20.037a220.637,220.637,0,0,1-2.462,22.2,142.37,142.37,0,0,1-5.254,21.756,74.819,74.819,0,0,1-8.889,18.564,38.887,38.887,0,0,0-5.169-5.1q-3.426-2.91-6.923-5.6a34.408,34.408,0,0,0-5.989-3.86,67.448,67.448,0,0,0,8.78-21.421,149.664,149.664,0,0,0,3.475-24.125q.755-12.214.755-22.614Zm64.583-22.96H322.2q-.41,18.945.95,37.439t4.043,34.884a251.292,251.292,0,0,0,6.316,28.96q3.634,12.57,7.978,19.754t8.731,7.184q2.6,0,4.079-6.543t2.124-21.347a59.443,59.443,0,0,0,8.71,7.046,46.287,46.287,0,0,0,9.3,5.019q-1.638,15.185-4.7,23.329t-8.191,11.13Q356.4,13.64,348.469,13.64a23.727,23.727,0,0,1-15.841-6.027q-7.041-6.028-12.446-16.8A129.483,129.483,0,0,1,311-34.325a282.383,282.383,0,0,1-6.212-31.149q-2.435-16.774-3.59-34.746T299.882-136.2ZM389.137,0l37.453-118.865h31.055L495.114,0H467.639l-15.9-60.627q-2.54-9.137-4.956-19.156t-4.906-19.331h-.64q-2.2,9.455-4.7,19.4t-4.9,19.085L415.7,0Zm24.328-28.89V-49.1h56.967V-28.89ZM519.551,0V-118.865h26.14V0ZM672.909-116.768h18.453v91.01H672.909Zm27.43-16.3h20.608V-10.22q0,8.662-1.859,13.4a13.444,13.444,0,0,1-6.856,7.232,34.577,34.577,0,0,1-12.5,3.434,169.114,169.114,0,0,1-17.9.784,40.943,40.943,0,0,0-1.4-6.984q-1.1-3.924-2.491-7.866a57.648,57.648,0,0,0-2.865-6.86q6.735.3,12.9.374t8.516.054a4.427,4.427,0,0,0,2.96-.818,3.794,3.794,0,0,0,.88-2.88Zm-122.6,3.285h89.728v17.743H577.734Zm11.7,122.8h64.612V9.043H589.437ZM591.289-31.5h61.247v15.177H591.289Zm22.385-15.423h18.755V.947H613.674ZM580.719-56.16h85.538V13.59h-20.02V-40.128H599.9v54.55H580.719ZM604.984-89.2v10.063h35.693V-89.2Zm-19.04-16.05h74.893v42H585.944ZM750.787-38.693H894.224v17.315H750.787Zm.372-72.2H893.727v17.315H751.159ZM757.7-81.945h129.73v16.478H757.7Zm7.875,22.257h114.55v15.18H765.577Zm45.86-13.822h21.035V14.777H811.437Zm-13.667-63.01h19.753v33.85H797.769Zm29.472,0h20.038v32.568H827.242ZM807.989-30.877l16.693,7.507A100.592,100.592,0,0,1,806.5-7.993,151.791,151.791,0,0,1,783.89,4.477a155.434,155.434,0,0,1-24.579,8.632,60.457,60.457,0,0,0-3.806-5.936Q753.157,3.89,750.6.741A52.594,52.594,0,0,0,745.7-4.6a195.371,195.371,0,0,0,23.938-6.2,147.039,147.039,0,0,0,21.856-9.063A78.48,78.48,0,0,0,807.989-30.877Zm28.305-.445a70.331,70.331,0,0,0,11.624,8.538,102.645,102.645,0,0,0,14.94,7.285,153.753,153.753,0,0,0,17.279,5.65,168.845,168.845,0,0,0,18.6,3.81q-2.332,2.33-5.107,5.685a82.235,82.235,0,0,0-5.186,6.994q-2.411,3.639-4.014,6.559a149.873,149.873,0,0,1-18.81-6.08,128.77,128.77,0,0,1-17.42-8.48A119.563,119.563,0,0,1,832.73-12.109a92.27,92.27,0,0,1-12.809-12.719Zm27.675-104.045,22.28,5.2q-3.91,6.54-7.706,12.584t-6.906,10.309l-17.242-5.177q1.847-3.235,3.642-7.225t3.349-8.141Q862.939-131.973,863.969-135.367Zm-21.048,34.42,22.565,5.16q-3.415,5.815-6.455,10.953t-5.492,8.852l-18.062-5q2.007-4.445,4.131-9.982A101.717,101.717,0,0,0,842.922-100.948Zm-80.78-28.85,18.24-6.155q3.375,5.03,6.77,11.357a77.344,77.344,0,0,1,5.013,11.02l-19.255,6.9a60.723,60.723,0,0,0-4.38-11.173Q765.357-124.322,762.142-129.8ZM782.3-93.632l20.68-3.15a74.868,74.868,0,0,1,3.828,7.285,47.6,47.6,0,0,1,2.728,7.107l-21.678,3.6a65.821,65.821,0,0,0-2.29-7.188A77.132,77.132,0,0,0,782.3-93.632Zm265.982-15.243q-1.05,1.495-2.981,4.769a50.772,50.772,0,0,0-3.1,6.066q-3.325,7.448-8.214,16.709t-11.04,18.675a171.406,171.406,0,0,1-13.121,17.576A239,239,0,0,1,990-24.874,222.526,222.526,0,0,1,967.108-6.65a174.457,174.457,0,0,1-24.4,14.233L924.342-11.53a145.593,145.593,0,0,0,25.21-12.381A190.75,190.75,0,0,0,972.21-40.159a173.864,173.864,0,0,0,17.661-16.789,127.368,127.368,0,0,0,9.881-12.627,146.672,146.672,0,0,0,8.085-13.159,67.353,67.353,0,0,0,5.189-11.886H961q-3.395,0-7.227.231t-7.159.525q-3.326.294-5.319.436V-118.59q2.562.285,6.306.588t7.434.471q3.69.169,5.965.169h54.937a77.906,77.906,0,0,0,10.514-.659,40.487,40.487,0,0,0,7.384-1.549ZM1011.9-59.707q6.167,4.905,13.19,11.465T1039.03-34.6q6.916,7.085,12.81,13.61t9.786,11.235L1041.392,7.865A214.531,214.531,0,0,0,1028-9.344q-7.51-8.746-15.838-17.44T995.174-43.265Zm217.78-39.65a57.919,57.919,0,0,0-3.051,5.665,65.988,65.988,0,0,0-2.731,6.628q-2.08,6.822-5.812,15.746a172.052,172.052,0,0,1-9.2,18.541A138.308,138.308,0,0,1,1196.1-34.11a146.431,146.431,0,0,1-26.865,25.281q-15.325,11.219-37.867,20.341l-20.98-18.685a166.28,166.28,0,0,0,28.7-11.328,121.142,121.142,0,0,0,20.506-13.279,126.074,126.074,0,0,0,15.438-14.894,85.23,85.23,0,0,0,9.863-13.541,128.043,128.043,0,0,0,7.757-15.186,66.629,66.629,0,0,0,4.29-13.067h-52.393l8.008-20.038h44.215a62.469,62.469,0,0,0,7.951-.525,38.288,38.288,0,0,0,6.921-1.45Zm-51.765-25.605q-3.113,4.5-6.084,9.608t-4.5,7.737a162.192,162.192,0,0,1-13.756,20.269,190.324,190.324,0,0,1-18.241,20.019,175.806,175.806,0,0,1-21.16,17.313l-19.842-14.735a153.17,153.17,0,0,0,18.56-13.289,127.463,127.463,0,0,0,13.865-13.5,149.634,149.634,0,0,0,10.088-12.841q4.257-6.14,7.353-11.17a58.533,58.533,0,0,0,4.369-8.336,66.977,66.977,0,0,0,3.479-9.561Zm92.033,49.518q3.06.16,7.826.463t9.854.454q5.088.151,9.033.151h85.453q5.545,0,10.711-.454t8.529-.614v27.868q-2.935-.16-8.564-.534t-10.659-.374h-85.47q-6.827,0-14.4.294t-12.318.614ZM1506.442-3.628a46.153,46.153,0,0,0,.988-5.746,58.815,58.815,0,0,0,.382-6.759v-92.562a65.414,65.414,0,0,0-.659-9.915q-.659-4.242-.676-4.42h26.267q-.017.178-.6,4.491a75.962,75.962,0,0,0-.579,9.986v81.168a71.37,71.37,0,0,0,12.97-7.429,104.594,104.594,0,0,0,13.024-11.016,98.146,98.146,0,0,0,11.531-13.7l13.578,19.54a126.764,126.764,0,0,1-15.821,16.708A200.191,200.191,0,0,1,1547.525-8.02,170.35,170.35,0,0,1,1528.5,3.545a35.217,35.217,0,0,0-4.4,2.785q-1.681,1.29-2.891,2.2Zm-74.33-2.76a62.417,62.417,0,0,0,17.324-17.841,87.992,87.992,0,0,0,9.731-20.2,61.085,61.085,0,0,0,2.657-12.7q.9-7.634,1.369-16.434t.551-17.591q.08-8.791.08-16.169a74.933,74.933,0,0,0-.445-8.877,58.579,58.579,0,0,0-1.193-6.723h26q-.017.158-.311,2.524t-.588,5.79q-.294,3.424-.294,7,0,7.238-.16,16.615t-.649,19.146q-.489,9.769-1.378,18.5a96.139,96.139,0,0,1-2.506,14.791,93.869,93.869,0,0,1-10.96,25.479,95.822,95.822,0,0,1-17.645,21ZM1635.582,0V-97.067h-32.74v-21.8h91.8v21.8h-32.883V0Zm131.135,2.223q-15.9,0-28.033-7.449a50.119,50.119,0,0,1-18.927-21.405q-6.792-13.956-6.792-33.336,0-19.4,6.792-33.04a48.5,48.5,0,0,1,18.927-20.791q12.135-7.146,28.033-7.146,16.037,0,28.1,7.217a49.189,49.189,0,0,1,18.856,20.791q6.792,13.574,6.792,32.969,0,19.38-6.792,33.336a50.279,50.279,0,0,1-18.856,21.405Q1782.754,2.223,1766.717,2.223Zm0-22.545a22.273,22.273,0,0,0,14.4-4.878q6.066-4.877,9.406-13.78a59.7,59.7,0,0,0,3.34-20.987q0-12.083-3.34-20.754t-9.406-13.246a23.232,23.232,0,0,0-14.4-4.575,23.248,23.248,0,0,0-14.391,4.575q-6.076,4.575-9.345,13.246t-3.269,20.754a60.883,60.883,0,0,0,3.269,20.987q3.269,8.9,9.345,13.78A22.289,22.289,0,0,0,1766.717-20.322ZM1854.345,0V-118.865h40.39a74.827,74.827,0,0,1,23.77,3.548,34.279,34.279,0,0,1,16.936,11.851q6.3,8.3,6.3,22.689,0,13.763-6.3,22.618a37.235,37.235,0,0,1-16.839,13.1,61.607,61.607,0,0,1-23.236,4.25h-14.89V0Zm26.14-61.465h13.377q11.3,0,16.849-4.913t5.551-14.4q0-9.647-5.925-13.467t-17.258-3.82h-12.595Z" transform="translate(2538.087 1473.439)"/>
    <path id="パス_30671" data-name="パス 30671" d="M-.472,0,18.254-59.433H33.781L52.516,0H38.779L30.828-30.314q-1.27-4.569-2.478-9.578T25.9-49.557h-.32q-1.1,4.728-2.349,9.7t-2.448,9.543L12.811,0ZM11.691-14.445V-24.552H40.175v10.108ZM59.135,0V-59.433H72.2V0ZM84.556-55.464q2.382-.08,4.65-.2t3.4-.2q2.641-.231,6.277-.56t8.066-.706q4.431-.378,9.474-.791t10.564-.894q4.07-.329,8.284-.609t8.033-.511q3.819-.231,6.654-.311l.071,11.381q-2.115-.009-4.9.071t-5.546.258a31.272,31.272,0,0,0-4.969.684,18.646,18.646,0,0,0-6.4,2.975,24.386,24.386,0,0,0-5.274,5.113,24.462,24.462,0,0,0-3.542,6.455,20.429,20.429,0,0,0-1.276,7.074,15.691,15.691,0,0,0,1.306,6.588,14.144,14.144,0,0,0,3.674,4.9,21.06,21.06,0,0,0,5.562,3.394,34.429,34.429,0,0,0,6.954,2.08,58.228,58.228,0,0,0,7.875.947L139.338,3.878a50.414,50.414,0,0,1-10.038-1.7,40.977,40.977,0,0,1-8.992-3.646,29.745,29.745,0,0,1-7.244-5.583,24.458,24.458,0,0,1-4.84-7.476,24.184,24.184,0,0,1-1.743-9.359,29.562,29.562,0,0,1,1.741-10.349,33.806,33.806,0,0,1,4.295-8.2,28.779,28.779,0,0,1,4.986-5.469q-2.167.249-5.144.582t-6.445.746q-3.469.413-7.041.9T91.9-44.595q-3.4.591-6.23,1.214Zm54.075,13.873q1.022,1.414,2.191,3.374t2.271,3.906q1.1,1.946,1.848,3.519l-6.582,2.9q-1.556-3.414-2.907-5.879a52.29,52.29,0,0,0-3.253-5.142Zm8.988-3.753q1.031,1.414,2.276,3.3t2.422,3.8q1.178,1.911,1.995,3.412L147.8-31.715q-1.706-3.344-3.128-5.7t-3.4-5.039Z" transform="translate(2865.586 1248.563)"/>
    <path id="パス_30669" data-name="パス 30669" d="M4.247-57.428H75.966v10.16H4.247ZM30.686-31.346h41.9v9.8h-41.9ZM27.629-4.47H75.636v9.8H27.629Zm18.9-39.564H57.252V.735H46.53ZM29.186-68.251l11.086,2.634a138.366,138.366,0,0,1-7.538,19.264A94.17,94.17,0,0,1,21.768-28.711,66.436,66.436,0,0,1,6.624-14.67a29.466,29.466,0,0,0-1.437-3.407Q4.265-19.964,3.3-21.819T1.534-24.974a46.739,46.739,0,0,0,9.849-8.354,68.113,68.113,0,0,0,7.863-10.729,86.046,86.046,0,0,0,5.924-11.986A99,99,0,0,0,29.186-68.251ZM13.15-34.57H23.872V7.265H13.15ZM134.584-49.716l8.22,8.737a108.166,108.166,0,0,1-10.814,3.466q-5.8,1.546-12.005,2.714T107.5-32.839q-6.275.791-12.31,1.349A26.375,26.375,0,0,0,93.944-36.2a35.163,35.163,0,0,0-1.908-4.556q5.8-.621,11.719-1.487t11.505-2q5.59-1.133,10.51-2.5A75.943,75.943,0,0,0,134.584-49.716Zm-50.754,26,70.8-6.744,1.254,9.85L85.156-13.435Zm27.464-13.029H122.95v29a7.6,7.6,0,0,0,.373,2.729,1.965,1.965,0,0,0,1.519,1.169,17.686,17.686,0,0,0,3.51.254h12.63a5.481,5.481,0,0,0,3.217-.787,4.963,4.963,0,0,0,1.573-3.133,56.316,56.316,0,0,0,.791-6.932,21.4,21.4,0,0,0,3.114,1.762,38.252,38.252,0,0,0,3.866,1.575,34.53,34.53,0,0,0,3.618,1.059A36.6,36.6,0,0,1,154.915.174a9.648,9.648,0,0,1-4.648,5.183,19.5,19.5,0,0,1-8.378,1.489H127.106a28.213,28.213,0,0,1-9.641-1.3,8.109,8.109,0,0,1-4.8-4.479,22.352,22.352,0,0,1-1.374-8.676Zm2.79-31.376h11.371v15.054H114.084ZM85.411-61.5h69.15v19.435H143.19v-9.417H96.213v9.417h-10.8ZM232.77-53.69q-.222.659-.56,1.811t-.6,2.3q-.258,1.148-.409,1.744-.72,4-1.747,9.034a81.394,81.394,0,0,1-2.868,10.351,47.075,47.075,0,0,1-5.058,10.267A51.232,51.232,0,0,1,208.647-4.463a67.394,67.394,0,0,1-17.489,9.294l-9.9-10.109A58.563,58.563,0,0,0,192.076-9.12a54.376,54.376,0,0,0,10.48-6.381,33.491,33.491,0,0,0,8-8.724A41.294,41.294,0,0,0,214-31.2a58.112,58.112,0,0,0,2.409-7.931,64.883,64.883,0,0,0,1.351-8.344H181.012v12.6q0,.871.04,2.926t.263,4.029H168.27q.16-1.974.3-3.611t.143-3.344V-51.735q0-1.69-.111-3.536t-.271-3.527q2,.08,4.651.191t5.477.111H215.9q2.269,0,4.413-.151t3.906-.452Zm14.339,15.967q1.53.08,3.913.231t4.927.227q2.544.076,4.516.076h42.726q2.772,0,5.356-.227t4.264-.307v13.934q-1.467-.08-4.282-.267t-5.329-.187H260.465q-3.414,0-7.2.147t-6.159.307ZM392.575-49.679a28.972,28.972,0,0,0-1.526,2.832,32.987,32.987,0,0,0-1.366,3.314q-1.04,3.411-2.906,7.873a86.019,86.019,0,0,1-4.6,9.271,69.152,69.152,0,0,1-6.4,9.334A73.214,73.214,0,0,1,362.35-4.414,87.773,87.773,0,0,1,343.416,5.756l-10.49-9.342A83.14,83.14,0,0,0,347.276-9.25a60.572,60.572,0,0,0,10.253-6.639,63.035,63.035,0,0,0,7.719-7.447,42.613,42.613,0,0,0,4.931-6.771,64.013,64.013,0,0,0,3.879-7.593,33.314,33.314,0,0,0,2.145-6.534h-26.2l4-10.019h22.107a31.235,31.235,0,0,0,3.976-.262,19.142,19.142,0,0,0,3.461-.725Zm-25.883-12.8q-1.556,2.251-3.042,4.8L361.4-53.809a81.1,81.1,0,0,1-6.878,10.134A95.166,95.166,0,0,1,345.4-33.665a87.905,87.905,0,0,1-10.58,8.656L324.9-32.376a76.581,76.581,0,0,0,9.28-6.644,63.734,63.734,0,0,0,6.932-6.75,74.829,74.829,0,0,0,5.044-6.421q2.129-3.07,3.676-5.585a29.26,29.26,0,0,0,2.184-4.168,33.485,33.485,0,0,0,1.739-4.781ZM438.37-41.116a10.305,10.305,0,0,1,5.425,1.451,11.253,11.253,0,0,1,3.864,3.848,10.235,10.235,0,0,1,1.457,5.424,10.347,10.347,0,0,1-1.451,5.358,11.046,11.046,0,0,1-3.848,3.9,10.282,10.282,0,0,1-5.424,1.448,10.374,10.374,0,0,1-5.357-1.446,10.862,10.862,0,0,1-3.9-3.9,10.319,10.319,0,0,1-1.448-5.343,10.333,10.333,0,0,1,1.446-5.425,11.059,11.059,0,0,1,3.9-3.864A10.272,10.272,0,0,1,438.37-41.116Zm91.019-17.267h9.226v45.505h-9.226ZM543.1-66.535h10.3V-5.11a19.051,19.051,0,0,1-.929,6.7,6.722,6.722,0,0,1-3.428,3.616A17.288,17.288,0,0,1,542.8,6.926a84.558,84.558,0,0,1-8.948.392,20.475,20.475,0,0,0-.7-3.492q-.552-1.962-1.246-3.933a28.819,28.819,0,0,0-1.432-3.43q3.367.151,6.452.187t4.258.027a2.214,2.214,0,0,0,1.48-.409,1.9,1.9,0,0,0,.44-1.44Zm-61.3,1.643h44.864v8.871H481.8Zm5.851,61.4h32.306V4.521H487.652Zm.926-12.256H519.2v7.589H488.579Zm11.193-7.711h9.378V.474h-9.378ZM483.294-28.08h42.769V6.8h-10.01V-20.064H492.885V7.211h-9.591ZM495.426-44.6v5.031h17.846V-44.6Zm-9.52-8.025h37.446v21H485.906Zm76.821,33.276h71.719v8.658H562.728Zm.186-36.1H634.2v8.657H562.914Zm3.271,14.474H631.05v8.239H566.185Zm3.938,11.129H627.4v7.59H570.122Zm22.93-6.911H603.57V7.389H593.053ZM586.219-68.26H596.1v16.925h-9.876Zm14.736,0h10.019v16.284H600.955Zm-9.626,52.821,8.346,3.754A50.3,50.3,0,0,1,590.586-4a75.9,75.9,0,0,1-11.306,6.235A77.719,77.719,0,0,1,566.99,6.555a30.229,30.229,0,0,0-1.9-2.968q-1.174-1.642-2.451-3.216A26.3,26.3,0,0,0,560.184-2.3a97.684,97.684,0,0,0,11.969-3.1,73.522,73.522,0,0,0,10.928-4.531A39.241,39.241,0,0,0,591.329-15.439Zm14.152-.223a35.166,35.166,0,0,0,5.812,4.269,51.327,51.327,0,0,0,7.47,3.642A76.881,76.881,0,0,0,627.4-4.925a84.423,84.423,0,0,0,9.3,1.905q-1.166,1.165-2.554,2.842a41.13,41.13,0,0,0-2.593,3.5q-1.206,1.819-2.007,3.279a74.935,74.935,0,0,1-9.4-3.04,64.384,64.384,0,0,1-8.71-4.24A59.779,59.779,0,0,1,603.7-6.054a46.135,46.135,0,0,1-6.4-6.359Zm13.838-52.022,11.14,2.6q-1.955,3.27-3.853,6.292t-3.453,5.154l-8.621-2.589q.924-1.618,1.821-3.613t1.674-4.071Q618.8-65.986,619.319-67.684ZM608.8-50.474l11.282,2.58q-1.708,2.908-3.227,5.476T614.1-37.991l-9.031-2.5q1-2.222,2.066-4.991A50.867,50.867,0,0,0,608.8-50.474ZM568.405-64.9l9.12-3.077q1.688,2.515,3.385,5.679a38.665,38.665,0,0,1,2.506,5.51l-9.628,3.452a30.364,30.364,0,0,0-2.19-5.586Q570.013-62.161,568.405-64.9Zm10.079,18.083,10.34-1.575a37.454,37.454,0,0,1,1.914,3.643,23.8,23.8,0,0,1,1.364,3.554l-10.839,1.8a32.923,32.923,0,0,0-1.145-3.594A38.566,38.566,0,0,0,578.484-46.816Zm99.886,5.7a10.306,10.306,0,0,1,5.425,1.451,11.253,11.253,0,0,1,3.864,3.848,10.235,10.235,0,0,1,1.457,5.424,10.346,10.346,0,0,1-1.451,5.358,11.047,11.047,0,0,1-3.847,3.9,10.282,10.282,0,0,1-5.424,1.448,10.374,10.374,0,0,1-5.358-1.446,10.861,10.861,0,0,1-3.9-3.9,10.319,10.319,0,0,1-1.448-5.343,10.333,10.333,0,0,1,1.446-5.425,11.059,11.059,0,0,1,3.9-3.864A10.272,10.272,0,0,1,678.37-41.116Zm41.645,22.6q4.791-.915,11.4-2.439t13.292-3.1l1.318,9.93q-6,1.777-12.2,3.439T722.3-7.641ZM740.144-67.6h10.3V7.309h-10.3Zm-14.671,8.755h9.866V-15.87h-9.866Zm27.578-4.163H785.8v10.436H753.05Zm30.284,0h1.825l1.9-.374,7.136,2.055a134.812,134.812,0,0,1-6.557,30.589A75.809,75.809,0,0,1,775.363-8.177,64.5,64.5,0,0,1,757.144,7.291a32.8,32.8,0,0,0-2.034-3.2Q753.869,2.344,752.481.7a20.55,20.55,0,0,0-2.633-2.656A47.766,47.766,0,0,0,762.546-11a58.9,58.9,0,0,0,9.914-13.186,82.422,82.422,0,0,0,6.979-16.745,111.04,111.04,0,0,0,3.894-19.726Zm-17.86,11.041a109.391,109.391,0,0,0,6.149,20.976,64.784,64.784,0,0,0,10.256,17.209A45.934,45.934,0,0,0,797.113-1.945a24.812,24.812,0,0,0-2.7,2.652q-1.459,1.637-2.776,3.421a30.541,30.541,0,0,0-2.127,3.243,53.645,53.645,0,0,1-16.35-13.791A74.631,74.631,0,0,1,762.325-25.8a153.435,153.435,0,0,1-6.995-24.269Zm51.291-11.867h22.711v10.8H816.765Zm17.506,0h11.006q0,3.859.316,8.752a84.33,84.33,0,0,0,1.356,10.347,73.669,73.669,0,0,0,3.1,11.173,60.749,60.749,0,0,0,5.511,11.306,58.14,58.14,0,0,0,8.617,10.71,62.24,62.24,0,0,0,12.428,9.38q-1.165.944-2.847,2.616t-3.217,3.493q-1.535,1.82-2.486,3.2A61.863,61.863,0,0,1,855.129-3.187a64.36,64.36,0,0,1-9.19-12.342,78.343,78.343,0,0,1-6.053-13.3A95.348,95.348,0,0,1,836.348-42,109.011,109.011,0,0,1,834.7-54.059Q834.271-59.682,834.271-63.835Zm-3.755,18.112,12.172,2.189A108.288,108.288,0,0,1,835.409-22.1,75.186,75.186,0,0,1,824.583-5.077,60.054,60.054,0,0,1,810.07,7.291a27.378,27.378,0,0,0-2.732-2.8q-1.788-1.637-3.684-3.279a37.268,37.268,0,0,0-3.292-2.593,49.035,49.035,0,0,0,19.686-17.5A77.385,77.385,0,0,0,830.516-45.722Zm78.27,46.834A28.79,28.79,0,0,1,898.662-.534a18.023,18.023,0,0,1-7.4-5.095,22.7,22.7,0,0,1-4.538-8.851,47.355,47.355,0,0,1-1.533-12.834V-59.433h13v33.4a28.475,28.475,0,0,0,1.247,9.343,9.477,9.477,0,0,0,3.61,5.007,10.387,10.387,0,0,0,5.74,1.52,10.62,10.62,0,0,0,5.8-1.52,9.581,9.581,0,0,0,3.691-5.007,27.641,27.641,0,0,0,1.288-9.343v-33.4h12.563v32.119a48.422,48.422,0,0,1-1.5,12.834,22.552,22.552,0,0,1-4.476,8.851,17.85,17.85,0,0,1-7.344,5.095A28.3,28.3,0,0,1,908.786,1.111ZM945.924,0V-59.433h20.2A37.414,37.414,0,0,1,978-57.659a17.139,17.139,0,0,1,8.468,5.926q3.152,4.152,3.152,11.344,0,6.881-3.148,11.309a18.618,18.618,0,0,1-8.419,6.552A30.8,30.8,0,0,1,966.439-20.4h-7.445V0Zm13.07-30.733h6.689q5.649,0,8.424-2.456t2.776-7.2q0-4.824-2.962-6.734t-8.629-1.91h-6.3Z" transform="translate(3034.086 1246.563)" fill="#533afc"/>
    <path id="パス_30670" data-name="パス 30670" d="M37.074-62.748q-.365,1.636-.77,3.6T35.526-55.6q-.374,1.9-.845,4.014t-.889,4.157q-.417,2.039-.854,4-.809,3.431-2.035,8.072T28.055-25.38q-1.623,5.33-3.609,10.722T20.206-4.253A74.381,74.381,0,0,1,15.49,4.7L3.959.1A63.863,63.863,0,0,0,9.244-8.463q2.431-4.693,4.431-9.644t3.569-9.782q1.569-4.831,2.693-8.982T21.7-44.046q1.12-5.584,1.742-10.615a62.193,62.193,0,0,0,.489-9.466Zm27.583,7.7a66.969,66.969,0,0,1,3.9,6.508q2.053,3.841,4,8.121t3.533,8.249q1.587,3.969,2.484,6.832L67.292-20.147A75.256,75.256,0,0,0,65.186-27.7q-1.359-4.116-3.123-8.356A87.339,87.339,0,0,0,58.241-44.1a42.688,42.688,0,0,0-4.209-6.468ZM3.614-46.663q2.241.151,4.447.116t4.518-.116q1.965-.08,4.769-.28t5.955-.444q3.151-.244,6.328-.524t5.9-.444q2.724-.164,4.521-.164a18.891,18.891,0,0,1,7.767,1.481,10.954,10.954,0,0,1,5.206,4.962A19.686,19.686,0,0,1,54.92-32.7q0,4.657-.409,10.2A93.684,93.684,0,0,1,53.134-11.87,32.853,32.853,0,0,1,50.414-3.3a11.632,11.632,0,0,1-5.393,5.917A18.525,18.525,0,0,1,36.9,4.27a40.085,40.085,0,0,1-4.947-.329q-2.636-.329-4.752-.8l-1.9-11.629q1.555.418,3.426.813t3.614.627a22.086,22.086,0,0,0,2.729.231,7.441,7.441,0,0,0,3.408-.729A5.318,5.318,0,0,0,40.8-10.05a21.734,21.734,0,0,0,1.759-5.721,74.551,74.551,0,0,0,1.013-7.771q.337-4.181.337-7.976a9.313,9.313,0,0,0-.844-4.535,4.114,4.114,0,0,0-2.533-1.923,15.563,15.563,0,0,0-4.186-.479q-1.741,0-4.789.28t-6.505.644q-3.457.364-6.421.76t-4.608.627q-1.824.292-4.634.671t-4.731.752ZM62.525-66a38.9,38.9,0,0,1,2.2,3.458q1.164,2.027,2.262,4.031t1.835,3.479l-7.019,2.971q-.791-1.67-1.844-3.639t-2.156-3.969a31.224,31.224,0,0,0-2.222-3.511ZM72.18-69.72q1.049,1.511,2.262,3.542t2.346,4q1.133,1.964,1.791,3.351L71.631-55.86q-1.218-2.506-2.986-5.653a55.651,55.651,0,0,0-3.4-5.387ZM85.331-55.464q2.382-.08,4.65-.2t3.4-.2q2.641-.231,6.277-.56t8.066-.706q4.431-.378,9.474-.791t10.564-.894q4.07-.329,8.284-.609t8.033-.511q3.819-.231,6.654-.311l.071,11.381q-2.115-.009-4.9.071t-5.546.258a31.272,31.272,0,0,0-4.969.684,18.646,18.646,0,0,0-6.4,2.975,24.386,24.386,0,0,0-5.274,5.113,24.462,24.462,0,0,0-3.542,6.455,20.429,20.429,0,0,0-1.276,7.074,15.691,15.691,0,0,0,1.306,6.588,14.144,14.144,0,0,0,3.674,4.9,21.06,21.06,0,0,0,5.562,3.394,34.429,34.429,0,0,0,6.954,2.08,58.228,58.228,0,0,0,7.875.947L140.113,3.878a50.414,50.414,0,0,1-10.038-1.7,40.977,40.977,0,0,1-8.992-3.646,29.745,29.745,0,0,1-7.244-5.583A24.458,24.458,0,0,1,109-14.526a24.184,24.184,0,0,1-1.743-9.359A29.562,29.562,0,0,1,109-34.234a33.806,33.806,0,0,1,4.295-8.2,28.779,28.779,0,0,1,4.986-5.469q-2.167.249-5.144.582t-6.445.746q-3.469.413-7.041.9t-6.976,1.08q-3.4.591-6.23,1.214Zm54.075,13.873q1.022,1.414,2.191,3.374t2.271,3.906q1.1,1.946,1.848,3.519l-6.582,2.9q-1.556-3.414-2.907-5.879a52.29,52.29,0,0,0-3.253-5.142Zm8.988-3.753q1.031,1.414,2.276,3.3t2.422,3.8q1.178,1.911,1.995,3.412l-6.512,3.114q-1.706-3.344-3.128-5.7t-3.4-5.039Zm24.42-12.806q8.917,1.031,16.232,1.223t13.732-.235a95.918,95.918,0,0,0,10.709-1.382,95.04,95.04,0,0,0,10.2-2.529l1.406,10.1a95.155,95.155,0,0,1-9.58,2.142q-5.134.889-10.46,1.306-6.212.426-14.284.386t-17.362-.9Zm-1.4,16.864q7.335.649,13.971.884t12.462.027q5.826-.209,10.662-.635A85.007,85.007,0,0,0,219.8-42.623q4.622-1.044,8.214-2.076l1.753,10.454q-3.673.88-8.01,1.657t-9.181,1.346q-5.085.5-11.77.747t-14.072.129q-7.388-.12-14.731-.529Zm26.505-13.708q-.605-2.356-1.365-4.682T194.9-64.536l11.851-1.272q.534,3.947,1.28,7.556t1.693,6.924q.946,3.316,1.969,6.516.924,2.658,2.475,6.142t3.391,6.929q1.84,3.444,3.591,6.163a26.426,26.426,0,0,0,1.725,2.255,26.8,26.8,0,0,0,2.027,2.1L219.645-13.2q-2.24-.435-5.672-.911t-7.086-.9q-3.654-.427-6.651-.738l.88-8.416q2.282.186,5.037.417t4.469.408a101.018,101.018,0,0,1-5.35-10.386q-2.195-5-3.625-9.219-.96-2.854-1.591-4.822t-1.1-3.634Q198.484-53.065,197.924-54.994Zm-10.111,32.68a29.356,29.356,0,0,0-2.529,4.071,10.171,10.171,0,0,0-1.089,4.711,6.219,6.219,0,0,0,4.026,6.1q4.026,1.794,11.559,1.794,5.663,0,10.881-.471t9.476-1.28L219.5,3.852q-4.16.649-9.5,1.076t-10.2.427a50.738,50.738,0,0,1-13.939-1.7,19.182,19.182,0,0,1-9.175-5.312,14.088,14.088,0,0,1-3.414-9.456,20.5,20.5,0,0,1,1.044-7.2,56.478,56.478,0,0,1,2.538-6.078Zm67.792-39.2q1.751.223,3.8.334t3.91.111q1.271,0,3.8-.044l5.683-.1q3.155-.053,6.305-.142t5.71-.213q2.56-.124,3.974-.2,2.686-.231,4.266-.454a17.3,17.3,0,0,0,2.352-.454l5.587,7.856q-1.441.916-2.931,1.814t-2.939,1.983q-1.645,1.12-3.813,2.786T286.819-44.7q-2.323,1.874-4.53,3.636t-4.01,3.166a22.353,22.353,0,0,1,3.368-.563q1.557-.128,3.226-.128a27.767,27.767,0,0,1,12.321,2.672,22.3,22.3,0,0,1,8.7,7.268,17.955,17.955,0,0,1,3.219,10.561,21.934,21.934,0,0,1-3.164,11.53A22.034,22.034,0,0,1,296.3,1.825q-6.489,3.13-16.546,3.13a29.9,29.9,0,0,1-10.144-1.641,17.06,17.06,0,0,1-7.256-4.695,10.652,10.652,0,0,1-2.677-7.261,11.752,11.752,0,0,1,1.881-6.368,13.889,13.889,0,0,1,5.269-4.824,16.091,16.091,0,0,1,7.791-1.836,18.711,18.711,0,0,1,9.409,2.2,15.362,15.362,0,0,1,5.934,5.925,16.887,16.887,0,0,1,2.125,8.2L281.735-4.059a11.025,11.025,0,0,0-1.979-6.667,6.067,6.067,0,0,0-5.079-2.527,4.858,4.858,0,0,0-3.352,1.088A3.224,3.224,0,0,0,270.1-9.719,3.815,3.815,0,0,0,272.15-6.4a10.02,10.02,0,0,0,5.386,1.284,33.868,33.868,0,0,0,11.176-1.573,13.4,13.4,0,0,0,6.6-4.536,11.575,11.575,0,0,0,2.159-7.006,9.4,9.4,0,0,0-2.155-6.153,13.911,13.911,0,0,0-5.839-4.065,22.46,22.46,0,0,0-8.234-1.439,27.7,27.7,0,0,0-8.341,1.205,30.011,30.011,0,0,0-7.218,3.37,43.135,43.135,0,0,0-6.523,5.165,87.5,87.5,0,0,0-6.189,6.581l-8.044-8.319q2.026-1.617,4.666-3.772t5.416-4.479q2.777-2.324,5.283-4.43t4.258-3.546q1.68-1.36,3.871-3.115t4.487-3.647q2.3-1.892,4.376-3.611t3.527-3.007q-1.209.009-3,.093t-3.845.142q-2.056.058-4.138.146t-3.9.209q-1.821.12-3.092.2-1.68.08-3.566.263t-3.3.414Zm98.257,40.59L351.6-47.246l-.428-12.594h14.448L365.2-47.246l-2.26,26.319ZM358.4.855A7.381,7.381,0,0,1,352.924-1.3a7.452,7.452,0,0,1-2.139-5.475A7.21,7.21,0,0,1,352.96-12.2a7.513,7.513,0,0,1,5.44-2.1,7.513,7.513,0,0,1,5.44,2.1,7.21,7.21,0,0,1,2.175,5.421A7.387,7.387,0,0,1,363.84-1.3,7.412,7.412,0,0,1,358.4.855Z" transform="translate(4036.586 1246.563)"/>
  </g>
</svg>
