<svg xmlns="http://www.w3.org/2000/svg" width="104.417" height="94.361" viewBox="0 0 104.417 94.361">
  <g id="グループ_18906" data-name="グループ 18906" transform="translate(-14161.457 -6697.029)">
    <path id="パス_33077" data-name="パス 33077" d="M28-29.4H14.95l-.65,4.15q.9-.1,1.65-.175T17.5-25.5a13.89,13.89,0,0,1,5.3,1A12.588,12.588,0,0,1,27-21.75a12.588,12.588,0,0,1,2.75,4.2,14.024,14.024,0,0,1,1,5.35,13.03,13.03,0,0,1-1.125,5.5A11.852,11.852,0,0,1,26.45-2.525a14.312,14.312,0,0,1-5,2.65,21.825,21.825,0,0,1-6.55.925A24.887,24.887,0,0,1,8.425.225,20.985,20.985,0,0,1,2.65-2.3L4.1-11.5A20.126,20.126,0,0,0,9.2-8.225,12.471,12.471,0,0,0,14.15-7.1,6.706,6.706,0,0,0,18.9-8.725a5.272,5.272,0,0,0,1.75-4.025,5.358,5.358,0,0,0-2.35-4.525A10.145,10.145,0,0,0,12.15-19a17.143,17.143,0,0,0-3.5.375A16.729,16.729,0,0,0,5.1-17.45L8.25-37.7H28Z" transform="translate(14196.328 6768)" fill="#454545"/>
    <g id="グループ_18890" data-name="グループ 18890" transform="translate(13450.324 6568.226)">
      <path id="パス_32044" data-name="パス 32044" d="M809.975,186.386a11.352,11.352,0,0,0-.964,1.829c-.283.593-.529,1.176-.823,1.726a5.036,5.036,0,0,1-2.738,2.42,44.789,44.789,0,0,0,2.337-8.561,6.87,6.87,0,0,0,3.657-.951,5.893,5.893,0,0,0,1.624-1.527,8.162,8.162,0,0,0,1.1-2.421c.106-.439.178-1.508.371-2.612a5.391,5.391,0,0,1,.988-2.846c-3.338.408-4.147,2.022-4.737,3.556a11.549,11.549,0,0,0-.525,1.917c-.141.615-.251,1.212-.411,1.791a4.951,4.951,0,0,1-2.024,2.851,43.747,43.747,0,0,0,.548-5.656c.038-1.028.035-2.053,0-3.076a6.722,6.722,0,0,0,3.22-1.717,5.941,5.941,0,0,0,1.2-1.794,7.821,7.821,0,0,0,.526-2.509c.025-.436-.145-1.449-.19-2.523a5.282,5.282,0,0,1,.346-2.888c-3.054,1.153-3.44,2.829-3.7,4.4a35.933,35.933,0,0,0-.109,3.674,4.944,4.944,0,0,1-1.307,3.116,45.135,45.135,0,0,0-1.141-8.573,6.586,6.586,0,0,0,2.63-2.343,5.907,5.907,0,0,0,.742-1.959,7.61,7.61,0,0,0-.035-2.471c-.066-.415-.436-1.323-.7-2.316a5.144,5.144,0,0,1-.273-2.783c-2.593,1.783-2.612,3.435-2.533,4.972a35.187,35.187,0,0,0,.659,3.469,4.837,4.837,0,0,1-.551,3.193,44,44,0,0,0-3.477-9.546,1.718,1.718,0,0,0,.742-.628c.392-.6.537-1.728-.648-3.6a16.146,16.146,0,0,0-4.412-4.056,35.53,35.53,0,0,1-3.02-2.162c-.835-.635-1.375-1.124-1.375-1.124s.468.568,1.053,1.422a12.741,12.741,0,0,1,1.585,3.248,40.7,40.7,0,0,0,1.995,5.185c.938,1.732,1.83,2.2,2.551,2.231a1.838,1.838,0,0,0,.918-.213,43.236,43.236,0,0,1,3.412,9.356,5.515,5.515,0,0,1-2.02-2.306,12.5,12.5,0,0,0-1.574-2.834c-.881-1.074-2.189-1.968-5.09-.955a3.031,3.031,0,0,1,1.627,1.477c.392.692.688,1.4.855,1.68a6.422,6.422,0,0,0,2.89,2.527,9.2,9.2,0,0,0,3.385.691,44.435,44.435,0,0,1,1.12,8.4A5.608,5.608,0,0,1,806,171.85a12.789,12.789,0,0,0-1.106-3.164c-.713-1.242-1.889-2.36-5.034-1.795a3.071,3.071,0,0,1,1.4,1.769c.277.769.452,1.541.574,1.855a6.58,6.58,0,0,0,2.5,3.067,9.325,9.325,0,0,0,3.36,1.268c.032,1.007.034,2.017,0,3.029a43.436,43.436,0,0,1-.538,5.555,5.855,5.855,0,0,1-1.267-3.1c-.074-.55-.1-1.1-.148-1.668a7.191,7.191,0,0,0-.412-1.747c-.536-1.387-1.495-2.717-4.842-2.666a3.138,3.138,0,0,1,1.126,2.037c.146.83.169,1.647.255,1.988a6.046,6.046,0,0,0,.765,2,6.3,6.3,0,0,0,1.241,1.548,9.53,9.53,0,0,0,3.236,1.863,44.149,44.149,0,0,1-2.286,8.393,5.98,5.98,0,0,1-.724-3.384c.026-.572.1-1.137.156-1.721a7.572,7.572,0,0,0-.1-1.845c-.315-1.5-1.032-3-4.493-3.528a3.094,3.094,0,0,1,.791,2.249c.007.863-.12,1.692-.1,2.051a6.819,6.819,0,0,0,1.4,3.954,9.681,9.681,0,0,0,2.968,2.468,44.616,44.616,0,0,1-3.472,7.074c-.164.266-.346.518-.515.781a6.061,6.061,0,0,1-.105-3.582,13.285,13.285,0,0,0,.715-3.61c-.033-1.58-.513-3.218-3.945-4.38a3.149,3.149,0,0,1,.392,2.412c-.16.868-.413,1.7-.486,2.051-.442,3.06,1.032,5.488,3.285,7.327a45.343,45.343,0,0,1-5.582,6.963,6.315,6.315,0,0,1,.557-3.67l.813-1.653a6.353,6.353,0,0,0,.6-1.864,3.864,3.864,0,0,0-.28-2.507,6.755,6.755,0,0,0-2.941-2.662c.808,1.378-.637,3.808-.926,4.49-1.028,3.009.012,5.758,1.991,8.055a44.052,44.052,0,0,1-7.005,5.765,7.216,7.216,0,0,1,.347-1.949,7.5,7.5,0,0,1,.928-1.7,13.166,13.166,0,0,0,2.109-3.282c.574-1.573.673-3.375-2.33-5.854.607,1.588-1.383,3.691-1.767,4.365a7.059,7.059,0,0,0-.845,2.243,6.914,6.914,0,0,0-.1,2.243,10.294,10.294,0,0,0,1.453,4.075c-.832.543-1.679,1.061-2.546,1.544a41.375,41.375,0,0,1-5.663,2.658,6.836,6.836,0,0,1,.76-1.9,6.264,6.264,0,0,1,1.274-1.532,13.8,13.8,0,0,0,2.771-2.9c.876-1.49,1.319-3.264-1.259-6.378a3.259,3.259,0,0,1-.99,2.45c-.634.711-1.359,1.3-1.628,1.59-2.18,2.545-2.244,5.694-1.144,8.758a48.522,48.522,0,0,1-4.616,1.512,44.639,44.639,0,0,1-22.474,0c-1.6-.434-3.137-.949-4.62-1.513,1.1-3.064,1.036-6.213-1.145-8.758-.268-.285-.993-.879-1.628-1.59a3.263,3.263,0,0,1-.99-2.45c-2.577,3.114-2.134,4.888-1.258,6.378a13.791,13.791,0,0,0,2.77,2.9,6.265,6.265,0,0,1,1.274,1.532,6.777,6.777,0,0,1,.76,1.9A41.349,41.349,0,0,1,741.6,215c-.866-.483-1.712-1-2.543-1.542a10.31,10.31,0,0,0,1.453-4.075,6.972,6.972,0,0,0-.1-2.243,7.061,7.061,0,0,0-.845-2.243c-.385-.674-2.375-2.777-1.767-4.365-3,2.479-2.9,4.281-2.33,5.854a13.169,13.169,0,0,0,2.109,3.282,7.459,7.459,0,0,1,.927,1.7,7.214,7.214,0,0,1,.347,1.95,44.147,44.147,0,0,1-7-5.766c1.98-2.3,3.02-5.046,1.992-8.055-.29-.682-1.735-3.112-.927-4.49a6.75,6.75,0,0,0-2.94,2.662,3.871,3.871,0,0,0-.281,2.507,6.325,6.325,0,0,0,.6,1.864c.278.565.543,1.106.813,1.653a6.324,6.324,0,0,1,.557,3.67,45.193,45.193,0,0,1-5.582-6.964c2.253-1.839,3.727-4.266,3.285-7.326-.074-.354-.326-1.183-.486-2.051a3.14,3.14,0,0,1,.392-2.412c-3.433,1.162-3.912,2.8-3.946,4.38a13.25,13.25,0,0,0,.716,3.61,6.065,6.065,0,0,1-.1,3.581c-.169-.262-.35-.514-.514-.779a44.548,44.548,0,0,1-3.473-7.075,9.682,9.682,0,0,0,2.968-2.468,6.819,6.819,0,0,0,1.4-3.954c.021-.359-.105-1.188-.1-2.051a3.094,3.094,0,0,1,.791-2.249c-3.46.527-4.177,2.023-4.492,3.528a7.626,7.626,0,0,0-.1,1.845c.052.584.131,1.149.156,1.721a5.977,5.977,0,0,1-.723,3.383,44.12,44.12,0,0,1-2.286-8.392,9.546,9.546,0,0,0,3.236-1.863,6.278,6.278,0,0,0,1.24-1.548,6.044,6.044,0,0,0,.766-2c.085-.341.109-1.158.255-1.988a3.137,3.137,0,0,1,1.125-2.037c-3.346-.051-4.3,1.279-4.842,2.666a7.285,7.285,0,0,0-.412,1.747c-.051.567-.073,1.118-.148,1.668a5.853,5.853,0,0,1-1.266,3.1,43.469,43.469,0,0,1-.538-5.556c-.037-1.012-.034-2.021,0-3.028a9.325,9.325,0,0,0,3.36-1.268,6.574,6.574,0,0,0,2.5-3.067c.121-.314.3-1.086.573-1.855a3.073,3.073,0,0,1,1.4-1.769c-3.145-.565-4.321.553-5.035,1.795a12.828,12.828,0,0,0-1.106,3.164A5.6,5.6,0,0,1,719,174.569a44.509,44.509,0,0,1,1.12-8.4,9.208,9.208,0,0,0,3.386-.691,6.421,6.421,0,0,0,2.89-2.527c.166-.281.463-.988.855-1.68a3.024,3.024,0,0,1,1.627-1.477c-2.9-1.013-4.209-.119-5.091.955a12.453,12.453,0,0,0-1.573,2.834,5.511,5.511,0,0,1-2.021,2.306,43.184,43.184,0,0,1,3.413-9.356,1.836,1.836,0,0,0,.917.213c.721-.03,1.613-.5,2.552-2.231a40.988,40.988,0,0,0,1.995-5.185,12.741,12.741,0,0,1,1.585-3.248c.585-.854,1.053-1.422,1.053-1.422s-.54.489-1.375,1.124a35.39,35.39,0,0,1-3.021,2.162,16.159,16.159,0,0,0-4.411,4.056c-1.186,1.87-1.041,2.995-.648,3.6a1.712,1.712,0,0,0,.742.628,43.985,43.985,0,0,0-3.477,9.546,4.845,4.845,0,0,1-.552-3.193,34.874,34.874,0,0,0,.66-3.469c.078-1.537.06-3.189-2.533-4.972a5.136,5.136,0,0,1-.274,2.783c-.263.993-.633,1.9-.7,2.316a7.608,7.608,0,0,0-.034,2.471,5.884,5.884,0,0,0,.742,1.959,6.578,6.578,0,0,0,2.63,2.343,45.052,45.052,0,0,0-1.141,8.573,4.939,4.939,0,0,1-1.307-3.116,36.538,36.538,0,0,0-.109-3.674c-.264-1.574-.651-3.25-3.7-4.4a5.283,5.283,0,0,1,.345,2.888c-.045,1.074-.214,2.087-.19,2.523a7.845,7.845,0,0,0,.527,2.509,5.9,5.9,0,0,0,1.2,1.794,6.722,6.722,0,0,0,3.22,1.717c-.032,1.023-.035,2.048,0,3.075a43.756,43.756,0,0,0,.548,5.658,4.948,4.948,0,0,1-2.024-2.852c-.161-.579-.27-1.176-.412-1.791a11.548,11.548,0,0,0-.524-1.917c-.59-1.534-1.4-3.148-4.737-3.556a5.39,5.39,0,0,1,.987,2.846c.194,1.1.266,2.173.371,2.612a8.186,8.186,0,0,0,1.1,2.421,5.88,5.88,0,0,0,1.624,1.527,6.87,6.87,0,0,0,3.657.951,44.793,44.793,0,0,0,2.337,8.561,5.039,5.039,0,0,1-2.739-2.42c-.293-.55-.54-1.133-.823-1.726a11.344,11.344,0,0,0-.963-1.829c-.924-1.425-2.131-2.885-5.576-2.483a5.728,5.728,0,0,1,1.634,2.675c.439,1.086.758,2.163.968,2.585a8.139,8.139,0,0,0,1.666,2.2,6.008,6.008,0,0,0,1.985,1.155,7.091,7.091,0,0,0,3.935.055,45.179,45.179,0,0,0,3.526,7.183c.173.282.366.55.545.828a5.163,5.163,0,0,1-3.347-1.8c-.848-.981-1.524-2.129-2.612-3.2-1.265-1.227-2.8-2.444-6.185-1.178a5.876,5.876,0,0,1,2.266,2.338c.7,1,1.241,2.04,1.58,2.406,2.735,3.213,5.852,2.953,8.427,1.631a46.021,46.021,0,0,0,5.7,7.1,5.187,5.187,0,0,1-3.8-1.044,19.41,19.41,0,0,1-1.593-1.3,17.206,17.206,0,0,0-1.781-1.334c-1.58-.934-3.362-1.852-6.48.278,1.778.256,4.1,3.352,4.974,3.93a7.571,7.571,0,0,0,2.629,1.353,5.571,5.571,0,0,0,2.425.164,7.53,7.53,0,0,0,3.779-1.887A44.705,44.705,0,0,0,738.5,213.9a5.13,5.13,0,0,1-2.022.329,5.581,5.581,0,0,1-2.039-.5c-1.294-.536-2.464-1.372-4.017-1.9-1.79-.6-3.82-1.105-6.422,1.8,1.8-.118,4.944,2.432,5.919,2.858a8.456,8.456,0,0,0,2.964.761,6.161,6.161,0,0,0,2.474-.414,7.728,7.728,0,0,0,3.328-2.812c.843.55,1.7,1.075,2.581,1.565a42.062,42.062,0,0,0,5.774,2.709,5.473,5.473,0,0,1-1.98.843,6.623,6.623,0,0,1-2.168-.024c-1.422-.26-2.807-.819-4.492-1-1.933-.207-4.118-.238-6.011,3.33a6.476,6.476,0,0,1,3.582.494c1.31.415,2.524.937,3.074,1.029,4.656.908,7.021-1.6,8.206-4.594,1.5.571,3.055,1.093,4.68,1.532a46.671,46.671,0,0,0,11.407,1.46l0-.342v.342a46.7,46.7,0,0,0,11.412-1.461,49.1,49.1,0,0,0,4.675-1.531c1.185,3,3.55,5.5,8.207,4.594.549-.092,1.764-.614,3.074-1.029a6.476,6.476,0,0,1,3.582-.494c-1.894-3.568-4.078-3.537-6.011-3.33-1.685.181-3.071.74-4.492,1a6.623,6.623,0,0,1-2.168.024,5.465,5.465,0,0,1-1.98-.843,41.949,41.949,0,0,0,5.77-2.707c.88-.491,1.74-1.016,2.585-1.567a7.722,7.722,0,0,0,3.328,2.812,6.161,6.161,0,0,0,2.474.414,8.452,8.452,0,0,0,2.963-.761c.976-.426,4.117-2.976,5.919-2.858-2.6-2.9-4.632-2.4-6.422-1.8-1.552.526-2.722,1.362-4.016,1.9a5.585,5.585,0,0,1-2.04.5,5.132,5.132,0,0,1-2.022-.329,44.759,44.759,0,0,0,7.131-5.867,7.542,7.542,0,0,0,3.779,1.887,5.57,5.57,0,0,0,2.425-.164,7.571,7.571,0,0,0,2.629-1.353c.87-.578,3.2-3.674,4.974-3.93-3.117-2.13-4.9-1.212-6.479-.278a17.206,17.206,0,0,0-1.781,1.334,19.422,19.422,0,0,1-1.594,1.3,5.186,5.186,0,0,1-3.8,1.044,45.966,45.966,0,0,0,5.7-7.1c2.575,1.322,5.692,1.582,8.427-1.631.338-.366.879-1.4,1.579-2.406a5.882,5.882,0,0,1,2.266-2.338c-3.383-1.266-4.919-.049-6.185,1.178-1.087,1.069-1.763,2.217-2.612,3.2a5.16,5.16,0,0,1-3.346,1.8c.179-.279.372-.546.546-.829a45.122,45.122,0,0,0,3.525-7.182,7.087,7.087,0,0,0,3.934-.055,5.988,5.988,0,0,0,1.985-1.155,8.12,8.12,0,0,0,1.667-2.2c.21-.422.529-1.5.968-2.585a5.727,5.727,0,0,1,1.633-2.675C812.1,183.5,810.9,184.961,809.975,186.386Z" fill="#454545"/>
      <g id="グループ_16078" data-name="グループ 16078">
        <path id="パス_32045" data-name="パス 32045" d="M773.819,136.415l-7.24-1.052-3.237-6.56-3.238,6.56-7.239,1.052,5.238,5.106-1.236,7.21,6.475-3.4,6.475,3.4-1.237-7.21Zm-18.2.893,5.339-.775,2.388-4.838,2.387,4.838,1.732.251a19.7,19.7,0,0,1-8.633,8.083l.65-3.793Z" fill="#454545"/>
        <path id="パス_32046" data-name="パス 32046" d="M747.79,141.607l-3.779.785-2.789-2.668-.421,3.836-3.4,1.828,3.518,1.586.688,3.8,2.6-2.856,3.824.519-1.914-3.351Z" fill="#454545"/>
        <path id="パス_32047" data-name="パス 32047" d="M780.569,145.083l-1.914,3.351,3.824-.519,2.6,2.856.688-3.8,3.518-1.586-3.4-1.828-.421-3.836-2.789,2.668-3.779-.785Z" fill="#454545"/>
      </g>
    </g>
  </g>
</svg>
