<svg xmlns="http://www.w3.org/2000/svg" xmlns:xlink="http://www.w3.org/1999/xlink" width="1882.828" height="359.757" viewBox="0 0 1882.828 359.757">
  <defs>
    <linearGradient id="linear-gradient" x1="0.5" x2="0.5" y2="1" gradientUnits="objectBoundingBox">
      <stop offset="0" stop-color="#edd14c"/>
      <stop offset="1" stop-color="#d1ac3a"/>
    </linearGradient>
  </defs>
  <g id="グループ_9213" data-name="グループ 9213" transform="translate(-327.586 -598.123)">
    <g id="グループ_9212" data-name="グループ 9212" transform="translate(0 514)">
      <g id="グループ_9210" data-name="グループ 9210" transform="translate(-93.416 -21.875)">
        <path id="パス_24182" data-name="パス 24182" d="M69.12-84.16v24H48.8a196.24,196.24,0,0,1-21.44-.8v24c6.88-.64,13.44-.96,21.92-.96H69.12v26.08H34.08c-9.28,0-17.28-.32-25.44-1.12v24.8c9.28-.8,17.28-1.12,26.4-1.12h93.28c8.8,0,15.52.32,24.64,1.12v-24.8a235.917,235.917,0,0,1-25.44,1.12H94.56V-37.92h23.68c8.48,0,15.04.32,22.24.96V-61.12a220.026,220.026,0,0,1-22.4.96H94.56v-24H123.2c8.64,0,16.16.32,24.16.96v-24.16c-7.68.64-15.52.96-24.96.96H94.56v-7.36c0-10.4.16-15.84.96-21.44H68.16a180.426,180.426,0,0,1,.96,21.44v7.36H49.92c1.12-3.52,1.92-5.92,2.72-9.12,1.28-4.32,1.28-4.32,3.2-9.76L30.88-131.2c-1.28,19.68-13.28,44.96-28,59.36,7.52,7.68,9.92,10.56,16,20.8,8.8-9.92,15.36-20,21.92-33.12ZM300-86.4c-1.44,8.96-4.64,18.08-10.72,29.92-2.24-10.24-3.68-23.2-4.48-37.28h23.84a201.02,201.02,0,0,1,20.96.96v-24.16c-4.48.64-7.36.8-15.84.8L323.2-124a116.8,116.8,0,0,0-20.32-14.88l-15.36,14.24a96.549,96.549,0,0,1,12.8,8.48H284.16v-7.52a81.315,81.315,0,0,1,.8-11.52H258.88c.48,3.52.64,5.76.96,19.04H214.56c-8.48,0-15.2-.32-21.76-.8a206.5,206.5,0,0,1,.96,21.12c0,29.28-1.6,50.72-4.64,64.96-2.4,10.88-4.96,17.12-10.56,26.24,7.68,6.24,11.52,10.24,19.2,19.84,7.36-10.72,11.68-21.92,14.88-37.6a103.108,103.108,0,0,1,3.68,17.6c2.56.16,4.16.16,5.76.16A79.2,79.2,0,0,0,238.72-6.4a94.862,94.862,0,0,1,11.84,19.2c13.76-8,22.56-14.56,32-23.84C293.6,4.8,303.52,12.64,312.64,12.64c9.76,0,16-10.4,20.16-34.4a85.754,85.754,0,0,1-18.4-14.4c-1.6,11.52-2.4,15.52-4.48,20.64-4.16-3.52-6.72-7.04-11.04-14.56a198.068,198.068,0,0,0,21.44-40,75,75,0,0,1,3.04-7.68Zm-82.4,9.28c.16-5.28.16-7.84.16-16.64H260.8c1.76,28.16,4.48,43.2,10.88,61.44a117.565,117.565,0,0,1-21.92,17.28c2.72-5.92,4.32-17.12,4.96-33.28.96-24.8.96-24.8,1.28-29.28a88.1,88.1,0,0,1-10.56.48Zm14.08,21.76c-.48,15.84-.96,21.92-2.4,25.12-1.12,2.56-2.4,3.2-6.24,3.2A54.947,54.947,0,0,1,213.6-28c1.28-8.48,2.24-16.48,3.04-27.36ZM490.08,4.96C488,.48,485.44-6.08,482.4-14.56l-34.72-96.32a127.68,127.68,0,0,1-5.44-17.28H400.48c-.8,4.64-2.24,9.44-5.12,17.28L360.8-14.56C356.96-3.68,355.52.16,353.12,4.96h37.44a92.206,92.206,0,0,1,4-17.28l4.32-13.6h45.6l4.32,13.6a129.94,129.94,0,0,1,3.84,17.28ZM436.64-52.8H406.56l14.88-48Zm80.48-75.36c.96,7.04,1.28,11.68,1.28,23.68v85.76c0,10.72-.32,17.44-1.28,23.68h35.2c-.96-6.72-1.28-12.64-1.28-23.68v-85.76c0-11.68.32-17.12,1.28-23.68ZM731.2-13.6c-24.96-23.84-31.52-29.44-50.88-43.36,8.96-12,15.04-23.2,23.52-43.2,2.4-5.44,3.36-7.04,5.76-9.44L695.52-124c-4.32,1.6-5.28,1.6-12.8,1.76l-54.72.8c-4.64.16-7.68.16-8.96.16a118.534,118.534,0,0,1-16.8-1.12l.8,28.48c6.56-.96,11.68-1.28,25.44-1.6l41.6-.64c-7.52,18.56-17.28,32.8-32.16,47.04C623.36-35.2,606.88-24.8,586.08-16.8,595.04-7.52,598.4-2.72,604,8.48c24.8-12,43.84-26.08,58.88-43.84A257.244,257.244,0,0,1,708.8,10.08Zm76.64-121.76c-.8,5.6-2.72,10.88-6.88,19.2-10.4,20.48-23.04,35.04-42.56,48.8,10.56,6.4,14.56,9.92,22.72,19.2,15.2-12,25.92-23.68,36.32-40.16L860-88.8c-5.92,18.4-14.88,33.44-26.72,45.44-14.08,14.08-30.72,24.32-53.44,32.64,8.96,7.84,13.92,14.08,19.2,24.32,26.24-12,44.32-24.64,58.88-41.28,14.08-16,24.96-36.8,33.12-63.36,2.24-7.2,2.72-8.16,4.64-11.36L882.4-115.52c-3.84,1.44-5.6,1.76-11.84,1.76l-40.16.48c1.12-2.24,1.12-2.24,3.2-6.88q.48-.96,1.44-3.36c.48-.96.8-1.92,1.12-2.4a23.522,23.522,0,0,1,1.92-4ZM934.4-45.6c9.76-.8,15.04-.96,32.96-.96h76.16c18.24,0,25.28.16,32.96.96V-76.48c-10.72,1.12-16.8,1.44-32.8,1.44H967.2c-16.64,0-25.28-.32-32.8-1.44ZM1132.96-128a117.269,117.269,0,0,1,.64,14.72c0,41.44-2.56,61.28-10.08,76.96-4.96,10.56-9.92,17.28-19.04,25.44,10.24,7.2,14.72,11.68,22.88,22.4,10.88-11.52,16.96-20.16,22.24-32,7.68-17.44,10.88-35.2,11.84-68.64,1.12-31.68,1.12-31.68,1.76-37.12Zm45.44-.8a95.089,95.089,0,0,1,.64,12.48v5.76l-.8,94.72c0,6.56-.32,9.28-1.76,13.44L1190.24,12c2.08-1.28,3.36-1.76,7.84-3.36,16.16-5.92,24-10.08,33.6-18.24,12.16-10.4,20.48-22.72,27.68-40.64-9.12-7.04-13.28-11.2-21.28-21.12A81.026,81.026,0,0,1,1225.6-44c-5.44,7.52-10.56,12.16-19.2,17.6l.8-83.84c.16-9.44.32-12,1.28-18.56Zm177.28,28.96h18.08a206.321,206.321,0,0,1,24.96,1.12v-30.56a211.626,211.626,0,0,1-24.96,1.12h-70.08a219.3,219.3,0,0,1-23.84-1.12v30.56A216.528,216.528,0,0,1,1304-99.84h18.88V-19.2a177.474,177.474,0,0,1-1.28,24.16h35.36a182.06,182.06,0,0,1-1.28-24.16Zm132-31.2c-39.36,0-64.64,27.04-64.64,69.28,0,42.4,25.28,69.76,64.48,69.76,38.88,0,64.64-28,64.64-70.24C1552.16-104.16,1527.04-131.04,1487.68-131.04Zm0,111.36c-19.52,0-31.52-16.16-31.52-42.24,0-25.76,12-41.6,31.52-41.6,19.36,0,31.2,15.68,31.2,41.6C1518.88-35.68,1507.04-19.68,1487.68-19.68ZM1618.56,4.96a207.758,207.758,0,0,1-1.28-24.16V-39.68h25.28c31.04,0,49.28-16.96,49.28-45.44,0-27.84-17.44-43.04-49.12-43.04h-35.04c-10.24,0-16-.16-23.52-.48a178.884,178.884,0,0,1,1.28,23.36v86.56a171.542,171.542,0,0,1-1.28,23.68Zm-1.28-71.84v-34.08h23.84c11.52,0,17.76,5.76,17.76,16.8s-6.56,17.28-17.76,17.28Z" transform="translate(421 448.135)"/>
        <path id="パス_14372" data-name="パス 14372" d="M74.681-90.66a28.347,28.347,0,0,0,3.422.253H80.51q9.378,0,15.208-5.576t5.83-14.447q0-8.618-5.449-13.94t-14.067-5.323q-9.125,0-14.7,6.083T61.754-107.9H15.878a82.225,82.225,0,0,1,7.477-26.613,63.746,63.746,0,0,1,14.574-19.643,60.783,60.783,0,0,1,20.784-12.166,79.139,79.139,0,0,1,26.36-4.182,79.438,79.438,0,0,1,25.726,3.929,57.909,57.909,0,0,1,19.77,11.152,48.564,48.564,0,0,1,12.673,17.489,57.258,57.258,0,0,1,4.436,22.938q0,13.687-5.2,22.431A46.66,46.66,0,0,1,127.654-77.48q14.7,4.562,22.938,16.348T158.83-32.11a59.147,59.147,0,0,1-5.576,25.853,58.973,58.973,0,0,1-15.588,20.023A71.856,71.856,0,0,1,113.84,26.692a96.1,96.1,0,0,1-30.289,4.562q-22.051,0-39.793-8.618T15.371-4.737A54.727,54.727,0,0,1,8.907-21.465,87.662,87.662,0,0,1,7.26-38.447H56.431q.507,13.433,7.857,20.4t19.77,6.97q13.18,0,19.263-7.1T109.4-35.659q0-12.42-7.35-18.756a25.906,25.906,0,0,0-17.489-6.337,29.279,29.279,0,0,0-4.816.38q-2.281.38-5.069.887Z" transform="translate(2145 434.5)" fill="url(#linear-gradient)"/>
        <g id="グループ_1123" data-name="グループ 1123" transform="translate(2128.216 137.738)">
          <path id="パス_24163" data-name="パス 24163" d="M303.859,1634.241q.371.016.737.058c.244.03.487.072.723.1a8.5,8.5,0,0,1,1.387.312c.112.035.222.073.333.112s.215.072.321.112q.32.118.624.264a6.322,6.322,0,0,1,1.132.7,12.931,12.931,0,0,0,2.25,1.352,11.562,11.562,0,0,0,1.173.482c.385.14.762.26,1.119.365.177.052.352.1.518.145l.474.1c.3.063.57.112.794.148.449.073.72.1.72.1a15.028,15.028,0,0,1-1.649,1.143c-.453.251-.929.5-1.42.729-.07.031-.14.065-.211.1l-.286.127-.012.005c-.675.262-1.371.513-2.079.717-.718.181-1.441.353-2.159.469a14.608,14.608,0,0,1-2.2.157,13.694,13.694,0,0,1-2.04-.218,12.085,12.085,0,0,1-1.817-.558,6.06,6.06,0,0,1-.811-.387c-.259-.141-.506-.293-.74-.45s-.455-.324-.664-.5c-.1-.087-.2-.175-.3-.264s-.192-.192-.283-.29a7.113,7.113,0,0,1-.929-1.236,6.186,6.186,0,0,1-.853-2.784l-.006-.087.126-.054A14.681,14.681,0,0,1,303.859,1634.241Z" transform="translate(-297.698 -1546.462)" fill="#f5c04b"/>
          <path id="パス_24164" data-name="パス 24164" d="M485.447,1563.641a6.78,6.78,0,0,1-2.983-.708,5.847,5.847,0,0,1-.6-.349,5.375,5.375,0,0,1-.541-.427,5.249,5.249,0,0,1-1.465-2.22l-.028-.077.1-.091a14.827,14.827,0,0,1,2.519-1.794,10.545,10.545,0,0,1,1.336-.684,13.119,13.119,0,0,1,1.353-.539c.459-.138.906-.279,1.355-.377.224-.047.448-.087.67-.117.112-.016.224-.028.334-.038s.217-.028.326-.037a6.607,6.607,0,0,1,1.272,0,5.828,5.828,0,0,1,.611.1,4.537,4.537,0,0,1,.576.145,10.2,10.2,0,0,0,1.159.3c.2.038.4.073.6.1s.4.054.6.066a16.418,16.418,0,0,0,2.269.007c.682-.063,1.276-.157,1.7-.236s.675-.138.675-.138a18.726,18.726,0,0,1-1.22,1.567c-.222.269-.471.51-.721.759s-.512.494-.779.738c-.134.119-.266.244-.407.358l-.426.339c-.286.223-.577.443-.871.656-.148.106-.294.217-.445.316l-.458.29q-.46.285-.92.553a11.925,11.925,0,0,1-3.823,1.405,7.072,7.072,0,0,1-.9.119C486.02,1563.643,485.729,1563.648,485.447,1563.641Z" transform="translate(-468.351 -1473.31)" fill="#f5c04b"/>
          <path id="パス_24165" data-name="パス 24165" d="M644.993,1386.875c-.128.052-.259.1-.387.14a8.138,8.138,0,0,1-1.484.356,4.49,4.49,0,0,1-4.435-1.791l-.044-.061.071-.115a16.2,16.2,0,0,1,3.987-4.5,10.445,10.445,0,0,1,1.132-.8c.192-.119.391-.223.581-.328s.382-.206.574-.293a6.578,6.578,0,0,1,1.159-.412,5.145,5.145,0,0,1,1.122-.176,9.939,9.939,0,0,0,1.119-.1c.189-.028.379-.063.568-.1s.368-.089.551-.138a15.935,15.935,0,0,0,2.057-.722c.6-.276,1.121-.548,1.487-.754s.581-.339.581-.339c-.208.583-.461,1.188-.752,1.8-.073.154-.145.311-.225.462s-.167.3-.253.454c-.172.3-.35.609-.538.913a19.592,19.592,0,0,1-1.227,1.771c-.22.284-.432.576-.669.843s-.469.534-.705.792-.5.534-.753.773-.522.461-.782.672-.521.408-.779.593-.532.337-.794.487-.525.283-.782.4C645.247,1386.763,645.119,1386.821,644.993,1386.875Z" transform="translate(-617.156 -1305.199)" fill="#f5c04b"/>
          <path id="パス_24166" data-name="パス 24166" d="M770.372,1171.905c-.1.084-.206.162-.308.239s-.212.145-.317.213q-.316.2-.628.361a6.037,6.037,0,0,1-1.218.48,4.442,4.442,0,0,1-1.172.127,3.51,3.51,0,0,1-2.022-.705l-.052-.04.035-.129a19.241,19.241,0,0,1,1.063-2.875c.228-.445.439-.9.688-1.321s.516-.824.775-1.22a11.125,11.125,0,0,1,.846-1.094,10.585,10.585,0,0,1,.893-.948,7.949,7.949,0,0,1,.952-.754,4.86,4.86,0,0,1,.973-.531,12.948,12.948,0,0,0,3.637-2.358c.481-.442.887-.855,1.17-1.157s.448-.49.448-.49a22.382,22.382,0,0,1-2.326,7.746,14.683,14.683,0,0,1-2.2,3.3A12.659,12.659,0,0,1,770.372,1171.905Z" transform="translate(-735.225 -1101.848)" fill="#f5c04b"/>
          <path id="パス_24167" data-name="パス 24167" d="M850.945,942.785a7.846,7.846,0,0,1-.92,1.154,5.487,5.487,0,0,1-1.99,1.36,3.2,3.2,0,0,1-1.993.061l-.055-.017v-.127c0-.248.015-.492.026-.738s.023-.5.044-.744c.041-.492.118-.977.2-1.457a13.268,13.268,0,0,1,.3-1.422c.058-.232.135-.459.2-.688s.132-.45.208-.67a12.781,12.781,0,0,1,.509-1.267,10.317,10.317,0,0,1,.579-1.15,8.75,8.75,0,0,1,.685-.991,5.275,5.275,0,0,1,.75-.8c.266-.225.528-.473.784-.736a10.436,10.436,0,0,0,.731-.829A20.619,20.619,0,0,0,852.225,932l.25-.4c.076-.131.145-.257.212-.374.134-.237.247-.452.342-.63.186-.359.291-.579.291-.579a22.209,22.209,0,0,1-.334,7.648c-.071.342-.15.677-.233,1-.042.162-.084.325-.129.483s-.1.312-.153.466a17.761,17.761,0,0,1-.69,1.717A11.489,11.489,0,0,1,850.945,942.785Z" transform="translate(-811.431 -886.639)" fill="#f5c04b"/>
          <path id="パス_24168" data-name="パス 24168" d="M870.843,716.852a12.364,12.364,0,0,1-.4,1.56,10.414,10.414,0,0,1-.561,1.33c-.843,1.614-1.986,2.524-3.221,2.614l-.054,0-.029-.114a16.509,16.509,0,0,1-.459-5.442,12.139,12.139,0,0,1,.154-1.3c.039-.213.078-.421.119-.623s.092-.4.144-.6a9.77,9.77,0,0,1,.385-1.112,5.677,5.677,0,0,1,.5-.956c.188-.288.369-.6.539-.915s.318-.646.464-.977.278-.665.4-.991.221-.642.315-.944c.183-.6.33-1.136.414-1.517s.126-.609.126-.609c.1.229.2.468.292.719s.173.513.254.784.16.548.234.832.131.581.19.88.116.6.167.908.086.62.124.93.07.627.1.939.039.63.055.941c.014.328.022.651.02.969s-.022.632-.042.937A13.094,13.094,0,0,1,870.843,716.852Z" transform="translate(-830.241 -676.983)" fill="#f5c04b"/>
          <path id="パス_24169" data-name="パス 24169" d="M821.743,518.835c-.045.215-.1.419-.154.616s-.128.389-.2.571a5.424,5.424,0,0,1-.5.977,3.406,3.406,0,0,1-1.384,1.251l-.047.021-.054-.091a14.023,14.023,0,0,1-1.691-4.684,11.234,11.234,0,0,1-.163-1.211c-.028-.4-.055-.789-.047-1.174a9.156,9.156,0,0,1,.089-1.115,6.027,6.027,0,0,1,.228-1.017c.1-.318.193-.649.275-.988s.14-.679.195-1.021a17.955,17.955,0,0,0,.209-1.951c.032-.592.039-1.11.038-1.48s-.019-.581-.019-.581a17.5,17.5,0,0,1,2.8,5.676c.087.284.167.569.238.848s.125.566.177.843a13.046,13.046,0,0,1,.2,1.627,13.189,13.189,0,0,1,0,1.515A10.887,10.887,0,0,1,821.743,518.835Z" transform="translate(-784.737 -490.239)" fill="#f5c04b"/>
          <path id="パス_24170" data-name="パス 24170" d="M706.036,361.371l-.036.035-.07-.061a11.458,11.458,0,0,1-2.586-3.576,10.107,10.107,0,0,1-.417-1.023,8.667,8.667,0,0,1-.31-1.026,6.96,6.96,0,0,1-.2-1.993c.02-.314.029-.641.025-.965s-.026-.646-.052-.967a17.313,17.313,0,0,0-.238-1.8c-.1-.536-.208-.995-.288-1.321-.041-.164-.074-.293-.1-.379s-.036-.122-.038-.133a14.22,14.22,0,0,1,3.714,4.108,12.585,12.585,0,0,1,.746,1.351,14.129,14.129,0,0,1,.545,1.363,9.931,9.931,0,0,1,.49,2.607,6.249,6.249,0,0,1-.257,2.2A3.789,3.789,0,0,1,706.036,361.371Z" transform="translate(-676.266 -341.455)" fill="#f5c04b"/>
          <path id="パス_24171" data-name="パス 24171" d="M545.766,251.961l-.074-.031a8.691,8.691,0,0,1-3.1-2.286,8.6,8.6,0,0,1-1.1-1.572,5.818,5.818,0,0,1-.619-1.693,11.169,11.169,0,0,0-.451-1.695,14.922,14.922,0,0,0-.6-1.51c-.411-.88-.772-1.485-.772-1.485a11.505,11.505,0,0,1,4.163,2.424,9.183,9.183,0,0,1,2.759,4.087,4.831,4.831,0,0,1-.176,3.717Z" transform="translate(-523.832 -241.688)" fill="#f5c04b"/>
          <path id="パス_24172" data-name="パス 24172" d="M298.391,1426.21a9.859,9.859,0,0,1,.666-1.286c.063-.1.126-.2.193-.3s.132-.209.2-.311q.2-.307.43-.6c.148-.194.3-.38.464-.562s.324-.353.493-.539a10.3,10.3,0,0,1,1.066-1,9.894,9.894,0,0,1,1.159-.9,10.754,10.754,0,0,1,1.249-.78,20.947,20.947,0,0,1,4.789-2.135s-.071.218-.193.6c-.06.192-.132.426-.215.695-.041.135-.084.279-.131.431l-.151.462c-.1.325-.215.679-.333,1.052s-.236.785-.366,1.18c-.254.8-.512,1.679-.737,2.552a6.151,6.151,0,0,1-.49,1.257,6.75,6.75,0,0,1-.349.6c-.064.1-.129.194-.2.288s-.143.178-.217.265a7.927,7.927,0,0,1-1.012.977,4.485,4.485,0,0,1-.584.408q-.305.189-.628.351a6.912,6.912,0,0,1-5.68.26l-.118-.047,0-.085A8.452,8.452,0,0,1,298.391,1426.21Z" transform="translate(-297.698 -1343.679)" fill="#f5c04b"/>
          <path id="パス_24173" data-name="パス 24173" d="M471.183,1338.793l-.044.609c-.026.389-.057.948-.089,1.625-.042.658-.09,1.431-.122,2.267-.007.211-.017.421-.028.628s-.017.422-.026.637c-.015.429-.022.866-.02,1.3a5.448,5.448,0,0,1-.141,1.316,7.651,7.651,0,0,1-.422,1.305c-.045.107-.093.216-.144.321s-.108.206-.164.307c-.116.2-.24.4-.374.6a6.994,6.994,0,0,1-.91,1.119,8.551,8.551,0,0,1-1.1.948,9.825,9.825,0,0,1-1.247.717,6.4,6.4,0,0,1-2.718.578l-.119,0-.016-.08a8.126,8.126,0,0,1-.079-2.784c.032-.234.073-.464.121-.7s.1-.475.16-.709a11.927,11.927,0,0,1,.452-1.381,16,16,0,0,1,3.121-5.011A22.07,22.07,0,0,1,471.183,1338.793Z" transform="translate(-452.898 -1269.65)" fill="#f5c04b"/>
          <path id="パス_24174" data-name="パス 24174" d="M600.4,1235.592c.058-.239.122-.478.195-.712s.153-.466.234-.7.161-.475.253-.709.19-.461.3-.686.2-.466.317-.693a24.153,24.153,0,0,1,2.765-4.623s.035.209.095.572.157.883.279,1.511.235,1.335.394,2.108c.077.379.159.773.24,1.173s.174.792.273,1.187a5.834,5.834,0,0,1,.177,1.248,7.9,7.9,0,0,1-.089,1.318q-.052.338-.131.681a6.965,6.965,0,0,1-.2.668,10.381,10.381,0,0,1-.558,1.325,7.984,7.984,0,0,1-4.052,3.765l-.108.038-.035-.066a9.26,9.26,0,0,1-.738-5.266,12.805,12.805,0,0,1,.228-1.426C600.294,1236.066,600.349,1235.827,600.4,1235.592Z" transform="translate(-580.878 -1165.342)" fill="#f5c04b"/>
          <path id="パス_24175" data-name="パス 24175" d="M702.6,1101.035a8.756,8.756,0,0,1-2.759,4.773l-.087.073-.047-.047a6.039,6.039,0,0,1-1.262-1.988,9.02,9.02,0,0,1-.39-1.2,11.231,11.231,0,0,1-.263-1.309c-.032-.223-.057-.448-.076-.675s-.032-.463-.048-.691a12.73,12.73,0,0,1,0-1.414,17.949,17.949,0,0,1,.35-2.913,25.818,25.818,0,0,1,1.46-5.142l.215.492c.14.311.342.754.593,1.286.471,1.045,1.134,2.466,1.833,3.754a5.5,5.5,0,0,1,.446,1.072,6.5,6.5,0,0,1,.222,1.22,8.449,8.449,0,0,1,.019,1.333A11.084,11.084,0,0,1,702.6,1101.035Z" transform="translate(-672.44 -1037.005)" fill="#f5c04b"/>
          <path id="パス_24176" data-name="パス 24176" d="M744.23,947.3c-.134-.415-.23-.84-.328-1.279a11.8,11.8,0,0,1-.234-1.353l-.035-.346c-.016-.119-.029-.236-.041-.354-.025-.236-.041-.475-.051-.716a25.713,25.713,0,0,1,.151-5.2l.307.382.358.433c.07.082.144.169.222.264s.154.189.236.29c.331.4.725.871,1.159,1.356.214.237.433.483.657.735s.455.487.691.719a4.54,4.54,0,0,1,.65.82,5.688,5.688,0,0,1,.48,1.026,8.643,8.643,0,0,1,.33,1.194,10.183,10.183,0,0,1,.129,1.306c.009.225.012.454.007.682a6.767,6.767,0,0,1-.054.686,12.561,12.561,0,0,1-.237,1.37,9.81,9.81,0,0,1-.44,1.305c-.086.209-.179.415-.278.614s-.219.387-.337.572l-.062.094-.054-.026a4.723,4.723,0,0,1-1.6-1.342,8.367,8.367,0,0,1-1.186-2.037C744.522,948.118,744.356,947.713,744.23,947.3Z" transform="translate(-715.388 -894.164)" fill="#f5c04b"/>
          <path id="パス_24177" data-name="パス 24177" d="M735.875,787.541a4.522,4.522,0,0,1,.265.506,8.947,8.947,0,0,1,.449,6.264l-.033.1-.055-.005a5.083,5.083,0,0,1-3.287-2.084,12.954,12.954,0,0,1-2.226-4.372,23.463,23.463,0,0,1-1.048-4.761s.134.091.368.246.552.375.951.63l.641.407c.221.145.458.293.7.443s.5.3.763.447.516.292.781.424a3.676,3.676,0,0,1,.763.527,4.491,4.491,0,0,1,.667.764C735.68,787.226,735.779,787.38,735.875,787.541Z" transform="translate(-702.698 -749.066)" fill="#f5c04b"/>
          <path id="パス_24178" data-name="パス 24178" d="M684.761,646.678l-.049.014a3.443,3.443,0,0,1-1.717.017,4.748,4.748,0,0,1-.861-.293c-.141-.065-.281-.136-.42-.213s-.284-.159-.423-.248a6.84,6.84,0,0,1-.814-.609,8.642,8.642,0,0,1-.784-.738c-.243-.271-.5-.552-.734-.86-.119-.152-.227-.314-.344-.475s-.228-.328-.336-.5a19.423,19.423,0,0,1-2.038-3.971s.14.04.384.106.583.164,1,.267.887.225,1.4.335c.254.056.52.1.785.154s.528.094.794.126a3.012,3.012,0,0,1,.8.222,3.8,3.8,0,0,1,.77.462,4.771,4.771,0,0,1,.724.675,7.523,7.523,0,0,1,.641.86,8.491,8.491,0,0,1,1.23,4.562Z" transform="translate(-652.384 -613.775)" fill="#f5c04b"/>
          <path id="パス_24179" data-name="パス 24179" d="M598.618,512.825l.023.094-.041.03a3.323,3.323,0,0,1-1.513.6,4.783,4.783,0,0,1-1.691-.1,6.807,6.807,0,0,1-1.733-.677,6.9,6.9,0,0,1-.859-.529,10.2,10.2,0,0,1-.836-.654,15.326,15.326,0,0,1-2.734-2.918l.366-.021c.231-.014.56-.037.954-.073s.842-.079,1.323-.143c.24-.031.486-.068.734-.112s.493-.087.735-.143a2.849,2.849,0,0,1,1.557.1,4.655,4.655,0,0,1,.8.361,5.589,5.589,0,0,1,.762.558A6.985,6.985,0,0,1,598.618,512.825Z" transform="translate(-570.86 -491.322)" fill="#f5c04b"/>
          <path id="パス_24180" data-name="パス 24180" d="M482.231,394.933a5.627,5.627,0,0,1,2.736,2.48l.041.075-.028.04a3.872,3.872,0,0,1-2.705,1.506,6.726,6.726,0,0,1-3.476-.532,11.863,11.863,0,0,1-3.1-1.723s.47-.18,1.154-.5c.344-.166.731-.332,1.143-.545s.843-.447,1.247-.695a2.782,2.782,0,0,1,1.4-.415A3.891,3.891,0,0,1,482.231,394.933Z" transform="translate(-464.484 -384.99)" fill="#f5c04b"/>
        </g>
        <g id="グループ_9209" data-name="グループ 9209" transform="translate(618.242 137.738)">
          <path id="パス_24163-2" data-name="パス 24163" d="M310,1634.241q-.371.016-.737.058c-.244.03-.487.072-.723.1a8.5,8.5,0,0,0-1.387.312c-.112.035-.222.073-.333.112s-.215.072-.321.112q-.32.118-.624.264a6.322,6.322,0,0,0-1.132.7,12.93,12.93,0,0,1-2.25,1.352,11.562,11.562,0,0,1-1.173.482c-.385.14-.762.26-1.119.365-.177.052-.352.1-.518.145l-.474.1c-.3.063-.57.112-.794.148-.449.073-.72.1-.72.1a15.028,15.028,0,0,0,1.649,1.143c.453.251.929.5,1.42.729.07.031.14.065.211.1l.286.127.012.005c.675.262,1.371.513,2.079.717.718.181,1.441.353,2.159.469a14.608,14.608,0,0,0,2.2.157,13.694,13.694,0,0,0,2.04-.218,12.085,12.085,0,0,0,1.817-.558,6.06,6.06,0,0,0,.811-.387c.259-.141.506-.293.74-.45s.455-.324.664-.5c.1-.087.2-.175.3-.264s.192-.192.283-.29a7.113,7.113,0,0,0,.929-1.236,6.186,6.186,0,0,0,.853-2.784l.006-.087-.126-.054A14.681,14.681,0,0,0,310,1634.241Z" transform="translate(-274.076 -1546.462)" fill="#f5c04b"/>
          <path id="パス_24164-2" data-name="パス 24164" d="M491.667,1563.641a6.78,6.78,0,0,0,2.983-.708,5.847,5.847,0,0,0,.6-.349,5.375,5.375,0,0,0,.541-.427,5.249,5.249,0,0,0,1.465-2.22l.028-.077-.1-.091a14.825,14.825,0,0,0-2.519-1.794,10.545,10.545,0,0,0-1.336-.684,13.119,13.119,0,0,0-1.353-.539c-.459-.138-.906-.279-1.355-.377-.224-.047-.448-.087-.67-.117-.112-.016-.224-.028-.334-.038s-.217-.028-.326-.037a6.607,6.607,0,0,0-1.272,0,5.828,5.828,0,0,0-.611.1,4.537,4.537,0,0,0-.576.145,10.2,10.2,0,0,1-1.159.3c-.2.038-.4.073-.6.1s-.4.054-.6.066a16.418,16.418,0,0,1-2.269.007c-.682-.063-1.276-.157-1.7-.236s-.675-.138-.675-.138a18.726,18.726,0,0,0,1.22,1.567c.222.269.471.51.721.759s.512.494.779.738c.134.119.266.244.407.358l.426.339c.286.223.577.443.871.656.148.106.294.217.445.316l.458.29q.46.285.92.553a11.925,11.925,0,0,0,3.823,1.405,7.072,7.072,0,0,0,.9.119C491.095,1563.643,491.385,1563.648,491.667,1563.641Z" transform="translate(-466.676 -1473.31)" fill="#f5c04b"/>
          <path id="パス_24165-2" data-name="パス 24165" d="M647.285,1386.875c.128.052.259.1.387.14a8.138,8.138,0,0,0,1.484.356,4.49,4.49,0,0,0,4.435-1.791l.044-.061-.071-.115a16.2,16.2,0,0,0-3.987-4.5,10.445,10.445,0,0,0-1.132-.8c-.192-.119-.391-.223-.581-.328s-.382-.206-.574-.293a6.578,6.578,0,0,0-1.159-.412,5.145,5.145,0,0,0-1.122-.176,9.939,9.939,0,0,1-1.119-.1c-.189-.028-.379-.063-.568-.1s-.368-.089-.551-.138a15.935,15.935,0,0,1-2.057-.722c-.6-.276-1.121-.548-1.487-.754s-.581-.339-.581-.339c.208.583.461,1.188.752,1.8.073.154.145.311.225.462s.167.3.253.454c.172.3.35.609.538.913a19.592,19.592,0,0,0,1.227,1.771c.22.284.432.576.669.843s.469.534.705.792.5.534.753.773.522.461.782.672.521.408.779.593.532.337.794.487.525.283.782.4C647.031,1386.763,647.159,1386.821,647.285,1386.875Z" transform="translate(-633.035 -1305.199)" fill="#f5c04b"/>
          <path id="パス_24166-2" data-name="パス 24166" d="M770.415,1171.905c.1.084.206.162.308.239s.212.145.317.213q.316.2.628.361a6.037,6.037,0,0,0,1.218.48,4.442,4.442,0,0,0,1.172.127,3.51,3.51,0,0,0,2.022-.705l.052-.04-.035-.129a19.241,19.241,0,0,0-1.063-2.875c-.228-.445-.439-.9-.688-1.321s-.516-.824-.775-1.22a11.125,11.125,0,0,0-.846-1.094,10.585,10.585,0,0,0-.893-.948,7.949,7.949,0,0,0-.952-.754,4.86,4.86,0,0,0-.973-.531,12.948,12.948,0,0,1-3.637-2.358c-.481-.442-.887-.855-1.17-1.157s-.448-.49-.448-.49a22.382,22.382,0,0,0,2.326,7.746,14.683,14.683,0,0,0,2.2,3.3A12.659,12.659,0,0,0,770.415,1171.905Z" transform="translate(-763.475 -1101.848)" fill="#f5c04b"/>
          <path id="パス_24167-2" data-name="パス 24167" d="M848.56,942.785a7.846,7.846,0,0,0,.92,1.154,5.487,5.487,0,0,0,1.99,1.36,3.2,3.2,0,0,0,1.993.061l.055-.017v-.127c0-.248-.015-.492-.026-.738s-.023-.5-.044-.744c-.041-.492-.118-.977-.2-1.457a13.268,13.268,0,0,0-.3-1.422c-.058-.232-.135-.459-.2-.688s-.132-.45-.208-.67a12.781,12.781,0,0,0-.509-1.267,10.317,10.317,0,0,0-.579-1.15,8.75,8.75,0,0,0-.685-.991,5.275,5.275,0,0,0-.75-.8c-.266-.225-.528-.473-.784-.736a10.436,10.436,0,0,1-.731-.829A20.619,20.619,0,0,1,847.279,932l-.25-.4c-.076-.131-.145-.257-.212-.374-.134-.237-.247-.452-.342-.63-.186-.359-.291-.579-.291-.579a22.209,22.209,0,0,0,.334,7.648c.071.342.15.677.233,1,.042.162.084.325.129.483s.1.312.153.466a17.761,17.761,0,0,0,.69,1.717A11.489,11.489,0,0,0,848.56,942.785Z" transform="translate(-845.986 -886.639)" fill="#f5c04b"/>
          <path id="パス_24168-2" data-name="パス 24168" d="M866.329,716.852a12.364,12.364,0,0,0,.4,1.56,10.414,10.414,0,0,0,.561,1.33c.843,1.614,1.986,2.524,3.221,2.614l.054,0,.029-.114a16.509,16.509,0,0,0,.459-5.442,12.139,12.139,0,0,0-.154-1.3c-.039-.213-.078-.421-.119-.623s-.092-.4-.144-.6a9.77,9.77,0,0,0-.385-1.112,5.677,5.677,0,0,0-.5-.956c-.188-.288-.369-.6-.539-.915s-.318-.646-.464-.977-.278-.665-.4-.991-.221-.642-.315-.944c-.183-.6-.33-1.136-.414-1.517s-.126-.609-.126-.609c-.1.229-.2.468-.292.719s-.173.513-.254.784-.16.548-.234.832-.131.581-.19.88-.116.6-.167.908-.086.62-.124.93-.07.627-.1.939-.039.63-.055.941c-.014.328-.022.651-.02.969s.022.632.042.937A13.094,13.094,0,0,0,866.329,716.852Z" transform="translate(-864.844 -676.983)" fill="#f5c04b"/>
          <path id="パス_24169-2" data-name="パス 24169" d="M817.707,518.835c.045.215.1.419.154.616s.128.389.2.571a5.424,5.424,0,0,0,.5.977,3.406,3.406,0,0,0,1.384,1.251l.047.021.054-.091a14.023,14.023,0,0,0,1.691-4.684,11.234,11.234,0,0,0,.163-1.211c.028-.4.055-.789.047-1.174a9.156,9.156,0,0,0-.089-1.115,6.027,6.027,0,0,0-.228-1.017c-.1-.318-.193-.649-.275-.988s-.14-.679-.195-1.021a17.955,17.955,0,0,1-.209-1.951c-.032-.592-.039-1.11-.038-1.48s.019-.581.019-.581a17.5,17.5,0,0,0-2.8,5.676c-.087.284-.167.569-.238.848s-.125.566-.177.843a13.046,13.046,0,0,0-.2,1.627,13.189,13.189,0,0,0,0,1.515A10.887,10.887,0,0,0,817.707,518.835Z" transform="translate(-812.626 -490.239)" fill="#f5c04b"/>
          <path id="パス_24170-2" data-name="パス 24170" d="M702.924,361.371l.036.035.07-.061a11.458,11.458,0,0,0,2.586-3.576,10.107,10.107,0,0,0,.417-1.023,8.667,8.667,0,0,0,.31-1.026,6.96,6.96,0,0,0,.2-1.993c-.02-.314-.029-.64-.025-.965s.026-.646.052-.967a17.313,17.313,0,0,1,.238-1.8c.1-.536.208-.995.288-1.321.041-.164.074-.293.1-.379s.036-.122.038-.133a14.22,14.22,0,0,0-3.714,4.108,12.587,12.587,0,0,0-.746,1.351,14.129,14.129,0,0,0-.545,1.363,9.931,9.931,0,0,0-.49,2.607,6.249,6.249,0,0,0,.257,2.2A3.789,3.789,0,0,0,702.924,361.371Z" transform="translate(-690.608 -341.455)" fill="#f5c04b"/>
          <path id="パス_24171-2" data-name="パス 24171" d="M539.522,251.961l.074-.031a8.691,8.691,0,0,0,3.1-2.286,8.6,8.6,0,0,0,1.1-1.572,5.818,5.818,0,0,0,.619-1.693,11.169,11.169,0,0,1,.451-1.695,14.922,14.922,0,0,1,.6-1.51c.411-.88.772-1.485.772-1.485a11.505,11.505,0,0,0-4.163,2.424,9.183,9.183,0,0,0-2.759,4.087,4.831,4.831,0,0,0,.176,3.717Z" transform="translate(-519.369 -241.688)" fill="#f5c04b"/>
          <path id="パス_24172-2" data-name="パス 24172" d="M308.408,1426.21a9.859,9.859,0,0,0-.666-1.286c-.063-.1-.126-.2-.193-.3s-.132-.209-.2-.311q-.2-.307-.43-.6c-.148-.194-.3-.38-.464-.562s-.324-.353-.493-.539a10.3,10.3,0,0,0-1.066-1,9.894,9.894,0,0,0-1.159-.9,10.754,10.754,0,0,0-1.249-.78,20.947,20.947,0,0,0-4.789-2.135s.071.218.193.6c.06.192.132.426.215.695.041.135.084.279.131.431l.151.462c.1.325.215.679.333,1.052s.236.785.366,1.18c.254.8.512,1.679.737,2.552a6.151,6.151,0,0,0,.49,1.257,6.75,6.75,0,0,0,.349.6c.064.1.129.194.2.288s.143.178.217.265a7.927,7.927,0,0,0,1.012.977,4.485,4.485,0,0,0,.584.408q.305.189.628.351a6.912,6.912,0,0,0,5.68.26l.118-.047,0-.085A8.452,8.452,0,0,0,308.408,1426.21Z" transform="translate(-267.014 -1343.679)" fill="#f5c04b"/>
          <path id="パス_24173-2" data-name="パス 24173" d="M463.337,1338.793l.044.609c.026.389.057.948.089,1.625.042.658.09,1.431.122,2.267.007.211.017.421.028.628s.017.422.026.637c.015.429.022.866.02,1.3a5.448,5.448,0,0,0,.141,1.316,7.651,7.651,0,0,0,.422,1.305c.045.107.093.216.144.321s.108.206.164.307c.116.2.24.4.374.6a6.994,6.994,0,0,0,.91,1.119,8.551,8.551,0,0,0,1.1.948,9.825,9.825,0,0,0,1.247.717,6.4,6.4,0,0,0,2.718.578l.119,0,.016-.08a8.126,8.126,0,0,0,.079-2.784c-.032-.234-.073-.464-.121-.7s-.1-.475-.16-.709a11.927,11.927,0,0,0-.452-1.381,16,16,0,0,0-3.121-5.011A22.07,22.07,0,0,0,463.337,1338.793Z" transform="translate(-439.535 -1269.65)" fill="#f5c04b"/>
          <path id="パス_24174-2" data-name="パス 24174" d="M605.445,1235.592c-.058-.239-.122-.478-.195-.712s-.153-.466-.234-.7-.161-.475-.253-.709-.19-.461-.3-.686-.2-.466-.317-.693a24.153,24.153,0,0,0-2.765-4.623s-.035.209-.095.572-.157.883-.279,1.511-.235,1.335-.394,2.108c-.077.379-.159.773-.24,1.173s-.174.792-.273,1.187a5.834,5.834,0,0,0-.177,1.248,7.9,7.9,0,0,0,.089,1.318q.052.338.131.681a6.965,6.965,0,0,0,.2.668,10.381,10.381,0,0,0,.558,1.325,7.984,7.984,0,0,0,4.052,3.765l.108.038.035-.066a9.26,9.26,0,0,0,.738-5.266,12.805,12.805,0,0,0-.228-1.426C605.554,1236.066,605.5,1235.827,605.445,1235.592Z" transform="translate(-582.883 -1165.342)" fill="#f5c04b"/>
          <path id="パス_24175-2" data-name="パス 24175" d="M697.871,1101.035a8.756,8.756,0,0,0,2.759,4.773l.087.073.047-.047a6.039,6.039,0,0,0,1.262-1.988,9.02,9.02,0,0,0,.39-1.2,11.231,11.231,0,0,0,.263-1.309c.032-.223.057-.448.076-.675s.032-.463.048-.691a12.73,12.73,0,0,0,0-1.414,17.949,17.949,0,0,0-.35-2.913,25.818,25.818,0,0,0-1.46-5.142l-.215.492c-.14.311-.342.754-.593,1.286-.471,1.045-1.134,2.466-1.833,3.754a5.5,5.5,0,0,0-.446,1.072,6.5,6.5,0,0,0-.222,1.22,8.449,8.449,0,0,0-.019,1.333A11.084,11.084,0,0,0,697.871,1101.035Z" transform="translate(-685.941 -1037.005)" fill="#f5c04b"/>
          <path id="パス_24176-2" data-name="パス 24176" d="M748.171,947.3c.134-.415.23-.84.328-1.279a11.8,11.8,0,0,0,.234-1.353l.035-.346c.016-.119.029-.236.041-.354.025-.236.041-.475.051-.716a25.713,25.713,0,0,0-.151-5.2l-.307.382-.358.433c-.07.082-.144.169-.222.264s-.154.189-.236.29c-.331.4-.725.871-1.159,1.356-.214.237-.433.483-.657.735s-.455.487-.69.719a4.54,4.54,0,0,0-.65.82,5.688,5.688,0,0,0-.48,1.026,8.643,8.643,0,0,0-.33,1.194,10.183,10.183,0,0,0-.129,1.306c-.009.225-.012.454-.007.682a6.767,6.767,0,0,0,.054.686,12.561,12.561,0,0,0,.237,1.37,9.81,9.81,0,0,0,.44,1.305c.086.209.179.415.278.614s.219.387.337.572l.063.094.054-.026a4.724,4.724,0,0,0,1.6-1.342,8.367,8.367,0,0,0,1.186-2.037C747.879,948.118,748.045,947.713,748.171,947.3Z" transform="translate(-734.926 -894.164)" fill="#f5c04b"/>
          <path id="パス_24177-2" data-name="パス 24177" d="M731,787.541a4.522,4.522,0,0,0-.265.506,8.947,8.947,0,0,0-.449,6.264l.033.1.055-.005a5.083,5.083,0,0,0,3.287-2.084,12.954,12.954,0,0,0,2.226-4.372,23.463,23.463,0,0,0,1.048-4.761s-.134.091-.368.246-.552.375-.951.63l-.641.407c-.221.145-.458.293-.7.443s-.5.3-.763.447-.516.292-.781.424a3.676,3.676,0,0,0-.763.527,4.491,4.491,0,0,0-.667.764C731.2,787.226,731.1,787.38,731,787.541Z" transform="translate(-722.09 -749.066)" fill="#f5c04b"/>
          <path id="パス_24178-2" data-name="パス 24178" d="M676.248,646.678l.049.014a3.443,3.443,0,0,0,1.717.017,4.748,4.748,0,0,0,.861-.293c.141-.065.281-.136.42-.213s.284-.159.423-.248a6.84,6.84,0,0,0,.814-.609,8.642,8.642,0,0,0,.784-.738c.243-.271.5-.552.734-.86.119-.152.227-.314.344-.475s.228-.328.336-.5a19.423,19.423,0,0,0,2.038-3.971s-.14.04-.384.106-.583.164-1,.267-.887.225-1.4.335c-.254.056-.52.1-.785.154s-.528.094-.794.126a3.012,3.012,0,0,0-.8.222,3.8,3.8,0,0,0-.77.462,4.771,4.771,0,0,0-.724.675,7.523,7.523,0,0,0-.641.86,8.491,8.491,0,0,0-1.23,4.562Z" transform="translate(-666.538 -613.775)" fill="#f5c04b"/>
          <path id="パス_24179-2" data-name="パス 24179" d="M589.257,512.825l-.023.094.041.03a3.323,3.323,0,0,0,1.513.6,4.783,4.783,0,0,0,1.691-.1,6.807,6.807,0,0,0,1.733-.677,6.9,6.9,0,0,0,.859-.529,10.2,10.2,0,0,0,.836-.654,15.326,15.326,0,0,0,2.734-2.918l-.366-.021c-.231-.014-.56-.037-.954-.073s-.842-.079-1.323-.143c-.24-.031-.486-.068-.734-.112s-.493-.087-.735-.143a2.849,2.849,0,0,0-1.557.1,4.655,4.655,0,0,0-.8.361,5.589,5.589,0,0,0-.762.558A6.985,6.985,0,0,0,589.257,512.825Z" transform="translate(-574.927 -491.322)" fill="#f5c04b"/>
          <path id="パス_24180-2" data-name="パス 24180" d="M478.479,394.933a5.627,5.627,0,0,0-2.736,2.48l-.041.075.028.04a3.872,3.872,0,0,0,2.705,1.506,6.726,6.726,0,0,0,3.476-.532,11.863,11.863,0,0,0,3.1-1.723s-.47-.18-1.154-.5c-.344-.166-.731-.332-1.143-.545s-.843-.447-1.247-.695a2.782,2.782,0,0,0-1.4-.415A3.891,3.891,0,0,0,478.479,394.933Z" transform="translate(-454.139 -384.99)" fill="#f5c04b"/>
        </g>
        <g id="合体_35" data-name="合体 35" transform="translate(-14866 -19064)" fill="#533afc">
          <path d="M 15366 19327.5 C 15360.673828125 19327.5 15355.3505859375 19326.962890625 15350.1787109375 19325.904296875 C 15345.138671875 19324.873046875 15340.181640625 19323.333984375 15335.4443359375 19321.33203125 C 15330.79296875 19319.36328125 15326.306640625 19316.927734375 15322.1103515625 19314.09375 C 15317.9541015625 19311.28515625 15314.044921875 19308.060546875 15310.4921875 19304.5078125 C 15306.9404296875 19300.955078125 15303.7158203125 19297.046875 15300.9072265625 19292.888671875 C 15298.072265625 19288.693359375 15295.6376953125 19284.20703125 15293.669921875 19279.556640625 C 15291.6669921875 19274.818359375 15290.1279296875 19269.861328125 15289.0966796875 19264.822265625 C 15288.0380859375 19259.650390625 15287.501953125 19254.328125 15287.501953125 19249.001953125 C 15287.501953125 19243.67578125 15288.0380859375 19238.3515625 15289.0966796875 19233.1796875 C 15290.1279296875 19228.140625 15291.6669921875 19223.181640625 15293.669921875 19218.4453125 C 15295.6376953125 19213.79296875 15298.072265625 19209.306640625 15300.9072265625 19205.109375 C 15303.7158203125 19200.953125 15306.9404296875 19197.04296875 15310.4921875 19193.4921875 C 15314.044921875 19189.939453125 15317.9541015625 19186.712890625 15322.1103515625 19183.904296875 C 15326.306640625 19181.0703125 15330.79296875 19178.634765625 15335.4443359375 19176.66796875 C 15340.181640625 19174.6640625 15345.138671875 19173.125 15350.1787109375 19172.09375 C 15355.3505859375 19171.03515625 15360.673828125 19170.498046875 15366 19170.498046875 C 15371.326171875 19170.498046875 15376.6494140625 19171.03515625 15381.8212890625 19172.09375 C 15386.861328125 19173.125 15391.818359375 19174.6640625 15396.5556640625 19176.66796875 C 15401.20703125 19178.634765625 15405.693359375 19181.0703125 15409.8896484375 19183.904296875 C 15414.046875 19186.712890625 15417.9560546875 19189.939453125 15421.5078125 19193.4921875 C 15425.060546875 19197.04296875 15428.28515625 19200.953125 15431.09375 19205.109375 C 15433.9287109375 19209.306640625 15436.36328125 19213.79296875 15438.3310546875 19218.4453125 C 15440.333984375 19223.181640625 15441.873046875 19228.140625 15442.904296875 19233.1796875 C 15443.962890625 19238.3515625 15444.4990234375 19243.67578125 15444.4990234375 19249.001953125 C 15444.4990234375 19255.044921875 15443.8095703125 19261.064453125 15442.4501953125 19266.89453125 C 15441.12890625 19272.5625 15439.1650390625 19278.09375 15436.61328125 19283.33203125 L 15436.494140625 19283.576171875 L 15436.6337890625 19283.80859375 L 15452.9775390625 19311.068359375 L 15422.32421875 19304.021484375 L 15422.0517578125 19303.958984375 L 15421.8564453125 19304.15625 C 15418.2978515625 19307.759765625 15414.375 19311.033203125 15410.1982421875 19313.884765625 C 15405.9814453125 19316.76171875 15401.46875 19319.234375 15396.787109375 19321.232421875 C 15392.0185546875 19323.267578125 15387.025390625 19324.83203125 15381.947265625 19325.87890625 C 15376.7353515625 19326.955078125 15371.3701171875 19327.5 15366 19327.5 Z" stroke="none"/>
          <path d="M 15366 19327 C 15371.3359375 19327 15376.66796875 19326.458984375 15381.845703125 19325.388671875 C 15386.8916015625 19324.34765625 15391.8525390625 19322.794921875 15396.5908203125 19320.7734375 C 15401.2431640625 19318.787109375 15405.7265625 19316.330078125 15409.916015625 19313.470703125 C 15414.06640625 19310.638671875 15417.9638671875 19307.38671875 15421.5 19303.8046875 L 15421.892578125 19303.408203125 L 15422.435546875 19303.533203125 L 15451.9443359375 19310.31640625 L 15435.92578125 19283.599609375 L 15436.1630859375 19283.11328125 C 15438.69921875 19277.908203125 15440.650390625 19272.412109375 15441.9638671875 19266.78125 C 15443.314453125 19260.98828125 15443.9990234375 19255.0078125 15443.9990234375 19249.001953125 C 15443.9990234375 19243.708984375 15443.4658203125 19238.419921875 15442.4140625 19233.28125 C 15441.3896484375 19228.271484375 15439.861328125 19223.345703125 15437.8701171875 19218.638671875 C 15435.9150390625 19214.017578125 15433.49609375 19209.560546875 15430.6787109375 19205.390625 C 15427.888671875 19201.259765625 15424.6845703125 19197.375 15421.154296875 19193.845703125 C 15417.6240234375 19190.314453125 15413.740234375 19187.109375 15409.6103515625 19184.318359375 C 15405.4404296875 19181.501953125 15400.982421875 19179.08203125 15396.361328125 19177.126953125 C 15391.654296875 19175.13671875 15386.728515625 19173.607421875 15381.720703125 19172.58203125 C 15376.58203125 19171.53125 15371.29296875 19170.998046875 15366 19170.998046875 C 15360.70703125 19170.998046875 15355.41796875 19171.53125 15350.279296875 19172.58203125 C 15345.271484375 19173.607421875 15340.345703125 19175.13671875 15335.638671875 19177.126953125 C 15331.017578125 19179.08203125 15326.5595703125 19181.501953125 15322.390625 19184.318359375 C 15318.259765625 19187.109375 15314.3759765625 19190.314453125 15310.845703125 19193.845703125 C 15307.31640625 19197.375 15304.1123046875 19201.259765625 15301.3212890625 19205.390625 C 15298.5048828125 19209.560546875 15296.0849609375 19214.017578125 15294.130859375 19218.638671875 C 15292.1396484375 19223.345703125 15290.611328125 19228.271484375 15289.5869140625 19233.28125 C 15288.53515625 19238.419921875 15288.001953125 19243.708984375 15288.001953125 19249.001953125 C 15288.001953125 19254.294921875 15288.53515625 19259.583984375 15289.5869140625 19264.720703125 C 15290.611328125 19269.728515625 15292.1396484375 19274.654296875 15294.130859375 19279.361328125 C 15296.0849609375 19283.982421875 15298.5048828125 19288.439453125 15301.3212890625 19292.609375 C 15304.1123046875 19296.740234375 15307.31640625 19300.625 15310.845703125 19304.154296875 C 15314.3759765625 19307.68359375 15318.259765625 19310.888671875 15322.390625 19313.6796875 C 15326.5595703125 19316.49609375 15331.017578125 19318.916015625 15335.638671875 19320.87109375 C 15340.345703125 19322.861328125 15345.271484375 19324.390625 15350.279296875 19325.416015625 C 15355.41796875 19326.466796875 15360.70703125 19327 15366 19327 M 15366 19328 C 15322.3681640625 19328 15287.001953125 19292.62890625 15287.001953125 19249.001953125 C 15287.001953125 19205.369140625 15322.3681640625 19169.998046875 15366 19169.998046875 C 15409.6318359375 19169.998046875 15444.9990234375 19205.369140625 15444.9990234375 19249.001953125 C 15444.9990234375 19261.392578125 15442.146484375 19273.11328125 15437.0625 19283.55078125 L 15454.0107421875 19311.818359375 L 15422.2119140625 19304.5078125 C 15407.8896484375 19319.01171875 15387.9951171875 19328 15366 19328 Z" stroke="none" fill="#707070"/>
        </g>
        <path id="パス_24181" data-name="パス 24181" d="M23.85-14.355A32.253,32.253,0,0,1,27.5-12.1h-4.41c.09.99.135,1.53.18,2.745l-3.69-1.755a37.692,37.692,0,0,1-.855,3.96c-.18-1.575-.405-3.105-.855-5.535l-3.69.72a50.754,50.754,0,0,1,.81,8.6l2.16-.45a15.939,15.939,0,0,1-1.71,2.655l5,3.825a33.982,33.982,0,0,0,2.835-7.74V.045c0,1.485.225,2.25.855,2.7.855.63,2.475.9,5.265.9,6.615,0,7.56-.81,8.145-6.66a28.4,28.4,0,0,1,1.035,4.68l6.03-3.15A56.437,56.437,0,0,0,40.05-13.05l-5.535,2.565a34.272,34.272,0,0,1,2.385,5.4,25.081,25.081,0,0,1-4.815-1.71c-.045,2.025-.045,3.06-.045,3.1-.09.72-.225,1.08-.5,1.215a4.617,4.617,0,0,1-1.215.18c-.81,0-.945-.135-.945-.81v-7.38A20.292,20.292,0,0,1,31.23-8.55l4.185-4.365a36.069,36.069,0,0,0-4.815-3.51c3.285-.36,3.825-.45,5.8-.765.54,1.215.675,1.485,1.4,3.015l5.58-3.555a66.651,66.651,0,0,0-7.155-10.755L31.23-25.92c1.17,1.665,1.53,2.2,2.34,3.465-1.8.18-3.42.27-5.49.4a82.16,82.16,0,0,0,4.32-8.055L26.775-31.68c2.16-2.655,2.16-2.655,2.88-3.6L23.76-38.43a22.981,22.981,0,0,1-5.94,6.66l-4-2.025a49.766,49.766,0,0,1-4.1,7.38,12.284,12.284,0,0,0-.945-1.35,63.076,63.076,0,0,0,4.23-7.515,8.015,8.015,0,0,1,.72-1.305L7.92-38.88a25.5,25.5,0,0,1-2.655,6.525L4.185-33.66l-2.97,5.49a54.431,54.431,0,0,1,4.95,6.93c-.63.855-.63.9-1.125,1.53H4.41l-.4.045a18.933,18.933,0,0,1-2.565-.18L1.98-13.5c.9-.135,2.52-.27,5.76-.45V-.765a35.208,35.208,0,0,1-.27,4.95h6.345a27.265,27.265,0,0,1-.27-4.995V-14.4a5,5,0,0,0,1.035-.09c.27,0,.27,0,.945-.045l.225,1.665,4.1-1.215a47.927,47.927,0,0,0-3.015-9.99L13.68-22.95c1.62-2.25,2.655-3.69,3.42-4.95a18.135,18.135,0,0,1,2.3,3.33,34.374,34.374,0,0,0,6.165-5.625,49.9,49.9,0,0,1-4.23,8.28c-.315,0-.585.045-.765.045H19.98a5.152,5.152,0,0,1-.675-.045l.99,6.57a16.753,16.753,0,0,1,3.51-.405c.45-.045,1.08-.09,1.98-.18Zm-10.485-8.19a26.544,26.544,0,0,1,.9,2.52c-1.35.135-1.62.135-3.015.225C12.24-21.06,12.645-21.6,13.365-22.545ZM2.7-12.645A50.23,50.23,0,0,1,1.215-.315L5.58,1.98A74.208,74.208,0,0,0,6.975-12.06Zm27.36-22.59c.5.54.765.81,1.17,1.305a30.349,30.349,0,0,0,4.95,5.13,27.851,27.851,0,0,0,5.04,3.555,26.677,26.677,0,0,1,3.33-6.21,21.8,21.8,0,0,1-9.135-7.065Zm28.665,15.8a41.581,41.581,0,0,1,4.185-.18H79.29a37.752,37.752,0,0,1,4.32.18v-2.475a47.994,47.994,0,0,0,6.075,2.925,25.235,25.235,0,0,1,3.15-7.065A37.406,37.406,0,0,1,82.26-31.05a25.72,25.72,0,0,1-7.695-7.065H67.23a26.79,26.79,0,0,1-7.47,7.245,35.719,35.719,0,0,1-10.44,5.13,24.077,24.077,0,0,1,3.375,6.615A43.762,43.762,0,0,0,58.725-22Zm5.94-6.39a31.94,31.94,0,0,0,6.345-6.21,34.954,34.954,0,0,0,6.615,6.21Zm-2.61,29.7V2.025H80.1V3.87h7.245a30.038,30.038,0,0,1-.27-5v-11.16a33.97,33.97,0,0,1,.225-4.77c-1.08.09-2.385.135-4.365.135H59.175c-1.98,0-3.285-.045-4.32-.135a44.506,44.506,0,0,1,.225,4.77V-1.17a38.04,38.04,0,0,1-.27,5.04Zm0-14.535H80.1V-4.23H62.055ZM18.09,12.515a20.274,20.274,0,0,1,.225,3.51c0,8.325-1.44,15.03-4.275,20.025C11.295,40.91,7.56,44.24.9,47.57a21.392,21.392,0,0,1,4.59,6.615,39.812,39.812,0,0,0,9.675-7.47c3.51-3.645,5.445-7.065,7.38-12.96A33.348,33.348,0,0,0,28.62,44.96,40.211,40.211,0,0,0,39.6,54.23a26.158,26.158,0,0,1,4.59-7.11,30.15,30.15,0,0,1-7.875-5.13,29.651,29.651,0,0,1-8.46-12.555A44.957,44.957,0,0,1,26.01,16.16a18.158,18.158,0,0,1,.27-3.645Zm53.46,22.14h7.065c.045,6.57.765,10.665,2.34,14.31,1.44,3.195,3.735,5.22,6.03,5.22a4.325,4.325,0,0,0,3.78-2.205c.945-1.62,1.53-4.05,1.98-8.595a17.107,17.107,0,0,1-4.815-3.24v.81a12.164,12.164,0,0,1-.675,4.9c-1.35-1.935-1.98-6.12-1.98-12.825A34.694,34.694,0,0,1,85.5,28.58c-1.4.09-2.295.135-5.4.135H55.845a22.705,22.705,0,0,1-3.51-.18V34.88A56.506,56.506,0,0,1,58,34.655h.945L54.36,38.84a78.4,78.4,0,0,1,6.84,4.5c-3.15,2.2-5.4,3.33-10.89,5.355a22.33,22.33,0,0,1,4.5,5.9,49.256,49.256,0,0,0,11.88-6.975c3.06,2.52,4.77,4.095,7.065,6.345l4.725-5.265c-2.7-2.34-3.69-3.195-6.93-5.67a38.839,38.839,0,0,0,3.33-4.185c.99-1.35,1.17-1.575,1.53-2.025Zm-2.2,0a21.97,21.97,0,0,1-3.24,4.41c-2.34-1.62-3.78-2.52-7.02-4.41Zm-10.62-7.2a40.711,40.711,0,0,1,4.365-.18H81.72c2.34,0,3.69.045,5.13.18V21.83a46.369,46.369,0,0,1-5.13.18H60.345c.45-.675.585-.855.945-1.4H84.42c2.25,0,3.915.09,5.535.225V14.18a44.646,44.646,0,0,1-5.535.27H64.845c.675-1.4,1.08-2.205,1.17-2.385L58.59,11.21a10.917,10.917,0,0,1-1.125,2.97,29.681,29.681,0,0,1-7.83,9.36,22.651,22.651,0,0,1,4.95,4.995,41.565,41.565,0,0,0,4.14-4.455Z" transform="translate(451.92 184.113) rotate(-8)" fill="#fff"/>
      </g>
    </g>
    <path id="パス_24185" data-name="パス 24185" d="M64.725,2.325c-.975-2.1-2.175-5.175-3.6-9.15L44.85-51.975a59.849,59.849,0,0,1-2.55-8.1H22.725a45.782,45.782,0,0,1-2.4,8.1L4.125-6.825a73.887,73.887,0,0,1-3.6,9.15h17.55a43.222,43.222,0,0,1,1.875-8.1l2.025-6.375H43.35l2.025,6.375a60.908,60.908,0,0,1,1.8,8.1ZM39.675-24.75h-14.1l6.975-22.5ZM75.9-60.075a70.047,70.047,0,0,1,.6,11.1v40.2a71.88,71.88,0,0,1-.6,11.1H92.4a72.5,72.5,0,0,1-.6-11.1v-40.2a69.445,69.445,0,0,1,.6-11.1ZM108.15-41.1c3.225-.675,3.6-.675,10.575-1.425,14.025-1.125,16.65-1.35,18.3-1.5l3.525-.375a30.689,30.689,0,0,0-7.35,6.375,25.675,25.675,0,0,0-6.375,16.95c0,9.525,4.575,16.425,13.425,20.55,4.8,2.175,10.425,3.45,18.975,4.2A19.181,19.181,0,0,1,162,4.05l1.725-14.25c-1.125.075-1.65.075-2.25.075-4.725,0-11.325-1.2-14.325-2.7-4.275-2.025-6.3-4.95-6.3-9.3,0-6.15,4.425-12.45,11.925-17.025A35.153,35.153,0,0,1,169.95-44.4a11.4,11.4,0,0,1,2.1.15l-.675-13.575a6.324,6.324,0,0,1-1.725.3c-.375,0-.825.075-3.375.15l-3.15.15-7.725.3c-14.25.525-21.525.9-32.325,1.575-8.175.525-10.875.675-12.825.675-.6,0-1.575,0-2.85-.075Zm45.225,6.525a46.635,46.635,0,0,1,7.275,11.1l7.2-3.3a48.349,48.349,0,0,0-7.275-10.875ZM163.875-39A53.7,53.7,0,0,1,171-28.2l6.975-3.225A51.835,51.835,0,0,0,170.625-42Z" transform="translate(590 704)"/>
    <path id="パス_24183" data-name="パス 24183" d="M31.425-32.55v2.325h-15a64.364,64.364,0,0,1-7.275-.3v7.95a65.218,65.218,0,0,1,7.275-.3h15v2.325h-18.3a83.082,83.082,0,0,1-9.6-.45v9.45A93.235,93.235,0,0,1,13.2-12H23.7C18.375-7.95,11.475-5.325,1.5-3.6A37.828,37.828,0,0,1,7.575,6.6,67.762,67.762,0,0,0,21.525.825,43.451,43.451,0,0,0,31.65-6.75c-.075,2.1-.075,2.325-.075,4.2V-.3a43.692,43.692,0,0,1-.525,7.425H42.975A50,50,0,0,1,42.6-.225v-2.4c0-1.875-.075-2.25-.225-4.275C48.75-.675,56.55,3.45,67.8,6.6A42.93,42.93,0,0,1,73.425-4.05C63-5.625,55.725-8.175,50.625-12h11.55a93.331,93.331,0,0,1,9.525.45V-21a74.582,74.582,0,0,1-9.6.45H42.6v-2.325H58.575a67.566,67.566,0,0,1,7.35.3v-7.95a68.455,68.455,0,0,1-7.35.3H42.6V-32.55H61.725a68.455,68.455,0,0,1,7.35.3v-8.625a65.826,65.826,0,0,1-7.35.3h-7.05c.675-1.35.9-1.65,1.8-3.6H62.7c3.6,0,6.825.15,9.375.375v-9.975a59.6,59.6,0,0,1-8.625.45c1.35-1.95,2.25-3.375,3.75-6L56.55-63a46.313,46.313,0,0,1-4.8,9.675H49.5V-58.2a34.412,34.412,0,0,1,.3-5.4H38.55a29.634,29.634,0,0,1,.3,4.875v5.4H35.775v-5.4A40.748,40.748,0,0,1,36-63.6H24.75a36.525,36.525,0,0,1,.375,5.4v4.875H22.95a69.62,69.62,0,0,0-4.95-9.6l-10.65,3.6a27.218,27.218,0,0,1,4.05,6,59.606,59.606,0,0,1-8.4-.45V-43.8c2.55-.225,5.7-.375,9.3-.375h6.6a32.221,32.221,0,0,1,1.875,3.6h-7.5A62.692,62.692,0,0,1,6-40.875v8.625a66.961,66.961,0,0,1,7.275-.3Zm.825-8.025a34.144,34.144,0,0,0-1.425-3.6h13.35c-.6,1.5-.825,2.025-1.575,3.6Zm90.375,26.85a18.683,18.683,0,0,1-6.6,7.2,38.4,38.4,0,0,1-9.3,4.5,45.513,45.513,0,0,1,6.525,9.45c7.2-3.225,11.4-6.225,15.225-10.8a35.2,35.2,0,0,1,2.1,9.3c3.075.225,5.7.375,7.35.375,7.2,0,9.675-1.35,11.325-6,1.2-3.375,1.95-9.375,2.4-19.275.075-1.425.075-1.95.15-2.85a12.127,12.127,0,0,0,.15-2.25,41.721,41.721,0,0,1-5.625.225h-9.9a10.273,10.273,0,0,0,.15-1.2,6.965,6.965,0,0,0,.075-.975c.075-.525.075-.9.15-1.2.075-.825.075-.825.15-1.425h-7.5a37.389,37.389,0,0,0,5.475-2.775c4.425,2.625,8.625,4.2,15.675,5.925a37.853,37.853,0,0,1,4.725-11.1A53.59,53.59,0,0,1,143.7-38.625a30.184,30.184,0,0,0,5.85-9.75c2.325.075,2.925.075,4.35.225V-58.8a60.814,60.814,0,0,1-8.475.45H132.45c.45-1.125,1.125-2.7,1.275-3,.3-.75.3-.75.45-1.2L123.15-64.425A26.884,26.884,0,0,1,120.525-57c-2.475,5.025-4.95,8.325-10.125,13.2a34.885,34.885,0,0,1,7.65,7.05,69.67,69.67,0,0,0,5.1-5.7,30.216,30.216,0,0,0,3.825,4.725,45.14,45.14,0,0,1-9.825,2.775L113.85-39a50.51,50.51,0,0,1-5.55.225h-1.2c-.9-.975-.9-.975-2.1-2.175a104.556,104.556,0,0,0,10.425-12.6A24.142,24.142,0,0,1,117-55.725L111.3-61.8a42.966,42.966,0,0,1-6.6.3H92.325a57.883,57.883,0,0,1-6.975-.3v10.65c1.8-.15,3.9-.225,6.075-.225h10.5a19.941,19.941,0,0,1-3.75,4.275c-2.1-1.725-2.925-2.325-5.475-4.2l-6.3,6.225a52.707,52.707,0,0,1,7.575,6.3H89.85a52.169,52.169,0,0,1-6.525-.3V-28.35a42.431,42.431,0,0,1,5.85-.3h3.6A39.26,39.26,0,0,1,82.2-13.35c1.875,3.375,2.7,5.925,3.825,11.925,1.05-1.125,1.425-1.5,2.1-2.325A28.362,28.362,0,0,1,90,6.225c2.325.075,3.375.15,5.025.15,8.25,0,10.575-1.8,10.575-8.175l-.075-16.425a28.406,28.406,0,0,1,5.775,5.1,81.577,81.577,0,0,0,3.45-8.85V-13.5a41.625,41.625,0,0,1,4.875-.225Zm17.7,0a32.1,32.1,0,0,1-.75,7.35C139.125-4.35,138.45-3.9,136.2-3.9a44.079,44.079,0,0,1-6.825-.675,34.3,34.3,0,0,0,4.875-9.15ZM120.45-23.85a38.447,38.447,0,0,1-5.025-.15c.3-1.125.525-1.8.825-2.925,1.05-3.525,1.05-3.525,1.2-4.125a43.749,43.749,0,0,1,2.775,5.325,47.112,47.112,0,0,0,5.325-1.5,2.111,2.111,0,0,1,.075.6,21.463,21.463,0,0,1-.225,2.775ZM138.3-48.375a15.922,15.922,0,0,1-3.6,5.325,18.414,18.414,0,0,1-4.95-5.325ZM95.625-5.25c0,1.425-.375,1.725-1.8,1.725a19.967,19.967,0,0,1-4.5-.525c-.225-.075-.45-.075-.825-.15a57.777,57.777,0,0,0,7.125-11.85Zm9.9-23.4h2.85a33.706,33.706,0,0,1-2.85,7.575Zm78.15-6.825v3.225a76.381,76.381,0,0,1,9-.45h9.45v6.9h-9.6c-2.85,0-4.575-.075-6.375-.225.15,1.8.225,4.05.225,6.3v18c0,2.55-.15,5.625-.3,8.175H197.55V3.3h21.225V6.45h11.85c-.225-2.25-.375-4.95-.375-8.1v-17.7a62.45,62.45,0,0,1,.3-6.675,60.669,60.669,0,0,1-6.15.225H213.75v-6.9H225.3a68.324,68.324,0,0,1,8.925.45V-43.8a74.62,74.62,0,0,1-9,.45H213.75v-7.425A147.1,147.1,0,0,0,231-53.925a13,13,0,0,0,1.5-.3L225-64.575c-2.925,1.35-4.575,1.8-10.575,2.925a185.523,185.523,0,0,1-29.85,3.075,31.609,31.609,0,0,1,3.825,10.05c6.075-.3,9.075-.45,13.725-.975v6.15H192.6a75.016,75.016,0,0,1-8.925-.45v7.35A85.851,85.851,0,0,0,169.95-45l-6.45,8.625a94.918,94.918,0,0,1,14.25,9.825ZM197.625-15.6H218.85v8.55H197.625ZM165.45-55.8a91.194,91.194,0,0,1,13.8,10.425l6.9-9a104.5,104.5,0,0,0-13.65-9.75Zm8.925,30.9C170.625-13.8,167.1-6.225,163.65-2.025L173.625,6.3c2.325-4.575,3.525-7.125,3.75-7.575a149.228,149.228,0,0,0,6.3-17.175Zm112.8,9.45h13.95v9.225c0,1.35-.6,1.65-3.3,1.65-2.1,0-5.025-.15-8.325-.45a37.254,37.254,0,0,1,3,10.8c2.925.15,5.625.225,8.175.225C309.75,6,312.6,3.825,312.6-3.15v-48.9a77.033,77.033,0,0,1,.375-9.6c-2.475.225-4.725.3-9.375.3H259.875c-4.275,0-6.15-.075-8.925-.3.225,2.85.375,5.85.375,10.275,0,32.025-1.2,40.575-6.9,50.1,4.125,2.475,6,4.05,10.2,8.55,4.05-6.9,6-13.275,7.05-22.725H276V-4.875a70.138,70.138,0,0,1-.45,9.525h12a75.565,75.565,0,0,1-.375-9.6Zm0-28.125v-7.05h13.95v7.05Zm-11.175,0H262.8v-7.05H276ZM287.175-33.15h13.95v7.2h-13.95ZM276-33.15v7.2H262.425c.15-3.3.15-4.125.225-7.2Zm85.575-6.825A11.427,11.427,0,0,0,350.1-28.5a11.411,11.411,0,0,0,11.475,11.4,11.411,11.411,0,0,0,11.4-11.475A11.4,11.4,0,0,0,361.575-39.975Zm46.65-11.775a74.681,74.681,0,0,1,7.875-.3h24.6a75.341,75.341,0,0,1,7.95.3V-62.4a83.373,83.373,0,0,1-9.225.45H417.45a87.342,87.342,0,0,1-9.225-.45Zm3.525,15.375a37.416,37.416,0,0,1-.3,5.25c2.25-.15,4.05-.225,7.275-.225H439.95c3.3,0,4.875.075,7.125.225a35.65,35.65,0,0,1-.3-5.4v-7.95a36.1,36.1,0,0,1,.3-5.475c-2.25.15-3.75.225-7.125.225H418.8c-3.6,0-4.95-.075-7.35-.225a36.743,36.743,0,0,1,.3,5.475Zm11.1-5.775h12.975v3.225H422.85Zm-5.925,13.125c-3.225,0-5.775-.075-7.95-.225a74.213,74.213,0,0,1,.3,8.025v18.45c0,3.6-.15,6.675-.375,9.3h11.475v-2.7h17.25v2.25h11.1c-.225-2.625-.375-5.7-.375-9.375V-20.325c0-3.6.075-6.45.3-8.925-2.1.15-4.65.225-8.325.225Zm2.775,8.7h4.8v3.45h-4.8Zm13.65.075h4.875v3.375H433.35ZM419.775-9.075H424.5V-5.4h-4.725Zm13.575,0h4.875V-5.4H433.35Zm17.4-48.75a67.476,67.476,0,0,1,.3,7.65v31.05a65.17,65.17,0,0,1-.3,7.575h11.175a59,59,0,0,1-.3-7.5V-50.4a63.1,63.1,0,0,1,.3-7.425Zm13.875-5.1A75.906,75.906,0,0,1,465-53.55V-6.825c0,1.875-.525,2.25-3.075,2.25a77.69,77.69,0,0,1-9.6-.675,37.336,37.336,0,0,1,2.925,11.1c4.2.15,5.775.225,7.575.225,10.425,0,13.35-2.325,13.35-10.725V-53.925a50.089,50.089,0,0,1,.45-9Zm52.8,30.375v2.325h-15a64.365,64.365,0,0,1-7.275-.3v7.95a65.218,65.218,0,0,1,7.275-.3h15v2.325h-18.3a83.082,83.082,0,0,1-9.6-.45v9.45A93.235,93.235,0,0,1,499.2-12h10.5c-5.325,4.05-12.225,6.675-22.2,8.4a37.829,37.829,0,0,1,6.075,10.2A67.762,67.762,0,0,0,507.525.825,43.452,43.452,0,0,0,517.65-6.75c-.075,2.1-.075,2.325-.075,4.2V-.3a43.692,43.692,0,0,1-.525,7.425h11.925a50.007,50.007,0,0,1-.375-7.35v-2.4c0-1.875-.075-2.25-.225-4.275C534.75-.675,542.55,3.45,553.8,6.6a42.932,42.932,0,0,1,5.625-10.65C549-5.625,541.725-8.175,536.625-12h11.55a93.332,93.332,0,0,1,9.525.45V-21a74.583,74.583,0,0,1-9.6.45H528.6v-2.325h15.975a67.566,67.566,0,0,1,7.35.3v-7.95a68.455,68.455,0,0,1-7.35.3H528.6V-32.55h19.125a68.455,68.455,0,0,1,7.35.3v-8.625a65.827,65.827,0,0,1-7.35.3h-7.05c.675-1.35.9-1.65,1.8-3.6H548.7c3.6,0,6.825.15,9.375.375v-9.975a59.6,59.6,0,0,1-8.625.45c1.35-1.95,2.25-3.375,3.75-6L542.55-63a46.311,46.311,0,0,1-4.8,9.675H535.5V-58.2a34.415,34.415,0,0,1,.3-5.4H524.55a29.63,29.63,0,0,1,.3,4.875v5.4h-3.075v-5.4A40.744,40.744,0,0,1,522-63.6H510.75a36.524,36.524,0,0,1,.375,5.4v4.875H508.95a69.623,69.623,0,0,0-4.95-9.6l-10.65,3.6a27.217,27.217,0,0,1,4.05,6,59.606,59.606,0,0,1-8.4-.45V-43.8c2.55-.225,5.7-.375,9.3-.375h6.6a32.219,32.219,0,0,1,1.875,3.6h-7.5a62.692,62.692,0,0,1-7.275-.3v8.625a66.961,66.961,0,0,1,7.275-.3Zm.825-8.025a34.14,34.14,0,0,0-1.425-3.6h13.35c-.6,1.5-.825,2.025-1.575,3.6Zm86.325.6A11.427,11.427,0,0,0,593.1-28.5a11.411,11.411,0,0,0,11.475,11.4,11.411,11.411,0,0,0,11.4-11.475A11.4,11.4,0,0,0,604.575-39.975ZM664.8-46.95a78.033,78.033,0,0,1,.375-9.45H653.25a76.8,76.8,0,0,1,.45,9.45v29.925c-1.875.375-2.4.45-4.125.675l1.95,12.225c1.65-.6,2.175-.75,3.825-1.35,6.3-2.175,10.575-3.75,13.8-5.1V-2.7a77.65,77.65,0,0,1-.45,9.45h12.225a62.987,62.987,0,0,1-.375-8.55,40.22,40.22,0,0,1,5.175,8.85A63.6,63.6,0,0,0,700.5-6.9,84.447,84.447,0,0,0,716.625,6.975,50.18,50.18,0,0,1,722.1-5.175a57.312,57.312,0,0,1-14.85-12A96.777,96.777,0,0,0,712.8-29.7c3-8.625,4.575-16.425,5.4-27.675.225-2.55.225-2.55.3-3.675a52.144,52.144,0,0,1-6.3.3H691.725a65.477,65.477,0,0,1-9.15-.525V-49.5a59.011,59.011,0,0,1,7.95-.3H693.3l-10.35,3.75a134.407,134.407,0,0,0,4.65,16.275,67.533,67.533,0,0,0,6.075,13.5,49.589,49.589,0,0,1-13.125,12.3V-54a78.661,78.661,0,0,1,.375-9.525H668.7A79.032,79.032,0,0,1,669.15-54v32.625c-2.175.675-3.6,1.2-4.35,1.425Zm40.8-2.85c-1.125,8.85-2.55,14.775-5.4,21.75-2.85-6.15-4.725-12.75-6.3-21.75Zm54.15-.6a67.188,67.188,0,0,1-2.475,14.625A52.9,52.9,0,0,1,743.4-13.05a53.61,53.61,0,0,1-12.75,9.075,35.932,35.932,0,0,1,8.025,10.8C746.625,1.8,751.65-2.55,756.225-8.25c5.1-6.375,7.95-11.85,10.95-21a56.991,56.991,0,0,0,12.15,22.275,67.229,67.229,0,0,0,15.3,13.725,36.842,36.842,0,0,1,8.25-11.85A57.844,57.844,0,0,1,782.1-24.075a60.521,60.521,0,0,1-9.6-32.85c0-1.425.075-2.7.15-4.8a58.067,58.067,0,0,1-6.675.3H752.1a52.617,52.617,0,0,1-8.475-.45V-49.95c3.3-.3,6-.45,8.625-.45Zm96.075-9.675a73.9,73.9,0,0,1,.6,11.325v25.8C856.425-13.5,852.15-9,843.15-9c-8.775,0-13.05-4.5-13.05-13.95v-25.8a69.654,69.654,0,0,1,.6-11.325H814.5a73.283,73.283,0,0,1,.6,11.325V-23.1c0,8.4,2.25,14.925,6.6,19.575,4.5,4.725,12.075,7.35,21.375,7.35,18.075,0,28.35-9.675,28.35-26.775v-25.8a74.529,74.529,0,0,1,.6-11.325ZM903.3,2.325A97.377,97.377,0,0,1,902.7-9v-9.6h11.85c14.55,0,23.1-7.95,23.1-21.3,0-13.05-8.175-20.175-23.025-20.175H898.2c-4.8,0-7.5-.075-11.025-.225a83.857,83.857,0,0,1,.6,10.95V-8.775a80.415,80.415,0,0,1-.6,11.1Zm-.6-33.675V-47.325h11.175c5.4,0,8.325,2.7,8.325,7.875s-3.075,8.1-8.325,8.1Z" transform="translate(773 704)" fill="#533afc"/>
    <path id="パス_24184" data-name="パス 24184" d="M5.1-41.1c3.225-.675,3.6-.675,10.575-1.425,14.025-1.125,16.65-1.35,18.3-1.5L37.5-44.4a30.69,30.69,0,0,0-7.35,6.375,25.675,25.675,0,0,0-6.375,16.95C23.775-11.55,28.35-4.65,37.2-.525c4.8,2.175,10.425,3.45,18.975,4.2a19.182,19.182,0,0,1,2.775.375L60.675-10.2c-1.125.075-1.65.075-2.25.075-4.725,0-11.325-1.2-14.325-2.7-4.275-2.025-6.3-4.95-6.3-9.3,0-6.15,4.425-12.45,11.925-17.025A35.153,35.153,0,0,1,66.9-44.4a11.4,11.4,0,0,1,2.1.15l-.675-13.575a6.325,6.325,0,0,1-1.725.3c-.375,0-.825.075-3.375.15l-3.15.15-7.725.3c-14.25.525-21.525.9-32.325,1.575-8.175.525-10.875.675-12.825.675-.6,0-1.575,0-2.85-.075Zm45.225,6.525a46.635,46.635,0,0,1,7.275,11.1l7.2-3.3A48.349,48.349,0,0,0,57.525-37.65ZM60.825-39A53.7,53.7,0,0,1,67.95-28.2l6.975-3.225A51.835,51.835,0,0,0,67.575-42Zm30.15-3.525c1.725-.075,2.25-.075,5.625-.15a158.614,158.614,0,0,0,19.575-.825c.9,2.025,1.5,3.375,1.725,3.975a191.311,191.311,0,0,1-20.475,1.05,64.008,64.008,0,0,1-7.725-.3l.525,11.1a56.1,56.1,0,0,1,6.525-.375c10.8-.3,19.425-.825,25.8-1.65,1.5,2.4,2.625,4.2,3.45,5.325a49.724,49.724,0,0,0-10.35-.9c-6.525,0-11.625.9-16.05,2.775-5.475,2.325-8.925,7.125-8.925,12.375a14,14,0,0,0,2.775,8.25C97.125,2.85,104.775,5.25,116.175,5.25a96.346,96.346,0,0,0,21-2.325,49.141,49.141,0,0,1,5.25-1.05L140.7-10.8c-6,2.85-15.225,4.65-23.85,4.65C108.9-6.15,105-7.5,105-10.275c0-3.15,4.575-4.875,12.9-4.875,6.525,0,11.325.975,15.75,3.3l11.025-5.7a85.108,85.108,0,0,1-9.6-13.8c.975-.225,4.425-.825,4.5-.825,7.5-1.575,7.5-1.575,9.225-1.8L147.675-45c-3.45,1.275-7.05,2.1-17.475,3.975-.3-.525-1.125-2.475-1.725-3.9,7.5-1.2,7.575-1.275,11.925-2.175,4.125-.825,4.125-.825,5.55-1.125l-1.05-10.95a139.973,139.973,0,0,1-20.325,4.2,33.842,33.842,0,0,1-2.325-7.8L109.125-61.2c.675,1.35,1.575,3.375,3.15,7.5-3.375.3-9.15.525-13.425.525a72.388,72.388,0,0,1-8.55-.375Zm85.05-4.725c1.5-.15,2.925-.3,4.95-.375,10.575-.525,13.575-.675,17.55-1.125C189.225-39.525,173.4-27.225,166.5-24l6.975,11.4a55.769,55.769,0,0,1,7.2-5.625,43.129,43.129,0,0,1,23.1-6.9c8.325,0,13.425,3.225,13.425,8.475,0,3.825-1.875,6.375-5.925,8.175a17.643,17.643,0,0,0-3.45-5.925A17.591,17.591,0,0,0,194.4-20.175c-8.7,0-14.925,5.025-14.925,12,0,8.325,7.725,13.35,20.4,13.35,7.5,0,14.7-1.725,19.875-4.725C226.575-3.6,230.1-9.6,230.1-17.175a16.648,16.648,0,0,0-5.475-12.975c-3.975-3.45-9-5.1-16.05-5.1A35.882,35.882,0,0,0,198.3-33.9c5.025-3.675,6.375-4.8,10.35-8.175,10.125-8.7,10.125-8.7,12.075-9.825l-6.15-9.075c-1.425.6-2.4.825-5.7,1.05-7.575.6-15.9.9-22.575.9a83.932,83.932,0,0,1-10.8-.525ZM200.1-5.1a11.383,11.383,0,0,1-2.475.225c-4.05,0-6.45-1.275-6.45-3.3,0-1.5,1.2-2.475,2.925-2.475C197.025-10.65,199.125-8.7,200.1-5.1Zm86.55-11.475c-.075-1.875-.075-2.7-.075-3.45,0-1.125.075-2.625.225-5.775l1.5-23.775c.225-3.15.675-8.4.9-10.125H271.725c.375,3.675.75,7.05.9,10.125l1.5,23.775c.3,4.425.3,4.425.3,5.85a27.762,27.762,0,0,1-.15,3.375ZM288,2.7V-11.475H272.925V2.7Z" transform="translate(1718 704)"/>
  </g>
</svg>
