<svg xmlns="http://www.w3.org/2000/svg" xmlns:xlink="http://www.w3.org/1999/xlink" width="271" height="50" viewBox="0 0 271 50">
  <defs>
    <clipPath id="clip-アートボード_1">
      <rect width="271" height="50"/>
    </clipPath>
  </defs>
  <g id="アートボード_1" data-name="アートボード – 1" clip-path="url(#clip-アートボード_1)">
    <g id="グループ_1" data-name="グループ 1" transform="translate(-362.5 -254)">
      <g id="多角形_4" data-name="多角形 4" transform="translate(362.5 254.5)" fill="#ffd139">
        <path d="M 38.73494720458984 45.62777328491211 L 25.59333992004395 39.96781158447266 L 25 39.71226119995117 L 24.40666007995605 39.96781158447266 L 11.26505184173584 45.62777328491211 L 12.53861999511719 31.24311065673828 L 12.59463024139404 30.61039924621582 L 12.17924022674561 30.12986946105957 L 2.761918783187866 19.23572540283203 L 16.71269035339355 16.01231002807617 L 17.33806991577148 15.86781978607178 L 17.66534996032715 15.31567001342773 L 25 2.941736936569214 L 32.33464813232422 15.31567001342773 L 32.66193008422852 15.86781978607178 L 33.28731155395508 16.01231002807617 L 47.23808288574219 19.23572540283203 L 37.82075881958008 30.12986946105957 L 37.40536880493164 30.61039924621582 L 37.46138000488281 31.24311065673828 L 38.73494720458984 45.62777328491211 Z" stroke="none"/>
        <path d="M 25 5.88348388671875 L 18.3011302947998 17.18481063842773 L 5.523853302001953 20.13708877563477 L 14.14480972290039 30.1099796295166 L 12.98094177246094 43.25554656982422 L 25 38.07905960083008 L 37.01905822753906 43.25554656982422 L 35.85519027709961 30.1099796295166 L 44.47614669799805 20.13708877563477 L 31.6988697052002 17.18481063842773 L 25 5.88348388671875 M 25 0 L 33.625 14.55081939697266 L 50 18.33436965942383 L 38.95553970336914 31.11082077026367 L 40.45085144042969 48 L 25 41.3454704284668 L 9.549148559570312 48 L 11.04446029663086 31.11082077026367 L 0 18.33436965942383 L 16.375 14.55081939697266 L 25 0 Z" stroke="none" fill="#ffd139"/>
      </g>
      <g id="多角形_5" data-name="多角形 5" transform="translate(417.5 254)" fill="#ffd139">
        <path d="M 38.73494720458984 45.62777328491211 L 25.59333992004395 39.96781158447266 L 25 39.71226119995117 L 24.40666007995605 39.96781158447266 L 11.26505184173584 45.62777328491211 L 12.53861999511719 31.24311065673828 L 12.59463024139404 30.61039924621582 L 12.17924022674561 30.12986946105957 L 2.761918783187866 19.23572540283203 L 16.71269035339355 16.01231002807617 L 17.33806991577148 15.86781978607178 L 17.66534996032715 15.31567001342773 L 25 2.941736936569214 L 32.33464813232422 15.31567001342773 L 32.66193008422852 15.86781978607178 L 33.28731155395508 16.01231002807617 L 47.23808288574219 19.23572540283203 L 37.82075881958008 30.12986946105957 L 37.40536880493164 30.61039924621582 L 37.46138000488281 31.24311065673828 L 38.73494720458984 45.62777328491211 Z" stroke="none"/>
        <path d="M 25 5.88348388671875 L 18.3011302947998 17.18481063842773 L 5.523853302001953 20.13708877563477 L 14.14480972290039 30.1099796295166 L 12.98094177246094 43.25554656982422 L 25 38.07905960083008 L 37.01905822753906 43.25554656982422 L 35.85519027709961 30.1099796295166 L 44.47614669799805 20.13708877563477 L 31.6988697052002 17.18481063842773 L 25 5.88348388671875 M 25 0 L 33.625 14.55081939697266 L 50 18.33436965942383 L 38.95553970336914 31.11082077026367 L 40.45085144042969 48 L 25 41.3454704284668 L 9.549148559570312 48 L 11.04446029663086 31.11082077026367 L 0 18.33436965942383 L 16.375 14.55081939697266 L 25 0 Z" stroke="none" fill="#ffd139"/>
      </g>
      <g id="多角形_6" data-name="多角形 6" transform="translate(472.5 254)" fill="#ffd139">
        <path d="M 38.73494720458984 45.62777328491211 L 25.59333992004395 39.96781158447266 L 25 39.71226119995117 L 24.40666007995605 39.96781158447266 L 11.26505184173584 45.62777328491211 L 12.53861999511719 31.24311065673828 L 12.59463024139404 30.61039924621582 L 12.17924022674561 30.12986946105957 L 2.761918783187866 19.23572540283203 L 16.71269035339355 16.01231002807617 L 17.33806991577148 15.86781978607178 L 17.66534996032715 15.31567001342773 L 25 2.941736936569214 L 32.33464813232422 15.31567001342773 L 32.66193008422852 15.86781978607178 L 33.28731155395508 16.01231002807617 L 47.23808288574219 19.23572540283203 L 37.82075881958008 30.12986946105957 L 37.40536880493164 30.61039924621582 L 37.46138000488281 31.24311065673828 L 38.73494720458984 45.62777328491211 Z" stroke="none"/>
        <path d="M 25 5.88348388671875 L 18.3011302947998 17.18481063842773 L 5.523853302001953 20.13708877563477 L 14.14480972290039 30.1099796295166 L 12.98094177246094 43.25554656982422 L 25 38.07905960083008 L 37.01905822753906 43.25554656982422 L 35.85519027709961 30.1099796295166 L 44.47614669799805 20.13708877563477 L 31.6988697052002 17.18481063842773 L 25 5.88348388671875 M 25 0 L 33.625 14.55081939697266 L 50 18.33436965942383 L 38.95553970336914 31.11082077026367 L 40.45085144042969 48 L 25 41.3454704284668 L 9.549148559570312 48 L 11.04446029663086 31.11082077026367 L 0 18.33436965942383 L 16.375 14.55081939697266 L 25 0 Z" stroke="none" fill="#ffd139"/>
      </g>
      <g id="多角形_7" data-name="多角形 7" transform="translate(527.5 254)" fill="#ffd139">
        <path d="M 38.73494720458984 45.62777328491211 L 25.59333992004395 39.96781158447266 L 25 39.71226119995117 L 24.40666007995605 39.96781158447266 L 11.26505184173584 45.62777328491211 L 12.53861999511719 31.24311065673828 L 12.59463024139404 30.61039924621582 L 12.17924022674561 30.12986946105957 L 2.761918783187866 19.23572540283203 L 16.71269035339355 16.01231002807617 L 17.33806991577148 15.86781978607178 L 17.66534996032715 15.31567001342773 L 25 2.941736936569214 L 32.33464813232422 15.31567001342773 L 32.66193008422852 15.86781978607178 L 33.28731155395508 16.01231002807617 L 47.23808288574219 19.23572540283203 L 37.82075881958008 30.12986946105957 L 37.40536880493164 30.61039924621582 L 37.46138000488281 31.24311065673828 L 38.73494720458984 45.62777328491211 Z" stroke="none"/>
        <path d="M 25 5.88348388671875 L 18.3011302947998 17.18481063842773 L 5.523853302001953 20.13708877563477 L 14.14480972290039 30.1099796295166 L 12.98094177246094 43.25554656982422 L 25 38.07905960083008 L 37.01905822753906 43.25554656982422 L 35.85519027709961 30.1099796295166 L 44.47614669799805 20.13708877563477 L 31.6988697052002 17.18481063842773 L 25 5.88348388671875 M 25 0 L 33.625 14.55081939697266 L 50 18.33436965942383 L 38.95553970336914 31.11082077026367 L 40.45085144042969 48 L 25 41.3454704284668 L 9.549148559570312 48 L 11.04446029663086 31.11082077026367 L 0 18.33436965942383 L 16.375 14.55081939697266 L 25 0 Z" stroke="none" fill="#ffd139"/>
      </g>
      <g id="多角形_8" data-name="多角形 8" transform="translate(582.5 254)" fill="#ffd139">
        <path d="M 38.73495101928711 45.62777328491211 L 25.59334182739258 39.96781158447266 L 25.00000190734863 39.71226119995117 L 24.40666198730469 39.96781158447266 L 11.26505374908447 45.62777328491211 L 12.53862190246582 31.24311065673828 L 12.59463214874268 30.61039924621582 L 12.17924213409424 30.12986946105957 L 2.761920690536499 19.23572540283203 L 16.71269226074219 16.01231002807617 L 17.33807182312012 15.86781978607178 L 17.66535186767578 15.31567001342773 L 25.00000190734863 2.941738367080688 L 32.33464050292969 15.31567001342773 L 32.66192245483398 15.86781978607178 L 33.28730010986328 16.01231002807617 L 47.23808288574219 19.23572731018066 L 37.82077026367188 30.12986946105957 L 37.40538024902344 30.61039924621582 L 37.46139144897461 31.24311065673828 L 38.73495101928711 45.62777328491211 Z" stroke="none"/>
        <path d="M 25 5.883487701416016 L 18.30113220214844 17.18481063842773 L 5.523853302001953 20.13708877563477 L 14.14480209350586 30.1099796295166 L 12.98094177246094 43.25554656982422 L 25.00000190734863 38.07905960083008 L 37.01906204223633 43.25554656982422 L 35.85520172119141 30.1099796295166 L 44.47615051269531 20.1370906829834 L 31.69886207580566 17.18481063842773 L 25 5.883487701416016 M 25.00000190734863 0 L 33.62499237060547 14.55081939697266 L 50 18.33436965942383 L 38.95555114746094 31.11082077026367 L 40.45085144042969 48 L 25.00000190734863 41.3454704284668 L 9.549152374267578 48 L 11.04445266723633 31.11082077026367 L 3.814697265625e-06 18.33436965942383 L 16.37500381469727 14.55081939697266 L 25.00000190734863 0 Z" stroke="none" fill="#ffd139"/>
      </g>
    </g>
  </g>
</svg>
