<svg xmlns="http://www.w3.org/2000/svg" width="270" height="48.5" viewBox="0 0 270 48.5">
  <g id="グループ_4" data-name="グループ 4" transform="translate(-362.5 -254)">
    <g id="多角形_4" data-name="多角形 4" transform="translate(362.5 254.5)" fill="#ffd139">
      <path d="M 38.73494720458984 45.62777328491211 L 25.59333992004395 39.96781158447266 L 25 39.71226119995117 L 24.40666007995605 39.96781158447266 L 11.26505184173584 45.62777328491211 L 12.53861999511719 31.24311065673828 L 12.59463024139404 30.61039924621582 L 12.17924022674561 30.12986946105957 L 2.761918783187866 19.23572540283203 L 16.71269035339355 16.01231002807617 L 17.33806991577148 15.86781978607178 L 17.66534996032715 15.31567001342773 L 25 2.941736936569214 L 32.33464813232422 15.31567001342773 L 32.66193008422852 15.86781978607178 L 33.28731155395508 16.01231002807617 L 47.23808288574219 19.23572540283203 L 37.82075881958008 30.12986946105957 L 37.40536880493164 30.61039924621582 L 37.46138000488281 31.24311065673828 L 38.73494720458984 45.62777328491211 Z" stroke="none"/>
      <path d="M 25 5.88348388671875 L 18.3011302947998 17.18481063842773 L 5.523853302001953 20.13708877563477 L 14.14480972290039 30.1099796295166 L 12.98094177246094 43.25554656982422 L 25 38.07905960083008 L 37.01905822753906 43.25554656982422 L 35.85519027709961 30.1099796295166 L 44.47614669799805 20.13708877563477 L 31.6988697052002 17.18481063842773 L 25 5.88348388671875 M 25 0 L 33.625 14.55081939697266 L 50 18.33436965942383 L 38.95553970336914 31.11082077026367 L 40.45085144042969 48 L 25 41.3454704284668 L 9.549148559570312 48 L 11.04446029663086 31.11082077026367 L 0 18.33436965942383 L 16.375 14.55081939697266 L 25 0 Z" stroke="none" fill="#ffd139"/>
    </g>
    <g id="多角形_5" data-name="多角形 5" transform="translate(417.5 254)" fill="#ffd139">
      <path d="M 38.73494720458984 45.62777328491211 L 25.59333992004395 39.96781158447266 L 25 39.71226119995117 L 24.40666007995605 39.96781158447266 L 11.26505184173584 45.62777328491211 L 12.53861999511719 31.24311065673828 L 12.59463024139404 30.61039924621582 L 12.17924022674561 30.12986946105957 L 2.761918783187866 19.23572540283203 L 16.71269035339355 16.01231002807617 L 17.33806991577148 15.86781978607178 L 17.66534996032715 15.31567001342773 L 25 2.941736936569214 L 32.33464813232422 15.31567001342773 L 32.66193008422852 15.86781978607178 L 33.28731155395508 16.01231002807617 L 47.23808288574219 19.23572540283203 L 37.82075881958008 30.12986946105957 L 37.40536880493164 30.61039924621582 L 37.46138000488281 31.24311065673828 L 38.73494720458984 45.62777328491211 Z" stroke="none"/>
      <path d="M 25 5.88348388671875 L 18.3011302947998 17.18481063842773 L 5.523853302001953 20.13708877563477 L 14.14480972290039 30.1099796295166 L 12.98094177246094 43.25554656982422 L 25 38.07905960083008 L 37.01905822753906 43.25554656982422 L 35.85519027709961 30.1099796295166 L 44.47614669799805 20.13708877563477 L 31.6988697052002 17.18481063842773 L 25 5.88348388671875 M 25 0 L 33.625 14.55081939697266 L 50 18.33436965942383 L 38.95553970336914 31.11082077026367 L 40.45085144042969 48 L 25 41.3454704284668 L 9.549148559570312 48 L 11.04446029663086 31.11082077026367 L 0 18.33436965942383 L 16.375 14.55081939697266 L 25 0 Z" stroke="none" fill="#ffd139"/>
    </g>
    <g id="多角形_6" data-name="多角形 6" transform="translate(472.5 254)" fill="#ffd139">
      <path d="M 38.73494720458984 45.62777328491211 L 25.59333992004395 39.96781158447266 L 25 39.71226119995117 L 24.40666007995605 39.96781158447266 L 11.26505184173584 45.62777328491211 L 12.53861999511719 31.24311065673828 L 12.59463024139404 30.61039924621582 L 12.17924022674561 30.12986946105957 L 2.761918783187866 19.23572540283203 L 16.71269035339355 16.01231002807617 L 17.33806991577148 15.86781978607178 L 17.66534996032715 15.31567001342773 L 25 2.941736936569214 L 32.33464813232422 15.31567001342773 L 32.66193008422852 15.86781978607178 L 33.28731155395508 16.01231002807617 L 47.23808288574219 19.23572540283203 L 37.82075881958008 30.12986946105957 L 37.40536880493164 30.61039924621582 L 37.46138000488281 31.24311065673828 L 38.73494720458984 45.62777328491211 Z" stroke="none"/>
      <path d="M 25 5.88348388671875 L 18.3011302947998 17.18481063842773 L 5.523853302001953 20.13708877563477 L 14.14480972290039 30.1099796295166 L 12.98094177246094 43.25554656982422 L 25 38.07905960083008 L 37.01905822753906 43.25554656982422 L 35.85519027709961 30.1099796295166 L 44.47614669799805 20.13708877563477 L 31.6988697052002 17.18481063842773 L 25 5.88348388671875 M 25 0 L 33.625 14.55081939697266 L 50 18.33436965942383 L 38.95553970336914 31.11082077026367 L 40.45085144042969 48 L 25 41.3454704284668 L 9.549148559570312 48 L 11.04446029663086 31.11082077026367 L 0 18.33436965942383 L 16.375 14.55081939697266 L 25 0 Z" stroke="none" fill="#ffd139"/>
    </g>
    <g id="多角形_7" data-name="多角形 7" transform="translate(527.5 254)" fill="#ffd139">
      <path d="M 38.73494720458984 45.62777328491211 L 25.59333992004395 39.96781158447266 L 25 39.71226119995117 L 24.40666007995605 39.96781158447266 L 11.26505184173584 45.62777328491211 L 12.53861999511719 31.24311065673828 L 12.59463024139404 30.61039924621582 L 12.17924022674561 30.12986946105957 L 2.761918783187866 19.23572540283203 L 16.71269035339355 16.01231002807617 L 17.33806991577148 15.86781978607178 L 17.66534996032715 15.31567001342773 L 25 2.941736936569214 L 32.33464813232422 15.31567001342773 L 32.66193008422852 15.86781978607178 L 33.28731155395508 16.01231002807617 L 47.23808288574219 19.23572540283203 L 37.82075881958008 30.12986946105957 L 37.40536880493164 30.61039924621582 L 37.46138000488281 31.24311065673828 L 38.73494720458984 45.62777328491211 Z" stroke="none"/>
      <path d="M 25 5.88348388671875 L 18.3011302947998 17.18481063842773 L 5.523853302001953 20.13708877563477 L 14.14480972290039 30.1099796295166 L 12.98094177246094 43.25554656982422 L 25 38.07905960083008 L 37.01905822753906 43.25554656982422 L 35.85519027709961 30.1099796295166 L 44.47614669799805 20.13708877563477 L 31.6988697052002 17.18481063842773 L 25 5.88348388671875 M 25 0 L 33.625 14.55081939697266 L 50 18.33436965942383 L 38.95553970336914 31.11082077026367 L 40.45085144042969 48 L 25 41.3454704284668 L 9.549148559570312 48 L 11.04446029663086 31.11082077026367 L 0 18.33436965942383 L 16.375 14.55081939697266 L 25 0 Z" stroke="none" fill="#ffd139"/>
    </g>
    <g id="多角形_10" data-name="多角形 10" transform="translate(582.5 254)" fill="#ffd139" opacity="0">
      <path d="M 38.73494720458984 45.62777328491211 L 25.59333992004395 39.96781158447266 L 25 39.71226119995117 L 24.40666007995605 39.96781158447266 L 11.26505184173584 45.62777328491211 L 12.53861999511719 31.24311065673828 L 12.59463024139404 30.61039924621582 L 12.17924022674561 30.12986946105957 L 2.761918783187866 19.23572540283203 L 16.71269035339355 16.01231002807617 L 17.33806991577148 15.86781978607178 L 17.66534996032715 15.31567001342773 L 25 2.941736936569214 L 32.33464813232422 15.31567001342773 L 32.66193008422852 15.86781978607178 L 33.28731155395508 16.01231002807617 L 47.23808288574219 19.23572540283203 L 37.82075881958008 30.12986946105957 L 37.40536880493164 30.61039924621582 L 37.46138000488281 31.24311065673828 L 38.73494720458984 45.62777328491211 Z" stroke="none"/>
      <path d="M 25 5.88348388671875 L 18.3011302947998 17.18481063842773 L 5.523853302001953 20.13708877563477 L 14.14480972290039 30.1099796295166 L 12.98094177246094 43.25554656982422 L 25 38.07905960083008 L 37.01905822753906 43.25554656982422 L 35.85519027709961 30.1099796295166 L 44.47614669799805 20.13708877563477 L 31.6988697052002 17.18481063842773 L 25 5.88348388671875 M 25 0 L 33.625 14.55081939697266 L 50 18.33436965942383 L 38.95553970336914 31.11082077026367 L 40.45085144042969 48 L 25 41.3454704284668 L 9.549148559570312 48 L 11.04446029663086 31.11082077026367 L 0 18.33436965942383 L 16.375 14.55081939697266 L 25 0 Z" stroke="none" fill="#ffd139"/>
    </g>
  </g>
</svg>
