<svg xmlns="http://www.w3.org/2000/svg" width="4018.605" height="721.957" viewBox="0 0 4018.605 721.957">
  <g id="グループ_20963" data-name="グループ 20963" transform="translate(-18330.5 -12582.669)">
    <rect id="長方形_5220" data-name="長方形 5220" width="3341" height="108" transform="translate(18330.5 13196.626)" fill="#f4d852" opacity="0.936"/>
    <g id="グループ_20962" data-name="グループ 20962" transform="translate(2543.922 2617.669)">
      <g id="グループ_20957" data-name="グループ 20957" transform="translate(2998 627)">
        <g id="グループ_20955" data-name="グループ 20955" transform="translate(-1186.86 -33.343)">
          <path id="パス_36627" data-name="パス 36627" d="M291.906-94.857c-13.874,1.85-29.289,2.466-53.028,2.466H64.072c-22.506,0-37-.617-53.336-2.466v53.644a510.676,510.676,0,0,1,53.336-2.466H238.879a497.087,497.087,0,0,1,53.028,2.466Zm155.075-20.656h13.565c8.016,0,9.866,0,16.648.308-.617-4.008-.617-6.166-.617-14.49v-9.866c6.474,8.016,8.941,12.024,14.8,22.2,4.316-3.7,5.549-4.933,9.249-8.324v24.356c5.858-.617,15.723-.925,26.206-.925h52.1c12.024,0,20.04.308,26.822,1.233v-37c-6.783.617-14.49.925-27.747.925H511.416c4.933-5.549,6.783-7.708,11.1-13.257h64.127a264.832,264.832,0,0,1,28.055,1.233v-40.7a253.524,253.524,0,0,1-28.364,1.542h-40.7c3.391-7.4,3.391-7.4,6.166-13.257l-45.629-7.091a98.393,98.393,0,0,1-29.289,46.553,5.246,5.246,0,0,1,.308-2.158c-5.241.308-8.016.308-16.032.308H447.29v-8.632h12.949a193.8,193.8,0,0,1,22.506.925v-30.522c-8.632,1.233-16.957,1.542-31.138,1.542H374.531c-17.573,0-24.047-.308-32.372-.925.617,8.324.925,14.8.925,33.913v49.945c0,18.5-.308,24.972-.617,33.6,8.016-.617,11.407-.617,20.348-.617h7.4c.308,4.008.308,6.166.308,8.941V-3.292c0,14.182-.308,23.431-1.233,30.522,8.324-.308,16.032-.617,31.138-.617h11.715c-15.107,12.949-39.771,19.115-77.075,19.115a15.128,15.128,0,0,1-3.391-.308c9.866,14.49,14.8,23.739,20.656,39.771,26.514-2.158,43.47-5.549,59.81-12.024,24.047-9.866,42.237-26.514,50.87-46.553H479.97V54.361c0,23.123,8.941,26.822,64.435,26.822,39.154,0,52.719-1.85,61.352-8.016,9.557-7.091,13.565-19.115,15.723-49.02-18.5-3.391-26.514-5.858-39.771-12.024V-76.051c0-7.708,0-10.482.617-14.49-8.324.617-12.949.925-28.364.925H482.744v-17.573c-4.316.617-9.866.925-23.739.925H446.982Zm-39.463,0v9.249H385.013v-9.249Zm-22.506-19.423v-9.557h49.945v9.557Zm0-28.98v-8.632h22.814v8.632ZM525.907,26.613h25.9c14.182,0,19.731,0,27.439.617-.925,10.482-1.233,12.024-4.008,13.874-3.083,2.466-9.557,3.083-26.514,3.083-20.04,0-22.814-.925-22.814-8.016ZM415.535-64.952H535.772v8.016H415.535Zm0,28.364H535.772v7.4H415.535Zm0,27.747H535.772v7.708H415.535Z" transform="translate(17372.563 9985.109)"/>
          <path id="パス_36626" data-name="パス 36626" d="M132.029-106.353v46.245H92.874c-18.806,0-29.289-.308-41.312-1.542V-15.4c13.257-1.233,25.9-1.85,42.237-1.85h38.229V33H64.511a490.673,490.673,0,0,1-49.02-2.158V78.627c17.881-1.542,33.3-2.158,50.87-2.158H246.1c16.957,0,29.905.617,47.478,2.158V30.841c-14.49,1.542-29.6,2.158-49.02,2.158h-63.51V-17.254h45.629c16.34,0,28.98.617,42.854,1.85V-61.958a423.96,423.96,0,0,1-43.162,1.85h-45.32v-46.245h55.186c16.648,0,31.138.617,46.553,1.85v-46.553c-14.8,1.233-29.905,1.85-48.095,1.85H181.048v-14.182c0-20.04.308-30.522,1.85-41.312H130.179c1.233,10.482,1.85,22.506,1.85,41.312v14.182h-37c2.158-6.783,3.7-11.407,5.241-17.573,2.466-8.324,2.466-8.324,6.166-18.806L58.345-196.994c-2.466,37.921-25.589,86.633-53.953,114.38,14.49,14.8,19.115,20.348,30.83,40.079,16.957-19.115,29.6-38.538,42.237-63.818Zm429.463-4.316c-2.775,17.265-8.941,34.838-20.656,57.652-4.316-19.731-7.091-44.7-8.632-71.834H578.14A387.344,387.344,0,0,1,618.527-123v-46.553c-8.632,1.233-14.182,1.542-30.522,1.542L606.2-183.12c-12.64-11.407-23.122-19.115-39.154-28.672l-29.6,27.439c8.941,4.933,12.949,7.708,24.664,16.34H530.97V-182.5a156.684,156.684,0,0,1,1.542-22.2H482.258c.925,6.783,1.233,11.1,1.85,36.688H396.859c-16.34,0-29.289-.617-41.929-1.542a397.9,397.9,0,0,1,1.85,40.7c0,56.419-3.083,97.731-8.941,125.17-4.625,20.964-9.557,32.988-20.348,50.561,14.8,12.024,22.2,19.731,37,38.229,14.182-20.656,22.506-42.237,28.672-72.451a198.675,198.675,0,0,1,7.091,33.913c4.933.308,8.016.308,11.1.308a152.6,152.6,0,0,0,32.063-3.391c10.174,13.257,14.8,20.656,22.814,37,26.514-15.415,43.47-28.055,61.66-45.937,21.273,30.522,40.387,45.629,57.961,45.629,18.806,0,30.83-20.04,38.846-66.285-14.8-8.941-22.2-14.8-35.455-27.747-3.083,22.2-4.625,29.905-8.632,39.771-8.016-6.783-12.949-13.565-21.273-28.055,15.415-21.581,30.522-49.945,41.312-77.075a144.514,144.514,0,0,1,5.858-14.8ZM402.717-92.788c.308-10.174.308-15.107.308-32.063h82.933C489.349-70.59,494.59-41.61,506.922-6.464c-11.407,11.715-25.9,23.123-42.237,33.3,5.241-11.407,8.324-32.988,9.557-64.127,1.85-47.787,1.85-47.787,2.466-56.419a169.76,169.76,0,0,1-20.348.925Zm27.13,41.929c-.925,30.522-1.85,42.237-4.624,48.4C423.064,2.477,420.6,3.71,413.2,3.71c-4.625,0-8.324-.308-18.19-1.85,2.466-16.34,4.316-31.755,5.858-52.719ZM912.338,65.37c-4.008-8.632-8.941-21.273-14.8-37.613l-66.9-185.6c-6.166-16.34-8.324-24.356-10.482-33.3H739.689c-1.541,8.941-4.316,18.19-9.866,33.3l-66.593,185.6c-7.4,20.964-10.174,28.364-14.8,37.613h72.142a177.668,177.668,0,0,1,7.707-33.3l8.324-26.206h87.866L832.8,32.074a250.377,250.377,0,0,1,7.4,33.3ZM809.365-45.926H751.4l28.672-92.49Zm139.66-145.21c1.85,13.565,2.466,22.506,2.466,45.629V19.742c0,20.656-.617,33.6-2.466,45.629h67.826c-1.85-12.949-2.466-24.356-2.466-45.629V-145.507c0-22.506.617-32.988,2.466-45.629ZM1346.117,29.607c-48.1-45.937-60.735-56.727-98.04-83.55,17.265-23.123,28.98-44.7,45.32-83.241,4.624-10.482,6.474-13.565,11.1-18.19l-27.13-27.747c-8.324,3.083-10.174,3.083-24.664,3.391l-105.439,1.542c-8.941.308-14.8.308-17.265.308a228.4,228.4,0,0,1-32.372-2.158l1.542,54.878c12.64-1.85,22.506-2.466,49.02-3.083l80.158-1.233c-14.49,35.763-33.3,63.2-61.969,90.64-28.055,26.822-59.81,46.862-99.89,62.277,17.265,17.881,23.739,27.13,34.53,48.712C1148.8,49.03,1185.492,21.9,1214.472-12.321c34.53,26.822,61.66,53.644,88.482,87.557Zm132.261-234.617c-1.542,10.791-5.241,20.964-13.257,37-20.04,39.462-44.4,67.518-82.008,94.032,20.348,12.332,28.055,19.115,43.779,37,29.289-23.123,49.945-45.629,69.984-77.383l82.008-.925c-11.407,35.455-28.672,64.435-51.486,87.557-27.13,27.13-59.194,46.862-102.972,62.893,17.265,15.107,26.822,27.13,37,46.862,50.561-23.123,85.4-47.478,113.454-79.542,27.131-30.83,48.095-70.909,63.818-122.087,4.316-13.874,5.241-15.723,8.941-21.889l-25.589-25.281c-7.4,2.775-10.791,3.391-22.814,3.391l-77.384.925c2.158-4.316,2.158-4.316,6.166-13.257q.925-1.85,2.775-6.474c.925-1.85,1.542-3.7,2.158-4.625a45.314,45.314,0,0,1,3.7-7.708ZM1706.829-32.053c18.806-1.541,28.98-1.85,63.51-1.85H1917.09c35.146,0,48.712.308,63.51,1.85v-59.5c-20.656,2.158-32.371,2.775-63.2,2.775H1770.03c-32.063,0-48.712-.617-63.2-2.775Zm367.186-158.775c.925,8.016,1.233,14.8,1.233,28.364,0,79.85-4.933,118.079-19.423,148.293-9.557,20.348-19.115,33.3-36.688,49.02,19.731,13.874,28.364,22.506,44.087,43.162,20.964-22.2,32.68-38.846,42.854-61.66,14.8-33.6,20.965-67.826,22.814-132.261,2.158-61.044,2.158-61.044,3.391-71.526Zm87.557-1.542a183.2,183.2,0,0,1,1.233,24.047v11.1l-1.541,182.514c0,12.64-.617,17.881-3.391,25.9l26.514,27.747c4.008-2.466,6.474-3.391,15.106-6.474,31.138-11.407,46.245-19.423,64.743-35.146,23.431-20.04,39.462-43.779,53.336-78.308-17.573-13.565-25.589-21.581-41-40.7-5.549,20.964-12.948,37-24.048,52.719-10.482,14.49-20.347,23.431-37,33.913l1.542-161.55c.308-18.19.617-23.123,2.467-35.763Zm329.882,83.858a46.974,46.974,0,0,0-47.17,47.17,46.908,46.908,0,0,0,47.17,46.862,46.908,46.908,0,0,0,46.862-47.17A46.841,46.841,0,0,0,2491.454-108.511Zm353.313,28.055v8.941h-34.53c-11.407,0-17.573-.308-24.356-.925.617,6.783.925,13.257.925,26.822V-3.072A39.932,39.932,0,0,1,2777.249-4V36.39a66.652,66.652,0,0,1,9.557-.925v5.549c0,15.107-.308,24.972-.616,29.905-.617,7.708-.617,7.708-.925,12.024h45.012c-1.542-9.557-1.85-16.957-1.85-41.929V35.465h76.767v7.091c0,4.625-2.467,5.549-13.257,5.549-5.549,0-14.49-.617-24.664-1.542,4.625,12.949,6.166,19.731,7.091,34.221,4.008,0,7.4.308,9.557.308,8.016.308,13.565.617,15.415.617,14.182,0,30.522-2.158,36.071-4.933,8.324-4.008,11.407-11.715,11.407-27.13V35.465c7.091.308,10.174.617,15.107,1.233v-41a71.069,71.069,0,0,1-15.107,1.233V-43.46a256.149,256.149,0,0,1,1.233-29.289c-7.091.925-14.182,1.233-27.439,1.233h-32.063v-8.941h52.1c10.174,0,14.8.308,20.964,1.233v-34.838c-4.624.617-9.557.925-20.964.925h-19.731v-8.632h12.64a145.918,145.918,0,0,1,17.881.925v-28.364c-3.391.617-9.249.925-17.265.925h-13.257v-8.632h18.19a178.615,178.615,0,0,1,18.807.925v-32.988c-5.241.925-10.482,1.233-19.115,1.233h-17.881c0-9.249.308-12.024,1.85-17.265H2876.83c1.233,5.549,1.541,7.4,1.541,17.265h-27.438c0-8.632.308-12.024,1.85-17.265h-45.937c1.233,5.241,1.541,8.016,1.541,17.265h-8.94a137.715,137.715,0,0,1-20.656-1.233v32.988a178.6,178.6,0,0,1,18.806-.925h10.791v8.632H2801.6a139.069,139.069,0,0,1-17.882-.925v28.364a145.925,145.925,0,0,1,17.882-.925h6.782v8.632h-10.174a216.438,216.438,0,0,1-21.889-.925v34.838a150.02,150.02,0,0,1,21.889-1.233Zm2.775,82.316h-19.115v-11.1h19.115Zm38.538,0v-11.1h19.115V1.86Zm-38.538-34.221h-19.115V-43.768h19.115Zm38.538,0V-43.768h19.115v11.407Zm-35.146-80.775v-8.632h27.438v8.632Zm0-35.146v-8.632h27.438v8.632Zm-171.107-16.34c8.633-.617,15.107-.925,27.747-.925h34.838c12.949,0,20.04.308,27.747.925V-201c-8.941.925-13.257,1.233-27.747,1.233h-34.838c-14.49,0-18.806-.308-27.747-1.233Zm-9.249,49.328a187.224,187.224,0,0,1,24.664-1.233h54.57c14.8,0,17.265,0,24.047.925v-41a239.612,239.612,0,0,1-24.664.925h-53.953a184.249,184.249,0,0,1-24.664-1.233Zm9.865,43.162c5.241-.308,9.249-.617,18.19-.617h53.644c8.633,0,12.024,0,17.265.617V-106.97c-4.933.617-8.016.617-17.265.617h-53.644c-8.94,0-12.949-.308-18.19-.617Zm0,43.779c5.55-.617,8.941-.617,17.573-.617h53.028c10.174,0,14.182.308,18.5.925V-63.5c-5.858.617-7.708.617-17.573.617h-53.336c-9.249,0-12.023,0-18.19-.617Zm36.688,111.3V70.92h16.648v8.016H2771.7c0-1.85-.309-8.016-.617-18.806V1.552c0-12.64,0-13.874.617-20.964-4.933.617-8.016.925-18.19.925h-54.261c-9.866,0-12.332,0-22.2-.617a182.409,182.409,0,0,1,1.233,23.431V53.038c0,9.866-.616,20.656-1.541,29.905Zm-1.542-67.826h18.5V34.54h-18.5Zm422.989,1.233V34.232h-58.885c-17.881,0-21.581,0-30.213-.925v45.32a398.222,398.222,0,0,1,40.079-1.85h151.684a393.646,393.646,0,0,1,40.7,1.85V33c-9.249.925-16.34,1.233-30.522,1.233h-67.209V16.351h53.952c16.956,0,21.581.308,29.905,1.233V-26.5c-3.391.308-4.316.308-7.091.617,5.55-14.49,11.407-25.281,21.889-40.079-16.648-9.557-27.13-18.806-38.229-33.6,2.775-9.866,4.316-14.8,7.4-28.98l-42.854-9.249c-1.233,23.739-11.1,50.87-24.972,69.984V-99.262c0-18.806,0-24.356,1.233-33.3h-48.4c1.233,9.249,1.541,15.723,1.541,33.3V-74.6a106.635,106.635,0,0,1-22.2-26.206c2.775-9.249,4.008-13.565,7.4-28.055l-41-8.941c-2.775,27.439-10.482,50.253-23.123,68.751.925-21.581,1.233-35.763,1.233-70.293h187.447a320.211,320.211,0,0,1,32.988,1.542v-47.478a389.535,389.535,0,0,1-40.079,1.85h-69.676v-5.858a76.819,76.819,0,0,1,1.233-16.032h-50.87a72.121,72.121,0,0,1,1.542,15.415v6.474h-69.984c-16.34,0-27.747-.308-41.621-1.542a244.9,244.9,0,0,1,1.85,31.755c0,63.2-.925,91.565-3.7,120.546-3.7,36.688-9.557,58.885-20.656,78.617,16.648,13.257,25.281,22.2,37.3,38.846,10.174-17.265,15.724-31.138,20.656-52.411,5.858-23.739,9.249-48.712,11.407-79.85,7.091,6.474,11.407,11.715,18.807,22.2-6.783-.308-9.558-.617-14.8-1.233V17.275c8.632-.925,11.715-.925,29.288-.925Zm0-41.621h-60.119c9.557-12.024,15.107-20.348,21.889-34.221a261.606,261.606,0,0,0,23.431,30.213,198.506,198.506,0,0,1,14.8-28.364Zm45.629,0V-49.626c8.94,8.632,13.565,14.182,19.731,24.356Zm22.506,0a164.667,164.667,0,0,0,21.581-32.988,151.983,151.983,0,0,0,32.063,32.372c-7.707.617-11.407.617-22.2.617Z" transform="translate(13993.286 9984.273)" fill="#533afc"/>
        </g>
        <path id="長方形_5215" data-name="長方形 5215" d="M10,10V319H319V10H10M0,0H329V329H0Z" transform="translate(14071 9338)"/>
        <path id="長方形_5216" data-name="長方形 5216" d="M10,10V319H319V10H10M0,0H329V329H0Z" transform="translate(14440 9338)"/>
        <path id="長方形_5217" data-name="長方形 5217" d="M10,10V319H319V10H10M0,0H329V329H0Z" transform="translate(14809 9338)"/>
        <path id="長方形_5218" data-name="長方形 5218" d="M10,10V319H319V10H10M0,0H329V329H0Z" transform="translate(15178 9338)"/>
        <path id="パス_36622" data-name="パス 36622" d="M50.88-148.32c-7.92,18.24-29.52,42.96-48.48,55.2C7.92-79.2,10.56-69.6,14.16-53.52a64.479,64.479,0,0,0,10.32-9.6V-6.48A220.661,220.661,0,0,1,23.04,21.6h37.2c-.72-7.2-.96-13.68-.96-26.64v-92.4c6.24-8.64,6.24-8.64,8.16-11.52,6.48-1.2,8.4-1.44,24.72-2.16,9.12-.48,31.68-2.4,39.12-3.12a49.763,49.763,0,0,1,1.44,6.24l14.16-6.72a88.343,88.343,0,0,1-6,9.6H84.48a157.026,157.026,0,0,1-16.08-.48c.72,5.04.96,9.6.96,18.48V-3.6a202.647,202.647,0,0,1-1.2,24.48H102c-.48-5.52-.72-11.76-.72-19.92v-20.4h18v8.16c0,2.88-.96,3.36-6.24,3.36a80.563,80.563,0,0,1-9.6-.48c4.32,7.44,5.52,13.92,6,26.88,3.84.24,6.48.24,8.4.24,20.4,0,27.84-3.12,31.92-13.68a115.647,115.647,0,0,1,8.16,19.44c15.12-13.92,22.32-21.84,31.44-35.28C200.4,3.84,207.6,11.52,220.8,22.56c5.28-17.52,9.12-25.92,17.04-39.36-12.96-8.64-21.36-16.32-30-27.84,11.52-28.08,16.8-54.72,18-91.44,5.04.24,6,.24,8.88.48v-35.04a131.413,131.413,0,0,1-18.72.96H197.76c1.92-7.44,2.4-9.6,3.6-14.64,1.68-7.68,2.64-10.8,3.36-13.68l-34.8-7.92c-.24,6.24-.72,10.8-1.92,20.16-2.64,19.44-6.96,35.52-14.4,55.44a199.358,199.358,0,0,0-12-24.72h4.56c.96,0,2.88,0,5.76.24h7.2v-33.12a147.733,147.733,0,0,1-20.16.96H127.92v-4.56a66.421,66.421,0,0,1,.96-12.96H92.4a52.086,52.086,0,0,1,1.2,12.72v4.8H73.92L48.96-207.12c-6.48,14.16-25.44,32.4-45.36,43.2,6.24,12,8.88,19.2,13.68,35.28,18-11.04,29.76-21.12,45.6-38.64v13.2a146.674,146.674,0,0,1,19.68-.96,145.173,145.173,0,0,1-5.52,16.32c-8.64,0-11.28,0-14.4-.72Zm89.28-6.72-21.12,6.72a47.21,47.21,0,0,1,3.6,8.16c-5.28.48-6.96.48-13.92.96,2.88-6.72,4.08-9.6,6.24-15.84Zm54.24,18.72c-.72,22.8-2.16,36-6.72,54.48a150.969,150.969,0,0,1-7.92-31.44c3.84-9.84,5.52-14.4,8.4-23.04ZM151.68-85.2a51.378,51.378,0,0,1,6.72,8.4c2.4,9.6,6.72,21.6,12.48,34.56a112.8,112.8,0,0,1-19.2,23.28Zm-50.4,43.68v-8.4h18v8.4Zm0-30.48v-8.16h18V-72Z" transform="translate(14115.5 9593.5)"/>
        <path id="パス_36623" data-name="パス 36623" d="M188.88-8.16c7.92,6.24,15.6,9.36,21.84,9.36,8.64,0,15.84-6.24,19.92-17.52,3.84-10.08,5.28-19.44,6.72-37.92-9.84-6-14.4-9.6-24.96-20.16-1.44,21.84-3.12,32.4-5.28,32.4-1.2,0-5.04-5.28-8.16-11.28-5.76-10.8-9.6-26.64-12-47.28l18.24-.24a61.437,61.437,0,0,1,7.92-.24,164.706,164.706,0,0,1,16.56.48l-.48-35.76c-7.68,1.2-11.52,1.44-23.76,1.68l-20.88.48c-.48-9.6-.48-13.68-.48-20.16v-9.36c15.36-2.88,20.16-3.84,33.6-7.44,4.08-.96,5.28-1.2,8.88-2.16l-26.88-33.36c-9.84,5.04-23.28,8.88-44.88,12.72-26.16,4.8-50.88,7.44-70.8,7.44.72,6.24.72,9.36.72,22.08V-57.6c-11.04,1.68-11.76,1.92-18,2.16l4.32,37.68a80.763,80.763,0,0,1,11.04-2.88c31.44-6.48,50.88-11.52,72.24-18.48l-.72-33.36c-16.08,4.32-21.6,5.52-33.12,7.92V-98.88l31.2-.72c2.64,21.6,4.56,31.92,8.88,44.16,5.28,16.56,10.32,26.64,18,36.48-6.24.48-10.08.48-15.6.48H94.8a147.24,147.24,0,0,1-16.32-.72V15.84a194.111,194.111,0,0,1,25.44-1.2h59.04a206.639,206.639,0,0,1,25.92,1.2Zm-68.4-124.32V-156c14.4-.96,19.68-1.44,27.6-2.4.48,13.2.96,21.6.96,25.2ZM27.36-5.76a199.907,199.907,0,0,1-1.44,27.6H64.08a210.493,210.493,0,0,1-1.44-27.6V-145.2c8.88-17.76,10.56-22.56,19.92-52.8L44.4-206.64a153.527,153.527,0,0,1-9.36,33.6C26.64-150.72,16.56-134.4,2.64-120A250.468,250.468,0,0,1,14.88-75.84,124.093,124.093,0,0,0,27.84-92.16c-.24,6.24-.48,19.2-.48,24.24Z" transform="translate(14484.5 9593.5)"/>
        <path id="パス_36624" data-name="パス 36624" d="M67.68-100.56H94.56c12.72,0,17.52.24,24.24,1.2V-136.8c-6.72.96-11.52,1.2-24.24,1.2H67.68v-34.8c0-15.6.24-21.12,1.44-30H28.08c1.2,8.64,1.44,14.64,1.44,30V-21.12C19.2-18.96,14.88-18.48,6.96-18.24l5.76,40.08c3.6-.96,11.76-3.36,15.84-4.32,36.48-8.88,60-15.6,90.24-25.68l-.24-35.04c-20.16,6-31.92,9.12-50.88,13.68Zm93.84,11.52c23.28-11.52,53.76-29.52,65.04-38.4,4.08-3.36,5.76-4.32,7.92-6l-24.72-30.72c-8.16,9.84-26.88,23.76-48.24,35.76v-41.52c0-15.36.24-21.84,1.44-30H122.88c1.2,8.16,1.44,14.4,1.44,30V-9.84c0,15.12,3.36,22.08,12,25.68,6.72,2.88,16.08,3.84,36.48,3.84,27.12,0,37.92-1.92,45.6-8.16,10.56-8.88,13.44-21.6,15.36-67.68-15.6-3.6-23.04-6.48-36.24-13.92v9.12c0,23.76-1.2,38.64-3.6,42-1.92,3.12-6.48,4.08-17.52,4.08-12.48,0-14.88-.96-14.88-5.52Z" transform="translate(14853.5 9593.5)"/>
        <path id="パス_36625" data-name="パス 36625" d="M102-8.4c7.68,8.88,12.24,16.08,19.68,31.92,20.64-10.08,33.6-19.68,48.24-35.04C183.6,2.4,196.08,11.28,218.4,23.04,223.92,6.96,228-.72,237.12-13.2,216-21.36,204.48-28.08,191.28-40.32c8.16-14.4,12.24-24,17.28-41.76,3.36,3.36,4.8,4.8,9.6,9.36,4.56-12.24,9.36-20.16,19.2-32.64-16.56-14.64-26.64-27.12-34.8-43.2h5.28a203.108,203.108,0,0,1,24.72,1.2v-35.76c-7.68.96-12.96,1.2-24.48,1.2H189.36v-6.48a98.818,98.818,0,0,1,.96-16.32H151.44a116.784,116.784,0,0,1,.96,17.04v5.76h-9.84c-11.28,0-17.04-.24-23.76-1.2v35.52a169.417,169.417,0,0,1,17.28-.96,123.462,123.462,0,0,1-22.8,36.24v-9.36c0-15.12,0-18.24.48-24.24-4.56.48-7.2.48-18.96.48H81.6v-8.64h9.6c13.44,0,16.08,0,22.8.72v-32.4c-7.2.96-10.56,1.2-22.8,1.2H81.6v-1.92a94.813,94.813,0,0,1,1.44-17.76H46.8a104.376,104.376,0,0,1,1.44,17.76v1.92H33.36c-12.48,0-16.08-.24-23.28-1.2v32.64a200.612,200.612,0,0,1,23.28-.96H48.24v8.64H40.08c-13.68,0-16.8,0-24.96-.72.72,7.44.96,14.4.96,27.36v41.28c0,12.96-.24,21.12-.96,30C24.48-48,28.56-48,40.32-48h7.92v8.4H31.92c-12.48,0-16.08-.24-23.28-1.2V-7.2C15.6-8.16,20.4-8.4,31.92-8.4H48.24V-.48A156.145,156.145,0,0,1,46.8,21.84h36A180.546,180.546,0,0,1,81.6,1.2V-8.4H102Zm15.84-32.4A115.329,115.329,0,0,1,98.4-39.6H81.6V-48h12c13.2,0,14.16,0,20.16.48-.24-7.92-.48-15.36-.48-27.84v-12a144.183,144.183,0,0,1,9.6,15.84q5.04-5.4,6.48-7.2a183.541,183.541,0,0,0,18.72,39.6c-9.12,9.36-17.52,15.6-30.24,23.04Zm28.32-59.04c7.2-10.32,11.76-18.24,20.64-37.2l-21.36-11.52h47.52L173.04-136.8c8.16,18,12.48,25.44,21.12,37.44l-14.88-4.8c-2.4,13.68-5.04,22.56-10.32,34.32a119.956,119.956,0,0,1-12-33.84ZM77.52-73.68v-12H87.6v12Zm0-34.8v-11.28H87.6v11.28ZM52.08-119.76v11.28H42v-11.28Zm0,34.08v12H42v-12Z" transform="translate(15222.5 9593.5)"/>
      </g>
    </g>
  </g>
</svg>
